<?xml version="1.0" encoding="utf-8"?>
<svg xmlns="http://www.w3.org/2000/svg" xmlns:xlink="http://www.w3.org/1999/xlink" width="600" height="400" viewBox="0 0 2400 1600">
<defs>
  <clipPath id="clip570">
    <rect x="0" y="0" width="2400" height="1600"/>
  </clipPath>
</defs>
<path clip-path="url(#clip570)" d="
M0 1600 L2400 1600 L2400 0 L0 0  Z
  " fill="#ffffff" fill-rule="evenodd" fill-opacity="1"/>
<defs>
  <clipPath id="clip571">
    <rect x="480" y="0" width="1681" height="1600"/>
  </clipPath>
</defs>
<path clip-path="url(#clip570)" d="
M174.862 1486.45 L2352.76 1486.45 L2352.76 47.2441 L174.862 47.2441  Z
  " fill="#ffffff" fill-rule="evenodd" fill-opacity="1"/>
<defs>
  <clipPath id="clip572">
    <rect x="174" y="47" width="2179" height="1440"/>
  </clipPath>
</defs>
<polyline clip-path="url(#clip572)" style="stroke:#000000; stroke-width:2; stroke-opacity:0.1; fill:none" points="
  381.278,1486.45 381.278,47.2441 
  "/>
<polyline clip-path="url(#clip572)" style="stroke:#000000; stroke-width:2; stroke-opacity:0.1; fill:none" points="
  652.826,1486.45 652.826,47.2441 
  "/>
<polyline clip-path="url(#clip572)" style="stroke:#000000; stroke-width:2; stroke-opacity:0.1; fill:none" points="
  924.374,1486.45 924.374,47.2441 
  "/>
<polyline clip-path="url(#clip572)" style="stroke:#000000; stroke-width:2; stroke-opacity:0.1; fill:none" points="
  1195.92,1486.45 1195.92,47.2441 
  "/>
<polyline clip-path="url(#clip572)" style="stroke:#000000; stroke-width:2; stroke-opacity:0.1; fill:none" points="
  1467.47,1486.45 1467.47,47.2441 
  "/>
<polyline clip-path="url(#clip572)" style="stroke:#000000; stroke-width:2; stroke-opacity:0.1; fill:none" points="
  1739.02,1486.45 1739.02,47.2441 
  "/>
<polyline clip-path="url(#clip572)" style="stroke:#000000; stroke-width:2; stroke-opacity:0.1; fill:none" points="
  2010.57,1486.45 2010.57,47.2441 
  "/>
<polyline clip-path="url(#clip572)" style="stroke:#000000; stroke-width:2; stroke-opacity:0.1; fill:none" points="
  2282.11,1486.45 2282.11,47.2441 
  "/>
<polyline clip-path="url(#clip572)" style="stroke:#000000; stroke-width:2; stroke-opacity:0.1; fill:none" points="
  174.862,1445.72 2352.76,1445.72 
  "/>
<polyline clip-path="url(#clip572)" style="stroke:#000000; stroke-width:2; stroke-opacity:0.1; fill:none" points="
  174.862,1106.28 2352.76,1106.28 
  "/>
<polyline clip-path="url(#clip572)" style="stroke:#000000; stroke-width:2; stroke-opacity:0.1; fill:none" points="
  174.862,766.846 2352.76,766.846 
  "/>
<polyline clip-path="url(#clip572)" style="stroke:#000000; stroke-width:2; stroke-opacity:0.1; fill:none" points="
  174.862,427.411 2352.76,427.411 
  "/>
<polyline clip-path="url(#clip572)" style="stroke:#000000; stroke-width:2; stroke-opacity:0.1; fill:none" points="
  174.862,87.9763 2352.76,87.9763 
  "/>
<polyline clip-path="url(#clip570)" style="stroke:#000000; stroke-width:4; stroke-opacity:1; fill:none" points="
  174.862,1486.45 2352.76,1486.45 
  "/>
<polyline clip-path="url(#clip570)" style="stroke:#000000; stroke-width:4; stroke-opacity:1; fill:none" points="
  174.862,1486.45 174.862,47.2441 
  "/>
<polyline clip-path="url(#clip570)" style="stroke:#000000; stroke-width:4; stroke-opacity:1; fill:none" points="
  381.278,1486.45 381.278,1469.18 
  "/>
<polyline clip-path="url(#clip570)" style="stroke:#000000; stroke-width:4; stroke-opacity:1; fill:none" points="
  652.826,1486.45 652.826,1469.18 
  "/>
<polyline clip-path="url(#clip570)" style="stroke:#000000; stroke-width:4; stroke-opacity:1; fill:none" points="
  924.374,1486.45 924.374,1469.18 
  "/>
<polyline clip-path="url(#clip570)" style="stroke:#000000; stroke-width:4; stroke-opacity:1; fill:none" points="
  1195.92,1486.45 1195.92,1469.18 
  "/>
<polyline clip-path="url(#clip570)" style="stroke:#000000; stroke-width:4; stroke-opacity:1; fill:none" points="
  1467.47,1486.45 1467.47,1469.18 
  "/>
<polyline clip-path="url(#clip570)" style="stroke:#000000; stroke-width:4; stroke-opacity:1; fill:none" points="
  1739.02,1486.45 1739.02,1469.18 
  "/>
<polyline clip-path="url(#clip570)" style="stroke:#000000; stroke-width:4; stroke-opacity:1; fill:none" points="
  2010.57,1486.45 2010.57,1469.18 
  "/>
<polyline clip-path="url(#clip570)" style="stroke:#000000; stroke-width:4; stroke-opacity:1; fill:none" points="
  2282.11,1486.45 2282.11,1469.18 
  "/>
<polyline clip-path="url(#clip570)" style="stroke:#000000; stroke-width:4; stroke-opacity:1; fill:none" points="
  174.862,1445.72 200.997,1445.72 
  "/>
<polyline clip-path="url(#clip570)" style="stroke:#000000; stroke-width:4; stroke-opacity:1; fill:none" points="
  174.862,1106.28 200.997,1106.28 
  "/>
<polyline clip-path="url(#clip570)" style="stroke:#000000; stroke-width:4; stroke-opacity:1; fill:none" points="
  174.862,766.846 200.997,766.846 
  "/>
<polyline clip-path="url(#clip570)" style="stroke:#000000; stroke-width:4; stroke-opacity:1; fill:none" points="
  174.862,427.411 200.997,427.411 
  "/>
<polyline clip-path="url(#clip570)" style="stroke:#000000; stroke-width:4; stroke-opacity:1; fill:none" points="
  174.862,87.9763 200.997,87.9763 
  "/>
<path clip-path="url(#clip570)" d="M 0 0 M343.848 1525.04 L356.325 1525.04 L356.325 1528.83 L343.848 1528.83 L343.848 1525.04 Z" fill="#000000" fill-rule="evenodd" fill-opacity="1" /><path clip-path="url(#clip570)" d="M 0 0 M371.394 1508.44 Q367.783 1508.44 365.954 1512 Q364.149 1515.55 364.149 1522.67 Q364.149 1529.78 365.954 1533.35 Q367.783 1536.89 371.394 1536.89 Q375.028 1536.89 376.834 1533.35 Q378.663 1529.78 378.663 1522.67 Q378.663 1515.55 376.834 1512 Q375.028 1508.44 371.394 1508.44 M371.394 1504.73 Q377.204 1504.73 380.26 1509.34 Q383.339 1513.92 383.339 1522.67 Q383.339 1531.4 380.26 1536.01 Q377.204 1540.59 371.394 1540.59 Q365.584 1540.59 362.505 1536.01 Q359.45 1531.4 359.45 1522.67 Q359.45 1513.92 362.505 1509.34 Q365.584 1504.73 371.394 1504.73 Z" fill="#000000" fill-rule="evenodd" fill-opacity="1" /><path clip-path="url(#clip570)" d="M 0 0 M388.408 1534.04 L393.292 1534.04 L393.292 1539.92 L388.408 1539.92 L388.408 1534.04 Z" fill="#000000" fill-rule="evenodd" fill-opacity="1" /><path clip-path="url(#clip570)" d="M 0 0 M402.389 1535.98 L418.709 1535.98 L418.709 1539.92 L396.764 1539.92 L396.764 1535.98 Q399.426 1533.23 404.01 1528.6 Q408.616 1523.95 409.797 1522.61 Q412.042 1520.08 412.922 1518.35 Q413.824 1516.59 413.824 1514.9 Q413.824 1512.14 411.88 1510.41 Q409.959 1508.67 406.857 1508.67 Q404.658 1508.67 402.204 1509.43 Q399.774 1510.2 396.996 1511.75 L396.996 1507.03 Q399.82 1505.89 402.274 1505.31 Q404.727 1504.73 406.764 1504.73 Q412.135 1504.73 415.329 1507.42 Q418.524 1510.11 418.524 1514.6 Q418.524 1516.73 417.713 1518.65 Q416.926 1520.54 414.82 1523.14 Q414.241 1523.81 411.139 1527.03 Q408.037 1530.22 402.389 1535.98 Z" fill="#000000" fill-rule="evenodd" fill-opacity="1" /><path clip-path="url(#clip570)" d="M 0 0 M634.343 1508.44 Q630.731 1508.44 628.903 1512 Q627.097 1515.55 627.097 1522.67 Q627.097 1529.78 628.903 1533.35 Q630.731 1536.89 634.343 1536.89 Q637.977 1536.89 639.782 1533.35 Q641.611 1529.78 641.611 1522.67 Q641.611 1515.55 639.782 1512 Q637.977 1508.44 634.343 1508.44 M634.343 1504.73 Q640.153 1504.73 643.208 1509.34 Q646.287 1513.92 646.287 1522.67 Q646.287 1531.4 643.208 1536.01 Q640.153 1540.59 634.343 1540.59 Q628.532 1540.59 625.454 1536.01 Q622.398 1531.4 622.398 1522.67 Q622.398 1513.92 625.454 1509.34 Q628.532 1504.73 634.343 1504.73 Z" fill="#000000" fill-rule="evenodd" fill-opacity="1" /><path clip-path="url(#clip570)" d="M 0 0 M651.356 1534.04 L656.241 1534.04 L656.241 1539.92 L651.356 1539.92 L651.356 1534.04 Z" fill="#000000" fill-rule="evenodd" fill-opacity="1" /><path clip-path="url(#clip570)" d="M 0 0 M671.31 1508.44 Q667.699 1508.44 665.87 1512 Q664.065 1515.55 664.065 1522.67 Q664.065 1529.78 665.87 1533.35 Q667.699 1536.89 671.31 1536.89 Q674.944 1536.89 676.75 1533.35 Q678.578 1529.78 678.578 1522.67 Q678.578 1515.55 676.75 1512 Q674.944 1508.44 671.31 1508.44 M671.31 1504.73 Q677.12 1504.73 680.176 1509.34 Q683.254 1513.92 683.254 1522.67 Q683.254 1531.4 680.176 1536.01 Q677.12 1540.59 671.31 1540.59 Q665.5 1540.59 662.421 1536.01 Q659.366 1531.4 659.366 1522.67 Q659.366 1513.92 662.421 1509.34 Q665.5 1504.73 671.31 1504.73 Z" fill="#000000" fill-rule="evenodd" fill-opacity="1" /><path clip-path="url(#clip570)" d="M 0 0 M906.689 1508.44 Q903.078 1508.44 901.249 1512 Q899.444 1515.55 899.444 1522.67 Q899.444 1529.78 901.249 1533.35 Q903.078 1536.89 906.689 1536.89 Q910.323 1536.89 912.129 1533.35 Q913.958 1529.78 913.958 1522.67 Q913.958 1515.55 912.129 1512 Q910.323 1508.44 906.689 1508.44 M906.689 1504.73 Q912.499 1504.73 915.555 1509.34 Q918.633 1513.92 918.633 1522.67 Q918.633 1531.4 915.555 1536.01 Q912.499 1540.59 906.689 1540.59 Q900.879 1540.59 897.8 1536.01 Q894.745 1531.4 894.745 1522.67 Q894.745 1513.92 897.8 1509.34 Q900.879 1504.73 906.689 1504.73 Z" fill="#000000" fill-rule="evenodd" fill-opacity="1" /><path clip-path="url(#clip570)" d="M 0 0 M923.703 1534.04 L928.587 1534.04 L928.587 1539.92 L923.703 1539.92 L923.703 1534.04 Z" fill="#000000" fill-rule="evenodd" fill-opacity="1" /><path clip-path="url(#clip570)" d="M 0 0 M937.684 1535.98 L954.004 1535.98 L954.004 1539.92 L932.059 1539.92 L932.059 1535.98 Q934.721 1533.23 939.305 1528.6 Q943.911 1523.95 945.092 1522.61 Q947.337 1520.08 948.217 1518.35 Q949.119 1516.59 949.119 1514.9 Q949.119 1512.14 947.175 1510.41 Q945.254 1508.67 942.152 1508.67 Q939.953 1508.67 937.499 1509.43 Q935.068 1510.2 932.291 1511.75 L932.291 1507.03 Q935.115 1505.89 937.568 1505.31 Q940.022 1504.73 942.059 1504.73 Q947.43 1504.73 950.624 1507.42 Q953.818 1510.11 953.818 1514.6 Q953.818 1516.73 953.008 1518.65 Q952.221 1520.54 950.115 1523.14 Q949.536 1523.81 946.434 1527.03 Q943.332 1530.22 937.684 1535.98 Z" fill="#000000" fill-rule="evenodd" fill-opacity="1" /><path clip-path="url(#clip570)" d="M 0 0 M1177.2 1508.44 Q1173.58 1508.44 1171.76 1512 Q1169.95 1515.55 1169.95 1522.67 Q1169.95 1529.78 1171.76 1533.35 Q1173.58 1536.89 1177.2 1536.89 Q1180.83 1536.89 1182.64 1533.35 Q1184.46 1529.78 1184.46 1522.67 Q1184.46 1515.55 1182.64 1512 Q1180.83 1508.44 1177.2 1508.44 M1177.2 1504.73 Q1183.01 1504.73 1186.06 1509.34 Q1189.14 1513.92 1189.14 1522.67 Q1189.14 1531.4 1186.06 1536.01 Q1183.01 1540.59 1177.2 1540.59 Q1171.39 1540.59 1168.31 1536.01 Q1165.25 1531.4 1165.25 1522.67 Q1165.25 1513.92 1168.31 1509.34 Q1171.39 1504.73 1177.2 1504.73 Z" fill="#000000" fill-rule="evenodd" fill-opacity="1" /><path clip-path="url(#clip570)" d="M 0 0 M1194.21 1534.04 L1199.09 1534.04 L1199.09 1539.92 L1194.21 1539.92 L1194.21 1534.04 Z" fill="#000000" fill-rule="evenodd" fill-opacity="1" /><path clip-path="url(#clip570)" d="M 0 0 M1217.01 1509.43 L1205.2 1527.88 L1217.01 1527.88 L1217.01 1509.43 M1215.78 1505.36 L1221.66 1505.36 L1221.66 1527.88 L1226.59 1527.88 L1226.59 1531.77 L1221.66 1531.77 L1221.66 1539.92 L1217.01 1539.92 L1217.01 1531.77 L1201.41 1531.77 L1201.41 1527.26 L1215.78 1505.36 Z" fill="#000000" fill-rule="evenodd" fill-opacity="1" /><path clip-path="url(#clip570)" d="M 0 0 M1448.91 1508.44 Q1445.29 1508.44 1443.47 1512 Q1441.66 1515.55 1441.66 1522.67 Q1441.66 1529.78 1443.47 1533.35 Q1445.29 1536.89 1448.91 1536.89 Q1452.54 1536.89 1454.34 1533.35 Q1456.17 1529.78 1456.17 1522.67 Q1456.17 1515.55 1454.34 1512 Q1452.54 1508.44 1448.91 1508.44 M1448.91 1504.73 Q1454.72 1504.73 1457.77 1509.34 Q1460.85 1513.92 1460.85 1522.67 Q1460.85 1531.4 1457.77 1536.01 Q1454.72 1540.59 1448.91 1540.59 Q1443.1 1540.59 1440.02 1536.01 Q1436.96 1531.4 1436.96 1522.67 Q1436.96 1513.92 1440.02 1509.34 Q1443.1 1504.73 1448.91 1504.73 Z" fill="#000000" fill-rule="evenodd" fill-opacity="1" /><path clip-path="url(#clip570)" d="M 0 0 M1465.92 1534.04 L1470.8 1534.04 L1470.8 1539.92 L1465.92 1539.92 L1465.92 1534.04 Z" fill="#000000" fill-rule="evenodd" fill-opacity="1" /><path clip-path="url(#clip570)" d="M 0 0 M1486.45 1520.78 Q1483.3 1520.78 1481.45 1522.93 Q1479.62 1525.08 1479.62 1528.83 Q1479.62 1532.56 1481.45 1534.73 Q1483.3 1536.89 1486.45 1536.89 Q1489.6 1536.89 1491.43 1534.73 Q1493.28 1532.56 1493.28 1528.83 Q1493.28 1525.08 1491.43 1522.93 Q1489.6 1520.78 1486.45 1520.78 M1495.73 1506.12 L1495.73 1510.38 Q1493.97 1509.55 1492.17 1509.11 Q1490.39 1508.67 1488.63 1508.67 Q1484 1508.67 1481.54 1511.8 Q1479.11 1514.92 1478.77 1521.24 Q1480.13 1519.23 1482.19 1518.16 Q1484.25 1517.07 1486.73 1517.07 Q1491.94 1517.07 1494.95 1520.24 Q1497.98 1523.39 1497.98 1528.83 Q1497.98 1534.16 1494.83 1537.37 Q1491.68 1540.59 1486.45 1540.59 Q1480.46 1540.59 1477.28 1536.01 Q1474.11 1531.4 1474.11 1522.67 Q1474.11 1514.48 1478 1509.62 Q1481.89 1504.73 1488.44 1504.73 Q1490.2 1504.73 1491.98 1505.08 Q1493.79 1505.43 1495.73 1506.12 Z" fill="#000000" fill-rule="evenodd" fill-opacity="1" /><path clip-path="url(#clip570)" d="M 0 0 M1720.58 1508.44 Q1716.97 1508.44 1715.14 1512 Q1713.34 1515.55 1713.34 1522.67 Q1713.34 1529.78 1715.14 1533.35 Q1716.97 1536.89 1720.58 1536.89 Q1724.21 1536.89 1726.02 1533.35 Q1727.85 1529.78 1727.85 1522.67 Q1727.85 1515.55 1726.02 1512 Q1724.21 1508.44 1720.58 1508.44 M1720.58 1504.73 Q1726.39 1504.73 1729.45 1509.34 Q1732.52 1513.92 1732.52 1522.67 Q1732.52 1531.4 1729.45 1536.01 Q1726.39 1540.59 1720.58 1540.59 Q1714.77 1540.59 1711.69 1536.01 Q1708.64 1531.4 1708.64 1522.67 Q1708.64 1513.92 1711.69 1509.34 Q1714.77 1504.73 1720.58 1504.73 Z" fill="#000000" fill-rule="evenodd" fill-opacity="1" /><path clip-path="url(#clip570)" d="M 0 0 M1737.59 1534.04 L1742.48 1534.04 L1742.48 1539.92 L1737.59 1539.92 L1737.59 1534.04 Z" fill="#000000" fill-rule="evenodd" fill-opacity="1" /><path clip-path="url(#clip570)" d="M 0 0 M1757.55 1523.51 Q1754.21 1523.51 1752.29 1525.29 Q1750.4 1527.07 1750.4 1530.2 Q1750.4 1533.32 1752.29 1535.11 Q1754.21 1536.89 1757.55 1536.89 Q1760.88 1536.89 1762.8 1535.11 Q1764.72 1533.3 1764.72 1530.2 Q1764.72 1527.07 1762.8 1525.29 Q1760.9 1523.51 1757.55 1523.51 M1752.87 1521.52 Q1749.86 1520.78 1748.17 1518.72 Q1746.51 1516.66 1746.51 1513.69 Q1746.51 1509.55 1749.45 1507.14 Q1752.41 1504.73 1757.55 1504.73 Q1762.71 1504.73 1765.65 1507.14 Q1768.59 1509.55 1768.59 1513.69 Q1768.59 1516.66 1766.9 1518.72 Q1765.23 1520.78 1762.25 1521.52 Q1765.63 1522.3 1767.5 1524.6 Q1769.4 1526.89 1769.4 1530.2 Q1769.4 1535.22 1766.32 1537.91 Q1763.27 1540.59 1757.55 1540.59 Q1751.83 1540.59 1748.75 1537.91 Q1745.7 1535.22 1745.7 1530.2 Q1745.7 1526.89 1747.59 1524.6 Q1749.49 1522.3 1752.87 1521.52 M1751.16 1514.13 Q1751.16 1516.82 1752.83 1518.32 Q1754.52 1519.83 1757.55 1519.83 Q1760.56 1519.83 1762.25 1518.32 Q1763.96 1516.82 1763.96 1514.13 Q1763.96 1511.45 1762.25 1509.94 Q1760.56 1508.44 1757.55 1508.44 Q1754.52 1508.44 1752.83 1509.94 Q1751.16 1511.45 1751.16 1514.13 Z" fill="#000000" fill-rule="evenodd" fill-opacity="1" /><path clip-path="url(#clip570)" d="M 0 0 M1982.46 1535.98 L1990.1 1535.98 L1990.1 1509.62 L1981.79 1511.29 L1981.79 1507.03 L1990.06 1505.36 L1994.73 1505.36 L1994.73 1535.98 L2002.37 1535.98 L2002.37 1539.92 L1982.46 1539.92 L1982.46 1535.98 Z" fill="#000000" fill-rule="evenodd" fill-opacity="1" /><path clip-path="url(#clip570)" d="M 0 0 M2007.44 1534.04 L2012.32 1534.04 L2012.32 1539.92 L2007.44 1539.92 L2007.44 1534.04 Z" fill="#000000" fill-rule="evenodd" fill-opacity="1" /><path clip-path="url(#clip570)" d="M 0 0 M2027.39 1508.44 Q2023.78 1508.44 2021.95 1512 Q2020.15 1515.55 2020.15 1522.67 Q2020.15 1529.78 2021.95 1533.35 Q2023.78 1536.89 2027.39 1536.89 Q2031.03 1536.89 2032.83 1533.35 Q2034.66 1529.78 2034.66 1522.67 Q2034.66 1515.55 2032.83 1512 Q2031.03 1508.44 2027.39 1508.44 M2027.39 1504.73 Q2033.2 1504.73 2036.26 1509.34 Q2039.34 1513.92 2039.34 1522.67 Q2039.34 1531.4 2036.26 1536.01 Q2033.2 1540.59 2027.39 1540.59 Q2021.58 1540.59 2018.51 1536.01 Q2015.45 1531.4 2015.45 1522.67 Q2015.45 1513.92 2018.51 1509.34 Q2021.58 1504.73 2027.39 1504.73 Z" fill="#000000" fill-rule="evenodd" fill-opacity="1" /><path clip-path="url(#clip570)" d="M 0 0 M2254.81 1535.98 L2262.45 1535.98 L2262.45 1509.62 L2254.14 1511.29 L2254.14 1507.03 L2262.4 1505.36 L2267.08 1505.36 L2267.08 1535.98 L2274.72 1535.98 L2274.72 1539.92 L2254.81 1539.92 L2254.81 1535.98 Z" fill="#000000" fill-rule="evenodd" fill-opacity="1" /><path clip-path="url(#clip570)" d="M 0 0 M2279.79 1534.04 L2284.67 1534.04 L2284.67 1539.92 L2279.79 1539.92 L2279.79 1534.04 Z" fill="#000000" fill-rule="evenodd" fill-opacity="1" /><path clip-path="url(#clip570)" d="M 0 0 M2293.77 1535.98 L2310.09 1535.98 L2310.09 1539.92 L2288.14 1539.92 L2288.14 1535.98 Q2290.81 1533.23 2295.39 1528.6 Q2300 1523.95 2301.18 1522.61 Q2303.42 1520.08 2304.3 1518.35 Q2305.2 1516.59 2305.2 1514.9 Q2305.2 1512.14 2303.26 1510.41 Q2301.34 1508.67 2298.24 1508.67 Q2296.04 1508.67 2293.58 1509.43 Q2291.15 1510.2 2288.38 1511.75 L2288.38 1507.03 Q2291.2 1505.89 2293.65 1505.31 Q2296.11 1504.73 2298.14 1504.73 Q2303.51 1504.73 2306.71 1507.42 Q2309.9 1510.11 2309.9 1514.6 Q2309.9 1516.73 2309.09 1518.65 Q2308.31 1520.54 2306.2 1523.14 Q2305.62 1523.81 2302.52 1527.03 Q2299.42 1530.22 2293.77 1535.98 Z" fill="#000000" fill-rule="evenodd" fill-opacity="1" /><path clip-path="url(#clip570)" d="M 0 0 M74.9365 1431.51 Q71.3254 1431.51 69.4967 1435.08 Q67.6912 1438.62 67.6912 1445.75 Q67.6912 1452.86 69.4967 1456.42 Q71.3254 1459.96 74.9365 1459.96 Q78.5707 1459.96 80.3763 1456.42 Q82.205 1452.86 82.205 1445.75 Q82.205 1438.62 80.3763 1435.08 Q78.5707 1431.51 74.9365 1431.51 M74.9365 1427.81 Q80.7467 1427.81 83.8022 1432.42 Q86.8809 1437 86.8809 1445.75 Q86.8809 1454.48 83.8022 1459.08 Q80.7467 1463.67 74.9365 1463.67 Q69.1264 1463.67 66.0477 1459.08 Q62.9921 1454.48 62.9921 1445.75 Q62.9921 1437 66.0477 1432.42 Q69.1264 1427.81 74.9365 1427.81 Z" fill="#000000" fill-rule="evenodd" fill-opacity="1" /><path clip-path="url(#clip570)" d="M 0 0 M91.9503 1457.12 L96.8345 1457.12 L96.8345 1463 L91.9503 1463 L91.9503 1457.12 Z" fill="#000000" fill-rule="evenodd" fill-opacity="1" /><path clip-path="url(#clip570)" d="M 0 0 M111.904 1431.51 Q108.293 1431.51 106.464 1435.08 Q104.659 1438.62 104.659 1445.75 Q104.659 1452.86 106.464 1456.42 Q108.293 1459.96 111.904 1459.96 Q115.538 1459.96 117.344 1456.42 Q119.172 1452.86 119.172 1445.75 Q119.172 1438.62 117.344 1435.08 Q115.538 1431.51 111.904 1431.51 M111.904 1427.81 Q117.714 1427.81 120.77 1432.42 Q123.848 1437 123.848 1445.75 Q123.848 1454.48 120.77 1459.08 Q117.714 1463.67 111.904 1463.67 Q106.094 1463.67 103.015 1459.08 Q99.9595 1454.48 99.9595 1445.75 Q99.9595 1437 103.015 1432.42 Q106.094 1427.81 111.904 1427.81 Z" fill="#000000" fill-rule="evenodd" fill-opacity="1" /><path clip-path="url(#clip570)" d="M 0 0 M138.918 1431.51 Q135.307 1431.51 133.478 1435.08 Q131.672 1438.62 131.672 1445.75 Q131.672 1452.86 133.478 1456.42 Q135.307 1459.96 138.918 1459.96 Q142.552 1459.96 144.357 1456.42 Q146.186 1452.86 146.186 1445.75 Q146.186 1438.62 144.357 1435.08 Q142.552 1431.51 138.918 1431.51 M138.918 1427.81 Q144.728 1427.81 147.783 1432.42 Q150.862 1437 150.862 1445.75 Q150.862 1454.48 147.783 1459.08 Q144.728 1463.67 138.918 1463.67 Q133.107 1463.67 130.029 1459.08 Q126.973 1454.48 126.973 1445.75 Q126.973 1437 130.029 1432.42 Q133.107 1427.81 138.918 1427.81 Z" fill="#000000" fill-rule="evenodd" fill-opacity="1" /><path clip-path="url(#clip570)" d="M 0 0 M77.5291 1092.08 Q73.918 1092.08 72.0893 1095.64 Q70.2838 1099.19 70.2838 1106.32 Q70.2838 1113.42 72.0893 1116.99 Q73.918 1120.53 77.5291 1120.53 Q81.1633 1120.53 82.9689 1116.99 Q84.7976 1113.42 84.7976 1106.32 Q84.7976 1099.19 82.9689 1095.64 Q81.1633 1092.08 77.5291 1092.08 M77.5291 1088.38 Q83.3392 1088.38 86.3948 1092.98 Q89.4735 1097.57 89.4735 1106.32 Q89.4735 1115.04 86.3948 1119.65 Q83.3392 1124.23 77.5291 1124.23 Q71.7189 1124.23 68.6402 1119.65 Q65.5847 1115.04 65.5847 1106.32 Q65.5847 1097.57 68.6402 1092.98 Q71.7189 1088.38 77.5291 1088.38 Z" fill="#000000" fill-rule="evenodd" fill-opacity="1" /><path clip-path="url(#clip570)" d="M 0 0 M94.5429 1117.68 L99.4271 1117.68 L99.4271 1123.56 L94.5429 1123.56 L94.5429 1117.68 Z" fill="#000000" fill-rule="evenodd" fill-opacity="1" /><path clip-path="url(#clip570)" d="M 0 0 M108.524 1119.63 L124.844 1119.63 L124.844 1123.56 L102.899 1123.56 L102.899 1119.63 Q105.561 1116.87 110.145 1112.24 Q114.751 1107.59 115.932 1106.25 Q118.177 1103.72 119.057 1101.99 Q119.959 1100.23 119.959 1098.54 Q119.959 1095.78 118.015 1094.05 Q116.094 1092.31 112.992 1092.31 Q110.793 1092.31 108.339 1093.07 Q105.909 1093.84 103.131 1095.39 L103.131 1090.67 Q105.955 1089.53 108.409 1088.95 Q110.862 1088.38 112.899 1088.38 Q118.27 1088.38 121.464 1091.06 Q124.658 1093.75 124.658 1098.24 Q124.658 1100.37 123.848 1102.29 Q123.061 1104.19 120.955 1106.78 Q120.376 1107.45 117.274 1110.67 Q114.172 1113.86 108.524 1119.63 Z" fill="#000000" fill-rule="evenodd" fill-opacity="1" /><path clip-path="url(#clip570)" d="M 0 0 M129.959 1089 L148.316 1089 L148.316 1092.94 L134.242 1092.94 L134.242 1101.41 Q135.26 1101.06 136.279 1100.9 Q137.297 1100.71 138.316 1100.71 Q144.103 1100.71 147.482 1103.89 Q150.862 1107.06 150.862 1112.47 Q150.862 1118.05 147.39 1121.15 Q143.918 1124.23 137.598 1124.23 Q135.422 1124.23 133.154 1123.86 Q130.908 1123.49 128.501 1122.75 L128.501 1118.05 Q130.584 1119.19 132.807 1119.74 Q135.029 1120.3 137.506 1120.3 Q141.51 1120.3 143.848 1118.19 Q146.186 1116.08 146.186 1112.47 Q146.186 1108.86 143.848 1106.76 Q141.51 1104.65 137.506 1104.65 Q135.631 1104.65 133.756 1105.07 Q131.904 1105.48 129.959 1106.36 L129.959 1089 Z" fill="#000000" fill-rule="evenodd" fill-opacity="1" /><path clip-path="url(#clip570)" d="M 0 0 M75.9319 752.645 Q72.3208 752.645 70.4921 756.209 Q68.6865 759.751 68.6865 766.881 Q68.6865 773.987 70.4921 777.552 Q72.3208 781.094 75.9319 781.094 Q79.5661 781.094 81.3717 777.552 Q83.2004 773.987 83.2004 766.881 Q83.2004 759.751 81.3717 756.209 Q79.5661 752.645 75.9319 752.645 M75.9319 748.941 Q81.742 748.941 84.7976 753.547 Q87.8763 758.131 87.8763 766.881 Q87.8763 775.608 84.7976 780.214 Q81.742 784.797 75.9319 784.797 Q70.1217 784.797 67.043 780.214 Q63.9875 775.608 63.9875 766.881 Q63.9875 758.131 67.043 753.547 Q70.1217 748.941 75.9319 748.941 Z" fill="#000000" fill-rule="evenodd" fill-opacity="1" /><path clip-path="url(#clip570)" d="M 0 0 M92.9457 778.246 L97.8299 778.246 L97.8299 784.126 L92.9457 784.126 L92.9457 778.246 Z" fill="#000000" fill-rule="evenodd" fill-opacity="1" /><path clip-path="url(#clip570)" d="M 0 0 M102.946 749.566 L121.302 749.566 L121.302 753.501 L107.228 753.501 L107.228 761.973 Q108.247 761.626 109.265 761.464 Q110.284 761.279 111.302 761.279 Q117.089 761.279 120.469 764.45 Q123.848 767.621 123.848 773.038 Q123.848 778.617 120.376 781.719 Q116.904 784.797 110.584 784.797 Q108.409 784.797 106.14 784.427 Q103.895 784.057 101.487 783.316 L101.487 778.617 Q103.571 779.751 105.793 780.307 Q108.015 780.862 110.492 780.862 Q114.496 780.862 116.834 778.756 Q119.172 776.649 119.172 773.038 Q119.172 769.427 116.834 767.321 Q114.496 765.214 110.492 765.214 Q108.617 765.214 106.742 765.631 Q104.89 766.047 102.946 766.927 L102.946 749.566 Z" fill="#000000" fill-rule="evenodd" fill-opacity="1" /><path clip-path="url(#clip570)" d="M 0 0 M138.918 752.645 Q135.307 752.645 133.478 756.209 Q131.672 759.751 131.672 766.881 Q131.672 773.987 133.478 777.552 Q135.307 781.094 138.918 781.094 Q142.552 781.094 144.357 777.552 Q146.186 773.987 146.186 766.881 Q146.186 759.751 144.357 756.209 Q142.552 752.645 138.918 752.645 M138.918 748.941 Q144.728 748.941 147.783 753.547 Q150.862 758.131 150.862 766.881 Q150.862 775.608 147.783 780.214 Q144.728 784.797 138.918 784.797 Q133.107 784.797 130.029 780.214 Q126.973 775.608 126.973 766.881 Q126.973 758.131 130.029 753.547 Q133.107 748.941 138.918 748.941 Z" fill="#000000" fill-rule="evenodd" fill-opacity="1" /><path clip-path="url(#clip570)" d="M 0 0 M76.8346 413.21 Q73.2236 413.21 71.3949 416.775 Q69.5893 420.316 69.5893 427.446 Q69.5893 434.552 71.3949 438.117 Q73.2236 441.659 76.8346 441.659 Q80.4689 441.659 82.2744 438.117 Q84.1031 434.552 84.1031 427.446 Q84.1031 420.316 82.2744 416.775 Q80.4689 413.21 76.8346 413.21 M76.8346 409.506 Q82.6448 409.506 85.7003 414.113 Q88.779 418.696 88.779 427.446 Q88.779 436.173 85.7003 440.779 Q82.6448 445.362 76.8346 445.362 Q71.0245 445.362 67.9458 440.779 Q64.8903 436.173 64.8903 427.446 Q64.8903 418.696 67.9458 414.113 Q71.0245 409.506 76.8346 409.506 Z" fill="#000000" fill-rule="evenodd" fill-opacity="1" /><path clip-path="url(#clip570)" d="M 0 0 M93.8484 438.812 L98.7327 438.812 L98.7327 444.691 L93.8484 444.691 L93.8484 438.812 Z" fill="#000000" fill-rule="evenodd" fill-opacity="1" /><path clip-path="url(#clip570)" d="M 0 0 M102.622 410.131 L124.844 410.131 L124.844 412.122 L112.297 444.691 L107.413 444.691 L119.219 414.066 L102.622 414.066 L102.622 410.131 Z" fill="#000000" fill-rule="evenodd" fill-opacity="1" /><path clip-path="url(#clip570)" d="M 0 0 M129.959 410.131 L148.316 410.131 L148.316 414.066 L134.242 414.066 L134.242 422.538 Q135.26 422.191 136.279 422.029 Q137.297 421.844 138.316 421.844 Q144.103 421.844 147.482 425.015 Q150.862 428.187 150.862 433.603 Q150.862 439.182 147.39 442.284 Q143.918 445.362 137.598 445.362 Q135.422 445.362 133.154 444.992 Q130.908 444.622 128.501 443.881 L128.501 439.182 Q130.584 440.316 132.807 440.872 Q135.029 441.427 137.506 441.427 Q141.51 441.427 143.848 439.321 Q146.186 437.214 146.186 433.603 Q146.186 429.992 143.848 427.886 Q141.51 425.779 137.506 425.779 Q135.631 425.779 133.756 426.196 Q131.904 426.613 129.959 427.492 L129.959 410.131 Z" fill="#000000" fill-rule="evenodd" fill-opacity="1" /><path clip-path="url(#clip570)" d="M 0 0 M66.9736 101.321 L74.6124 101.321 L74.6124 74.9555 L66.3023 76.6222 L66.3023 72.3629 L74.5661 70.6963 L79.242 70.6963 L79.242 101.321 L86.8809 101.321 L86.8809 105.256 L66.9736 105.256 L66.9736 101.321 Z" fill="#000000" fill-rule="evenodd" fill-opacity="1" /><path clip-path="url(#clip570)" d="M 0 0 M91.9503 99.3767 L96.8345 99.3767 L96.8345 105.256 L91.9503 105.256 L91.9503 99.3767 Z" fill="#000000" fill-rule="evenodd" fill-opacity="1" /><path clip-path="url(#clip570)" d="M 0 0 M111.904 73.775 Q108.293 73.775 106.464 77.3398 Q104.659 80.8814 104.659 88.011 Q104.659 95.1174 106.464 98.6822 Q108.293 102.224 111.904 102.224 Q115.538 102.224 117.344 98.6822 Q119.172 95.1174 119.172 88.011 Q119.172 80.8814 117.344 77.3398 Q115.538 73.775 111.904 73.775 M111.904 70.0713 Q117.714 70.0713 120.77 74.6777 Q123.848 79.261 123.848 88.011 Q123.848 96.7378 120.77 101.344 Q117.714 105.928 111.904 105.928 Q106.094 105.928 103.015 101.344 Q99.9595 96.7378 99.9595 88.011 Q99.9595 79.261 103.015 74.6777 Q106.094 70.0713 111.904 70.0713 Z" fill="#000000" fill-rule="evenodd" fill-opacity="1" /><path clip-path="url(#clip570)" d="M 0 0 M138.918 73.775 Q135.307 73.775 133.478 77.3398 Q131.672 80.8814 131.672 88.011 Q131.672 95.1174 133.478 98.6822 Q135.307 102.224 138.918 102.224 Q142.552 102.224 144.357 98.6822 Q146.186 95.1174 146.186 88.011 Q146.186 80.8814 144.357 77.3398 Q142.552 73.775 138.918 73.775 M138.918 70.0713 Q144.728 70.0713 147.783 74.6777 Q150.862 79.261 150.862 88.011 Q150.862 96.7378 147.783 101.344 Q144.728 105.928 138.918 105.928 Q133.107 105.928 130.029 101.344 Q126.973 96.7378 126.973 88.011 Q126.973 79.261 130.029 74.6777 Q133.107 70.0713 138.918 70.0713 Z" fill="#000000" fill-rule="evenodd" fill-opacity="1" /><path clip-path="url(#clip572)" d="
M788.6 495.298 L1739.02 1445.72 L1331.7 87.9763 L788.6 495.298  Z
  " fill="#008000" fill-rule="evenodd" fill-opacity="0.2"/>
<polyline clip-path="url(#clip572)" style="stroke:#000000; stroke-width:4; stroke-opacity:1; fill:none" points="
  788.6,495.298 1739.02,1445.72 1331.7,87.9763 788.6,495.298 
  "/>
<polyline clip-path="url(#clip572)" style="stroke:#ffa500; stroke-width:4; stroke-opacity:1; fill:none" points="
  1263.81,970.507 1331.7,87.9763 
  "/>
<polyline clip-path="url(#clip572)" style="stroke:#ffa500; stroke-width:4; stroke-opacity:1; fill:none" points="
  1060.15,291.637 1739.02,1445.72 
  "/>
<polyline clip-path="url(#clip572)" style="stroke:#ffa500; stroke-width:4; stroke-opacity:1; fill:none" points="
  1535.36,766.846 788.6,495.298 
  "/>
<circle clip-path="url(#clip572)" cx="788.6" cy="495.298" r="14" fill="#ff0000" fill-rule="evenodd" fill-opacity="1" stroke="#000000" stroke-opacity="1" stroke-width="3.2"/>
<circle clip-path="url(#clip572)" cx="1739.02" cy="1445.72" r="14" fill="#ff0000" fill-rule="evenodd" fill-opacity="1" stroke="#000000" stroke-opacity="1" stroke-width="3.2"/>
<circle clip-path="url(#clip572)" cx="1331.7" cy="87.9763" r="14" fill="#ff0000" fill-rule="evenodd" fill-opacity="1" stroke="#000000" stroke-opacity="1" stroke-width="3.2"/>
<circle clip-path="url(#clip572)" cx="1286.44" cy="676.33" r="14" fill="#008000" fill-rule="evenodd" fill-opacity="1" stroke="#000000" stroke-opacity="1" stroke-width="3.2"/>
<path clip-path="url(#clip570)" d="M 0 0 M788.6 424.735 L777.501 454.834 L799.74 454.834 L788.6 424.735 M783.982 416.674 L793.259 416.674 L816.308 477.154 L807.801 477.154 L802.292 461.639 L775.03 461.639 L769.52 477.154 L760.892 477.154 L783.982 416.674 Z" fill="#000000" fill-rule="evenodd" fill-opacity="1" /><path clip-path="url(#clip570)" d="M 0 0 M1725.75 1398.69 L1725.75 1420.85 L1738.88 1420.85 Q1745.48 1420.85 1748.64 1418.13 Q1751.84 1415.38 1751.84 1409.75 Q1751.84 1404.08 1748.64 1401.4 Q1745.48 1398.69 1738.88 1398.69 L1725.75 1398.69 M1725.75 1373.82 L1725.75 1392.05 L1737.86 1392.05 Q1743.86 1392.05 1746.78 1389.82 Q1749.73 1387.55 1749.73 1382.93 Q1749.73 1378.35 1746.78 1376.08 Q1743.86 1373.82 1737.86 1373.82 L1725.75 1373.82 M1717.57 1367.09 L1738.47 1367.09 Q1747.83 1367.09 1752.89 1370.98 Q1757.96 1374.87 1757.96 1382.04 Q1757.96 1387.59 1755.36 1390.87 Q1752.77 1394.15 1747.75 1394.96 Q1753.78 1396.26 1757.11 1400.39 Q1760.47 1404.48 1760.47 1410.64 Q1760.47 1418.74 1754.96 1423.16 Q1749.45 1427.57 1739.28 1427.57 L1717.57 1427.57 L1717.57 1367.09 Z" fill="#000000" fill-rule="evenodd" fill-opacity="1" /><path clip-path="url(#clip570)" d="M 0 0 M1356.08 14.0108 L1356.08 22.6392 Q1351.95 18.7909 1347.25 16.887 Q1342.59 14.983 1337.33 14.983 Q1326.96 14.983 1321.45 21.343 Q1315.94 27.6624 1315.94 39.653 Q1315.94 51.6032 1321.45 57.9631 Q1326.96 64.2825 1337.33 64.2825 Q1342.59 64.2825 1347.25 62.3786 Q1351.95 60.4747 1356.08 56.6263 L1356.08 65.1737 Q1351.79 68.0904 1346.97 69.5487 Q1342.19 71.007 1336.84 71.007 Q1323.11 71.007 1315.21 62.6217 Q1307.31 54.1958 1307.31 39.653 Q1307.31 25.0698 1315.21 16.6844 Q1323.11 8.25853 1336.84 8.25853 Q1342.27 8.25853 1347.05 9.71686 Q1351.87 11.1347 1356.08 14.0108 Z" fill="#000000" fill-rule="evenodd" fill-opacity="1" /><path clip-path="url(#clip570)" d="M 0 0 M1265.05 614.558 L1265.05 621.525 Q1261.89 619.783 1258.69 618.933 Q1255.53 618.042 1252.29 618.042 Q1245.04 618.042 1241.03 622.66 Q1237.02 627.237 1237.02 635.541 Q1237.02 643.846 1241.03 648.464 Q1245.04 653.041 1252.29 653.041 Q1255.53 653.041 1258.69 652.191 Q1261.89 651.299 1265.05 649.558 L1265.05 656.444 Q1261.93 657.902 1258.57 658.632 Q1255.25 659.361 1251.48 659.361 Q1241.23 659.361 1235.19 652.92 Q1229.16 646.479 1229.16 635.541 Q1229.16 624.442 1235.23 618.082 Q1241.35 611.722 1251.96 611.722 Q1255.41 611.722 1258.69 612.451 Q1261.97 613.14 1265.05 614.558 Z" fill="#000000" fill-rule="evenodd" fill-opacity="1" /><path clip-path="url(#clip570)" d="M 0 0 M1280.08 651.381 L1280.08 675.443 L1272.58 675.443 L1272.58 612.816 L1280.08 612.816 L1280.08 619.702 Q1282.43 615.652 1285.99 613.707 Q1289.6 611.722 1294.58 611.722 Q1302.84 611.722 1307.99 618.285 Q1313.17 624.847 1313.17 635.541 Q1313.17 646.236 1307.99 652.798 Q1302.84 659.361 1294.58 659.361 Q1289.6 659.361 1285.99 657.416 Q1282.43 655.431 1280.08 651.381 M1305.44 635.541 Q1305.44 627.318 1302.03 622.66 Q1298.67 617.961 1292.76 617.961 Q1286.84 617.961 1283.44 622.66 Q1280.08 627.318 1280.08 635.541 Q1280.08 643.765 1283.44 648.464 Q1286.84 653.122 1292.76 653.122 Q1298.67 653.122 1302.03 648.464 Q1305.44 643.765 1305.44 635.541 Z" fill="#000000" fill-rule="evenodd" fill-opacity="1" /><path clip-path="url(#clip570)" d="M 0 0 M1328.36 599.934 L1328.36 612.816 L1343.72 612.816 L1343.72 618.609 L1328.36 618.609 L1328.36 643.238 Q1328.36 648.788 1329.86 650.368 Q1331.4 651.948 1336.06 651.948 L1343.72 651.948 L1343.72 658.186 L1336.06 658.186 Q1327.43 658.186 1324.15 654.986 Q1320.87 651.745 1320.87 643.238 L1320.87 618.609 L1315.4 618.609 L1315.4 612.816 L1320.87 612.816 L1320.87 599.934 L1328.36 599.934 Z" fill="#000000" fill-rule="evenodd" fill-opacity="1" /></svg>
