<?xml version="1.0" encoding="utf-8"?>
<svg xmlns="http://www.w3.org/2000/svg" xmlns:xlink="http://www.w3.org/1999/xlink" width="600" height="400" viewBox="0 0 2400 1600">
<defs>
  <clipPath id="clip070">
    <rect x="0" y="0" width="2400" height="1600"/>
  </clipPath>
</defs>
<path clip-path="url(#clip070)" d="
M0 1600 L2400 1600 L2400 0 L0 0  Z
  " fill="#ffffff" fill-rule="evenodd" fill-opacity="1"/>
<defs>
  <clipPath id="clip071">
    <rect x="480" y="0" width="1681" height="1600"/>
  </clipPath>
</defs>
<path clip-path="url(#clip070)" d="
M148.334 1486.45 L2352.76 1486.45 L2352.76 47.2441 L148.334 47.2441  Z
  " fill="#ffffff" fill-rule="evenodd" fill-opacity="1"/>
<defs>
  <clipPath id="clip072">
    <rect x="148" y="47" width="2205" height="1440"/>
  </clipPath>
</defs>
<polyline clip-path="url(#clip072)" style="stroke:#000000; stroke-width:2; stroke-opacity:0.1; fill:none" points="
  345.386,1486.45 345.386,47.2441 
  "/>
<polyline clip-path="url(#clip072)" style="stroke:#000000; stroke-width:2; stroke-opacity:0.1; fill:none" points="
  797.965,1486.45 797.965,47.2441 
  "/>
<polyline clip-path="url(#clip072)" style="stroke:#000000; stroke-width:2; stroke-opacity:0.1; fill:none" points="
  1250.55,1486.45 1250.55,47.2441 
  "/>
<polyline clip-path="url(#clip072)" style="stroke:#000000; stroke-width:2; stroke-opacity:0.1; fill:none" points="
  1703.12,1486.45 1703.12,47.2441 
  "/>
<polyline clip-path="url(#clip072)" style="stroke:#000000; stroke-width:2; stroke-opacity:0.1; fill:none" points="
  2155.7,1486.45 2155.7,47.2441 
  "/>
<polyline clip-path="url(#clip072)" style="stroke:#000000; stroke-width:2; stroke-opacity:0.1; fill:none" points="
  148.334,1445.72 2352.76,1445.72 
  "/>
<polyline clip-path="url(#clip072)" style="stroke:#000000; stroke-width:2; stroke-opacity:0.1; fill:none" points="
  148.334,1219.43 2352.76,1219.43 
  "/>
<polyline clip-path="url(#clip072)" style="stroke:#000000; stroke-width:2; stroke-opacity:0.1; fill:none" points="
  148.334,993.136 2352.76,993.136 
  "/>
<polyline clip-path="url(#clip072)" style="stroke:#000000; stroke-width:2; stroke-opacity:0.1; fill:none" points="
  148.334,766.846 2352.76,766.846 
  "/>
<polyline clip-path="url(#clip072)" style="stroke:#000000; stroke-width:2; stroke-opacity:0.1; fill:none" points="
  148.334,540.556 2352.76,540.556 
  "/>
<polyline clip-path="url(#clip072)" style="stroke:#000000; stroke-width:2; stroke-opacity:0.1; fill:none" points="
  148.334,314.266 2352.76,314.266 
  "/>
<polyline clip-path="url(#clip072)" style="stroke:#000000; stroke-width:2; stroke-opacity:0.1; fill:none" points="
  148.334,87.9763 2352.76,87.9763 
  "/>
<polyline clip-path="url(#clip070)" style="stroke:#000000; stroke-width:4; stroke-opacity:1; fill:none" points="
  148.334,1486.45 2352.76,1486.45 
  "/>
<polyline clip-path="url(#clip070)" style="stroke:#000000; stroke-width:4; stroke-opacity:1; fill:none" points="
  148.334,1486.45 148.334,47.2441 
  "/>
<polyline clip-path="url(#clip070)" style="stroke:#000000; stroke-width:4; stroke-opacity:1; fill:none" points="
  345.386,1486.45 345.386,1469.18 
  "/>
<polyline clip-path="url(#clip070)" style="stroke:#000000; stroke-width:4; stroke-opacity:1; fill:none" points="
  797.965,1486.45 797.965,1469.18 
  "/>
<polyline clip-path="url(#clip070)" style="stroke:#000000; stroke-width:4; stroke-opacity:1; fill:none" points="
  1250.55,1486.45 1250.55,1469.18 
  "/>
<polyline clip-path="url(#clip070)" style="stroke:#000000; stroke-width:4; stroke-opacity:1; fill:none" points="
  1703.12,1486.45 1703.12,1469.18 
  "/>
<polyline clip-path="url(#clip070)" style="stroke:#000000; stroke-width:4; stroke-opacity:1; fill:none" points="
  2155.7,1486.45 2155.7,1469.18 
  "/>
<polyline clip-path="url(#clip070)" style="stroke:#000000; stroke-width:4; stroke-opacity:1; fill:none" points="
  148.334,1445.72 174.787,1445.72 
  "/>
<polyline clip-path="url(#clip070)" style="stroke:#000000; stroke-width:4; stroke-opacity:1; fill:none" points="
  148.334,1219.43 174.787,1219.43 
  "/>
<polyline clip-path="url(#clip070)" style="stroke:#000000; stroke-width:4; stroke-opacity:1; fill:none" points="
  148.334,993.136 174.787,993.136 
  "/>
<polyline clip-path="url(#clip070)" style="stroke:#000000; stroke-width:4; stroke-opacity:1; fill:none" points="
  148.334,766.846 174.787,766.846 
  "/>
<polyline clip-path="url(#clip070)" style="stroke:#000000; stroke-width:4; stroke-opacity:1; fill:none" points="
  148.334,540.556 174.787,540.556 
  "/>
<polyline clip-path="url(#clip070)" style="stroke:#000000; stroke-width:4; stroke-opacity:1; fill:none" points="
  148.334,314.266 174.787,314.266 
  "/>
<polyline clip-path="url(#clip070)" style="stroke:#000000; stroke-width:4; stroke-opacity:1; fill:none" points="
  148.334,87.9763 174.787,87.9763 
  "/>
<path clip-path="url(#clip070)" d="M 0 0 M327.7 1508.44 Q324.089 1508.44 322.261 1512 Q320.455 1515.55 320.455 1522.67 Q320.455 1529.78 322.261 1533.35 Q324.089 1536.89 327.7 1536.89 Q331.335 1536.89 333.14 1533.35 Q334.969 1529.78 334.969 1522.67 Q334.969 1515.55 333.14 1512 Q331.335 1508.44 327.7 1508.44 M327.7 1504.73 Q333.511 1504.73 336.566 1509.34 Q339.645 1513.92 339.645 1522.67 Q339.645 1531.4 336.566 1536.01 Q333.511 1540.59 327.7 1540.59 Q321.89 1540.59 318.812 1536.01 Q315.756 1531.4 315.756 1522.67 Q315.756 1513.92 318.812 1509.34 Q321.89 1504.73 327.7 1504.73 Z" fill="#000000" fill-rule="evenodd" fill-opacity="1" /><path clip-path="url(#clip070)" d="M 0 0 M344.714 1534.04 L349.598 1534.04 L349.598 1539.92 L344.714 1539.92 L344.714 1534.04 Z" fill="#000000" fill-rule="evenodd" fill-opacity="1" /><path clip-path="url(#clip070)" d="M 0 0 M358.696 1535.98 L375.015 1535.98 L375.015 1539.92 L353.071 1539.92 L353.071 1535.98 Q355.733 1533.23 360.316 1528.6 Q364.922 1523.95 366.103 1522.61 Q368.348 1520.08 369.228 1518.35 Q370.131 1516.59 370.131 1514.9 Q370.131 1512.14 368.186 1510.41 Q366.265 1508.67 363.163 1508.67 Q360.964 1508.67 358.51 1509.43 Q356.08 1510.2 353.302 1511.75 L353.302 1507.03 Q356.126 1505.89 358.58 1505.31 Q361.034 1504.73 363.071 1504.73 Q368.441 1504.73 371.635 1507.42 Q374.83 1510.11 374.83 1514.6 Q374.83 1516.73 374.02 1518.65 Q373.233 1520.54 371.126 1523.14 Q370.547 1523.81 367.446 1527.03 Q364.344 1530.22 358.696 1535.98 Z" fill="#000000" fill-rule="evenodd" fill-opacity="1" /><path clip-path="url(#clip070)" d="M 0 0 M779.239 1508.44 Q775.627 1508.44 773.799 1512 Q771.993 1515.55 771.993 1522.67 Q771.993 1529.78 773.799 1533.35 Q775.627 1536.89 779.239 1536.89 Q782.873 1536.89 784.678 1533.35 Q786.507 1529.78 786.507 1522.67 Q786.507 1515.55 784.678 1512 Q782.873 1508.44 779.239 1508.44 M779.239 1504.73 Q785.049 1504.73 788.104 1509.34 Q791.183 1513.92 791.183 1522.67 Q791.183 1531.4 788.104 1536.01 Q785.049 1540.59 779.239 1540.59 Q773.428 1540.59 770.35 1536.01 Q767.294 1531.4 767.294 1522.67 Q767.294 1513.92 770.35 1509.34 Q773.428 1504.73 779.239 1504.73 Z" fill="#000000" fill-rule="evenodd" fill-opacity="1" /><path clip-path="url(#clip070)" d="M 0 0 M796.252 1534.04 L801.137 1534.04 L801.137 1539.92 L796.252 1539.92 L796.252 1534.04 Z" fill="#000000" fill-rule="evenodd" fill-opacity="1" /><path clip-path="url(#clip070)" d="M 0 0 M819.053 1509.43 L807.248 1527.88 L819.053 1527.88 L819.053 1509.43 M817.826 1505.36 L823.706 1505.36 L823.706 1527.88 L828.636 1527.88 L828.636 1531.77 L823.706 1531.77 L823.706 1539.92 L819.053 1539.92 L819.053 1531.77 L803.451 1531.77 L803.451 1527.26 L817.826 1505.36 Z" fill="#000000" fill-rule="evenodd" fill-opacity="1" /><path clip-path="url(#clip070)" d="M 0 0 M1231.98 1508.44 Q1228.37 1508.44 1226.54 1512 Q1224.74 1515.55 1224.74 1522.67 Q1224.74 1529.78 1226.54 1533.35 Q1228.37 1536.89 1231.98 1536.89 Q1235.61 1536.89 1237.42 1533.35 Q1239.25 1529.78 1239.25 1522.67 Q1239.25 1515.55 1237.42 1512 Q1235.61 1508.44 1231.98 1508.44 M1231.98 1504.73 Q1237.79 1504.73 1240.85 1509.34 Q1243.92 1513.92 1243.92 1522.67 Q1243.92 1531.4 1240.85 1536.01 Q1237.79 1540.59 1231.98 1540.59 Q1226.17 1540.59 1223.09 1536.01 Q1220.04 1531.4 1220.04 1522.67 Q1220.04 1513.92 1223.09 1509.34 Q1226.17 1504.73 1231.98 1504.73 Z" fill="#000000" fill-rule="evenodd" fill-opacity="1" /><path clip-path="url(#clip070)" d="M 0 0 M1248.99 1534.04 L1253.88 1534.04 L1253.88 1539.92 L1248.99 1539.92 L1248.99 1534.04 Z" fill="#000000" fill-rule="evenodd" fill-opacity="1" /><path clip-path="url(#clip070)" d="M 0 0 M1269.53 1520.78 Q1266.38 1520.78 1264.53 1522.93 Q1262.7 1525.08 1262.7 1528.83 Q1262.7 1532.56 1264.53 1534.73 Q1266.38 1536.89 1269.53 1536.89 Q1272.67 1536.89 1274.5 1534.73 Q1276.36 1532.56 1276.36 1528.83 Q1276.36 1525.08 1274.5 1522.93 Q1272.67 1520.78 1269.53 1520.78 M1278.81 1506.12 L1278.81 1510.38 Q1277.05 1509.55 1275.24 1509.11 Q1273.46 1508.67 1271.7 1508.67 Q1267.07 1508.67 1264.62 1511.8 Q1262.19 1514.92 1261.84 1521.24 Q1263.21 1519.23 1265.27 1518.16 Q1267.33 1517.07 1269.8 1517.07 Q1275.01 1517.07 1278.02 1520.24 Q1281.05 1523.39 1281.05 1528.83 Q1281.05 1534.16 1277.91 1537.37 Q1274.76 1540.59 1269.53 1540.59 Q1263.53 1540.59 1260.36 1536.01 Q1257.19 1531.4 1257.19 1522.67 Q1257.19 1514.48 1261.08 1509.62 Q1264.97 1504.73 1271.52 1504.73 Q1273.28 1504.73 1275.06 1505.08 Q1276.86 1505.43 1278.81 1506.12 Z" fill="#000000" fill-rule="evenodd" fill-opacity="1" /><path clip-path="url(#clip070)" d="M 0 0 M1684.69 1508.44 Q1681.08 1508.44 1679.25 1512 Q1677.44 1515.55 1677.44 1522.67 Q1677.44 1529.78 1679.25 1533.35 Q1681.08 1536.89 1684.69 1536.89 Q1688.32 1536.89 1690.13 1533.35 Q1691.96 1529.78 1691.96 1522.67 Q1691.96 1515.55 1690.13 1512 Q1688.32 1508.44 1684.69 1508.44 M1684.69 1504.73 Q1690.5 1504.73 1693.55 1509.34 Q1696.63 1513.92 1696.63 1522.67 Q1696.63 1531.4 1693.55 1536.01 Q1690.5 1540.59 1684.69 1540.59 Q1678.88 1540.59 1675.8 1536.01 Q1672.74 1531.4 1672.74 1522.67 Q1672.74 1513.92 1675.8 1509.34 Q1678.88 1504.73 1684.69 1504.73 Z" fill="#000000" fill-rule="evenodd" fill-opacity="1" /><path clip-path="url(#clip070)" d="M 0 0 M1701.7 1534.04 L1706.59 1534.04 L1706.59 1539.92 L1701.7 1539.92 L1701.7 1534.04 Z" fill="#000000" fill-rule="evenodd" fill-opacity="1" /><path clip-path="url(#clip070)" d="M 0 0 M1721.65 1523.51 Q1718.32 1523.51 1716.4 1525.29 Q1714.5 1527.07 1714.5 1530.2 Q1714.5 1533.32 1716.4 1535.11 Q1718.32 1536.89 1721.65 1536.89 Q1724.99 1536.89 1726.91 1535.11 Q1728.83 1533.3 1728.83 1530.2 Q1728.83 1527.07 1726.91 1525.29 Q1725.01 1523.51 1721.65 1523.51 M1716.98 1521.52 Q1713.97 1520.78 1712.28 1518.72 Q1710.61 1516.66 1710.61 1513.69 Q1710.61 1509.55 1713.55 1507.14 Q1716.52 1504.73 1721.65 1504.73 Q1726.82 1504.73 1729.76 1507.14 Q1732.7 1509.55 1732.7 1513.69 Q1732.7 1516.66 1731.01 1518.72 Q1729.34 1520.78 1726.35 1521.52 Q1729.73 1522.3 1731.61 1524.6 Q1733.51 1526.89 1733.51 1530.2 Q1733.51 1535.22 1730.43 1537.91 Q1727.37 1540.59 1721.65 1540.59 Q1715.94 1540.59 1712.86 1537.91 Q1709.8 1535.22 1709.8 1530.2 Q1709.8 1526.89 1711.7 1524.6 Q1713.6 1522.3 1716.98 1521.52 M1715.27 1514.13 Q1715.27 1516.82 1716.93 1518.32 Q1718.62 1519.83 1721.65 1519.83 Q1724.66 1519.83 1726.35 1518.32 Q1728.07 1516.82 1728.07 1514.13 Q1728.07 1511.45 1726.35 1509.94 Q1724.66 1508.44 1721.65 1508.44 Q1718.62 1508.44 1716.93 1509.94 Q1715.27 1511.45 1715.27 1514.13 Z" fill="#000000" fill-rule="evenodd" fill-opacity="1" /><path clip-path="url(#clip070)" d="M 0 0 M2127.6 1535.98 L2135.24 1535.98 L2135.24 1509.62 L2126.93 1511.29 L2126.93 1507.03 L2135.2 1505.36 L2139.87 1505.36 L2139.87 1535.98 L2147.51 1535.98 L2147.51 1539.92 L2127.6 1539.92 L2127.6 1535.98 Z" fill="#000000" fill-rule="evenodd" fill-opacity="1" /><path clip-path="url(#clip070)" d="M 0 0 M2152.58 1534.04 L2157.46 1534.04 L2157.46 1539.92 L2152.58 1539.92 L2152.58 1534.04 Z" fill="#000000" fill-rule="evenodd" fill-opacity="1" /><path clip-path="url(#clip070)" d="M 0 0 M2172.53 1508.44 Q2168.92 1508.44 2167.09 1512 Q2165.29 1515.55 2165.29 1522.67 Q2165.29 1529.78 2167.09 1533.35 Q2168.92 1536.89 2172.53 1536.89 Q2176.17 1536.89 2177.97 1533.35 Q2179.8 1529.78 2179.8 1522.67 Q2179.8 1515.55 2177.97 1512 Q2176.17 1508.44 2172.53 1508.44 M2172.53 1504.73 Q2178.34 1504.73 2181.4 1509.34 Q2184.48 1513.92 2184.48 1522.67 Q2184.48 1531.4 2181.4 1536.01 Q2178.34 1540.59 2172.53 1540.59 Q2166.72 1540.59 2163.64 1536.01 Q2160.59 1531.4 2160.59 1522.67 Q2160.59 1513.92 2163.64 1509.34 Q2166.72 1504.73 2172.53 1504.73 Z" fill="#000000" fill-rule="evenodd" fill-opacity="1" /><path clip-path="url(#clip070)" d="M 0 0 M76.6495 1431.51 Q73.0384 1431.51 71.2097 1435.08 Q69.4041 1438.62 69.4041 1445.75 Q69.4041 1452.86 71.2097 1456.42 Q73.0384 1459.96 76.6495 1459.96 Q80.2837 1459.96 82.0892 1456.42 Q83.9179 1452.86 83.9179 1445.75 Q83.9179 1438.62 82.0892 1435.08 Q80.2837 1431.51 76.6495 1431.51 M76.6495 1427.81 Q82.4596 1427.81 85.5152 1432.42 Q88.5938 1437 88.5938 1445.75 Q88.5938 1454.48 85.5152 1459.08 Q82.4596 1463.67 76.6495 1463.67 Q70.8393 1463.67 67.7606 1459.08 Q64.7051 1454.48 64.7051 1445.75 Q64.7051 1437 67.7606 1432.42 Q70.8393 1427.81 76.6495 1427.81 Z" fill="#000000" fill-rule="evenodd" fill-opacity="1" /><path clip-path="url(#clip070)" d="M 0 0 M93.6633 1457.12 L98.5475 1457.12 L98.5475 1463 L93.6633 1463 L93.6633 1457.12 Z" fill="#000000" fill-rule="evenodd" fill-opacity="1" /><path clip-path="url(#clip070)" d="M 0 0 M104.427 1459.06 L112.066 1459.06 L112.066 1432.69 L103.756 1434.36 L103.756 1430.1 L112.02 1428.44 L116.696 1428.44 L116.696 1459.06 L124.334 1459.06 L124.334 1463 L104.427 1463 L104.427 1459.06 Z" fill="#000000" fill-rule="evenodd" fill-opacity="1" /><path clip-path="url(#clip070)" d="M 0 0 M77.0198 1205.22 Q73.4087 1205.22 71.58 1208.79 Q69.7745 1212.33 69.7745 1219.46 Q69.7745 1226.57 71.58 1230.13 Q73.4087 1233.67 77.0198 1233.67 Q80.6541 1233.67 82.4596 1230.13 Q84.2883 1226.57 84.2883 1219.46 Q84.2883 1212.33 82.4596 1208.79 Q80.6541 1205.22 77.0198 1205.22 M77.0198 1201.52 Q82.83 1201.52 85.8855 1206.13 Q88.9642 1210.71 88.9642 1219.46 Q88.9642 1228.19 85.8855 1232.79 Q82.83 1237.38 77.0198 1237.38 Q71.2097 1237.38 68.131 1232.79 Q65.0754 1228.19 65.0754 1219.46 Q65.0754 1210.71 68.131 1206.13 Q71.2097 1201.52 77.0198 1201.52 Z" fill="#000000" fill-rule="evenodd" fill-opacity="1" /><path clip-path="url(#clip070)" d="M 0 0 M94.0336 1230.83 L98.9179 1230.83 L98.9179 1236.71 L94.0336 1236.71 L94.0336 1230.83 Z" fill="#000000" fill-rule="evenodd" fill-opacity="1" /><path clip-path="url(#clip070)" d="M 0 0 M108.015 1232.77 L124.334 1232.77 L124.334 1236.71 L102.39 1236.71 L102.39 1232.77 Q105.052 1230.02 109.635 1225.39 Q114.242 1220.73 115.422 1219.39 Q117.668 1216.87 118.547 1215.13 Q119.45 1213.37 119.45 1211.68 Q119.45 1208.93 117.506 1207.19 Q115.584 1205.46 112.483 1205.46 Q110.284 1205.46 107.83 1206.22 Q105.399 1206.98 102.622 1208.53 L102.622 1203.81 Q105.446 1202.68 107.899 1202.1 Q110.353 1201.52 112.39 1201.52 Q117.76 1201.52 120.955 1204.21 Q124.149 1206.89 124.149 1211.38 Q124.149 1213.51 123.339 1215.43 Q122.552 1217.33 120.446 1219.92 Q119.867 1220.59 116.765 1223.81 Q113.663 1227.01 108.015 1232.77 Z" fill="#000000" fill-rule="evenodd" fill-opacity="1" /><path clip-path="url(#clip070)" d="M 0 0 M76.0708 978.935 Q72.4597 978.935 70.631 982.499 Q68.8254 986.041 68.8254 993.171 Q68.8254 1000.28 70.631 1003.84 Q72.4597 1007.38 76.0708 1007.38 Q79.705 1007.38 81.5105 1003.84 Q83.3392 1000.28 83.3392 993.171 Q83.3392 986.041 81.5105 982.499 Q79.705 978.935 76.0708 978.935 M76.0708 975.231 Q81.8809 975.231 84.9365 979.837 Q88.0151 984.421 88.0151 993.171 Q88.0151 1001.9 84.9365 1006.5 Q81.8809 1011.09 76.0708 1011.09 Q70.2606 1011.09 67.1819 1006.5 Q64.1264 1001.9 64.1264 993.171 Q64.1264 984.421 67.1819 979.837 Q70.2606 975.231 76.0708 975.231 Z" fill="#000000" fill-rule="evenodd" fill-opacity="1" /><path clip-path="url(#clip070)" d="M 0 0 M93.0846 1004.54 L97.9688 1004.54 L97.9688 1010.42 L93.0846 1010.42 L93.0846 1004.54 Z" fill="#000000" fill-rule="evenodd" fill-opacity="1" /><path clip-path="url(#clip070)" d="M 0 0 M117.205 991.782 Q120.561 992.499 122.436 994.768 Q124.334 997.036 124.334 1000.37 Q124.334 1005.49 120.816 1008.29 Q117.297 1011.09 110.816 1011.09 Q108.64 1011.09 106.325 1010.65 Q104.034 1010.23 101.58 1009.37 L101.58 1004.86 Q103.524 1005.99 105.839 1006.57 Q108.154 1007.15 110.677 1007.15 Q115.075 1007.15 117.367 1005.42 Q119.682 1003.68 119.682 1000.37 Q119.682 997.314 117.529 995.601 Q115.399 993.865 111.58 993.865 L107.552 993.865 L107.552 990.022 L111.765 990.022 Q115.214 990.022 117.043 988.657 Q118.871 987.268 118.871 984.675 Q118.871 982.013 116.973 980.601 Q115.098 979.166 111.58 979.166 Q109.659 979.166 107.459 979.583 Q105.26 979.999 102.622 980.879 L102.622 976.712 Q105.284 975.972 107.598 975.601 Q109.936 975.231 111.996 975.231 Q117.321 975.231 120.422 977.661 Q123.524 980.069 123.524 984.189 Q123.524 987.06 121.881 989.05 Q120.237 991.018 117.205 991.782 Z" fill="#000000" fill-rule="evenodd" fill-opacity="1" /><path clip-path="url(#clip070)" d="M 0 0 M74.9365 752.645 Q71.3254 752.645 69.4967 756.209 Q67.6912 759.751 67.6912 766.881 Q67.6912 773.987 69.4967 777.552 Q71.3254 781.094 74.9365 781.094 Q78.5707 781.094 80.3763 777.552 Q82.205 773.987 82.205 766.881 Q82.205 759.751 80.3763 756.209 Q78.5707 752.645 74.9365 752.645 M74.9365 748.941 Q80.7467 748.941 83.8022 753.547 Q86.8809 758.131 86.8809 766.881 Q86.8809 775.608 83.8022 780.214 Q80.7467 784.797 74.9365 784.797 Q69.1264 784.797 66.0477 780.214 Q62.9921 775.608 62.9921 766.881 Q62.9921 758.131 66.0477 753.547 Q69.1264 748.941 74.9365 748.941 Z" fill="#000000" fill-rule="evenodd" fill-opacity="1" /><path clip-path="url(#clip070)" d="M 0 0 M91.9503 778.246 L96.8345 778.246 L96.8345 784.126 L91.9503 784.126 L91.9503 778.246 Z" fill="#000000" fill-rule="evenodd" fill-opacity="1" /><path clip-path="url(#clip070)" d="M 0 0 M114.751 753.64 L102.946 772.089 L114.751 772.089 L114.751 753.64 M113.524 749.566 L119.404 749.566 L119.404 772.089 L124.334 772.089 L124.334 775.978 L119.404 775.978 L119.404 784.126 L114.751 784.126 L114.751 775.978 L99.1493 775.978 L99.1493 771.464 L113.524 749.566 Z" fill="#000000" fill-rule="evenodd" fill-opacity="1" /><path clip-path="url(#clip070)" d="M 0 0 M76.418 526.355 Q72.8069 526.355 70.9782 529.92 Q69.1726 533.461 69.1726 540.591 Q69.1726 547.697 70.9782 551.262 Q72.8069 554.804 76.418 554.804 Q80.0522 554.804 81.8578 551.262 Q83.6865 547.697 83.6865 540.591 Q83.6865 533.461 81.8578 529.92 Q80.0522 526.355 76.418 526.355 M76.418 522.651 Q82.2281 522.651 85.2837 527.258 Q88.3624 531.841 88.3624 540.591 Q88.3624 549.318 85.2837 553.924 Q82.2281 558.507 76.418 558.507 Q70.6078 558.507 67.5291 553.924 Q64.4736 549.318 64.4736 540.591 Q64.4736 531.841 67.5291 527.258 Q70.6078 522.651 76.418 522.651 Z" fill="#000000" fill-rule="evenodd" fill-opacity="1" /><path clip-path="url(#clip070)" d="M 0 0 M93.4318 551.956 L98.316 551.956 L98.316 557.836 L93.4318 557.836 L93.4318 551.956 Z" fill="#000000" fill-rule="evenodd" fill-opacity="1" /><path clip-path="url(#clip070)" d="M 0 0 M103.432 523.276 L121.788 523.276 L121.788 527.211 L107.714 527.211 L107.714 535.683 Q108.733 535.336 109.751 535.174 Q110.77 534.989 111.788 534.989 Q117.575 534.989 120.955 538.16 Q124.334 541.332 124.334 546.748 Q124.334 552.327 120.862 555.429 Q117.39 558.507 111.071 558.507 Q108.895 558.507 106.626 558.137 Q104.381 557.767 101.973 557.026 L101.973 552.327 Q104.057 553.461 106.279 554.017 Q108.501 554.572 110.978 554.572 Q114.983 554.572 117.321 552.466 Q119.658 550.359 119.658 546.748 Q119.658 543.137 117.321 541.031 Q114.983 538.924 110.978 538.924 Q109.103 538.924 107.228 539.341 Q105.376 539.757 103.432 540.637 L103.432 523.276 Z" fill="#000000" fill-rule="evenodd" fill-opacity="1" /><path clip-path="url(#clip070)" d="M 0 0 M75.2606 300.065 Q71.6495 300.065 69.8208 303.63 Q68.0152 307.171 68.0152 314.301 Q68.0152 321.407 69.8208 324.972 Q71.6495 328.514 75.2606 328.514 Q78.8948 328.514 80.7004 324.972 Q82.5291 321.407 82.5291 314.301 Q82.5291 307.171 80.7004 303.63 Q78.8948 300.065 75.2606 300.065 M75.2606 296.361 Q81.0707 296.361 84.1263 300.968 Q87.205 305.551 87.205 314.301 Q87.205 323.028 84.1263 327.634 Q81.0707 332.217 75.2606 332.217 Q69.4504 332.217 66.3717 327.634 Q63.3162 323.028 63.3162 314.301 Q63.3162 305.551 66.3717 300.968 Q69.4504 296.361 75.2606 296.361 Z" fill="#000000" fill-rule="evenodd" fill-opacity="1" /><path clip-path="url(#clip070)" d="M 0 0 M92.2744 325.667 L97.1586 325.667 L97.1586 331.546 L92.2744 331.546 L92.2744 325.667 Z" fill="#000000" fill-rule="evenodd" fill-opacity="1" /><path clip-path="url(#clip070)" d="M 0 0 M112.807 312.403 Q109.659 312.403 107.807 314.556 Q105.978 316.708 105.978 320.458 Q105.978 324.185 107.807 326.361 Q109.659 328.514 112.807 328.514 Q115.955 328.514 117.783 326.361 Q119.635 324.185 119.635 320.458 Q119.635 316.708 117.783 314.556 Q115.955 312.403 112.807 312.403 M122.089 297.75 L122.089 302.009 Q120.33 301.176 118.524 300.736 Q116.742 300.296 114.983 300.296 Q110.353 300.296 107.899 303.421 Q105.469 306.546 105.122 312.866 Q106.487 310.852 108.547 309.787 Q110.608 308.699 113.084 308.699 Q118.293 308.699 121.302 311.87 Q124.334 315.018 124.334 320.458 Q124.334 325.782 121.186 329 Q118.038 332.217 112.807 332.217 Q106.811 332.217 103.64 327.634 Q100.469 323.028 100.469 314.301 Q100.469 306.107 104.358 301.245 Q108.247 296.361 114.797 296.361 Q116.557 296.361 118.339 296.708 Q120.145 297.056 122.089 297.75 Z" fill="#000000" fill-rule="evenodd" fill-opacity="1" /><path clip-path="url(#clip070)" d="M 0 0 M76.3254 73.775 Q72.7143 73.775 70.8856 77.3398 Q69.0801 80.8814 69.0801 88.011 Q69.0801 95.1174 70.8856 98.6822 Q72.7143 102.224 76.3254 102.224 Q79.9596 102.224 81.7652 98.6822 Q83.5939 95.1174 83.5939 88.011 Q83.5939 80.8814 81.7652 77.3398 Q79.9596 73.775 76.3254 73.775 M76.3254 70.0713 Q82.1355 70.0713 85.1911 74.6777 Q88.2698 79.261 88.2698 88.011 Q88.2698 96.7378 85.1911 101.344 Q82.1355 105.928 76.3254 105.928 Q70.5152 105.928 67.4365 101.344 Q64.381 96.7378 64.381 88.011 Q64.381 79.261 67.4365 74.6777 Q70.5152 70.0713 76.3254 70.0713 Z" fill="#000000" fill-rule="evenodd" fill-opacity="1" /><path clip-path="url(#clip070)" d="M 0 0 M93.3392 99.3767 L98.2234 99.3767 L98.2234 105.256 L93.3392 105.256 L93.3392 99.3767 Z" fill="#000000" fill-rule="evenodd" fill-opacity="1" /><path clip-path="url(#clip070)" d="M 0 0 M102.112 70.6963 L124.334 70.6963 L124.334 72.687 L111.788 105.256 L106.904 105.256 L118.709 74.6314 L102.112 74.6314 L102.112 70.6963 Z" fill="#000000" fill-rule="evenodd" fill-opacity="1" /><path clip-path="url(#clip072)" d="
M345.386 1445.72 L1250.55 540.556 L2155.7 87.9763 L345.386 1445.72  Z
  " fill="#008000" fill-rule="evenodd" fill-opacity="0.2"/>
<polyline clip-path="url(#clip072)" style="stroke:#000000; stroke-width:4; stroke-opacity:1; fill:none" points="
  345.386,1445.72 1250.55,540.556 2155.7,87.9763 345.386,1445.72 
  "/>
<polyline clip-path="url(#clip072)" style="stroke:#ffa500; stroke-width:4; stroke-opacity:1; fill:none" points="
  797.965,993.136 2155.7,87.9763 
  "/>
<polyline clip-path="url(#clip072)" style="stroke:#ffa500; stroke-width:4; stroke-opacity:1; fill:none" points="
  1250.55,766.846 1250.55,540.556 
  "/>
<polyline clip-path="url(#clip072)" style="stroke:#ffa500; stroke-width:4; stroke-opacity:1; fill:none" points="
  1703.12,314.266 345.386,1445.72 
  "/>
<circle clip-path="url(#clip072)" cx="345.386" cy="1445.72" r="14" fill="#ff0000" fill-rule="evenodd" fill-opacity="1" stroke="#000000" stroke-opacity="1" stroke-width="3.2"/>
<circle clip-path="url(#clip072)" cx="1250.55" cy="540.556" r="14" fill="#ff0000" fill-rule="evenodd" fill-opacity="1" stroke="#000000" stroke-opacity="1" stroke-width="3.2"/>
<circle clip-path="url(#clip072)" cx="2155.7" cy="87.9763" r="14" fill="#ff0000" fill-rule="evenodd" fill-opacity="1" stroke="#000000" stroke-opacity="1" stroke-width="3.2"/>
<circle clip-path="url(#clip072)" cx="1250.55" cy="691.416" r="14" fill="#008000" fill-rule="evenodd" fill-opacity="1" stroke="#000000" stroke-opacity="1" stroke-width="3.2"/>
<path clip-path="url(#clip070)" d="M 0 0 M345.386 1375.15 L334.286 1405.25 L356.526 1405.25 L345.386 1375.15 M340.768 1367.09 L350.044 1367.09 L373.094 1427.57 L364.587 1427.57 L359.078 1412.06 L331.815 1412.06 L326.306 1427.57 L317.677 1427.57 L340.768 1367.09 Z" fill="#000000" fill-rule="evenodd" fill-opacity="1" /><path clip-path="url(#clip070)" d="M 0 0 M1237.28 493.529 L1237.28 515.688 L1250.4 515.688 Q1257.01 515.688 1260.17 512.973 Q1263.37 510.219 1263.37 504.588 Q1263.37 498.917 1260.17 496.243 Q1257.01 493.529 1250.4 493.529 L1237.28 493.529 M1237.28 468.657 L1237.28 486.886 L1249.39 486.886 Q1255.39 486.886 1258.3 484.658 Q1261.26 482.389 1261.26 477.771 Q1261.26 473.194 1258.3 470.925 Q1255.39 468.657 1249.39 468.657 L1237.28 468.657 M1229.1 461.932 L1250 461.932 Q1259.36 461.932 1264.42 465.821 Q1269.48 469.71 1269.48 476.88 Q1269.48 482.43 1266.89 485.711 Q1264.3 488.992 1259.27 489.802 Q1265.31 491.099 1268.63 495.231 Q1271.99 499.322 1271.99 505.479 Q1271.99 513.581 1266.49 517.997 Q1260.98 522.412 1250.81 522.412 L1229.1 522.412 L1229.1 461.932 Z" fill="#000000" fill-rule="evenodd" fill-opacity="1" /><path clip-path="url(#clip070)" d="M 0 0 M2180.09 14.0108 L2180.09 22.6392 Q2175.96 18.7909 2171.26 16.887 Q2166.6 14.983 2161.34 14.983 Q2150.97 14.983 2145.46 21.343 Q2139.95 27.6624 2139.95 39.653 Q2139.95 51.6032 2145.46 57.9631 Q2150.97 64.2825 2161.34 64.2825 Q2166.6 64.2825 2171.26 62.3786 Q2175.96 60.4747 2180.09 56.6263 L2180.09 65.1737 Q2175.8 68.0904 2170.98 69.5487 Q2166.2 71.007 2160.85 71.007 Q2147.12 71.007 2139.22 62.6217 Q2131.32 54.1958 2131.32 39.653 Q2131.32 25.0698 2139.22 16.6844 Q2147.12 8.25853 2160.85 8.25853 Q2166.28 8.25853 2171.06 9.71686 Q2175.88 11.1347 2180.09 14.0108 Z" fill="#000000" fill-rule="evenodd" fill-opacity="1" /><path clip-path="url(#clip070)" d="M 0 0 M1229.16 629.644 L1229.16 636.611 Q1226 634.869 1222.8 634.019 Q1219.64 633.128 1216.4 633.128 Q1209.14 633.128 1205.13 637.746 Q1201.12 642.323 1201.12 650.627 Q1201.12 658.932 1205.13 663.55 Q1209.14 668.127 1216.4 668.127 Q1219.64 668.127 1222.8 667.277 Q1226 666.385 1229.16 664.644 L1229.16 671.53 Q1226.04 672.988 1222.67 673.718 Q1219.35 674.447 1215.59 674.447 Q1205.34 674.447 1199.3 668.006 Q1193.27 661.565 1193.27 650.627 Q1193.27 639.528 1199.34 633.168 Q1205.46 626.808 1216.07 626.808 Q1219.52 626.808 1222.8 627.537 Q1226.08 628.226 1229.16 629.644 Z" fill="#000000" fill-rule="evenodd" fill-opacity="1" /><path clip-path="url(#clip070)" d="M 0 0 M1244.19 666.466 L1244.19 690.529 L1236.69 690.529 L1236.69 627.902 L1244.19 627.902 L1244.19 634.788 Q1246.53 630.738 1250.1 628.793 Q1253.7 626.808 1258.69 626.808 Q1266.95 626.808 1272.1 633.371 Q1277.28 639.933 1277.28 650.627 Q1277.28 661.322 1272.1 667.884 Q1266.95 674.447 1258.69 674.447 Q1253.7 674.447 1250.1 672.502 Q1246.53 670.517 1244.19 666.466 M1269.54 650.627 Q1269.54 642.404 1266.14 637.746 Q1262.78 633.047 1256.86 633.047 Q1250.95 633.047 1247.55 637.746 Q1244.19 642.404 1244.19 650.627 Q1244.19 658.851 1247.55 663.55 Q1250.95 668.208 1256.86 668.208 Q1262.78 668.208 1266.14 663.55 Q1269.54 658.851 1269.54 650.627 Z" fill="#000000" fill-rule="evenodd" fill-opacity="1" /><path clip-path="url(#clip070)" d="M 0 0 M1292.47 615.02 L1292.47 627.902 L1307.82 627.902 L1307.82 633.695 L1292.47 633.695 L1292.47 658.324 Q1292.47 663.874 1293.97 665.454 Q1295.51 667.034 1300.17 667.034 L1307.82 667.034 L1307.82 673.272 L1300.17 673.272 Q1291.54 673.272 1288.26 670.072 Q1284.98 666.831 1284.98 658.324 L1284.98 633.695 L1279.51 633.695 L1279.51 627.902 L1284.98 627.902 L1284.98 615.02 L1292.47 615.02 Z" fill="#000000" fill-rule="evenodd" fill-opacity="1" /></svg>
