<?xml version="1.0" encoding="utf-8"?>
<svg xmlns="http://www.w3.org/2000/svg" xmlns:xlink="http://www.w3.org/1999/xlink" width="600" height="400" viewBox="0 0 2400 1600">
<defs>
  <clipPath id="clip990">
    <rect x="0" y="0" width="2400" height="1600"/>
  </clipPath>
</defs>
<path clip-path="url(#clip990)" d="
M0 1600 L2400 1600 L2400 0 L0 0  Z
  " fill="#ffffff" fill-rule="evenodd" fill-opacity="1"/>
<defs>
  <clipPath id="clip991">
    <rect x="480" y="0" width="1681" height="1600"/>
  </clipPath>
</defs>
<path clip-path="url(#clip990)" d="
M148.01 1486.45 L2352.76 1486.45 L2352.76 47.2441 L148.01 47.2441  Z
  " fill="#ffffff" fill-rule="evenodd" fill-opacity="1"/>
<defs>
  <clipPath id="clip992">
    <rect x="148" y="47" width="2206" height="1440"/>
  </clipPath>
</defs>
<polyline clip-path="url(#clip992)" style="stroke:#000000; stroke-width:2; stroke-opacity:0.1; fill:none" points="
  401.796,1486.45 401.796,47.2441 
  "/>
<polyline clip-path="url(#clip992)" style="stroke:#000000; stroke-width:2; stroke-opacity:0.1; fill:none" points="
  741.231,1486.45 741.231,47.2441 
  "/>
<polyline clip-path="url(#clip992)" style="stroke:#000000; stroke-width:2; stroke-opacity:0.1; fill:none" points="
  1080.67,1486.45 1080.67,47.2441 
  "/>
<polyline clip-path="url(#clip992)" style="stroke:#000000; stroke-width:2; stroke-opacity:0.1; fill:none" points="
  1420.1,1486.45 1420.1,47.2441 
  "/>
<polyline clip-path="url(#clip992)" style="stroke:#000000; stroke-width:2; stroke-opacity:0.1; fill:none" points="
  1759.54,1486.45 1759.54,47.2441 
  "/>
<polyline clip-path="url(#clip992)" style="stroke:#000000; stroke-width:2; stroke-opacity:0.1; fill:none" points="
  2098.97,1486.45 2098.97,47.2441 
  "/>
<polyline clip-path="url(#clip992)" style="stroke:#000000; stroke-width:2; stroke-opacity:0.1; fill:none" points="
  148.01,1445.72 2352.76,1445.72 
  "/>
<polyline clip-path="url(#clip992)" style="stroke:#000000; stroke-width:2; stroke-opacity:0.1; fill:none" points="
  148.01,1106.28 2352.76,1106.28 
  "/>
<polyline clip-path="url(#clip992)" style="stroke:#000000; stroke-width:2; stroke-opacity:0.1; fill:none" points="
  148.01,766.846 2352.76,766.846 
  "/>
<polyline clip-path="url(#clip992)" style="stroke:#000000; stroke-width:2; stroke-opacity:0.1; fill:none" points="
  148.01,427.411 2352.76,427.411 
  "/>
<polyline clip-path="url(#clip992)" style="stroke:#000000; stroke-width:2; stroke-opacity:0.1; fill:none" points="
  148.01,87.9763 2352.76,87.9763 
  "/>
<polyline clip-path="url(#clip990)" style="stroke:#000000; stroke-width:4; stroke-opacity:1; fill:none" points="
  148.01,1486.45 2352.76,1486.45 
  "/>
<polyline clip-path="url(#clip990)" style="stroke:#000000; stroke-width:4; stroke-opacity:1; fill:none" points="
  148.01,1486.45 148.01,47.2441 
  "/>
<polyline clip-path="url(#clip990)" style="stroke:#000000; stroke-width:4; stroke-opacity:1; fill:none" points="
  401.796,1486.45 401.796,1469.18 
  "/>
<polyline clip-path="url(#clip990)" style="stroke:#000000; stroke-width:4; stroke-opacity:1; fill:none" points="
  741.231,1486.45 741.231,1469.18 
  "/>
<polyline clip-path="url(#clip990)" style="stroke:#000000; stroke-width:4; stroke-opacity:1; fill:none" points="
  1080.67,1486.45 1080.67,1469.18 
  "/>
<polyline clip-path="url(#clip990)" style="stroke:#000000; stroke-width:4; stroke-opacity:1; fill:none" points="
  1420.1,1486.45 1420.1,1469.18 
  "/>
<polyline clip-path="url(#clip990)" style="stroke:#000000; stroke-width:4; stroke-opacity:1; fill:none" points="
  1759.54,1486.45 1759.54,1469.18 
  "/>
<polyline clip-path="url(#clip990)" style="stroke:#000000; stroke-width:4; stroke-opacity:1; fill:none" points="
  2098.97,1486.45 2098.97,1469.18 
  "/>
<polyline clip-path="url(#clip990)" style="stroke:#000000; stroke-width:4; stroke-opacity:1; fill:none" points="
  148.01,1445.72 174.467,1445.72 
  "/>
<polyline clip-path="url(#clip990)" style="stroke:#000000; stroke-width:4; stroke-opacity:1; fill:none" points="
  148.01,1106.28 174.467,1106.28 
  "/>
<polyline clip-path="url(#clip990)" style="stroke:#000000; stroke-width:4; stroke-opacity:1; fill:none" points="
  148.01,766.846 174.467,766.846 
  "/>
<polyline clip-path="url(#clip990)" style="stroke:#000000; stroke-width:4; stroke-opacity:1; fill:none" points="
  148.01,427.411 174.467,427.411 
  "/>
<polyline clip-path="url(#clip990)" style="stroke:#000000; stroke-width:4; stroke-opacity:1; fill:none" points="
  148.01,87.9763 174.467,87.9763 
  "/>
<path clip-path="url(#clip990)" d="M 0 0 M383.231 1508.44 Q379.62 1508.44 377.791 1512 Q375.986 1515.55 375.986 1522.67 Q375.986 1529.78 377.791 1533.35 Q379.62 1536.89 383.231 1536.89 Q386.866 1536.89 388.671 1533.35 Q390.5 1529.78 390.5 1522.67 Q390.5 1515.55 388.671 1512 Q386.866 1508.44 383.231 1508.44 M383.231 1504.73 Q389.041 1504.73 392.097 1509.34 Q395.176 1513.92 395.176 1522.67 Q395.176 1531.4 392.097 1536.01 Q389.041 1540.59 383.231 1540.59 Q377.421 1540.59 374.342 1536.01 Q371.287 1531.4 371.287 1522.67 Q371.287 1513.92 374.342 1509.34 Q377.421 1504.73 383.231 1504.73 Z" fill="#000000" fill-rule="evenodd" fill-opacity="1" /><path clip-path="url(#clip990)" d="M 0 0 M400.245 1534.04 L405.129 1534.04 L405.129 1539.92 L400.245 1539.92 L400.245 1534.04 Z" fill="#000000" fill-rule="evenodd" fill-opacity="1" /><path clip-path="url(#clip990)" d="M 0 0 M420.777 1520.78 Q417.629 1520.78 415.777 1522.93 Q413.949 1525.08 413.949 1528.83 Q413.949 1532.56 415.777 1534.73 Q417.629 1536.89 420.777 1536.89 Q423.925 1536.89 425.754 1534.73 Q427.606 1532.56 427.606 1528.83 Q427.606 1525.08 425.754 1522.93 Q423.925 1520.78 420.777 1520.78 M430.06 1506.12 L430.06 1510.38 Q428.3 1509.55 426.495 1509.11 Q424.713 1508.67 422.953 1508.67 Q418.324 1508.67 415.87 1511.8 Q413.439 1514.92 413.092 1521.24 Q414.458 1519.23 416.518 1518.16 Q418.578 1517.07 421.055 1517.07 Q426.263 1517.07 429.273 1520.24 Q432.305 1523.39 432.305 1528.83 Q432.305 1534.16 429.157 1537.37 Q426.009 1540.59 420.777 1540.59 Q414.782 1540.59 411.611 1536.01 Q408.439 1531.4 408.439 1522.67 Q408.439 1514.48 412.328 1509.62 Q416.217 1504.73 422.768 1504.73 Q424.527 1504.73 426.31 1505.08 Q428.115 1505.43 430.06 1506.12 Z" fill="#000000" fill-rule="evenodd" fill-opacity="1" /><path clip-path="url(#clip990)" d="M 0 0 M723.199 1508.44 Q719.587 1508.44 717.759 1512 Q715.953 1515.55 715.953 1522.67 Q715.953 1529.78 717.759 1533.35 Q719.587 1536.89 723.199 1536.89 Q726.833 1536.89 728.638 1533.35 Q730.467 1529.78 730.467 1522.67 Q730.467 1515.55 728.638 1512 Q726.833 1508.44 723.199 1508.44 M723.199 1504.73 Q729.009 1504.73 732.064 1509.34 Q735.143 1513.92 735.143 1522.67 Q735.143 1531.4 732.064 1536.01 Q729.009 1540.59 723.199 1540.59 Q717.388 1540.59 714.31 1536.01 Q711.254 1531.4 711.254 1522.67 Q711.254 1513.92 714.31 1509.34 Q717.388 1504.73 723.199 1504.73 Z" fill="#000000" fill-rule="evenodd" fill-opacity="1" /><path clip-path="url(#clip990)" d="M 0 0 M740.212 1534.04 L745.097 1534.04 L745.097 1539.92 L740.212 1539.92 L740.212 1534.04 Z" fill="#000000" fill-rule="evenodd" fill-opacity="1" /><path clip-path="url(#clip990)" d="M 0 0 M748.985 1505.36 L771.208 1505.36 L771.208 1507.35 L758.661 1539.92 L753.777 1539.92 L765.583 1509.3 L748.985 1509.3 L748.985 1505.36 Z" fill="#000000" fill-rule="evenodd" fill-opacity="1" /><path clip-path="url(#clip990)" d="M 0 0 M1062.23 1508.44 Q1058.62 1508.44 1056.79 1512 Q1054.98 1515.55 1054.98 1522.67 Q1054.98 1529.78 1056.79 1533.35 Q1058.62 1536.89 1062.23 1536.89 Q1065.86 1536.89 1067.67 1533.35 Q1069.5 1529.78 1069.5 1522.67 Q1069.5 1515.55 1067.67 1512 Q1065.86 1508.44 1062.23 1508.44 M1062.23 1504.73 Q1068.04 1504.73 1071.09 1509.34 Q1074.17 1513.92 1074.17 1522.67 Q1074.17 1531.4 1071.09 1536.01 Q1068.04 1540.59 1062.23 1540.59 Q1056.42 1540.59 1053.34 1536.01 Q1050.28 1531.4 1050.28 1522.67 Q1050.28 1513.92 1053.34 1509.34 Q1056.42 1504.73 1062.23 1504.73 Z" fill="#000000" fill-rule="evenodd" fill-opacity="1" /><path clip-path="url(#clip990)" d="M 0 0 M1079.24 1534.04 L1084.13 1534.04 L1084.13 1539.92 L1079.24 1539.92 L1079.24 1534.04 Z" fill="#000000" fill-rule="evenodd" fill-opacity="1" /><path clip-path="url(#clip990)" d="M 0 0 M1099.2 1523.51 Q1095.86 1523.51 1093.94 1525.29 Q1092.04 1527.07 1092.04 1530.2 Q1092.04 1533.32 1093.94 1535.11 Q1095.86 1536.89 1099.2 1536.89 Q1102.53 1536.89 1104.45 1535.11 Q1106.37 1533.3 1106.37 1530.2 Q1106.37 1527.07 1104.45 1525.29 Q1102.55 1523.51 1099.2 1523.51 M1094.52 1521.52 Q1091.51 1520.78 1089.82 1518.72 Q1088.15 1516.66 1088.15 1513.69 Q1088.15 1509.55 1091.09 1507.14 Q1094.06 1504.73 1099.2 1504.73 Q1104.36 1504.73 1107.3 1507.14 Q1110.24 1509.55 1110.24 1513.69 Q1110.24 1516.66 1108.55 1518.72 Q1106.88 1520.78 1103.89 1521.52 Q1107.27 1522.3 1109.15 1524.6 Q1111.05 1526.89 1111.05 1530.2 Q1111.05 1535.22 1107.97 1537.91 Q1104.91 1540.59 1099.2 1540.59 Q1093.48 1540.59 1090.4 1537.91 Q1087.34 1535.22 1087.34 1530.2 Q1087.34 1526.89 1089.24 1524.6 Q1091.14 1522.3 1094.52 1521.52 M1092.81 1514.13 Q1092.81 1516.82 1094.47 1518.32 Q1096.16 1519.83 1099.2 1519.83 Q1102.2 1519.83 1103.89 1518.32 Q1105.61 1516.82 1105.61 1514.13 Q1105.61 1511.45 1103.89 1509.94 Q1102.2 1508.44 1099.2 1508.44 Q1096.16 1508.44 1094.47 1509.94 Q1092.81 1511.45 1092.81 1514.13 Z" fill="#000000" fill-rule="evenodd" fill-opacity="1" /><path clip-path="url(#clip990)" d="M 0 0 M1401.71 1508.44 Q1398.1 1508.44 1396.27 1512 Q1394.46 1515.55 1394.46 1522.67 Q1394.46 1529.78 1396.27 1533.35 Q1398.1 1536.89 1401.71 1536.89 Q1405.34 1536.89 1407.15 1533.35 Q1408.98 1529.78 1408.98 1522.67 Q1408.98 1515.55 1407.15 1512 Q1405.34 1508.44 1401.71 1508.44 M1401.71 1504.73 Q1407.52 1504.73 1410.58 1509.34 Q1413.65 1513.92 1413.65 1522.67 Q1413.65 1531.4 1410.58 1536.01 Q1407.52 1540.59 1401.71 1540.59 Q1395.9 1540.59 1392.82 1536.01 Q1389.77 1531.4 1389.77 1522.67 Q1389.77 1513.92 1392.82 1509.34 Q1395.9 1504.73 1401.71 1504.73 Z" fill="#000000" fill-rule="evenodd" fill-opacity="1" /><path clip-path="url(#clip990)" d="M 0 0 M1418.72 1534.04 L1423.61 1534.04 L1423.61 1539.92 L1418.72 1539.92 L1418.72 1534.04 Z" fill="#000000" fill-rule="evenodd" fill-opacity="1" /><path clip-path="url(#clip990)" d="M 0 0 M1428.82 1539.2 L1428.82 1534.94 Q1430.58 1535.78 1432.38 1536.22 Q1434.19 1536.66 1435.92 1536.66 Q1440.55 1536.66 1442.98 1533.55 Q1445.44 1530.43 1445.78 1524.09 Q1444.44 1526.08 1442.38 1527.14 Q1440.32 1528.21 1437.82 1528.21 Q1432.64 1528.21 1429.6 1525.08 Q1426.59 1521.93 1426.59 1516.49 Q1426.59 1511.17 1429.74 1507.95 Q1432.89 1504.73 1438.12 1504.73 Q1444.12 1504.73 1447.26 1509.34 Q1450.44 1513.92 1450.44 1522.67 Q1450.44 1530.85 1446.55 1535.73 Q1442.68 1540.59 1436.13 1540.59 Q1434.37 1540.59 1432.57 1540.24 Q1430.76 1539.9 1428.82 1539.2 M1438.12 1524.55 Q1441.27 1524.55 1443.1 1522.4 Q1444.95 1520.24 1444.95 1516.49 Q1444.95 1512.77 1443.1 1510.61 Q1441.27 1508.44 1438.12 1508.44 Q1434.97 1508.44 1433.12 1510.61 Q1431.29 1512.77 1431.29 1516.49 Q1431.29 1520.24 1433.12 1522.4 Q1434.97 1524.55 1438.12 1524.55 Z" fill="#000000" fill-rule="evenodd" fill-opacity="1" /><path clip-path="url(#clip990)" d="M 0 0 M1731.43 1535.98 L1739.07 1535.98 L1739.07 1509.62 L1730.76 1511.29 L1730.76 1507.03 L1739.03 1505.36 L1743.7 1505.36 L1743.7 1535.98 L1751.34 1535.98 L1751.34 1539.92 L1731.43 1539.92 L1731.43 1535.98 Z" fill="#000000" fill-rule="evenodd" fill-opacity="1" /><path clip-path="url(#clip990)" d="M 0 0 M1756.41 1534.04 L1761.29 1534.04 L1761.29 1539.92 L1756.41 1539.92 L1756.41 1534.04 Z" fill="#000000" fill-rule="evenodd" fill-opacity="1" /><path clip-path="url(#clip990)" d="M 0 0 M1776.36 1508.44 Q1772.75 1508.44 1770.92 1512 Q1769.12 1515.55 1769.12 1522.67 Q1769.12 1529.78 1770.92 1533.35 Q1772.75 1536.89 1776.36 1536.89 Q1780 1536.89 1781.8 1533.35 Q1783.63 1529.78 1783.63 1522.67 Q1783.63 1515.55 1781.8 1512 Q1780 1508.44 1776.36 1508.44 M1776.36 1504.73 Q1782.17 1504.73 1785.23 1509.34 Q1788.31 1513.92 1788.31 1522.67 Q1788.31 1531.4 1785.23 1536.01 Q1782.17 1540.59 1776.36 1540.59 Q1770.55 1540.59 1767.48 1536.01 Q1764.42 1531.4 1764.42 1522.67 Q1764.42 1513.92 1767.48 1509.34 Q1770.55 1504.73 1776.36 1504.73 Z" fill="#000000" fill-rule="evenodd" fill-opacity="1" /><path clip-path="url(#clip990)" d="M 0 0 M2071.48 1535.98 L2079.12 1535.98 L2079.12 1509.62 L2070.81 1511.29 L2070.81 1507.03 L2079.07 1505.36 L2083.75 1505.36 L2083.75 1535.98 L2091.39 1535.98 L2091.39 1539.92 L2071.48 1539.92 L2071.48 1535.98 Z" fill="#000000" fill-rule="evenodd" fill-opacity="1" /><path clip-path="url(#clip990)" d="M 0 0 M2096.46 1534.04 L2101.34 1534.04 L2101.34 1539.92 L2096.46 1539.92 L2096.46 1534.04 Z" fill="#000000" fill-rule="evenodd" fill-opacity="1" /><path clip-path="url(#clip990)" d="M 0 0 M2107.22 1535.98 L2114.86 1535.98 L2114.86 1509.62 L2106.55 1511.29 L2106.55 1507.03 L2114.82 1505.36 L2119.49 1505.36 L2119.49 1535.98 L2127.13 1535.98 L2127.13 1539.92 L2107.22 1539.92 L2107.22 1535.98 Z" fill="#000000" fill-rule="evenodd" fill-opacity="1" /><path clip-path="url(#clip990)" d="M 0 0 M76.0939 1431.51 Q72.4828 1431.51 70.6541 1435.08 Q68.8486 1438.62 68.8486 1445.75 Q68.8486 1452.86 70.6541 1456.42 Q72.4828 1459.96 76.0939 1459.96 Q79.7281 1459.96 81.5337 1456.42 Q83.3624 1452.86 83.3624 1445.75 Q83.3624 1438.62 81.5337 1435.08 Q79.7281 1431.51 76.0939 1431.51 M76.0939 1427.81 Q81.9041 1427.81 84.9596 1432.42 Q88.0383 1437 88.0383 1445.75 Q88.0383 1454.48 84.9596 1459.08 Q81.9041 1463.67 76.0939 1463.67 Q70.2838 1463.67 67.2051 1459.08 Q64.1495 1454.48 64.1495 1445.75 Q64.1495 1437 67.2051 1432.42 Q70.2838 1427.81 76.0939 1427.81 Z" fill="#000000" fill-rule="evenodd" fill-opacity="1" /><path clip-path="url(#clip990)" d="M 0 0 M93.1077 1457.12 L97.9919 1457.12 L97.9919 1463 L93.1077 1463 L93.1077 1457.12 Z" fill="#000000" fill-rule="evenodd" fill-opacity="1" /><path clip-path="url(#clip990)" d="M 0 0 M103.108 1428.44 L121.464 1428.44 L121.464 1432.37 L107.39 1432.37 L107.39 1440.84 Q108.409 1440.5 109.427 1440.33 Q110.446 1440.15 111.464 1440.15 Q117.251 1440.15 120.631 1443.32 Q124.01 1446.49 124.01 1451.91 Q124.01 1457.49 120.538 1460.59 Q117.066 1463.67 110.746 1463.67 Q108.571 1463.67 106.302 1463.3 Q104.057 1462.93 101.649 1462.19 L101.649 1457.49 Q103.733 1458.62 105.955 1459.18 Q108.177 1459.73 110.654 1459.73 Q114.659 1459.73 116.996 1457.63 Q119.334 1455.52 119.334 1451.91 Q119.334 1448.3 116.996 1446.19 Q114.659 1444.08 110.654 1444.08 Q108.779 1444.08 106.904 1444.5 Q105.052 1444.92 103.108 1445.8 L103.108 1428.44 Z" fill="#000000" fill-rule="evenodd" fill-opacity="1" /><path clip-path="url(#clip990)" d="M 0 0 M74.9365 1092.08 Q71.3254 1092.08 69.4967 1095.64 Q67.6912 1099.19 67.6912 1106.32 Q67.6912 1113.42 69.4967 1116.99 Q71.3254 1120.53 74.9365 1120.53 Q78.5707 1120.53 80.3763 1116.99 Q82.205 1113.42 82.205 1106.32 Q82.205 1099.19 80.3763 1095.64 Q78.5707 1092.08 74.9365 1092.08 M74.9365 1088.38 Q80.7467 1088.38 83.8022 1092.98 Q86.8809 1097.57 86.8809 1106.32 Q86.8809 1115.04 83.8022 1119.65 Q80.7467 1124.23 74.9365 1124.23 Q69.1264 1124.23 66.0477 1119.65 Q62.9921 1115.04 62.9921 1106.32 Q62.9921 1097.57 66.0477 1092.98 Q69.1264 1088.38 74.9365 1088.38 Z" fill="#000000" fill-rule="evenodd" fill-opacity="1" /><path clip-path="url(#clip990)" d="M 0 0 M91.9503 1117.68 L96.8345 1117.68 L96.8345 1123.56 L91.9503 1123.56 L91.9503 1117.68 Z" fill="#000000" fill-rule="evenodd" fill-opacity="1" /><path clip-path="url(#clip990)" d="M 0 0 M112.483 1104.42 Q109.334 1104.42 107.483 1106.57 Q105.654 1108.72 105.654 1112.47 Q105.654 1116.2 107.483 1118.38 Q109.334 1120.53 112.483 1120.53 Q115.631 1120.53 117.459 1118.38 Q119.311 1116.2 119.311 1112.47 Q119.311 1108.72 117.459 1106.57 Q115.631 1104.42 112.483 1104.42 M121.765 1089.76 L121.765 1094.02 Q120.006 1093.19 118.2 1092.75 Q116.418 1092.31 114.659 1092.31 Q110.029 1092.31 107.575 1095.44 Q105.145 1098.56 104.797 1104.88 Q106.163 1102.87 108.223 1101.8 Q110.284 1100.71 112.76 1100.71 Q117.969 1100.71 120.978 1103.89 Q124.01 1107.03 124.01 1112.47 Q124.01 1117.8 120.862 1121.01 Q117.714 1124.23 112.483 1124.23 Q106.487 1124.23 103.316 1119.65 Q100.145 1115.04 100.145 1106.32 Q100.145 1098.12 104.034 1093.26 Q107.922 1088.38 114.473 1088.38 Q116.233 1088.38 118.015 1088.72 Q119.821 1089.07 121.765 1089.76 Z" fill="#000000" fill-rule="evenodd" fill-opacity="1" /><path clip-path="url(#clip990)" d="M 0 0 M76.0013 752.645 Q72.3902 752.645 70.5615 756.209 Q68.756 759.751 68.756 766.881 Q68.756 773.987 70.5615 777.552 Q72.3902 781.094 76.0013 781.094 Q79.6356 781.094 81.4411 777.552 Q83.2698 773.987 83.2698 766.881 Q83.2698 759.751 81.4411 756.209 Q79.6356 752.645 76.0013 752.645 M76.0013 748.941 Q81.8115 748.941 84.867 753.547 Q87.9457 758.131 87.9457 766.881 Q87.9457 775.608 84.867 780.214 Q81.8115 784.797 76.0013 784.797 Q70.1912 784.797 67.1125 780.214 Q64.0569 775.608 64.0569 766.881 Q64.0569 758.131 67.1125 753.547 Q70.1912 748.941 76.0013 748.941 Z" fill="#000000" fill-rule="evenodd" fill-opacity="1" /><path clip-path="url(#clip990)" d="M 0 0 M93.0151 778.246 L97.8993 778.246 L97.8993 784.126 L93.0151 784.126 L93.0151 778.246 Z" fill="#000000" fill-rule="evenodd" fill-opacity="1" /><path clip-path="url(#clip990)" d="M 0 0 M101.788 749.566 L124.01 749.566 L124.01 751.557 L111.464 784.126 L106.58 784.126 L118.385 753.501 L101.788 753.501 L101.788 749.566 Z" fill="#000000" fill-rule="evenodd" fill-opacity="1" /><path clip-path="url(#clip990)" d="M 0 0 M75.1911 413.21 Q71.58 413.21 69.7513 416.775 Q67.9458 420.316 67.9458 427.446 Q67.9458 434.552 69.7513 438.117 Q71.58 441.659 75.1911 441.659 Q78.8254 441.659 80.6309 438.117 Q82.4596 434.552 82.4596 427.446 Q82.4596 420.316 80.6309 416.775 Q78.8254 413.21 75.1911 413.21 M75.1911 409.506 Q81.0013 409.506 84.0568 414.113 Q87.1355 418.696 87.1355 427.446 Q87.1355 436.173 84.0568 440.779 Q81.0013 445.362 75.1911 445.362 Q69.381 445.362 66.3023 440.779 Q63.2468 436.173 63.2468 427.446 Q63.2468 418.696 66.3023 414.113 Q69.381 409.506 75.1911 409.506 Z" fill="#000000" fill-rule="evenodd" fill-opacity="1" /><path clip-path="url(#clip990)" d="M 0 0 M92.2049 438.812 L97.0892 438.812 L97.0892 444.691 L92.2049 444.691 L92.2049 438.812 Z" fill="#000000" fill-rule="evenodd" fill-opacity="1" /><path clip-path="url(#clip990)" d="M 0 0 M112.159 428.279 Q108.825 428.279 106.904 430.062 Q105.006 431.844 105.006 434.969 Q105.006 438.094 106.904 439.876 Q108.825 441.659 112.159 441.659 Q115.492 441.659 117.413 439.876 Q119.334 438.071 119.334 434.969 Q119.334 431.844 117.413 430.062 Q115.515 428.279 112.159 428.279 M107.483 426.288 Q104.473 425.548 102.784 423.488 Q101.117 421.427 101.117 418.464 Q101.117 414.321 104.057 411.914 Q107.02 409.506 112.159 409.506 Q117.321 409.506 120.26 411.914 Q123.2 414.321 123.2 418.464 Q123.2 421.427 121.51 423.488 Q119.844 425.548 116.858 426.288 Q120.237 427.075 122.112 429.367 Q124.01 431.659 124.01 434.969 Q124.01 439.992 120.932 442.677 Q117.876 445.362 112.159 445.362 Q106.441 445.362 103.362 442.677 Q100.307 439.992 100.307 434.969 Q100.307 431.659 102.205 429.367 Q104.103 427.075 107.483 426.288 M105.77 418.904 Q105.77 421.589 107.436 423.094 Q109.126 424.599 112.159 424.599 Q115.168 424.599 116.858 423.094 Q118.571 421.589 118.571 418.904 Q118.571 416.219 116.858 414.714 Q115.168 413.21 112.159 413.21 Q109.126 413.21 107.436 414.714 Q105.77 416.219 105.77 418.904 Z" fill="#000000" fill-rule="evenodd" fill-opacity="1" /><path clip-path="url(#clip990)" d="M 0 0 M75.2837 73.775 Q71.6726 73.775 69.8439 77.3398 Q68.0384 80.8814 68.0384 88.011 Q68.0384 95.1174 69.8439 98.6822 Q71.6726 102.224 75.2837 102.224 Q78.918 102.224 80.7235 98.6822 Q82.5522 95.1174 82.5522 88.011 Q82.5522 80.8814 80.7235 77.3398 Q78.918 73.775 75.2837 73.775 M75.2837 70.0713 Q81.0939 70.0713 84.1494 74.6777 Q87.2281 79.261 87.2281 88.011 Q87.2281 96.7378 84.1494 101.344 Q81.0939 105.928 75.2837 105.928 Q69.4736 105.928 66.3949 101.344 Q63.3393 96.7378 63.3393 88.011 Q63.3393 79.261 66.3949 74.6777 Q69.4736 70.0713 75.2837 70.0713 Z" fill="#000000" fill-rule="evenodd" fill-opacity="1" /><path clip-path="url(#clip990)" d="M 0 0 M92.2975 99.3767 L97.1818 99.3767 L97.1818 105.256 L92.2975 105.256 L92.2975 99.3767 Z" fill="#000000" fill-rule="evenodd" fill-opacity="1" /><path clip-path="url(#clip990)" d="M 0 0 M102.39 104.539 L102.39 100.279 Q104.149 101.113 105.955 101.553 Q107.76 101.992 109.497 101.992 Q114.126 101.992 116.557 98.8906 Q119.01 95.7656 119.358 89.423 Q118.015 91.4138 115.955 92.4786 Q113.895 93.5434 111.395 93.5434 Q106.209 93.5434 103.177 90.4184 Q100.168 87.2703 100.168 81.8305 Q100.168 76.5064 103.316 73.2889 Q106.464 70.0713 111.696 70.0713 Q117.691 70.0713 120.839 74.6777 Q124.01 79.261 124.01 88.011 Q124.01 96.1823 120.121 101.066 Q116.256 105.928 109.705 105.928 Q107.946 105.928 106.14 105.58 Q104.334 105.233 102.39 104.539 M111.696 89.886 Q114.844 89.886 116.672 87.7332 Q118.524 85.5805 118.524 81.8305 Q118.524 78.1036 116.672 75.9509 Q114.844 73.775 111.696 73.775 Q108.547 73.775 106.696 75.9509 Q104.867 78.1036 104.867 81.8305 Q104.867 85.5805 106.696 87.7332 Q108.547 89.886 111.696 89.886 Z" fill="#000000" fill-rule="evenodd" fill-opacity="1" /><path clip-path="url(#clip992)" d="
M1420.1 87.9763 L1759.54 1445.72 L741.231 1445.72 L1420.1 87.9763  Z
  " fill="#008000" fill-rule="evenodd" fill-opacity="0.2"/>
<polyline clip-path="url(#clip992)" style="stroke:#000000; stroke-width:4; stroke-opacity:1; fill:none" points="
  1420.1,87.9763 1759.54,1445.72 741.231,1445.72 1420.1,87.9763 
  "/>
<polyline clip-path="url(#clip992)" style="stroke:#ffa500; stroke-width:4; stroke-opacity:1; fill:none" points="
  1589.82,766.846 741.231,1445.72 
  "/>
<polyline clip-path="url(#clip992)" style="stroke:#ffa500; stroke-width:4; stroke-opacity:1; fill:none" points="
  1080.67,766.846 1759.54,1445.72 
  "/>
<polyline clip-path="url(#clip992)" style="stroke:#ffa500; stroke-width:4; stroke-opacity:1; fill:none" points="
  1250.38,1445.72 1420.1,87.9763 
  "/>
<circle clip-path="url(#clip992)" cx="1420.1" cy="87.9763" r="14" fill="#ff0000" fill-rule="evenodd" fill-opacity="1" stroke="#000000" stroke-opacity="1" stroke-width="3.2"/>
<circle clip-path="url(#clip992)" cx="1759.54" cy="1445.72" r="14" fill="#ff0000" fill-rule="evenodd" fill-opacity="1" stroke="#000000" stroke-opacity="1" stroke-width="3.2"/>
<circle clip-path="url(#clip992)" cx="741.231" cy="1445.72" r="14" fill="#ff0000" fill-rule="evenodd" fill-opacity="1" stroke="#000000" stroke-opacity="1" stroke-width="3.2"/>
<circle clip-path="url(#clip992)" cx="1306.96" cy="993.136" r="14" fill="#008000" fill-rule="evenodd" fill-opacity="1" stroke="#000000" stroke-opacity="1" stroke-width="3.2"/>
<path clip-path="url(#clip990)" d="M 0 0 M1420.1 17.4136 L1409 47.5118 L1431.24 47.5118 L1420.1 17.4136 M1415.48 9.35228 L1424.76 9.35228 L1447.81 69.8323 L1439.3 69.8323 L1433.79 54.3173 L1406.53 54.3173 L1401.02 69.8323 L1392.39 69.8323 L1415.48 9.35228 Z" fill="#000000" fill-rule="evenodd" fill-opacity="1" /><path clip-path="url(#clip990)" d="M 0 0 M1746.27 1398.69 L1746.27 1420.85 L1759.39 1420.85 Q1766 1420.85 1769.16 1418.13 Q1772.36 1415.38 1772.36 1409.75 Q1772.36 1404.08 1769.16 1401.4 Q1766 1398.69 1759.39 1398.69 L1746.27 1398.69 M1746.27 1373.82 L1746.27 1392.05 L1758.38 1392.05 Q1764.38 1392.05 1767.29 1389.82 Q1770.25 1387.55 1770.25 1382.93 Q1770.25 1378.35 1767.29 1376.08 Q1764.38 1373.82 1758.38 1373.82 L1746.27 1373.82 M1738.09 1367.09 L1758.99 1367.09 Q1768.35 1367.09 1773.41 1370.98 Q1778.47 1374.87 1778.47 1382.04 Q1778.47 1387.59 1775.88 1390.87 Q1773.29 1394.15 1768.27 1394.96 Q1774.3 1396.26 1777.62 1400.39 Q1780.98 1404.48 1780.98 1410.64 Q1780.98 1418.74 1775.48 1423.16 Q1769.97 1427.57 1759.8 1427.57 L1738.09 1427.57 L1738.09 1367.09 Z" fill="#000000" fill-rule="evenodd" fill-opacity="1" /><path clip-path="url(#clip990)" d="M 0 0 M765.617 1371.75 L765.617 1380.38 Q761.485 1376.53 756.786 1374.63 Q752.128 1372.72 746.862 1372.72 Q736.491 1372.72 730.982 1379.08 Q725.473 1385.4 725.473 1397.39 Q725.473 1409.34 730.982 1415.7 Q736.491 1422.02 746.862 1422.02 Q752.128 1422.02 756.786 1420.12 Q761.485 1418.21 765.617 1414.37 L765.617 1422.91 Q761.323 1425.83 756.503 1427.29 Q751.723 1428.75 746.375 1428.75 Q732.643 1428.75 724.744 1420.36 Q716.844 1411.94 716.844 1397.39 Q716.844 1382.81 724.744 1374.42 Q732.643 1366 746.375 1366 Q751.804 1366 756.584 1367.46 Q761.404 1368.87 765.617 1371.75 Z" fill="#000000" fill-rule="evenodd" fill-opacity="1" /><path clip-path="url(#clip990)" d="M 0 0 M1285.57 931.364 L1285.57 938.331 Q1282.41 936.589 1279.21 935.739 Q1276.05 934.847 1272.81 934.847 Q1265.56 934.847 1261.54 939.465 Q1257.53 944.043 1257.53 952.347 Q1257.53 960.652 1261.54 965.27 Q1265.56 969.847 1272.81 969.847 Q1276.05 969.847 1279.21 968.997 Q1282.41 968.105 1285.57 966.363 L1285.57 973.25 Q1282.45 974.708 1279.09 975.437 Q1275.76 976.167 1272 976.167 Q1261.75 976.167 1255.71 969.726 Q1249.68 963.285 1249.68 952.347 Q1249.68 941.248 1255.75 934.888 Q1261.87 928.528 1272.48 928.528 Q1275.93 928.528 1279.21 929.257 Q1282.49 929.946 1285.57 931.364 Z" fill="#000000" fill-rule="evenodd" fill-opacity="1" /><path clip-path="url(#clip990)" d="M 0 0 M1300.6 968.186 L1300.6 992.249 L1293.1 992.249 L1293.1 929.622 L1300.6 929.622 L1300.6 936.508 Q1302.95 932.457 1306.51 930.513 Q1310.12 928.528 1315.1 928.528 Q1323.36 928.528 1328.51 935.09 Q1333.69 941.653 1333.69 952.347 Q1333.69 963.042 1328.51 969.604 Q1323.36 976.167 1315.1 976.167 Q1310.12 976.167 1306.51 974.222 Q1302.95 972.237 1300.6 968.186 M1325.95 952.347 Q1325.95 944.124 1322.55 939.465 Q1319.19 934.766 1313.27 934.766 Q1307.36 934.766 1303.96 939.465 Q1300.6 944.124 1300.6 952.347 Q1300.6 960.571 1303.96 965.27 Q1307.36 969.928 1313.27 969.928 Q1319.19 969.928 1322.55 965.27 Q1325.95 960.571 1325.95 952.347 Z" fill="#000000" fill-rule="evenodd" fill-opacity="1" /><path clip-path="url(#clip990)" d="M 0 0 M1348.88 916.74 L1348.88 929.622 L1364.24 929.622 L1364.24 935.415 L1348.88 935.415 L1348.88 960.044 Q1348.88 965.594 1350.38 967.174 Q1351.92 968.753 1356.58 968.753 L1364.24 968.753 L1364.24 974.992 L1356.58 974.992 Q1347.95 974.992 1344.67 971.792 Q1341.39 968.551 1341.39 960.044 L1341.39 935.415 L1335.92 935.415 L1335.92 929.622 L1341.39 929.622 L1341.39 916.74 L1348.88 916.74 Z" fill="#000000" fill-rule="evenodd" fill-opacity="1" /></svg>
