<?xml version="1.0" encoding="utf-8"?>
<svg xmlns="http://www.w3.org/2000/svg" xmlns:xlink="http://www.w3.org/1999/xlink" width="600" height="400" viewBox="0 0 2400 1600">
<defs>
  <clipPath id="clip020">
    <rect x="0" y="0" width="2400" height="1600"/>
  </clipPath>
</defs>
<path clip-path="url(#clip020)" d="
M0 1600 L2400 1600 L2400 0 L0 0  Z
  " fill="#ffffff" fill-rule="evenodd" fill-opacity="1"/>
<defs>
  <clipPath id="clip021">
    <rect x="480" y="0" width="1681" height="1600"/>
  </clipPath>
</defs>
<path clip-path="url(#clip020)" d="
M148.01 1486.45 L2352.76 1486.45 L2352.76 47.2441 L148.01 47.2441  Z
  " fill="#ffffff" fill-rule="evenodd" fill-opacity="1"/>
<defs>
  <clipPath id="clip022">
    <rect x="148" y="47" width="2206" height="1440"/>
  </clipPath>
</defs>
<polyline clip-path="url(#clip022)" style="stroke:#000000; stroke-width:2; stroke-opacity:0.1; fill:none" points="
  210.409,1486.45 210.409,47.2441 
  "/>
<polyline clip-path="url(#clip022)" style="stroke:#000000; stroke-width:2; stroke-opacity:0.1; fill:none" points="
  557.067,1486.45 557.067,47.2441 
  "/>
<polyline clip-path="url(#clip022)" style="stroke:#000000; stroke-width:2; stroke-opacity:0.1; fill:none" points="
  903.725,1486.45 903.725,47.2441 
  "/>
<polyline clip-path="url(#clip022)" style="stroke:#000000; stroke-width:2; stroke-opacity:0.1; fill:none" points="
  1250.38,1486.45 1250.38,47.2441 
  "/>
<polyline clip-path="url(#clip022)" style="stroke:#000000; stroke-width:2; stroke-opacity:0.1; fill:none" points="
  1597.04,1486.45 1597.04,47.2441 
  "/>
<polyline clip-path="url(#clip022)" style="stroke:#000000; stroke-width:2; stroke-opacity:0.1; fill:none" points="
  1943.7,1486.45 1943.7,47.2441 
  "/>
<polyline clip-path="url(#clip022)" style="stroke:#000000; stroke-width:2; stroke-opacity:0.1; fill:none" points="
  2290.36,1486.45 2290.36,47.2441 
  "/>
<polyline clip-path="url(#clip022)" style="stroke:#000000; stroke-width:2; stroke-opacity:0.1; fill:none" points="
  148.01,1286.83 2352.76,1286.83 
  "/>
<polyline clip-path="url(#clip022)" style="stroke:#000000; stroke-width:2; stroke-opacity:0.1; fill:none" points="
  148.01,940.175 2352.76,940.175 
  "/>
<polyline clip-path="url(#clip022)" style="stroke:#000000; stroke-width:2; stroke-opacity:0.1; fill:none" points="
  148.01,593.517 2352.76,593.517 
  "/>
<polyline clip-path="url(#clip022)" style="stroke:#000000; stroke-width:2; stroke-opacity:0.1; fill:none" points="
  148.01,246.859 2352.76,246.859 
  "/>
<polyline clip-path="url(#clip020)" style="stroke:#000000; stroke-width:4; stroke-opacity:1; fill:none" points="
  148.01,1486.45 2352.76,1486.45 
  "/>
<polyline clip-path="url(#clip020)" style="stroke:#000000; stroke-width:4; stroke-opacity:1; fill:none" points="
  148.01,1486.45 148.01,47.2441 
  "/>
<polyline clip-path="url(#clip020)" style="stroke:#000000; stroke-width:4; stroke-opacity:1; fill:none" points="
  210.409,1486.45 210.409,1469.18 
  "/>
<polyline clip-path="url(#clip020)" style="stroke:#000000; stroke-width:4; stroke-opacity:1; fill:none" points="
  557.067,1486.45 557.067,1469.18 
  "/>
<polyline clip-path="url(#clip020)" style="stroke:#000000; stroke-width:4; stroke-opacity:1; fill:none" points="
  903.725,1486.45 903.725,1469.18 
  "/>
<polyline clip-path="url(#clip020)" style="stroke:#000000; stroke-width:4; stroke-opacity:1; fill:none" points="
  1250.38,1486.45 1250.38,1469.18 
  "/>
<polyline clip-path="url(#clip020)" style="stroke:#000000; stroke-width:4; stroke-opacity:1; fill:none" points="
  1597.04,1486.45 1597.04,1469.18 
  "/>
<polyline clip-path="url(#clip020)" style="stroke:#000000; stroke-width:4; stroke-opacity:1; fill:none" points="
  1943.7,1486.45 1943.7,1469.18 
  "/>
<polyline clip-path="url(#clip020)" style="stroke:#000000; stroke-width:4; stroke-opacity:1; fill:none" points="
  2290.36,1486.45 2290.36,1469.18 
  "/>
<polyline clip-path="url(#clip020)" style="stroke:#000000; stroke-width:4; stroke-opacity:1; fill:none" points="
  148.01,1286.83 174.467,1286.83 
  "/>
<polyline clip-path="url(#clip020)" style="stroke:#000000; stroke-width:4; stroke-opacity:1; fill:none" points="
  148.01,940.175 174.467,940.175 
  "/>
<polyline clip-path="url(#clip020)" style="stroke:#000000; stroke-width:4; stroke-opacity:1; fill:none" points="
  148.01,593.517 174.467,593.517 
  "/>
<polyline clip-path="url(#clip020)" style="stroke:#000000; stroke-width:4; stroke-opacity:1; fill:none" points="
  148.01,246.859 174.467,246.859 
  "/>
<path clip-path="url(#clip020)" d="M 0 0 M191.925 1508.44 Q188.314 1508.44 186.485 1512 Q184.68 1515.55 184.68 1522.67 Q184.68 1529.78 186.485 1533.35 Q188.314 1536.89 191.925 1536.89 Q195.559 1536.89 197.365 1533.35 Q199.194 1529.78 199.194 1522.67 Q199.194 1515.55 197.365 1512 Q195.559 1508.44 191.925 1508.44 M191.925 1504.73 Q197.735 1504.73 200.791 1509.34 Q203.869 1513.92 203.869 1522.67 Q203.869 1531.4 200.791 1536.01 Q197.735 1540.59 191.925 1540.59 Q186.115 1540.59 183.036 1536.01 Q179.981 1531.4 179.981 1522.67 Q179.981 1513.92 183.036 1509.34 Q186.115 1504.73 191.925 1504.73 Z" fill="#000000" fill-rule="evenodd" fill-opacity="1" /><path clip-path="url(#clip020)" d="M 0 0 M208.939 1534.04 L213.823 1534.04 L213.823 1539.92 L208.939 1539.92 L208.939 1534.04 Z" fill="#000000" fill-rule="evenodd" fill-opacity="1" /><path clip-path="url(#clip020)" d="M 0 0 M228.892 1508.44 Q225.281 1508.44 223.453 1512 Q221.647 1515.55 221.647 1522.67 Q221.647 1529.78 223.453 1533.35 Q225.281 1536.89 228.892 1536.89 Q232.527 1536.89 234.332 1533.35 Q236.161 1529.78 236.161 1522.67 Q236.161 1515.55 234.332 1512 Q232.527 1508.44 228.892 1508.44 M228.892 1504.73 Q234.703 1504.73 237.758 1509.34 Q240.837 1513.92 240.837 1522.67 Q240.837 1531.4 237.758 1536.01 Q234.703 1540.59 228.892 1540.59 Q223.082 1540.59 220.004 1536.01 Q216.948 1531.4 216.948 1522.67 Q216.948 1513.92 220.004 1509.34 Q223.082 1504.73 228.892 1504.73 Z" fill="#000000" fill-rule="evenodd" fill-opacity="1" /><path clip-path="url(#clip020)" d="M 0 0 M539.197 1508.44 Q535.586 1508.44 533.757 1512 Q531.951 1515.55 531.951 1522.67 Q531.951 1529.78 533.757 1533.35 Q535.586 1536.89 539.197 1536.89 Q542.831 1536.89 544.636 1533.35 Q546.465 1529.78 546.465 1522.67 Q546.465 1515.55 544.636 1512 Q542.831 1508.44 539.197 1508.44 M539.197 1504.73 Q545.007 1504.73 548.062 1509.34 Q551.141 1513.92 551.141 1522.67 Q551.141 1531.4 548.062 1536.01 Q545.007 1540.59 539.197 1540.59 Q533.386 1540.59 530.308 1536.01 Q527.252 1531.4 527.252 1522.67 Q527.252 1513.92 530.308 1509.34 Q533.386 1504.73 539.197 1504.73 Z" fill="#000000" fill-rule="evenodd" fill-opacity="1" /><path clip-path="url(#clip020)" d="M 0 0 M556.21 1534.04 L561.095 1534.04 L561.095 1539.92 L556.21 1539.92 L556.21 1534.04 Z" fill="#000000" fill-rule="evenodd" fill-opacity="1" /><path clip-path="url(#clip020)" d="M 0 0 M566.974 1535.98 L574.613 1535.98 L574.613 1509.62 L566.303 1511.29 L566.303 1507.03 L574.567 1505.36 L579.243 1505.36 L579.243 1535.98 L586.882 1535.98 L586.882 1539.92 L566.974 1539.92 L566.974 1535.98 Z" fill="#000000" fill-rule="evenodd" fill-opacity="1" /><path clip-path="url(#clip020)" d="M 0 0 M886.04 1508.44 Q882.429 1508.44 880.6 1512 Q878.795 1515.55 878.795 1522.67 Q878.795 1529.78 880.6 1533.35 Q882.429 1536.89 886.04 1536.89 Q889.674 1536.89 891.48 1533.35 Q893.308 1529.78 893.308 1522.67 Q893.308 1515.55 891.48 1512 Q889.674 1508.44 886.04 1508.44 M886.04 1504.73 Q891.85 1504.73 894.906 1509.34 Q897.984 1513.92 897.984 1522.67 Q897.984 1531.4 894.906 1536.01 Q891.85 1540.59 886.04 1540.59 Q880.23 1540.59 877.151 1536.01 Q874.096 1531.4 874.096 1522.67 Q874.096 1513.92 877.151 1509.34 Q880.23 1504.73 886.04 1504.73 Z" fill="#000000" fill-rule="evenodd" fill-opacity="1" /><path clip-path="url(#clip020)" d="M 0 0 M903.054 1534.04 L907.938 1534.04 L907.938 1539.92 L903.054 1539.92 L903.054 1534.04 Z" fill="#000000" fill-rule="evenodd" fill-opacity="1" /><path clip-path="url(#clip020)" d="M 0 0 M917.035 1535.98 L933.354 1535.98 L933.354 1539.92 L911.41 1539.92 L911.41 1535.98 Q914.072 1533.23 918.655 1528.6 Q923.262 1523.95 924.442 1522.61 Q926.688 1520.08 927.567 1518.35 Q928.47 1516.59 928.47 1514.9 Q928.47 1512.14 926.526 1510.41 Q924.605 1508.67 921.503 1508.67 Q919.304 1508.67 916.85 1509.43 Q914.419 1510.2 911.642 1511.75 L911.642 1507.03 Q914.466 1505.89 916.919 1505.31 Q919.373 1504.73 921.41 1504.73 Q926.78 1504.73 929.975 1507.42 Q933.169 1510.11 933.169 1514.6 Q933.169 1516.73 932.359 1518.65 Q931.572 1520.54 929.466 1523.14 Q928.887 1523.81 925.785 1527.03 Q922.683 1530.22 917.035 1535.98 Z" fill="#000000" fill-rule="evenodd" fill-opacity="1" /><path clip-path="url(#clip020)" d="M 0 0 M1232.22 1508.44 Q1228.61 1508.44 1226.78 1512 Q1224.98 1515.55 1224.98 1522.67 Q1224.98 1529.78 1226.78 1533.35 Q1228.61 1536.89 1232.22 1536.89 Q1235.86 1536.89 1237.66 1533.35 Q1239.49 1529.78 1239.49 1522.67 Q1239.49 1515.55 1237.66 1512 Q1235.86 1508.44 1232.22 1508.44 M1232.22 1504.73 Q1238.03 1504.73 1241.09 1509.34 Q1244.17 1513.92 1244.17 1522.67 Q1244.17 1531.4 1241.09 1536.01 Q1238.03 1540.59 1232.22 1540.59 Q1226.41 1540.59 1223.33 1536.01 Q1220.28 1531.4 1220.28 1522.67 Q1220.28 1513.92 1223.33 1509.34 Q1226.41 1504.73 1232.22 1504.73 Z" fill="#000000" fill-rule="evenodd" fill-opacity="1" /><path clip-path="url(#clip020)" d="M 0 0 M1249.24 1534.04 L1254.12 1534.04 L1254.12 1539.92 L1249.24 1539.92 L1249.24 1534.04 Z" fill="#000000" fill-rule="evenodd" fill-opacity="1" /><path clip-path="url(#clip020)" d="M 0 0 M1273.36 1521.29 Q1276.71 1522 1278.59 1524.27 Q1280.49 1526.54 1280.49 1529.87 Q1280.49 1534.99 1276.97 1537.79 Q1273.45 1540.59 1266.97 1540.59 Q1264.79 1540.59 1262.48 1540.15 Q1260.19 1539.73 1257.73 1538.88 L1257.73 1534.36 Q1259.68 1535.5 1261.99 1536.08 Q1264.31 1536.66 1266.83 1536.66 Q1271.23 1536.66 1273.52 1534.92 Q1275.83 1533.18 1275.83 1529.87 Q1275.83 1526.82 1273.68 1525.11 Q1271.55 1523.37 1267.73 1523.37 L1263.7 1523.37 L1263.7 1519.53 L1267.92 1519.53 Q1271.37 1519.53 1273.2 1518.16 Q1275.02 1516.77 1275.02 1514.18 Q1275.02 1511.52 1273.13 1510.11 Q1271.25 1508.67 1267.73 1508.67 Q1265.81 1508.67 1263.61 1509.09 Q1261.41 1509.5 1258.77 1510.38 L1258.77 1506.22 Q1261.44 1505.48 1263.75 1505.11 Q1266.09 1504.73 1268.15 1504.73 Q1273.47 1504.73 1276.58 1507.17 Q1279.68 1509.57 1279.68 1513.69 Q1279.68 1516.56 1278.03 1518.55 Q1276.39 1520.52 1273.36 1521.29 Z" fill="#000000" fill-rule="evenodd" fill-opacity="1" /><path clip-path="url(#clip020)" d="M 0 0 M1578.31 1508.44 Q1574.7 1508.44 1572.87 1512 Q1571.07 1515.55 1571.07 1522.67 Q1571.07 1529.78 1572.87 1533.35 Q1574.7 1536.89 1578.31 1536.89 Q1581.95 1536.89 1583.75 1533.35 Q1585.58 1529.78 1585.58 1522.67 Q1585.58 1515.55 1583.75 1512 Q1581.95 1508.44 1578.31 1508.44 M1578.31 1504.73 Q1584.12 1504.73 1587.18 1509.34 Q1590.26 1513.92 1590.26 1522.67 Q1590.26 1531.4 1587.18 1536.01 Q1584.12 1540.59 1578.31 1540.59 Q1572.5 1540.59 1569.43 1536.01 Q1566.37 1531.4 1566.37 1522.67 Q1566.37 1513.92 1569.43 1509.34 Q1572.5 1504.73 1578.31 1504.73 Z" fill="#000000" fill-rule="evenodd" fill-opacity="1" /><path clip-path="url(#clip020)" d="M 0 0 M1595.33 1534.04 L1600.21 1534.04 L1600.21 1539.92 L1595.33 1539.92 L1595.33 1534.04 Z" fill="#000000" fill-rule="evenodd" fill-opacity="1" /><path clip-path="url(#clip020)" d="M 0 0 M1618.13 1509.43 L1606.32 1527.88 L1618.13 1527.88 L1618.13 1509.43 M1616.9 1505.36 L1622.78 1505.36 L1622.78 1527.88 L1627.71 1527.88 L1627.71 1531.77 L1622.78 1531.77 L1622.78 1539.92 L1618.13 1539.92 L1618.13 1531.77 L1602.53 1531.77 L1602.53 1527.26 L1616.9 1505.36 Z" fill="#000000" fill-rule="evenodd" fill-opacity="1" /><path clip-path="url(#clip020)" d="M 0 0 M1925.71 1508.44 Q1922.1 1508.44 1920.27 1512 Q1918.47 1515.55 1918.47 1522.67 Q1918.47 1529.78 1920.27 1533.35 Q1922.1 1536.89 1925.71 1536.89 Q1929.35 1536.89 1931.15 1533.35 Q1932.98 1529.78 1932.98 1522.67 Q1932.98 1515.55 1931.15 1512 Q1929.35 1508.44 1925.71 1508.44 M1925.71 1504.73 Q1931.52 1504.73 1934.58 1509.34 Q1937.66 1513.92 1937.66 1522.67 Q1937.66 1531.4 1934.58 1536.01 Q1931.52 1540.59 1925.71 1540.59 Q1919.9 1540.59 1916.82 1536.01 Q1913.77 1531.4 1913.77 1522.67 Q1913.77 1513.92 1916.82 1509.34 Q1919.9 1504.73 1925.71 1504.73 Z" fill="#000000" fill-rule="evenodd" fill-opacity="1" /><path clip-path="url(#clip020)" d="M 0 0 M1942.73 1534.04 L1947.61 1534.04 L1947.61 1539.92 L1942.73 1539.92 L1942.73 1534.04 Z" fill="#000000" fill-rule="evenodd" fill-opacity="1" /><path clip-path="url(#clip020)" d="M 0 0 M1952.73 1505.36 L1971.08 1505.36 L1971.08 1509.3 L1957.01 1509.3 L1957.01 1517.77 Q1958.03 1517.42 1959.05 1517.26 Q1960.06 1517.07 1961.08 1517.07 Q1966.87 1517.07 1970.25 1520.24 Q1973.63 1523.42 1973.63 1528.83 Q1973.63 1534.41 1970.16 1537.51 Q1966.69 1540.59 1960.37 1540.59 Q1958.19 1540.59 1955.92 1540.22 Q1953.68 1539.85 1951.27 1539.11 L1951.27 1534.41 Q1953.35 1535.54 1955.57 1536.1 Q1957.8 1536.66 1960.27 1536.66 Q1964.28 1536.66 1966.62 1534.55 Q1968.95 1532.44 1968.95 1528.83 Q1968.95 1525.22 1966.62 1523.11 Q1964.28 1521.01 1960.27 1521.01 Q1958.4 1521.01 1956.52 1521.42 Q1954.67 1521.84 1952.73 1522.72 L1952.73 1505.36 Z" fill="#000000" fill-rule="evenodd" fill-opacity="1" /><path clip-path="url(#clip020)" d="M 0 0 M2271.79 1508.44 Q2268.18 1508.44 2266.35 1512 Q2264.55 1515.55 2264.55 1522.67 Q2264.55 1529.78 2266.35 1533.35 Q2268.18 1536.89 2271.79 1536.89 Q2275.43 1536.89 2277.23 1533.35 Q2279.06 1529.78 2279.06 1522.67 Q2279.06 1515.55 2277.23 1512 Q2275.43 1508.44 2271.79 1508.44 M2271.79 1504.73 Q2277.6 1504.73 2280.66 1509.34 Q2283.74 1513.92 2283.74 1522.67 Q2283.74 1531.4 2280.66 1536.01 Q2277.6 1540.59 2271.79 1540.59 Q2265.98 1540.59 2262.9 1536.01 Q2259.85 1531.4 2259.85 1522.67 Q2259.85 1513.92 2262.9 1509.34 Q2265.98 1504.73 2271.79 1504.73 Z" fill="#000000" fill-rule="evenodd" fill-opacity="1" /><path clip-path="url(#clip020)" d="M 0 0 M2288.81 1534.04 L2293.69 1534.04 L2293.69 1539.92 L2288.81 1539.92 L2288.81 1534.04 Z" fill="#000000" fill-rule="evenodd" fill-opacity="1" /><path clip-path="url(#clip020)" d="M 0 0 M2309.34 1520.78 Q2306.19 1520.78 2304.34 1522.93 Q2302.51 1525.08 2302.51 1528.83 Q2302.51 1532.56 2304.34 1534.73 Q2306.19 1536.89 2309.34 1536.89 Q2312.49 1536.89 2314.32 1534.73 Q2316.17 1532.56 2316.17 1528.83 Q2316.17 1525.08 2314.32 1522.93 Q2312.49 1520.78 2309.34 1520.78 M2318.62 1506.12 L2318.62 1510.38 Q2316.86 1509.55 2315.06 1509.11 Q2313.27 1508.67 2311.51 1508.67 Q2306.89 1508.67 2304.43 1511.8 Q2302 1514.92 2301.65 1521.24 Q2303.02 1519.23 2305.08 1518.16 Q2307.14 1517.07 2309.62 1517.07 Q2314.82 1517.07 2317.83 1520.24 Q2320.87 1523.39 2320.87 1528.83 Q2320.87 1534.16 2317.72 1537.37 Q2314.57 1540.59 2309.34 1540.59 Q2303.34 1540.59 2300.17 1536.01 Q2297 1531.4 2297 1522.67 Q2297 1514.48 2300.89 1509.62 Q2304.78 1504.73 2311.33 1504.73 Q2313.09 1504.73 2314.87 1505.08 Q2316.68 1505.43 2318.62 1506.12 Z" fill="#000000" fill-rule="evenodd" fill-opacity="1" /><path clip-path="url(#clip020)" d="M 0 0 M76.0939 1272.63 Q72.4828 1272.63 70.6541 1276.2 Q68.8486 1279.74 68.8486 1286.87 Q68.8486 1293.97 70.6541 1297.54 Q72.4828 1301.08 76.0939 1301.08 Q79.7281 1301.08 81.5337 1297.54 Q83.3624 1293.97 83.3624 1286.87 Q83.3624 1279.74 81.5337 1276.2 Q79.7281 1272.63 76.0939 1272.63 M76.0939 1268.93 Q81.9041 1268.93 84.9596 1273.53 Q88.0383 1278.12 88.0383 1286.87 Q88.0383 1295.59 84.9596 1300.2 Q81.9041 1304.78 76.0939 1304.78 Q70.2838 1304.78 67.2051 1300.2 Q64.1495 1295.59 64.1495 1286.87 Q64.1495 1278.12 67.2051 1273.53 Q70.2838 1268.93 76.0939 1268.93 Z" fill="#000000" fill-rule="evenodd" fill-opacity="1" /><path clip-path="url(#clip020)" d="M 0 0 M93.1077 1298.23 L97.9919 1298.23 L97.9919 1304.11 L93.1077 1304.11 L93.1077 1298.23 Z" fill="#000000" fill-rule="evenodd" fill-opacity="1" /><path clip-path="url(#clip020)" d="M 0 0 M103.108 1269.55 L121.464 1269.55 L121.464 1273.49 L107.39 1273.49 L107.39 1281.96 Q108.409 1281.61 109.427 1281.45 Q110.446 1281.27 111.464 1281.27 Q117.251 1281.27 120.631 1284.44 Q124.01 1287.61 124.01 1293.03 Q124.01 1298.6 120.538 1301.71 Q117.066 1304.78 110.746 1304.78 Q108.571 1304.78 106.302 1304.41 Q104.057 1304.04 101.649 1303.3 L101.649 1298.6 Q103.733 1299.74 105.955 1300.29 Q108.177 1300.85 110.654 1300.85 Q114.659 1300.85 116.996 1298.74 Q119.334 1296.64 119.334 1293.03 Q119.334 1289.41 116.996 1287.31 Q114.659 1285.2 110.654 1285.2 Q108.779 1285.2 106.904 1285.62 Q105.052 1286.03 103.108 1286.91 L103.108 1269.55 Z" fill="#000000" fill-rule="evenodd" fill-opacity="1" /><path clip-path="url(#clip020)" d="M 0 0 M74.9365 925.974 Q71.3254 925.974 69.4967 929.539 Q67.6912 933.08 67.6912 940.21 Q67.6912 947.316 69.4967 950.881 Q71.3254 954.423 74.9365 954.423 Q78.5707 954.423 80.3763 950.881 Q82.205 947.316 82.205 940.21 Q82.205 933.08 80.3763 929.539 Q78.5707 925.974 74.9365 925.974 M74.9365 922.27 Q80.7467 922.27 83.8022 926.877 Q86.8809 931.46 86.8809 940.21 Q86.8809 948.937 83.8022 953.543 Q80.7467 958.126 74.9365 958.126 Q69.1264 958.126 66.0477 953.543 Q62.9921 948.937 62.9921 940.21 Q62.9921 931.46 66.0477 926.877 Q69.1264 922.27 74.9365 922.27 Z" fill="#000000" fill-rule="evenodd" fill-opacity="1" /><path clip-path="url(#clip020)" d="M 0 0 M91.9503 951.575 L96.8345 951.575 L96.8345 957.455 L91.9503 957.455 L91.9503 951.575 Z" fill="#000000" fill-rule="evenodd" fill-opacity="1" /><path clip-path="url(#clip020)" d="M 0 0 M112.483 938.312 Q109.334 938.312 107.483 940.464 Q105.654 942.617 105.654 946.367 Q105.654 950.094 107.483 952.27 Q109.334 954.423 112.483 954.423 Q115.631 954.423 117.459 952.27 Q119.311 950.094 119.311 946.367 Q119.311 942.617 117.459 940.464 Q115.631 938.312 112.483 938.312 M121.765 923.659 L121.765 927.918 Q120.006 927.085 118.2 926.645 Q116.418 926.205 114.659 926.205 Q110.029 926.205 107.575 929.33 Q105.145 932.455 104.797 938.775 Q106.163 936.761 108.223 935.696 Q110.284 934.608 112.76 934.608 Q117.969 934.608 120.978 937.779 Q124.01 940.927 124.01 946.367 Q124.01 951.691 120.862 954.909 Q117.714 958.126 112.483 958.126 Q106.487 958.126 103.316 953.543 Q100.145 948.937 100.145 940.21 Q100.145 932.015 104.034 927.154 Q107.922 922.27 114.473 922.27 Q116.233 922.27 118.015 922.617 Q119.821 922.964 121.765 923.659 Z" fill="#000000" fill-rule="evenodd" fill-opacity="1" /><path clip-path="url(#clip020)" d="M 0 0 M76.0013 579.316 Q72.3902 579.316 70.5615 582.88 Q68.756 586.422 68.756 593.552 Q68.756 600.658 70.5615 604.223 Q72.3902 607.765 76.0013 607.765 Q79.6356 607.765 81.4411 604.223 Q83.2698 600.658 83.2698 593.552 Q83.2698 586.422 81.4411 582.88 Q79.6356 579.316 76.0013 579.316 M76.0013 575.612 Q81.8115 575.612 84.867 580.218 Q87.9457 584.802 87.9457 593.552 Q87.9457 602.278 84.867 606.885 Q81.8115 611.468 76.0013 611.468 Q70.1912 611.468 67.1125 606.885 Q64.0569 602.278 64.0569 593.552 Q64.0569 584.802 67.1125 580.218 Q70.1912 575.612 76.0013 575.612 Z" fill="#000000" fill-rule="evenodd" fill-opacity="1" /><path clip-path="url(#clip020)" d="M 0 0 M93.0151 604.917 L97.8993 604.917 L97.8993 610.797 L93.0151 610.797 L93.0151 604.917 Z" fill="#000000" fill-rule="evenodd" fill-opacity="1" /><path clip-path="url(#clip020)" d="M 0 0 M101.788 576.237 L124.01 576.237 L124.01 578.228 L111.464 610.797 L106.58 610.797 L118.385 580.172 L101.788 580.172 L101.788 576.237 Z" fill="#000000" fill-rule="evenodd" fill-opacity="1" /><path clip-path="url(#clip020)" d="M 0 0 M75.1911 232.658 Q71.58 232.658 69.7513 236.222 Q67.9458 239.764 67.9458 246.894 Q67.9458 254 69.7513 257.565 Q71.58 261.106 75.1911 261.106 Q78.8254 261.106 80.6309 257.565 Q82.4596 254 82.4596 246.894 Q82.4596 239.764 80.6309 236.222 Q78.8254 232.658 75.1911 232.658 M75.1911 228.954 Q81.0013 228.954 84.0568 233.56 Q87.1355 238.144 87.1355 246.894 Q87.1355 255.62 84.0568 260.227 Q81.0013 264.81 75.1911 264.81 Q69.381 264.81 66.3023 260.227 Q63.2468 255.62 63.2468 246.894 Q63.2468 238.144 66.3023 233.56 Q69.381 228.954 75.1911 228.954 Z" fill="#000000" fill-rule="evenodd" fill-opacity="1" /><path clip-path="url(#clip020)" d="M 0 0 M92.2049 258.259 L97.0892 258.259 L97.0892 264.139 L92.2049 264.139 L92.2049 258.259 Z" fill="#000000" fill-rule="evenodd" fill-opacity="1" /><path clip-path="url(#clip020)" d="M 0 0 M112.159 247.727 Q108.825 247.727 106.904 249.509 Q105.006 251.292 105.006 254.417 Q105.006 257.542 106.904 259.324 Q108.825 261.106 112.159 261.106 Q115.492 261.106 117.413 259.324 Q119.334 257.518 119.334 254.417 Q119.334 251.292 117.413 249.509 Q115.515 247.727 112.159 247.727 M107.483 245.736 Q104.473 244.995 102.784 242.935 Q101.117 240.875 101.117 237.912 Q101.117 233.769 104.057 231.361 Q107.02 228.954 112.159 228.954 Q117.321 228.954 120.26 231.361 Q123.2 233.769 123.2 237.912 Q123.2 240.875 121.51 242.935 Q119.844 244.995 116.858 245.736 Q120.237 246.523 122.112 248.815 Q124.01 251.106 124.01 254.417 Q124.01 259.44 120.932 262.125 Q117.876 264.81 112.159 264.81 Q106.441 264.81 103.362 262.125 Q100.307 259.44 100.307 254.417 Q100.307 251.106 102.205 248.815 Q104.103 246.523 107.483 245.736 M105.77 238.352 Q105.77 241.037 107.436 242.542 Q109.126 244.046 112.159 244.046 Q115.168 244.046 116.858 242.542 Q118.571 241.037 118.571 238.352 Q118.571 235.667 116.858 234.162 Q115.168 232.658 112.159 232.658 Q109.126 232.658 107.436 234.162 Q105.77 235.667 105.77 238.352 Z" fill="#000000" fill-rule="evenodd" fill-opacity="1" /><path clip-path="url(#clip022)" d="
M210.409 246.859 L2290.36 940.175 L210.409 1286.83 L210.409 246.859  Z
  " fill="#008000" fill-rule="evenodd" fill-opacity="0.2"/>
<polyline clip-path="url(#clip022)" style="stroke:#000000; stroke-width:4; stroke-opacity:1; fill:none" points="
  210.409,246.859 2290.36,940.175 210.409,1286.83 210.409,246.859 
  "/>
<polyline clip-path="url(#clip022)" style="stroke:#ffa500; stroke-width:4; stroke-opacity:1; fill:none" points="
  1250.38,593.517 210.409,1286.83 
  "/>
<polyline clip-path="url(#clip022)" style="stroke:#ffa500; stroke-width:4; stroke-opacity:1; fill:none" points="
  210.409,766.846 2290.36,940.175 
  "/>
<polyline clip-path="url(#clip022)" style="stroke:#ffa500; stroke-width:4; stroke-opacity:1; fill:none" points="
  1250.38,1113.5 210.409,246.859 
  "/>
<circle clip-path="url(#clip022)" cx="210.409" cy="246.859" r="14" fill="#ff0000" fill-rule="evenodd" fill-opacity="1" stroke="#000000" stroke-opacity="1" stroke-width="3.2"/>
<circle clip-path="url(#clip022)" cx="2290.36" cy="940.175" r="14" fill="#ff0000" fill-rule="evenodd" fill-opacity="1" stroke="#000000" stroke-opacity="1" stroke-width="3.2"/>
<circle clip-path="url(#clip022)" cx="210.409" cy="1286.83" r="14" fill="#ff0000" fill-rule="evenodd" fill-opacity="1" stroke="#000000" stroke-opacity="1" stroke-width="3.2"/>
<circle clip-path="url(#clip022)" cx="903.725" cy="824.622" r="14" fill="#008000" fill-rule="evenodd" fill-opacity="1" stroke="#000000" stroke-opacity="1" stroke-width="3.2"/>
<path clip-path="url(#clip020)" d="M 0 0 M210.409 176.296 L199.309 206.394 L221.549 206.394 L210.409 176.296 M205.791 168.235 L215.067 168.235 L238.117 228.715 L229.61 228.715 L224.101 213.2 L196.838 213.2 L191.329 228.715 L182.701 228.715 L205.791 168.235 Z" fill="#000000" fill-rule="evenodd" fill-opacity="1" /><path clip-path="url(#clip020)" d="M 0 0 M2277.09 893.148 L2277.09 915.307 L2290.22 915.307 Q2296.82 915.307 2299.98 912.592 Q2303.18 909.838 2303.18 904.207 Q2303.18 898.536 2299.98 895.862 Q2296.82 893.148 2290.22 893.148 L2277.09 893.148 M2277.09 868.276 L2277.09 886.505 L2289.2 886.505 Q2295.2 886.505 2298.11 884.277 Q2301.07 882.008 2301.07 877.39 Q2301.07 872.813 2298.11 870.544 Q2295.2 868.276 2289.2 868.276 L2277.09 868.276 M2268.91 861.551 L2289.81 861.551 Q2299.17 861.551 2304.23 865.44 Q2309.3 869.329 2309.3 876.499 Q2309.3 882.049 2306.7 885.33 Q2304.11 888.611 2299.09 889.421 Q2305.12 890.718 2308.44 894.849 Q2311.81 898.941 2311.81 905.098 Q2311.81 913.2 2306.3 917.616 Q2300.79 922.031 2290.62 922.031 L2268.91 922.031 L2268.91 861.551 Z" fill="#000000" fill-rule="evenodd" fill-opacity="1" /><path clip-path="url(#clip020)" d="M 0 0 M234.795 1212.87 L234.795 1221.5 Q230.663 1217.65 225.964 1215.74 Q221.306 1213.84 216.04 1213.84 Q205.669 1213.84 200.16 1220.2 Q194.651 1226.52 194.651 1238.51 Q194.651 1250.46 200.16 1256.82 Q205.669 1263.14 216.04 1263.14 Q221.306 1263.14 225.964 1261.24 Q230.663 1259.33 234.795 1255.48 L234.795 1264.03 Q230.501 1266.95 225.681 1268.41 Q220.901 1269.86 215.553 1269.86 Q201.821 1269.86 193.922 1261.48 Q186.022 1253.05 186.022 1238.51 Q186.022 1223.93 193.922 1215.54 Q201.821 1207.12 215.553 1207.12 Q220.982 1207.12 225.762 1208.57 Q230.582 1209.99 234.795 1212.87 Z" fill="#000000" fill-rule="evenodd" fill-opacity="1" /><path clip-path="url(#clip020)" d="M 0 0 M882.336 762.85 L882.336 769.818 Q879.177 768.076 875.976 767.225 Q872.817 766.334 869.576 766.334 Q862.325 766.334 858.314 770.952 Q854.304 775.529 854.304 783.834 Q854.304 792.138 858.314 796.756 Q862.325 801.334 869.576 801.334 Q872.817 801.334 875.976 800.483 Q879.177 799.592 882.336 797.85 L882.336 804.736 Q879.217 806.195 875.855 806.924 Q872.533 807.653 868.766 807.653 Q858.517 807.653 852.481 801.212 Q846.445 794.771 846.445 783.834 Q846.445 772.734 852.522 766.374 Q858.638 760.014 869.252 760.014 Q872.695 760.014 875.976 760.744 Q879.258 761.432 882.336 762.85 Z" fill="#000000" fill-rule="evenodd" fill-opacity="1" /><path clip-path="url(#clip020)" d="M 0 0 M897.365 799.673 L897.365 823.735 L889.871 823.735 L889.871 761.108 L897.365 761.108 L897.365 767.995 Q899.715 763.944 903.279 761.999 Q906.885 760.014 911.867 760.014 Q920.131 760.014 925.276 766.577 Q930.461 773.139 930.461 783.834 Q930.461 794.528 925.276 801.091 Q920.131 807.653 911.867 807.653 Q906.885 807.653 903.279 805.709 Q899.715 803.724 897.365 799.673 M922.724 783.834 Q922.724 775.61 919.321 770.952 Q915.959 766.253 910.044 766.253 Q904.13 766.253 900.727 770.952 Q897.365 775.61 897.365 783.834 Q897.365 792.057 900.727 796.756 Q904.13 801.415 910.044 801.415 Q915.959 801.415 919.321 796.756 Q922.724 792.057 922.724 783.834 Z" fill="#000000" fill-rule="evenodd" fill-opacity="1" /><path clip-path="url(#clip020)" d="M 0 0 M945.652 748.226 L945.652 761.108 L961.005 761.108 L961.005 766.901 L945.652 766.901 L945.652 791.53 Q945.652 797.08 947.151 798.66 Q948.69 800.24 953.349 800.24 L961.005 800.24 L961.005 806.478 L953.349 806.478 Q944.72 806.478 941.439 803.278 Q938.158 800.037 938.158 791.53 L938.158 766.901 L932.689 766.901 L932.689 761.108 L938.158 761.108 L938.158 748.226 L945.652 748.226 Z" fill="#000000" fill-rule="evenodd" fill-opacity="1" /></svg>
