<?xml version="1.0" encoding="utf-8"?>
<svg xmlns="http://www.w3.org/2000/svg" xmlns:xlink="http://www.w3.org/1999/xlink" width="600" height="400" viewBox="0 0 2400 1600">
<defs>
  <clipPath id="clip100">
    <rect x="0" y="0" width="2400" height="1600"/>
  </clipPath>
</defs>
<path clip-path="url(#clip100)" d="
M0 1600 L2400 1600 L2400 0 L0 0  Z
  " fill="#ffffff" fill-rule="evenodd" fill-opacity="1"/>
<defs>
  <clipPath id="clip101">
    <rect x="480" y="0" width="1681" height="1600"/>
  </clipPath>
</defs>
<path clip-path="url(#clip100)" d="
M148.334 1486.45 L2352.76 1486.45 L2352.76 47.2441 L148.334 47.2441  Z
  " fill="#ffffff" fill-rule="evenodd" fill-opacity="1"/>
<defs>
  <clipPath id="clip102">
    <rect x="148" y="47" width="2205" height="1440"/>
  </clipPath>
</defs>
<polyline clip-path="url(#clip102)" style="stroke:#000000; stroke-width:2; stroke-opacity:0.1; fill:none" points="
  280.731,1486.45 280.731,47.2441 
  "/>
<polyline clip-path="url(#clip102)" style="stroke:#000000; stroke-width:2; stroke-opacity:0.1; fill:none" points="
  765.638,1486.45 765.638,47.2441 
  "/>
<polyline clip-path="url(#clip102)" style="stroke:#000000; stroke-width:2; stroke-opacity:0.1; fill:none" points="
  1250.55,1486.45 1250.55,47.2441 
  "/>
<polyline clip-path="url(#clip102)" style="stroke:#000000; stroke-width:2; stroke-opacity:0.1; fill:none" points="
  1735.45,1486.45 1735.45,47.2441 
  "/>
<polyline clip-path="url(#clip102)" style="stroke:#000000; stroke-width:2; stroke-opacity:0.1; fill:none" points="
  2220.36,1486.45 2220.36,47.2441 
  "/>
<polyline clip-path="url(#clip102)" style="stroke:#000000; stroke-width:2; stroke-opacity:0.1; fill:none" points="
  148.334,1251.75 2352.76,1251.75 
  "/>
<polyline clip-path="url(#clip102)" style="stroke:#000000; stroke-width:2; stroke-opacity:0.1; fill:none" points="
  148.334,863.827 2352.76,863.827 
  "/>
<polyline clip-path="url(#clip102)" style="stroke:#000000; stroke-width:2; stroke-opacity:0.1; fill:none" points="
  148.334,475.902 2352.76,475.902 
  "/>
<polyline clip-path="url(#clip102)" style="stroke:#000000; stroke-width:2; stroke-opacity:0.1; fill:none" points="
  148.334,87.9763 2352.76,87.9763 
  "/>
<polyline clip-path="url(#clip100)" style="stroke:#000000; stroke-width:4; stroke-opacity:1; fill:none" points="
  148.334,1486.45 2352.76,1486.45 
  "/>
<polyline clip-path="url(#clip100)" style="stroke:#000000; stroke-width:4; stroke-opacity:1; fill:none" points="
  148.334,1486.45 148.334,47.2441 
  "/>
<polyline clip-path="url(#clip100)" style="stroke:#000000; stroke-width:4; stroke-opacity:1; fill:none" points="
  280.731,1486.45 280.731,1469.18 
  "/>
<polyline clip-path="url(#clip100)" style="stroke:#000000; stroke-width:4; stroke-opacity:1; fill:none" points="
  765.638,1486.45 765.638,1469.18 
  "/>
<polyline clip-path="url(#clip100)" style="stroke:#000000; stroke-width:4; stroke-opacity:1; fill:none" points="
  1250.55,1486.45 1250.55,1469.18 
  "/>
<polyline clip-path="url(#clip100)" style="stroke:#000000; stroke-width:4; stroke-opacity:1; fill:none" points="
  1735.45,1486.45 1735.45,1469.18 
  "/>
<polyline clip-path="url(#clip100)" style="stroke:#000000; stroke-width:4; stroke-opacity:1; fill:none" points="
  2220.36,1486.45 2220.36,1469.18 
  "/>
<polyline clip-path="url(#clip100)" style="stroke:#000000; stroke-width:4; stroke-opacity:1; fill:none" points="
  148.334,1251.75 174.787,1251.75 
  "/>
<polyline clip-path="url(#clip100)" style="stroke:#000000; stroke-width:4; stroke-opacity:1; fill:none" points="
  148.334,863.827 174.787,863.827 
  "/>
<polyline clip-path="url(#clip100)" style="stroke:#000000; stroke-width:4; stroke-opacity:1; fill:none" points="
  148.334,475.902 174.787,475.902 
  "/>
<polyline clip-path="url(#clip100)" style="stroke:#000000; stroke-width:4; stroke-opacity:1; fill:none" points="
  148.334,87.9763 174.787,87.9763 
  "/>
<path clip-path="url(#clip100)" d="M 0 0 M248.741 1508.44 Q245.13 1508.44 243.301 1512 Q241.495 1515.55 241.495 1522.67 Q241.495 1529.78 243.301 1533.35 Q245.13 1536.89 248.741 1536.89 Q252.375 1536.89 254.18 1533.35 Q256.009 1529.78 256.009 1522.67 Q256.009 1515.55 254.18 1512 Q252.375 1508.44 248.741 1508.44 M248.741 1504.73 Q254.551 1504.73 257.606 1509.34 Q260.685 1513.92 260.685 1522.67 Q260.685 1531.4 257.606 1536.01 Q254.551 1540.59 248.741 1540.59 Q242.931 1540.59 239.852 1536.01 Q236.796 1531.4 236.796 1522.67 Q236.796 1513.92 239.852 1509.34 Q242.931 1504.73 248.741 1504.73 Z" fill="#000000" fill-rule="evenodd" fill-opacity="1" /><path clip-path="url(#clip100)" d="M 0 0 M265.755 1534.04 L270.639 1534.04 L270.639 1539.92 L265.755 1539.92 L265.755 1534.04 Z" fill="#000000" fill-rule="evenodd" fill-opacity="1" /><path clip-path="url(#clip100)" d="M 0 0 M285.708 1508.44 Q282.097 1508.44 280.268 1512 Q278.463 1515.55 278.463 1522.67 Q278.463 1529.78 280.268 1533.35 Q282.097 1536.89 285.708 1536.89 Q289.342 1536.89 291.148 1533.35 Q292.977 1529.78 292.977 1522.67 Q292.977 1515.55 291.148 1512 Q289.342 1508.44 285.708 1508.44 M285.708 1504.73 Q291.518 1504.73 294.574 1509.34 Q297.652 1513.92 297.652 1522.67 Q297.652 1531.4 294.574 1536.01 Q291.518 1540.59 285.708 1540.59 Q279.898 1540.59 276.819 1536.01 Q273.764 1531.4 273.764 1522.67 Q273.764 1513.92 276.819 1509.34 Q279.898 1504.73 285.708 1504.73 Z" fill="#000000" fill-rule="evenodd" fill-opacity="1" /><path clip-path="url(#clip100)" d="M 0 0 M312.722 1508.44 Q309.111 1508.44 307.282 1512 Q305.477 1515.55 305.477 1522.67 Q305.477 1529.78 307.282 1533.35 Q309.111 1536.89 312.722 1536.89 Q316.356 1536.89 318.162 1533.35 Q319.99 1529.78 319.99 1522.67 Q319.99 1515.55 318.162 1512 Q316.356 1508.44 312.722 1508.44 M312.722 1504.73 Q318.532 1504.73 321.588 1509.34 Q324.666 1513.92 324.666 1522.67 Q324.666 1531.4 321.588 1536.01 Q318.532 1540.59 312.722 1540.59 Q306.912 1540.59 303.833 1536.01 Q300.777 1531.4 300.777 1522.67 Q300.777 1513.92 303.833 1509.34 Q306.912 1504.73 312.722 1504.73 Z" fill="#000000" fill-rule="evenodd" fill-opacity="1" /><path clip-path="url(#clip100)" d="M 0 0 M734.944 1508.44 Q731.333 1508.44 729.504 1512 Q727.699 1515.55 727.699 1522.67 Q727.699 1529.78 729.504 1533.35 Q731.333 1536.89 734.944 1536.89 Q738.578 1536.89 740.384 1533.35 Q742.212 1529.78 742.212 1522.67 Q742.212 1515.55 740.384 1512 Q738.578 1508.44 734.944 1508.44 M734.944 1504.73 Q740.754 1504.73 743.81 1509.34 Q746.888 1513.92 746.888 1522.67 Q746.888 1531.4 743.81 1536.01 Q740.754 1540.59 734.944 1540.59 Q729.134 1540.59 726.055 1536.01 Q723 1531.4 723 1522.67 Q723 1513.92 726.055 1509.34 Q729.134 1504.73 734.944 1504.73 Z" fill="#000000" fill-rule="evenodd" fill-opacity="1" /><path clip-path="url(#clip100)" d="M 0 0 M751.958 1534.04 L756.842 1534.04 L756.842 1539.92 L751.958 1539.92 L751.958 1534.04 Z" fill="#000000" fill-rule="evenodd" fill-opacity="1" /><path clip-path="url(#clip100)" d="M 0 0 M765.939 1535.98 L782.258 1535.98 L782.258 1539.92 L760.314 1539.92 L760.314 1535.98 Q762.976 1533.23 767.559 1528.6 Q772.166 1523.95 773.347 1522.61 Q775.592 1520.08 776.471 1518.35 Q777.374 1516.59 777.374 1514.9 Q777.374 1512.14 775.43 1510.41 Q773.509 1508.67 770.407 1508.67 Q768.208 1508.67 765.754 1509.43 Q763.323 1510.2 760.546 1511.75 L760.546 1507.03 Q763.37 1505.89 765.823 1505.31 Q768.277 1504.73 770.314 1504.73 Q775.684 1504.73 778.879 1507.42 Q782.073 1510.11 782.073 1514.6 Q782.073 1516.73 781.263 1518.65 Q780.476 1520.54 778.37 1523.14 Q777.791 1523.81 774.689 1527.03 Q771.587 1530.22 765.939 1535.98 Z" fill="#000000" fill-rule="evenodd" fill-opacity="1" /><path clip-path="url(#clip100)" d="M 0 0 M787.374 1505.36 L805.731 1505.36 L805.731 1509.3 L791.657 1509.3 L791.657 1517.77 Q792.675 1517.42 793.694 1517.26 Q794.712 1517.07 795.731 1517.07 Q801.518 1517.07 804.897 1520.24 Q808.277 1523.42 808.277 1528.83 Q808.277 1534.41 804.805 1537.51 Q801.332 1540.59 795.013 1540.59 Q792.837 1540.59 790.569 1540.22 Q788.323 1539.85 785.916 1539.11 L785.916 1534.41 Q787.999 1535.54 790.221 1536.1 Q792.444 1536.66 794.92 1536.66 Q798.925 1536.66 801.263 1534.55 Q803.601 1532.44 803.601 1528.83 Q803.601 1525.22 801.263 1523.11 Q798.925 1521.01 794.92 1521.01 Q793.045 1521.01 791.17 1521.42 Q789.319 1521.84 787.374 1522.72 L787.374 1505.36 Z" fill="#000000" fill-rule="evenodd" fill-opacity="1" /><path clip-path="url(#clip100)" d="M 0 0 M1219.05 1508.44 Q1215.44 1508.44 1213.61 1512 Q1211.81 1515.55 1211.81 1522.67 Q1211.81 1529.78 1213.61 1533.35 Q1215.44 1536.89 1219.05 1536.89 Q1222.69 1536.89 1224.49 1533.35 Q1226.32 1529.78 1226.32 1522.67 Q1226.32 1515.55 1224.49 1512 Q1222.69 1508.44 1219.05 1508.44 M1219.05 1504.73 Q1224.86 1504.73 1227.92 1509.34 Q1231 1513.92 1231 1522.67 Q1231 1531.4 1227.92 1536.01 Q1224.86 1540.59 1219.05 1540.59 Q1213.24 1540.59 1210.16 1536.01 Q1207.11 1531.4 1207.11 1522.67 Q1207.11 1513.92 1210.16 1509.34 Q1213.24 1504.73 1219.05 1504.73 Z" fill="#000000" fill-rule="evenodd" fill-opacity="1" /><path clip-path="url(#clip100)" d="M 0 0 M1236.07 1534.04 L1240.95 1534.04 L1240.95 1539.92 L1236.07 1539.92 L1236.07 1534.04 Z" fill="#000000" fill-rule="evenodd" fill-opacity="1" /><path clip-path="url(#clip100)" d="M 0 0 M1246.07 1505.36 L1264.42 1505.36 L1264.42 1509.3 L1250.35 1509.3 L1250.35 1517.77 Q1251.37 1517.42 1252.39 1517.26 Q1253.4 1517.07 1254.42 1517.07 Q1260.21 1517.07 1263.59 1520.24 Q1266.97 1523.42 1266.97 1528.83 Q1266.97 1534.41 1263.5 1537.51 Q1260.02 1540.59 1253.7 1540.59 Q1251.53 1540.59 1249.26 1540.22 Q1247.02 1539.85 1244.61 1539.11 L1244.61 1534.41 Q1246.69 1535.54 1248.91 1536.1 Q1251.14 1536.66 1253.61 1536.66 Q1257.62 1536.66 1259.95 1534.55 Q1262.29 1532.44 1262.29 1528.83 Q1262.29 1525.22 1259.95 1523.11 Q1257.62 1521.01 1253.61 1521.01 Q1251.74 1521.01 1249.86 1521.42 Q1248.01 1521.84 1246.07 1522.72 L1246.07 1505.36 Z" fill="#000000" fill-rule="evenodd" fill-opacity="1" /><path clip-path="url(#clip100)" d="M 0 0 M1282.04 1508.44 Q1278.43 1508.44 1276.6 1512 Q1274.79 1515.55 1274.79 1522.67 Q1274.79 1529.78 1276.6 1533.35 Q1278.43 1536.89 1282.04 1536.89 Q1285.67 1536.89 1287.48 1533.35 Q1289.31 1529.78 1289.31 1522.67 Q1289.31 1515.55 1287.48 1512 Q1285.67 1508.44 1282.04 1508.44 M1282.04 1504.73 Q1287.85 1504.73 1290.9 1509.34 Q1293.98 1513.92 1293.98 1522.67 Q1293.98 1531.4 1290.9 1536.01 Q1287.85 1540.59 1282.04 1540.59 Q1276.23 1540.59 1273.15 1536.01 Q1270.09 1531.4 1270.09 1522.67 Q1270.09 1513.92 1273.15 1509.34 Q1276.23 1504.73 1282.04 1504.73 Z" fill="#000000" fill-rule="evenodd" fill-opacity="1" /><path clip-path="url(#clip100)" d="M 0 0 M1704.41 1508.44 Q1700.8 1508.44 1698.97 1512 Q1697.17 1515.55 1697.17 1522.67 Q1697.17 1529.78 1698.97 1533.35 Q1700.8 1536.89 1704.41 1536.89 Q1708.04 1536.89 1709.85 1533.35 Q1711.68 1529.78 1711.68 1522.67 Q1711.68 1515.55 1709.85 1512 Q1708.04 1508.44 1704.41 1508.44 M1704.41 1504.73 Q1710.22 1504.73 1713.28 1509.34 Q1716.35 1513.92 1716.35 1522.67 Q1716.35 1531.4 1713.28 1536.01 Q1710.22 1540.59 1704.41 1540.59 Q1698.6 1540.59 1695.52 1536.01 Q1692.47 1531.4 1692.47 1522.67 Q1692.47 1513.92 1695.52 1509.34 Q1698.6 1504.73 1704.41 1504.73 Z" fill="#000000" fill-rule="evenodd" fill-opacity="1" /><path clip-path="url(#clip100)" d="M 0 0 M1721.42 1534.04 L1726.31 1534.04 L1726.31 1539.92 L1721.42 1539.92 L1721.42 1534.04 Z" fill="#000000" fill-rule="evenodd" fill-opacity="1" /><path clip-path="url(#clip100)" d="M 0 0 M1730.2 1505.36 L1752.42 1505.36 L1752.42 1507.35 L1739.87 1539.92 L1734.99 1539.92 L1746.79 1509.3 L1730.2 1509.3 L1730.2 1505.36 Z" fill="#000000" fill-rule="evenodd" fill-opacity="1" /><path clip-path="url(#clip100)" d="M 0 0 M1757.54 1505.36 L1775.89 1505.36 L1775.89 1509.3 L1761.82 1509.3 L1761.82 1517.77 Q1762.84 1517.42 1763.85 1517.26 Q1764.87 1517.07 1765.89 1517.07 Q1771.68 1517.07 1775.06 1520.24 Q1778.44 1523.42 1778.44 1528.83 Q1778.44 1534.41 1774.97 1537.51 Q1771.49 1540.59 1765.17 1540.59 Q1763 1540.59 1760.73 1540.22 Q1758.48 1539.85 1756.08 1539.11 L1756.08 1534.41 Q1758.16 1535.54 1760.38 1536.1 Q1762.6 1536.66 1765.08 1536.66 Q1769.09 1536.66 1771.42 1534.55 Q1773.76 1532.44 1773.76 1528.83 Q1773.76 1525.22 1771.42 1523.11 Q1769.09 1521.01 1765.08 1521.01 Q1763.21 1521.01 1761.33 1521.42 Q1759.48 1521.84 1757.54 1522.72 L1757.54 1505.36 Z" fill="#000000" fill-rule="evenodd" fill-opacity="1" /><path clip-path="url(#clip100)" d="M 0 0 M2178.75 1535.98 L2186.39 1535.98 L2186.39 1509.62 L2178.08 1511.29 L2178.08 1507.03 L2186.34 1505.36 L2191.02 1505.36 L2191.02 1535.98 L2198.66 1535.98 L2198.66 1539.92 L2178.75 1539.92 L2178.75 1535.98 Z" fill="#000000" fill-rule="evenodd" fill-opacity="1" /><path clip-path="url(#clip100)" d="M 0 0 M2203.73 1534.04 L2208.61 1534.04 L2208.61 1539.92 L2203.73 1539.92 L2203.73 1534.04 Z" fill="#000000" fill-rule="evenodd" fill-opacity="1" /><path clip-path="url(#clip100)" d="M 0 0 M2223.68 1508.44 Q2220.07 1508.44 2218.24 1512 Q2216.44 1515.55 2216.44 1522.67 Q2216.44 1529.78 2218.24 1533.35 Q2220.07 1536.89 2223.68 1536.89 Q2227.31 1536.89 2229.12 1533.35 Q2230.95 1529.78 2230.95 1522.67 Q2230.95 1515.55 2229.12 1512 Q2227.31 1508.44 2223.68 1508.44 M2223.68 1504.73 Q2229.49 1504.73 2232.55 1509.34 Q2235.63 1513.92 2235.63 1522.67 Q2235.63 1531.4 2232.55 1536.01 Q2229.49 1540.59 2223.68 1540.59 Q2217.87 1540.59 2214.79 1536.01 Q2211.74 1531.4 2211.74 1522.67 Q2211.74 1513.92 2214.79 1509.34 Q2217.87 1504.73 2223.68 1504.73 Z" fill="#000000" fill-rule="evenodd" fill-opacity="1" /><path clip-path="url(#clip100)" d="M 0 0 M2250.69 1508.44 Q2247.08 1508.44 2245.25 1512 Q2243.45 1515.55 2243.45 1522.67 Q2243.45 1529.78 2245.25 1533.35 Q2247.08 1536.89 2250.69 1536.89 Q2254.33 1536.89 2256.13 1533.35 Q2257.96 1529.78 2257.96 1522.67 Q2257.96 1515.55 2256.13 1512 Q2254.33 1508.44 2250.69 1508.44 M2250.69 1504.73 Q2256.5 1504.73 2259.56 1509.34 Q2262.64 1513.92 2262.64 1522.67 Q2262.64 1531.4 2259.56 1536.01 Q2256.5 1540.59 2250.69 1540.59 Q2244.88 1540.59 2241.81 1536.01 Q2238.75 1531.4 2238.75 1522.67 Q2238.75 1513.92 2241.81 1509.34 Q2244.88 1504.73 2250.69 1504.73 Z" fill="#000000" fill-rule="evenodd" fill-opacity="1" /><path clip-path="url(#clip100)" d="M 0 0 M74.9365 1237.55 Q71.3254 1237.55 69.4967 1241.12 Q67.6912 1244.66 67.6912 1251.79 Q67.6912 1258.89 69.4967 1262.46 Q71.3254 1266 74.9365 1266 Q78.5707 1266 80.3763 1262.46 Q82.205 1258.89 82.205 1251.79 Q82.205 1244.66 80.3763 1241.12 Q78.5707 1237.55 74.9365 1237.55 M74.9365 1233.85 Q80.7467 1233.85 83.8022 1238.45 Q86.8809 1243.04 86.8809 1251.79 Q86.8809 1260.51 83.8022 1265.12 Q80.7467 1269.7 74.9365 1269.7 Q69.1264 1269.7 66.0477 1265.12 Q62.9921 1260.51 62.9921 1251.79 Q62.9921 1243.04 66.0477 1238.45 Q69.1264 1233.85 74.9365 1233.85 Z" fill="#000000" fill-rule="evenodd" fill-opacity="1" /><path clip-path="url(#clip100)" d="M 0 0 M91.9503 1263.15 L96.8345 1263.15 L96.8345 1269.03 L91.9503 1269.03 L91.9503 1263.15 Z" fill="#000000" fill-rule="evenodd" fill-opacity="1" /><path clip-path="url(#clip100)" d="M 0 0 M114.751 1238.55 L102.946 1257 L114.751 1257 L114.751 1238.55 M113.524 1234.47 L119.404 1234.47 L119.404 1257 L124.334 1257 L124.334 1260.88 L119.404 1260.88 L119.404 1269.03 L114.751 1269.03 L114.751 1260.88 L99.1493 1260.88 L99.1493 1256.37 L113.524 1234.47 Z" fill="#000000" fill-rule="evenodd" fill-opacity="1" /><path clip-path="url(#clip100)" d="M 0 0 M75.2606 849.626 Q71.6495 849.626 69.8208 853.191 Q68.0152 856.733 68.0152 863.862 Q68.0152 870.969 69.8208 874.533 Q71.6495 878.075 75.2606 878.075 Q78.8948 878.075 80.7004 874.533 Q82.5291 870.969 82.5291 863.862 Q82.5291 856.733 80.7004 853.191 Q78.8948 849.626 75.2606 849.626 M75.2606 845.922 Q81.0707 845.922 84.1263 850.529 Q87.205 855.112 87.205 863.862 Q87.205 872.589 84.1263 877.195 Q81.0707 881.779 75.2606 881.779 Q69.4504 881.779 66.3717 877.195 Q63.3162 872.589 63.3162 863.862 Q63.3162 855.112 66.3717 850.529 Q69.4504 845.922 75.2606 845.922 Z" fill="#000000" fill-rule="evenodd" fill-opacity="1" /><path clip-path="url(#clip100)" d="M 0 0 M92.2744 875.228 L97.1586 875.228 L97.1586 881.107 L92.2744 881.107 L92.2744 875.228 Z" fill="#000000" fill-rule="evenodd" fill-opacity="1" /><path clip-path="url(#clip100)" d="M 0 0 M112.807 861.964 Q109.659 861.964 107.807 864.117 Q105.978 866.269 105.978 870.019 Q105.978 873.746 107.807 875.922 Q109.659 878.075 112.807 878.075 Q115.955 878.075 117.783 875.922 Q119.635 873.746 119.635 870.019 Q119.635 866.269 117.783 864.117 Q115.955 861.964 112.807 861.964 M122.089 847.311 L122.089 851.57 Q120.33 850.737 118.524 850.297 Q116.742 849.858 114.983 849.858 Q110.353 849.858 107.899 852.983 Q105.469 856.108 105.122 862.427 Q106.487 860.413 108.547 859.348 Q110.608 858.26 113.084 858.26 Q118.293 858.26 121.302 861.432 Q124.334 864.58 124.334 870.019 Q124.334 875.344 121.186 878.561 Q118.038 881.779 112.807 881.779 Q106.811 881.779 103.64 877.195 Q100.469 872.589 100.469 863.862 Q100.469 855.668 104.358 850.807 Q108.247 845.922 114.797 845.922 Q116.557 845.922 118.339 846.27 Q120.145 846.617 122.089 847.311 Z" fill="#000000" fill-rule="evenodd" fill-opacity="1" /><path clip-path="url(#clip100)" d="M 0 0 M75.5152 461.701 Q71.9041 461.701 70.0754 465.265 Q68.2699 468.807 68.2699 475.937 Q68.2699 483.043 70.0754 486.608 Q71.9041 490.149 75.5152 490.149 Q79.1494 490.149 80.955 486.608 Q82.7837 483.043 82.7837 475.937 Q82.7837 468.807 80.955 465.265 Q79.1494 461.701 75.5152 461.701 M75.5152 457.997 Q81.3254 457.997 84.3809 462.603 Q87.4596 467.187 87.4596 475.937 Q87.4596 484.663 84.3809 489.27 Q81.3254 493.853 75.5152 493.853 Q69.7051 493.853 66.6264 489.27 Q63.5708 484.663 63.5708 475.937 Q63.5708 467.187 66.6264 462.603 Q69.7051 457.997 75.5152 457.997 Z" fill="#000000" fill-rule="evenodd" fill-opacity="1" /><path clip-path="url(#clip100)" d="M 0 0 M92.529 487.302 L97.4132 487.302 L97.4132 493.182 L92.529 493.182 L92.529 487.302 Z" fill="#000000" fill-rule="evenodd" fill-opacity="1" /><path clip-path="url(#clip100)" d="M 0 0 M112.483 476.77 Q109.149 476.77 107.228 478.552 Q105.33 480.335 105.33 483.46 Q105.33 486.585 107.228 488.367 Q109.149 490.149 112.483 490.149 Q115.816 490.149 117.737 488.367 Q119.658 486.561 119.658 483.46 Q119.658 480.335 117.737 478.552 Q115.839 476.77 112.483 476.77 M107.807 474.779 Q104.797 474.038 103.108 471.978 Q101.441 469.918 101.441 466.955 Q101.441 462.812 104.381 460.404 Q107.344 457.997 112.483 457.997 Q117.645 457.997 120.584 460.404 Q123.524 462.812 123.524 466.955 Q123.524 469.918 121.834 471.978 Q120.168 474.038 117.182 474.779 Q120.561 475.566 122.436 477.858 Q124.334 480.149 124.334 483.46 Q124.334 488.483 121.256 491.168 Q118.2 493.853 112.483 493.853 Q106.765 493.853 103.686 491.168 Q100.631 488.483 100.631 483.46 Q100.631 480.149 102.529 477.858 Q104.427 475.566 107.807 474.779 M106.094 467.395 Q106.094 470.08 107.76 471.585 Q109.45 473.089 112.483 473.089 Q115.492 473.089 117.182 471.585 Q118.895 470.08 118.895 467.395 Q118.895 464.71 117.182 463.205 Q115.492 461.701 112.483 461.701 Q109.45 461.701 107.76 463.205 Q106.094 464.71 106.094 467.395 Z" fill="#000000" fill-rule="evenodd" fill-opacity="1" /><path clip-path="url(#clip100)" d="M 0 0 M67.4597 101.321 L75.0985 101.321 L75.0985 74.9555 L66.7884 76.6222 L66.7884 72.3629 L75.0522 70.6963 L79.7281 70.6963 L79.7281 101.321 L87.367 101.321 L87.367 105.256 L67.4597 105.256 L67.4597 101.321 Z" fill="#000000" fill-rule="evenodd" fill-opacity="1" /><path clip-path="url(#clip100)" d="M 0 0 M92.4364 99.3767 L97.3206 99.3767 L97.3206 105.256 L92.4364 105.256 L92.4364 99.3767 Z" fill="#000000" fill-rule="evenodd" fill-opacity="1" /><path clip-path="url(#clip100)" d="M 0 0 M112.39 73.775 Q108.779 73.775 106.95 77.3398 Q105.145 80.8814 105.145 88.011 Q105.145 95.1174 106.95 98.6822 Q108.779 102.224 112.39 102.224 Q116.024 102.224 117.83 98.6822 Q119.658 95.1174 119.658 88.011 Q119.658 80.8814 117.83 77.3398 Q116.024 73.775 112.39 73.775 M112.39 70.0713 Q118.2 70.0713 121.256 74.6777 Q124.334 79.261 124.334 88.011 Q124.334 96.7378 121.256 101.344 Q118.2 105.928 112.39 105.928 Q106.58 105.928 103.501 101.344 Q100.446 96.7378 100.446 88.011 Q100.446 79.261 103.501 74.6777 Q106.58 70.0713 112.39 70.0713 Z" fill="#000000" fill-rule="evenodd" fill-opacity="1" /><path clip-path="url(#clip102)" d="
M862.62 87.9763 L862.62 1445.72 L1638.47 1445.72 L862.62 87.9763  Z
  " fill="#008000" fill-rule="evenodd" fill-opacity="0.2"/>
<polyline clip-path="url(#clip102)" style="stroke:#000000; stroke-width:4; stroke-opacity:1; fill:none" points="
  862.62,87.9763 862.62,1445.72 1638.47,1445.72 862.62,87.9763 
  "/>
<polyline clip-path="url(#clip102)" style="stroke:#ffa500; stroke-width:4; stroke-opacity:1; fill:none" points="
  862.62,766.846 1638.47,1445.72 
  "/>
<polyline clip-path="url(#clip102)" style="stroke:#ffa500; stroke-width:4; stroke-opacity:1; fill:none" points="
  1250.55,766.846 862.62,1445.72 
  "/>
<polyline clip-path="url(#clip102)" style="stroke:#ffa500; stroke-width:4; stroke-opacity:1; fill:none" points="
  1250.55,1445.72 862.62,87.9763 
  "/>
<circle clip-path="url(#clip102)" cx="862.62" cy="87.9763" r="14" fill="#ff0000" fill-rule="evenodd" fill-opacity="1" stroke="#000000" stroke-opacity="1" stroke-width="3.2"/>
<circle clip-path="url(#clip102)" cx="862.62" cy="1445.72" r="14" fill="#ff0000" fill-rule="evenodd" fill-opacity="1" stroke="#000000" stroke-opacity="1" stroke-width="3.2"/>
<circle clip-path="url(#clip102)" cx="1638.47" cy="1445.72" r="14" fill="#ff0000" fill-rule="evenodd" fill-opacity="1" stroke="#000000" stroke-opacity="1" stroke-width="3.2"/>
<circle clip-path="url(#clip102)" cx="1121.24" cy="993.136" r="14" fill="#008000" fill-rule="evenodd" fill-opacity="1" stroke="#000000" stroke-opacity="1" stroke-width="3.2"/>
<path clip-path="url(#clip100)" d="M 0 0 M862.62 17.4136 L851.52 47.5118 L873.76 47.5118 L862.62 17.4136 M858.002 9.35228 L867.278 9.35228 L890.328 69.8323 L881.821 69.8323 L876.312 54.3173 L849.049 54.3173 L843.54 69.8323 L834.911 69.8323 L858.002 9.35228 Z" fill="#000000" fill-rule="evenodd" fill-opacity="1" /><path clip-path="url(#clip100)" d="M 0 0 M849.353 1398.69 L849.353 1420.85 L862.478 1420.85 Q869.081 1420.85 872.24 1418.13 Q875.441 1415.38 875.441 1409.75 Q875.441 1404.08 872.24 1401.4 Q869.081 1398.69 862.478 1398.69 L849.353 1398.69 M849.353 1373.82 L849.353 1392.05 L861.465 1392.05 Q867.46 1392.05 870.377 1389.82 Q873.334 1387.55 873.334 1382.93 Q873.334 1378.35 870.377 1376.08 Q867.46 1373.82 861.465 1373.82 L849.353 1373.82 M841.17 1367.09 L862.073 1367.09 Q871.43 1367.09 876.494 1370.98 Q881.558 1374.87 881.558 1382.04 Q881.558 1387.59 878.965 1390.87 Q876.372 1394.15 871.349 1394.96 Q877.385 1396.26 880.707 1400.39 Q884.069 1404.48 884.069 1410.64 Q884.069 1418.74 878.56 1423.16 Q873.051 1427.57 862.883 1427.57 L841.17 1427.57 L841.17 1367.09 Z" fill="#000000" fill-rule="evenodd" fill-opacity="1" /><path clip-path="url(#clip100)" d="M 0 0 M1662.86 1371.75 L1662.86 1380.38 Q1658.73 1376.53 1654.03 1374.63 Q1649.37 1372.72 1644.1 1372.72 Q1633.73 1372.72 1628.22 1379.08 Q1622.71 1385.4 1622.71 1397.39 Q1622.71 1409.34 1628.22 1415.7 Q1633.73 1422.02 1644.1 1422.02 Q1649.37 1422.02 1654.03 1420.12 Q1658.73 1418.21 1662.86 1414.37 L1662.86 1422.91 Q1658.56 1425.83 1653.74 1427.29 Q1648.96 1428.75 1643.62 1428.75 Q1629.88 1428.75 1621.98 1420.36 Q1614.08 1411.94 1614.08 1397.39 Q1614.08 1382.81 1621.98 1374.42 Q1629.88 1366 1643.62 1366 Q1649.04 1366 1653.82 1367.46 Q1658.64 1368.87 1662.86 1371.75 Z" fill="#000000" fill-rule="evenodd" fill-opacity="1" /><path clip-path="url(#clip100)" d="M 0 0 M1099.85 931.364 L1099.85 938.331 Q1096.69 936.589 1093.49 935.739 Q1090.33 934.847 1087.09 934.847 Q1079.84 934.847 1075.83 939.465 Q1071.82 944.043 1071.82 952.347 Q1071.82 960.652 1075.83 965.27 Q1079.84 969.847 1087.09 969.847 Q1090.33 969.847 1093.49 968.997 Q1096.69 968.105 1099.85 966.363 L1099.85 973.25 Q1096.73 974.708 1093.37 975.437 Q1090.04 976.167 1086.28 976.167 Q1076.03 976.167 1069.99 969.726 Q1063.96 963.285 1063.96 952.347 Q1063.96 941.248 1070.03 934.888 Q1076.15 928.528 1086.76 928.528 Q1090.21 928.528 1093.49 929.257 Q1096.77 929.946 1099.85 931.364 Z" fill="#000000" fill-rule="evenodd" fill-opacity="1" /><path clip-path="url(#clip100)" d="M 0 0 M1114.88 968.186 L1114.88 992.249 L1107.38 992.249 L1107.38 929.622 L1114.88 929.622 L1114.88 936.508 Q1117.23 932.457 1120.79 930.513 Q1124.4 928.528 1129.38 928.528 Q1137.64 928.528 1142.79 935.09 Q1147.97 941.653 1147.97 952.347 Q1147.97 963.042 1142.79 969.604 Q1137.64 976.167 1129.38 976.167 Q1124.4 976.167 1120.79 974.222 Q1117.23 972.237 1114.88 968.186 M1140.24 952.347 Q1140.24 944.124 1136.83 939.465 Q1133.47 934.766 1127.56 934.766 Q1121.64 934.766 1118.24 939.465 Q1114.88 944.124 1114.88 952.347 Q1114.88 960.571 1118.24 965.27 Q1121.64 969.928 1127.56 969.928 Q1133.47 969.928 1136.83 965.27 Q1140.24 960.571 1140.24 952.347 Z" fill="#000000" fill-rule="evenodd" fill-opacity="1" /><path clip-path="url(#clip100)" d="M 0 0 M1163.16 916.74 L1163.16 929.622 L1178.52 929.622 L1178.52 935.415 L1163.16 935.415 L1163.16 960.044 Q1163.16 965.594 1164.66 967.174 Q1166.2 968.753 1170.86 968.753 L1178.52 968.753 L1178.52 974.992 L1170.86 974.992 Q1162.23 974.992 1158.95 971.792 Q1155.67 968.551 1155.67 960.044 L1155.67 935.415 L1150.2 935.415 L1150.2 929.622 L1155.67 929.622 L1155.67 916.74 L1163.16 916.74 Z" fill="#000000" fill-rule="evenodd" fill-opacity="1" /></svg>
