<?xml version="1.0" encoding="utf-8"?>
<svg xmlns="http://www.w3.org/2000/svg" xmlns:xlink="http://www.w3.org/1999/xlink" width="600" height="400" viewBox="0 0 2400 1600">
<defs>
  <clipPath id="clip600">
    <rect x="0" y="0" width="2400" height="1600"/>
  </clipPath>
</defs>
<path clip-path="url(#clip600)" d="
M0 1600 L2400 1600 L2400 0 L0 0  Z
  " fill="#ffffff" fill-rule="evenodd" fill-opacity="1"/>
<defs>
  <clipPath id="clip601">
    <rect x="480" y="0" width="1681" height="1600"/>
  </clipPath>
</defs>
<path clip-path="url(#clip600)" d="
M148.334 1486.45 L2352.76 1486.45 L2352.76 47.2441 L148.334 47.2441  Z
  " fill="#ffffff" fill-rule="evenodd" fill-opacity="1"/>
<defs>
  <clipPath id="clip602">
    <rect x="148" y="47" width="2205" height="1440"/>
  </clipPath>
</defs>
<polyline clip-path="url(#clip602)" style="stroke:#000000; stroke-width:2; stroke-opacity:0.1; fill:none" points="
  420.816,1486.45 420.816,47.2441 
  "/>
<polyline clip-path="url(#clip602)" style="stroke:#000000; stroke-width:2; stroke-opacity:0.1; fill:none" points="
  722.535,1486.45 722.535,47.2441 
  "/>
<polyline clip-path="url(#clip602)" style="stroke:#000000; stroke-width:2; stroke-opacity:0.1; fill:none" points="
  1024.26,1486.45 1024.26,47.2441 
  "/>
<polyline clip-path="url(#clip602)" style="stroke:#000000; stroke-width:2; stroke-opacity:0.1; fill:none" points="
  1325.98,1486.45 1325.98,47.2441 
  "/>
<polyline clip-path="url(#clip602)" style="stroke:#000000; stroke-width:2; stroke-opacity:0.1; fill:none" points="
  1627.69,1486.45 1627.69,47.2441 
  "/>
<polyline clip-path="url(#clip602)" style="stroke:#000000; stroke-width:2; stroke-opacity:0.1; fill:none" points="
  1929.41,1486.45 1929.41,47.2441 
  "/>
<polyline clip-path="url(#clip602)" style="stroke:#000000; stroke-width:2; stroke-opacity:0.1; fill:none" points="
  2231.13,1486.45 2231.13,47.2441 
  "/>
<polyline clip-path="url(#clip602)" style="stroke:#000000; stroke-width:2; stroke-opacity:0.1; fill:none" points="
  148.334,1294.86 2352.76,1294.86 
  "/>
<polyline clip-path="url(#clip602)" style="stroke:#000000; stroke-width:2; stroke-opacity:0.1; fill:none" points="
  148.334,993.136 2352.76,993.136 
  "/>
<polyline clip-path="url(#clip602)" style="stroke:#000000; stroke-width:2; stroke-opacity:0.1; fill:none" points="
  148.334,691.416 2352.76,691.416 
  "/>
<polyline clip-path="url(#clip602)" style="stroke:#000000; stroke-width:2; stroke-opacity:0.1; fill:none" points="
  148.334,389.696 2352.76,389.696 
  "/>
<polyline clip-path="url(#clip602)" style="stroke:#000000; stroke-width:2; stroke-opacity:0.1; fill:none" points="
  148.334,87.9763 2352.76,87.9763 
  "/>
<polyline clip-path="url(#clip600)" style="stroke:#000000; stroke-width:4; stroke-opacity:1; fill:none" points="
  148.334,1486.45 2352.76,1486.45 
  "/>
<polyline clip-path="url(#clip600)" style="stroke:#000000; stroke-width:4; stroke-opacity:1; fill:none" points="
  148.334,1486.45 148.334,47.2441 
  "/>
<polyline clip-path="url(#clip600)" style="stroke:#000000; stroke-width:4; stroke-opacity:1; fill:none" points="
  420.816,1486.45 420.816,1469.18 
  "/>
<polyline clip-path="url(#clip600)" style="stroke:#000000; stroke-width:4; stroke-opacity:1; fill:none" points="
  722.535,1486.45 722.535,1469.18 
  "/>
<polyline clip-path="url(#clip600)" style="stroke:#000000; stroke-width:4; stroke-opacity:1; fill:none" points="
  1024.26,1486.45 1024.26,1469.18 
  "/>
<polyline clip-path="url(#clip600)" style="stroke:#000000; stroke-width:4; stroke-opacity:1; fill:none" points="
  1325.98,1486.45 1325.98,1469.18 
  "/>
<polyline clip-path="url(#clip600)" style="stroke:#000000; stroke-width:4; stroke-opacity:1; fill:none" points="
  1627.69,1486.45 1627.69,1469.18 
  "/>
<polyline clip-path="url(#clip600)" style="stroke:#000000; stroke-width:4; stroke-opacity:1; fill:none" points="
  1929.41,1486.45 1929.41,1469.18 
  "/>
<polyline clip-path="url(#clip600)" style="stroke:#000000; stroke-width:4; stroke-opacity:1; fill:none" points="
  2231.13,1486.45 2231.13,1469.18 
  "/>
<polyline clip-path="url(#clip600)" style="stroke:#000000; stroke-width:4; stroke-opacity:1; fill:none" points="
  148.334,1294.86 174.787,1294.86 
  "/>
<polyline clip-path="url(#clip600)" style="stroke:#000000; stroke-width:4; stroke-opacity:1; fill:none" points="
  148.334,993.136 174.787,993.136 
  "/>
<polyline clip-path="url(#clip600)" style="stroke:#000000; stroke-width:4; stroke-opacity:1; fill:none" points="
  148.334,691.416 174.787,691.416 
  "/>
<polyline clip-path="url(#clip600)" style="stroke:#000000; stroke-width:4; stroke-opacity:1; fill:none" points="
  148.334,389.696 174.787,389.696 
  "/>
<polyline clip-path="url(#clip600)" style="stroke:#000000; stroke-width:4; stroke-opacity:1; fill:none" points="
  148.334,87.9763 174.787,87.9763 
  "/>
<path clip-path="url(#clip600)" d="M 0 0 M402.332 1508.44 Q398.721 1508.44 396.892 1512 Q395.086 1515.55 395.086 1522.67 Q395.086 1529.78 396.892 1533.35 Q398.721 1536.89 402.332 1536.89 Q405.966 1536.89 407.772 1533.35 Q409.6 1529.78 409.6 1522.67 Q409.6 1515.55 407.772 1512 Q405.966 1508.44 402.332 1508.44 M402.332 1504.73 Q408.142 1504.73 411.198 1509.34 Q414.276 1513.92 414.276 1522.67 Q414.276 1531.4 411.198 1536.01 Q408.142 1540.59 402.332 1540.59 Q396.522 1540.59 393.443 1536.01 Q390.387 1531.4 390.387 1522.67 Q390.387 1513.92 393.443 1509.34 Q396.522 1504.73 402.332 1504.73 Z" fill="#000000" fill-rule="evenodd" fill-opacity="1" /><path clip-path="url(#clip600)" d="M 0 0 M419.346 1534.04 L424.23 1534.04 L424.23 1539.92 L419.346 1539.92 L419.346 1534.04 Z" fill="#000000" fill-rule="evenodd" fill-opacity="1" /><path clip-path="url(#clip600)" d="M 0 0 M439.299 1508.44 Q435.688 1508.44 433.859 1512 Q432.054 1515.55 432.054 1522.67 Q432.054 1529.78 433.859 1533.35 Q435.688 1536.89 439.299 1536.89 Q442.933 1536.89 444.739 1533.35 Q446.568 1529.78 446.568 1522.67 Q446.568 1515.55 444.739 1512 Q442.933 1508.44 439.299 1508.44 M439.299 1504.73 Q445.109 1504.73 448.165 1509.34 Q451.244 1513.92 451.244 1522.67 Q451.244 1531.4 448.165 1536.01 Q445.109 1540.59 439.299 1540.59 Q433.489 1540.59 430.41 1536.01 Q427.355 1531.4 427.355 1522.67 Q427.355 1513.92 430.41 1509.34 Q433.489 1504.73 439.299 1504.73 Z" fill="#000000" fill-rule="evenodd" fill-opacity="1" /><path clip-path="url(#clip600)" d="M 0 0 M704.85 1508.44 Q701.239 1508.44 699.41 1512 Q697.605 1515.55 697.605 1522.67 Q697.605 1529.78 699.41 1533.35 Q701.239 1536.89 704.85 1536.89 Q708.485 1536.89 710.29 1533.35 Q712.119 1529.78 712.119 1522.67 Q712.119 1515.55 710.29 1512 Q708.485 1508.44 704.85 1508.44 M704.85 1504.73 Q710.66 1504.73 713.716 1509.34 Q716.795 1513.92 716.795 1522.67 Q716.795 1531.4 713.716 1536.01 Q710.66 1540.59 704.85 1540.59 Q699.04 1540.59 695.961 1536.01 Q692.906 1531.4 692.906 1522.67 Q692.906 1513.92 695.961 1509.34 Q699.04 1504.73 704.85 1504.73 Z" fill="#000000" fill-rule="evenodd" fill-opacity="1" /><path clip-path="url(#clip600)" d="M 0 0 M721.864 1534.04 L726.748 1534.04 L726.748 1539.92 L721.864 1539.92 L721.864 1534.04 Z" fill="#000000" fill-rule="evenodd" fill-opacity="1" /><path clip-path="url(#clip600)" d="M 0 0 M735.845 1535.98 L752.165 1535.98 L752.165 1539.92 L730.221 1539.92 L730.221 1535.98 Q732.883 1533.23 737.466 1528.6 Q742.072 1523.95 743.253 1522.61 Q745.498 1520.08 746.378 1518.35 Q747.281 1516.59 747.281 1514.9 Q747.281 1512.14 745.336 1510.41 Q743.415 1508.67 740.313 1508.67 Q738.114 1508.67 735.66 1509.43 Q733.23 1510.2 730.452 1511.75 L730.452 1507.03 Q733.276 1505.89 735.73 1505.31 Q738.183 1504.73 740.22 1504.73 Q745.591 1504.73 748.785 1507.42 Q751.98 1510.11 751.98 1514.6 Q751.98 1516.73 751.169 1518.65 Q750.382 1520.54 748.276 1523.14 Q747.697 1523.81 744.595 1527.03 Q741.494 1530.22 735.845 1535.98 Z" fill="#000000" fill-rule="evenodd" fill-opacity="1" /><path clip-path="url(#clip600)" d="M 0 0 M1005.53 1508.44 Q1001.92 1508.44 1000.09 1512 Q998.283 1515.55 998.283 1522.67 Q998.283 1529.78 1000.09 1533.35 Q1001.92 1536.89 1005.53 1536.89 Q1009.16 1536.89 1010.97 1533.35 Q1012.8 1529.78 1012.8 1522.67 Q1012.8 1515.55 1010.97 1512 Q1009.16 1508.44 1005.53 1508.44 M1005.53 1504.73 Q1011.34 1504.73 1014.39 1509.34 Q1017.47 1513.92 1017.47 1522.67 Q1017.47 1531.4 1014.39 1536.01 Q1011.34 1540.59 1005.53 1540.59 Q999.718 1540.59 996.64 1536.01 Q993.584 1531.4 993.584 1522.67 Q993.584 1513.92 996.64 1509.34 Q999.718 1504.73 1005.53 1504.73 Z" fill="#000000" fill-rule="evenodd" fill-opacity="1" /><path clip-path="url(#clip600)" d="M 0 0 M1022.54 1534.04 L1027.43 1534.04 L1027.43 1539.92 L1022.54 1539.92 L1022.54 1534.04 Z" fill="#000000" fill-rule="evenodd" fill-opacity="1" /><path clip-path="url(#clip600)" d="M 0 0 M1045.34 1509.43 L1033.54 1527.88 L1045.34 1527.88 L1045.34 1509.43 M1044.12 1505.36 L1050 1505.36 L1050 1527.88 L1054.93 1527.88 L1054.93 1531.77 L1050 1531.77 L1050 1539.92 L1045.34 1539.92 L1045.34 1531.77 L1029.74 1531.77 L1029.74 1527.26 L1044.12 1505.36 Z" fill="#000000" fill-rule="evenodd" fill-opacity="1" /><path clip-path="url(#clip600)" d="M 0 0 M1307.41 1508.44 Q1303.8 1508.44 1301.97 1512 Q1300.17 1515.55 1300.17 1522.67 Q1300.17 1529.78 1301.97 1533.35 Q1303.8 1536.89 1307.41 1536.89 Q1311.04 1536.89 1312.85 1533.35 Q1314.68 1529.78 1314.68 1522.67 Q1314.68 1515.55 1312.85 1512 Q1311.04 1508.44 1307.41 1508.44 M1307.41 1504.73 Q1313.22 1504.73 1316.28 1509.34 Q1319.35 1513.92 1319.35 1522.67 Q1319.35 1531.4 1316.28 1536.01 Q1313.22 1540.59 1307.41 1540.59 Q1301.6 1540.59 1298.52 1536.01 Q1295.47 1531.4 1295.47 1522.67 Q1295.47 1513.92 1298.52 1509.34 Q1301.6 1504.73 1307.41 1504.73 Z" fill="#000000" fill-rule="evenodd" fill-opacity="1" /><path clip-path="url(#clip600)" d="M 0 0 M1324.42 1534.04 L1329.31 1534.04 L1329.31 1539.92 L1324.42 1539.92 L1324.42 1534.04 Z" fill="#000000" fill-rule="evenodd" fill-opacity="1" /><path clip-path="url(#clip600)" d="M 0 0 M1344.96 1520.78 Q1341.81 1520.78 1339.96 1522.93 Q1338.13 1525.08 1338.13 1528.83 Q1338.13 1532.56 1339.96 1534.73 Q1341.81 1536.89 1344.96 1536.89 Q1348.1 1536.89 1349.93 1534.73 Q1351.79 1532.56 1351.79 1528.83 Q1351.79 1525.08 1349.93 1522.93 Q1348.1 1520.78 1344.96 1520.78 M1354.24 1506.12 L1354.24 1510.38 Q1352.48 1509.55 1350.67 1509.11 Q1348.89 1508.67 1347.13 1508.67 Q1342.5 1508.67 1340.05 1511.8 Q1337.62 1514.92 1337.27 1521.24 Q1338.64 1519.23 1340.7 1518.16 Q1342.76 1517.07 1345.23 1517.07 Q1350.44 1517.07 1353.45 1520.24 Q1356.48 1523.39 1356.48 1528.83 Q1356.48 1534.16 1353.34 1537.37 Q1350.19 1540.59 1344.96 1540.59 Q1338.96 1540.59 1335.79 1536.01 Q1332.62 1531.4 1332.62 1522.67 Q1332.62 1514.48 1336.51 1509.62 Q1340.4 1504.73 1346.95 1504.73 Q1348.71 1504.73 1350.49 1505.08 Q1352.29 1505.43 1354.24 1506.12 Z" fill="#000000" fill-rule="evenodd" fill-opacity="1" /><path clip-path="url(#clip600)" d="M 0 0 M1609.26 1508.44 Q1605.65 1508.44 1603.82 1512 Q1602.01 1515.55 1602.01 1522.67 Q1602.01 1529.78 1603.82 1533.35 Q1605.65 1536.89 1609.26 1536.89 Q1612.89 1536.89 1614.7 1533.35 Q1616.53 1529.78 1616.53 1522.67 Q1616.53 1515.55 1614.7 1512 Q1612.89 1508.44 1609.26 1508.44 M1609.26 1504.73 Q1615.07 1504.73 1618.12 1509.34 Q1621.2 1513.92 1621.2 1522.67 Q1621.2 1531.4 1618.12 1536.01 Q1615.07 1540.59 1609.26 1540.59 Q1603.45 1540.59 1600.37 1536.01 Q1597.31 1531.4 1597.31 1522.67 Q1597.31 1513.92 1600.37 1509.34 Q1603.45 1504.73 1609.26 1504.73 Z" fill="#000000" fill-rule="evenodd" fill-opacity="1" /><path clip-path="url(#clip600)" d="M 0 0 M1626.27 1534.04 L1631.16 1534.04 L1631.16 1539.92 L1626.27 1539.92 L1626.27 1534.04 Z" fill="#000000" fill-rule="evenodd" fill-opacity="1" /><path clip-path="url(#clip600)" d="M 0 0 M1646.22 1523.51 Q1642.89 1523.51 1640.97 1525.29 Q1639.07 1527.07 1639.07 1530.2 Q1639.07 1533.32 1640.97 1535.11 Q1642.89 1536.89 1646.22 1536.89 Q1649.56 1536.89 1651.48 1535.11 Q1653.4 1533.3 1653.4 1530.2 Q1653.4 1527.07 1651.48 1525.29 Q1649.58 1523.51 1646.22 1523.51 M1641.55 1521.52 Q1638.54 1520.78 1636.85 1518.72 Q1635.18 1516.66 1635.18 1513.69 Q1635.18 1509.55 1638.12 1507.14 Q1641.09 1504.73 1646.22 1504.73 Q1651.39 1504.73 1654.33 1507.14 Q1657.27 1509.55 1657.27 1513.69 Q1657.27 1516.66 1655.58 1518.72 Q1653.91 1520.78 1650.92 1521.52 Q1654.3 1522.3 1656.18 1524.6 Q1658.08 1526.89 1658.08 1530.2 Q1658.08 1535.22 1655 1537.91 Q1651.94 1540.59 1646.22 1540.59 Q1640.51 1540.59 1637.43 1537.91 Q1634.37 1535.22 1634.37 1530.2 Q1634.37 1526.89 1636.27 1524.6 Q1638.17 1522.3 1641.55 1521.52 M1639.84 1514.13 Q1639.84 1516.82 1641.5 1518.32 Q1643.19 1519.83 1646.22 1519.83 Q1649.23 1519.83 1650.92 1518.32 Q1652.64 1516.82 1652.64 1514.13 Q1652.64 1511.45 1650.92 1509.94 Q1649.23 1508.44 1646.22 1508.44 Q1643.19 1508.44 1641.5 1509.94 Q1639.84 1511.45 1639.84 1514.13 Z" fill="#000000" fill-rule="evenodd" fill-opacity="1" /><path clip-path="url(#clip600)" d="M 0 0 M1901.31 1535.98 L1908.95 1535.98 L1908.95 1509.62 L1900.64 1511.29 L1900.64 1507.03 L1908.91 1505.36 L1913.58 1505.36 L1913.58 1535.98 L1921.22 1535.98 L1921.22 1539.92 L1901.31 1539.92 L1901.31 1535.98 Z" fill="#000000" fill-rule="evenodd" fill-opacity="1" /><path clip-path="url(#clip600)" d="M 0 0 M1926.29 1534.04 L1931.17 1534.04 L1931.17 1539.92 L1926.29 1539.92 L1926.29 1534.04 Z" fill="#000000" fill-rule="evenodd" fill-opacity="1" /><path clip-path="url(#clip600)" d="M 0 0 M1946.24 1508.44 Q1942.63 1508.44 1940.8 1512 Q1939 1515.55 1939 1522.67 Q1939 1529.78 1940.8 1533.35 Q1942.63 1536.89 1946.24 1536.89 Q1949.88 1536.89 1951.68 1533.35 Q1953.51 1529.78 1953.51 1522.67 Q1953.51 1515.55 1951.68 1512 Q1949.88 1508.44 1946.24 1508.44 M1946.24 1504.73 Q1952.05 1504.73 1955.11 1509.34 Q1958.19 1513.92 1958.19 1522.67 Q1958.19 1531.4 1955.11 1536.01 Q1952.05 1540.59 1946.24 1540.59 Q1940.43 1540.59 1937.35 1536.01 Q1934.3 1531.4 1934.3 1522.67 Q1934.3 1513.92 1937.35 1509.34 Q1940.43 1504.73 1946.24 1504.73 Z" fill="#000000" fill-rule="evenodd" fill-opacity="1" /><path clip-path="url(#clip600)" d="M 0 0 M2203.83 1535.98 L2211.47 1535.98 L2211.47 1509.62 L2203.16 1511.29 L2203.16 1507.03 L2211.42 1505.36 L2216.1 1505.36 L2216.1 1535.98 L2223.74 1535.98 L2223.74 1539.92 L2203.83 1539.92 L2203.83 1535.98 Z" fill="#000000" fill-rule="evenodd" fill-opacity="1" /><path clip-path="url(#clip600)" d="M 0 0 M2228.81 1534.04 L2233.69 1534.04 L2233.69 1539.92 L2228.81 1539.92 L2228.81 1534.04 Z" fill="#000000" fill-rule="evenodd" fill-opacity="1" /><path clip-path="url(#clip600)" d="M 0 0 M2242.79 1535.98 L2259.11 1535.98 L2259.11 1539.92 L2237.16 1539.92 L2237.16 1535.98 Q2239.83 1533.23 2244.41 1528.6 Q2249.02 1523.95 2250.2 1522.61 Q2252.44 1520.08 2253.32 1518.35 Q2254.22 1516.59 2254.22 1514.9 Q2254.22 1512.14 2252.28 1510.41 Q2250.36 1508.67 2247.26 1508.67 Q2245.06 1508.67 2242.6 1509.43 Q2240.17 1510.2 2237.4 1511.75 L2237.4 1507.03 Q2240.22 1505.89 2242.67 1505.31 Q2245.13 1504.73 2247.16 1504.73 Q2252.54 1504.73 2255.73 1507.42 Q2258.92 1510.11 2258.92 1514.6 Q2258.92 1516.73 2258.11 1518.65 Q2257.33 1520.54 2255.22 1523.14 Q2254.64 1523.81 2251.54 1527.03 Q2248.44 1530.22 2242.79 1535.98 Z" fill="#000000" fill-rule="evenodd" fill-opacity="1" /><path clip-path="url(#clip600)" d="M 0 0 M77.0198 1280.65 Q73.4087 1280.65 71.58 1284.22 Q69.7745 1287.76 69.7745 1294.89 Q69.7745 1302 71.58 1305.56 Q73.4087 1309.1 77.0198 1309.1 Q80.6541 1309.1 82.4596 1305.56 Q84.2883 1302 84.2883 1294.89 Q84.2883 1287.76 82.4596 1284.22 Q80.6541 1280.65 77.0198 1280.65 M77.0198 1276.95 Q82.83 1276.95 85.8855 1281.56 Q88.9642 1286.14 88.9642 1294.89 Q88.9642 1303.62 85.8855 1308.22 Q82.83 1312.81 77.0198 1312.81 Q71.2097 1312.81 68.131 1308.22 Q65.0754 1303.62 65.0754 1294.89 Q65.0754 1286.14 68.131 1281.56 Q71.2097 1276.95 77.0198 1276.95 Z" fill="#000000" fill-rule="evenodd" fill-opacity="1" /><path clip-path="url(#clip600)" d="M 0 0 M94.0336 1306.26 L98.9179 1306.26 L98.9179 1312.14 L94.0336 1312.14 L94.0336 1306.26 Z" fill="#000000" fill-rule="evenodd" fill-opacity="1" /><path clip-path="url(#clip600)" d="M 0 0 M108.015 1308.2 L124.334 1308.2 L124.334 1312.14 L102.39 1312.14 L102.39 1308.2 Q105.052 1305.45 109.635 1300.82 Q114.242 1296.16 115.422 1294.82 Q117.668 1292.3 118.547 1290.56 Q119.45 1288.8 119.45 1287.11 Q119.45 1284.36 117.506 1282.62 Q115.584 1280.89 112.483 1280.89 Q110.284 1280.89 107.83 1281.65 Q105.399 1282.41 102.622 1283.96 L102.622 1279.24 Q105.446 1278.11 107.899 1277.53 Q110.353 1276.95 112.39 1276.95 Q117.76 1276.95 120.955 1279.64 Q124.149 1282.32 124.149 1286.81 Q124.149 1288.94 123.339 1290.86 Q122.552 1292.76 120.446 1295.35 Q119.867 1296.02 116.765 1299.24 Q113.663 1302.44 108.015 1308.2 Z" fill="#000000" fill-rule="evenodd" fill-opacity="1" /><path clip-path="url(#clip600)" d="M 0 0 M74.9365 978.935 Q71.3254 978.935 69.4967 982.499 Q67.6912 986.041 67.6912 993.171 Q67.6912 1000.28 69.4967 1003.84 Q71.3254 1007.38 74.9365 1007.38 Q78.5707 1007.38 80.3763 1003.84 Q82.205 1000.28 82.205 993.171 Q82.205 986.041 80.3763 982.499 Q78.5707 978.935 74.9365 978.935 M74.9365 975.231 Q80.7467 975.231 83.8022 979.837 Q86.8809 984.421 86.8809 993.171 Q86.8809 1001.9 83.8022 1006.5 Q80.7467 1011.09 74.9365 1011.09 Q69.1264 1011.09 66.0477 1006.5 Q62.9921 1001.9 62.9921 993.171 Q62.9921 984.421 66.0477 979.837 Q69.1264 975.231 74.9365 975.231 Z" fill="#000000" fill-rule="evenodd" fill-opacity="1" /><path clip-path="url(#clip600)" d="M 0 0 M91.9503 1004.54 L96.8345 1004.54 L96.8345 1010.42 L91.9503 1010.42 L91.9503 1004.54 Z" fill="#000000" fill-rule="evenodd" fill-opacity="1" /><path clip-path="url(#clip600)" d="M 0 0 M114.751 979.93 L102.946 998.379 L114.751 998.379 L114.751 979.93 M113.524 975.856 L119.404 975.856 L119.404 998.379 L124.334 998.379 L124.334 1002.27 L119.404 1002.27 L119.404 1010.42 L114.751 1010.42 L114.751 1002.27 L99.1493 1002.27 L99.1493 997.754 L113.524 975.856 Z" fill="#000000" fill-rule="evenodd" fill-opacity="1" /><path clip-path="url(#clip600)" d="M 0 0 M75.2606 677.215 Q71.6495 677.215 69.8208 680.779 Q68.0152 684.321 68.0152 691.451 Q68.0152 698.557 69.8208 702.122 Q71.6495 705.664 75.2606 705.664 Q78.8948 705.664 80.7004 702.122 Q82.5291 698.557 82.5291 691.451 Q82.5291 684.321 80.7004 680.779 Q78.8948 677.215 75.2606 677.215 M75.2606 673.511 Q81.0707 673.511 84.1263 678.117 Q87.205 682.701 87.205 691.451 Q87.205 700.178 84.1263 704.784 Q81.0707 709.367 75.2606 709.367 Q69.4504 709.367 66.3717 704.784 Q63.3162 700.178 63.3162 691.451 Q63.3162 682.701 66.3717 678.117 Q69.4504 673.511 75.2606 673.511 Z" fill="#000000" fill-rule="evenodd" fill-opacity="1" /><path clip-path="url(#clip600)" d="M 0 0 M92.2744 702.816 L97.1586 702.816 L97.1586 708.696 L92.2744 708.696 L92.2744 702.816 Z" fill="#000000" fill-rule="evenodd" fill-opacity="1" /><path clip-path="url(#clip600)" d="M 0 0 M112.807 689.553 Q109.659 689.553 107.807 691.705 Q105.978 693.858 105.978 697.608 Q105.978 701.335 107.807 703.511 Q109.659 705.664 112.807 705.664 Q115.955 705.664 117.783 703.511 Q119.635 701.335 119.635 697.608 Q119.635 693.858 117.783 691.705 Q115.955 689.553 112.807 689.553 M122.089 674.9 L122.089 679.159 Q120.33 678.326 118.524 677.886 Q116.742 677.446 114.983 677.446 Q110.353 677.446 107.899 680.571 Q105.469 683.696 105.122 690.016 Q106.487 688.002 108.547 686.937 Q110.608 685.849 113.084 685.849 Q118.293 685.849 121.302 689.02 Q124.334 692.168 124.334 697.608 Q124.334 702.932 121.186 706.15 Q118.038 709.367 112.807 709.367 Q106.811 709.367 103.64 704.784 Q100.469 700.178 100.469 691.451 Q100.469 683.256 104.358 678.395 Q108.247 673.511 114.797 673.511 Q116.557 673.511 118.339 673.858 Q120.145 674.205 122.089 674.9 Z" fill="#000000" fill-rule="evenodd" fill-opacity="1" /><path clip-path="url(#clip600)" d="M 0 0 M75.5152 375.495 Q71.9041 375.495 70.0754 379.06 Q68.2699 382.601 68.2699 389.731 Q68.2699 396.837 70.0754 400.402 Q71.9041 403.944 75.5152 403.944 Q79.1494 403.944 80.955 400.402 Q82.7837 396.837 82.7837 389.731 Q82.7837 382.601 80.955 379.06 Q79.1494 375.495 75.5152 375.495 M75.5152 371.791 Q81.3254 371.791 84.3809 376.398 Q87.4596 380.981 87.4596 389.731 Q87.4596 398.458 84.3809 403.064 Q81.3254 407.647 75.5152 407.647 Q69.7051 407.647 66.6264 403.064 Q63.5708 398.458 63.5708 389.731 Q63.5708 380.981 66.6264 376.398 Q69.7051 371.791 75.5152 371.791 Z" fill="#000000" fill-rule="evenodd" fill-opacity="1" /><path clip-path="url(#clip600)" d="M 0 0 M92.529 401.097 L97.4132 401.097 L97.4132 406.976 L92.529 406.976 L92.529 401.097 Z" fill="#000000" fill-rule="evenodd" fill-opacity="1" /><path clip-path="url(#clip600)" d="M 0 0 M112.483 390.564 Q109.149 390.564 107.228 392.347 Q105.33 394.129 105.33 397.254 Q105.33 400.379 107.228 402.161 Q109.149 403.944 112.483 403.944 Q115.816 403.944 117.737 402.161 Q119.658 400.356 119.658 397.254 Q119.658 394.129 117.737 392.347 Q115.839 390.564 112.483 390.564 M107.807 388.573 Q104.797 387.833 103.108 385.773 Q101.441 383.712 101.441 380.749 Q101.441 376.606 104.381 374.199 Q107.344 371.791 112.483 371.791 Q117.645 371.791 120.584 374.199 Q123.524 376.606 123.524 380.749 Q123.524 383.712 121.834 385.773 Q120.168 387.833 117.182 388.573 Q120.561 389.361 122.436 391.652 Q124.334 393.944 124.334 397.254 Q124.334 402.277 121.256 404.962 Q118.2 407.647 112.483 407.647 Q106.765 407.647 103.686 404.962 Q100.631 402.277 100.631 397.254 Q100.631 393.944 102.529 391.652 Q104.427 389.361 107.807 388.573 M106.094 381.189 Q106.094 383.874 107.76 385.379 Q109.45 386.884 112.483 386.884 Q115.492 386.884 117.182 385.379 Q118.895 383.874 118.895 381.189 Q118.895 378.504 117.182 376.999 Q115.492 375.495 112.483 375.495 Q109.45 375.495 107.76 376.999 Q106.094 378.504 106.094 381.189 Z" fill="#000000" fill-rule="evenodd" fill-opacity="1" /><path clip-path="url(#clip600)" d="M 0 0 M67.4597 101.321 L75.0985 101.321 L75.0985 74.9555 L66.7884 76.6222 L66.7884 72.3629 L75.0522 70.6963 L79.7281 70.6963 L79.7281 101.321 L87.367 101.321 L87.367 105.256 L67.4597 105.256 L67.4597 101.321 Z" fill="#000000" fill-rule="evenodd" fill-opacity="1" /><path clip-path="url(#clip600)" d="M 0 0 M92.4364 99.3767 L97.3206 99.3767 L97.3206 105.256 L92.4364 105.256 L92.4364 99.3767 Z" fill="#000000" fill-rule="evenodd" fill-opacity="1" /><path clip-path="url(#clip600)" d="M 0 0 M112.39 73.775 Q108.779 73.775 106.95 77.3398 Q105.145 80.8814 105.145 88.011 Q105.145 95.1174 106.95 98.6822 Q108.779 102.224 112.39 102.224 Q116.024 102.224 117.83 98.6822 Q119.658 95.1174 119.658 88.011 Q119.658 80.8814 117.83 77.3398 Q116.024 73.775 112.39 73.775 M112.39 70.0713 Q118.2 70.0713 121.256 74.6777 Q124.334 79.261 124.334 88.011 Q124.334 96.7378 121.256 101.344 Q118.2 105.928 112.39 105.928 Q106.58 105.928 103.501 101.344 Q100.446 96.7378 100.446 88.011 Q100.446 79.261 103.501 74.6777 Q106.58 70.0713 112.39 70.0713 Z" fill="#000000" fill-rule="evenodd" fill-opacity="1" /><path clip-path="url(#clip602)" d="
M1325.98 1144 L1778.55 87.9763 L722.535 1445.72 L1325.98 1144  Z
  " fill="#008000" fill-rule="evenodd" fill-opacity="0.2"/>
<polyline clip-path="url(#clip602)" style="stroke:#000000; stroke-width:4; stroke-opacity:1; fill:none" points="
  1325.98,1144 1778.55,87.9763 722.535,1445.72 1325.98,1144 
  "/>
<polyline clip-path="url(#clip602)" style="stroke:#ffa500; stroke-width:4; stroke-opacity:1; fill:none" points="
  1552.27,615.986 722.535,1445.72 
  "/>
<polyline clip-path="url(#clip602)" style="stroke:#ffa500; stroke-width:4; stroke-opacity:1; fill:none" points="
  1024.26,1294.86 1778.55,87.9763 
  "/>
<polyline clip-path="url(#clip602)" style="stroke:#ffa500; stroke-width:4; stroke-opacity:1; fill:none" points="
  1250.55,766.846 1325.98,1144 
  "/>
<circle clip-path="url(#clip602)" cx="1325.98" cy="1144" r="14" fill="#ff0000" fill-rule="evenodd" fill-opacity="1" stroke="#000000" stroke-opacity="1" stroke-width="3.2"/>
<circle clip-path="url(#clip602)" cx="1778.55" cy="87.9763" r="14" fill="#ff0000" fill-rule="evenodd" fill-opacity="1" stroke="#000000" stroke-opacity="1" stroke-width="3.2"/>
<circle clip-path="url(#clip602)" cx="722.535" cy="1445.72" r="14" fill="#ff0000" fill-rule="evenodd" fill-opacity="1" stroke="#000000" stroke-opacity="1" stroke-width="3.2"/>
<circle clip-path="url(#clip602)" cx="1275.69" cy="892.563" r="14" fill="#008000" fill-rule="evenodd" fill-opacity="1" stroke="#000000" stroke-opacity="1" stroke-width="3.2"/>
<path clip-path="url(#clip600)" d="M 0 0 M1325.98 1073.43 L1314.88 1103.53 L1337.12 1103.53 L1325.98 1073.43 M1321.36 1065.37 L1330.63 1065.37 L1353.68 1125.85 L1345.18 1125.85 L1339.67 1110.34 L1312.4 1110.34 L1306.9 1125.85 L1298.27 1125.85 L1321.36 1065.37 Z" fill="#000000" fill-rule="evenodd" fill-opacity="1" /><path clip-path="url(#clip600)" d="M 0 0 M1765.29 40.9493 L1765.29 63.1078 L1778.41 63.1078 Q1785.02 63.1078 1788.18 60.3937 Q1791.38 57.6391 1791.38 52.0083 Q1791.38 46.337 1788.18 43.6634 Q1785.02 40.9493 1778.41 40.9493 L1765.29 40.9493 M1765.29 16.0768 L1765.29 34.3058 L1777.4 34.3058 Q1783.4 34.3058 1786.31 32.0778 Q1789.27 29.8093 1789.27 25.1913 Q1789.27 20.6138 1786.31 18.3453 Q1783.4 16.0768 1777.4 16.0768 L1765.29 16.0768 M1757.11 9.35228 L1778.01 9.35228 Q1787.37 9.35228 1792.43 13.2411 Q1797.49 17.13 1797.49 24.3001 Q1797.49 29.8499 1794.9 33.1311 Q1792.31 36.4123 1787.28 37.2225 Q1793.32 38.5188 1796.64 42.6507 Q1800 46.7421 1800 52.8995 Q1800 61.0013 1794.5 65.4168 Q1788.99 69.8323 1778.82 69.8323 L1757.11 69.8323 L1757.11 9.35228 Z" fill="#000000" fill-rule="evenodd" fill-opacity="1" /><path clip-path="url(#clip600)" d="M 0 0 M746.922 1371.75 L746.922 1380.38 Q742.79 1376.53 738.091 1374.63 Q733.432 1372.72 728.166 1372.72 Q717.796 1372.72 712.287 1379.08 Q706.777 1385.4 706.777 1397.39 Q706.777 1409.34 712.287 1415.7 Q717.796 1422.02 728.166 1422.02 Q733.432 1422.02 738.091 1420.12 Q742.79 1418.21 746.922 1414.37 L746.922 1422.91 Q742.628 1425.83 737.807 1427.29 Q733.027 1428.75 727.68 1428.75 Q713.947 1428.75 706.048 1420.36 Q698.149 1411.94 698.149 1397.39 Q698.149 1382.81 706.048 1374.42 Q713.947 1366 727.68 1366 Q733.108 1366 737.888 1367.46 Q742.709 1368.87 746.922 1371.75 Z" fill="#000000" fill-rule="evenodd" fill-opacity="1" /><path clip-path="url(#clip600)" d="M 0 0 M1254.3 830.79 L1254.3 837.758 Q1251.14 836.016 1247.94 835.165 Q1244.78 834.274 1241.54 834.274 Q1234.29 834.274 1230.28 838.892 Q1226.27 843.47 1226.27 851.774 Q1226.27 860.078 1230.28 864.696 Q1234.29 869.274 1241.54 869.274 Q1244.78 869.274 1247.94 868.423 Q1251.14 867.532 1254.3 865.79 L1254.3 872.677 Q1251.18 874.135 1247.82 874.864 Q1244.5 875.593 1240.73 875.593 Q1230.48 875.593 1224.44 869.152 Q1218.41 862.711 1218.41 851.774 Q1218.41 840.675 1224.49 834.315 Q1230.6 827.955 1241.22 827.955 Q1244.66 827.955 1247.94 828.684 Q1251.22 829.373 1254.3 830.79 Z" fill="#000000" fill-rule="evenodd" fill-opacity="1" /><path clip-path="url(#clip600)" d="M 0 0 M1269.33 867.613 L1269.33 891.675 L1261.83 891.675 L1261.83 829.048 L1269.33 829.048 L1269.33 835.935 Q1271.68 831.884 1275.24 829.94 Q1278.85 827.955 1283.83 827.955 Q1292.09 827.955 1297.24 834.517 Q1302.42 841.08 1302.42 851.774 Q1302.42 862.468 1297.24 869.031 Q1292.09 875.593 1283.83 875.593 Q1278.85 875.593 1275.24 873.649 Q1271.68 871.664 1269.33 867.613 M1294.69 851.774 Q1294.69 843.551 1291.28 838.892 Q1287.92 834.193 1282.01 834.193 Q1276.09 834.193 1272.69 838.892 Q1269.33 843.551 1269.33 851.774 Q1269.33 859.997 1272.69 864.696 Q1276.09 869.355 1282.01 869.355 Q1287.92 869.355 1291.28 864.696 Q1294.69 859.997 1294.69 851.774 Z" fill="#000000" fill-rule="evenodd" fill-opacity="1" /><path clip-path="url(#clip600)" d="M 0 0 M1317.62 816.167 L1317.62 829.048 L1332.97 829.048 L1332.97 834.841 L1317.62 834.841 L1317.62 859.471 Q1317.62 865.02 1319.11 866.6 Q1320.65 868.18 1325.31 868.18 L1332.97 868.18 L1332.97 874.419 L1325.31 874.419 Q1316.68 874.419 1313.4 871.218 Q1310.12 867.978 1310.12 859.471 L1310.12 834.841 L1304.65 834.841 L1304.65 829.048 L1310.12 829.048 L1310.12 816.167 L1317.62 816.167 Z" fill="#000000" fill-rule="evenodd" fill-opacity="1" /></svg>
