<?xml version="1.0" encoding="utf-8"?>
<svg xmlns="http://www.w3.org/2000/svg" xmlns:xlink="http://www.w3.org/1999/xlink" width="600" height="400" viewBox="0 0 2400 1600">
<defs>
  <clipPath id="clip080">
    <rect x="0" y="0" width="2400" height="1600"/>
  </clipPath>
</defs>
<path clip-path="url(#clip080)" d="
M0 1600 L2400 1600 L2400 0 L0 0  Z
  " fill="#ffffff" fill-rule="evenodd" fill-opacity="1"/>
<defs>
  <clipPath id="clip081">
    <rect x="480" y="0" width="1681" height="1600"/>
  </clipPath>
</defs>
<path clip-path="url(#clip080)" d="
M147.848 1486.45 L2352.76 1486.45 L2352.76 47.2441 L147.848 47.2441  Z
  " fill="#ffffff" fill-rule="evenodd" fill-opacity="1"/>
<defs>
  <clipPath id="clip082">
    <rect x="147" y="47" width="2206" height="1440"/>
  </clipPath>
</defs>
<polyline clip-path="url(#clip082)" style="stroke:#000000; stroke-width:2; stroke-opacity:0.1; fill:none" points="
  210.251,1486.45 210.251,47.2441 
  "/>
<polyline clip-path="url(#clip082)" style="stroke:#000000; stroke-width:2; stroke-opacity:0.1; fill:none" points="
  626.272,1486.45 626.272,47.2441 
  "/>
<polyline clip-path="url(#clip082)" style="stroke:#000000; stroke-width:2; stroke-opacity:0.1; fill:none" points="
  1042.29,1486.45 1042.29,47.2441 
  "/>
<polyline clip-path="url(#clip082)" style="stroke:#000000; stroke-width:2; stroke-opacity:0.1; fill:none" points="
  1458.31,1486.45 1458.31,47.2441 
  "/>
<polyline clip-path="url(#clip082)" style="stroke:#000000; stroke-width:2; stroke-opacity:0.1; fill:none" points="
  1874.33,1486.45 1874.33,47.2441 
  "/>
<polyline clip-path="url(#clip082)" style="stroke:#000000; stroke-width:2; stroke-opacity:0.1; fill:none" points="
  2290.35,1486.45 2290.35,47.2441 
  "/>
<polyline clip-path="url(#clip082)" style="stroke:#000000; stroke-width:2; stroke-opacity:0.1; fill:none" points="
  147.848,1390.88 2352.76,1390.88 
  "/>
<polyline clip-path="url(#clip082)" style="stroke:#000000; stroke-width:2; stroke-opacity:0.1; fill:none" points="
  147.848,974.856 2352.76,974.856 
  "/>
<polyline clip-path="url(#clip082)" style="stroke:#000000; stroke-width:2; stroke-opacity:0.1; fill:none" points="
  147.848,558.836 2352.76,558.836 
  "/>
<polyline clip-path="url(#clip082)" style="stroke:#000000; stroke-width:2; stroke-opacity:0.1; fill:none" points="
  147.848,142.816 2352.76,142.816 
  "/>
<polyline clip-path="url(#clip080)" style="stroke:#000000; stroke-width:4; stroke-opacity:1; fill:none" points="
  147.848,1486.45 2352.76,1486.45 
  "/>
<polyline clip-path="url(#clip080)" style="stroke:#000000; stroke-width:4; stroke-opacity:1; fill:none" points="
  147.848,1486.45 147.848,47.2441 
  "/>
<polyline clip-path="url(#clip080)" style="stroke:#000000; stroke-width:4; stroke-opacity:1; fill:none" points="
  210.251,1486.45 210.251,1469.18 
  "/>
<polyline clip-path="url(#clip080)" style="stroke:#000000; stroke-width:4; stroke-opacity:1; fill:none" points="
  626.272,1486.45 626.272,1469.18 
  "/>
<polyline clip-path="url(#clip080)" style="stroke:#000000; stroke-width:4; stroke-opacity:1; fill:none" points="
  1042.29,1486.45 1042.29,1469.18 
  "/>
<polyline clip-path="url(#clip080)" style="stroke:#000000; stroke-width:4; stroke-opacity:1; fill:none" points="
  1458.31,1486.45 1458.31,1469.18 
  "/>
<polyline clip-path="url(#clip080)" style="stroke:#000000; stroke-width:4; stroke-opacity:1; fill:none" points="
  1874.33,1486.45 1874.33,1469.18 
  "/>
<polyline clip-path="url(#clip080)" style="stroke:#000000; stroke-width:4; stroke-opacity:1; fill:none" points="
  2290.35,1486.45 2290.35,1469.18 
  "/>
<polyline clip-path="url(#clip080)" style="stroke:#000000; stroke-width:4; stroke-opacity:1; fill:none" points="
  147.848,1390.88 174.307,1390.88 
  "/>
<polyline clip-path="url(#clip080)" style="stroke:#000000; stroke-width:4; stroke-opacity:1; fill:none" points="
  147.848,974.856 174.307,974.856 
  "/>
<polyline clip-path="url(#clip080)" style="stroke:#000000; stroke-width:4; stroke-opacity:1; fill:none" points="
  147.848,558.836 174.307,558.836 
  "/>
<polyline clip-path="url(#clip080)" style="stroke:#000000; stroke-width:4; stroke-opacity:1; fill:none" points="
  147.848,142.816 174.307,142.816 
  "/>
<path clip-path="url(#clip080)" d="M 0 0 M192.381 1508.44 Q188.77 1508.44 186.941 1512 Q185.136 1515.55 185.136 1522.67 Q185.136 1529.78 186.941 1533.35 Q188.77 1536.89 192.381 1536.89 Q196.015 1536.89 197.821 1533.35 Q199.65 1529.78 199.65 1522.67 Q199.65 1515.55 197.821 1512 Q196.015 1508.44 192.381 1508.44 M192.381 1504.73 Q198.191 1504.73 201.247 1509.34 Q204.325 1513.92 204.325 1522.67 Q204.325 1531.4 201.247 1536.01 Q198.191 1540.59 192.381 1540.59 Q186.571 1540.59 183.492 1536.01 Q180.437 1531.4 180.437 1522.67 Q180.437 1513.92 183.492 1509.34 Q186.571 1504.73 192.381 1504.73 Z" fill="#000000" fill-rule="evenodd" fill-opacity="1" /><path clip-path="url(#clip080)" d="M 0 0 M209.395 1534.04 L214.279 1534.04 L214.279 1539.92 L209.395 1539.92 L209.395 1534.04 Z" fill="#000000" fill-rule="evenodd" fill-opacity="1" /><path clip-path="url(#clip080)" d="M 0 0 M220.159 1535.98 L227.798 1535.98 L227.798 1509.62 L219.487 1511.29 L219.487 1507.03 L227.751 1505.36 L232.427 1505.36 L232.427 1535.98 L240.066 1535.98 L240.066 1539.92 L220.159 1539.92 L220.159 1535.98 Z" fill="#000000" fill-rule="evenodd" fill-opacity="1" /><path clip-path="url(#clip080)" d="M 0 0 M608.587 1508.44 Q604.975 1508.44 603.147 1512 Q601.341 1515.55 601.341 1522.67 Q601.341 1529.78 603.147 1533.35 Q604.975 1536.89 608.587 1536.89 Q612.221 1536.89 614.026 1533.35 Q615.855 1529.78 615.855 1522.67 Q615.855 1515.55 614.026 1512 Q612.221 1508.44 608.587 1508.44 M608.587 1504.73 Q614.397 1504.73 617.452 1509.34 Q620.531 1513.92 620.531 1522.67 Q620.531 1531.4 617.452 1536.01 Q614.397 1540.59 608.587 1540.59 Q602.776 1540.59 599.698 1536.01 Q596.642 1531.4 596.642 1522.67 Q596.642 1513.92 599.698 1509.34 Q602.776 1504.73 608.587 1504.73 Z" fill="#000000" fill-rule="evenodd" fill-opacity="1" /><path clip-path="url(#clip080)" d="M 0 0 M625.6 1534.04 L630.485 1534.04 L630.485 1539.92 L625.6 1539.92 L625.6 1534.04 Z" fill="#000000" fill-rule="evenodd" fill-opacity="1" /><path clip-path="url(#clip080)" d="M 0 0 M639.582 1535.98 L655.901 1535.98 L655.901 1539.92 L633.957 1539.92 L633.957 1535.98 Q636.619 1533.23 641.202 1528.6 Q645.809 1523.95 646.989 1522.61 Q649.234 1520.08 650.114 1518.35 Q651.017 1516.59 651.017 1514.9 Q651.017 1512.14 649.072 1510.41 Q647.151 1508.67 644.049 1508.67 Q641.85 1508.67 639.397 1509.43 Q636.966 1510.2 634.188 1511.75 L634.188 1507.03 Q637.012 1505.89 639.466 1505.31 Q641.92 1504.73 643.957 1504.73 Q649.327 1504.73 652.521 1507.42 Q655.716 1510.11 655.716 1514.6 Q655.716 1516.73 654.906 1518.65 Q654.119 1520.54 652.012 1523.14 Q651.434 1523.81 648.332 1527.03 Q645.23 1530.22 639.582 1535.98 Z" fill="#000000" fill-rule="evenodd" fill-opacity="1" /><path clip-path="url(#clip080)" d="M 0 0 M1024.13 1508.44 Q1020.52 1508.44 1018.69 1512 Q1016.89 1515.55 1016.89 1522.67 Q1016.89 1529.78 1018.69 1533.35 Q1020.52 1536.89 1024.13 1536.89 Q1027.77 1536.89 1029.57 1533.35 Q1031.4 1529.78 1031.4 1522.67 Q1031.4 1515.55 1029.57 1512 Q1027.77 1508.44 1024.13 1508.44 M1024.13 1504.73 Q1029.94 1504.73 1033 1509.34 Q1036.08 1513.92 1036.08 1522.67 Q1036.08 1531.4 1033 1536.01 Q1029.94 1540.59 1024.13 1540.59 Q1018.32 1540.59 1015.24 1536.01 Q1012.19 1531.4 1012.19 1522.67 Q1012.19 1513.92 1015.24 1509.34 Q1018.32 1504.73 1024.13 1504.73 Z" fill="#000000" fill-rule="evenodd" fill-opacity="1" /><path clip-path="url(#clip080)" d="M 0 0 M1041.15 1534.04 L1046.03 1534.04 L1046.03 1539.92 L1041.15 1539.92 L1041.15 1534.04 Z" fill="#000000" fill-rule="evenodd" fill-opacity="1" /><path clip-path="url(#clip080)" d="M 0 0 M1065.27 1521.29 Q1068.62 1522 1070.5 1524.27 Q1072.4 1526.54 1072.4 1529.87 Q1072.4 1534.99 1068.88 1537.79 Q1065.36 1540.59 1058.88 1540.59 Q1056.7 1540.59 1054.39 1540.15 Q1052.1 1539.73 1049.64 1538.88 L1049.64 1534.36 Q1051.59 1535.5 1053.9 1536.08 Q1056.22 1536.66 1058.74 1536.66 Q1063.14 1536.66 1065.43 1534.92 Q1067.74 1533.18 1067.74 1529.87 Q1067.74 1526.82 1065.59 1525.11 Q1063.46 1523.37 1059.64 1523.37 L1055.61 1523.37 L1055.61 1519.53 L1059.83 1519.53 Q1063.28 1519.53 1065.1 1518.16 Q1066.93 1516.77 1066.93 1514.18 Q1066.93 1511.52 1065.03 1510.11 Q1063.16 1508.67 1059.64 1508.67 Q1057.72 1508.67 1055.52 1509.09 Q1053.32 1509.5 1050.68 1510.38 L1050.68 1506.22 Q1053.35 1505.48 1055.66 1505.11 Q1058 1504.73 1060.06 1504.73 Q1065.38 1504.73 1068.48 1507.17 Q1071.59 1509.57 1071.59 1513.69 Q1071.59 1516.56 1069.94 1518.55 Q1068.3 1520.52 1065.27 1521.29 Z" fill="#000000" fill-rule="evenodd" fill-opacity="1" /><path clip-path="url(#clip080)" d="M 0 0 M1439.59 1508.44 Q1435.97 1508.44 1434.15 1512 Q1432.34 1515.55 1432.34 1522.67 Q1432.34 1529.78 1434.15 1533.35 Q1435.97 1536.89 1439.59 1536.89 Q1443.22 1536.89 1445.03 1533.35 Q1446.85 1529.78 1446.85 1522.67 Q1446.85 1515.55 1445.03 1512 Q1443.22 1508.44 1439.59 1508.44 M1439.59 1504.73 Q1445.4 1504.73 1448.45 1509.34 Q1451.53 1513.92 1451.53 1522.67 Q1451.53 1531.4 1448.45 1536.01 Q1445.4 1540.59 1439.59 1540.59 Q1433.78 1540.59 1430.7 1536.01 Q1427.64 1531.4 1427.64 1522.67 Q1427.64 1513.92 1430.7 1509.34 Q1433.78 1504.73 1439.59 1504.73 Z" fill="#000000" fill-rule="evenodd" fill-opacity="1" /><path clip-path="url(#clip080)" d="M 0 0 M1456.6 1534.04 L1461.48 1534.04 L1461.48 1539.92 L1456.6 1539.92 L1456.6 1534.04 Z" fill="#000000" fill-rule="evenodd" fill-opacity="1" /><path clip-path="url(#clip080)" d="M 0 0 M1479.4 1509.43 L1467.59 1527.88 L1479.4 1527.88 L1479.4 1509.43 M1478.17 1505.36 L1484.05 1505.36 L1484.05 1527.88 L1488.98 1527.88 L1488.98 1531.77 L1484.05 1531.77 L1484.05 1539.92 L1479.4 1539.92 L1479.4 1531.77 L1463.8 1531.77 L1463.8 1527.26 L1478.17 1505.36 Z" fill="#000000" fill-rule="evenodd" fill-opacity="1" /><path clip-path="url(#clip080)" d="M 0 0 M1856.35 1508.44 Q1852.74 1508.44 1850.91 1512 Q1849.1 1515.55 1849.1 1522.67 Q1849.1 1529.78 1850.91 1533.35 Q1852.74 1536.89 1856.35 1536.89 Q1859.98 1536.89 1861.79 1533.35 Q1863.62 1529.78 1863.62 1522.67 Q1863.62 1515.55 1861.79 1512 Q1859.98 1508.44 1856.35 1508.44 M1856.35 1504.73 Q1862.16 1504.73 1865.21 1509.34 Q1868.29 1513.92 1868.29 1522.67 Q1868.29 1531.4 1865.21 1536.01 Q1862.16 1540.59 1856.35 1540.59 Q1850.54 1540.59 1847.46 1536.01 Q1844.4 1531.4 1844.4 1522.67 Q1844.4 1513.92 1847.46 1509.34 Q1850.54 1504.73 1856.35 1504.73 Z" fill="#000000" fill-rule="evenodd" fill-opacity="1" /><path clip-path="url(#clip080)" d="M 0 0 M1873.36 1534.04 L1878.24 1534.04 L1878.24 1539.92 L1873.36 1539.92 L1873.36 1534.04 Z" fill="#000000" fill-rule="evenodd" fill-opacity="1" /><path clip-path="url(#clip080)" d="M 0 0 M1883.36 1505.36 L1901.72 1505.36 L1901.72 1509.3 L1887.64 1509.3 L1887.64 1517.77 Q1888.66 1517.42 1889.68 1517.26 Q1890.7 1517.07 1891.72 1517.07 Q1897.5 1517.07 1900.88 1520.24 Q1904.26 1523.42 1904.26 1528.83 Q1904.26 1534.41 1900.79 1537.51 Q1897.32 1540.59 1891 1540.59 Q1888.82 1540.59 1886.55 1540.22 Q1884.31 1539.85 1881.9 1539.11 L1881.9 1534.41 Q1883.99 1535.54 1886.21 1536.1 Q1888.43 1536.66 1890.91 1536.66 Q1894.91 1536.66 1897.25 1534.55 Q1899.59 1532.44 1899.59 1528.83 Q1899.59 1525.22 1897.25 1523.11 Q1894.91 1521.01 1890.91 1521.01 Q1889.03 1521.01 1887.16 1521.42 Q1885.3 1521.84 1883.36 1522.72 L1883.36 1505.36 Z" fill="#000000" fill-rule="evenodd" fill-opacity="1" /><path clip-path="url(#clip080)" d="M 0 0 M2271.79 1508.44 Q2268.18 1508.44 2266.35 1512 Q2264.54 1515.55 2264.54 1522.67 Q2264.54 1529.78 2266.35 1533.35 Q2268.18 1536.89 2271.79 1536.89 Q2275.42 1536.89 2277.23 1533.35 Q2279.06 1529.78 2279.06 1522.67 Q2279.06 1515.55 2277.23 1512 Q2275.42 1508.44 2271.79 1508.44 M2271.79 1504.73 Q2277.6 1504.73 2280.65 1509.34 Q2283.73 1513.92 2283.73 1522.67 Q2283.73 1531.4 2280.65 1536.01 Q2277.6 1540.59 2271.79 1540.59 Q2265.98 1540.59 2262.9 1536.01 Q2259.84 1531.4 2259.84 1522.67 Q2259.84 1513.92 2262.9 1509.34 Q2265.98 1504.73 2271.79 1504.73 Z" fill="#000000" fill-rule="evenodd" fill-opacity="1" /><path clip-path="url(#clip080)" d="M 0 0 M2288.8 1534.04 L2293.69 1534.04 L2293.69 1539.92 L2288.8 1539.92 L2288.8 1534.04 Z" fill="#000000" fill-rule="evenodd" fill-opacity="1" /><path clip-path="url(#clip080)" d="M 0 0 M2309.33 1520.78 Q2306.19 1520.78 2304.33 1522.93 Q2302.51 1525.08 2302.51 1528.83 Q2302.51 1532.56 2304.33 1534.73 Q2306.19 1536.89 2309.33 1536.89 Q2312.48 1536.89 2314.31 1534.73 Q2316.16 1532.56 2316.16 1528.83 Q2316.16 1525.08 2314.31 1522.93 Q2312.48 1520.78 2309.33 1520.78 M2318.62 1506.12 L2318.62 1510.38 Q2316.86 1509.55 2315.05 1509.11 Q2313.27 1508.67 2311.51 1508.67 Q2306.88 1508.67 2304.43 1511.8 Q2302 1514.92 2301.65 1521.24 Q2303.01 1519.23 2305.08 1518.16 Q2307.14 1517.07 2309.61 1517.07 Q2314.82 1517.07 2317.83 1520.24 Q2320.86 1523.39 2320.86 1528.83 Q2320.86 1534.16 2317.71 1537.37 Q2314.57 1540.59 2309.33 1540.59 Q2303.34 1540.59 2300.17 1536.01 Q2297 1531.4 2297 1522.67 Q2297 1514.48 2300.89 1509.62 Q2304.77 1504.73 2311.32 1504.73 Q2313.08 1504.73 2314.87 1505.08 Q2316.67 1505.43 2318.62 1506.12 Z" fill="#000000" fill-rule="evenodd" fill-opacity="1" /><path clip-path="url(#clip080)" d="M 0 0 M74.9365 1376.68 Q71.3254 1376.68 69.4967 1380.24 Q67.6912 1383.78 67.6912 1390.91 Q67.6912 1398.02 69.4967 1401.58 Q71.3254 1405.12 74.9365 1405.12 Q78.5707 1405.12 80.3763 1401.58 Q82.205 1398.02 82.205 1390.91 Q82.205 1383.78 80.3763 1380.24 Q78.5707 1376.68 74.9365 1376.68 M74.9365 1372.97 Q80.7467 1372.97 83.8022 1377.58 Q86.8809 1382.16 86.8809 1390.91 Q86.8809 1399.64 83.8022 1404.24 Q80.7467 1408.83 74.9365 1408.83 Q69.1264 1408.83 66.0477 1404.24 Q62.9921 1399.64 62.9921 1390.91 Q62.9921 1382.16 66.0477 1377.58 Q69.1264 1372.97 74.9365 1372.97 Z" fill="#000000" fill-rule="evenodd" fill-opacity="1" /><path clip-path="url(#clip080)" d="M 0 0 M91.9503 1402.28 L96.8345 1402.28 L96.8345 1408.16 L91.9503 1408.16 L91.9503 1402.28 Z" fill="#000000" fill-rule="evenodd" fill-opacity="1" /><path clip-path="url(#clip080)" d="M 0 0 M111.904 1376.68 Q108.293 1376.68 106.464 1380.24 Q104.659 1383.78 104.659 1390.91 Q104.659 1398.02 106.464 1401.58 Q108.293 1405.12 111.904 1405.12 Q115.538 1405.12 117.344 1401.58 Q119.172 1398.02 119.172 1390.91 Q119.172 1383.78 117.344 1380.24 Q115.538 1376.68 111.904 1376.68 M111.904 1372.97 Q117.714 1372.97 120.77 1377.58 Q123.848 1382.16 123.848 1390.91 Q123.848 1399.64 120.77 1404.24 Q117.714 1408.83 111.904 1408.83 Q106.094 1408.83 103.015 1404.24 Q99.9595 1399.64 99.9595 1390.91 Q99.9595 1382.16 103.015 1377.58 Q106.094 1372.97 111.904 1372.97 Z" fill="#000000" fill-rule="evenodd" fill-opacity="1" /><path clip-path="url(#clip080)" d="M 0 0 M76.1634 960.655 Q72.5523 960.655 70.7236 964.22 Q68.918 967.761 68.918 974.891 Q68.918 981.997 70.7236 985.562 Q72.5523 989.104 76.1634 989.104 Q79.7976 989.104 81.6031 985.562 Q83.4318 981.997 83.4318 974.891 Q83.4318 967.761 81.6031 964.22 Q79.7976 960.655 76.1634 960.655 M76.1634 956.951 Q81.9735 956.951 85.029 961.558 Q88.1077 966.141 88.1077 974.891 Q88.1077 983.618 85.029 988.224 Q81.9735 992.807 76.1634 992.807 Q70.3532 992.807 67.2745 988.224 Q64.219 983.618 64.219 974.891 Q64.219 966.141 67.2745 961.558 Q70.3532 956.951 76.1634 956.951 Z" fill="#000000" fill-rule="evenodd" fill-opacity="1" /><path clip-path="url(#clip080)" d="M 0 0 M93.1771 986.257 L98.0614 986.257 L98.0614 992.136 L93.1771 992.136 L93.1771 986.257 Z" fill="#000000" fill-rule="evenodd" fill-opacity="1" /><path clip-path="url(#clip080)" d="M 0 0 M103.941 988.201 L111.58 988.201 L111.58 961.835 L103.27 963.502 L103.27 959.243 L111.534 957.576 L116.209 957.576 L116.209 988.201 L123.848 988.201 L123.848 992.136 L103.941 992.136 L103.941 988.201 Z" fill="#000000" fill-rule="evenodd" fill-opacity="1" /><path clip-path="url(#clip080)" d="M 0 0 M76.5337 544.635 Q72.9226 544.635 71.0939 548.199 Q69.2884 551.741 69.2884 558.871 Q69.2884 565.977 71.0939 569.542 Q72.9226 573.083 76.5337 573.083 Q80.168 573.083 81.9735 569.542 Q83.8022 565.977 83.8022 558.871 Q83.8022 551.741 81.9735 548.199 Q80.168 544.635 76.5337 544.635 M76.5337 540.931 Q82.3439 540.931 85.3994 545.537 Q88.4781 550.121 88.4781 558.871 Q88.4781 567.597 85.3994 572.204 Q82.3439 576.787 76.5337 576.787 Q70.7236 576.787 67.6449 572.204 Q64.5893 567.597 64.5893 558.871 Q64.5893 550.121 67.6449 545.537 Q70.7236 540.931 76.5337 540.931 Z" fill="#000000" fill-rule="evenodd" fill-opacity="1" /><path clip-path="url(#clip080)" d="M 0 0 M93.5475 570.236 L98.4318 570.236 L98.4318 576.116 L93.5475 576.116 L93.5475 570.236 Z" fill="#000000" fill-rule="evenodd" fill-opacity="1" /><path clip-path="url(#clip080)" d="M 0 0 M107.529 572.181 L123.848 572.181 L123.848 576.116 L101.904 576.116 L101.904 572.181 Q104.566 569.426 109.149 564.796 Q113.756 560.144 114.936 558.801 Q117.182 556.278 118.061 554.542 Q118.964 552.783 118.964 551.093 Q118.964 548.338 117.02 546.602 Q115.098 544.866 111.996 544.866 Q109.797 544.866 107.344 545.63 Q104.913 546.394 102.135 547.945 L102.135 543.222 Q104.959 542.088 107.413 541.51 Q109.867 540.931 111.904 540.931 Q117.274 540.931 120.469 543.616 Q123.663 546.301 123.663 550.792 Q123.663 552.922 122.853 554.843 Q122.066 556.741 119.959 559.334 Q119.381 560.005 116.279 563.222 Q113.177 566.417 107.529 572.181 Z" fill="#000000" fill-rule="evenodd" fill-opacity="1" /><path clip-path="url(#clip080)" d="M 0 0 M75.5847 128.614 Q71.9736 128.614 70.1449 132.179 Q68.3393 135.721 68.3393 142.85 Q68.3393 149.957 70.1449 153.521 Q71.9736 157.063 75.5847 157.063 Q79.2189 157.063 81.0244 153.521 Q82.8531 149.957 82.8531 142.85 Q82.8531 135.721 81.0244 132.179 Q79.2189 128.614 75.5847 128.614 M75.5847 124.911 Q81.3948 124.911 84.4503 129.517 Q87.529 134.1 87.529 142.85 Q87.529 151.577 84.4503 156.184 Q81.3948 160.767 75.5847 160.767 Q69.7745 160.767 66.6958 156.184 Q63.6403 151.577 63.6403 142.85 Q63.6403 134.1 66.6958 129.517 Q69.7745 124.911 75.5847 124.911 Z" fill="#000000" fill-rule="evenodd" fill-opacity="1" /><path clip-path="url(#clip080)" d="M 0 0 M92.5984 154.216 L97.4827 154.216 L97.4827 160.096 L92.5984 160.096 L92.5984 154.216 Z" fill="#000000" fill-rule="evenodd" fill-opacity="1" /><path clip-path="url(#clip080)" d="M 0 0 M116.719 141.461 Q120.075 142.179 121.95 144.447 Q123.848 146.716 123.848 150.049 Q123.848 155.165 120.33 157.966 Q116.811 160.767 110.33 160.767 Q108.154 160.767 105.839 160.327 Q103.547 159.91 101.094 159.054 L101.094 154.54 Q103.038 155.674 105.353 156.253 Q107.668 156.832 110.191 156.832 Q114.589 156.832 116.881 155.096 Q119.196 153.359 119.196 150.049 Q119.196 146.994 117.043 145.281 Q114.913 143.545 111.094 143.545 L107.066 143.545 L107.066 139.702 L111.279 139.702 Q114.728 139.702 116.557 138.336 Q118.385 136.948 118.385 134.355 Q118.385 131.693 116.487 130.281 Q114.612 128.846 111.094 128.846 Q109.172 128.846 106.973 129.262 Q104.774 129.679 102.135 130.559 L102.135 126.392 Q104.797 125.651 107.112 125.281 Q109.45 124.911 111.51 124.911 Q116.834 124.911 119.936 127.341 Q123.038 129.748 123.038 133.869 Q123.038 136.739 121.395 138.73 Q119.751 140.697 116.719 141.461 Z" fill="#000000" fill-rule="evenodd" fill-opacity="1" /><path clip-path="url(#clip082)" d="
M1458.31 142.816 L210.251 974.856 L2290.35 1390.88 L1458.31 142.816  Z
  " fill="#008000" fill-rule="evenodd" fill-opacity="0.2"/>
<polyline clip-path="url(#clip082)" style="stroke:#000000; stroke-width:4; stroke-opacity:1; fill:none" points="
  1458.31,142.816 210.251,974.856 2290.35,1390.88 1458.31,142.816 
  "/>
<circle clip-path="url(#clip082)" cx="1458.31" cy="142.816" r="14" fill="#ff0000" fill-rule="evenodd" fill-opacity="1" stroke="#000000" stroke-opacity="1" stroke-width="3.2"/>
<circle clip-path="url(#clip082)" cx="210.251" cy="974.856" r="14" fill="#ff0000" fill-rule="evenodd" fill-opacity="1" stroke="#000000" stroke-opacity="1" stroke-width="3.2"/>
<circle clip-path="url(#clip082)" cx="2290.35" cy="1390.88" r="14" fill="#ff0000" fill-rule="evenodd" fill-opacity="1" stroke="#000000" stroke-opacity="1" stroke-width="3.2"/>
<circle clip-path="url(#clip082)" cx="966.652" cy="1126.14" r="14" fill="#ff0000" fill-rule="evenodd" fill-opacity="1" stroke="#000000" stroke-opacity="1" stroke-width="3.2"/>
<circle clip-path="url(#clip082)" cx="1818.11" cy="682.518" r="14" fill="#ff0000" fill-rule="evenodd" fill-opacity="1" stroke="#000000" stroke-opacity="1" stroke-width="3.2"/>
<circle clip-path="url(#clip082)" cx="745.135" cy="618.267" r="14" fill="#ff0000" fill-rule="evenodd" fill-opacity="1" stroke="#000000" stroke-opacity="1" stroke-width="3.2"/>
<circle clip-path="url(#clip082)" cx="1125.5" cy="808.448" r="14" fill="#ff0000" fill-rule="evenodd" fill-opacity="1" stroke="#000000" stroke-opacity="1" stroke-width="3.2"/>
<path clip-path="url(#clip080)" d="M 0 0 M1458.31 72.2528 L1447.21 102.351 L1469.45 102.351 L1458.31 72.2528 M1453.69 64.1915 L1462.97 64.1915 L1486.02 124.672 L1477.51 124.672 L1472 109.157 L1444.74 109.157 L1439.23 124.672 L1430.6 124.672 L1453.69 64.1915 Z" fill="#000000" fill-rule="evenodd" fill-opacity="1" /><path clip-path="url(#clip080)" d="M 0 0 M196.985 927.829 L196.985 949.988 L210.11 949.988 Q216.713 949.988 219.872 947.274 Q223.072 944.519 223.072 938.888 Q223.072 933.217 219.872 930.543 Q216.713 927.829 210.11 927.829 L196.985 927.829 M196.985 902.957 L196.985 921.186 L209.097 921.186 Q215.092 921.186 218.009 918.958 Q220.966 916.689 220.966 912.071 Q220.966 907.494 218.009 905.225 Q215.092 902.957 209.097 902.957 L196.985 902.957 M188.802 896.232 L209.704 896.232 Q219.062 896.232 224.126 900.121 Q229.189 904.01 229.189 911.18 Q229.189 916.73 226.597 920.011 Q224.004 923.292 218.981 924.102 Q225.017 925.399 228.339 929.531 Q231.701 933.622 231.701 939.779 Q231.701 947.881 226.192 952.297 Q220.682 956.712 210.515 956.712 L188.802 956.712 L188.802 896.232 Z" fill="#000000" fill-rule="evenodd" fill-opacity="1" /><path clip-path="url(#clip080)" d="M 0 0 M2314.74 1316.91 L2314.74 1325.54 Q2310.61 1321.69 2305.91 1319.79 Q2301.25 1317.88 2295.98 1317.88 Q2285.61 1317.88 2280.1 1324.24 Q2274.59 1330.56 2274.59 1342.55 Q2274.59 1354.5 2280.1 1360.86 Q2285.61 1367.18 2295.98 1367.18 Q2301.25 1367.18 2305.91 1365.28 Q2310.61 1363.37 2314.74 1359.53 L2314.74 1368.07 Q2310.45 1370.99 2305.62 1372.45 Q2300.84 1373.91 2295.5 1373.91 Q2281.76 1373.91 2273.87 1365.52 Q2265.97 1357.1 2265.97 1342.55 Q2265.97 1327.97 2273.87 1319.58 Q2281.76 1311.16 2295.5 1311.16 Q2300.93 1311.16 2305.71 1312.62 Q2310.53 1314.03 2314.74 1316.91 Z" fill="#000000" fill-rule="evenodd" fill-opacity="1" /><path clip-path="url(#clip080)" d="M 0 0 M949.415 1054.24 L949.415 1101.27 L959.299 1101.27 Q971.817 1101.27 977.61 1095.6 Q983.443 1089.93 983.443 1077.69 Q983.443 1065.54 977.61 1059.91 Q971.817 1054.24 959.299 1054.24 L949.415 1054.24 M941.232 1047.51 L958.044 1047.51 Q975.625 1047.51 983.848 1054.84 Q992.071 1062.14 992.071 1077.69 Q992.071 1093.33 983.807 1100.66 Q975.544 1107.99 958.044 1107.99 L941.232 1107.99 L941.232 1047.51 Z" fill="#000000" fill-rule="evenodd" fill-opacity="1" /><path clip-path="url(#clip080)" d="M 0 0 M1798.63 603.894 L1836.87 603.894 L1836.87 610.78 L1806.81 610.78 L1806.81 628.685 L1835.61 628.685 L1835.61 635.572 L1806.81 635.572 L1806.81 657.487 L1837.6 657.487 L1837.6 664.374 L1798.63 664.374 L1798.63 603.894 Z" fill="#000000" fill-rule="evenodd" fill-opacity="1" /><path clip-path="url(#clip080)" d="M 0 0 M727.756 539.643 L762.513 539.643 L762.513 546.53 L735.939 546.53 L735.939 564.354 L759.92 564.354 L759.92 571.24 L735.939 571.24 L735.939 600.123 L727.756 600.123 L727.756 539.643 Z" fill="#000000" fill-rule="evenodd" fill-opacity="1" /><path clip-path="url(#clip080)" d="M 0 0 M1125.54 735.374 Q1116.62 735.374 1111.36 742.017 Q1106.13 748.661 1106.13 760.125 Q1106.13 771.548 1111.36 778.192 Q1116.62 784.835 1125.54 784.835 Q1134.45 784.835 1139.63 778.192 Q1144.86 771.548 1144.86 760.125 Q1144.86 748.661 1139.63 742.017 Q1134.45 735.374 1125.54 735.374 M1125.54 728.73 Q1138.26 728.73 1145.87 737.278 Q1153.49 745.785 1153.49 760.125 Q1153.49 774.424 1145.87 782.972 Q1138.26 791.479 1125.54 791.479 Q1112.78 791.479 1105.12 782.972 Q1097.5 774.465 1097.5 760.125 Q1097.5 745.785 1105.12 737.278 Q1112.78 728.73 1125.54 728.73 Z" fill="#000000" fill-rule="evenodd" fill-opacity="1" /><polyline clip-path="url(#clip082)" style="stroke:#ffa500; stroke-width:4; stroke-opacity:1; fill:none" points="
  1458.31,142.816 966.652,1126.14 
  "/>
<polyline clip-path="url(#clip082)" style="stroke:#ffa500; stroke-width:4; stroke-opacity:1; fill:none" points="
  210.251,974.856 1818.11,682.518 
  "/>
<polyline clip-path="url(#clip082)" style="stroke:#ffa500; stroke-width:4; stroke-opacity:1; fill:none" points="
  2290.35,1390.88 745.135,618.267 
  "/>
</svg>
