<?xml version="1.0" encoding="utf-8"?>
<svg xmlns="http://www.w3.org/2000/svg" xmlns:xlink="http://www.w3.org/1999/xlink" width="600" height="400" viewBox="0 0 2400 1600">
<defs>
  <clipPath id="clip160">
    <rect x="0" y="0" width="2400" height="1600"/>
  </clipPath>
</defs>
<path clip-path="url(#clip160)" d="
M0 1600 L2400 1600 L2400 0 L0 0  Z
  " fill="#ffffff" fill-rule="evenodd" fill-opacity="1"/>
<defs>
  <clipPath id="clip161">
    <rect x="480" y="0" width="1681" height="1600"/>
  </clipPath>
</defs>
<path clip-path="url(#clip160)" d="
M175.348 1486.45 L2352.76 1486.45 L2352.76 47.2441 L175.348 47.2441  Z
  " fill="#ffffff" fill-rule="evenodd" fill-opacity="1"/>
<defs>
  <clipPath id="clip162">
    <rect x="175" y="47" width="2178" height="1440"/>
  </clipPath>
</defs>
<polyline clip-path="url(#clip162)" style="stroke:#000000; stroke-width:2; stroke-opacity:0.1; fill:none" points="
  236.973,1486.45 236.973,47.2441 
  "/>
<polyline clip-path="url(#clip162)" style="stroke:#000000; stroke-width:2; stroke-opacity:0.1; fill:none" points="
  579.333,1486.45 579.333,47.2441 
  "/>
<polyline clip-path="url(#clip162)" style="stroke:#000000; stroke-width:2; stroke-opacity:0.1; fill:none" points="
  921.692,1486.45 921.692,47.2441 
  "/>
<polyline clip-path="url(#clip162)" style="stroke:#000000; stroke-width:2; stroke-opacity:0.1; fill:none" points="
  1264.05,1486.45 1264.05,47.2441 
  "/>
<polyline clip-path="url(#clip162)" style="stroke:#000000; stroke-width:2; stroke-opacity:0.1; fill:none" points="
  1606.41,1486.45 1606.41,47.2441 
  "/>
<polyline clip-path="url(#clip162)" style="stroke:#000000; stroke-width:2; stroke-opacity:0.1; fill:none" points="
  1948.77,1486.45 1948.77,47.2441 
  "/>
<polyline clip-path="url(#clip162)" style="stroke:#000000; stroke-width:2; stroke-opacity:0.1; fill:none" points="
  2291.13,1486.45 2291.13,47.2441 
  "/>
<polyline clip-path="url(#clip162)" style="stroke:#000000; stroke-width:2; stroke-opacity:0.1; fill:none" points="
  175.348,1451.57 2352.76,1451.57 
  "/>
<polyline clip-path="url(#clip162)" style="stroke:#000000; stroke-width:2; stroke-opacity:0.1; fill:none" points="
  175.348,1109.21 2352.76,1109.21 
  "/>
<polyline clip-path="url(#clip162)" style="stroke:#000000; stroke-width:2; stroke-opacity:0.1; fill:none" points="
  175.348,766.846 2352.76,766.846 
  "/>
<polyline clip-path="url(#clip162)" style="stroke:#000000; stroke-width:2; stroke-opacity:0.1; fill:none" points="
  175.348,424.486 2352.76,424.486 
  "/>
<polyline clip-path="url(#clip162)" style="stroke:#000000; stroke-width:2; stroke-opacity:0.1; fill:none" points="
  175.348,82.1266 2352.76,82.1266 
  "/>
<polyline clip-path="url(#clip160)" style="stroke:#000000; stroke-width:4; stroke-opacity:1; fill:none" points="
  175.348,1486.45 2352.76,1486.45 
  "/>
<polyline clip-path="url(#clip160)" style="stroke:#000000; stroke-width:4; stroke-opacity:1; fill:none" points="
  175.348,1486.45 175.348,47.2441 
  "/>
<polyline clip-path="url(#clip160)" style="stroke:#000000; stroke-width:4; stroke-opacity:1; fill:none" points="
  236.973,1486.45 236.973,1469.18 
  "/>
<polyline clip-path="url(#clip160)" style="stroke:#000000; stroke-width:4; stroke-opacity:1; fill:none" points="
  579.333,1486.45 579.333,1469.18 
  "/>
<polyline clip-path="url(#clip160)" style="stroke:#000000; stroke-width:4; stroke-opacity:1; fill:none" points="
  921.692,1486.45 921.692,1469.18 
  "/>
<polyline clip-path="url(#clip160)" style="stroke:#000000; stroke-width:4; stroke-opacity:1; fill:none" points="
  1264.05,1486.45 1264.05,1469.18 
  "/>
<polyline clip-path="url(#clip160)" style="stroke:#000000; stroke-width:4; stroke-opacity:1; fill:none" points="
  1606.41,1486.45 1606.41,1469.18 
  "/>
<polyline clip-path="url(#clip160)" style="stroke:#000000; stroke-width:4; stroke-opacity:1; fill:none" points="
  1948.77,1486.45 1948.77,1469.18 
  "/>
<polyline clip-path="url(#clip160)" style="stroke:#000000; stroke-width:4; stroke-opacity:1; fill:none" points="
  2291.13,1486.45 2291.13,1469.18 
  "/>
<polyline clip-path="url(#clip160)" style="stroke:#000000; stroke-width:4; stroke-opacity:1; fill:none" points="
  175.348,1451.57 201.477,1451.57 
  "/>
<polyline clip-path="url(#clip160)" style="stroke:#000000; stroke-width:4; stroke-opacity:1; fill:none" points="
  175.348,1109.21 201.477,1109.21 
  "/>
<polyline clip-path="url(#clip160)" style="stroke:#000000; stroke-width:4; stroke-opacity:1; fill:none" points="
  175.348,766.846 201.477,766.846 
  "/>
<polyline clip-path="url(#clip160)" style="stroke:#000000; stroke-width:4; stroke-opacity:1; fill:none" points="
  175.348,424.486 201.477,424.486 
  "/>
<polyline clip-path="url(#clip160)" style="stroke:#000000; stroke-width:4; stroke-opacity:1; fill:none" points="
  175.348,82.1266 201.477,82.1266 
  "/>
<path clip-path="url(#clip160)" d="M 0 0 M218.246 1508.44 Q214.635 1508.44 212.806 1512 Q211.001 1515.55 211.001 1522.67 Q211.001 1529.78 212.806 1533.35 Q214.635 1536.89 218.246 1536.89 Q221.88 1536.89 223.686 1533.35 Q225.515 1529.78 225.515 1522.67 Q225.515 1515.55 223.686 1512 Q221.88 1508.44 218.246 1508.44 M218.246 1504.73 Q224.056 1504.73 227.112 1509.34 Q230.191 1513.92 230.191 1522.67 Q230.191 1531.4 227.112 1536.01 Q224.056 1540.59 218.246 1540.59 Q212.436 1540.59 209.357 1536.01 Q206.302 1531.4 206.302 1522.67 Q206.302 1513.92 209.357 1509.34 Q212.436 1504.73 218.246 1504.73 Z" fill="#000000" fill-rule="evenodd" fill-opacity="1" /><path clip-path="url(#clip160)" d="M 0 0 M235.26 1534.04 L240.144 1534.04 L240.144 1539.92 L235.26 1539.92 L235.26 1534.04 Z" fill="#000000" fill-rule="evenodd" fill-opacity="1" /><path clip-path="url(#clip160)" d="M 0 0 M258.061 1509.43 L246.255 1527.88 L258.061 1527.88 L258.061 1509.43 M256.834 1505.36 L262.713 1505.36 L262.713 1527.88 L267.644 1527.88 L267.644 1531.77 L262.713 1531.77 L262.713 1539.92 L258.061 1539.92 L258.061 1531.77 L242.459 1531.77 L242.459 1527.26 L256.834 1505.36 Z" fill="#000000" fill-rule="evenodd" fill-opacity="1" /><path clip-path="url(#clip160)" d="M 0 0 M561.347 1508.44 Q557.735 1508.44 555.907 1512 Q554.101 1515.55 554.101 1522.67 Q554.101 1529.78 555.907 1533.35 Q557.735 1536.89 561.347 1536.89 Q564.981 1536.89 566.786 1533.35 Q568.615 1529.78 568.615 1522.67 Q568.615 1515.55 566.786 1512 Q564.981 1508.44 561.347 1508.44 M561.347 1504.73 Q567.157 1504.73 570.212 1509.34 Q573.291 1513.92 573.291 1522.67 Q573.291 1531.4 570.212 1536.01 Q567.157 1540.59 561.347 1540.59 Q555.536 1540.59 552.458 1536.01 Q549.402 1531.4 549.402 1522.67 Q549.402 1513.92 552.458 1509.34 Q555.536 1504.73 561.347 1504.73 Z" fill="#000000" fill-rule="evenodd" fill-opacity="1" /><path clip-path="url(#clip160)" d="M 0 0 M578.36 1534.04 L583.245 1534.04 L583.245 1539.92 L578.36 1539.92 L578.36 1534.04 Z" fill="#000000" fill-rule="evenodd" fill-opacity="1" /><path clip-path="url(#clip160)" d="M 0 0 M588.36 1505.36 L606.717 1505.36 L606.717 1509.3 L592.643 1509.3 L592.643 1517.77 Q593.661 1517.42 594.68 1517.26 Q595.698 1517.07 596.717 1517.07 Q602.504 1517.07 605.883 1520.24 Q609.263 1523.42 609.263 1528.83 Q609.263 1534.41 605.791 1537.51 Q602.319 1540.59 595.999 1540.59 Q593.823 1540.59 591.555 1540.22 Q589.309 1539.85 586.902 1539.11 L586.902 1534.41 Q588.985 1535.54 591.208 1536.1 Q593.43 1536.66 595.907 1536.66 Q599.911 1536.66 602.249 1534.55 Q604.587 1532.44 604.587 1528.83 Q604.587 1525.22 602.249 1523.11 Q599.911 1521.01 595.907 1521.01 Q594.032 1521.01 592.157 1521.42 Q590.305 1521.84 588.36 1522.72 L588.36 1505.36 Z" fill="#000000" fill-rule="evenodd" fill-opacity="1" /><path clip-path="url(#clip160)" d="M 0 0 M903.128 1508.44 Q899.517 1508.44 897.688 1512 Q895.882 1515.55 895.882 1522.67 Q895.882 1529.78 897.688 1533.35 Q899.517 1536.89 903.128 1536.89 Q906.762 1536.89 908.567 1533.35 Q910.396 1529.78 910.396 1522.67 Q910.396 1515.55 908.567 1512 Q906.762 1508.44 903.128 1508.44 M903.128 1504.73 Q908.938 1504.73 911.993 1509.34 Q915.072 1513.92 915.072 1522.67 Q915.072 1531.4 911.993 1536.01 Q908.938 1540.59 903.128 1540.59 Q897.317 1540.59 894.239 1536.01 Q891.183 1531.4 891.183 1522.67 Q891.183 1513.92 894.239 1509.34 Q897.317 1504.73 903.128 1504.73 Z" fill="#000000" fill-rule="evenodd" fill-opacity="1" /><path clip-path="url(#clip160)" d="M 0 0 M920.141 1534.04 L925.026 1534.04 L925.026 1539.92 L920.141 1539.92 L920.141 1534.04 Z" fill="#000000" fill-rule="evenodd" fill-opacity="1" /><path clip-path="url(#clip160)" d="M 0 0 M940.674 1520.78 Q937.526 1520.78 935.674 1522.93 Q933.845 1525.08 933.845 1528.83 Q933.845 1532.56 935.674 1534.73 Q937.526 1536.89 940.674 1536.89 Q943.822 1536.89 945.651 1534.73 Q947.502 1532.56 947.502 1528.83 Q947.502 1525.08 945.651 1522.93 Q943.822 1520.78 940.674 1520.78 M949.956 1506.12 L949.956 1510.38 Q948.197 1509.55 946.391 1509.11 Q944.609 1508.67 942.85 1508.67 Q938.22 1508.67 935.766 1511.8 Q933.336 1514.92 932.989 1521.24 Q934.354 1519.23 936.414 1518.16 Q938.475 1517.07 940.951 1517.07 Q946.16 1517.07 949.169 1520.24 Q952.201 1523.39 952.201 1528.83 Q952.201 1534.16 949.053 1537.37 Q945.905 1540.59 940.674 1540.59 Q934.678 1540.59 931.507 1536.01 Q928.336 1531.4 928.336 1522.67 Q928.336 1514.48 932.225 1509.62 Q936.114 1504.73 942.664 1504.73 Q944.424 1504.73 946.206 1505.08 Q948.012 1505.43 949.956 1506.12 Z" fill="#000000" fill-rule="evenodd" fill-opacity="1" /><path clip-path="url(#clip160)" d="M 0 0 M1246.02 1508.44 Q1242.41 1508.44 1240.58 1512 Q1238.77 1515.55 1238.77 1522.67 Q1238.77 1529.78 1240.58 1533.35 Q1242.41 1536.89 1246.02 1536.89 Q1249.65 1536.89 1251.46 1533.35 Q1253.29 1529.78 1253.29 1522.67 Q1253.29 1515.55 1251.46 1512 Q1249.65 1508.44 1246.02 1508.44 M1246.02 1504.73 Q1251.83 1504.73 1254.89 1509.34 Q1257.96 1513.92 1257.96 1522.67 Q1257.96 1531.4 1254.89 1536.01 Q1251.83 1540.59 1246.02 1540.59 Q1240.21 1540.59 1237.13 1536.01 Q1234.08 1531.4 1234.08 1522.67 Q1234.08 1513.92 1237.13 1509.34 Q1240.21 1504.73 1246.02 1504.73 Z" fill="#000000" fill-rule="evenodd" fill-opacity="1" /><path clip-path="url(#clip160)" d="M 0 0 M1263.03 1534.04 L1267.92 1534.04 L1267.92 1539.92 L1263.03 1539.92 L1263.03 1534.04 Z" fill="#000000" fill-rule="evenodd" fill-opacity="1" /><path clip-path="url(#clip160)" d="M 0 0 M1271.81 1505.36 L1294.03 1505.36 L1294.03 1507.35 L1281.48 1539.92 L1276.6 1539.92 L1288.4 1509.3 L1271.81 1509.3 L1271.81 1505.36 Z" fill="#000000" fill-rule="evenodd" fill-opacity="1" /><path clip-path="url(#clip160)" d="M 0 0 M1587.97 1508.44 Q1584.36 1508.44 1582.53 1512 Q1580.73 1515.55 1580.73 1522.67 Q1580.73 1529.78 1582.53 1533.35 Q1584.36 1536.89 1587.97 1536.89 Q1591.61 1536.89 1593.41 1533.35 Q1595.24 1529.78 1595.24 1522.67 Q1595.24 1515.55 1593.41 1512 Q1591.61 1508.44 1587.97 1508.44 M1587.97 1504.73 Q1593.78 1504.73 1596.84 1509.34 Q1599.92 1513.92 1599.92 1522.67 Q1599.92 1531.4 1596.84 1536.01 Q1593.78 1540.59 1587.97 1540.59 Q1582.16 1540.59 1579.09 1536.01 Q1576.03 1531.4 1576.03 1522.67 Q1576.03 1513.92 1579.09 1509.34 Q1582.16 1504.73 1587.97 1504.73 Z" fill="#000000" fill-rule="evenodd" fill-opacity="1" /><path clip-path="url(#clip160)" d="M 0 0 M1604.99 1534.04 L1609.87 1534.04 L1609.87 1539.92 L1604.99 1539.92 L1604.99 1534.04 Z" fill="#000000" fill-rule="evenodd" fill-opacity="1" /><path clip-path="url(#clip160)" d="M 0 0 M1624.94 1523.51 Q1621.61 1523.51 1619.69 1525.29 Q1617.79 1527.07 1617.79 1530.2 Q1617.79 1533.32 1619.69 1535.11 Q1621.61 1536.89 1624.94 1536.89 Q1628.28 1536.89 1630.2 1535.11 Q1632.12 1533.3 1632.12 1530.2 Q1632.12 1527.07 1630.2 1525.29 Q1628.3 1523.51 1624.94 1523.51 M1620.27 1521.52 Q1617.26 1520.78 1615.57 1518.72 Q1613.9 1516.66 1613.9 1513.69 Q1613.9 1509.55 1616.84 1507.14 Q1619.8 1504.73 1624.94 1504.73 Q1630.1 1504.73 1633.04 1507.14 Q1635.98 1509.55 1635.98 1513.69 Q1635.98 1516.66 1634.29 1518.72 Q1632.63 1520.78 1629.64 1521.52 Q1633.02 1522.3 1634.9 1524.6 Q1636.79 1526.89 1636.79 1530.2 Q1636.79 1535.22 1633.71 1537.91 Q1630.66 1540.59 1624.94 1540.59 Q1619.22 1540.59 1616.15 1537.91 Q1613.09 1535.22 1613.09 1530.2 Q1613.09 1526.89 1614.99 1524.6 Q1616.89 1522.3 1620.27 1521.52 M1618.55 1514.13 Q1618.55 1516.82 1620.22 1518.32 Q1621.91 1519.83 1624.94 1519.83 Q1627.95 1519.83 1629.64 1518.32 Q1631.35 1516.82 1631.35 1514.13 Q1631.35 1511.45 1629.64 1509.94 Q1627.95 1508.44 1624.94 1508.44 Q1621.91 1508.44 1620.22 1509.94 Q1618.55 1511.45 1618.55 1514.13 Z" fill="#000000" fill-rule="evenodd" fill-opacity="1" /><path clip-path="url(#clip160)" d="M 0 0 M1930.38 1508.44 Q1926.77 1508.44 1924.94 1512 Q1923.14 1515.55 1923.14 1522.67 Q1923.14 1529.78 1924.94 1533.35 Q1926.77 1536.89 1930.38 1536.89 Q1934.01 1536.89 1935.82 1533.35 Q1937.65 1529.78 1937.65 1522.67 Q1937.65 1515.55 1935.82 1512 Q1934.01 1508.44 1930.38 1508.44 M1930.38 1504.73 Q1936.19 1504.73 1939.25 1509.34 Q1942.32 1513.92 1942.32 1522.67 Q1942.32 1531.4 1939.25 1536.01 Q1936.19 1540.59 1930.38 1540.59 Q1924.57 1540.59 1921.49 1536.01 Q1918.44 1531.4 1918.44 1522.67 Q1918.44 1513.92 1921.49 1509.34 Q1924.57 1504.73 1930.38 1504.73 Z" fill="#000000" fill-rule="evenodd" fill-opacity="1" /><path clip-path="url(#clip160)" d="M 0 0 M1947.39 1534.04 L1952.28 1534.04 L1952.28 1539.92 L1947.39 1539.92 L1947.39 1534.04 Z" fill="#000000" fill-rule="evenodd" fill-opacity="1" /><path clip-path="url(#clip160)" d="M 0 0 M1957.49 1539.2 L1957.49 1534.94 Q1959.25 1535.78 1961.05 1536.22 Q1962.86 1536.66 1964.59 1536.66 Q1969.22 1536.66 1971.65 1533.55 Q1974.11 1530.43 1974.45 1524.09 Q1973.11 1526.08 1971.05 1527.14 Q1968.99 1528.21 1966.49 1528.21 Q1961.31 1528.21 1958.27 1525.08 Q1955.26 1521.93 1955.26 1516.49 Q1955.26 1511.17 1958.41 1507.95 Q1961.56 1504.73 1966.79 1504.73 Q1972.79 1504.73 1975.94 1509.34 Q1979.11 1513.92 1979.11 1522.67 Q1979.11 1530.85 1975.22 1535.73 Q1971.35 1540.59 1964.8 1540.59 Q1963.04 1540.59 1961.24 1540.24 Q1959.43 1539.9 1957.49 1539.2 M1966.79 1524.55 Q1969.94 1524.55 1971.77 1522.4 Q1973.62 1520.24 1973.62 1516.49 Q1973.62 1512.77 1971.77 1510.61 Q1969.94 1508.44 1966.79 1508.44 Q1963.64 1508.44 1961.79 1510.61 Q1959.96 1512.77 1959.96 1516.49 Q1959.96 1520.24 1961.79 1522.4 Q1963.64 1524.55 1966.79 1524.55 Z" fill="#000000" fill-rule="evenodd" fill-opacity="1" /><path clip-path="url(#clip160)" d="M 0 0 M2263.03 1535.98 L2270.67 1535.98 L2270.67 1509.62 L2262.36 1511.29 L2262.36 1507.03 L2270.62 1505.36 L2275.3 1505.36 L2275.3 1535.98 L2282.94 1535.98 L2282.94 1539.92 L2263.03 1539.92 L2263.03 1535.98 Z" fill="#000000" fill-rule="evenodd" fill-opacity="1" /><path clip-path="url(#clip160)" d="M 0 0 M2288.01 1534.04 L2292.89 1534.04 L2292.89 1539.92 L2288.01 1539.92 L2288.01 1534.04 Z" fill="#000000" fill-rule="evenodd" fill-opacity="1" /><path clip-path="url(#clip160)" d="M 0 0 M2307.96 1508.44 Q2304.35 1508.44 2302.52 1512 Q2300.71 1515.55 2300.71 1522.67 Q2300.71 1529.78 2302.52 1533.35 Q2304.35 1536.89 2307.96 1536.89 Q2311.59 1536.89 2313.4 1533.35 Q2315.23 1529.78 2315.23 1522.67 Q2315.23 1515.55 2313.4 1512 Q2311.59 1508.44 2307.96 1508.44 M2307.96 1504.73 Q2313.77 1504.73 2316.83 1509.34 Q2319.9 1513.92 2319.9 1522.67 Q2319.9 1531.4 2316.83 1536.01 Q2313.77 1540.59 2307.96 1540.59 Q2302.15 1540.59 2299.07 1536.01 Q2296.02 1531.4 2296.02 1522.67 Q2296.02 1513.92 2299.07 1509.34 Q2302.15 1504.73 2307.96 1504.73 Z" fill="#000000" fill-rule="evenodd" fill-opacity="1" /><path clip-path="url(#clip160)" d="M 0 0 M103.085 1437.36 Q99.4734 1437.36 97.6447 1440.93 Q95.8392 1444.47 95.8392 1451.6 Q95.8392 1458.71 97.6447 1462.27 Q99.4734 1465.81 103.085 1465.81 Q106.719 1465.81 108.524 1462.27 Q110.353 1458.71 110.353 1451.6 Q110.353 1444.47 108.524 1440.93 Q106.719 1437.36 103.085 1437.36 M103.085 1433.66 Q108.895 1433.66 111.95 1438.27 Q115.029 1442.85 115.029 1451.6 Q115.029 1460.33 111.95 1464.93 Q108.895 1469.52 103.085 1469.52 Q97.2743 1469.52 94.1957 1464.93 Q91.1401 1460.33 91.1401 1451.6 Q91.1401 1442.85 94.1957 1438.27 Q97.2743 1433.66 103.085 1433.66 Z" fill="#000000" fill-rule="evenodd" fill-opacity="1" /><path clip-path="url(#clip160)" d="M 0 0 M120.098 1462.97 L124.983 1462.97 L124.983 1468.85 L120.098 1468.85 L120.098 1462.97 Z" fill="#000000" fill-rule="evenodd" fill-opacity="1" /><path clip-path="url(#clip160)" d="M 0 0 M144.219 1450.21 Q147.575 1450.93 149.45 1453.2 Q151.348 1455.47 151.348 1458.8 Q151.348 1463.91 147.83 1466.72 Q144.311 1469.52 137.83 1469.52 Q135.654 1469.52 133.339 1469.08 Q131.047 1468.66 128.594 1467.8 L128.594 1463.29 Q130.538 1464.42 132.853 1465 Q135.168 1465.58 137.691 1465.58 Q142.089 1465.58 144.381 1463.85 Q146.695 1462.11 146.695 1458.8 Q146.695 1455.74 144.543 1454.03 Q142.413 1452.29 138.594 1452.29 L134.566 1452.29 L134.566 1448.45 L138.779 1448.45 Q142.228 1448.45 144.057 1447.09 Q145.885 1445.7 145.885 1443.1 Q145.885 1440.44 143.987 1439.03 Q142.112 1437.6 138.594 1437.6 Q136.672 1437.6 134.473 1438.01 Q132.274 1438.43 129.635 1439.31 L129.635 1435.14 Q132.297 1434.4 134.612 1434.03 Q136.95 1433.66 139.01 1433.66 Q144.334 1433.66 147.436 1436.09 Q150.538 1438.5 150.538 1442.62 Q150.538 1445.49 148.894 1447.48 Q147.251 1449.45 144.219 1450.21 Z" fill="#000000" fill-rule="evenodd" fill-opacity="1" /><path clip-path="url(#clip160)" d="M 0 0 M101.95 1095 Q98.3392 1095 96.5105 1098.57 Q94.7049 1102.11 94.7049 1109.24 Q94.7049 1116.35 96.5105 1119.91 Q98.3392 1123.45 101.95 1123.45 Q105.584 1123.45 107.39 1119.91 Q109.219 1116.35 109.219 1109.24 Q109.219 1102.11 107.39 1098.57 Q105.584 1095 101.95 1095 M101.95 1091.3 Q107.76 1091.3 110.816 1095.91 Q113.895 1100.49 113.895 1109.24 Q113.895 1117.97 110.816 1122.57 Q107.76 1127.16 101.95 1127.16 Q96.1401 1127.16 93.0614 1122.57 Q90.0059 1117.97 90.0059 1109.24 Q90.0059 1100.49 93.0614 1095.91 Q96.1401 1091.3 101.95 1091.3 Z" fill="#000000" fill-rule="evenodd" fill-opacity="1" /><path clip-path="url(#clip160)" d="M 0 0 M118.964 1120.61 L123.848 1120.61 L123.848 1126.49 L118.964 1126.49 L118.964 1120.61 Z" fill="#000000" fill-rule="evenodd" fill-opacity="1" /><path clip-path="url(#clip160)" d="M 0 0 M141.765 1096 L129.959 1114.45 L141.765 1114.45 L141.765 1096 M140.538 1091.93 L146.418 1091.93 L146.418 1114.45 L151.348 1114.45 L151.348 1118.34 L146.418 1118.34 L146.418 1126.49 L141.765 1126.49 L141.765 1118.34 L126.163 1118.34 L126.163 1113.82 L140.538 1091.93 Z" fill="#000000" fill-rule="evenodd" fill-opacity="1" /><path clip-path="url(#clip160)" d="M 0 0 M103.432 752.645 Q99.8206 752.645 97.9919 756.209 Q96.1864 759.751 96.1864 766.881 Q96.1864 773.987 97.9919 777.552 Q99.8206 781.094 103.432 781.094 Q107.066 781.094 108.872 777.552 Q110.7 773.987 110.7 766.881 Q110.7 759.751 108.872 756.209 Q107.066 752.645 103.432 752.645 M103.432 748.941 Q109.242 748.941 112.297 753.547 Q115.376 758.131 115.376 766.881 Q115.376 775.608 112.297 780.214 Q109.242 784.797 103.432 784.797 Q97.6216 784.797 94.5429 780.214 Q91.4873 775.608 91.4873 766.881 Q91.4873 758.131 94.5429 753.547 Q97.6216 748.941 103.432 748.941 Z" fill="#000000" fill-rule="evenodd" fill-opacity="1" /><path clip-path="url(#clip160)" d="M 0 0 M120.446 778.246 L125.33 778.246 L125.33 784.126 L120.446 784.126 L120.446 778.246 Z" fill="#000000" fill-rule="evenodd" fill-opacity="1" /><path clip-path="url(#clip160)" d="M 0 0 M130.445 749.566 L148.802 749.566 L148.802 753.501 L134.728 753.501 L134.728 761.973 Q135.746 761.626 136.765 761.464 Q137.783 761.279 138.802 761.279 Q144.589 761.279 147.969 764.45 Q151.348 767.621 151.348 773.038 Q151.348 778.617 147.876 781.719 Q144.404 784.797 138.084 784.797 Q135.908 784.797 133.64 784.427 Q131.395 784.057 128.987 783.316 L128.987 778.617 Q131.07 779.751 133.293 780.307 Q135.515 780.862 137.992 780.862 Q141.996 780.862 144.334 778.756 Q146.672 776.649 146.672 773.038 Q146.672 769.427 144.334 767.321 Q141.996 765.214 137.992 765.214 Q136.117 765.214 134.242 765.631 Q132.39 766.047 130.445 766.927 L130.445 749.566 Z" fill="#000000" fill-rule="evenodd" fill-opacity="1" /><path clip-path="url(#clip160)" d="M 0 0 M102.274 410.285 Q98.6632 410.285 96.8345 413.85 Q95.029 417.391 95.029 424.521 Q95.029 431.627 96.8345 435.192 Q98.6632 438.734 102.274 438.734 Q105.909 438.734 107.714 435.192 Q109.543 431.627 109.543 424.521 Q109.543 417.391 107.714 413.85 Q105.909 410.285 102.274 410.285 M102.274 406.581 Q108.084 406.581 111.14 411.188 Q114.219 415.771 114.219 424.521 Q114.219 433.248 111.14 437.854 Q108.084 442.438 102.274 442.438 Q96.4642 442.438 93.3855 437.854 Q90.3299 433.248 90.3299 424.521 Q90.3299 415.771 93.3855 411.188 Q96.4642 406.581 102.274 406.581 Z" fill="#000000" fill-rule="evenodd" fill-opacity="1" /><path clip-path="url(#clip160)" d="M 0 0 M119.288 435.887 L124.172 435.887 L124.172 441.766 L119.288 441.766 L119.288 435.887 Z" fill="#000000" fill-rule="evenodd" fill-opacity="1" /><path clip-path="url(#clip160)" d="M 0 0 M139.82 422.623 Q136.672 422.623 134.82 424.776 Q132.992 426.928 132.992 430.678 Q132.992 434.405 134.82 436.581 Q136.672 438.734 139.82 438.734 Q142.969 438.734 144.797 436.581 Q146.649 434.405 146.649 430.678 Q146.649 426.928 144.797 424.776 Q142.969 422.623 139.82 422.623 M149.103 407.97 L149.103 412.229 Q147.344 411.396 145.538 410.956 Q143.756 410.516 141.996 410.516 Q137.367 410.516 134.913 413.641 Q132.482 416.766 132.135 423.086 Q133.501 421.072 135.561 420.007 Q137.621 418.919 140.098 418.919 Q145.306 418.919 148.316 422.09 Q151.348 425.239 151.348 430.678 Q151.348 436.002 148.2 439.22 Q145.052 442.438 139.82 442.438 Q133.825 442.438 130.654 437.854 Q127.483 433.248 127.483 424.521 Q127.483 416.327 131.371 411.466 Q135.26 406.581 141.811 406.581 Q143.57 406.581 145.353 406.928 Q147.158 407.276 149.103 407.97 Z" fill="#000000" fill-rule="evenodd" fill-opacity="1" /><path clip-path="url(#clip160)" d="M 0 0 M103.339 67.9252 Q99.728 67.9252 97.8993 71.49 Q96.0938 75.0317 96.0938 82.1613 Q96.0938 89.2677 97.8993 92.8325 Q99.728 96.3742 103.339 96.3742 Q106.973 96.3742 108.779 92.8325 Q110.608 89.2677 110.608 82.1613 Q110.608 75.0317 108.779 71.49 Q106.973 67.9252 103.339 67.9252 M103.339 64.2216 Q109.149 64.2216 112.205 68.828 Q115.284 73.4113 115.284 82.1613 Q115.284 90.8881 112.205 95.4945 Q109.149 100.078 103.339 100.078 Q97.529 100.078 94.4503 95.4945 Q91.3948 90.8881 91.3948 82.1613 Q91.3948 73.4113 94.4503 68.828 Q97.529 64.2216 103.339 64.2216 Z" fill="#000000" fill-rule="evenodd" fill-opacity="1" /><path clip-path="url(#clip160)" d="M 0 0 M120.353 93.527 L125.237 93.527 L125.237 99.4066 L120.353 99.4066 L120.353 93.527 Z" fill="#000000" fill-rule="evenodd" fill-opacity="1" /><path clip-path="url(#clip160)" d="M 0 0 M129.126 64.8466 L151.348 64.8466 L151.348 66.8373 L138.802 99.4066 L133.918 99.4066 L145.723 68.7817 L129.126 68.7817 L129.126 64.8466 Z" fill="#000000" fill-rule="evenodd" fill-opacity="1" /><path clip-path="url(#clip162)" d="
M921.692 1109.21 L2291.13 766.846 L236.973 424.486 L921.692 1109.21  Z
  " fill="#008000" fill-rule="evenodd" fill-opacity="0.2"/>
<polyline clip-path="url(#clip162)" style="stroke:#000000; stroke-width:4; stroke-opacity:1; fill:none" points="
  921.692,1109.21 2291.13,766.846 236.973,424.486 921.692,1109.21 
  "/>
<circle clip-path="url(#clip162)" cx="921.692" cy="1109.21" r="14" fill="#ff0000" fill-rule="evenodd" fill-opacity="1" stroke="#000000" stroke-opacity="1" stroke-width="3.2"/>
<circle clip-path="url(#clip162)" cx="2291.13" cy="766.846" r="14" fill="#ff0000" fill-rule="evenodd" fill-opacity="1" stroke="#000000" stroke-opacity="1" stroke-width="3.2"/>
<circle clip-path="url(#clip162)" cx="236.973" cy="424.486" r="14" fill="#ff0000" fill-rule="evenodd" fill-opacity="1" stroke="#000000" stroke-opacity="1" stroke-width="3.2"/>
<circle clip-path="url(#clip162)" cx="610.456" cy="486.733" r="14" fill="#ff0000" fill-rule="evenodd" fill-opacity="1" stroke="#000000" stroke-opacity="1" stroke-width="3.2"/>
<circle clip-path="url(#clip162)" cx="420.096" cy="607.609" r="14" fill="#ff0000" fill-rule="evenodd" fill-opacity="1" stroke="#000000" stroke-opacity="1" stroke-width="3.2"/>
<circle clip-path="url(#clip162)" cx="1439.86" cy="979.664" r="14" fill="#ff0000" fill-rule="evenodd" fill-opacity="1" stroke="#000000" stroke-opacity="1" stroke-width="3.2"/>
<circle clip-path="url(#clip162)" cx="682.041" cy="629.902" r="14" fill="#ff0000" fill-rule="evenodd" fill-opacity="1" stroke="#000000" stroke-opacity="1" stroke-width="3.2"/>
<path clip-path="url(#clip160)" d="M 0 0 M921.692 1038.64 L910.593 1068.74 L932.832 1068.74 L921.692 1038.64 M917.074 1030.58 L926.351 1030.58 L949.4 1091.06 L940.894 1091.06 L935.384 1075.55 L908.122 1075.55 L902.613 1091.06 L893.984 1091.06 L917.074 1030.58 Z" fill="#000000" fill-rule="evenodd" fill-opacity="1" /><path clip-path="url(#clip160)" d="M 0 0 M2277.86 719.819 L2277.86 741.977 L2290.99 741.977 Q2297.59 741.977 2300.75 739.263 Q2303.95 736.509 2303.95 730.878 Q2303.95 725.207 2300.75 722.533 Q2297.59 719.819 2290.99 719.819 L2277.86 719.819 M2277.86 694.946 L2277.86 713.176 L2289.98 713.176 Q2295.97 713.176 2298.89 710.948 Q2301.85 708.679 2301.85 704.061 Q2301.85 699.483 2298.89 697.215 Q2295.97 694.946 2289.98 694.946 L2277.86 694.946 M2269.68 688.222 L2290.58 688.222 Q2299.94 688.222 2305.01 692.111 Q2310.07 696 2310.07 703.17 Q2310.07 708.72 2307.48 712.001 Q2304.88 715.282 2299.86 716.092 Q2305.9 717.388 2309.22 721.52 Q2312.58 725.612 2312.58 731.769 Q2312.58 739.871 2307.07 744.286 Q2301.56 748.702 2291.39 748.702 L2269.68 748.702 L2269.68 688.222 Z" fill="#000000" fill-rule="evenodd" fill-opacity="1" /><path clip-path="url(#clip160)" d="M 0 0 M261.359 350.521 L261.359 359.149 Q257.227 355.301 252.528 353.397 Q247.87 351.493 242.604 351.493 Q232.233 351.493 226.724 357.853 Q221.215 364.172 221.215 376.163 Q221.215 388.113 226.724 394.473 Q232.233 400.793 242.604 400.793 Q247.87 400.793 252.528 398.889 Q257.227 396.985 261.359 393.136 L261.359 401.684 Q257.065 404.6 252.245 406.059 Q247.465 407.517 242.118 407.517 Q228.385 407.517 220.486 399.132 Q212.586 390.706 212.586 376.163 Q212.586 361.58 220.486 353.194 Q228.385 344.769 242.118 344.769 Q247.546 344.769 252.326 346.227 Q257.146 347.645 261.359 350.521 Z" fill="#000000" fill-rule="evenodd" fill-opacity="1" /><path clip-path="url(#clip160)" d="M 0 0 M593.22 414.834 L593.22 461.865 L603.104 461.865 Q615.621 461.865 621.414 456.194 Q627.247 450.522 627.247 438.289 Q627.247 426.136 621.414 420.505 Q615.621 414.834 603.104 414.834 L593.22 414.834 M585.037 408.109 L601.848 408.109 Q619.429 408.109 627.652 415.442 Q635.876 422.733 635.876 438.289 Q635.876 453.925 627.612 461.257 Q619.348 468.589 601.848 468.589 L585.037 468.589 L585.037 408.109 Z" fill="#000000" fill-rule="evenodd" fill-opacity="1" /><path clip-path="url(#clip160)" d="M 0 0 M400.611 528.985 L438.851 528.985 L438.851 535.871 L408.793 535.871 L408.793 553.776 L437.595 553.776 L437.595 560.663 L408.793 560.663 L408.793 582.578 L439.58 582.578 L439.58 589.465 L400.611 589.465 L400.611 528.985 Z" fill="#000000" fill-rule="evenodd" fill-opacity="1" /><path clip-path="url(#clip160)" d="M 0 0 M1422.48 901.04 L1457.24 901.04 L1457.24 907.927 L1430.66 907.927 L1430.66 925.751 L1454.64 925.751 L1454.64 932.637 L1430.66 932.637 L1430.66 961.52 L1422.48 961.52 L1422.48 901.04 Z" fill="#000000" fill-rule="evenodd" fill-opacity="1" /><path clip-path="url(#clip160)" d="M 0 0 M682.081 556.828 Q673.169 556.828 667.903 563.471 Q662.677 570.115 662.677 581.579 Q662.677 593.002 667.903 599.646 Q673.169 606.289 682.081 606.289 Q690.993 606.289 696.178 599.646 Q701.404 593.002 701.404 581.579 Q701.404 570.115 696.178 563.471 Q690.993 556.828 682.081 556.828 M682.081 550.184 Q694.801 550.184 702.417 558.732 Q710.032 567.239 710.032 581.579 Q710.032 595.879 702.417 604.426 Q694.801 612.933 682.081 612.933 Q669.321 612.933 661.664 604.426 Q654.049 595.919 654.049 581.579 Q654.049 567.239 661.664 558.732 Q669.321 550.184 682.081 550.184 Z" fill="#000000" fill-rule="evenodd" fill-opacity="1" /><polyline clip-path="url(#clip162)" style="stroke:#ffa500; stroke-width:4; stroke-opacity:1; fill:none" points="
  921.692,1109.21 610.456,486.733 
  "/>
<polyline clip-path="url(#clip162)" style="stroke:#ffa500; stroke-width:4; stroke-opacity:1; fill:none" points="
  2291.13,766.846 420.096,607.609 
  "/>
<polyline clip-path="url(#clip162)" style="stroke:#ffa500; stroke-width:4; stroke-opacity:1; fill:none" points="
  236.973,424.486 1439.86,979.664 
  "/>
</svg>
