<?xml version="1.0" encoding="utf-8"?>
<svg xmlns="http://www.w3.org/2000/svg" xmlns:xlink="http://www.w3.org/1999/xlink" width="600" height="400" viewBox="0 0 2400 1600">
<defs>
  <clipPath id="clip050">
    <rect x="0" y="0" width="2400" height="1600"/>
  </clipPath>
</defs>
<path clip-path="url(#clip050)" d="
M0 1600 L2400 1600 L2400 0 L0 0  Z
  " fill="#ffffff" fill-rule="evenodd" fill-opacity="1"/>
<defs>
  <clipPath id="clip051">
    <rect x="480" y="0" width="1681" height="1600"/>
  </clipPath>
</defs>
<path clip-path="url(#clip050)" d="
M110.881 1486.45 L2352.76 1486.45 L2352.76 47.2441 L110.881 47.2441  Z
  " fill="#ffffff" fill-rule="evenodd" fill-opacity="1"/>
<defs>
  <clipPath id="clip052">
    <rect x="110" y="47" width="2243" height="1440"/>
  </clipPath>
</defs>
<polyline clip-path="url(#clip052)" style="stroke:#000000; stroke-width:2; stroke-opacity:0.1; fill:none" points="
  326.659,1486.45 326.659,47.2441 
  "/>
<polyline clip-path="url(#clip052)" style="stroke:#000000; stroke-width:2; stroke-opacity:0.1; fill:none" points="
  779.239,1486.45 779.239,47.2441 
  "/>
<polyline clip-path="url(#clip052)" style="stroke:#000000; stroke-width:2; stroke-opacity:0.1; fill:none" points="
  1231.82,1486.45 1231.82,47.2441 
  "/>
<polyline clip-path="url(#clip052)" style="stroke:#000000; stroke-width:2; stroke-opacity:0.1; fill:none" points="
  1684.4,1486.45 1684.4,47.2441 
  "/>
<polyline clip-path="url(#clip052)" style="stroke:#000000; stroke-width:2; stroke-opacity:0.1; fill:none" points="
  2136.98,1486.45 2136.98,47.2441 
  "/>
<polyline clip-path="url(#clip052)" style="stroke:#000000; stroke-width:2; stroke-opacity:0.1; fill:none" points="
  110.881,1445.72 2352.76,1445.72 
  "/>
<polyline clip-path="url(#clip052)" style="stroke:#000000; stroke-width:2; stroke-opacity:0.1; fill:none" points="
  110.881,993.136 2352.76,993.136 
  "/>
<polyline clip-path="url(#clip052)" style="stroke:#000000; stroke-width:2; stroke-opacity:0.1; fill:none" points="
  110.881,540.556 2352.76,540.556 
  "/>
<polyline clip-path="url(#clip052)" style="stroke:#000000; stroke-width:2; stroke-opacity:0.1; fill:none" points="
  110.881,87.9763 2352.76,87.9763 
  "/>
<polyline clip-path="url(#clip050)" style="stroke:#000000; stroke-width:4; stroke-opacity:1; fill:none" points="
  110.881,1486.45 2352.76,1486.45 
  "/>
<polyline clip-path="url(#clip050)" style="stroke:#000000; stroke-width:4; stroke-opacity:1; fill:none" points="
  110.881,1486.45 110.881,47.2441 
  "/>
<polyline clip-path="url(#clip050)" style="stroke:#000000; stroke-width:4; stroke-opacity:1; fill:none" points="
  326.659,1486.45 326.659,1469.18 
  "/>
<polyline clip-path="url(#clip050)" style="stroke:#000000; stroke-width:4; stroke-opacity:1; fill:none" points="
  779.239,1486.45 779.239,1469.18 
  "/>
<polyline clip-path="url(#clip050)" style="stroke:#000000; stroke-width:4; stroke-opacity:1; fill:none" points="
  1231.82,1486.45 1231.82,1469.18 
  "/>
<polyline clip-path="url(#clip050)" style="stroke:#000000; stroke-width:4; stroke-opacity:1; fill:none" points="
  1684.4,1486.45 1684.4,1469.18 
  "/>
<polyline clip-path="url(#clip050)" style="stroke:#000000; stroke-width:4; stroke-opacity:1; fill:none" points="
  2136.98,1486.45 2136.98,1469.18 
  "/>
<polyline clip-path="url(#clip050)" style="stroke:#000000; stroke-width:4; stroke-opacity:1; fill:none" points="
  110.881,1445.72 137.783,1445.72 
  "/>
<polyline clip-path="url(#clip050)" style="stroke:#000000; stroke-width:4; stroke-opacity:1; fill:none" points="
  110.881,993.136 137.783,993.136 
  "/>
<polyline clip-path="url(#clip050)" style="stroke:#000000; stroke-width:4; stroke-opacity:1; fill:none" points="
  110.881,540.556 137.783,540.556 
  "/>
<polyline clip-path="url(#clip050)" style="stroke:#000000; stroke-width:4; stroke-opacity:1; fill:none" points="
  110.881,87.9763 137.783,87.9763 
  "/>
<path clip-path="url(#clip050)" d="M 0 0 M326.659 1508.44 Q323.048 1508.44 321.219 1512 Q319.413 1515.55 319.413 1522.67 Q319.413 1529.78 321.219 1533.35 Q323.048 1536.89 326.659 1536.89 Q330.293 1536.89 332.099 1533.35 Q333.927 1529.78 333.927 1522.67 Q333.927 1515.55 332.099 1512 Q330.293 1508.44 326.659 1508.44 M326.659 1504.73 Q332.469 1504.73 335.524 1509.34 Q338.603 1513.92 338.603 1522.67 Q338.603 1531.4 335.524 1536.01 Q332.469 1540.59 326.659 1540.59 Q320.849 1540.59 317.77 1536.01 Q314.714 1531.4 314.714 1522.67 Q314.714 1513.92 317.77 1509.34 Q320.849 1504.73 326.659 1504.73 Z" fill="#000000" fill-rule="evenodd" fill-opacity="1" /><path clip-path="url(#clip050)" d="M 0 0 M769.621 1535.98 L777.259 1535.98 L777.259 1509.62 L768.949 1511.29 L768.949 1507.03 L777.213 1505.36 L781.889 1505.36 L781.889 1535.98 L789.528 1535.98 L789.528 1539.92 L769.621 1539.92 L769.621 1535.98 Z" fill="#000000" fill-rule="evenodd" fill-opacity="1" /><path clip-path="url(#clip050)" d="M 0 0 M1226.47 1535.98 L1242.79 1535.98 L1242.79 1539.92 L1220.85 1539.92 L1220.85 1535.98 Q1223.51 1533.23 1228.09 1528.6 Q1232.7 1523.95 1233.88 1522.61 Q1236.12 1520.08 1237 1518.35 Q1237.91 1516.59 1237.91 1514.9 Q1237.91 1512.14 1235.96 1510.41 Q1234.04 1508.67 1230.94 1508.67 Q1228.74 1508.67 1226.29 1509.43 Q1223.86 1510.2 1221.08 1511.75 L1221.08 1507.03 Q1223.9 1505.89 1226.36 1505.31 Q1228.81 1504.73 1230.85 1504.73 Q1236.22 1504.73 1239.41 1507.42 Q1242.61 1510.11 1242.61 1514.6 Q1242.61 1516.73 1241.8 1518.65 Q1241.01 1520.54 1238.9 1523.14 Q1238.32 1523.81 1235.22 1527.03 Q1232.12 1530.22 1226.47 1535.98 Z" fill="#000000" fill-rule="evenodd" fill-opacity="1" /><path clip-path="url(#clip050)" d="M 0 0 M1688.65 1521.29 Q1692 1522 1693.88 1524.27 Q1695.78 1526.54 1695.78 1529.87 Q1695.78 1534.99 1692.26 1537.79 Q1688.74 1540.59 1682.26 1540.59 Q1680.08 1540.59 1677.77 1540.15 Q1675.47 1539.73 1673.02 1538.88 L1673.02 1534.36 Q1674.97 1535.5 1677.28 1536.08 Q1679.59 1536.66 1682.12 1536.66 Q1686.52 1536.66 1688.81 1534.92 Q1691.12 1533.18 1691.12 1529.87 Q1691.12 1526.82 1688.97 1525.11 Q1686.84 1523.37 1683.02 1523.37 L1678.99 1523.37 L1678.99 1519.53 L1683.21 1519.53 Q1686.66 1519.53 1688.48 1518.16 Q1690.31 1516.77 1690.31 1514.18 Q1690.31 1511.52 1688.41 1510.11 Q1686.54 1508.67 1683.02 1508.67 Q1681.1 1508.67 1678.9 1509.09 Q1676.7 1509.5 1674.06 1510.38 L1674.06 1506.22 Q1676.72 1505.48 1679.04 1505.11 Q1681.38 1504.73 1683.44 1504.73 Q1688.76 1504.73 1691.86 1507.17 Q1694.97 1509.57 1694.97 1513.69 Q1694.97 1516.56 1693.32 1518.55 Q1691.68 1520.52 1688.65 1521.29 Z" fill="#000000" fill-rule="evenodd" fill-opacity="1" /><path clip-path="url(#clip050)" d="M 0 0 M2139.99 1509.43 L2128.18 1527.88 L2139.99 1527.88 L2139.99 1509.43 M2138.76 1505.36 L2144.64 1505.36 L2144.64 1527.88 L2149.57 1527.88 L2149.57 1531.77 L2144.64 1531.77 L2144.64 1539.92 L2139.99 1539.92 L2139.99 1531.77 L2124.39 1531.77 L2124.39 1527.26 L2138.76 1505.36 Z" fill="#000000" fill-rule="evenodd" fill-opacity="1" /><path clip-path="url(#clip050)" d="M 0 0 M74.9365 1431.51 Q71.3254 1431.51 69.4967 1435.08 Q67.6912 1438.62 67.6912 1445.75 Q67.6912 1452.86 69.4967 1456.42 Q71.3254 1459.96 74.9365 1459.96 Q78.5707 1459.96 80.3763 1456.42 Q82.205 1452.86 82.205 1445.75 Q82.205 1438.62 80.3763 1435.08 Q78.5707 1431.51 74.9365 1431.51 M74.9365 1427.81 Q80.7467 1427.81 83.8022 1432.42 Q86.8809 1437 86.8809 1445.75 Q86.8809 1454.48 83.8022 1459.08 Q80.7467 1463.67 74.9365 1463.67 Q69.1264 1463.67 66.0477 1459.08 Q62.9921 1454.48 62.9921 1445.75 Q62.9921 1437 66.0477 1432.42 Q69.1264 1427.81 74.9365 1427.81 Z" fill="#000000" fill-rule="evenodd" fill-opacity="1" /><path clip-path="url(#clip050)" d="M 0 0 M66.9736 1006.48 L74.6124 1006.48 L74.6124 980.115 L66.3023 981.782 L66.3023 977.523 L74.5661 975.856 L79.242 975.856 L79.242 1006.48 L86.8809 1006.48 L86.8809 1010.42 L66.9736 1010.42 L66.9736 1006.48 Z" fill="#000000" fill-rule="evenodd" fill-opacity="1" /><path clip-path="url(#clip050)" d="M 0 0 M70.5615 553.901 L86.8809 553.901 L86.8809 557.836 L64.9366 557.836 L64.9366 553.901 Q67.5986 551.146 72.1819 546.517 Q76.7883 541.864 77.9689 540.521 Q80.2143 537.998 81.0939 536.262 Q81.9967 534.503 81.9967 532.813 Q81.9967 530.058 80.0522 528.322 Q78.1309 526.586 75.0291 526.586 Q72.83 526.586 70.3763 527.35 Q67.9458 528.114 65.168 529.665 L65.168 524.943 Q67.9921 523.808 70.4458 523.23 Q72.8995 522.651 74.9365 522.651 Q80.3068 522.651 83.5013 525.336 Q86.6957 528.021 86.6957 532.512 Q86.6957 534.642 85.8855 536.563 Q85.0985 538.461 82.992 541.054 Q82.4133 541.725 79.3115 544.943 Q76.2096 548.137 70.5615 553.901 Z" fill="#000000" fill-rule="evenodd" fill-opacity="1" /><path clip-path="url(#clip050)" d="M 0 0 M79.7513 86.6221 Q83.1078 87.3397 84.9827 89.6082 Q86.8809 91.8767 86.8809 95.21 Q86.8809 100.326 83.3624 103.127 Q79.8439 105.928 73.3624 105.928 Q71.1865 105.928 68.8717 105.488 Q66.5801 105.071 64.1264 104.215 L64.1264 99.7008 Q66.0708 100.835 68.3856 101.414 Q70.7004 101.992 73.2236 101.992 Q77.6217 101.992 79.9133 100.256 Q82.2281 98.5202 82.2281 95.21 Q82.2281 92.1545 80.0754 90.4415 Q77.9457 88.7054 74.1263 88.7054 L70.0986 88.7054 L70.0986 84.8629 L74.3115 84.8629 Q77.7606 84.8629 79.5893 83.4971 Q81.418 82.1083 81.418 79.5157 Q81.418 76.8537 79.5198 75.4416 Q77.6448 74.0064 74.1263 74.0064 Q72.205 74.0064 70.006 74.4231 Q67.8069 74.8398 65.168 75.7194 L65.168 71.5528 Q67.8301 70.812 70.1449 70.4416 Q72.4828 70.0713 74.543 70.0713 Q79.867 70.0713 82.9689 72.5018 Q86.0707 74.9092 86.0707 79.0296 Q86.0707 81.8999 84.4272 83.8907 Q82.7837 85.8582 79.7513 86.6221 Z" fill="#000000" fill-rule="evenodd" fill-opacity="1" /><path clip-path="url(#clip052)" d="
M326.659 1445.72 L779.239 87.9763 L2136.98 540.556 L326.659 1445.72  Z
  " fill="#008000" fill-rule="evenodd" fill-opacity="0.2"/>
<polyline clip-path="url(#clip052)" style="stroke:#000000; stroke-width:4; stroke-opacity:1; fill:none" points="
  326.659,1445.72 779.239,87.9763 2136.98,540.556 326.659,1445.72 
  "/>
<circle clip-path="url(#clip052)" cx="326.659" cy="1445.72" r="14" fill="#ff0000" fill-rule="evenodd" fill-opacity="1" stroke="#000000" stroke-opacity="1" stroke-width="3.2"/>
<circle clip-path="url(#clip052)" cx="779.239" cy="87.9763" r="14" fill="#ff0000" fill-rule="evenodd" fill-opacity="1" stroke="#000000" stroke-opacity="1" stroke-width="3.2"/>
<circle clip-path="url(#clip052)" cx="2136.98" cy="540.556" r="14" fill="#ff0000" fill-rule="evenodd" fill-opacity="1" stroke="#000000" stroke-opacity="1" stroke-width="3.2"/>
<circle clip-path="url(#clip052)" cx="1458.11" cy="314.266" r="14" fill="#ff0000" fill-rule="evenodd" fill-opacity="1" stroke="#000000" stroke-opacity="1" stroke-width="3.2"/>
<circle clip-path="url(#clip052)" cx="1533.54" cy="842.276" r="14" fill="#ff0000" fill-rule="evenodd" fill-opacity="1" stroke="#000000" stroke-opacity="1" stroke-width="3.2"/>
<circle clip-path="url(#clip052)" cx="628.379" cy="540.556" r="14" fill="#ff0000" fill-rule="evenodd" fill-opacity="1" stroke="#000000" stroke-opacity="1" stroke-width="3.2"/>
<circle clip-path="url(#clip052)" cx="1231.82" cy="540.556" r="14" fill="#ff0000" fill-rule="evenodd" fill-opacity="1" stroke="#000000" stroke-opacity="1" stroke-width="3.2"/>
<path clip-path="url(#clip050)" d="M 0 0 M326.659 1375.15 L315.559 1405.25 L337.799 1405.25 L326.659 1375.15 M322.041 1367.09 L331.317 1367.09 L354.367 1427.57 L345.86 1427.57 L340.351 1412.06 L313.088 1412.06 L307.579 1427.57 L298.951 1427.57 L322.041 1367.09 Z" fill="#000000" fill-rule="evenodd" fill-opacity="1" /><path clip-path="url(#clip050)" d="M 0 0 M765.972 40.9493 L765.972 63.1078 L779.097 63.1078 Q785.7 63.1078 788.859 60.3937 Q792.06 57.6391 792.06 52.0083 Q792.06 46.337 788.859 43.6634 Q785.7 40.9493 779.097 40.9493 L765.972 40.9493 M765.972 16.0768 L765.972 34.3058 L778.084 34.3058 Q784.079 34.3058 786.996 32.0778 Q789.953 29.8093 789.953 25.1913 Q789.953 20.6138 786.996 18.3453 Q784.079 16.0768 778.084 16.0768 L765.972 16.0768 M757.789 9.35228 L778.692 9.35228 Q788.049 9.35228 793.113 13.2411 Q798.177 17.13 798.177 24.3001 Q798.177 29.8499 795.584 33.1311 Q792.991 36.4123 787.968 37.2225 Q794.004 38.5188 797.326 42.6507 Q800.688 46.7421 800.688 52.8995 Q800.688 61.0013 795.179 65.4168 Q789.67 69.8323 779.502 69.8323 L757.789 69.8323 L757.789 9.35228 Z" fill="#000000" fill-rule="evenodd" fill-opacity="1" /><path clip-path="url(#clip050)" d="M 0 0 M2161.36 466.591 L2161.36 475.219 Q2157.23 471.371 2152.53 469.467 Q2147.87 467.563 2142.61 467.563 Q2132.24 467.563 2126.73 473.923 Q2121.22 480.242 2121.22 492.233 Q2121.22 504.183 2126.73 510.543 Q2132.24 516.862 2142.61 516.862 Q2147.87 516.862 2152.53 514.958 Q2157.23 513.054 2161.36 509.206 L2161.36 517.754 Q2157.07 520.67 2152.25 522.129 Q2147.47 523.587 2142.12 523.587 Q2128.39 523.587 2120.49 515.201 Q2112.59 506.776 2112.59 492.233 Q2112.59 477.65 2120.49 469.264 Q2128.39 460.838 2142.12 460.838 Q2147.55 460.838 2152.33 462.297 Q2157.15 463.714 2161.36 466.591 Z" fill="#000000" fill-rule="evenodd" fill-opacity="1" /><path clip-path="url(#clip050)" d="M 0 0 M1440.87 242.367 L1440.87 289.398 L1450.76 289.398 Q1463.27 289.398 1469.07 283.726 Q1474.9 278.055 1474.9 265.821 Q1474.9 253.669 1469.07 248.038 Q1463.27 242.367 1450.76 242.367 L1440.87 242.367 M1432.69 235.642 L1449.5 235.642 Q1467.08 235.642 1475.3 242.974 Q1483.53 250.266 1483.53 265.821 Q1483.53 281.458 1475.26 288.79 Q1467 296.122 1449.5 296.122 L1432.69 296.122 L1432.69 235.642 Z" fill="#000000" fill-rule="evenodd" fill-opacity="1" /><path clip-path="url(#clip050)" d="M 0 0 M1514.05 763.652 L1552.29 763.652 L1552.29 770.538 L1522.24 770.538 L1522.24 788.443 L1551.04 788.443 L1551.04 795.33 L1522.24 795.33 L1522.24 817.245 L1553.02 817.245 L1553.02 824.132 L1514.05 824.132 L1514.05 763.652 Z" fill="#000000" fill-rule="evenodd" fill-opacity="1" /><path clip-path="url(#clip050)" d="M 0 0 M611 461.932 L645.757 461.932 L645.757 468.819 L619.183 468.819 L619.183 486.643 L643.164 486.643 L643.164 493.529 L619.183 493.529 L619.183 522.412 L611 522.412 L611 461.932 Z" fill="#000000" fill-rule="evenodd" fill-opacity="1" /><path clip-path="url(#clip050)" d="M 0 0 M1231.86 467.482 Q1222.95 467.482 1217.68 474.125 Q1212.46 480.769 1212.46 492.233 Q1212.46 503.656 1217.68 510.3 Q1222.95 516.943 1231.86 516.943 Q1240.77 516.943 1245.96 510.3 Q1251.18 503.656 1251.18 492.233 Q1251.18 480.769 1245.96 474.125 Q1240.77 467.482 1231.86 467.482 M1231.86 460.838 Q1244.58 460.838 1252.19 469.386 Q1259.81 477.893 1259.81 492.233 Q1259.81 506.533 1252.19 515.08 Q1244.58 523.587 1231.86 523.587 Q1219.1 523.587 1211.44 515.08 Q1203.83 506.573 1203.83 492.233 Q1203.83 477.893 1211.44 469.386 Q1219.1 460.838 1231.86 460.838 Z" fill="#000000" fill-rule="evenodd" fill-opacity="1" /><polyline clip-path="url(#clip052)" style="stroke:#ffa500; stroke-width:4; stroke-opacity:1; fill:none" points="
  326.659,1445.72 1458.11,314.266 
  "/>
<polyline clip-path="url(#clip052)" style="stroke:#ffa500; stroke-width:4; stroke-opacity:1; fill:none" points="
  779.239,87.9763 1533.54,842.276 
  "/>
<polyline clip-path="url(#clip052)" style="stroke:#ffa500; stroke-width:4; stroke-opacity:1; fill:none" points="
  2136.98,540.556 628.379,540.556 
  "/>
</svg>
