<?xml version="1.0" encoding="utf-8"?>
<svg xmlns="http://www.w3.org/2000/svg" xmlns:xlink="http://www.w3.org/1999/xlink" width="600" height="400" viewBox="0 0 2400 1600">
<defs>
  <clipPath id="clip190">
    <rect x="0" y="0" width="2400" height="1600"/>
  </clipPath>
</defs>
<path clip-path="url(#clip190)" d="
M0 1600 L2400 1600 L2400 0 L0 0  Z
  " fill="#ffffff" fill-rule="evenodd" fill-opacity="1"/>
<defs>
  <clipPath id="clip191">
    <rect x="480" y="0" width="1681" height="1600"/>
  </clipPath>
</defs>
<path clip-path="url(#clip190)" d="
M174.862 1486.45 L2352.76 1486.45 L2352.76 47.2441 L174.862 47.2441  Z
  " fill="#ffffff" fill-rule="evenodd" fill-opacity="1"/>
<defs>
  <clipPath id="clip192">
    <rect x="174" y="47" width="2179" height="1440"/>
  </clipPath>
</defs>
<polyline clip-path="url(#clip192)" style="stroke:#000000; stroke-width:2; stroke-opacity:0.1; fill:none" points="
  449.165,1486.45 449.165,47.2441 
  "/>
<polyline clip-path="url(#clip192)" style="stroke:#000000; stroke-width:2; stroke-opacity:0.1; fill:none" points="
  856.487,1486.45 856.487,47.2441 
  "/>
<polyline clip-path="url(#clip192)" style="stroke:#000000; stroke-width:2; stroke-opacity:0.1; fill:none" points="
  1263.81,1486.45 1263.81,47.2441 
  "/>
<polyline clip-path="url(#clip192)" style="stroke:#000000; stroke-width:2; stroke-opacity:0.1; fill:none" points="
  1671.13,1486.45 1671.13,47.2441 
  "/>
<polyline clip-path="url(#clip192)" style="stroke:#000000; stroke-width:2; stroke-opacity:0.1; fill:none" points="
  2078.45,1486.45 2078.45,47.2441 
  "/>
<polyline clip-path="url(#clip192)" style="stroke:#000000; stroke-width:2; stroke-opacity:0.1; fill:none" points="
  174.862,1445.72 2352.76,1445.72 
  "/>
<polyline clip-path="url(#clip192)" style="stroke:#000000; stroke-width:2; stroke-opacity:0.1; fill:none" points="
  174.862,1106.28 2352.76,1106.28 
  "/>
<polyline clip-path="url(#clip192)" style="stroke:#000000; stroke-width:2; stroke-opacity:0.1; fill:none" points="
  174.862,766.846 2352.76,766.846 
  "/>
<polyline clip-path="url(#clip192)" style="stroke:#000000; stroke-width:2; stroke-opacity:0.1; fill:none" points="
  174.862,427.411 2352.76,427.411 
  "/>
<polyline clip-path="url(#clip192)" style="stroke:#000000; stroke-width:2; stroke-opacity:0.1; fill:none" points="
  174.862,87.9763 2352.76,87.9763 
  "/>
<polyline clip-path="url(#clip190)" style="stroke:#000000; stroke-width:4; stroke-opacity:1; fill:none" points="
  174.862,1486.45 2352.76,1486.45 
  "/>
<polyline clip-path="url(#clip190)" style="stroke:#000000; stroke-width:4; stroke-opacity:1; fill:none" points="
  174.862,1486.45 174.862,47.2441 
  "/>
<polyline clip-path="url(#clip190)" style="stroke:#000000; stroke-width:4; stroke-opacity:1; fill:none" points="
  449.165,1486.45 449.165,1469.18 
  "/>
<polyline clip-path="url(#clip190)" style="stroke:#000000; stroke-width:4; stroke-opacity:1; fill:none" points="
  856.487,1486.45 856.487,1469.18 
  "/>
<polyline clip-path="url(#clip190)" style="stroke:#000000; stroke-width:4; stroke-opacity:1; fill:none" points="
  1263.81,1486.45 1263.81,1469.18 
  "/>
<polyline clip-path="url(#clip190)" style="stroke:#000000; stroke-width:4; stroke-opacity:1; fill:none" points="
  1671.13,1486.45 1671.13,1469.18 
  "/>
<polyline clip-path="url(#clip190)" style="stroke:#000000; stroke-width:4; stroke-opacity:1; fill:none" points="
  2078.45,1486.45 2078.45,1469.18 
  "/>
<polyline clip-path="url(#clip190)" style="stroke:#000000; stroke-width:4; stroke-opacity:1; fill:none" points="
  174.862,1445.72 200.997,1445.72 
  "/>
<polyline clip-path="url(#clip190)" style="stroke:#000000; stroke-width:4; stroke-opacity:1; fill:none" points="
  174.862,1106.28 200.997,1106.28 
  "/>
<polyline clip-path="url(#clip190)" style="stroke:#000000; stroke-width:4; stroke-opacity:1; fill:none" points="
  174.862,766.846 200.997,766.846 
  "/>
<polyline clip-path="url(#clip190)" style="stroke:#000000; stroke-width:4; stroke-opacity:1; fill:none" points="
  174.862,427.411 200.997,427.411 
  "/>
<polyline clip-path="url(#clip190)" style="stroke:#000000; stroke-width:4; stroke-opacity:1; fill:none" points="
  174.862,87.9763 200.997,87.9763 
  "/>
<path clip-path="url(#clip190)" d="M 0 0 M430.682 1508.44 Q427.071 1508.44 425.242 1512 Q423.436 1515.55 423.436 1522.67 Q423.436 1529.78 425.242 1533.35 Q427.071 1536.89 430.682 1536.89 Q434.316 1536.89 436.121 1533.35 Q437.95 1529.78 437.95 1522.67 Q437.95 1515.55 436.121 1512 Q434.316 1508.44 430.682 1508.44 M430.682 1504.73 Q436.492 1504.73 439.547 1509.34 Q442.626 1513.92 442.626 1522.67 Q442.626 1531.4 439.547 1536.01 Q436.492 1540.59 430.682 1540.59 Q424.871 1540.59 421.793 1536.01 Q418.737 1531.4 418.737 1522.67 Q418.737 1513.92 421.793 1509.34 Q424.871 1504.73 430.682 1504.73 Z" fill="#000000" fill-rule="evenodd" fill-opacity="1" /><path clip-path="url(#clip190)" d="M 0 0 M447.695 1534.04 L452.58 1534.04 L452.58 1539.92 L447.695 1539.92 L447.695 1534.04 Z" fill="#000000" fill-rule="evenodd" fill-opacity="1" /><path clip-path="url(#clip190)" d="M 0 0 M467.649 1508.44 Q464.038 1508.44 462.209 1512 Q460.404 1515.55 460.404 1522.67 Q460.404 1529.78 462.209 1533.35 Q464.038 1536.89 467.649 1536.89 Q471.283 1536.89 473.089 1533.35 Q474.917 1529.78 474.917 1522.67 Q474.917 1515.55 473.089 1512 Q471.283 1508.44 467.649 1508.44 M467.649 1504.73 Q473.459 1504.73 476.515 1509.34 Q479.593 1513.92 479.593 1522.67 Q479.593 1531.4 476.515 1536.01 Q473.459 1540.59 467.649 1540.59 Q461.839 1540.59 458.76 1536.01 Q455.705 1531.4 455.705 1522.67 Q455.705 1513.92 458.76 1509.34 Q461.839 1504.73 467.649 1504.73 Z" fill="#000000" fill-rule="evenodd" fill-opacity="1" /><path clip-path="url(#clip190)" d="M 0 0 M838.328 1508.44 Q834.716 1508.44 832.888 1512 Q831.082 1515.55 831.082 1522.67 Q831.082 1529.78 832.888 1533.35 Q834.716 1536.89 838.328 1536.89 Q841.962 1536.89 843.767 1533.35 Q845.596 1529.78 845.596 1522.67 Q845.596 1515.55 843.767 1512 Q841.962 1508.44 838.328 1508.44 M838.328 1504.73 Q844.138 1504.73 847.193 1509.34 Q850.272 1513.92 850.272 1522.67 Q850.272 1531.4 847.193 1536.01 Q844.138 1540.59 838.328 1540.59 Q832.517 1540.59 829.439 1536.01 Q826.383 1531.4 826.383 1522.67 Q826.383 1513.92 829.439 1509.34 Q832.517 1504.73 838.328 1504.73 Z" fill="#000000" fill-rule="evenodd" fill-opacity="1" /><path clip-path="url(#clip190)" d="M 0 0 M855.341 1534.04 L860.226 1534.04 L860.226 1539.92 L855.341 1539.92 L855.341 1534.04 Z" fill="#000000" fill-rule="evenodd" fill-opacity="1" /><path clip-path="url(#clip190)" d="M 0 0 M879.462 1521.29 Q882.818 1522 884.693 1524.27 Q886.591 1526.54 886.591 1529.87 Q886.591 1534.99 883.073 1537.79 Q879.554 1540.59 873.073 1540.59 Q870.897 1540.59 868.582 1540.15 Q866.29 1539.73 863.837 1538.88 L863.837 1534.36 Q865.781 1535.5 868.096 1536.08 Q870.411 1536.66 872.934 1536.66 Q877.332 1536.66 879.624 1534.92 Q881.938 1533.18 881.938 1529.87 Q881.938 1526.82 879.786 1525.11 Q877.656 1523.37 873.837 1523.37 L869.809 1523.37 L869.809 1519.53 L874.022 1519.53 Q877.471 1519.53 879.3 1518.16 Q881.128 1516.77 881.128 1514.18 Q881.128 1511.52 879.23 1510.11 Q877.355 1508.67 873.837 1508.67 Q871.915 1508.67 869.716 1509.09 Q867.517 1509.5 864.878 1510.38 L864.878 1506.22 Q867.54 1505.48 869.855 1505.11 Q872.193 1504.73 874.253 1504.73 Q879.577 1504.73 882.679 1507.17 Q885.781 1509.57 885.781 1513.69 Q885.781 1516.56 884.137 1518.55 Q882.494 1520.52 879.462 1521.29 Z" fill="#000000" fill-rule="evenodd" fill-opacity="1" /><path clip-path="url(#clip190)" d="M 0 0 M1245.24 1508.44 Q1241.63 1508.44 1239.8 1512 Q1238 1515.55 1238 1522.67 Q1238 1529.78 1239.8 1533.35 Q1241.63 1536.89 1245.24 1536.89 Q1248.88 1536.89 1250.68 1533.35 Q1252.51 1529.78 1252.51 1522.67 Q1252.51 1515.55 1250.68 1512 Q1248.88 1508.44 1245.24 1508.44 M1245.24 1504.73 Q1251.05 1504.73 1254.11 1509.34 Q1257.19 1513.92 1257.19 1522.67 Q1257.19 1531.4 1254.11 1536.01 Q1251.05 1540.59 1245.24 1540.59 Q1239.43 1540.59 1236.36 1536.01 Q1233.3 1531.4 1233.3 1522.67 Q1233.3 1513.92 1236.36 1509.34 Q1239.43 1504.73 1245.24 1504.73 Z" fill="#000000" fill-rule="evenodd" fill-opacity="1" /><path clip-path="url(#clip190)" d="M 0 0 M1262.26 1534.04 L1267.14 1534.04 L1267.14 1539.92 L1262.26 1539.92 L1262.26 1534.04 Z" fill="#000000" fill-rule="evenodd" fill-opacity="1" /><path clip-path="url(#clip190)" d="M 0 0 M1282.79 1520.78 Q1279.64 1520.78 1277.79 1522.93 Q1275.96 1525.08 1275.96 1528.83 Q1275.96 1532.56 1277.79 1534.73 Q1279.64 1536.89 1282.79 1536.89 Q1285.94 1536.89 1287.77 1534.73 Q1289.62 1532.56 1289.62 1528.83 Q1289.62 1525.08 1287.77 1522.93 Q1285.94 1520.78 1282.79 1520.78 M1292.07 1506.12 L1292.07 1510.38 Q1290.31 1509.55 1288.51 1509.11 Q1286.73 1508.67 1284.97 1508.67 Q1280.34 1508.67 1277.88 1511.8 Q1275.45 1514.92 1275.11 1521.24 Q1276.47 1519.23 1278.53 1518.16 Q1280.59 1517.07 1283.07 1517.07 Q1288.28 1517.07 1291.29 1520.24 Q1294.32 1523.39 1294.32 1528.83 Q1294.32 1534.16 1291.17 1537.37 Q1288.02 1540.59 1282.79 1540.59 Q1276.8 1540.59 1273.62 1536.01 Q1270.45 1531.4 1270.45 1522.67 Q1270.45 1514.48 1274.34 1509.62 Q1278.23 1504.73 1284.78 1504.73 Q1286.54 1504.73 1288.32 1505.08 Q1290.13 1505.43 1292.07 1506.12 Z" fill="#000000" fill-rule="evenodd" fill-opacity="1" /><path clip-path="url(#clip190)" d="M 0 0 M1652.74 1508.44 Q1649.13 1508.44 1647.3 1512 Q1645.49 1515.55 1645.49 1522.67 Q1645.49 1529.78 1647.3 1533.35 Q1649.13 1536.89 1652.74 1536.89 Q1656.37 1536.89 1658.18 1533.35 Q1660.01 1529.78 1660.01 1522.67 Q1660.01 1515.55 1658.18 1512 Q1656.37 1508.44 1652.74 1508.44 M1652.74 1504.73 Q1658.55 1504.73 1661.61 1509.34 Q1664.68 1513.92 1664.68 1522.67 Q1664.68 1531.4 1661.61 1536.01 Q1658.55 1540.59 1652.74 1540.59 Q1646.93 1540.59 1643.85 1536.01 Q1640.8 1531.4 1640.8 1522.67 Q1640.8 1513.92 1643.85 1509.34 Q1646.93 1504.73 1652.74 1504.73 Z" fill="#000000" fill-rule="evenodd" fill-opacity="1" /><path clip-path="url(#clip190)" d="M 0 0 M1669.75 1534.04 L1674.64 1534.04 L1674.64 1539.92 L1669.75 1539.92 L1669.75 1534.04 Z" fill="#000000" fill-rule="evenodd" fill-opacity="1" /><path clip-path="url(#clip190)" d="M 0 0 M1679.85 1539.2 L1679.85 1534.94 Q1681.61 1535.78 1683.41 1536.22 Q1685.22 1536.66 1686.95 1536.66 Q1691.58 1536.66 1694.01 1533.55 Q1696.47 1530.43 1696.81 1524.09 Q1695.47 1526.08 1693.41 1527.14 Q1691.35 1528.21 1688.85 1528.21 Q1683.67 1528.21 1680.63 1525.08 Q1677.62 1521.93 1677.62 1516.49 Q1677.62 1511.17 1680.77 1507.95 Q1683.92 1504.73 1689.15 1504.73 Q1695.15 1504.73 1698.29 1509.34 Q1701.47 1513.92 1701.47 1522.67 Q1701.47 1530.85 1697.58 1535.73 Q1693.71 1540.59 1687.16 1540.59 Q1685.4 1540.59 1683.6 1540.24 Q1681.79 1539.9 1679.85 1539.2 M1689.15 1524.55 Q1692.3 1524.55 1694.13 1522.4 Q1695.98 1520.24 1695.98 1516.49 Q1695.98 1512.77 1694.13 1510.61 Q1692.3 1508.44 1689.15 1508.44 Q1686 1508.44 1684.15 1510.61 Q1682.32 1512.77 1682.32 1516.49 Q1682.32 1520.24 1684.15 1522.4 Q1686 1524.55 1689.15 1524.55 Z" fill="#000000" fill-rule="evenodd" fill-opacity="1" /><path clip-path="url(#clip190)" d="M 0 0 M2051.15 1535.98 L2058.79 1535.98 L2058.79 1509.62 L2050.48 1511.29 L2050.48 1507.03 L2058.74 1505.36 L2063.42 1505.36 L2063.42 1535.98 L2071.06 1535.98 L2071.06 1539.92 L2051.15 1539.92 L2051.15 1535.98 Z" fill="#000000" fill-rule="evenodd" fill-opacity="1" /><path clip-path="url(#clip190)" d="M 0 0 M2076.13 1534.04 L2081.01 1534.04 L2081.01 1539.92 L2076.13 1539.92 L2076.13 1534.04 Z" fill="#000000" fill-rule="evenodd" fill-opacity="1" /><path clip-path="url(#clip190)" d="M 0 0 M2090.11 1535.98 L2106.43 1535.98 L2106.43 1539.92 L2084.48 1539.92 L2084.48 1535.98 Q2087.14 1533.23 2091.73 1528.6 Q2096.33 1523.95 2097.52 1522.61 Q2099.76 1520.08 2100.64 1518.35 Q2101.54 1516.59 2101.54 1514.9 Q2101.54 1512.14 2099.6 1510.41 Q2097.68 1508.67 2094.58 1508.67 Q2092.38 1508.67 2089.92 1509.43 Q2087.49 1510.2 2084.71 1511.75 L2084.71 1507.03 Q2087.54 1505.89 2089.99 1505.31 Q2092.45 1504.73 2094.48 1504.73 Q2099.85 1504.73 2103.05 1507.42 Q2106.24 1510.11 2106.24 1514.6 Q2106.24 1516.73 2105.43 1518.65 Q2104.64 1520.54 2102.54 1523.14 Q2101.96 1523.81 2098.86 1527.03 Q2095.76 1530.22 2090.11 1535.98 Z" fill="#000000" fill-rule="evenodd" fill-opacity="1" /><path clip-path="url(#clip190)" d="M 0 0 M74.9365 1431.51 Q71.3254 1431.51 69.4967 1435.08 Q67.6912 1438.62 67.6912 1445.75 Q67.6912 1452.86 69.4967 1456.42 Q71.3254 1459.96 74.9365 1459.96 Q78.5707 1459.96 80.3763 1456.42 Q82.205 1452.86 82.205 1445.75 Q82.205 1438.62 80.3763 1435.08 Q78.5707 1431.51 74.9365 1431.51 M74.9365 1427.81 Q80.7467 1427.81 83.8022 1432.42 Q86.8809 1437 86.8809 1445.75 Q86.8809 1454.48 83.8022 1459.08 Q80.7467 1463.67 74.9365 1463.67 Q69.1264 1463.67 66.0477 1459.08 Q62.9921 1454.48 62.9921 1445.75 Q62.9921 1437 66.0477 1432.42 Q69.1264 1427.81 74.9365 1427.81 Z" fill="#000000" fill-rule="evenodd" fill-opacity="1" /><path clip-path="url(#clip190)" d="M 0 0 M91.9503 1457.12 L96.8345 1457.12 L96.8345 1463 L91.9503 1463 L91.9503 1457.12 Z" fill="#000000" fill-rule="evenodd" fill-opacity="1" /><path clip-path="url(#clip190)" d="M 0 0 M111.904 1431.51 Q108.293 1431.51 106.464 1435.08 Q104.659 1438.62 104.659 1445.75 Q104.659 1452.86 106.464 1456.42 Q108.293 1459.96 111.904 1459.96 Q115.538 1459.96 117.344 1456.42 Q119.172 1452.86 119.172 1445.75 Q119.172 1438.62 117.344 1435.08 Q115.538 1431.51 111.904 1431.51 M111.904 1427.81 Q117.714 1427.81 120.77 1432.42 Q123.848 1437 123.848 1445.75 Q123.848 1454.48 120.77 1459.08 Q117.714 1463.67 111.904 1463.67 Q106.094 1463.67 103.015 1459.08 Q99.9595 1454.48 99.9595 1445.75 Q99.9595 1437 103.015 1432.42 Q106.094 1427.81 111.904 1427.81 Z" fill="#000000" fill-rule="evenodd" fill-opacity="1" /><path clip-path="url(#clip190)" d="M 0 0 M138.918 1431.51 Q135.307 1431.51 133.478 1435.08 Q131.672 1438.62 131.672 1445.75 Q131.672 1452.86 133.478 1456.42 Q135.307 1459.96 138.918 1459.96 Q142.552 1459.96 144.357 1456.42 Q146.186 1452.86 146.186 1445.75 Q146.186 1438.62 144.357 1435.08 Q142.552 1431.51 138.918 1431.51 M138.918 1427.81 Q144.728 1427.81 147.783 1432.42 Q150.862 1437 150.862 1445.75 Q150.862 1454.48 147.783 1459.08 Q144.728 1463.67 138.918 1463.67 Q133.107 1463.67 130.029 1459.08 Q126.973 1454.48 126.973 1445.75 Q126.973 1437 130.029 1432.42 Q133.107 1427.81 138.918 1427.81 Z" fill="#000000" fill-rule="evenodd" fill-opacity="1" /><path clip-path="url(#clip190)" d="M 0 0 M77.5291 1092.08 Q73.918 1092.08 72.0893 1095.64 Q70.2838 1099.19 70.2838 1106.32 Q70.2838 1113.42 72.0893 1116.99 Q73.918 1120.53 77.5291 1120.53 Q81.1633 1120.53 82.9689 1116.99 Q84.7976 1113.42 84.7976 1106.32 Q84.7976 1099.19 82.9689 1095.64 Q81.1633 1092.08 77.5291 1092.08 M77.5291 1088.38 Q83.3392 1088.38 86.3948 1092.98 Q89.4735 1097.57 89.4735 1106.32 Q89.4735 1115.04 86.3948 1119.65 Q83.3392 1124.23 77.5291 1124.23 Q71.7189 1124.23 68.6402 1119.65 Q65.5847 1115.04 65.5847 1106.32 Q65.5847 1097.57 68.6402 1092.98 Q71.7189 1088.38 77.5291 1088.38 Z" fill="#000000" fill-rule="evenodd" fill-opacity="1" /><path clip-path="url(#clip190)" d="M 0 0 M94.5429 1117.68 L99.4271 1117.68 L99.4271 1123.56 L94.5429 1123.56 L94.5429 1117.68 Z" fill="#000000" fill-rule="evenodd" fill-opacity="1" /><path clip-path="url(#clip190)" d="M 0 0 M108.524 1119.63 L124.844 1119.63 L124.844 1123.56 L102.899 1123.56 L102.899 1119.63 Q105.561 1116.87 110.145 1112.24 Q114.751 1107.59 115.932 1106.25 Q118.177 1103.72 119.057 1101.99 Q119.959 1100.23 119.959 1098.54 Q119.959 1095.78 118.015 1094.05 Q116.094 1092.31 112.992 1092.31 Q110.793 1092.31 108.339 1093.07 Q105.909 1093.84 103.131 1095.39 L103.131 1090.67 Q105.955 1089.53 108.409 1088.95 Q110.862 1088.38 112.899 1088.38 Q118.27 1088.38 121.464 1091.06 Q124.658 1093.75 124.658 1098.24 Q124.658 1100.37 123.848 1102.29 Q123.061 1104.19 120.955 1106.78 Q120.376 1107.45 117.274 1110.67 Q114.172 1113.86 108.524 1119.63 Z" fill="#000000" fill-rule="evenodd" fill-opacity="1" /><path clip-path="url(#clip190)" d="M 0 0 M129.959 1089 L148.316 1089 L148.316 1092.94 L134.242 1092.94 L134.242 1101.41 Q135.26 1101.06 136.279 1100.9 Q137.297 1100.71 138.316 1100.71 Q144.103 1100.71 147.482 1103.89 Q150.862 1107.06 150.862 1112.47 Q150.862 1118.05 147.39 1121.15 Q143.918 1124.23 137.598 1124.23 Q135.422 1124.23 133.154 1123.86 Q130.908 1123.49 128.501 1122.75 L128.501 1118.05 Q130.584 1119.19 132.807 1119.74 Q135.029 1120.3 137.506 1120.3 Q141.51 1120.3 143.848 1118.19 Q146.186 1116.08 146.186 1112.47 Q146.186 1108.86 143.848 1106.76 Q141.51 1104.65 137.506 1104.65 Q135.631 1104.65 133.756 1105.07 Q131.904 1105.48 129.959 1106.36 L129.959 1089 Z" fill="#000000" fill-rule="evenodd" fill-opacity="1" /><path clip-path="url(#clip190)" d="M 0 0 M75.9319 752.645 Q72.3208 752.645 70.4921 756.209 Q68.6865 759.751 68.6865 766.881 Q68.6865 773.987 70.4921 777.552 Q72.3208 781.094 75.9319 781.094 Q79.5661 781.094 81.3717 777.552 Q83.2004 773.987 83.2004 766.881 Q83.2004 759.751 81.3717 756.209 Q79.5661 752.645 75.9319 752.645 M75.9319 748.941 Q81.742 748.941 84.7976 753.547 Q87.8763 758.131 87.8763 766.881 Q87.8763 775.608 84.7976 780.214 Q81.742 784.797 75.9319 784.797 Q70.1217 784.797 67.043 780.214 Q63.9875 775.608 63.9875 766.881 Q63.9875 758.131 67.043 753.547 Q70.1217 748.941 75.9319 748.941 Z" fill="#000000" fill-rule="evenodd" fill-opacity="1" /><path clip-path="url(#clip190)" d="M 0 0 M92.9457 778.246 L97.8299 778.246 L97.8299 784.126 L92.9457 784.126 L92.9457 778.246 Z" fill="#000000" fill-rule="evenodd" fill-opacity="1" /><path clip-path="url(#clip190)" d="M 0 0 M102.946 749.566 L121.302 749.566 L121.302 753.501 L107.228 753.501 L107.228 761.973 Q108.247 761.626 109.265 761.464 Q110.284 761.279 111.302 761.279 Q117.089 761.279 120.469 764.45 Q123.848 767.621 123.848 773.038 Q123.848 778.617 120.376 781.719 Q116.904 784.797 110.584 784.797 Q108.409 784.797 106.14 784.427 Q103.895 784.057 101.487 783.316 L101.487 778.617 Q103.571 779.751 105.793 780.307 Q108.015 780.862 110.492 780.862 Q114.496 780.862 116.834 778.756 Q119.172 776.649 119.172 773.038 Q119.172 769.427 116.834 767.321 Q114.496 765.214 110.492 765.214 Q108.617 765.214 106.742 765.631 Q104.89 766.047 102.946 766.927 L102.946 749.566 Z" fill="#000000" fill-rule="evenodd" fill-opacity="1" /><path clip-path="url(#clip190)" d="M 0 0 M138.918 752.645 Q135.307 752.645 133.478 756.209 Q131.672 759.751 131.672 766.881 Q131.672 773.987 133.478 777.552 Q135.307 781.094 138.918 781.094 Q142.552 781.094 144.357 777.552 Q146.186 773.987 146.186 766.881 Q146.186 759.751 144.357 756.209 Q142.552 752.645 138.918 752.645 M138.918 748.941 Q144.728 748.941 147.783 753.547 Q150.862 758.131 150.862 766.881 Q150.862 775.608 147.783 780.214 Q144.728 784.797 138.918 784.797 Q133.107 784.797 130.029 780.214 Q126.973 775.608 126.973 766.881 Q126.973 758.131 130.029 753.547 Q133.107 748.941 138.918 748.941 Z" fill="#000000" fill-rule="evenodd" fill-opacity="1" /><path clip-path="url(#clip190)" d="M 0 0 M76.8346 413.21 Q73.2236 413.21 71.3949 416.775 Q69.5893 420.316 69.5893 427.446 Q69.5893 434.552 71.3949 438.117 Q73.2236 441.659 76.8346 441.659 Q80.4689 441.659 82.2744 438.117 Q84.1031 434.552 84.1031 427.446 Q84.1031 420.316 82.2744 416.775 Q80.4689 413.21 76.8346 413.21 M76.8346 409.506 Q82.6448 409.506 85.7003 414.113 Q88.779 418.696 88.779 427.446 Q88.779 436.173 85.7003 440.779 Q82.6448 445.362 76.8346 445.362 Q71.0245 445.362 67.9458 440.779 Q64.8903 436.173 64.8903 427.446 Q64.8903 418.696 67.9458 414.113 Q71.0245 409.506 76.8346 409.506 Z" fill="#000000" fill-rule="evenodd" fill-opacity="1" /><path clip-path="url(#clip190)" d="M 0 0 M93.8484 438.812 L98.7327 438.812 L98.7327 444.691 L93.8484 444.691 L93.8484 438.812 Z" fill="#000000" fill-rule="evenodd" fill-opacity="1" /><path clip-path="url(#clip190)" d="M 0 0 M102.622 410.131 L124.844 410.131 L124.844 412.122 L112.297 444.691 L107.413 444.691 L119.219 414.066 L102.622 414.066 L102.622 410.131 Z" fill="#000000" fill-rule="evenodd" fill-opacity="1" /><path clip-path="url(#clip190)" d="M 0 0 M129.959 410.131 L148.316 410.131 L148.316 414.066 L134.242 414.066 L134.242 422.538 Q135.26 422.191 136.279 422.029 Q137.297 421.844 138.316 421.844 Q144.103 421.844 147.482 425.015 Q150.862 428.187 150.862 433.603 Q150.862 439.182 147.39 442.284 Q143.918 445.362 137.598 445.362 Q135.422 445.362 133.154 444.992 Q130.908 444.622 128.501 443.881 L128.501 439.182 Q130.584 440.316 132.807 440.872 Q135.029 441.427 137.506 441.427 Q141.51 441.427 143.848 439.321 Q146.186 437.214 146.186 433.603 Q146.186 429.992 143.848 427.886 Q141.51 425.779 137.506 425.779 Q135.631 425.779 133.756 426.196 Q131.904 426.613 129.959 427.492 L129.959 410.131 Z" fill="#000000" fill-rule="evenodd" fill-opacity="1" /><path clip-path="url(#clip190)" d="M 0 0 M66.9736 101.321 L74.6124 101.321 L74.6124 74.9555 L66.3023 76.6222 L66.3023 72.3629 L74.5661 70.6963 L79.242 70.6963 L79.242 101.321 L86.8809 101.321 L86.8809 105.256 L66.9736 105.256 L66.9736 101.321 Z" fill="#000000" fill-rule="evenodd" fill-opacity="1" /><path clip-path="url(#clip190)" d="M 0 0 M91.9503 99.3767 L96.8345 99.3767 L96.8345 105.256 L91.9503 105.256 L91.9503 99.3767 Z" fill="#000000" fill-rule="evenodd" fill-opacity="1" /><path clip-path="url(#clip190)" d="M 0 0 M111.904 73.775 Q108.293 73.775 106.464 77.3398 Q104.659 80.8814 104.659 88.011 Q104.659 95.1174 106.464 98.6822 Q108.293 102.224 111.904 102.224 Q115.538 102.224 117.344 98.6822 Q119.172 95.1174 119.172 88.011 Q119.172 80.8814 117.344 77.3398 Q115.538 73.775 111.904 73.775 M111.904 70.0713 Q117.714 70.0713 120.77 74.6777 Q123.848 79.261 123.848 88.011 Q123.848 96.7378 120.77 101.344 Q117.714 105.928 111.904 105.928 Q106.094 105.928 103.015 101.344 Q99.9595 96.7378 99.9595 88.011 Q99.9595 79.261 103.015 74.6777 Q106.094 70.0713 111.904 70.0713 Z" fill="#000000" fill-rule="evenodd" fill-opacity="1" /><path clip-path="url(#clip190)" d="M 0 0 M138.918 73.775 Q135.307 73.775 133.478 77.3398 Q131.672 80.8814 131.672 88.011 Q131.672 95.1174 133.478 98.6822 Q135.307 102.224 138.918 102.224 Q142.552 102.224 144.357 98.6822 Q146.186 95.1174 146.186 88.011 Q146.186 80.8814 144.357 77.3398 Q142.552 73.775 138.918 73.775 M138.918 70.0713 Q144.728 70.0713 147.783 74.6777 Q150.862 79.261 150.862 88.011 Q150.862 96.7378 147.783 101.344 Q144.728 105.928 138.918 105.928 Q133.107 105.928 130.029 101.344 Q126.973 96.7378 126.973 88.011 Q126.973 79.261 130.029 74.6777 Q133.107 70.0713 138.918 70.0713 Z" fill="#000000" fill-rule="evenodd" fill-opacity="1" /><path clip-path="url(#clip192)" d="
M1535.36 1445.72 L1535.36 1174.17 L992.261 87.9763 L1535.36 1445.72  Z
  " fill="#008000" fill-rule="evenodd" fill-opacity="0.2"/>
<polyline clip-path="url(#clip192)" style="stroke:#000000; stroke-width:4; stroke-opacity:1; fill:none" points="
  1535.36,1445.72 1535.36,1174.17 992.261,87.9763 1535.36,1445.72 
  "/>
<circle clip-path="url(#clip192)" cx="1535.36" cy="1445.72" r="14" fill="#ff0000" fill-rule="evenodd" fill-opacity="1" stroke="#000000" stroke-opacity="1" stroke-width="3.2"/>
<circle clip-path="url(#clip192)" cx="1535.36" cy="1174.17" r="14" fill="#ff0000" fill-rule="evenodd" fill-opacity="1" stroke="#000000" stroke-opacity="1" stroke-width="3.2"/>
<circle clip-path="url(#clip192)" cx="992.261" cy="87.9763" r="14" fill="#ff0000" fill-rule="evenodd" fill-opacity="1" stroke="#000000" stroke-opacity="1" stroke-width="3.2"/>
<circle clip-path="url(#clip192)" cx="1535.36" cy="1174.17" r="14" fill="#ff0000" fill-rule="evenodd" fill-opacity="1" stroke="#000000" stroke-opacity="1" stroke-width="3.2"/>
<circle clip-path="url(#clip192)" cx="1535.36" cy="1445.72" r="14" fill="#ff0000" fill-rule="evenodd" fill-opacity="1" stroke="#000000" stroke-opacity="1" stroke-width="3.2"/>
<circle clip-path="url(#clip192)" cx="1535.36" cy="1404.98" r="14" fill="#ff0000" fill-rule="evenodd" fill-opacity="1" stroke="#000000" stroke-opacity="1" stroke-width="3.2"/>
<circle clip-path="url(#clip192)" cx="1535.36" cy="1404.98" r="14" fill="#ff0000" fill-rule="evenodd" fill-opacity="1" stroke="#000000" stroke-opacity="1" stroke-width="3.2"/>
<path clip-path="url(#clip190)" d="M 0 0 M1535.36 1375.15 L1524.26 1405.25 L1546.5 1405.25 L1535.36 1375.15 M1530.74 1367.09 L1540.02 1367.09 L1563.07 1427.57 L1554.56 1427.57 L1549.05 1412.06 L1521.79 1412.06 L1516.28 1427.57 L1507.65 1427.57 L1530.74 1367.09 Z" fill="#000000" fill-rule="evenodd" fill-opacity="1" /><path clip-path="url(#clip190)" d="M 0 0 M1522.09 1127.14 L1522.09 1149.3 L1535.22 1149.3 Q1541.82 1149.3 1544.98 1146.59 Q1548.18 1143.83 1548.18 1138.2 Q1548.18 1132.53 1544.98 1129.85 Q1541.82 1127.14 1535.22 1127.14 L1522.09 1127.14 M1522.09 1102.27 L1522.09 1120.5 L1534.2 1120.5 Q1540.2 1120.5 1543.11 1118.27 Q1546.07 1116 1546.07 1111.38 Q1546.07 1106.81 1543.11 1104.54 Q1540.2 1102.27 1534.2 1102.27 L1522.09 1102.27 M1513.91 1095.54 L1534.81 1095.54 Q1544.17 1095.54 1549.23 1099.43 Q1554.29 1103.32 1554.29 1110.49 Q1554.29 1116.04 1551.7 1119.32 Q1549.11 1122.6 1544.09 1123.41 Q1550.12 1124.71 1553.44 1128.84 Q1556.81 1132.93 1556.81 1139.09 Q1556.81 1147.19 1551.3 1151.61 Q1545.79 1156.02 1535.62 1156.02 L1513.91 1156.02 L1513.91 1095.54 Z" fill="#000000" fill-rule="evenodd" fill-opacity="1" /><path clip-path="url(#clip190)" d="M 0 0 M1016.65 14.0108 L1016.65 22.6392 Q1012.52 18.7909 1007.82 16.887 Q1003.16 14.983 997.892 14.983 Q987.522 14.983 982.012 21.343 Q976.503 27.6624 976.503 39.653 Q976.503 51.6032 982.012 57.9631 Q987.522 64.2825 997.892 64.2825 Q1003.16 64.2825 1007.82 62.3786 Q1012.52 60.4747 1016.65 56.6263 L1016.65 65.1737 Q1012.35 68.0904 1007.53 69.5487 Q1002.75 71.007 997.406 71.007 Q983.673 71.007 975.774 62.6217 Q967.875 54.1958 967.875 39.653 Q967.875 25.0698 975.774 16.6844 Q983.673 8.25853 997.406 8.25853 Q1002.83 8.25853 1007.61 9.71686 Q1012.43 11.1347 1016.65 14.0108 Z" fill="#000000" fill-rule="evenodd" fill-opacity="1" /><path clip-path="url(#clip190)" d="M 0 0 M1518.12 1102.27 L1518.12 1149.3 L1528 1149.3 Q1540.52 1149.3 1546.31 1143.63 Q1552.15 1137.96 1552.15 1125.72 Q1552.15 1113.57 1546.31 1107.94 Q1540.52 1102.27 1528 1102.27 L1518.12 1102.27 M1509.94 1095.54 L1526.75 1095.54 Q1544.33 1095.54 1552.55 1102.88 Q1560.78 1110.17 1560.78 1125.72 Q1560.78 1141.36 1552.51 1148.69 Q1544.25 1156.02 1526.75 1156.02 L1509.94 1156.02 L1509.94 1095.54 Z" fill="#000000" fill-rule="evenodd" fill-opacity="1" /><path clip-path="url(#clip190)" d="M 0 0 M1515.87 1367.09 L1554.11 1367.09 L1554.11 1373.98 L1524.05 1373.98 L1524.05 1391.88 L1552.86 1391.88 L1552.86 1398.77 L1524.05 1398.77 L1524.05 1420.69 L1554.84 1420.69 L1554.84 1427.57 L1515.87 1427.57 L1515.87 1367.09 Z" fill="#000000" fill-rule="evenodd" fill-opacity="1" /><path clip-path="url(#clip190)" d="M 0 0 M1517.98 1326.36 L1552.74 1326.36 L1552.74 1333.25 L1526.16 1333.25 L1526.16 1351.07 L1550.14 1351.07 L1550.14 1357.96 L1526.16 1357.96 L1526.16 1386.84 L1517.98 1386.84 L1517.98 1326.36 Z" fill="#000000" fill-rule="evenodd" fill-opacity="1" /><path clip-path="url(#clip190)" d="M 0 0 M1535.4 1331.91 Q1526.49 1331.91 1521.22 1338.55 Q1515.99 1345.2 1515.99 1356.66 Q1515.99 1368.08 1521.22 1374.73 Q1526.49 1381.37 1535.4 1381.37 Q1544.31 1381.37 1549.49 1374.73 Q1554.72 1368.08 1554.72 1356.66 Q1554.72 1345.2 1549.49 1338.55 Q1544.31 1331.91 1535.4 1331.91 M1535.4 1325.27 Q1548.12 1325.27 1555.73 1333.81 Q1563.35 1342.32 1563.35 1356.66 Q1563.35 1370.96 1555.73 1379.51 Q1548.12 1388.01 1535.4 1388.01 Q1522.64 1388.01 1514.98 1379.51 Q1507.37 1371 1507.37 1356.66 Q1507.37 1342.32 1514.98 1333.81 Q1522.64 1325.27 1535.4 1325.27 Z" fill="#000000" fill-rule="evenodd" fill-opacity="1" /><polyline clip-path="url(#clip192)" style="stroke:#ffa500; stroke-width:4; stroke-opacity:1; fill:none" points="
  1535.36,1445.72 1535.36,1174.17 
  "/>
<polyline clip-path="url(#clip192)" style="stroke:#ffa500; stroke-width:4; stroke-opacity:1; fill:none" points="
  1535.36,1174.17 1535.36,1445.72 
  "/>
<polyline clip-path="url(#clip192)" style="stroke:#ffa500; stroke-width:4; stroke-opacity:1; fill:none" points="
  992.261,87.9763 1535.36,1404.98 
  "/>
</svg>
