<?xml version="1.0" encoding="utf-8"?>
<svg xmlns="http://www.w3.org/2000/svg" xmlns:xlink="http://www.w3.org/1999/xlink" width="600" height="400" viewBox="0 0 2400 1600">
<defs>
  <clipPath id="clip110">
    <rect x="0" y="0" width="2400" height="1600"/>
  </clipPath>
</defs>
<path clip-path="url(#clip110)" d="
M0 1600 L2400 1600 L2400 0 L0 0  Z
  " fill="#ffffff" fill-rule="evenodd" fill-opacity="1"/>
<defs>
  <clipPath id="clip111">
    <rect x="480" y="0" width="1681" height="1600"/>
  </clipPath>
</defs>
<path clip-path="url(#clip110)" d="
M148.334 1486.45 L2352.76 1486.45 L2352.76 47.2441 L148.334 47.2441  Z
  " fill="#ffffff" fill-rule="evenodd" fill-opacity="1"/>
<defs>
  <clipPath id="clip112">
    <rect x="148" y="47" width="2205" height="1440"/>
  </clipPath>
</defs>
<polyline clip-path="url(#clip112)" style="stroke:#000000; stroke-width:2; stroke-opacity:0.1; fill:none" points="
  232.241,1486.45 232.241,47.2441 
  "/>
<polyline clip-path="url(#clip112)" style="stroke:#000000; stroke-width:2; stroke-opacity:0.1; fill:none" points="
  571.675,1486.45 571.675,47.2441 
  "/>
<polyline clip-path="url(#clip112)" style="stroke:#000000; stroke-width:2; stroke-opacity:0.1; fill:none" points="
  911.11,1486.45 911.11,47.2441 
  "/>
<polyline clip-path="url(#clip112)" style="stroke:#000000; stroke-width:2; stroke-opacity:0.1; fill:none" points="
  1250.55,1486.45 1250.55,47.2441 
  "/>
<polyline clip-path="url(#clip112)" style="stroke:#000000; stroke-width:2; stroke-opacity:0.1; fill:none" points="
  1589.98,1486.45 1589.98,47.2441 
  "/>
<polyline clip-path="url(#clip112)" style="stroke:#000000; stroke-width:2; stroke-opacity:0.1; fill:none" points="
  1929.41,1486.45 1929.41,47.2441 
  "/>
<polyline clip-path="url(#clip112)" style="stroke:#000000; stroke-width:2; stroke-opacity:0.1; fill:none" points="
  2268.85,1486.45 2268.85,47.2441 
  "/>
<polyline clip-path="url(#clip112)" style="stroke:#000000; stroke-width:2; stroke-opacity:0.1; fill:none" points="
  148.334,1445.72 2352.76,1445.72 
  "/>
<polyline clip-path="url(#clip112)" style="stroke:#000000; stroke-width:2; stroke-opacity:0.1; fill:none" points="
  148.334,1106.28 2352.76,1106.28 
  "/>
<polyline clip-path="url(#clip112)" style="stroke:#000000; stroke-width:2; stroke-opacity:0.1; fill:none" points="
  148.334,766.846 2352.76,766.846 
  "/>
<polyline clip-path="url(#clip112)" style="stroke:#000000; stroke-width:2; stroke-opacity:0.1; fill:none" points="
  148.334,427.411 2352.76,427.411 
  "/>
<polyline clip-path="url(#clip112)" style="stroke:#000000; stroke-width:2; stroke-opacity:0.1; fill:none" points="
  148.334,87.9763 2352.76,87.9763 
  "/>
<polyline clip-path="url(#clip110)" style="stroke:#000000; stroke-width:4; stroke-opacity:1; fill:none" points="
  148.334,1486.45 2352.76,1486.45 
  "/>
<polyline clip-path="url(#clip110)" style="stroke:#000000; stroke-width:4; stroke-opacity:1; fill:none" points="
  148.334,1486.45 148.334,47.2441 
  "/>
<polyline clip-path="url(#clip110)" style="stroke:#000000; stroke-width:4; stroke-opacity:1; fill:none" points="
  232.241,1486.45 232.241,1469.18 
  "/>
<polyline clip-path="url(#clip110)" style="stroke:#000000; stroke-width:4; stroke-opacity:1; fill:none" points="
  571.675,1486.45 571.675,1469.18 
  "/>
<polyline clip-path="url(#clip110)" style="stroke:#000000; stroke-width:4; stroke-opacity:1; fill:none" points="
  911.11,1486.45 911.11,1469.18 
  "/>
<polyline clip-path="url(#clip110)" style="stroke:#000000; stroke-width:4; stroke-opacity:1; fill:none" points="
  1250.55,1486.45 1250.55,1469.18 
  "/>
<polyline clip-path="url(#clip110)" style="stroke:#000000; stroke-width:4; stroke-opacity:1; fill:none" points="
  1589.98,1486.45 1589.98,1469.18 
  "/>
<polyline clip-path="url(#clip110)" style="stroke:#000000; stroke-width:4; stroke-opacity:1; fill:none" points="
  1929.41,1486.45 1929.41,1469.18 
  "/>
<polyline clip-path="url(#clip110)" style="stroke:#000000; stroke-width:4; stroke-opacity:1; fill:none" points="
  2268.85,1486.45 2268.85,1469.18 
  "/>
<polyline clip-path="url(#clip110)" style="stroke:#000000; stroke-width:4; stroke-opacity:1; fill:none" points="
  148.334,1445.72 174.787,1445.72 
  "/>
<polyline clip-path="url(#clip110)" style="stroke:#000000; stroke-width:4; stroke-opacity:1; fill:none" points="
  148.334,1106.28 174.787,1106.28 
  "/>
<polyline clip-path="url(#clip110)" style="stroke:#000000; stroke-width:4; stroke-opacity:1; fill:none" points="
  148.334,766.846 174.787,766.846 
  "/>
<polyline clip-path="url(#clip110)" style="stroke:#000000; stroke-width:4; stroke-opacity:1; fill:none" points="
  148.334,427.411 174.787,427.411 
  "/>
<polyline clip-path="url(#clip110)" style="stroke:#000000; stroke-width:4; stroke-opacity:1; fill:none" points="
  148.334,87.9763 174.787,87.9763 
  "/>
<path clip-path="url(#clip110)" d="M 0 0 M214.555 1508.44 Q210.944 1508.44 209.116 1512 Q207.31 1515.55 207.31 1522.67 Q207.31 1529.78 209.116 1533.35 Q210.944 1536.89 214.555 1536.89 Q218.19 1536.89 219.995 1533.35 Q221.824 1529.78 221.824 1522.67 Q221.824 1515.55 219.995 1512 Q218.19 1508.44 214.555 1508.44 M214.555 1504.73 Q220.366 1504.73 223.421 1509.34 Q226.5 1513.92 226.5 1522.67 Q226.5 1531.4 223.421 1536.01 Q220.366 1540.59 214.555 1540.59 Q208.745 1540.59 205.667 1536.01 Q202.611 1531.4 202.611 1522.67 Q202.611 1513.92 205.667 1509.34 Q208.745 1504.73 214.555 1504.73 Z" fill="#000000" fill-rule="evenodd" fill-opacity="1" /><path clip-path="url(#clip110)" d="M 0 0 M231.569 1534.04 L236.454 1534.04 L236.454 1539.92 L231.569 1539.92 L231.569 1534.04 Z" fill="#000000" fill-rule="evenodd" fill-opacity="1" /><path clip-path="url(#clip110)" d="M 0 0 M245.551 1535.98 L261.87 1535.98 L261.87 1539.92 L239.926 1539.92 L239.926 1535.98 Q242.588 1533.23 247.171 1528.6 Q251.778 1523.95 252.958 1522.61 Q255.203 1520.08 256.083 1518.35 Q256.986 1516.59 256.986 1514.9 Q256.986 1512.14 255.041 1510.41 Q253.12 1508.67 250.018 1508.67 Q247.819 1508.67 245.366 1509.43 Q242.935 1510.2 240.157 1511.75 L240.157 1507.03 Q242.981 1505.89 245.435 1505.31 Q247.889 1504.73 249.926 1504.73 Q255.296 1504.73 258.49 1507.42 Q261.685 1510.11 261.685 1514.6 Q261.685 1516.73 260.875 1518.65 Q260.088 1520.54 257.981 1523.14 Q257.402 1523.81 254.301 1527.03 Q251.199 1530.22 245.551 1535.98 Z" fill="#000000" fill-rule="evenodd" fill-opacity="1" /><path clip-path="url(#clip110)" d="M 0 0 M553.516 1508.44 Q549.905 1508.44 548.076 1512 Q546.27 1515.55 546.27 1522.67 Q546.27 1529.78 548.076 1533.35 Q549.905 1536.89 553.516 1536.89 Q557.15 1536.89 558.956 1533.35 Q560.784 1529.78 560.784 1522.67 Q560.784 1515.55 558.956 1512 Q557.15 1508.44 553.516 1508.44 M553.516 1504.73 Q559.326 1504.73 562.382 1509.34 Q565.46 1513.92 565.46 1522.67 Q565.46 1531.4 562.382 1536.01 Q559.326 1540.59 553.516 1540.59 Q547.706 1540.59 544.627 1536.01 Q541.571 1531.4 541.571 1522.67 Q541.571 1513.92 544.627 1509.34 Q547.706 1504.73 553.516 1504.73 Z" fill="#000000" fill-rule="evenodd" fill-opacity="1" /><path clip-path="url(#clip110)" d="M 0 0 M570.53 1534.04 L575.414 1534.04 L575.414 1539.92 L570.53 1539.92 L570.53 1534.04 Z" fill="#000000" fill-rule="evenodd" fill-opacity="1" /><path clip-path="url(#clip110)" d="M 0 0 M594.65 1521.29 Q598.006 1522 599.881 1524.27 Q601.779 1526.54 601.779 1529.87 Q601.779 1534.99 598.261 1537.79 Q594.742 1540.59 588.261 1540.59 Q586.085 1540.59 583.77 1540.15 Q581.479 1539.73 579.025 1538.88 L579.025 1534.36 Q580.969 1535.5 583.284 1536.08 Q585.599 1536.66 588.122 1536.66 Q592.52 1536.66 594.812 1534.92 Q597.127 1533.18 597.127 1529.87 Q597.127 1526.82 594.974 1525.11 Q592.844 1523.37 589.025 1523.37 L584.997 1523.37 L584.997 1519.53 L589.21 1519.53 Q592.659 1519.53 594.488 1518.16 Q596.317 1516.77 596.317 1514.18 Q596.317 1511.52 594.418 1510.11 Q592.543 1508.67 589.025 1508.67 Q587.104 1508.67 584.905 1509.09 Q582.705 1509.5 580.067 1510.38 L580.067 1506.22 Q582.729 1505.48 585.043 1505.11 Q587.381 1504.73 589.442 1504.73 Q594.766 1504.73 597.867 1507.17 Q600.969 1509.57 600.969 1513.69 Q600.969 1516.56 599.326 1518.55 Q597.682 1520.52 594.65 1521.29 Z" fill="#000000" fill-rule="evenodd" fill-opacity="1" /><path clip-path="url(#clip110)" d="M 0 0 M892.384 1508.44 Q888.772 1508.44 886.944 1512 Q885.138 1515.55 885.138 1522.67 Q885.138 1529.78 886.944 1533.35 Q888.772 1536.89 892.384 1536.89 Q896.018 1536.89 897.823 1533.35 Q899.652 1529.78 899.652 1522.67 Q899.652 1515.55 897.823 1512 Q896.018 1508.44 892.384 1508.44 M892.384 1504.73 Q898.194 1504.73 901.249 1509.34 Q904.328 1513.92 904.328 1522.67 Q904.328 1531.4 901.249 1536.01 Q898.194 1540.59 892.384 1540.59 Q886.573 1540.59 883.495 1536.01 Q880.439 1531.4 880.439 1522.67 Q880.439 1513.92 883.495 1509.34 Q886.573 1504.73 892.384 1504.73 Z" fill="#000000" fill-rule="evenodd" fill-opacity="1" /><path clip-path="url(#clip110)" d="M 0 0 M909.397 1534.04 L914.282 1534.04 L914.282 1539.92 L909.397 1539.92 L909.397 1534.04 Z" fill="#000000" fill-rule="evenodd" fill-opacity="1" /><path clip-path="url(#clip110)" d="M 0 0 M932.198 1509.43 L920.393 1527.88 L932.198 1527.88 L932.198 1509.43 M930.971 1505.36 L936.851 1505.36 L936.851 1527.88 L941.781 1527.88 L941.781 1531.77 L936.851 1531.77 L936.851 1539.92 L932.198 1539.92 L932.198 1531.77 L916.596 1531.77 L916.596 1527.26 L930.971 1505.36 Z" fill="#000000" fill-rule="evenodd" fill-opacity="1" /><path clip-path="url(#clip110)" d="M 0 0 M1232.56 1508.44 Q1228.95 1508.44 1227.12 1512 Q1225.31 1515.55 1225.31 1522.67 Q1225.31 1529.78 1227.12 1533.35 Q1228.95 1536.89 1232.56 1536.89 Q1236.19 1536.89 1238 1533.35 Q1239.83 1529.78 1239.83 1522.67 Q1239.83 1515.55 1238 1512 Q1236.19 1508.44 1232.56 1508.44 M1232.56 1504.73 Q1238.37 1504.73 1241.42 1509.34 Q1244.5 1513.92 1244.5 1522.67 Q1244.5 1531.4 1241.42 1536.01 Q1238.37 1540.59 1232.56 1540.59 Q1226.75 1540.59 1223.67 1536.01 Q1220.61 1531.4 1220.61 1522.67 Q1220.61 1513.92 1223.67 1509.34 Q1226.75 1504.73 1232.56 1504.73 Z" fill="#000000" fill-rule="evenodd" fill-opacity="1" /><path clip-path="url(#clip110)" d="M 0 0 M1249.57 1534.04 L1254.46 1534.04 L1254.46 1539.92 L1249.57 1539.92 L1249.57 1534.04 Z" fill="#000000" fill-rule="evenodd" fill-opacity="1" /><path clip-path="url(#clip110)" d="M 0 0 M1259.57 1505.36 L1277.93 1505.36 L1277.93 1509.3 L1263.86 1509.3 L1263.86 1517.77 Q1264.87 1517.42 1265.89 1517.26 Q1266.91 1517.07 1267.93 1517.07 Q1273.72 1517.07 1277.1 1520.24 Q1280.48 1523.42 1280.48 1528.83 Q1280.48 1534.41 1277 1537.51 Q1273.53 1540.59 1267.21 1540.59 Q1265.04 1540.59 1262.77 1540.22 Q1260.52 1539.85 1258.11 1539.11 L1258.11 1534.41 Q1260.2 1535.54 1262.42 1536.1 Q1264.64 1536.66 1267.12 1536.66 Q1271.12 1536.66 1273.46 1534.55 Q1275.8 1532.44 1275.8 1528.83 Q1275.8 1525.22 1273.46 1523.11 Q1271.12 1521.01 1267.12 1521.01 Q1265.24 1521.01 1263.37 1521.42 Q1261.52 1521.84 1259.57 1522.72 L1259.57 1505.36 Z" fill="#000000" fill-rule="evenodd" fill-opacity="1" /><path clip-path="url(#clip110)" d="M 0 0 M1571.42 1508.44 Q1567.8 1508.44 1565.98 1512 Q1564.17 1515.55 1564.17 1522.67 Q1564.17 1529.78 1565.98 1533.35 Q1567.8 1536.89 1571.42 1536.89 Q1575.05 1536.89 1576.86 1533.35 Q1578.68 1529.78 1578.68 1522.67 Q1578.68 1515.55 1576.86 1512 Q1575.05 1508.44 1571.42 1508.44 M1571.42 1504.73 Q1577.23 1504.73 1580.28 1509.34 Q1583.36 1513.92 1583.36 1522.67 Q1583.36 1531.4 1580.28 1536.01 Q1577.23 1540.59 1571.42 1540.59 Q1565.61 1540.59 1562.53 1536.01 Q1559.47 1531.4 1559.47 1522.67 Q1559.47 1513.92 1562.53 1509.34 Q1565.61 1504.73 1571.42 1504.73 Z" fill="#000000" fill-rule="evenodd" fill-opacity="1" /><path clip-path="url(#clip110)" d="M 0 0 M1588.43 1534.04 L1593.31 1534.04 L1593.31 1539.92 L1588.43 1539.92 L1588.43 1534.04 Z" fill="#000000" fill-rule="evenodd" fill-opacity="1" /><path clip-path="url(#clip110)" d="M 0 0 M1608.96 1520.78 Q1605.81 1520.78 1603.96 1522.93 Q1602.13 1525.08 1602.13 1528.83 Q1602.13 1532.56 1603.96 1534.73 Q1605.81 1536.89 1608.96 1536.89 Q1612.11 1536.89 1613.94 1534.73 Q1615.79 1532.56 1615.79 1528.83 Q1615.79 1525.08 1613.94 1522.93 Q1612.11 1520.78 1608.96 1520.78 M1618.24 1506.12 L1618.24 1510.38 Q1616.48 1509.55 1614.68 1509.11 Q1612.9 1508.67 1611.14 1508.67 Q1606.51 1508.67 1604.05 1511.8 Q1601.62 1514.92 1601.28 1521.24 Q1602.64 1519.23 1604.7 1518.16 Q1606.76 1517.07 1609.24 1517.07 Q1614.45 1517.07 1617.46 1520.24 Q1620.49 1523.39 1620.49 1528.83 Q1620.49 1534.16 1617.34 1537.37 Q1614.19 1540.59 1608.96 1540.59 Q1602.97 1540.59 1599.79 1536.01 Q1596.62 1531.4 1596.62 1522.67 Q1596.62 1514.48 1600.51 1509.62 Q1604.4 1504.73 1610.95 1504.73 Q1612.71 1504.73 1614.49 1505.08 Q1616.3 1505.43 1618.24 1506.12 Z" fill="#000000" fill-rule="evenodd" fill-opacity="1" /><path clip-path="url(#clip110)" d="M 0 0 M1911.38 1508.44 Q1907.77 1508.44 1905.94 1512 Q1904.14 1515.55 1904.14 1522.67 Q1904.14 1529.78 1905.94 1533.35 Q1907.77 1536.89 1911.38 1536.89 Q1915.02 1536.89 1916.82 1533.35 Q1918.65 1529.78 1918.65 1522.67 Q1918.65 1515.55 1916.82 1512 Q1915.02 1508.44 1911.38 1508.44 M1911.38 1504.73 Q1917.19 1504.73 1920.25 1509.34 Q1923.33 1513.92 1923.33 1522.67 Q1923.33 1531.4 1920.25 1536.01 Q1917.19 1540.59 1911.38 1540.59 Q1905.57 1540.59 1902.49 1536.01 Q1899.44 1531.4 1899.44 1522.67 Q1899.44 1513.92 1902.49 1509.34 Q1905.57 1504.73 1911.38 1504.73 Z" fill="#000000" fill-rule="evenodd" fill-opacity="1" /><path clip-path="url(#clip110)" d="M 0 0 M1928.4 1534.04 L1933.28 1534.04 L1933.28 1539.92 L1928.4 1539.92 L1928.4 1534.04 Z" fill="#000000" fill-rule="evenodd" fill-opacity="1" /><path clip-path="url(#clip110)" d="M 0 0 M1937.17 1505.36 L1959.39 1505.36 L1959.39 1507.35 L1946.85 1539.92 L1941.96 1539.92 L1953.77 1509.3 L1937.17 1509.3 L1937.17 1505.36 Z" fill="#000000" fill-rule="evenodd" fill-opacity="1" /><path clip-path="url(#clip110)" d="M 0 0 M2250.41 1508.44 Q2246.8 1508.44 2244.97 1512 Q2243.17 1515.55 2243.17 1522.67 Q2243.17 1529.78 2244.97 1533.35 Q2246.8 1536.89 2250.41 1536.89 Q2254.05 1536.89 2255.85 1533.35 Q2257.68 1529.78 2257.68 1522.67 Q2257.68 1515.55 2255.85 1512 Q2254.05 1508.44 2250.41 1508.44 M2250.41 1504.73 Q2256.22 1504.73 2259.28 1509.34 Q2262.36 1513.92 2262.36 1522.67 Q2262.36 1531.4 2259.28 1536.01 Q2256.22 1540.59 2250.41 1540.59 Q2244.6 1540.59 2241.52 1536.01 Q2238.47 1531.4 2238.47 1522.67 Q2238.47 1513.92 2241.52 1509.34 Q2244.6 1504.73 2250.41 1504.73 Z" fill="#000000" fill-rule="evenodd" fill-opacity="1" /><path clip-path="url(#clip110)" d="M 0 0 M2267.43 1534.04 L2272.31 1534.04 L2272.31 1539.92 L2267.43 1539.92 L2267.43 1534.04 Z" fill="#000000" fill-rule="evenodd" fill-opacity="1" /><path clip-path="url(#clip110)" d="M 0 0 M2287.38 1523.51 Q2284.05 1523.51 2282.13 1525.29 Q2280.23 1527.07 2280.23 1530.2 Q2280.23 1533.32 2282.13 1535.11 Q2284.05 1536.89 2287.38 1536.89 Q2290.71 1536.89 2292.63 1535.11 Q2294.56 1533.3 2294.56 1530.2 Q2294.56 1527.07 2292.63 1525.29 Q2290.74 1523.51 2287.38 1523.51 M2282.7 1521.52 Q2279.69 1520.78 2278 1518.72 Q2276.34 1516.66 2276.34 1513.69 Q2276.34 1509.55 2279.28 1507.14 Q2282.24 1504.73 2287.38 1504.73 Q2292.54 1504.73 2295.48 1507.14 Q2298.42 1509.55 2298.42 1513.69 Q2298.42 1516.66 2296.73 1518.72 Q2295.06 1520.78 2292.08 1521.52 Q2295.46 1522.3 2297.33 1524.6 Q2299.23 1526.89 2299.23 1530.2 Q2299.23 1535.22 2296.15 1537.91 Q2293.1 1540.59 2287.38 1540.59 Q2281.66 1540.59 2278.58 1537.91 Q2275.53 1535.22 2275.53 1530.2 Q2275.53 1526.89 2277.43 1524.6 Q2279.32 1522.3 2282.7 1521.52 M2280.99 1514.13 Q2280.99 1516.82 2282.66 1518.32 Q2284.35 1519.83 2287.38 1519.83 Q2290.39 1519.83 2292.08 1518.32 Q2293.79 1516.82 2293.79 1514.13 Q2293.79 1511.45 2292.08 1509.94 Q2290.39 1508.44 2287.38 1508.44 Q2284.35 1508.44 2282.66 1509.94 Q2280.99 1511.45 2280.99 1514.13 Z" fill="#000000" fill-rule="evenodd" fill-opacity="1" /><path clip-path="url(#clip110)" d="M 0 0 M77.0198 1431.51 Q73.4087 1431.51 71.58 1435.08 Q69.7745 1438.62 69.7745 1445.75 Q69.7745 1452.86 71.58 1456.42 Q73.4087 1459.96 77.0198 1459.96 Q80.6541 1459.96 82.4596 1456.42 Q84.2883 1452.86 84.2883 1445.75 Q84.2883 1438.62 82.4596 1435.08 Q80.6541 1431.51 77.0198 1431.51 M77.0198 1427.81 Q82.83 1427.81 85.8855 1432.42 Q88.9642 1437 88.9642 1445.75 Q88.9642 1454.48 85.8855 1459.08 Q82.83 1463.67 77.0198 1463.67 Q71.2097 1463.67 68.131 1459.08 Q65.0754 1454.48 65.0754 1445.75 Q65.0754 1437 68.131 1432.42 Q71.2097 1427.81 77.0198 1427.81 Z" fill="#000000" fill-rule="evenodd" fill-opacity="1" /><path clip-path="url(#clip110)" d="M 0 0 M94.0336 1457.12 L98.9179 1457.12 L98.9179 1463 L94.0336 1463 L94.0336 1457.12 Z" fill="#000000" fill-rule="evenodd" fill-opacity="1" /><path clip-path="url(#clip110)" d="M 0 0 M108.015 1459.06 L124.334 1459.06 L124.334 1463 L102.39 1463 L102.39 1459.06 Q105.052 1456.31 109.635 1451.68 Q114.242 1447.02 115.422 1445.68 Q117.668 1443.16 118.547 1441.42 Q119.45 1439.66 119.45 1437.97 Q119.45 1435.22 117.506 1433.48 Q115.584 1431.75 112.483 1431.75 Q110.284 1431.75 107.83 1432.51 Q105.399 1433.27 102.622 1434.82 L102.622 1430.1 Q105.446 1428.97 107.899 1428.39 Q110.353 1427.81 112.39 1427.81 Q117.76 1427.81 120.955 1430.5 Q124.149 1433.18 124.149 1437.67 Q124.149 1439.8 123.339 1441.72 Q122.552 1443.62 120.446 1446.21 Q119.867 1446.88 116.765 1450.1 Q113.663 1453.3 108.015 1459.06 Z" fill="#000000" fill-rule="evenodd" fill-opacity="1" /><path clip-path="url(#clip110)" d="M 0 0 M76.0708 1092.08 Q72.4597 1092.08 70.631 1095.64 Q68.8254 1099.19 68.8254 1106.32 Q68.8254 1113.42 70.631 1116.99 Q72.4597 1120.53 76.0708 1120.53 Q79.705 1120.53 81.5105 1116.99 Q83.3392 1113.42 83.3392 1106.32 Q83.3392 1099.19 81.5105 1095.64 Q79.705 1092.08 76.0708 1092.08 M76.0708 1088.38 Q81.8809 1088.38 84.9365 1092.98 Q88.0151 1097.57 88.0151 1106.32 Q88.0151 1115.04 84.9365 1119.65 Q81.8809 1124.23 76.0708 1124.23 Q70.2606 1124.23 67.1819 1119.65 Q64.1264 1115.04 64.1264 1106.32 Q64.1264 1097.57 67.1819 1092.98 Q70.2606 1088.38 76.0708 1088.38 Z" fill="#000000" fill-rule="evenodd" fill-opacity="1" /><path clip-path="url(#clip110)" d="M 0 0 M93.0846 1117.68 L97.9688 1117.68 L97.9688 1123.56 L93.0846 1123.56 L93.0846 1117.68 Z" fill="#000000" fill-rule="evenodd" fill-opacity="1" /><path clip-path="url(#clip110)" d="M 0 0 M117.205 1104.93 Q120.561 1105.64 122.436 1107.91 Q124.334 1110.18 124.334 1113.51 Q124.334 1118.63 120.816 1121.43 Q117.297 1124.23 110.816 1124.23 Q108.64 1124.23 106.325 1123.79 Q104.034 1123.38 101.58 1122.52 L101.58 1118.01 Q103.524 1119.14 105.839 1119.72 Q108.154 1120.3 110.677 1120.3 Q115.075 1120.3 117.367 1118.56 Q119.682 1116.82 119.682 1113.51 Q119.682 1110.46 117.529 1108.75 Q115.399 1107.01 111.58 1107.01 L107.552 1107.01 L107.552 1103.17 L111.765 1103.17 Q115.214 1103.17 117.043 1101.8 Q118.871 1100.41 118.871 1097.82 Q118.871 1095.16 116.973 1093.75 Q115.098 1092.31 111.58 1092.31 Q109.659 1092.31 107.459 1092.73 Q105.26 1093.14 102.622 1094.02 L102.622 1089.86 Q105.284 1089.12 107.598 1088.75 Q109.936 1088.38 111.996 1088.38 Q117.321 1088.38 120.422 1090.81 Q123.524 1093.21 123.524 1097.33 Q123.524 1100.2 121.881 1102.2 Q120.237 1104.16 117.205 1104.93 Z" fill="#000000" fill-rule="evenodd" fill-opacity="1" /><path clip-path="url(#clip110)" d="M 0 0 M74.9365 752.645 Q71.3254 752.645 69.4967 756.209 Q67.6912 759.751 67.6912 766.881 Q67.6912 773.987 69.4967 777.552 Q71.3254 781.094 74.9365 781.094 Q78.5707 781.094 80.3763 777.552 Q82.205 773.987 82.205 766.881 Q82.205 759.751 80.3763 756.209 Q78.5707 752.645 74.9365 752.645 M74.9365 748.941 Q80.7467 748.941 83.8022 753.547 Q86.8809 758.131 86.8809 766.881 Q86.8809 775.608 83.8022 780.214 Q80.7467 784.797 74.9365 784.797 Q69.1264 784.797 66.0477 780.214 Q62.9921 775.608 62.9921 766.881 Q62.9921 758.131 66.0477 753.547 Q69.1264 748.941 74.9365 748.941 Z" fill="#000000" fill-rule="evenodd" fill-opacity="1" /><path clip-path="url(#clip110)" d="M 0 0 M91.9503 778.246 L96.8345 778.246 L96.8345 784.126 L91.9503 784.126 L91.9503 778.246 Z" fill="#000000" fill-rule="evenodd" fill-opacity="1" /><path clip-path="url(#clip110)" d="M 0 0 M114.751 753.64 L102.946 772.089 L114.751 772.089 L114.751 753.64 M113.524 749.566 L119.404 749.566 L119.404 772.089 L124.334 772.089 L124.334 775.978 L119.404 775.978 L119.404 784.126 L114.751 784.126 L114.751 775.978 L99.1493 775.978 L99.1493 771.464 L113.524 749.566 Z" fill="#000000" fill-rule="evenodd" fill-opacity="1" /><path clip-path="url(#clip110)" d="M 0 0 M76.418 413.21 Q72.8069 413.21 70.9782 416.775 Q69.1726 420.316 69.1726 427.446 Q69.1726 434.552 70.9782 438.117 Q72.8069 441.659 76.418 441.659 Q80.0522 441.659 81.8578 438.117 Q83.6865 434.552 83.6865 427.446 Q83.6865 420.316 81.8578 416.775 Q80.0522 413.21 76.418 413.21 M76.418 409.506 Q82.2281 409.506 85.2837 414.113 Q88.3624 418.696 88.3624 427.446 Q88.3624 436.173 85.2837 440.779 Q82.2281 445.362 76.418 445.362 Q70.6078 445.362 67.5291 440.779 Q64.4736 436.173 64.4736 427.446 Q64.4736 418.696 67.5291 414.113 Q70.6078 409.506 76.418 409.506 Z" fill="#000000" fill-rule="evenodd" fill-opacity="1" /><path clip-path="url(#clip110)" d="M 0 0 M93.4318 438.812 L98.316 438.812 L98.316 444.691 L93.4318 444.691 L93.4318 438.812 Z" fill="#000000" fill-rule="evenodd" fill-opacity="1" /><path clip-path="url(#clip110)" d="M 0 0 M103.432 410.131 L121.788 410.131 L121.788 414.066 L107.714 414.066 L107.714 422.538 Q108.733 422.191 109.751 422.029 Q110.77 421.844 111.788 421.844 Q117.575 421.844 120.955 425.015 Q124.334 428.187 124.334 433.603 Q124.334 439.182 120.862 442.284 Q117.39 445.362 111.071 445.362 Q108.895 445.362 106.626 444.992 Q104.381 444.622 101.973 443.881 L101.973 439.182 Q104.057 440.316 106.279 440.872 Q108.501 441.427 110.978 441.427 Q114.983 441.427 117.321 439.321 Q119.658 437.214 119.658 433.603 Q119.658 429.992 117.321 427.886 Q114.983 425.779 110.978 425.779 Q109.103 425.779 107.228 426.196 Q105.376 426.613 103.432 427.492 L103.432 410.131 Z" fill="#000000" fill-rule="evenodd" fill-opacity="1" /><path clip-path="url(#clip110)" d="M 0 0 M75.2606 73.775 Q71.6495 73.775 69.8208 77.3398 Q68.0152 80.8814 68.0152 88.011 Q68.0152 95.1174 69.8208 98.6822 Q71.6495 102.224 75.2606 102.224 Q78.8948 102.224 80.7004 98.6822 Q82.5291 95.1174 82.5291 88.011 Q82.5291 80.8814 80.7004 77.3398 Q78.8948 73.775 75.2606 73.775 M75.2606 70.0713 Q81.0707 70.0713 84.1263 74.6777 Q87.205 79.261 87.205 88.011 Q87.205 96.7378 84.1263 101.344 Q81.0707 105.928 75.2606 105.928 Q69.4504 105.928 66.3717 101.344 Q63.3162 96.7378 63.3162 88.011 Q63.3162 79.261 66.3717 74.6777 Q69.4504 70.0713 75.2606 70.0713 Z" fill="#000000" fill-rule="evenodd" fill-opacity="1" /><path clip-path="url(#clip110)" d="M 0 0 M92.2744 99.3767 L97.1586 99.3767 L97.1586 105.256 L92.2744 105.256 L92.2744 99.3767 Z" fill="#000000" fill-rule="evenodd" fill-opacity="1" /><path clip-path="url(#clip110)" d="M 0 0 M112.807 86.1129 Q109.659 86.1129 107.807 88.2656 Q105.978 90.4184 105.978 94.1684 Q105.978 97.8952 107.807 100.071 Q109.659 102.224 112.807 102.224 Q115.955 102.224 117.783 100.071 Q119.635 97.8952 119.635 94.1684 Q119.635 90.4184 117.783 88.2656 Q115.955 86.1129 112.807 86.1129 M122.089 71.4602 L122.089 75.7194 Q120.33 74.8861 118.524 74.4463 Q116.742 74.0064 114.983 74.0064 Q110.353 74.0064 107.899 77.1314 Q105.469 80.2564 105.122 86.5758 Q106.487 84.5619 108.547 83.4971 Q110.608 82.4092 113.084 82.4092 Q118.293 82.4092 121.302 85.5805 Q124.334 88.7286 124.334 94.1684 Q124.334 99.4924 121.186 102.71 Q118.038 105.928 112.807 105.928 Q106.811 105.928 103.64 101.344 Q100.469 96.7378 100.469 88.011 Q100.469 79.8166 104.358 74.9555 Q108.247 70.0713 114.797 70.0713 Q116.557 70.0713 118.339 70.4185 Q120.145 70.7657 122.089 71.4602 Z" fill="#000000" fill-rule="evenodd" fill-opacity="1" /><path clip-path="url(#clip112)" d="
M1929.41 766.846 L232.241 1445.72 L2268.85 87.9763 L1929.41 766.846  Z
  " fill="#008000" fill-rule="evenodd" fill-opacity="0.2"/>
<polyline clip-path="url(#clip112)" style="stroke:#000000; stroke-width:4; stroke-opacity:1; fill:none" points="
  1929.41,766.846 232.241,1445.72 2268.85,87.9763 1929.41,766.846 
  "/>
<circle clip-path="url(#clip112)" cx="1929.41" cy="766.846" r="14" fill="#ff0000" fill-rule="evenodd" fill-opacity="1" stroke="#000000" stroke-opacity="1" stroke-width="3.2"/>
<circle clip-path="url(#clip112)" cx="232.241" cy="1445.72" r="14" fill="#ff0000" fill-rule="evenodd" fill-opacity="1" stroke="#000000" stroke-opacity="1" stroke-width="3.2"/>
<circle clip-path="url(#clip112)" cx="2268.85" cy="87.9763" r="14" fill="#ff0000" fill-rule="evenodd" fill-opacity="1" stroke="#000000" stroke-opacity="1" stroke-width="3.2"/>
<circle clip-path="url(#clip112)" cx="1774.24" cy="417.713" r="14" fill="#ff0000" fill-rule="evenodd" fill-opacity="1" stroke="#000000" stroke-opacity="1" stroke-width="3.2"/>
<circle clip-path="url(#clip112)" cx="2214.97" cy="195.733" r="14" fill="#ff0000" fill-rule="evenodd" fill-opacity="1" stroke="#000000" stroke-opacity="1" stroke-width="3.2"/>
<circle clip-path="url(#clip112)" cx="860.824" cy="1194.28" r="14" fill="#ff0000" fill-rule="evenodd" fill-opacity="1" stroke="#000000" stroke-opacity="1" stroke-width="3.2"/>
<circle clip-path="url(#clip112)" cx="1793.64" cy="461.355" r="14" fill="#ff0000" fill-rule="evenodd" fill-opacity="1" stroke="#000000" stroke-opacity="1" stroke-width="3.2"/>
<path clip-path="url(#clip110)" d="M 0 0 M1929.41 696.283 L1918.32 726.382 L1940.55 726.382 L1929.41 696.283 M1924.8 688.222 L1934.07 688.222 L1957.12 748.702 L1948.62 748.702 L1943.11 733.187 L1915.84 733.187 L1910.34 748.702 L1901.71 748.702 L1924.8 688.222 Z" fill="#000000" fill-rule="evenodd" fill-opacity="1" /><path clip-path="url(#clip110)" d="M 0 0 M218.974 1398.69 L218.974 1420.85 L232.099 1420.85 Q238.702 1420.85 241.861 1418.13 Q245.062 1415.38 245.062 1409.75 Q245.062 1404.08 241.861 1401.4 Q238.702 1398.69 232.099 1398.69 L218.974 1398.69 M218.974 1373.82 L218.974 1392.05 L231.086 1392.05 Q237.081 1392.05 239.998 1389.82 Q242.955 1387.55 242.955 1382.93 Q242.955 1378.35 239.998 1376.08 Q237.081 1373.82 231.086 1373.82 L218.974 1373.82 M210.791 1367.09 L231.694 1367.09 Q241.051 1367.09 246.115 1370.98 Q251.179 1374.87 251.179 1382.04 Q251.179 1387.59 248.586 1390.87 Q245.993 1394.15 240.97 1394.96 Q247.006 1396.26 250.328 1400.39 Q253.69 1404.48 253.69 1410.64 Q253.69 1418.74 248.181 1423.16 Q242.672 1427.57 232.504 1427.57 L210.791 1427.57 L210.791 1367.09 Z" fill="#000000" fill-rule="evenodd" fill-opacity="1" /><path clip-path="url(#clip110)" d="M 0 0 M2293.24 14.0108 L2293.24 22.6392 Q2289.1 18.7909 2284.41 16.887 Q2279.75 14.983 2274.48 14.983 Q2264.11 14.983 2258.6 21.343 Q2253.09 27.6624 2253.09 39.653 Q2253.09 51.6032 2258.6 57.9631 Q2264.11 64.2825 2274.48 64.2825 Q2279.75 64.2825 2284.41 62.3786 Q2289.1 60.4747 2293.24 56.6263 L2293.24 65.1737 Q2288.94 68.0904 2284.12 69.5487 Q2279.34 71.007 2273.99 71.007 Q2260.26 71.007 2252.36 62.6217 Q2244.46 54.1958 2244.46 39.653 Q2244.46 25.0698 2252.36 16.6844 Q2260.26 8.25853 2273.99 8.25853 Q2279.42 8.25853 2284.2 9.71686 Q2289.02 11.1347 2293.24 14.0108 Z" fill="#000000" fill-rule="evenodd" fill-opacity="1" /><path clip-path="url(#clip110)" d="M 0 0 M1757.01 345.813 L1757.01 392.844 L1766.89 392.844 Q1779.41 392.844 1785.2 387.173 Q1791.04 381.502 1791.04 369.268 Q1791.04 357.116 1785.2 351.485 Q1779.41 345.813 1766.89 345.813 L1757.01 345.813 M1748.83 339.089 L1765.64 339.089 Q1783.22 339.089 1791.44 346.421 Q1799.66 353.713 1799.66 369.268 Q1799.66 384.905 1791.4 392.237 Q1783.14 399.569 1765.64 399.569 L1748.83 399.569 L1748.83 339.089 Z" fill="#000000" fill-rule="evenodd" fill-opacity="1" /><path clip-path="url(#clip110)" d="M 0 0 M2195.49 117.109 L2233.73 117.109 L2233.73 123.996 L2203.67 123.996 L2203.67 141.901 L2232.47 141.901 L2232.47 148.787 L2203.67 148.787 L2203.67 170.703 L2234.46 170.703 L2234.46 177.589 L2195.49 177.589 L2195.49 117.109 Z" fill="#000000" fill-rule="evenodd" fill-opacity="1" /><path clip-path="url(#clip110)" d="M 0 0 M843.445 1115.66 L878.202 1115.66 L878.202 1122.55 L851.628 1122.55 L851.628 1140.37 L875.609 1140.37 L875.609 1147.26 L851.628 1147.26 L851.628 1176.14 L843.445 1176.14 L843.445 1115.66 Z" fill="#000000" fill-rule="evenodd" fill-opacity="1" /><path clip-path="url(#clip110)" d="M 0 0 M1793.68 388.28 Q1784.77 388.28 1779.5 394.924 Q1774.28 401.567 1774.28 413.031 Q1774.28 424.455 1779.5 431.098 Q1784.77 437.742 1793.68 437.742 Q1802.59 437.742 1807.78 431.098 Q1813 424.455 1813 413.031 Q1813 401.567 1807.78 394.924 Q1802.59 388.28 1793.68 388.28 M1793.68 381.637 Q1806.4 381.637 1814.02 390.184 Q1821.63 398.691 1821.63 413.031 Q1821.63 427.331 1814.02 435.878 Q1806.4 444.385 1793.68 444.385 Q1780.92 444.385 1773.26 435.878 Q1765.65 427.372 1765.65 413.031 Q1765.65 398.691 1773.26 390.184 Q1780.92 381.637 1793.68 381.637 Z" fill="#000000" fill-rule="evenodd" fill-opacity="1" /><polyline clip-path="url(#clip112)" style="stroke:#ffa500; stroke-width:4; stroke-opacity:1; fill:none" points="
  1929.41,766.846 1774.24,417.713 
  "/>
<polyline clip-path="url(#clip112)" style="stroke:#ffa500; stroke-width:4; stroke-opacity:1; fill:none" points="
  232.241,1445.72 2214.97,195.733 
  "/>
<polyline clip-path="url(#clip112)" style="stroke:#ffa500; stroke-width:4; stroke-opacity:1; fill:none" points="
  2268.85,87.9763 860.824,1194.28 
  "/>
</svg>
