<?xml version="1.0" encoding="utf-8"?>
<svg xmlns="http://www.w3.org/2000/svg" xmlns:xlink="http://www.w3.org/1999/xlink" width="600" height="400" viewBox="0 0 2400 1600">
<defs>
  <clipPath id="clip200">
    <rect x="0" y="0" width="2400" height="1600"/>
  </clipPath>
</defs>
<path clip-path="url(#clip200)" d="
M0 1600 L2400 1600 L2400 0 L0 0  Z
  " fill="#ffffff" fill-rule="evenodd" fill-opacity="1"/>
<defs>
  <clipPath id="clip201">
    <rect x="480" y="0" width="1681" height="1600"/>
  </clipPath>
</defs>
<path clip-path="url(#clip200)" d="
M148.334 1486.45 L2352.76 1486.45 L2352.76 47.2441 L148.334 47.2441  Z
  " fill="#ffffff" fill-rule="evenodd" fill-opacity="1"/>
<defs>
  <clipPath id="clip202">
    <rect x="148" y="47" width="2205" height="1440"/>
  </clipPath>
</defs>
<polyline clip-path="url(#clip202)" style="stroke:#000000; stroke-width:2; stroke-opacity:0.1; fill:none" points="
  419.853,1486.45 419.853,47.2441 
  "/>
<polyline clip-path="url(#clip202)" style="stroke:#000000; stroke-width:2; stroke-opacity:0.1; fill:none" points="
  885.62,1486.45 885.62,47.2441 
  "/>
<polyline clip-path="url(#clip202)" style="stroke:#000000; stroke-width:2; stroke-opacity:0.1; fill:none" points="
  1351.39,1486.45 1351.39,47.2441 
  "/>
<polyline clip-path="url(#clip202)" style="stroke:#000000; stroke-width:2; stroke-opacity:0.1; fill:none" points="
  1817.15,1486.45 1817.15,47.2441 
  "/>
<polyline clip-path="url(#clip202)" style="stroke:#000000; stroke-width:2; stroke-opacity:0.1; fill:none" points="
  2282.92,1486.45 2282.92,47.2441 
  "/>
<polyline clip-path="url(#clip202)" style="stroke:#000000; stroke-width:2; stroke-opacity:0.1; fill:none" points="
  148.334,1306.43 2352.76,1306.43 
  "/>
<polyline clip-path="url(#clip202)" style="stroke:#000000; stroke-width:2; stroke-opacity:0.1; fill:none" points="
  148.334,1073.55 2352.76,1073.55 
  "/>
<polyline clip-path="url(#clip202)" style="stroke:#000000; stroke-width:2; stroke-opacity:0.1; fill:none" points="
  148.334,840.667 2352.76,840.667 
  "/>
<polyline clip-path="url(#clip202)" style="stroke:#000000; stroke-width:2; stroke-opacity:0.1; fill:none" points="
  148.334,607.784 2352.76,607.784 
  "/>
<polyline clip-path="url(#clip202)" style="stroke:#000000; stroke-width:2; stroke-opacity:0.1; fill:none" points="
  148.334,374.9 2352.76,374.9 
  "/>
<polyline clip-path="url(#clip202)" style="stroke:#000000; stroke-width:2; stroke-opacity:0.1; fill:none" points="
  148.334,142.017 2352.76,142.017 
  "/>
<polyline clip-path="url(#clip200)" style="stroke:#000000; stroke-width:4; stroke-opacity:1; fill:none" points="
  148.334,1486.45 2352.76,1486.45 
  "/>
<polyline clip-path="url(#clip200)" style="stroke:#000000; stroke-width:4; stroke-opacity:1; fill:none" points="
  148.334,1486.45 148.334,47.2441 
  "/>
<polyline clip-path="url(#clip200)" style="stroke:#000000; stroke-width:4; stroke-opacity:1; fill:none" points="
  419.853,1486.45 419.853,1469.18 
  "/>
<polyline clip-path="url(#clip200)" style="stroke:#000000; stroke-width:4; stroke-opacity:1; fill:none" points="
  885.62,1486.45 885.62,1469.18 
  "/>
<polyline clip-path="url(#clip200)" style="stroke:#000000; stroke-width:4; stroke-opacity:1; fill:none" points="
  1351.39,1486.45 1351.39,1469.18 
  "/>
<polyline clip-path="url(#clip200)" style="stroke:#000000; stroke-width:4; stroke-opacity:1; fill:none" points="
  1817.15,1486.45 1817.15,1469.18 
  "/>
<polyline clip-path="url(#clip200)" style="stroke:#000000; stroke-width:4; stroke-opacity:1; fill:none" points="
  2282.92,1486.45 2282.92,1469.18 
  "/>
<polyline clip-path="url(#clip200)" style="stroke:#000000; stroke-width:4; stroke-opacity:1; fill:none" points="
  148.334,1306.43 174.787,1306.43 
  "/>
<polyline clip-path="url(#clip200)" style="stroke:#000000; stroke-width:4; stroke-opacity:1; fill:none" points="
  148.334,1073.55 174.787,1073.55 
  "/>
<polyline clip-path="url(#clip200)" style="stroke:#000000; stroke-width:4; stroke-opacity:1; fill:none" points="
  148.334,840.667 174.787,840.667 
  "/>
<polyline clip-path="url(#clip200)" style="stroke:#000000; stroke-width:4; stroke-opacity:1; fill:none" points="
  148.334,607.784 174.787,607.784 
  "/>
<polyline clip-path="url(#clip200)" style="stroke:#000000; stroke-width:4; stroke-opacity:1; fill:none" points="
  148.334,374.9 174.787,374.9 
  "/>
<polyline clip-path="url(#clip200)" style="stroke:#000000; stroke-width:4; stroke-opacity:1; fill:none" points="
  148.334,142.017 174.787,142.017 
  "/>
<path clip-path="url(#clip200)" d="M 0 0 M382.423 1525.04 L394.9 1525.04 L394.9 1528.83 L382.423 1528.83 L382.423 1525.04 Z" fill="#000000" fill-rule="evenodd" fill-opacity="1" /><path clip-path="url(#clip200)" d="M 0 0 M409.969 1508.44 Q406.358 1508.44 404.529 1512 Q402.724 1515.55 402.724 1522.67 Q402.724 1529.78 404.529 1533.35 Q406.358 1536.89 409.969 1536.89 Q413.603 1536.89 415.409 1533.35 Q417.238 1529.78 417.238 1522.67 Q417.238 1515.55 415.409 1512 Q413.603 1508.44 409.969 1508.44 M409.969 1504.73 Q415.779 1504.73 418.835 1509.34 Q421.913 1513.92 421.913 1522.67 Q421.913 1531.4 418.835 1536.01 Q415.779 1540.59 409.969 1540.59 Q404.159 1540.59 401.08 1536.01 Q398.025 1531.4 398.025 1522.67 Q398.025 1513.92 401.08 1509.34 Q404.159 1504.73 409.969 1504.73 Z" fill="#000000" fill-rule="evenodd" fill-opacity="1" /><path clip-path="url(#clip200)" d="M 0 0 M426.983 1534.04 L431.867 1534.04 L431.867 1539.92 L426.983 1539.92 L426.983 1534.04 Z" fill="#000000" fill-rule="evenodd" fill-opacity="1" /><path clip-path="url(#clip200)" d="M 0 0 M440.964 1535.98 L457.284 1535.98 L457.284 1539.92 L435.339 1539.92 L435.339 1535.98 Q438.001 1533.23 442.585 1528.6 Q447.191 1523.95 448.372 1522.61 Q450.617 1520.08 451.497 1518.35 Q452.399 1516.59 452.399 1514.9 Q452.399 1512.14 450.455 1510.41 Q448.534 1508.67 445.432 1508.67 Q443.233 1508.67 440.779 1509.43 Q438.349 1510.2 435.571 1511.75 L435.571 1507.03 Q438.395 1505.89 440.849 1505.31 Q443.302 1504.73 445.339 1504.73 Q450.71 1504.73 453.904 1507.42 Q457.098 1510.11 457.098 1514.6 Q457.098 1516.73 456.288 1518.65 Q455.501 1520.54 453.395 1523.14 Q452.816 1523.81 449.714 1527.03 Q446.612 1530.22 440.964 1535.98 Z" fill="#000000" fill-rule="evenodd" fill-opacity="1" /><path clip-path="url(#clip200)" d="M 0 0 M867.136 1508.44 Q863.525 1508.44 861.696 1512 Q859.891 1515.55 859.891 1522.67 Q859.891 1529.78 861.696 1533.35 Q863.525 1536.89 867.136 1536.89 Q870.77 1536.89 872.576 1533.35 Q874.405 1529.78 874.405 1522.67 Q874.405 1515.55 872.576 1512 Q870.77 1508.44 867.136 1508.44 M867.136 1504.73 Q872.946 1504.73 876.002 1509.34 Q879.081 1513.92 879.081 1522.67 Q879.081 1531.4 876.002 1536.01 Q872.946 1540.59 867.136 1540.59 Q861.326 1540.59 858.247 1536.01 Q855.192 1531.4 855.192 1522.67 Q855.192 1513.92 858.247 1509.34 Q861.326 1504.73 867.136 1504.73 Z" fill="#000000" fill-rule="evenodd" fill-opacity="1" /><path clip-path="url(#clip200)" d="M 0 0 M884.15 1534.04 L889.034 1534.04 L889.034 1539.92 L884.15 1539.92 L884.15 1534.04 Z" fill="#000000" fill-rule="evenodd" fill-opacity="1" /><path clip-path="url(#clip200)" d="M 0 0 M904.104 1508.44 Q900.493 1508.44 898.664 1512 Q896.858 1515.55 896.858 1522.67 Q896.858 1529.78 898.664 1533.35 Q900.493 1536.89 904.104 1536.89 Q907.738 1536.89 909.543 1533.35 Q911.372 1529.78 911.372 1522.67 Q911.372 1515.55 909.543 1512 Q907.738 1508.44 904.104 1508.44 M904.104 1504.73 Q909.914 1504.73 912.969 1509.34 Q916.048 1513.92 916.048 1522.67 Q916.048 1531.4 912.969 1536.01 Q909.914 1540.59 904.104 1540.59 Q898.293 1540.59 895.215 1536.01 Q892.159 1531.4 892.159 1522.67 Q892.159 1513.92 895.215 1509.34 Q898.293 1504.73 904.104 1504.73 Z" fill="#000000" fill-rule="evenodd" fill-opacity="1" /><path clip-path="url(#clip200)" d="M 0 0 M1333.7 1508.44 Q1330.09 1508.44 1328.26 1512 Q1326.46 1515.55 1326.46 1522.67 Q1326.46 1529.78 1328.26 1533.35 Q1330.09 1536.89 1333.7 1536.89 Q1337.34 1536.89 1339.14 1533.35 Q1340.97 1529.78 1340.97 1522.67 Q1340.97 1515.55 1339.14 1512 Q1337.34 1508.44 1333.7 1508.44 M1333.7 1504.73 Q1339.51 1504.73 1342.57 1509.34 Q1345.65 1513.92 1345.65 1522.67 Q1345.65 1531.4 1342.57 1536.01 Q1339.51 1540.59 1333.7 1540.59 Q1327.89 1540.59 1324.81 1536.01 Q1321.76 1531.4 1321.76 1522.67 Q1321.76 1513.92 1324.81 1509.34 Q1327.89 1504.73 1333.7 1504.73 Z" fill="#000000" fill-rule="evenodd" fill-opacity="1" /><path clip-path="url(#clip200)" d="M 0 0 M1350.72 1534.04 L1355.6 1534.04 L1355.6 1539.92 L1350.72 1539.92 L1350.72 1534.04 Z" fill="#000000" fill-rule="evenodd" fill-opacity="1" /><path clip-path="url(#clip200)" d="M 0 0 M1364.7 1535.98 L1381.02 1535.98 L1381.02 1539.92 L1359.07 1539.92 L1359.07 1535.98 Q1361.73 1533.23 1366.32 1528.6 Q1370.92 1523.95 1372.1 1522.61 Q1374.35 1520.08 1375.23 1518.35 Q1376.13 1516.59 1376.13 1514.9 Q1376.13 1512.14 1374.19 1510.41 Q1372.27 1508.67 1369.16 1508.67 Q1366.97 1508.67 1364.51 1509.43 Q1362.08 1510.2 1359.3 1511.75 L1359.3 1507.03 Q1362.13 1505.89 1364.58 1505.31 Q1367.03 1504.73 1369.07 1504.73 Q1374.44 1504.73 1377.64 1507.42 Q1380.83 1510.11 1380.83 1514.6 Q1380.83 1516.73 1380.02 1518.65 Q1379.23 1520.54 1377.13 1523.14 Q1376.55 1523.81 1373.45 1527.03 Q1370.34 1530.22 1364.7 1535.98 Z" fill="#000000" fill-rule="evenodd" fill-opacity="1" /><path clip-path="url(#clip200)" d="M 0 0 M1798.43 1508.44 Q1794.82 1508.44 1792.99 1512 Q1791.18 1515.55 1791.18 1522.67 Q1791.18 1529.78 1792.99 1533.35 Q1794.82 1536.89 1798.43 1536.89 Q1802.06 1536.89 1803.87 1533.35 Q1805.69 1529.78 1805.69 1522.67 Q1805.69 1515.55 1803.87 1512 Q1802.06 1508.44 1798.43 1508.44 M1798.43 1504.73 Q1804.24 1504.73 1807.29 1509.34 Q1810.37 1513.92 1810.37 1522.67 Q1810.37 1531.4 1807.29 1536.01 Q1804.24 1540.59 1798.43 1540.59 Q1792.62 1540.59 1789.54 1536.01 Q1786.48 1531.4 1786.48 1522.67 Q1786.48 1513.92 1789.54 1509.34 Q1792.62 1504.73 1798.43 1504.73 Z" fill="#000000" fill-rule="evenodd" fill-opacity="1" /><path clip-path="url(#clip200)" d="M 0 0 M1815.44 1534.04 L1820.32 1534.04 L1820.32 1539.92 L1815.44 1539.92 L1815.44 1534.04 Z" fill="#000000" fill-rule="evenodd" fill-opacity="1" /><path clip-path="url(#clip200)" d="M 0 0 M1838.24 1509.43 L1826.44 1527.88 L1838.24 1527.88 L1838.24 1509.43 M1837.01 1505.36 L1842.89 1505.36 L1842.89 1527.88 L1847.82 1527.88 L1847.82 1531.77 L1842.89 1531.77 L1842.89 1539.92 L1838.24 1539.92 L1838.24 1531.77 L1822.64 1531.77 L1822.64 1527.26 L1837.01 1505.36 Z" fill="#000000" fill-rule="evenodd" fill-opacity="1" /><path clip-path="url(#clip200)" d="M 0 0 M2264.36 1508.44 Q2260.74 1508.44 2258.92 1512 Q2257.11 1515.55 2257.11 1522.67 Q2257.11 1529.78 2258.92 1533.35 Q2260.74 1536.89 2264.36 1536.89 Q2267.99 1536.89 2269.79 1533.35 Q2271.62 1529.78 2271.62 1522.67 Q2271.62 1515.55 2269.79 1512 Q2267.99 1508.44 2264.36 1508.44 M2264.36 1504.73 Q2270.17 1504.73 2273.22 1509.34 Q2276.3 1513.92 2276.3 1522.67 Q2276.3 1531.4 2273.22 1536.01 Q2270.17 1540.59 2264.36 1540.59 Q2258.55 1540.59 2255.47 1536.01 Q2252.41 1531.4 2252.41 1522.67 Q2252.41 1513.92 2255.47 1509.34 Q2258.55 1504.73 2264.36 1504.73 Z" fill="#000000" fill-rule="evenodd" fill-opacity="1" /><path clip-path="url(#clip200)" d="M 0 0 M2281.37 1534.04 L2286.25 1534.04 L2286.25 1539.92 L2281.37 1539.92 L2281.37 1534.04 Z" fill="#000000" fill-rule="evenodd" fill-opacity="1" /><path clip-path="url(#clip200)" d="M 0 0 M2301.9 1520.78 Q2298.75 1520.78 2296.9 1522.93 Q2295.07 1525.08 2295.07 1528.83 Q2295.07 1532.56 2296.9 1534.73 Q2298.75 1536.89 2301.9 1536.89 Q2305.05 1536.89 2306.88 1534.73 Q2308.73 1532.56 2308.73 1528.83 Q2308.73 1525.08 2306.88 1522.93 Q2305.05 1520.78 2301.9 1520.78 M2311.18 1506.12 L2311.18 1510.38 Q2309.42 1509.55 2307.62 1509.11 Q2305.84 1508.67 2304.08 1508.67 Q2299.45 1508.67 2296.99 1511.8 Q2294.56 1514.92 2294.22 1521.24 Q2295.58 1519.23 2297.64 1518.16 Q2299.7 1517.07 2302.18 1517.07 Q2307.39 1517.07 2310.4 1520.24 Q2313.43 1523.39 2313.43 1528.83 Q2313.43 1534.16 2310.28 1537.37 Q2307.13 1540.59 2301.9 1540.59 Q2295.91 1540.59 2292.73 1536.01 Q2289.56 1531.4 2289.56 1522.67 Q2289.56 1514.48 2293.45 1509.62 Q2297.34 1504.73 2303.89 1504.73 Q2305.65 1504.73 2307.43 1505.08 Q2309.24 1505.43 2311.18 1506.12 Z" fill="#000000" fill-rule="evenodd" fill-opacity="1" /><path clip-path="url(#clip200)" d="M 0 0 M74.9365 1292.23 Q71.3254 1292.23 69.4967 1295.8 Q67.6912 1299.34 67.6912 1306.47 Q67.6912 1313.57 69.4967 1317.14 Q71.3254 1320.68 74.9365 1320.68 Q78.5707 1320.68 80.3763 1317.14 Q82.205 1313.57 82.205 1306.47 Q82.205 1299.34 80.3763 1295.8 Q78.5707 1292.23 74.9365 1292.23 M74.9365 1288.53 Q80.7467 1288.53 83.8022 1293.14 Q86.8809 1297.72 86.8809 1306.47 Q86.8809 1315.2 83.8022 1319.8 Q80.7467 1324.39 74.9365 1324.39 Q69.1264 1324.39 66.0477 1319.8 Q62.9921 1315.2 62.9921 1306.47 Q62.9921 1297.72 66.0477 1293.14 Q69.1264 1288.53 74.9365 1288.53 Z" fill="#000000" fill-rule="evenodd" fill-opacity="1" /><path clip-path="url(#clip200)" d="M 0 0 M91.9503 1317.83 L96.8345 1317.83 L96.8345 1323.71 L91.9503 1323.71 L91.9503 1317.83 Z" fill="#000000" fill-rule="evenodd" fill-opacity="1" /><path clip-path="url(#clip200)" d="M 0 0 M114.751 1293.23 L102.946 1311.68 L114.751 1311.68 L114.751 1293.23 M113.524 1289.15 L119.404 1289.15 L119.404 1311.68 L124.334 1311.68 L124.334 1315.57 L119.404 1315.57 L119.404 1323.71 L114.751 1323.71 L114.751 1315.57 L99.1493 1315.57 L99.1493 1311.05 L113.524 1289.15 Z" fill="#000000" fill-rule="evenodd" fill-opacity="1" /><path clip-path="url(#clip200)" d="M 0 0 M76.418 1059.35 Q72.8069 1059.35 70.9782 1062.91 Q69.1726 1066.46 69.1726 1073.59 Q69.1726 1080.69 70.9782 1084.26 Q72.8069 1087.8 76.418 1087.8 Q80.0522 1087.8 81.8578 1084.26 Q83.6865 1080.69 83.6865 1073.59 Q83.6865 1066.46 81.8578 1062.91 Q80.0522 1059.35 76.418 1059.35 M76.418 1055.65 Q82.2281 1055.65 85.2837 1060.25 Q88.3624 1064.84 88.3624 1073.59 Q88.3624 1082.31 85.2837 1086.92 Q82.2281 1091.5 76.418 1091.5 Q70.6078 1091.5 67.5291 1086.92 Q64.4736 1082.31 64.4736 1073.59 Q64.4736 1064.84 67.5291 1060.25 Q70.6078 1055.65 76.418 1055.65 Z" fill="#000000" fill-rule="evenodd" fill-opacity="1" /><path clip-path="url(#clip200)" d="M 0 0 M93.4318 1084.95 L98.316 1084.95 L98.316 1090.83 L93.4318 1090.83 L93.4318 1084.95 Z" fill="#000000" fill-rule="evenodd" fill-opacity="1" /><path clip-path="url(#clip200)" d="M 0 0 M103.432 1056.27 L121.788 1056.27 L121.788 1060.21 L107.714 1060.21 L107.714 1068.68 Q108.733 1068.33 109.751 1068.17 Q110.77 1067.98 111.788 1067.98 Q117.575 1067.98 120.955 1071.15 Q124.334 1074.33 124.334 1079.74 Q124.334 1085.32 120.862 1088.42 Q117.39 1091.5 111.071 1091.5 Q108.895 1091.5 106.626 1091.13 Q104.381 1090.76 101.973 1090.02 L101.973 1085.32 Q104.057 1086.46 106.279 1087.01 Q108.501 1087.57 110.978 1087.57 Q114.983 1087.57 117.321 1085.46 Q119.658 1083.35 119.658 1079.74 Q119.658 1076.13 117.321 1074.02 Q114.983 1071.92 110.978 1071.92 Q109.103 1071.92 107.228 1072.34 Q105.376 1072.75 103.432 1073.63 L103.432 1056.27 Z" fill="#000000" fill-rule="evenodd" fill-opacity="1" /><path clip-path="url(#clip200)" d="M 0 0 M75.2606 826.466 Q71.6495 826.466 69.8208 830.031 Q68.0152 833.572 68.0152 840.702 Q68.0152 847.808 69.8208 851.373 Q71.6495 854.915 75.2606 854.915 Q78.8948 854.915 80.7004 851.373 Q82.5291 847.808 82.5291 840.702 Q82.5291 833.572 80.7004 830.031 Q78.8948 826.466 75.2606 826.466 M75.2606 822.762 Q81.0707 822.762 84.1263 827.369 Q87.205 831.952 87.205 840.702 Q87.205 849.429 84.1263 854.035 Q81.0707 858.618 75.2606 858.618 Q69.4504 858.618 66.3717 854.035 Q63.3162 849.429 63.3162 840.702 Q63.3162 831.952 66.3717 827.369 Q69.4504 822.762 75.2606 822.762 Z" fill="#000000" fill-rule="evenodd" fill-opacity="1" /><path clip-path="url(#clip200)" d="M 0 0 M92.2744 852.067 L97.1586 852.067 L97.1586 857.947 L92.2744 857.947 L92.2744 852.067 Z" fill="#000000" fill-rule="evenodd" fill-opacity="1" /><path clip-path="url(#clip200)" d="M 0 0 M112.807 838.804 Q109.659 838.804 107.807 840.956 Q105.978 843.109 105.978 846.859 Q105.978 850.586 107.807 852.762 Q109.659 854.915 112.807 854.915 Q115.955 854.915 117.783 852.762 Q119.635 850.586 119.635 846.859 Q119.635 843.109 117.783 840.956 Q115.955 838.804 112.807 838.804 M122.089 824.151 L122.089 828.41 Q120.33 827.577 118.524 827.137 Q116.742 826.697 114.983 826.697 Q110.353 826.697 107.899 829.822 Q105.469 832.947 105.122 839.267 Q106.487 837.253 108.547 836.188 Q110.608 835.1 113.084 835.1 Q118.293 835.1 121.302 838.271 Q124.334 841.419 124.334 846.859 Q124.334 852.183 121.186 855.401 Q118.038 858.618 112.807 858.618 Q106.811 858.618 103.64 854.035 Q100.469 849.429 100.469 840.702 Q100.469 832.507 104.358 827.646 Q108.247 822.762 114.797 822.762 Q116.557 822.762 118.339 823.109 Q120.145 823.456 122.089 824.151 Z" fill="#000000" fill-rule="evenodd" fill-opacity="1" /><path clip-path="url(#clip200)" d="M 0 0 M76.3254 593.582 Q72.7143 593.582 70.8856 597.147 Q69.0801 600.689 69.0801 607.818 Q69.0801 614.925 70.8856 618.49 Q72.7143 622.031 76.3254 622.031 Q79.9596 622.031 81.7652 618.49 Q83.5939 614.925 83.5939 607.818 Q83.5939 600.689 81.7652 597.147 Q79.9596 593.582 76.3254 593.582 M76.3254 589.879 Q82.1355 589.879 85.1911 594.485 Q88.2698 599.068 88.2698 607.818 Q88.2698 616.545 85.1911 621.152 Q82.1355 625.735 76.3254 625.735 Q70.5152 625.735 67.4365 621.152 Q64.381 616.545 64.381 607.818 Q64.381 599.068 67.4365 594.485 Q70.5152 589.879 76.3254 589.879 Z" fill="#000000" fill-rule="evenodd" fill-opacity="1" /><path clip-path="url(#clip200)" d="M 0 0 M93.3392 619.184 L98.2234 619.184 L98.2234 625.064 L93.3392 625.064 L93.3392 619.184 Z" fill="#000000" fill-rule="evenodd" fill-opacity="1" /><path clip-path="url(#clip200)" d="M 0 0 M102.112 590.504 L124.334 590.504 L124.334 592.494 L111.788 625.064 L106.904 625.064 L118.709 594.439 L102.112 594.439 L102.112 590.504 Z" fill="#000000" fill-rule="evenodd" fill-opacity="1" /><path clip-path="url(#clip200)" d="M 0 0 M75.5152 360.699 Q71.9041 360.699 70.0754 364.264 Q68.2699 367.806 68.2699 374.935 Q68.2699 382.042 70.0754 385.606 Q71.9041 389.148 75.5152 389.148 Q79.1494 389.148 80.955 385.606 Q82.7837 382.042 82.7837 374.935 Q82.7837 367.806 80.955 364.264 Q79.1494 360.699 75.5152 360.699 M75.5152 356.995 Q81.3254 356.995 84.3809 361.602 Q87.4596 366.185 87.4596 374.935 Q87.4596 383.662 84.3809 388.268 Q81.3254 392.852 75.5152 392.852 Q69.7051 392.852 66.6264 388.268 Q63.5708 383.662 63.5708 374.935 Q63.5708 366.185 66.6264 361.602 Q69.7051 356.995 75.5152 356.995 Z" fill="#000000" fill-rule="evenodd" fill-opacity="1" /><path clip-path="url(#clip200)" d="M 0 0 M92.529 386.301 L97.4132 386.301 L97.4132 392.18 L92.529 392.18 L92.529 386.301 Z" fill="#000000" fill-rule="evenodd" fill-opacity="1" /><path clip-path="url(#clip200)" d="M 0 0 M112.483 375.768 Q109.149 375.768 107.228 377.551 Q105.33 379.333 105.33 382.458 Q105.33 385.583 107.228 387.366 Q109.149 389.148 112.483 389.148 Q115.816 389.148 117.737 387.366 Q119.658 385.56 119.658 382.458 Q119.658 379.333 117.737 377.551 Q115.839 375.768 112.483 375.768 M107.807 373.778 Q104.797 373.037 103.108 370.977 Q101.441 368.917 101.441 365.954 Q101.441 361.81 104.381 359.403 Q107.344 356.995 112.483 356.995 Q117.645 356.995 120.584 359.403 Q123.524 361.81 123.524 365.954 Q123.524 368.917 121.834 370.977 Q120.168 373.037 117.182 373.778 Q120.561 374.565 122.436 376.856 Q124.334 379.148 124.334 382.458 Q124.334 387.481 121.256 390.166 Q118.2 392.852 112.483 392.852 Q106.765 392.852 103.686 390.166 Q100.631 387.481 100.631 382.458 Q100.631 379.148 102.529 376.856 Q104.427 374.565 107.807 373.778 M106.094 366.393 Q106.094 369.079 107.76 370.583 Q109.45 372.088 112.483 372.088 Q115.492 372.088 117.182 370.583 Q118.895 369.079 118.895 366.393 Q118.895 363.708 117.182 362.204 Q115.492 360.699 112.483 360.699 Q109.45 360.699 107.76 362.204 Q106.094 363.708 106.094 366.393 Z" fill="#000000" fill-rule="evenodd" fill-opacity="1" /><path clip-path="url(#clip200)" d="M 0 0 M75.6078 127.816 Q71.9967 127.816 70.168 131.381 Q68.3625 134.922 68.3625 142.052 Q68.3625 149.158 70.168 152.723 Q71.9967 156.265 75.6078 156.265 Q79.242 156.265 81.0476 152.723 Q82.8763 149.158 82.8763 142.052 Q82.8763 134.922 81.0476 131.381 Q79.242 127.816 75.6078 127.816 M75.6078 124.112 Q81.418 124.112 84.4735 128.719 Q87.5522 133.302 87.5522 142.052 Q87.5522 150.779 84.4735 155.385 Q81.418 159.968 75.6078 159.968 Q69.7976 159.968 66.719 155.385 Q63.6634 150.779 63.6634 142.052 Q63.6634 133.302 66.719 128.719 Q69.7976 124.112 75.6078 124.112 Z" fill="#000000" fill-rule="evenodd" fill-opacity="1" /><path clip-path="url(#clip200)" d="M 0 0 M92.6216 153.417 L97.5058 153.417 L97.5058 159.297 L92.6216 159.297 L92.6216 153.417 Z" fill="#000000" fill-rule="evenodd" fill-opacity="1" /><path clip-path="url(#clip200)" d="M 0 0 M102.714 158.579 L102.714 154.32 Q104.473 155.154 106.279 155.593 Q108.084 156.033 109.821 156.033 Q114.45 156.033 116.881 152.931 Q119.334 149.806 119.682 143.464 Q118.339 145.455 116.279 146.519 Q114.219 147.584 111.719 147.584 Q106.534 147.584 103.501 144.459 Q100.492 141.311 100.492 135.871 Q100.492 130.547 103.64 127.33 Q106.788 124.112 112.02 124.112 Q118.015 124.112 121.163 128.719 Q124.334 133.302 124.334 142.052 Q124.334 150.223 120.446 155.107 Q116.58 159.968 110.029 159.968 Q108.27 159.968 106.464 159.621 Q104.659 159.274 102.714 158.579 M112.02 143.927 Q115.168 143.927 116.996 141.774 Q118.848 139.621 118.848 135.871 Q118.848 132.144 116.996 129.992 Q115.168 127.816 112.02 127.816 Q108.872 127.816 107.02 129.992 Q105.191 132.144 105.191 135.871 Q105.191 139.621 107.02 141.774 Q108.872 143.927 112.02 143.927 Z" fill="#000000" fill-rule="evenodd" fill-opacity="1" /><path clip-path="url(#clip202)" d="
M1351.39 607.784 L1584.27 1306.43 L885.62 374.9 L1351.39 607.784  Z
  " fill="#008000" fill-rule="evenodd" fill-opacity="0.2"/>
<polyline clip-path="url(#clip202)" style="stroke:#000000; stroke-width:4; stroke-opacity:1; fill:none" points="
  1351.39,607.784 1584.27,1306.43 885.62,374.9 1351.39,607.784 
  "/>
<circle clip-path="url(#clip202)" cx="1351.39" cy="607.784" r="14" fill="#ff0000" fill-rule="evenodd" fill-opacity="1" stroke="#000000" stroke-opacity="1" stroke-width="3.2"/>
<circle clip-path="url(#clip202)" cx="1584.27" cy="1306.43" r="14" fill="#ff0000" fill-rule="evenodd" fill-opacity="1" stroke="#000000" stroke-opacity="1" stroke-width="3.2"/>
<circle clip-path="url(#clip202)" cx="885.62" cy="374.9" r="14" fill="#ff0000" fill-rule="evenodd" fill-opacity="1" stroke="#000000" stroke-opacity="1" stroke-width="3.2"/>
<path clip-path="url(#clip200)" d="M 0 0 M1351.39 537.221 L1340.29 567.319 L1362.53 567.319 L1351.39 537.221 M1346.77 529.16 L1356.05 529.16 L1379.09 589.64 L1370.59 589.64 L1365.08 574.125 L1337.82 574.125 L1332.31 589.64 L1323.68 589.64 L1346.77 529.16 Z" fill="#000000" fill-rule="evenodd" fill-opacity="1" /><path clip-path="url(#clip200)" d="M 0 0 M1571 1259.41 L1571 1281.57 L1584.13 1281.57 Q1590.73 1281.57 1593.89 1278.85 Q1597.09 1276.1 1597.09 1270.47 Q1597.09 1264.79 1593.89 1262.12 Q1590.73 1259.41 1584.13 1259.41 L1571 1259.41 M1571 1234.53 L1571 1252.76 L1583.12 1252.76 Q1589.11 1252.76 1592.03 1250.54 Q1594.98 1248.27 1594.98 1243.65 Q1594.98 1239.07 1592.03 1236.8 Q1589.11 1234.53 1583.12 1234.53 L1571 1234.53 M1562.82 1227.81 L1583.72 1227.81 Q1593.08 1227.81 1598.14 1231.7 Q1603.21 1235.59 1603.21 1242.76 Q1603.21 1248.31 1600.62 1251.59 Q1598.02 1254.87 1593 1255.68 Q1599.04 1256.98 1602.36 1261.11 Q1605.72 1265.2 1605.72 1271.36 Q1605.72 1279.46 1600.21 1283.87 Q1594.7 1288.29 1584.53 1288.29 L1562.82 1288.29 L1562.82 1227.81 Z" fill="#000000" fill-rule="evenodd" fill-opacity="1" /><path clip-path="url(#clip200)" d="M 0 0 M910.006 300.935 L910.006 309.563 Q905.874 305.715 901.175 303.811 Q896.517 301.907 891.251 301.907 Q880.88 301.907 875.371 308.267 Q869.862 314.586 869.862 326.577 Q869.862 338.527 875.371 344.887 Q880.88 351.207 891.251 351.207 Q896.517 351.207 901.175 349.303 Q905.874 347.399 910.006 343.55 L910.006 352.098 Q905.712 355.014 900.892 356.473 Q896.112 357.931 890.765 357.931 Q877.032 357.931 869.133 349.546 Q861.233 341.12 861.233 326.577 Q861.233 311.994 869.133 303.609 Q877.032 295.183 890.765 295.183 Q896.193 295.183 900.973 296.641 Q905.793 298.059 910.006 300.935 Z" fill="#000000" fill-rule="evenodd" fill-opacity="1" /><path clip-path="url(#clip202)" d="
M1351.39 607.784 L1584.27 1306.43 L2072.88 755.426 L1351.39 607.784  Z
  " fill="#ffc0cb" fill-rule="evenodd" fill-opacity="0.7"/>
<polyline clip-path="url(#clip202)" style="stroke:#000000; stroke-width:4; stroke-opacity:1; fill:none" points="
  1351.39,607.784 1584.27,1306.43 2072.88,755.426 1351.39,607.784 
  "/>
<path clip-path="url(#clip202)" d="
M885.62 374.9 L1351.39 607.784 L1320.19 87.9763 L885.62 374.9  Z
  " fill="#ffc0cb" fill-rule="evenodd" fill-opacity="0.7"/>
<polyline clip-path="url(#clip202)" style="stroke:#000000; stroke-width:4; stroke-opacity:1; fill:none" points="
  885.62,374.9 1351.39,607.784 1320.19,87.9763 885.62,374.9 
  "/>
<path clip-path="url(#clip202)" d="
M1584.27 1306.43 L885.62 374.9 L428.213 1445.72 L1584.27 1306.43  Z
  " fill="#ffc0cb" fill-rule="evenodd" fill-opacity="0.7"/>
<polyline clip-path="url(#clip202)" style="stroke:#000000; stroke-width:4; stroke-opacity:1; fill:none" points="
  1584.27,1306.43 885.62,374.9 428.213,1445.72 1584.27,1306.43 
  "/>
<path clip-path="url(#clip202)" d="
M1669.51 889.881 L1185.73 356.887 L966.034 1042.35 L1669.51 889.881  Z
  " fill="#0000ff" fill-rule="evenodd" fill-opacity="0.7"/>
<polyline clip-path="url(#clip202)" style="stroke:#000000; stroke-width:4; stroke-opacity:1; fill:none" points="
  1669.51,889.881 1185.73,356.887 966.034,1042.35 1669.51,889.881 
  "/>
</svg>
