<?xml version="1.0" encoding="utf-8"?>
<svg xmlns="http://www.w3.org/2000/svg" xmlns:xlink="http://www.w3.org/1999/xlink" width="600" height="400" viewBox="0 0 2400 1600">
<defs>
  <clipPath id="clip250">
    <rect x="0" y="0" width="2400" height="1600"/>
  </clipPath>
</defs>
<path clip-path="url(#clip250)" d="
M0 1600 L2400 1600 L2400 0 L0 0  Z
  " fill="#ffffff" fill-rule="evenodd" fill-opacity="1"/>
<defs>
  <clipPath id="clip251">
    <rect x="480" y="0" width="1681" height="1600"/>
  </clipPath>
</defs>
<path clip-path="url(#clip250)" d="
M161.853 1486.45 L2352.76 1486.45 L2352.76 47.2441 L161.853 47.2441  Z
  " fill="#ffffff" fill-rule="evenodd" fill-opacity="1"/>
<defs>
  <clipPath id="clip252">
    <rect x="161" y="47" width="2192" height="1440"/>
  </clipPath>
</defs>
<polyline clip-path="url(#clip252)" style="stroke:#000000; stroke-width:2; stroke-opacity:0.1; fill:none" points="
  369.096,1486.45 369.096,47.2441 
  "/>
<polyline clip-path="url(#clip252)" style="stroke:#000000; stroke-width:2; stroke-opacity:0.1; fill:none" points="
  833.301,1486.45 833.301,47.2441 
  "/>
<polyline clip-path="url(#clip252)" style="stroke:#000000; stroke-width:2; stroke-opacity:0.1; fill:none" points="
  1297.51,1486.45 1297.51,47.2441 
  "/>
<polyline clip-path="url(#clip252)" style="stroke:#000000; stroke-width:2; stroke-opacity:0.1; fill:none" points="
  1761.71,1486.45 1761.71,47.2441 
  "/>
<polyline clip-path="url(#clip252)" style="stroke:#000000; stroke-width:2; stroke-opacity:0.1; fill:none" points="
  2225.92,1486.45 2225.92,47.2441 
  "/>
<polyline clip-path="url(#clip252)" style="stroke:#000000; stroke-width:2; stroke-opacity:0.1; fill:none" points="
  161.853,1313.12 2352.76,1313.12 
  "/>
<polyline clip-path="url(#clip252)" style="stroke:#000000; stroke-width:2; stroke-opacity:0.1; fill:none" points="
  161.853,1127.44 2352.76,1127.44 
  "/>
<polyline clip-path="url(#clip252)" style="stroke:#000000; stroke-width:2; stroke-opacity:0.1; fill:none" points="
  161.853,941.756 2352.76,941.756 
  "/>
<polyline clip-path="url(#clip252)" style="stroke:#000000; stroke-width:2; stroke-opacity:0.1; fill:none" points="
  161.853,756.074 2352.76,756.074 
  "/>
<polyline clip-path="url(#clip252)" style="stroke:#000000; stroke-width:2; stroke-opacity:0.1; fill:none" points="
  161.853,570.392 2352.76,570.392 
  "/>
<polyline clip-path="url(#clip252)" style="stroke:#000000; stroke-width:2; stroke-opacity:0.1; fill:none" points="
  161.853,384.71 2352.76,384.71 
  "/>
<polyline clip-path="url(#clip252)" style="stroke:#000000; stroke-width:2; stroke-opacity:0.1; fill:none" points="
  161.853,199.028 2352.76,199.028 
  "/>
<polyline clip-path="url(#clip250)" style="stroke:#000000; stroke-width:4; stroke-opacity:1; fill:none" points="
  161.853,1486.45 2352.76,1486.45 
  "/>
<polyline clip-path="url(#clip250)" style="stroke:#000000; stroke-width:4; stroke-opacity:1; fill:none" points="
  161.853,1486.45 161.853,47.2441 
  "/>
<polyline clip-path="url(#clip250)" style="stroke:#000000; stroke-width:4; stroke-opacity:1; fill:none" points="
  369.096,1486.45 369.096,1469.18 
  "/>
<polyline clip-path="url(#clip250)" style="stroke:#000000; stroke-width:4; stroke-opacity:1; fill:none" points="
  833.301,1486.45 833.301,1469.18 
  "/>
<polyline clip-path="url(#clip250)" style="stroke:#000000; stroke-width:4; stroke-opacity:1; fill:none" points="
  1297.51,1486.45 1297.51,1469.18 
  "/>
<polyline clip-path="url(#clip250)" style="stroke:#000000; stroke-width:4; stroke-opacity:1; fill:none" points="
  1761.71,1486.45 1761.71,1469.18 
  "/>
<polyline clip-path="url(#clip250)" style="stroke:#000000; stroke-width:4; stroke-opacity:1; fill:none" points="
  2225.92,1486.45 2225.92,1469.18 
  "/>
<polyline clip-path="url(#clip250)" style="stroke:#000000; stroke-width:4; stroke-opacity:1; fill:none" points="
  161.853,1313.12 188.144,1313.12 
  "/>
<polyline clip-path="url(#clip250)" style="stroke:#000000; stroke-width:4; stroke-opacity:1; fill:none" points="
  161.853,1127.44 188.144,1127.44 
  "/>
<polyline clip-path="url(#clip250)" style="stroke:#000000; stroke-width:4; stroke-opacity:1; fill:none" points="
  161.853,941.756 188.144,941.756 
  "/>
<polyline clip-path="url(#clip250)" style="stroke:#000000; stroke-width:4; stroke-opacity:1; fill:none" points="
  161.853,756.074 188.144,756.074 
  "/>
<polyline clip-path="url(#clip250)" style="stroke:#000000; stroke-width:4; stroke-opacity:1; fill:none" points="
  161.853,570.392 188.144,570.392 
  "/>
<polyline clip-path="url(#clip250)" style="stroke:#000000; stroke-width:4; stroke-opacity:1; fill:none" points="
  161.853,384.71 188.144,384.71 
  "/>
<polyline clip-path="url(#clip250)" style="stroke:#000000; stroke-width:4; stroke-opacity:1; fill:none" points="
  161.853,199.028 188.144,199.028 
  "/>
<path clip-path="url(#clip250)" d="M 0 0 M331.365 1525.04 L343.841 1525.04 L343.841 1528.83 L331.365 1528.83 L331.365 1525.04 Z" fill="#000000" fill-rule="evenodd" fill-opacity="1" /><path clip-path="url(#clip250)" d="M 0 0 M358.911 1508.44 Q355.3 1508.44 353.471 1512 Q351.665 1515.55 351.665 1522.67 Q351.665 1529.78 353.471 1533.35 Q355.3 1536.89 358.911 1536.89 Q362.545 1536.89 364.351 1533.35 Q366.179 1529.78 366.179 1522.67 Q366.179 1515.55 364.351 1512 Q362.545 1508.44 358.911 1508.44 M358.911 1504.73 Q364.721 1504.73 367.777 1509.34 Q370.855 1513.92 370.855 1522.67 Q370.855 1531.4 367.777 1536.01 Q364.721 1540.59 358.911 1540.59 Q353.101 1540.59 350.022 1536.01 Q346.966 1531.4 346.966 1522.67 Q346.966 1513.92 350.022 1509.34 Q353.101 1504.73 358.911 1504.73 Z" fill="#000000" fill-rule="evenodd" fill-opacity="1" /><path clip-path="url(#clip250)" d="M 0 0 M375.925 1534.04 L380.809 1534.04 L380.809 1539.92 L375.925 1539.92 L375.925 1534.04 Z" fill="#000000" fill-rule="evenodd" fill-opacity="1" /><path clip-path="url(#clip250)" d="M 0 0 M385.925 1505.36 L404.281 1505.36 L404.281 1509.3 L390.207 1509.3 L390.207 1517.77 Q391.225 1517.42 392.244 1517.26 Q393.262 1517.07 394.281 1517.07 Q400.068 1517.07 403.448 1520.24 Q406.827 1523.42 406.827 1528.83 Q406.827 1534.41 403.355 1537.51 Q399.883 1540.59 393.563 1540.59 Q391.388 1540.59 389.119 1540.22 Q386.874 1539.85 384.466 1539.11 L384.466 1534.41 Q386.55 1535.54 388.772 1536.1 Q390.994 1536.66 393.471 1536.66 Q397.475 1536.66 399.813 1534.55 Q402.151 1532.44 402.151 1528.83 Q402.151 1525.22 399.813 1523.11 Q397.475 1521.01 393.471 1521.01 Q391.596 1521.01 389.721 1521.42 Q387.869 1521.84 385.925 1522.72 L385.925 1505.36 Z" fill="#000000" fill-rule="evenodd" fill-opacity="1" /><path clip-path="url(#clip250)" d="M 0 0 M814.817 1508.44 Q811.206 1508.44 809.377 1512 Q807.572 1515.55 807.572 1522.67 Q807.572 1529.78 809.377 1533.35 Q811.206 1536.89 814.817 1536.89 Q818.451 1536.89 820.257 1533.35 Q822.086 1529.78 822.086 1522.67 Q822.086 1515.55 820.257 1512 Q818.451 1508.44 814.817 1508.44 M814.817 1504.73 Q820.627 1504.73 823.683 1509.34 Q826.762 1513.92 826.762 1522.67 Q826.762 1531.4 823.683 1536.01 Q820.627 1540.59 814.817 1540.59 Q809.007 1540.59 805.928 1536.01 Q802.873 1531.4 802.873 1522.67 Q802.873 1513.92 805.928 1509.34 Q809.007 1504.73 814.817 1504.73 Z" fill="#000000" fill-rule="evenodd" fill-opacity="1" /><path clip-path="url(#clip250)" d="M 0 0 M831.831 1534.04 L836.715 1534.04 L836.715 1539.92 L831.831 1539.92 L831.831 1534.04 Z" fill="#000000" fill-rule="evenodd" fill-opacity="1" /><path clip-path="url(#clip250)" d="M 0 0 M851.785 1508.44 Q848.173 1508.44 846.345 1512 Q844.539 1515.55 844.539 1522.67 Q844.539 1529.78 846.345 1533.35 Q848.173 1536.89 851.785 1536.89 Q855.419 1536.89 857.224 1533.35 Q859.053 1529.78 859.053 1522.67 Q859.053 1515.55 857.224 1512 Q855.419 1508.44 851.785 1508.44 M851.785 1504.73 Q857.595 1504.73 860.65 1509.34 Q863.729 1513.92 863.729 1522.67 Q863.729 1531.4 860.65 1536.01 Q857.595 1540.59 851.785 1540.59 Q845.974 1540.59 842.896 1536.01 Q839.84 1531.4 839.84 1522.67 Q839.84 1513.92 842.896 1509.34 Q845.974 1504.73 851.785 1504.73 Z" fill="#000000" fill-rule="evenodd" fill-opacity="1" /><path clip-path="url(#clip250)" d="M 0 0 M1279.52 1508.44 Q1275.91 1508.44 1274.08 1512 Q1272.27 1515.55 1272.27 1522.67 Q1272.27 1529.78 1274.08 1533.35 Q1275.91 1536.89 1279.52 1536.89 Q1283.15 1536.89 1284.96 1533.35 Q1286.79 1529.78 1286.79 1522.67 Q1286.79 1515.55 1284.96 1512 Q1283.15 1508.44 1279.52 1508.44 M1279.52 1504.73 Q1285.33 1504.73 1288.39 1509.34 Q1291.46 1513.92 1291.46 1522.67 Q1291.46 1531.4 1288.39 1536.01 Q1285.33 1540.59 1279.52 1540.59 Q1273.71 1540.59 1270.63 1536.01 Q1267.58 1531.4 1267.58 1522.67 Q1267.58 1513.92 1270.63 1509.34 Q1273.71 1504.73 1279.52 1504.73 Z" fill="#000000" fill-rule="evenodd" fill-opacity="1" /><path clip-path="url(#clip250)" d="M 0 0 M1296.53 1534.04 L1301.42 1534.04 L1301.42 1539.92 L1296.53 1539.92 L1296.53 1534.04 Z" fill="#000000" fill-rule="evenodd" fill-opacity="1" /><path clip-path="url(#clip250)" d="M 0 0 M1306.53 1505.36 L1324.89 1505.36 L1324.89 1509.3 L1310.82 1509.3 L1310.82 1517.77 Q1311.83 1517.42 1312.85 1517.26 Q1313.87 1517.07 1314.89 1517.07 Q1320.68 1517.07 1324.06 1520.24 Q1327.44 1523.42 1327.44 1528.83 Q1327.44 1534.41 1323.96 1537.51 Q1320.49 1540.59 1314.17 1540.59 Q1312 1540.59 1309.73 1540.22 Q1307.48 1539.85 1305.08 1539.11 L1305.08 1534.41 Q1307.16 1535.54 1309.38 1536.1 Q1311.6 1536.66 1314.08 1536.66 Q1318.08 1536.66 1320.42 1534.55 Q1322.76 1532.44 1322.76 1528.83 Q1322.76 1525.22 1320.42 1523.11 Q1318.08 1521.01 1314.08 1521.01 Q1312.2 1521.01 1310.33 1521.42 Q1308.48 1521.84 1306.53 1522.72 L1306.53 1505.36 Z" fill="#000000" fill-rule="evenodd" fill-opacity="1" /><path clip-path="url(#clip250)" d="M 0 0 M1733.61 1535.98 L1741.25 1535.98 L1741.25 1509.62 L1732.94 1511.29 L1732.94 1507.03 L1741.2 1505.36 L1745.88 1505.36 L1745.88 1535.98 L1753.52 1535.98 L1753.52 1539.92 L1733.61 1539.92 L1733.61 1535.98 Z" fill="#000000" fill-rule="evenodd" fill-opacity="1" /><path clip-path="url(#clip250)" d="M 0 0 M1758.59 1534.04 L1763.47 1534.04 L1763.47 1539.92 L1758.59 1539.92 L1758.59 1534.04 Z" fill="#000000" fill-rule="evenodd" fill-opacity="1" /><path clip-path="url(#clip250)" d="M 0 0 M1778.54 1508.44 Q1774.93 1508.44 1773.1 1512 Q1771.29 1515.55 1771.29 1522.67 Q1771.29 1529.78 1773.1 1533.35 Q1774.93 1536.89 1778.54 1536.89 Q1782.17 1536.89 1783.98 1533.35 Q1785.81 1529.78 1785.81 1522.67 Q1785.81 1515.55 1783.98 1512 Q1782.17 1508.44 1778.54 1508.44 M1778.54 1504.73 Q1784.35 1504.73 1787.4 1509.34 Q1790.48 1513.92 1790.48 1522.67 Q1790.48 1531.4 1787.4 1536.01 Q1784.35 1540.59 1778.54 1540.59 Q1772.73 1540.59 1769.65 1536.01 Q1766.59 1531.4 1766.59 1522.67 Q1766.59 1513.92 1769.65 1509.34 Q1772.73 1504.73 1778.54 1504.73 Z" fill="#000000" fill-rule="evenodd" fill-opacity="1" /><path clip-path="url(#clip250)" d="M 0 0 M2198.31 1535.98 L2205.95 1535.98 L2205.95 1509.62 L2197.64 1511.29 L2197.64 1507.03 L2205.9 1505.36 L2210.58 1505.36 L2210.58 1535.98 L2218.22 1535.98 L2218.22 1539.92 L2198.31 1539.92 L2198.31 1535.98 Z" fill="#000000" fill-rule="evenodd" fill-opacity="1" /><path clip-path="url(#clip250)" d="M 0 0 M2223.29 1534.04 L2228.17 1534.04 L2228.17 1539.92 L2223.29 1539.92 L2223.29 1534.04 Z" fill="#000000" fill-rule="evenodd" fill-opacity="1" /><path clip-path="url(#clip250)" d="M 0 0 M2233.29 1505.36 L2251.64 1505.36 L2251.64 1509.3 L2237.57 1509.3 L2237.57 1517.77 Q2238.59 1517.42 2239.61 1517.26 Q2240.63 1517.07 2241.64 1517.07 Q2247.43 1517.07 2250.81 1520.24 Q2254.19 1523.42 2254.19 1528.83 Q2254.19 1534.41 2250.72 1537.51 Q2247.25 1540.59 2240.93 1540.59 Q2238.75 1540.59 2236.48 1540.22 Q2234.24 1539.85 2231.83 1539.11 L2231.83 1534.41 Q2233.91 1535.54 2236.14 1536.1 Q2238.36 1536.66 2240.83 1536.66 Q2244.84 1536.66 2247.18 1534.55 Q2249.51 1532.44 2249.51 1528.83 Q2249.51 1525.22 2247.18 1523.11 Q2244.84 1521.01 2240.83 1521.01 Q2238.96 1521.01 2237.08 1521.42 Q2235.23 1521.84 2233.29 1522.72 L2233.29 1505.36 Z" fill="#000000" fill-rule="evenodd" fill-opacity="1" /><path clip-path="url(#clip250)" d="M 0 0 M62.9921 1315.52 L75.4689 1315.52 L75.4689 1319.31 L62.9921 1319.31 L62.9921 1315.52 Z" fill="#000000" fill-rule="evenodd" fill-opacity="1" /><path clip-path="url(#clip250)" d="M 0 0 M90.5383 1298.92 Q86.9272 1298.92 85.0985 1302.48 Q83.2929 1306.03 83.2929 1313.15 Q83.2929 1320.26 85.0985 1323.83 Q86.9272 1327.37 90.5383 1327.37 Q94.1725 1327.37 95.9781 1323.83 Q97.8068 1320.26 97.8068 1313.15 Q97.8068 1306.03 95.9781 1302.48 Q94.1725 1298.92 90.5383 1298.92 M90.5383 1295.21 Q96.3484 1295.21 99.404 1299.82 Q102.483 1304.4 102.483 1313.15 Q102.483 1321.88 99.404 1326.49 Q96.3484 1331.07 90.5383 1331.07 Q84.7281 1331.07 81.6494 1326.49 Q78.5939 1321.88 78.5939 1313.15 Q78.5939 1304.4 81.6494 1299.82 Q84.7281 1295.21 90.5383 1295.21 Z" fill="#000000" fill-rule="evenodd" fill-opacity="1" /><path clip-path="url(#clip250)" d="M 0 0 M107.552 1324.52 L112.436 1324.52 L112.436 1330.4 L107.552 1330.4 L107.552 1324.52 Z" fill="#000000" fill-rule="evenodd" fill-opacity="1" /><path clip-path="url(#clip250)" d="M 0 0 M121.533 1326.46 L137.853 1326.46 L137.853 1330.4 L115.909 1330.4 L115.909 1326.46 Q118.571 1323.71 123.154 1319.08 Q127.76 1314.43 128.941 1313.09 Q131.186 1310.56 132.066 1308.83 Q132.969 1307.07 132.969 1305.38 Q132.969 1302.62 131.024 1300.89 Q129.103 1299.15 126.001 1299.15 Q123.802 1299.15 121.348 1299.91 Q118.918 1300.68 116.14 1302.23 L116.14 1297.51 Q118.964 1296.37 121.418 1295.79 Q123.871 1295.21 125.908 1295.21 Q131.279 1295.21 134.473 1297.9 Q137.668 1300.59 137.668 1305.08 Q137.668 1307.21 136.857 1309.13 Q136.07 1311.03 133.964 1313.62 Q133.385 1314.29 130.283 1317.51 Q127.182 1320.7 121.533 1326.46 Z" fill="#000000" fill-rule="evenodd" fill-opacity="1" /><path clip-path="url(#clip250)" d="M 0 0 M88.9411 1113.24 Q85.33 1113.24 83.5013 1116.8 Q81.6957 1120.34 81.6957 1127.47 Q81.6957 1134.58 83.5013 1138.14 Q85.33 1141.69 88.9411 1141.69 Q92.5753 1141.69 94.3808 1138.14 Q96.2095 1134.58 96.2095 1127.47 Q96.2095 1120.34 94.3808 1116.8 Q92.5753 1113.24 88.9411 1113.24 M88.9411 1109.53 Q94.7512 1109.53 97.8068 1114.14 Q100.885 1118.72 100.885 1127.47 Q100.885 1136.2 97.8068 1140.81 Q94.7512 1145.39 88.9411 1145.39 Q83.1309 1145.39 80.0522 1140.81 Q76.9967 1136.2 76.9967 1127.47 Q76.9967 1118.72 80.0522 1114.14 Q83.1309 1109.53 88.9411 1109.53 Z" fill="#000000" fill-rule="evenodd" fill-opacity="1" /><path clip-path="url(#clip250)" d="M 0 0 M105.955 1138.84 L110.839 1138.84 L110.839 1144.72 L105.955 1144.72 L105.955 1138.84 Z" fill="#000000" fill-rule="evenodd" fill-opacity="1" /><path clip-path="url(#clip250)" d="M 0 0 M125.908 1113.24 Q122.297 1113.24 120.469 1116.8 Q118.663 1120.34 118.663 1127.47 Q118.663 1134.58 120.469 1138.14 Q122.297 1141.69 125.908 1141.69 Q129.543 1141.69 131.348 1138.14 Q133.177 1134.58 133.177 1127.47 Q133.177 1120.34 131.348 1116.8 Q129.543 1113.24 125.908 1113.24 M125.908 1109.53 Q131.719 1109.53 134.774 1114.14 Q137.853 1118.72 137.853 1127.47 Q137.853 1136.2 134.774 1140.81 Q131.719 1145.39 125.908 1145.39 Q120.098 1145.39 117.02 1140.81 Q113.964 1136.2 113.964 1127.47 Q113.964 1118.72 117.02 1114.14 Q120.098 1109.53 125.908 1109.53 Z" fill="#000000" fill-rule="evenodd" fill-opacity="1" /><path clip-path="url(#clip250)" d="M 0 0 M90.5383 927.555 Q86.9272 927.555 85.0985 931.12 Q83.2929 934.661 83.2929 941.791 Q83.2929 948.897 85.0985 952.462 Q86.9272 956.004 90.5383 956.004 Q94.1725 956.004 95.9781 952.462 Q97.8068 948.897 97.8068 941.791 Q97.8068 934.661 95.9781 931.12 Q94.1725 927.555 90.5383 927.555 M90.5383 923.851 Q96.3484 923.851 99.404 928.457 Q102.483 933.041 102.483 941.791 Q102.483 950.518 99.404 955.124 Q96.3484 959.707 90.5383 959.707 Q84.7281 959.707 81.6494 955.124 Q78.5939 950.518 78.5939 941.791 Q78.5939 933.041 81.6494 928.457 Q84.7281 923.851 90.5383 923.851 Z" fill="#000000" fill-rule="evenodd" fill-opacity="1" /><path clip-path="url(#clip250)" d="M 0 0 M107.552 953.156 L112.436 953.156 L112.436 959.036 L107.552 959.036 L107.552 953.156 Z" fill="#000000" fill-rule="evenodd" fill-opacity="1" /><path clip-path="url(#clip250)" d="M 0 0 M121.533 955.101 L137.853 955.101 L137.853 959.036 L115.909 959.036 L115.909 955.101 Q118.571 952.346 123.154 947.717 Q127.76 943.064 128.941 941.721 Q131.186 939.198 132.066 937.462 Q132.969 935.703 132.969 934.013 Q132.969 931.258 131.024 929.522 Q129.103 927.786 126.001 927.786 Q123.802 927.786 121.348 928.55 Q118.918 929.314 116.14 930.865 L116.14 926.143 Q118.964 925.008 121.418 924.43 Q123.871 923.851 125.908 923.851 Q131.279 923.851 134.473 926.536 Q137.668 929.221 137.668 933.712 Q137.668 935.842 136.857 937.763 Q136.07 939.661 133.964 942.254 Q133.385 942.925 130.283 946.143 Q127.182 949.337 121.533 955.101 Z" fill="#000000" fill-rule="evenodd" fill-opacity="1" /><path clip-path="url(#clip250)" d="M 0 0 M88.455 741.873 Q84.8439 741.873 83.0152 745.438 Q81.2096 748.979 81.2096 756.109 Q81.2096 763.215 83.0152 766.78 Q84.8439 770.322 88.455 770.322 Q92.0892 770.322 93.8947 766.78 Q95.7234 763.215 95.7234 756.109 Q95.7234 748.979 93.8947 745.438 Q92.0892 741.873 88.455 741.873 M88.455 738.169 Q94.2651 738.169 97.3206 742.776 Q100.399 747.359 100.399 756.109 Q100.399 764.836 97.3206 769.442 Q94.2651 774.025 88.455 774.025 Q82.6448 774.025 79.5661 769.442 Q76.5106 764.836 76.5106 756.109 Q76.5106 747.359 79.5661 742.776 Q82.6448 738.169 88.455 738.169 Z" fill="#000000" fill-rule="evenodd" fill-opacity="1" /><path clip-path="url(#clip250)" d="M 0 0 M105.469 767.474 L110.353 767.474 L110.353 773.354 L105.469 773.354 L105.469 767.474 Z" fill="#000000" fill-rule="evenodd" fill-opacity="1" /><path clip-path="url(#clip250)" d="M 0 0 M128.27 742.868 L116.464 761.317 L128.27 761.317 L128.27 742.868 M127.043 738.794 L132.922 738.794 L132.922 761.317 L137.853 761.317 L137.853 765.206 L132.922 765.206 L132.922 773.354 L128.27 773.354 L128.27 765.206 L112.668 765.206 L112.668 760.692 L127.043 738.794 Z" fill="#000000" fill-rule="evenodd" fill-opacity="1" /><path clip-path="url(#clip250)" d="M 0 0 M88.779 556.191 Q85.1679 556.191 83.3392 559.756 Q81.5337 563.297 81.5337 570.427 Q81.5337 577.533 83.3392 581.098 Q85.1679 584.64 88.779 584.64 Q92.4133 584.64 94.2188 581.098 Q96.0475 577.533 96.0475 570.427 Q96.0475 563.297 94.2188 559.756 Q92.4133 556.191 88.779 556.191 M88.779 552.487 Q94.5892 552.487 97.6447 557.094 Q100.723 561.677 100.723 570.427 Q100.723 579.154 97.6447 583.76 Q94.5892 588.343 88.779 588.343 Q82.9689 588.343 79.8902 583.76 Q76.8346 579.154 76.8346 570.427 Q76.8346 561.677 79.8902 557.094 Q82.9689 552.487 88.779 552.487 Z" fill="#000000" fill-rule="evenodd" fill-opacity="1" /><path clip-path="url(#clip250)" d="M 0 0 M105.793 581.793 L110.677 581.793 L110.677 587.672 L105.793 587.672 L105.793 581.793 Z" fill="#000000" fill-rule="evenodd" fill-opacity="1" /><path clip-path="url(#clip250)" d="M 0 0 M126.325 568.529 Q123.177 568.529 121.325 570.681 Q119.496 572.834 119.496 576.584 Q119.496 580.311 121.325 582.487 Q123.177 584.64 126.325 584.64 Q129.473 584.64 131.302 582.487 Q133.154 580.311 133.154 576.584 Q133.154 572.834 131.302 570.681 Q129.473 568.529 126.325 568.529 M135.607 553.876 L135.607 558.135 Q133.848 557.302 132.043 556.862 Q130.26 556.422 128.501 556.422 Q123.871 556.422 121.418 559.547 Q118.987 562.672 118.64 568.992 Q120.006 566.978 122.066 565.913 Q124.126 564.825 126.603 564.825 Q131.811 564.825 134.82 567.996 Q137.853 571.144 137.853 576.584 Q137.853 581.908 134.705 585.126 Q131.557 588.343 126.325 588.343 Q120.33 588.343 117.159 583.76 Q113.987 579.154 113.987 570.427 Q113.987 562.232 117.876 557.371 Q121.765 552.487 128.316 552.487 Q130.075 552.487 131.857 552.834 Q133.663 553.182 135.607 553.876 Z" fill="#000000" fill-rule="evenodd" fill-opacity="1" /><path clip-path="url(#clip250)" d="M 0 0 M89.0337 370.509 Q85.4226 370.509 83.5939 374.074 Q81.7883 377.615 81.7883 384.745 Q81.7883 391.851 83.5939 395.416 Q85.4226 398.958 89.0337 398.958 Q92.6679 398.958 94.4734 395.416 Q96.3021 391.851 96.3021 384.745 Q96.3021 377.615 94.4734 374.074 Q92.6679 370.509 89.0337 370.509 M89.0337 366.805 Q94.8438 366.805 97.8993 371.412 Q100.978 375.995 100.978 384.745 Q100.978 393.472 97.8993 398.078 Q94.8438 402.661 89.0337 402.661 Q83.2235 402.661 80.1448 398.078 Q77.0893 393.472 77.0893 384.745 Q77.0893 375.995 80.1448 371.412 Q83.2235 366.805 89.0337 366.805 Z" fill="#000000" fill-rule="evenodd" fill-opacity="1" /><path clip-path="url(#clip250)" d="M 0 0 M106.047 396.111 L110.932 396.111 L110.932 401.99 L106.047 401.99 L106.047 396.111 Z" fill="#000000" fill-rule="evenodd" fill-opacity="1" /><path clip-path="url(#clip250)" d="M 0 0 M126.001 385.578 Q122.668 385.578 120.746 387.361 Q118.848 389.143 118.848 392.268 Q118.848 395.393 120.746 397.175 Q122.668 398.958 126.001 398.958 Q129.334 398.958 131.256 397.175 Q133.177 395.37 133.177 392.268 Q133.177 389.143 131.256 387.361 Q129.358 385.578 126.001 385.578 M121.325 383.587 Q118.316 382.847 116.626 380.787 Q114.959 378.726 114.959 375.763 Q114.959 371.62 117.899 369.213 Q120.862 366.805 126.001 366.805 Q131.163 366.805 134.103 369.213 Q137.043 371.62 137.043 375.763 Q137.043 378.726 135.353 380.787 Q133.686 382.847 130.7 383.587 Q134.08 384.375 135.955 386.666 Q137.853 388.958 137.853 392.268 Q137.853 397.291 134.774 399.976 Q131.719 402.661 126.001 402.661 Q120.283 402.661 117.205 399.976 Q114.149 397.291 114.149 392.268 Q114.149 388.958 116.047 386.666 Q117.946 384.375 121.325 383.587 M119.612 376.203 Q119.612 378.888 121.279 380.393 Q122.969 381.898 126.001 381.898 Q129.01 381.898 130.7 380.393 Q132.413 378.888 132.413 376.203 Q132.413 373.518 130.7 372.013 Q129.01 370.509 126.001 370.509 Q122.969 370.509 121.279 372.013 Q119.612 373.518 119.612 376.203 Z" fill="#000000" fill-rule="evenodd" fill-opacity="1" /><path clip-path="url(#clip250)" d="M 0 0 M80.9781 212.373 L88.617 212.373 L88.617 186.007 L80.3068 187.674 L80.3068 183.415 L88.5707 181.748 L93.2466 181.748 L93.2466 212.373 L100.885 212.373 L100.885 216.308 L80.9781 216.308 L80.9781 212.373 Z" fill="#000000" fill-rule="evenodd" fill-opacity="1" /><path clip-path="url(#clip250)" d="M 0 0 M105.955 210.429 L110.839 210.429 L110.839 216.308 L105.955 216.308 L105.955 210.429 Z" fill="#000000" fill-rule="evenodd" fill-opacity="1" /><path clip-path="url(#clip250)" d="M 0 0 M125.908 184.827 Q122.297 184.827 120.469 188.392 Q118.663 191.933 118.663 199.063 Q118.663 206.169 120.469 209.734 Q122.297 213.276 125.908 213.276 Q129.543 213.276 131.348 209.734 Q133.177 206.169 133.177 199.063 Q133.177 191.933 131.348 188.392 Q129.543 184.827 125.908 184.827 M125.908 181.123 Q131.719 181.123 134.774 185.73 Q137.853 190.313 137.853 199.063 Q137.853 207.79 134.774 212.396 Q131.719 216.98 125.908 216.98 Q120.098 216.98 117.02 212.396 Q113.964 207.79 113.964 199.063 Q113.964 190.313 117.02 185.73 Q120.098 181.123 125.908 181.123 Z" fill="#000000" fill-rule="evenodd" fill-opacity="1" /><path clip-path="url(#clip252)" d="
M1204.66 384.71 L1761.71 756.074 L1018.98 848.915 L1204.66 384.71  Z
  " fill="#008000" fill-rule="evenodd" fill-opacity="0.2"/>
<polyline clip-path="url(#clip252)" style="stroke:#000000; stroke-width:4; stroke-opacity:1; fill:none" points="
  1204.66,384.71 1761.71,756.074 1018.98,848.915 1204.66,384.71 
  "/>
<circle clip-path="url(#clip252)" cx="1204.66" cy="384.71" r="14" fill="#ff0000" fill-rule="evenodd" fill-opacity="1" stroke="#000000" stroke-opacity="1" stroke-width="3.2"/>
<circle clip-path="url(#clip252)" cx="1761.71" cy="756.074" r="14" fill="#ff0000" fill-rule="evenodd" fill-opacity="1" stroke="#000000" stroke-opacity="1" stroke-width="3.2"/>
<circle clip-path="url(#clip252)" cx="1018.98" cy="848.915" r="14" fill="#ff0000" fill-rule="evenodd" fill-opacity="1" stroke="#000000" stroke-opacity="1" stroke-width="3.2"/>
<path clip-path="url(#clip250)" d="M 0 0 M1204.66 314.147 L1193.57 344.246 L1215.8 344.246 L1204.66 314.147 M1200.05 306.086 L1209.32 306.086 L1232.37 366.566 L1223.87 366.566 L1218.36 351.051 L1191.09 351.051 L1185.58 366.566 L1176.96 366.566 L1200.05 306.086 Z" fill="#000000" fill-rule="evenodd" fill-opacity="1" /><path clip-path="url(#clip250)" d="M 0 0 M1748.44 709.047 L1748.44 731.206 L1761.57 731.206 Q1768.17 731.206 1771.33 728.491 Q1774.53 725.737 1774.53 720.106 Q1774.53 714.435 1771.33 711.761 Q1768.17 709.047 1761.57 709.047 L1748.44 709.047 M1748.44 684.175 L1748.44 702.404 L1760.56 702.404 Q1766.55 702.404 1769.47 700.176 Q1772.43 697.907 1772.43 693.289 Q1772.43 688.712 1769.47 686.443 Q1766.55 684.175 1760.56 684.175 L1748.44 684.175 M1740.26 677.45 L1761.16 677.45 Q1770.52 677.45 1775.58 681.339 Q1780.65 685.228 1780.65 692.398 Q1780.65 697.948 1778.06 701.229 Q1775.46 704.51 1770.44 705.32 Q1776.48 706.617 1779.8 710.749 Q1783.16 714.84 1783.16 720.997 Q1783.16 729.099 1777.65 733.515 Q1772.14 737.93 1761.97 737.93 L1740.26 737.93 L1740.26 677.45 Z" fill="#000000" fill-rule="evenodd" fill-opacity="1" /><path clip-path="url(#clip250)" d="M 0 0 M1043.37 774.95 L1043.37 783.578 Q1039.24 779.73 1034.54 777.826 Q1029.88 775.922 1024.61 775.922 Q1014.24 775.922 1008.73 782.282 Q1003.22 788.601 1003.22 800.592 Q1003.22 812.542 1008.73 818.902 Q1014.24 825.221 1024.61 825.221 Q1029.88 825.221 1034.54 823.317 Q1039.24 821.413 1043.37 817.565 L1043.37 826.113 Q1039.08 829.029 1034.25 830.487 Q1029.47 831.946 1024.13 831.946 Q1010.39 831.946 1002.5 823.56 Q994.596 815.135 994.596 800.592 Q994.596 786.009 1002.5 777.623 Q1010.39 769.197 1024.13 769.197 Q1029.56 769.197 1034.34 770.656 Q1039.16 772.073 1043.37 774.95 Z" fill="#000000" fill-rule="evenodd" fill-opacity="1" /><path clip-path="url(#clip252)" d="
M1204.66 384.71 L1761.71 756.074 L1804.8 87.9763 L1204.66 384.71  Z
  " fill="#ffc0cb" fill-rule="evenodd" fill-opacity="0.7"/>
<polyline clip-path="url(#clip252)" style="stroke:#000000; stroke-width:4; stroke-opacity:1; fill:none" points="
  1204.66,384.71 1761.71,756.074 1804.8,87.9763 1204.66,384.71 
  "/>
<path clip-path="url(#clip252)" d="
M1018.98 848.915 L1204.66 384.71 L709.811 456.007 L1018.98 848.915  Z
  " fill="#ffc0cb" fill-rule="evenodd" fill-opacity="0.7"/>
<polyline clip-path="url(#clip252)" style="stroke:#000000; stroke-width:4; stroke-opacity:1; fill:none" points="
  1018.98,848.915 1204.66,384.71 709.811,456.007 1018.98,848.915 
  "/>
<path clip-path="url(#clip252)" d="
M1761.71 756.074 L1018.98 848.915 L1470.75 1445.72 L1761.71 756.074  Z
  " fill="#ffc0cb" fill-rule="evenodd" fill-opacity="0.7"/>
<polyline clip-path="url(#clip252)" style="stroke:#000000; stroke-width:4; stroke-opacity:1; fill:none" points="
  1761.71,756.074 1018.98,848.915 1470.75,1445.72 1761.71,756.074 
  "/>
<path clip-path="url(#clip252)" d="
M1590.39 409.587 L977.819 563.211 L1417.15 1016.9 L1590.39 409.587  Z
  " fill="#0000ff" fill-rule="evenodd" fill-opacity="0.7"/>
<polyline clip-path="url(#clip252)" style="stroke:#000000; stroke-width:4; stroke-opacity:1; fill:none" points="
  1590.39,409.587 977.819,563.211 1417.15,1016.9 1590.39,409.587 
  "/>
</svg>
