<?xml version="1.0" encoding="utf-8"?>
<svg xmlns="http://www.w3.org/2000/svg" xmlns:xlink="http://www.w3.org/1999/xlink" width="600" height="400" viewBox="0 0 2400 1600">
<defs>
  <clipPath id="clip110">
    <rect x="0" y="0" width="2400" height="1600"/>
  </clipPath>
</defs>
<path clip-path="url(#clip110)" d="
M0 1600 L2400 1600 L2400 0 L0 0  Z
  " fill="#ffffff" fill-rule="evenodd" fill-opacity="1"/>
<defs>
  <clipPath id="clip111">
    <rect x="480" y="0" width="1681" height="1600"/>
  </clipPath>
</defs>
<path clip-path="url(#clip110)" d="
M174.862 1486.45 L2352.76 1486.45 L2352.76 47.2441 L174.862 47.2441  Z
  " fill="#ffffff" fill-rule="evenodd" fill-opacity="1"/>
<defs>
  <clipPath id="clip112">
    <rect x="174" y="47" width="2179" height="1440"/>
  </clipPath>
</defs>
<polyline clip-path="url(#clip112)" style="stroke:#000000; stroke-width:2; stroke-opacity:0.1; fill:none" points="
  671.464,1486.45 671.464,47.2441 
  "/>
<polyline clip-path="url(#clip112)" style="stroke:#000000; stroke-width:2; stroke-opacity:0.1; fill:none" points="
  1192.62,1486.45 1192.62,47.2441 
  "/>
<polyline clip-path="url(#clip112)" style="stroke:#000000; stroke-width:2; stroke-opacity:0.1; fill:none" points="
  1713.77,1486.45 1713.77,47.2441 
  "/>
<polyline clip-path="url(#clip112)" style="stroke:#000000; stroke-width:2; stroke-opacity:0.1; fill:none" points="
  2234.93,1486.45 2234.93,47.2441 
  "/>
<polyline clip-path="url(#clip112)" style="stroke:#000000; stroke-width:2; stroke-opacity:0.1; fill:none" points="
  174.862,1348.97 2352.76,1348.97 
  "/>
<polyline clip-path="url(#clip112)" style="stroke:#000000; stroke-width:2; stroke-opacity:0.1; fill:none" points="
  174.862,1088.39 2352.76,1088.39 
  "/>
<polyline clip-path="url(#clip112)" style="stroke:#000000; stroke-width:2; stroke-opacity:0.1; fill:none" points="
  174.862,827.814 2352.76,827.814 
  "/>
<polyline clip-path="url(#clip112)" style="stroke:#000000; stroke-width:2; stroke-opacity:0.1; fill:none" points="
  174.862,567.237 2352.76,567.237 
  "/>
<polyline clip-path="url(#clip112)" style="stroke:#000000; stroke-width:2; stroke-opacity:0.1; fill:none" points="
  174.862,306.66 2352.76,306.66 
  "/>
<polyline clip-path="url(#clip110)" style="stroke:#000000; stroke-width:4; stroke-opacity:1; fill:none" points="
  174.862,1486.45 2352.76,1486.45 
  "/>
<polyline clip-path="url(#clip110)" style="stroke:#000000; stroke-width:4; stroke-opacity:1; fill:none" points="
  174.862,1486.45 174.862,47.2441 
  "/>
<polyline clip-path="url(#clip110)" style="stroke:#000000; stroke-width:4; stroke-opacity:1; fill:none" points="
  671.464,1486.45 671.464,1469.18 
  "/>
<polyline clip-path="url(#clip110)" style="stroke:#000000; stroke-width:4; stroke-opacity:1; fill:none" points="
  1192.62,1486.45 1192.62,1469.18 
  "/>
<polyline clip-path="url(#clip110)" style="stroke:#000000; stroke-width:4; stroke-opacity:1; fill:none" points="
  1713.77,1486.45 1713.77,1469.18 
  "/>
<polyline clip-path="url(#clip110)" style="stroke:#000000; stroke-width:4; stroke-opacity:1; fill:none" points="
  2234.93,1486.45 2234.93,1469.18 
  "/>
<polyline clip-path="url(#clip110)" style="stroke:#000000; stroke-width:4; stroke-opacity:1; fill:none" points="
  174.862,1348.97 200.997,1348.97 
  "/>
<polyline clip-path="url(#clip110)" style="stroke:#000000; stroke-width:4; stroke-opacity:1; fill:none" points="
  174.862,1088.39 200.997,1088.39 
  "/>
<polyline clip-path="url(#clip110)" style="stroke:#000000; stroke-width:4; stroke-opacity:1; fill:none" points="
  174.862,827.814 200.997,827.814 
  "/>
<polyline clip-path="url(#clip110)" style="stroke:#000000; stroke-width:4; stroke-opacity:1; fill:none" points="
  174.862,567.237 200.997,567.237 
  "/>
<polyline clip-path="url(#clip110)" style="stroke:#000000; stroke-width:4; stroke-opacity:1; fill:none" points="
  174.862,306.66 200.997,306.66 
  "/>
<path clip-path="url(#clip110)" d="M 0 0 M652.98 1508.44 Q649.369 1508.44 647.541 1512 Q645.735 1515.55 645.735 1522.67 Q645.735 1529.78 647.541 1533.35 Q649.369 1536.89 652.98 1536.89 Q656.615 1536.89 658.42 1533.35 Q660.249 1529.78 660.249 1522.67 Q660.249 1515.55 658.42 1512 Q656.615 1508.44 652.98 1508.44 M652.98 1504.73 Q658.791 1504.73 661.846 1509.34 Q664.925 1513.92 664.925 1522.67 Q664.925 1531.4 661.846 1536.01 Q658.791 1540.59 652.98 1540.59 Q647.17 1540.59 644.092 1536.01 Q641.036 1531.4 641.036 1522.67 Q641.036 1513.92 644.092 1509.34 Q647.17 1504.73 652.98 1504.73 Z" fill="#000000" fill-rule="evenodd" fill-opacity="1" /><path clip-path="url(#clip110)" d="M 0 0 M669.994 1534.04 L674.878 1534.04 L674.878 1539.92 L669.994 1539.92 L669.994 1534.04 Z" fill="#000000" fill-rule="evenodd" fill-opacity="1" /><path clip-path="url(#clip110)" d="M 0 0 M689.948 1508.44 Q686.337 1508.44 684.508 1512 Q682.702 1515.55 682.702 1522.67 Q682.702 1529.78 684.508 1533.35 Q686.337 1536.89 689.948 1536.89 Q693.582 1536.89 695.388 1533.35 Q697.216 1529.78 697.216 1522.67 Q697.216 1515.55 695.388 1512 Q693.582 1508.44 689.948 1508.44 M689.948 1504.73 Q695.758 1504.73 698.813 1509.34 Q701.892 1513.92 701.892 1522.67 Q701.892 1531.4 698.813 1536.01 Q695.758 1540.59 689.948 1540.59 Q684.138 1540.59 681.059 1536.01 Q678.003 1531.4 678.003 1522.67 Q678.003 1513.92 681.059 1509.34 Q684.138 1504.73 689.948 1504.73 Z" fill="#000000" fill-rule="evenodd" fill-opacity="1" /><path clip-path="url(#clip110)" d="M 0 0 M1174.63 1508.44 Q1171.02 1508.44 1169.19 1512 Q1167.39 1515.55 1167.39 1522.67 Q1167.39 1529.78 1169.19 1533.35 Q1171.02 1536.89 1174.63 1536.89 Q1178.27 1536.89 1180.07 1533.35 Q1181.9 1529.78 1181.9 1522.67 Q1181.9 1515.55 1180.07 1512 Q1178.27 1508.44 1174.63 1508.44 M1174.63 1504.73 Q1180.44 1504.73 1183.5 1509.34 Q1186.58 1513.92 1186.58 1522.67 Q1186.58 1531.4 1183.5 1536.01 Q1180.44 1540.59 1174.63 1540.59 Q1168.82 1540.59 1165.74 1536.01 Q1162.69 1531.4 1162.69 1522.67 Q1162.69 1513.92 1165.74 1509.34 Q1168.82 1504.73 1174.63 1504.73 Z" fill="#000000" fill-rule="evenodd" fill-opacity="1" /><path clip-path="url(#clip110)" d="M 0 0 M1191.65 1534.04 L1196.53 1534.04 L1196.53 1539.92 L1191.65 1539.92 L1191.65 1534.04 Z" fill="#000000" fill-rule="evenodd" fill-opacity="1" /><path clip-path="url(#clip110)" d="M 0 0 M1201.65 1505.36 L1220 1505.36 L1220 1509.3 L1205.93 1509.3 L1205.93 1517.77 Q1206.95 1517.42 1207.97 1517.26 Q1208.98 1517.07 1210 1517.07 Q1215.79 1517.07 1219.17 1520.24 Q1222.55 1523.42 1222.55 1528.83 Q1222.55 1534.41 1219.08 1537.51 Q1215.6 1540.59 1209.28 1540.59 Q1207.11 1540.59 1204.84 1540.22 Q1202.59 1539.85 1200.19 1539.11 L1200.19 1534.41 Q1202.27 1535.54 1204.49 1536.1 Q1206.72 1536.66 1209.19 1536.66 Q1213.2 1536.66 1215.53 1534.55 Q1217.87 1532.44 1217.87 1528.83 Q1217.87 1525.22 1215.53 1523.11 Q1213.2 1521.01 1209.19 1521.01 Q1207.32 1521.01 1205.44 1521.42 Q1203.59 1521.84 1201.65 1522.72 L1201.65 1505.36 Z" fill="#000000" fill-rule="evenodd" fill-opacity="1" /><path clip-path="url(#clip110)" d="M 0 0 M1685.67 1535.98 L1693.31 1535.98 L1693.31 1509.62 L1685 1511.29 L1685 1507.03 L1693.26 1505.36 L1697.94 1505.36 L1697.94 1535.98 L1705.58 1535.98 L1705.58 1539.92 L1685.67 1539.92 L1685.67 1535.98 Z" fill="#000000" fill-rule="evenodd" fill-opacity="1" /><path clip-path="url(#clip110)" d="M 0 0 M1710.65 1534.04 L1715.53 1534.04 L1715.53 1539.92 L1710.65 1539.92 L1710.65 1534.04 Z" fill="#000000" fill-rule="evenodd" fill-opacity="1" /><path clip-path="url(#clip110)" d="M 0 0 M1730.6 1508.44 Q1726.99 1508.44 1725.16 1512 Q1723.36 1515.55 1723.36 1522.67 Q1723.36 1529.78 1725.16 1533.35 Q1726.99 1536.89 1730.6 1536.89 Q1734.23 1536.89 1736.04 1533.35 Q1737.87 1529.78 1737.87 1522.67 Q1737.87 1515.55 1736.04 1512 Q1734.23 1508.44 1730.6 1508.44 M1730.6 1504.73 Q1736.41 1504.73 1739.47 1509.34 Q1742.54 1513.92 1742.54 1522.67 Q1742.54 1531.4 1739.47 1536.01 Q1736.41 1540.59 1730.6 1540.59 Q1724.79 1540.59 1721.71 1536.01 Q1718.66 1531.4 1718.66 1522.67 Q1718.66 1513.92 1721.71 1509.34 Q1724.79 1504.73 1730.6 1504.73 Z" fill="#000000" fill-rule="evenodd" fill-opacity="1" /><path clip-path="url(#clip110)" d="M 0 0 M2207.32 1535.98 L2214.96 1535.98 L2214.96 1509.62 L2206.65 1511.29 L2206.65 1507.03 L2214.91 1505.36 L2219.59 1505.36 L2219.59 1535.98 L2227.23 1535.98 L2227.23 1539.92 L2207.32 1539.92 L2207.32 1535.98 Z" fill="#000000" fill-rule="evenodd" fill-opacity="1" /><path clip-path="url(#clip110)" d="M 0 0 M2232.3 1534.04 L2237.18 1534.04 L2237.18 1539.92 L2232.3 1539.92 L2232.3 1534.04 Z" fill="#000000" fill-rule="evenodd" fill-opacity="1" /><path clip-path="url(#clip110)" d="M 0 0 M2242.3 1505.36 L2260.65 1505.36 L2260.65 1509.3 L2246.58 1509.3 L2246.58 1517.77 Q2247.6 1517.42 2248.62 1517.26 Q2249.64 1517.07 2250.66 1517.07 Q2256.44 1517.07 2259.82 1520.24 Q2263.2 1523.42 2263.2 1528.83 Q2263.2 1534.41 2259.73 1537.51 Q2256.26 1540.59 2249.94 1540.59 Q2247.76 1540.59 2245.49 1540.22 Q2243.25 1539.85 2240.84 1539.11 L2240.84 1534.41 Q2242.92 1535.54 2245.15 1536.1 Q2247.37 1536.66 2249.84 1536.66 Q2253.85 1536.66 2256.19 1534.55 Q2258.53 1532.44 2258.53 1528.83 Q2258.53 1525.22 2256.19 1523.11 Q2253.85 1521.01 2249.84 1521.01 Q2247.97 1521.01 2246.09 1521.42 Q2244.24 1521.84 2242.3 1522.72 L2242.3 1505.36 Z" fill="#000000" fill-rule="evenodd" fill-opacity="1" /><path clip-path="url(#clip110)" d="M 0 0 M74.9365 1334.77 Q71.3254 1334.77 69.4967 1338.33 Q67.6912 1341.87 67.6912 1349 Q67.6912 1356.11 69.4967 1359.67 Q71.3254 1363.22 74.9365 1363.22 Q78.5707 1363.22 80.3763 1359.67 Q82.205 1356.11 82.205 1349 Q82.205 1341.87 80.3763 1338.33 Q78.5707 1334.77 74.9365 1334.77 M74.9365 1331.06 Q80.7467 1331.06 83.8022 1335.67 Q86.8809 1340.25 86.8809 1349 Q86.8809 1357.73 83.8022 1362.34 Q80.7467 1366.92 74.9365 1366.92 Q69.1264 1366.92 66.0477 1362.34 Q62.9921 1357.73 62.9921 1349 Q62.9921 1340.25 66.0477 1335.67 Q69.1264 1331.06 74.9365 1331.06 Z" fill="#000000" fill-rule="evenodd" fill-opacity="1" /><path clip-path="url(#clip110)" d="M 0 0 M91.9503 1360.37 L96.8345 1360.37 L96.8345 1366.25 L91.9503 1366.25 L91.9503 1360.37 Z" fill="#000000" fill-rule="evenodd" fill-opacity="1" /><path clip-path="url(#clip110)" d="M 0 0 M111.904 1334.77 Q108.293 1334.77 106.464 1338.33 Q104.659 1341.87 104.659 1349 Q104.659 1356.11 106.464 1359.67 Q108.293 1363.22 111.904 1363.22 Q115.538 1363.22 117.344 1359.67 Q119.172 1356.11 119.172 1349 Q119.172 1341.87 117.344 1338.33 Q115.538 1334.77 111.904 1334.77 M111.904 1331.06 Q117.714 1331.06 120.77 1335.67 Q123.848 1340.25 123.848 1349 Q123.848 1357.73 120.77 1362.34 Q117.714 1366.92 111.904 1366.92 Q106.094 1366.92 103.015 1362.34 Q99.9595 1357.73 99.9595 1349 Q99.9595 1340.25 103.015 1335.67 Q106.094 1331.06 111.904 1331.06 Z" fill="#000000" fill-rule="evenodd" fill-opacity="1" /><path clip-path="url(#clip110)" d="M 0 0 M138.918 1334.77 Q135.307 1334.77 133.478 1338.33 Q131.672 1341.87 131.672 1349 Q131.672 1356.11 133.478 1359.67 Q135.307 1363.22 138.918 1363.22 Q142.552 1363.22 144.357 1359.67 Q146.186 1356.11 146.186 1349 Q146.186 1341.87 144.357 1338.33 Q142.552 1334.77 138.918 1334.77 M138.918 1331.06 Q144.728 1331.06 147.783 1335.67 Q150.862 1340.25 150.862 1349 Q150.862 1357.73 147.783 1362.34 Q144.728 1366.92 138.918 1366.92 Q133.107 1366.92 130.029 1362.34 Q126.973 1357.73 126.973 1349 Q126.973 1340.25 130.029 1335.67 Q133.107 1331.06 138.918 1331.06 Z" fill="#000000" fill-rule="evenodd" fill-opacity="1" /><path clip-path="url(#clip110)" d="M 0 0 M77.5291 1074.19 Q73.918 1074.19 72.0893 1077.75 Q70.2838 1081.3 70.2838 1088.43 Q70.2838 1095.53 72.0893 1099.1 Q73.918 1102.64 77.5291 1102.64 Q81.1633 1102.64 82.9689 1099.1 Q84.7976 1095.53 84.7976 1088.43 Q84.7976 1081.3 82.9689 1077.75 Q81.1633 1074.19 77.5291 1074.19 M77.5291 1070.49 Q83.3392 1070.49 86.3948 1075.09 Q89.4735 1079.68 89.4735 1088.43 Q89.4735 1097.15 86.3948 1101.76 Q83.3392 1106.34 77.5291 1106.34 Q71.7189 1106.34 68.6402 1101.76 Q65.5847 1097.15 65.5847 1088.43 Q65.5847 1079.68 68.6402 1075.09 Q71.7189 1070.49 77.5291 1070.49 Z" fill="#000000" fill-rule="evenodd" fill-opacity="1" /><path clip-path="url(#clip110)" d="M 0 0 M94.5429 1099.79 L99.4271 1099.79 L99.4271 1105.67 L94.5429 1105.67 L94.5429 1099.79 Z" fill="#000000" fill-rule="evenodd" fill-opacity="1" /><path clip-path="url(#clip110)" d="M 0 0 M108.524 1101.74 L124.844 1101.74 L124.844 1105.67 L102.899 1105.67 L102.899 1101.74 Q105.561 1098.98 110.145 1094.35 Q114.751 1089.7 115.932 1088.36 Q118.177 1085.83 119.057 1084.1 Q119.959 1082.34 119.959 1080.65 Q119.959 1077.89 118.015 1076.16 Q116.094 1074.42 112.992 1074.42 Q110.793 1074.42 108.339 1075.19 Q105.909 1075.95 103.131 1077.5 L103.131 1072.78 Q105.955 1071.64 108.409 1071.07 Q110.862 1070.49 112.899 1070.49 Q118.27 1070.49 121.464 1073.17 Q124.658 1075.86 124.658 1080.35 Q124.658 1082.48 123.848 1084.4 Q123.061 1086.3 120.955 1088.89 Q120.376 1089.56 117.274 1092.78 Q114.172 1095.97 108.524 1101.74 Z" fill="#000000" fill-rule="evenodd" fill-opacity="1" /><path clip-path="url(#clip110)" d="M 0 0 M129.959 1071.11 L148.316 1071.11 L148.316 1075.05 L134.242 1075.05 L134.242 1083.52 Q135.26 1083.17 136.279 1083.01 Q137.297 1082.82 138.316 1082.82 Q144.103 1082.82 147.482 1086 Q150.862 1089.17 150.862 1094.58 Q150.862 1100.16 147.39 1103.26 Q143.918 1106.34 137.598 1106.34 Q135.422 1106.34 133.154 1105.97 Q130.908 1105.6 128.501 1104.86 L128.501 1100.16 Q130.584 1101.3 132.807 1101.85 Q135.029 1102.41 137.506 1102.41 Q141.51 1102.41 143.848 1100.3 Q146.186 1098.19 146.186 1094.58 Q146.186 1090.97 143.848 1088.87 Q141.51 1086.76 137.506 1086.76 Q135.631 1086.76 133.756 1087.18 Q131.904 1087.59 129.959 1088.47 L129.959 1071.11 Z" fill="#000000" fill-rule="evenodd" fill-opacity="1" /><path clip-path="url(#clip110)" d="M 0 0 M75.9319 813.613 Q72.3208 813.613 70.4921 817.178 Q68.6865 820.72 68.6865 827.849 Q68.6865 834.956 70.4921 838.52 Q72.3208 842.062 75.9319 842.062 Q79.5661 842.062 81.3717 838.52 Q83.2004 834.956 83.2004 827.849 Q83.2004 820.72 81.3717 817.178 Q79.5661 813.613 75.9319 813.613 M75.9319 809.909 Q81.742 809.909 84.7976 814.516 Q87.8763 819.099 87.8763 827.849 Q87.8763 836.576 84.7976 841.182 Q81.742 845.766 75.9319 845.766 Q70.1217 845.766 67.043 841.182 Q63.9875 836.576 63.9875 827.849 Q63.9875 819.099 67.043 814.516 Q70.1217 809.909 75.9319 809.909 Z" fill="#000000" fill-rule="evenodd" fill-opacity="1" /><path clip-path="url(#clip110)" d="M 0 0 M92.9457 839.215 L97.8299 839.215 L97.8299 845.094 L92.9457 845.094 L92.9457 839.215 Z" fill="#000000" fill-rule="evenodd" fill-opacity="1" /><path clip-path="url(#clip110)" d="M 0 0 M102.946 810.534 L121.302 810.534 L121.302 814.47 L107.228 814.47 L107.228 822.942 Q108.247 822.594 109.265 822.432 Q110.284 822.247 111.302 822.247 Q117.089 822.247 120.469 825.419 Q123.848 828.59 123.848 834.006 Q123.848 839.585 120.376 842.687 Q116.904 845.766 110.584 845.766 Q108.409 845.766 106.14 845.395 Q103.895 845.025 101.487 844.284 L101.487 839.585 Q103.571 840.719 105.793 841.275 Q108.015 841.831 110.492 841.831 Q114.496 841.831 116.834 839.724 Q119.172 837.618 119.172 834.006 Q119.172 830.395 116.834 828.289 Q114.496 826.182 110.492 826.182 Q108.617 826.182 106.742 826.599 Q104.89 827.016 102.946 827.895 L102.946 810.534 Z" fill="#000000" fill-rule="evenodd" fill-opacity="1" /><path clip-path="url(#clip110)" d="M 0 0 M138.918 813.613 Q135.307 813.613 133.478 817.178 Q131.672 820.72 131.672 827.849 Q131.672 834.956 133.478 838.52 Q135.307 842.062 138.918 842.062 Q142.552 842.062 144.357 838.52 Q146.186 834.956 146.186 827.849 Q146.186 820.72 144.357 817.178 Q142.552 813.613 138.918 813.613 M138.918 809.909 Q144.728 809.909 147.783 814.516 Q150.862 819.099 150.862 827.849 Q150.862 836.576 147.783 841.182 Q144.728 845.766 138.918 845.766 Q133.107 845.766 130.029 841.182 Q126.973 836.576 126.973 827.849 Q126.973 819.099 130.029 814.516 Q133.107 809.909 138.918 809.909 Z" fill="#000000" fill-rule="evenodd" fill-opacity="1" /><path clip-path="url(#clip110)" d="M 0 0 M76.8346 553.036 Q73.2236 553.036 71.3949 556.601 Q69.5893 560.143 69.5893 567.272 Q69.5893 574.379 71.3949 577.943 Q73.2236 581.485 76.8346 581.485 Q80.4689 581.485 82.2744 577.943 Q84.1031 574.379 84.1031 567.272 Q84.1031 560.143 82.2744 556.601 Q80.4689 553.036 76.8346 553.036 M76.8346 549.332 Q82.6448 549.332 85.7003 553.939 Q88.779 558.522 88.779 567.272 Q88.779 575.999 85.7003 580.605 Q82.6448 585.189 76.8346 585.189 Q71.0245 585.189 67.9458 580.605 Q64.8903 575.999 64.8903 567.272 Q64.8903 558.522 67.9458 553.939 Q71.0245 549.332 76.8346 549.332 Z" fill="#000000" fill-rule="evenodd" fill-opacity="1" /><path clip-path="url(#clip110)" d="M 0 0 M93.8484 578.638 L98.7327 578.638 L98.7327 584.517 L93.8484 584.517 L93.8484 578.638 Z" fill="#000000" fill-rule="evenodd" fill-opacity="1" /><path clip-path="url(#clip110)" d="M 0 0 M102.622 549.957 L124.844 549.957 L124.844 551.948 L112.297 584.517 L107.413 584.517 L119.219 553.893 L102.622 553.893 L102.622 549.957 Z" fill="#000000" fill-rule="evenodd" fill-opacity="1" /><path clip-path="url(#clip110)" d="M 0 0 M129.959 549.957 L148.316 549.957 L148.316 553.893 L134.242 553.893 L134.242 562.365 Q135.26 562.018 136.279 561.855 Q137.297 561.67 138.316 561.67 Q144.103 561.67 147.482 564.842 Q150.862 568.013 150.862 573.429 Q150.862 579.008 147.39 582.11 Q143.918 585.189 137.598 585.189 Q135.422 585.189 133.154 584.818 Q130.908 584.448 128.501 583.707 L128.501 579.008 Q130.584 580.142 132.807 580.698 Q135.029 581.254 137.506 581.254 Q141.51 581.254 143.848 579.147 Q146.186 577.041 146.186 573.429 Q146.186 569.818 143.848 567.712 Q141.51 565.605 137.506 565.605 Q135.631 565.605 133.756 566.022 Q131.904 566.439 129.959 567.318 L129.959 549.957 Z" fill="#000000" fill-rule="evenodd" fill-opacity="1" /><path clip-path="url(#clip110)" d="M 0 0 M66.9736 320.005 L74.6124 320.005 L74.6124 293.64 L66.3023 295.306 L66.3023 291.047 L74.5661 289.38 L79.242 289.38 L79.242 320.005 L86.8809 320.005 L86.8809 323.94 L66.9736 323.94 L66.9736 320.005 Z" fill="#000000" fill-rule="evenodd" fill-opacity="1" /><path clip-path="url(#clip110)" d="M 0 0 M91.9503 318.061 L96.8345 318.061 L96.8345 323.94 L91.9503 323.94 L91.9503 318.061 Z" fill="#000000" fill-rule="evenodd" fill-opacity="1" /><path clip-path="url(#clip110)" d="M 0 0 M111.904 292.459 Q108.293 292.459 106.464 296.024 Q104.659 299.566 104.659 306.695 Q104.659 313.802 106.464 317.366 Q108.293 320.908 111.904 320.908 Q115.538 320.908 117.344 317.366 Q119.172 313.802 119.172 306.695 Q119.172 299.566 117.344 296.024 Q115.538 292.459 111.904 292.459 M111.904 288.755 Q117.714 288.755 120.77 293.362 Q123.848 297.945 123.848 306.695 Q123.848 315.422 120.77 320.028 Q117.714 324.612 111.904 324.612 Q106.094 324.612 103.015 320.028 Q99.9595 315.422 99.9595 306.695 Q99.9595 297.945 103.015 293.362 Q106.094 288.755 111.904 288.755 Z" fill="#000000" fill-rule="evenodd" fill-opacity="1" /><path clip-path="url(#clip110)" d="M 0 0 M138.918 292.459 Q135.307 292.459 133.478 296.024 Q131.672 299.566 131.672 306.695 Q131.672 313.802 133.478 317.366 Q135.307 320.908 138.918 320.908 Q142.552 320.908 144.357 317.366 Q146.186 313.802 146.186 306.695 Q146.186 299.566 144.357 296.024 Q142.552 292.459 138.918 292.459 M138.918 288.755 Q144.728 288.755 147.783 293.362 Q150.862 297.945 150.862 306.695 Q150.862 315.422 147.783 320.028 Q144.728 324.612 138.918 324.612 Q133.107 324.612 130.029 320.028 Q126.973 315.422 126.973 306.695 Q126.973 297.945 130.029 293.362 Q133.107 288.755 138.918 288.755 Z" fill="#000000" fill-rule="evenodd" fill-opacity="1" /><path clip-path="url(#clip112)" d="
M1713.77 306.66 L879.926 1140.51 L1401.08 410.891 L1713.77 306.66  Z
  " fill="#008000" fill-rule="evenodd" fill-opacity="0.2"/>
<polyline clip-path="url(#clip112)" style="stroke:#000000; stroke-width:4; stroke-opacity:1; fill:none" points="
  1713.77,306.66 879.926,1140.51 1401.08,410.891 1713.77,306.66 
  "/>
<circle clip-path="url(#clip112)" cx="1713.77" cy="306.66" r="14" fill="#ff0000" fill-rule="evenodd" fill-opacity="1" stroke="#000000" stroke-opacity="1" stroke-width="3.2"/>
<circle clip-path="url(#clip112)" cx="879.926" cy="1140.51" r="14" fill="#ff0000" fill-rule="evenodd" fill-opacity="1" stroke="#000000" stroke-opacity="1" stroke-width="3.2"/>
<circle clip-path="url(#clip112)" cx="1401.08" cy="410.891" r="14" fill="#ff0000" fill-rule="evenodd" fill-opacity="1" stroke="#000000" stroke-opacity="1" stroke-width="3.2"/>
<path clip-path="url(#clip110)" d="M 0 0 M1713.77 236.098 L1702.67 266.196 L1724.91 266.196 L1713.77 236.098 M1709.15 228.036 L1718.43 228.036 L1741.48 288.516 L1732.97 288.516 L1727.46 273.001 L1700.2 273.001 L1694.69 288.516 L1686.06 288.516 L1709.15 228.036 Z" fill="#000000" fill-rule="evenodd" fill-opacity="1" /><path clip-path="url(#clip110)" d="M 0 0 M866.659 1093.48 L866.659 1115.64 L879.784 1115.64 Q886.387 1115.64 889.547 1112.92 Q892.747 1110.17 892.747 1104.54 Q892.747 1098.87 889.547 1096.19 Q886.387 1093.48 879.784 1093.48 L866.659 1093.48 M866.659 1068.61 L866.659 1086.84 L878.771 1086.84 Q884.766 1086.84 887.683 1084.61 Q890.64 1082.34 890.64 1077.72 Q890.64 1073.14 887.683 1070.88 Q884.766 1068.61 878.771 1068.61 L866.659 1068.61 M858.476 1061.88 L879.379 1061.88 Q888.736 1061.88 893.8 1065.77 Q898.864 1069.66 898.864 1076.83 Q898.864 1082.38 896.271 1085.66 Q893.678 1088.94 888.655 1089.75 Q894.691 1091.05 898.013 1095.18 Q901.375 1099.27 901.375 1105.43 Q901.375 1113.53 895.866 1117.95 Q890.357 1122.36 880.189 1122.36 L858.476 1122.36 L858.476 1061.88 Z" fill="#000000" fill-rule="evenodd" fill-opacity="1" /><path clip-path="url(#clip110)" d="M 0 0 M1425.47 336.926 L1425.47 345.554 Q1421.33 341.706 1416.64 339.802 Q1411.98 337.898 1406.71 337.898 Q1396.34 337.898 1390.83 344.258 Q1385.32 350.577 1385.32 362.568 Q1385.32 374.518 1390.83 380.878 Q1396.34 387.197 1406.71 387.197 Q1411.98 387.197 1416.64 385.294 Q1421.33 383.39 1425.47 379.541 L1425.47 388.089 Q1421.17 391.005 1416.35 392.464 Q1411.57 393.922 1406.22 393.922 Q1392.49 393.922 1384.59 385.537 Q1376.69 377.111 1376.69 362.568 Q1376.69 347.985 1384.59 339.599 Q1392.49 331.173 1406.22 331.173 Q1411.65 331.173 1416.43 332.632 Q1421.25 334.05 1425.47 336.926 Z" fill="#000000" fill-rule="evenodd" fill-opacity="1" /><path clip-path="url(#clip112)" d="
M1713.77 306.66 L879.926 1140.51 L2018.98 1445.72 L1713.77 306.66  Z
  " fill="#ffc0cb" fill-rule="evenodd" fill-opacity="0.7"/>
<polyline clip-path="url(#clip112)" style="stroke:#000000; stroke-width:4; stroke-opacity:1; fill:none" points="
  1713.77,306.66 879.926,1140.51 2018.98,1445.72 1713.77,306.66 
  "/>
<path clip-path="url(#clip112)" d="
M1401.08 410.891 L1713.77 306.66 L1467.16 87.9763 L1401.08 410.891  Z
  " fill="#ffc0cb" fill-rule="evenodd" fill-opacity="0.7"/>
<polyline clip-path="url(#clip112)" style="stroke:#000000; stroke-width:4; stroke-opacity:1; fill:none" points="
  1401.08,410.891 1713.77,306.66 1467.16,87.9763 1401.08,410.891 
  "/>
<path clip-path="url(#clip112)" d="
M879.926 1140.51 L1401.08 410.891 L508.637 324.366 L879.926 1140.51  Z
  " fill="#ffc0cb" fill-rule="evenodd" fill-opacity="0.7"/>
<polyline clip-path="url(#clip112)" style="stroke:#000000; stroke-width:4; stroke-opacity:1; fill:none" points="
  879.926,1140.51 1401.08,410.891 508.637,324.366 879.926,1140.51 
  "/>
<path clip-path="url(#clip112)" d="
M1537.56 964.294 L1527.34 268.509 L929.881 625.255 L1537.56 964.294  Z
  " fill="#0000ff" fill-rule="evenodd" fill-opacity="0.7"/>
<polyline clip-path="url(#clip112)" style="stroke:#000000; stroke-width:4; stroke-opacity:1; fill:none" points="
  1537.56,964.294 1527.34,268.509 929.881,625.255 1537.56,964.294 
  "/>
</svg>
