<?xml version="1.0" encoding="utf-8"?>
<svg xmlns="http://www.w3.org/2000/svg" xmlns:xlink="http://www.w3.org/1999/xlink" width="600" height="400" viewBox="0 0 2400 1600">
<defs>
  <clipPath id="clip280">
    <rect x="0" y="0" width="2400" height="1600"/>
  </clipPath>
</defs>
<path clip-path="url(#clip280)" d="
M0 1600 L2400 1600 L2400 0 L0 0  Z
  " fill="#ffffff" fill-rule="evenodd" fill-opacity="1"/>
<defs>
  <clipPath id="clip281">
    <rect x="480" y="0" width="1681" height="1600"/>
  </clipPath>
</defs>
<path clip-path="url(#clip280)" d="
M161.853 1486.45 L2352.76 1486.45 L2352.76 47.2441 L161.853 47.2441  Z
  " fill="#ffffff" fill-rule="evenodd" fill-opacity="1"/>
<defs>
  <clipPath id="clip282">
    <rect x="161" y="47" width="2192" height="1440"/>
  </clipPath>
</defs>
<polyline clip-path="url(#clip282)" style="stroke:#000000; stroke-width:2; stroke-opacity:0.1; fill:none" points="
  411.487,1486.45 411.487,47.2441 
  "/>
<polyline clip-path="url(#clip282)" style="stroke:#000000; stroke-width:2; stroke-opacity:0.1; fill:none" points="
  692.585,1486.45 692.585,47.2441 
  "/>
<polyline clip-path="url(#clip282)" style="stroke:#000000; stroke-width:2; stroke-opacity:0.1; fill:none" points="
  973.684,1486.45 973.684,47.2441 
  "/>
<polyline clip-path="url(#clip282)" style="stroke:#000000; stroke-width:2; stroke-opacity:0.1; fill:none" points="
  1254.78,1486.45 1254.78,47.2441 
  "/>
<polyline clip-path="url(#clip282)" style="stroke:#000000; stroke-width:2; stroke-opacity:0.1; fill:none" points="
  1535.88,1486.45 1535.88,47.2441 
  "/>
<polyline clip-path="url(#clip282)" style="stroke:#000000; stroke-width:2; stroke-opacity:0.1; fill:none" points="
  1816.98,1486.45 1816.98,47.2441 
  "/>
<polyline clip-path="url(#clip282)" style="stroke:#000000; stroke-width:2; stroke-opacity:0.1; fill:none" points="
  2098.08,1486.45 2098.08,47.2441 
  "/>
<polyline clip-path="url(#clip282)" style="stroke:#000000; stroke-width:2; stroke-opacity:0.1; fill:none" points="
  161.853,1399.32 2352.76,1399.32 
  "/>
<polyline clip-path="url(#clip282)" style="stroke:#000000; stroke-width:2; stroke-opacity:0.1; fill:none" points="
  161.853,1118.22 2352.76,1118.22 
  "/>
<polyline clip-path="url(#clip282)" style="stroke:#000000; stroke-width:2; stroke-opacity:0.1; fill:none" points="
  161.853,837.121 2352.76,837.121 
  "/>
<polyline clip-path="url(#clip282)" style="stroke:#000000; stroke-width:2; stroke-opacity:0.1; fill:none" points="
  161.853,556.022 2352.76,556.022 
  "/>
<polyline clip-path="url(#clip282)" style="stroke:#000000; stroke-width:2; stroke-opacity:0.1; fill:none" points="
  161.853,274.924 2352.76,274.924 
  "/>
<polyline clip-path="url(#clip280)" style="stroke:#000000; stroke-width:4; stroke-opacity:1; fill:none" points="
  161.853,1486.45 2352.76,1486.45 
  "/>
<polyline clip-path="url(#clip280)" style="stroke:#000000; stroke-width:4; stroke-opacity:1; fill:none" points="
  161.853,1486.45 161.853,47.2441 
  "/>
<polyline clip-path="url(#clip280)" style="stroke:#000000; stroke-width:4; stroke-opacity:1; fill:none" points="
  411.487,1486.45 411.487,1469.18 
  "/>
<polyline clip-path="url(#clip280)" style="stroke:#000000; stroke-width:4; stroke-opacity:1; fill:none" points="
  692.585,1486.45 692.585,1469.18 
  "/>
<polyline clip-path="url(#clip280)" style="stroke:#000000; stroke-width:4; stroke-opacity:1; fill:none" points="
  973.684,1486.45 973.684,1469.18 
  "/>
<polyline clip-path="url(#clip280)" style="stroke:#000000; stroke-width:4; stroke-opacity:1; fill:none" points="
  1254.78,1486.45 1254.78,1469.18 
  "/>
<polyline clip-path="url(#clip280)" style="stroke:#000000; stroke-width:4; stroke-opacity:1; fill:none" points="
  1535.88,1486.45 1535.88,1469.18 
  "/>
<polyline clip-path="url(#clip280)" style="stroke:#000000; stroke-width:4; stroke-opacity:1; fill:none" points="
  1816.98,1486.45 1816.98,1469.18 
  "/>
<polyline clip-path="url(#clip280)" style="stroke:#000000; stroke-width:4; stroke-opacity:1; fill:none" points="
  2098.08,1486.45 2098.08,1469.18 
  "/>
<polyline clip-path="url(#clip280)" style="stroke:#000000; stroke-width:4; stroke-opacity:1; fill:none" points="
  161.853,1399.32 188.144,1399.32 
  "/>
<polyline clip-path="url(#clip280)" style="stroke:#000000; stroke-width:4; stroke-opacity:1; fill:none" points="
  161.853,1118.22 188.144,1118.22 
  "/>
<polyline clip-path="url(#clip280)" style="stroke:#000000; stroke-width:4; stroke-opacity:1; fill:none" points="
  161.853,837.121 188.144,837.121 
  "/>
<polyline clip-path="url(#clip280)" style="stroke:#000000; stroke-width:4; stroke-opacity:1; fill:none" points="
  161.853,556.022 188.144,556.022 
  "/>
<polyline clip-path="url(#clip280)" style="stroke:#000000; stroke-width:4; stroke-opacity:1; fill:none" points="
  161.853,274.924 188.144,274.924 
  "/>
<path clip-path="url(#clip280)" d="M 0 0 M374.057 1525.04 L386.534 1525.04 L386.534 1528.83 L374.057 1528.83 L374.057 1525.04 Z" fill="#000000" fill-rule="evenodd" fill-opacity="1" /><path clip-path="url(#clip280)" d="M 0 0 M401.603 1508.44 Q397.992 1508.44 396.163 1512 Q394.358 1515.55 394.358 1522.67 Q394.358 1529.78 396.163 1533.35 Q397.992 1536.89 401.603 1536.89 Q405.237 1536.89 407.043 1533.35 Q408.872 1529.78 408.872 1522.67 Q408.872 1515.55 407.043 1512 Q405.237 1508.44 401.603 1508.44 M401.603 1504.73 Q407.413 1504.73 410.469 1509.34 Q413.548 1513.92 413.548 1522.67 Q413.548 1531.4 410.469 1536.01 Q407.413 1540.59 401.603 1540.59 Q395.793 1540.59 392.714 1536.01 Q389.659 1531.4 389.659 1522.67 Q389.659 1513.92 392.714 1509.34 Q395.793 1504.73 401.603 1504.73 Z" fill="#000000" fill-rule="evenodd" fill-opacity="1" /><path clip-path="url(#clip280)" d="M 0 0 M418.617 1534.04 L423.501 1534.04 L423.501 1539.92 L418.617 1539.92 L418.617 1534.04 Z" fill="#000000" fill-rule="evenodd" fill-opacity="1" /><path clip-path="url(#clip280)" d="M 0 0 M432.598 1535.98 L448.918 1535.98 L448.918 1539.92 L426.973 1539.92 L426.973 1535.98 Q429.635 1533.23 434.219 1528.6 Q438.825 1523.95 440.006 1522.61 Q442.251 1520.08 443.131 1518.35 Q444.034 1516.59 444.034 1514.9 Q444.034 1512.14 442.089 1510.41 Q440.168 1508.67 437.066 1508.67 Q434.867 1508.67 432.413 1509.43 Q429.983 1510.2 427.205 1511.75 L427.205 1507.03 Q430.029 1505.89 432.483 1505.31 Q434.936 1504.73 436.973 1504.73 Q442.344 1504.73 445.538 1507.42 Q448.733 1510.11 448.733 1514.6 Q448.733 1516.73 447.922 1518.65 Q447.135 1520.54 445.029 1523.14 Q444.45 1523.81 441.348 1527.03 Q438.247 1530.22 432.598 1535.98 Z" fill="#000000" fill-rule="evenodd" fill-opacity="1" /><path clip-path="url(#clip280)" d="M 0 0 M674.102 1508.44 Q670.491 1508.44 668.662 1512 Q666.856 1515.55 666.856 1522.67 Q666.856 1529.78 668.662 1533.35 Q670.491 1536.89 674.102 1536.89 Q677.736 1536.89 679.542 1533.35 Q681.37 1529.78 681.37 1522.67 Q681.37 1515.55 679.542 1512 Q677.736 1508.44 674.102 1508.44 M674.102 1504.73 Q679.912 1504.73 682.967 1509.34 Q686.046 1513.92 686.046 1522.67 Q686.046 1531.4 682.967 1536.01 Q679.912 1540.59 674.102 1540.59 Q668.292 1540.59 665.213 1536.01 Q662.157 1531.4 662.157 1522.67 Q662.157 1513.92 665.213 1509.34 Q668.292 1504.73 674.102 1504.73 Z" fill="#000000" fill-rule="evenodd" fill-opacity="1" /><path clip-path="url(#clip280)" d="M 0 0 M691.116 1534.04 L696 1534.04 L696 1539.92 L691.116 1539.92 L691.116 1534.04 Z" fill="#000000" fill-rule="evenodd" fill-opacity="1" /><path clip-path="url(#clip280)" d="M 0 0 M711.069 1508.44 Q707.458 1508.44 705.629 1512 Q703.824 1515.55 703.824 1522.67 Q703.824 1529.78 705.629 1533.35 Q707.458 1536.89 711.069 1536.89 Q714.703 1536.89 716.509 1533.35 Q718.338 1529.78 718.338 1522.67 Q718.338 1515.55 716.509 1512 Q714.703 1508.44 711.069 1508.44 M711.069 1504.73 Q716.879 1504.73 719.935 1509.34 Q723.014 1513.92 723.014 1522.67 Q723.014 1531.4 719.935 1536.01 Q716.879 1540.59 711.069 1540.59 Q705.259 1540.59 702.18 1536.01 Q699.125 1531.4 699.125 1522.67 Q699.125 1513.92 702.18 1509.34 Q705.259 1504.73 711.069 1504.73 Z" fill="#000000" fill-rule="evenodd" fill-opacity="1" /><path clip-path="url(#clip280)" d="M 0 0 M955.998 1508.44 Q952.387 1508.44 950.559 1512 Q948.753 1515.55 948.753 1522.67 Q948.753 1529.78 950.559 1533.35 Q952.387 1536.89 955.998 1536.89 Q959.633 1536.89 961.438 1533.35 Q963.267 1529.78 963.267 1522.67 Q963.267 1515.55 961.438 1512 Q959.633 1508.44 955.998 1508.44 M955.998 1504.73 Q961.809 1504.73 964.864 1509.34 Q967.943 1513.92 967.943 1522.67 Q967.943 1531.4 964.864 1536.01 Q961.809 1540.59 955.998 1540.59 Q950.188 1540.59 947.11 1536.01 Q944.054 1531.4 944.054 1522.67 Q944.054 1513.92 947.11 1509.34 Q950.188 1504.73 955.998 1504.73 Z" fill="#000000" fill-rule="evenodd" fill-opacity="1" /><path clip-path="url(#clip280)" d="M 0 0 M973.012 1534.04 L977.896 1534.04 L977.896 1539.92 L973.012 1539.92 L973.012 1534.04 Z" fill="#000000" fill-rule="evenodd" fill-opacity="1" /><path clip-path="url(#clip280)" d="M 0 0 M986.994 1535.98 L1003.31 1535.98 L1003.31 1539.92 L981.369 1539.92 L981.369 1535.98 Q984.031 1533.23 988.614 1528.6 Q993.22 1523.95 994.401 1522.61 Q996.646 1520.08 997.526 1518.35 Q998.429 1516.59 998.429 1514.9 Q998.429 1512.14 996.484 1510.41 Q994.563 1508.67 991.461 1508.67 Q989.262 1508.67 986.808 1509.43 Q984.378 1510.2 981.6 1511.75 L981.6 1507.03 Q984.424 1505.89 986.878 1505.31 Q989.332 1504.73 991.369 1504.73 Q996.739 1504.73 999.933 1507.42 Q1003.13 1510.11 1003.13 1514.6 Q1003.13 1516.73 1002.32 1518.65 Q1001.53 1520.54 999.424 1523.14 Q998.845 1523.81 995.744 1527.03 Q992.642 1530.22 986.994 1535.98 Z" fill="#000000" fill-rule="evenodd" fill-opacity="1" /><path clip-path="url(#clip280)" d="M 0 0 M1236.05 1508.44 Q1232.44 1508.44 1230.62 1512 Q1228.81 1515.55 1228.81 1522.67 Q1228.81 1529.78 1230.62 1533.35 Q1232.44 1536.89 1236.05 1536.89 Q1239.69 1536.89 1241.49 1533.35 Q1243.32 1529.78 1243.32 1522.67 Q1243.32 1515.55 1241.49 1512 Q1239.69 1508.44 1236.05 1508.44 M1236.05 1504.73 Q1241.87 1504.73 1244.92 1509.34 Q1248 1513.92 1248 1522.67 Q1248 1531.4 1244.92 1536.01 Q1241.87 1540.59 1236.05 1540.59 Q1230.24 1540.59 1227.17 1536.01 Q1224.11 1531.4 1224.11 1522.67 Q1224.11 1513.92 1227.17 1509.34 Q1230.24 1504.73 1236.05 1504.73 Z" fill="#000000" fill-rule="evenodd" fill-opacity="1" /><path clip-path="url(#clip280)" d="M 0 0 M1253.07 1534.04 L1257.95 1534.04 L1257.95 1539.92 L1253.07 1539.92 L1253.07 1534.04 Z" fill="#000000" fill-rule="evenodd" fill-opacity="1" /><path clip-path="url(#clip280)" d="M 0 0 M1275.87 1509.43 L1264.06 1527.88 L1275.87 1527.88 L1275.87 1509.43 M1274.64 1505.36 L1280.52 1505.36 L1280.52 1527.88 L1285.45 1527.88 L1285.45 1531.77 L1280.52 1531.77 L1280.52 1539.92 L1275.87 1539.92 L1275.87 1531.77 L1260.27 1531.77 L1260.27 1527.26 L1274.64 1505.36 Z" fill="#000000" fill-rule="evenodd" fill-opacity="1" /><path clip-path="url(#clip280)" d="M 0 0 M1517.31 1508.44 Q1513.7 1508.44 1511.88 1512 Q1510.07 1515.55 1510.07 1522.67 Q1510.07 1529.78 1511.88 1533.35 Q1513.7 1536.89 1517.31 1536.89 Q1520.95 1536.89 1522.75 1533.35 Q1524.58 1529.78 1524.58 1522.67 Q1524.58 1515.55 1522.75 1512 Q1520.95 1508.44 1517.31 1508.44 M1517.31 1504.73 Q1523.13 1504.73 1526.18 1509.34 Q1529.26 1513.92 1529.26 1522.67 Q1529.26 1531.4 1526.18 1536.01 Q1523.13 1540.59 1517.31 1540.59 Q1511.5 1540.59 1508.43 1536.01 Q1505.37 1531.4 1505.37 1522.67 Q1505.37 1513.92 1508.43 1509.34 Q1511.5 1504.73 1517.31 1504.73 Z" fill="#000000" fill-rule="evenodd" fill-opacity="1" /><path clip-path="url(#clip280)" d="M 0 0 M1534.33 1534.04 L1539.21 1534.04 L1539.21 1539.92 L1534.33 1539.92 L1534.33 1534.04 Z" fill="#000000" fill-rule="evenodd" fill-opacity="1" /><path clip-path="url(#clip280)" d="M 0 0 M1554.86 1520.78 Q1551.71 1520.78 1549.86 1522.93 Q1548.03 1525.08 1548.03 1528.83 Q1548.03 1532.56 1549.86 1534.73 Q1551.71 1536.89 1554.86 1536.89 Q1558.01 1536.89 1559.84 1534.73 Q1561.69 1532.56 1561.69 1528.83 Q1561.69 1525.08 1559.84 1522.93 Q1558.01 1520.78 1554.86 1520.78 M1564.14 1506.12 L1564.14 1510.38 Q1562.38 1509.55 1560.58 1509.11 Q1558.8 1508.67 1557.04 1508.67 Q1552.41 1508.67 1549.95 1511.8 Q1547.52 1514.92 1547.18 1521.24 Q1548.54 1519.23 1550.6 1518.16 Q1552.66 1517.07 1555.14 1517.07 Q1560.35 1517.07 1563.36 1520.24 Q1566.39 1523.39 1566.39 1528.83 Q1566.39 1534.16 1563.24 1537.37 Q1560.09 1540.59 1554.86 1540.59 Q1548.87 1540.59 1545.69 1536.01 Q1542.52 1531.4 1542.52 1522.67 Q1542.52 1514.48 1546.41 1509.62 Q1550.3 1504.73 1556.85 1504.73 Q1558.61 1504.73 1560.39 1505.08 Q1562.2 1505.43 1564.14 1506.12 Z" fill="#000000" fill-rule="evenodd" fill-opacity="1" /><path clip-path="url(#clip280)" d="M 0 0 M1798.54 1508.44 Q1794.93 1508.44 1793.1 1512 Q1791.3 1515.55 1791.3 1522.67 Q1791.3 1529.78 1793.1 1533.35 Q1794.93 1536.89 1798.54 1536.89 Q1802.17 1536.89 1803.98 1533.35 Q1805.81 1529.78 1805.81 1522.67 Q1805.81 1515.55 1803.98 1512 Q1802.17 1508.44 1798.54 1508.44 M1798.54 1504.73 Q1804.35 1504.73 1807.41 1509.34 Q1810.48 1513.92 1810.48 1522.67 Q1810.48 1531.4 1807.41 1536.01 Q1804.35 1540.59 1798.54 1540.59 Q1792.73 1540.59 1789.65 1536.01 Q1786.6 1531.4 1786.6 1522.67 Q1786.6 1513.92 1789.65 1509.34 Q1792.73 1504.73 1798.54 1504.73 Z" fill="#000000" fill-rule="evenodd" fill-opacity="1" /><path clip-path="url(#clip280)" d="M 0 0 M1815.55 1534.04 L1820.44 1534.04 L1820.44 1539.92 L1815.55 1539.92 L1815.55 1534.04 Z" fill="#000000" fill-rule="evenodd" fill-opacity="1" /><path clip-path="url(#clip280)" d="M 0 0 M1835.51 1523.51 Q1832.17 1523.51 1830.25 1525.29 Q1828.36 1527.07 1828.36 1530.2 Q1828.36 1533.32 1830.25 1535.11 Q1832.17 1536.89 1835.51 1536.89 Q1838.84 1536.89 1840.76 1535.11 Q1842.68 1533.3 1842.68 1530.2 Q1842.68 1527.07 1840.76 1525.29 Q1838.86 1523.51 1835.51 1523.51 M1830.83 1521.52 Q1827.82 1520.78 1826.13 1518.72 Q1824.47 1516.66 1824.47 1513.69 Q1824.47 1509.55 1827.41 1507.14 Q1830.37 1504.73 1835.51 1504.73 Q1840.67 1504.73 1843.61 1507.14 Q1846.55 1509.55 1846.55 1513.69 Q1846.55 1516.66 1844.86 1518.72 Q1843.19 1520.78 1840.21 1521.52 Q1843.59 1522.3 1845.46 1524.6 Q1847.36 1526.89 1847.36 1530.2 Q1847.36 1535.22 1844.28 1537.91 Q1841.23 1540.59 1835.51 1540.59 Q1829.79 1540.59 1826.71 1537.91 Q1823.66 1535.22 1823.66 1530.2 Q1823.66 1526.89 1825.55 1524.6 Q1827.45 1522.3 1830.83 1521.52 M1829.12 1514.13 Q1829.12 1516.82 1830.79 1518.32 Q1832.48 1519.83 1835.51 1519.83 Q1838.52 1519.83 1840.21 1518.32 Q1841.92 1516.82 1841.92 1514.13 Q1841.92 1511.45 1840.21 1509.94 Q1838.52 1508.44 1835.51 1508.44 Q1832.48 1508.44 1830.79 1509.94 Q1829.12 1511.45 1829.12 1514.13 Z" fill="#000000" fill-rule="evenodd" fill-opacity="1" /><path clip-path="url(#clip280)" d="M 0 0 M2069.97 1535.98 L2077.61 1535.98 L2077.61 1509.62 L2069.3 1511.29 L2069.3 1507.03 L2077.57 1505.36 L2082.24 1505.36 L2082.24 1535.98 L2089.88 1535.98 L2089.88 1539.92 L2069.97 1539.92 L2069.97 1535.98 Z" fill="#000000" fill-rule="evenodd" fill-opacity="1" /><path clip-path="url(#clip280)" d="M 0 0 M2094.95 1534.04 L2099.84 1534.04 L2099.84 1539.92 L2094.95 1539.92 L2094.95 1534.04 Z" fill="#000000" fill-rule="evenodd" fill-opacity="1" /><path clip-path="url(#clip280)" d="M 0 0 M2114.9 1508.44 Q2111.29 1508.44 2109.46 1512 Q2107.66 1515.55 2107.66 1522.67 Q2107.66 1529.78 2109.46 1533.35 Q2111.29 1536.89 2114.9 1536.89 Q2118.54 1536.89 2120.34 1533.35 Q2122.17 1529.78 2122.17 1522.67 Q2122.17 1515.55 2120.34 1512 Q2118.54 1508.44 2114.9 1508.44 M2114.9 1504.73 Q2120.71 1504.73 2123.77 1509.34 Q2126.85 1513.92 2126.85 1522.67 Q2126.85 1531.4 2123.77 1536.01 Q2120.71 1540.59 2114.9 1540.59 Q2109.09 1540.59 2106.02 1536.01 Q2102.96 1531.4 2102.96 1522.67 Q2102.96 1513.92 2106.02 1509.34 Q2109.09 1504.73 2114.9 1504.73 Z" fill="#000000" fill-rule="evenodd" fill-opacity="1" /><path clip-path="url(#clip280)" d="M 0 0 M62.9921 1401.71 L75.4689 1401.71 L75.4689 1405.51 L62.9921 1405.51 L62.9921 1401.71 Z" fill="#000000" fill-rule="evenodd" fill-opacity="1" /><path clip-path="url(#clip280)" d="M 0 0 M90.5383 1385.12 Q86.9272 1385.12 85.0985 1388.68 Q83.2929 1392.22 83.2929 1399.35 Q83.2929 1406.46 85.0985 1410.02 Q86.9272 1413.56 90.5383 1413.56 Q94.1725 1413.56 95.9781 1410.02 Q97.8068 1406.46 97.8068 1399.35 Q97.8068 1392.22 95.9781 1388.68 Q94.1725 1385.12 90.5383 1385.12 M90.5383 1381.41 Q96.3484 1381.41 99.404 1386.02 Q102.483 1390.6 102.483 1399.35 Q102.483 1408.08 99.404 1412.68 Q96.3484 1417.27 90.5383 1417.27 Q84.7281 1417.27 81.6494 1412.68 Q78.5939 1408.08 78.5939 1399.35 Q78.5939 1390.6 81.6494 1386.02 Q84.7281 1381.41 90.5383 1381.41 Z" fill="#000000" fill-rule="evenodd" fill-opacity="1" /><path clip-path="url(#clip280)" d="M 0 0 M107.552 1410.72 L112.436 1410.72 L112.436 1416.6 L107.552 1416.6 L107.552 1410.72 Z" fill="#000000" fill-rule="evenodd" fill-opacity="1" /><path clip-path="url(#clip280)" d="M 0 0 M121.533 1412.66 L137.853 1412.66 L137.853 1416.6 L115.909 1416.6 L115.909 1412.66 Q118.571 1409.91 123.154 1405.28 Q127.76 1400.62 128.941 1399.28 Q131.186 1396.76 132.066 1395.02 Q132.969 1393.26 132.969 1391.57 Q132.969 1388.82 131.024 1387.08 Q129.103 1385.35 126.001 1385.35 Q123.802 1385.35 121.348 1386.11 Q118.918 1386.87 116.14 1388.43 L116.14 1383.7 Q118.964 1382.57 121.418 1381.99 Q123.871 1381.41 125.908 1381.41 Q131.279 1381.41 134.473 1384.1 Q137.668 1386.78 137.668 1391.27 Q137.668 1393.4 136.857 1395.32 Q136.07 1397.22 133.964 1399.81 Q133.385 1400.49 130.283 1403.7 Q127.182 1406.9 121.533 1412.66 Z" fill="#000000" fill-rule="evenodd" fill-opacity="1" /><path clip-path="url(#clip280)" d="M 0 0 M88.9411 1104.02 Q85.33 1104.02 83.5013 1107.58 Q81.6957 1111.12 81.6957 1118.25 Q81.6957 1125.36 83.5013 1128.92 Q85.33 1132.47 88.9411 1132.47 Q92.5753 1132.47 94.3808 1128.92 Q96.2095 1125.36 96.2095 1118.25 Q96.2095 1111.12 94.3808 1107.58 Q92.5753 1104.02 88.9411 1104.02 M88.9411 1100.31 Q94.7512 1100.31 97.8068 1104.92 Q100.885 1109.5 100.885 1118.25 Q100.885 1126.98 97.8068 1131.59 Q94.7512 1136.17 88.9411 1136.17 Q83.1309 1136.17 80.0522 1131.59 Q76.9967 1126.98 76.9967 1118.25 Q76.9967 1109.5 80.0522 1104.92 Q83.1309 1100.31 88.9411 1100.31 Z" fill="#000000" fill-rule="evenodd" fill-opacity="1" /><path clip-path="url(#clip280)" d="M 0 0 M105.955 1129.62 L110.839 1129.62 L110.839 1135.5 L105.955 1135.5 L105.955 1129.62 Z" fill="#000000" fill-rule="evenodd" fill-opacity="1" /><path clip-path="url(#clip280)" d="M 0 0 M125.908 1104.02 Q122.297 1104.02 120.469 1107.58 Q118.663 1111.12 118.663 1118.25 Q118.663 1125.36 120.469 1128.92 Q122.297 1132.47 125.908 1132.47 Q129.543 1132.47 131.348 1128.92 Q133.177 1125.36 133.177 1118.25 Q133.177 1111.12 131.348 1107.58 Q129.543 1104.02 125.908 1104.02 M125.908 1100.31 Q131.719 1100.31 134.774 1104.92 Q137.853 1109.5 137.853 1118.25 Q137.853 1126.98 134.774 1131.59 Q131.719 1136.17 125.908 1136.17 Q120.098 1136.17 117.02 1131.59 Q113.964 1126.98 113.964 1118.25 Q113.964 1109.5 117.02 1104.92 Q120.098 1100.31 125.908 1100.31 Z" fill="#000000" fill-rule="evenodd" fill-opacity="1" /><path clip-path="url(#clip280)" d="M 0 0 M90.5383 822.919 Q86.9272 822.919 85.0985 826.484 Q83.2929 830.026 83.2929 837.155 Q83.2929 844.262 85.0985 847.826 Q86.9272 851.368 90.5383 851.368 Q94.1725 851.368 95.9781 847.826 Q97.8068 844.262 97.8068 837.155 Q97.8068 830.026 95.9781 826.484 Q94.1725 822.919 90.5383 822.919 M90.5383 819.216 Q96.3484 819.216 99.404 823.822 Q102.483 828.405 102.483 837.155 Q102.483 845.882 99.404 850.488 Q96.3484 855.072 90.5383 855.072 Q84.7281 855.072 81.6494 850.488 Q78.5939 845.882 78.5939 837.155 Q78.5939 828.405 81.6494 823.822 Q84.7281 819.216 90.5383 819.216 Z" fill="#000000" fill-rule="evenodd" fill-opacity="1" /><path clip-path="url(#clip280)" d="M 0 0 M107.552 848.521 L112.436 848.521 L112.436 854.401 L107.552 854.401 L107.552 848.521 Z" fill="#000000" fill-rule="evenodd" fill-opacity="1" /><path clip-path="url(#clip280)" d="M 0 0 M121.533 850.465 L137.853 850.465 L137.853 854.401 L115.909 854.401 L115.909 850.465 Q118.571 847.711 123.154 843.081 Q127.76 838.428 128.941 837.086 Q131.186 834.563 132.066 832.827 Q132.969 831.067 132.969 829.377 Q132.969 826.623 131.024 824.887 Q129.103 823.151 126.001 823.151 Q123.802 823.151 121.348 823.915 Q118.918 824.678 116.14 826.229 L116.14 821.507 Q118.964 820.373 121.418 819.794 Q123.871 819.216 125.908 819.216 Q131.279 819.216 134.473 821.901 Q137.668 824.586 137.668 829.077 Q137.668 831.206 136.857 833.127 Q136.07 835.026 133.964 837.618 Q133.385 838.289 130.283 841.507 Q127.182 844.701 121.533 850.465 Z" fill="#000000" fill-rule="evenodd" fill-opacity="1" /><path clip-path="url(#clip280)" d="M 0 0 M88.455 541.821 Q84.8439 541.821 83.0152 545.386 Q81.2096 548.928 81.2096 556.057 Q81.2096 563.164 83.0152 566.728 Q84.8439 570.27 88.455 570.27 Q92.0892 570.27 93.8947 566.728 Q95.7234 563.164 95.7234 556.057 Q95.7234 548.928 93.8947 545.386 Q92.0892 541.821 88.455 541.821 M88.455 538.117 Q94.2651 538.117 97.3206 542.724 Q100.399 547.307 100.399 556.057 Q100.399 564.784 97.3206 569.39 Q94.2651 573.974 88.455 573.974 Q82.6448 573.974 79.5661 569.39 Q76.5106 564.784 76.5106 556.057 Q76.5106 547.307 79.5661 542.724 Q82.6448 538.117 88.455 538.117 Z" fill="#000000" fill-rule="evenodd" fill-opacity="1" /><path clip-path="url(#clip280)" d="M 0 0 M105.469 567.423 L110.353 567.423 L110.353 573.302 L105.469 573.302 L105.469 567.423 Z" fill="#000000" fill-rule="evenodd" fill-opacity="1" /><path clip-path="url(#clip280)" d="M 0 0 M128.27 542.816 L116.464 561.265 L128.27 561.265 L128.27 542.816 M127.043 538.742 L132.922 538.742 L132.922 561.265 L137.853 561.265 L137.853 565.154 L132.922 565.154 L132.922 573.302 L128.27 573.302 L128.27 565.154 L112.668 565.154 L112.668 560.64 L127.043 538.742 Z" fill="#000000" fill-rule="evenodd" fill-opacity="1" /><path clip-path="url(#clip280)" d="M 0 0 M88.779 260.723 Q85.1679 260.723 83.3392 264.288 Q81.5337 267.829 81.5337 274.959 Q81.5337 282.066 83.3392 285.63 Q85.1679 289.172 88.779 289.172 Q92.4133 289.172 94.2188 285.63 Q96.0475 282.066 96.0475 274.959 Q96.0475 267.829 94.2188 264.288 Q92.4133 260.723 88.779 260.723 M88.779 257.019 Q94.5892 257.019 97.6447 261.626 Q100.723 266.209 100.723 274.959 Q100.723 283.686 97.6447 288.292 Q94.5892 292.876 88.779 292.876 Q82.9689 292.876 79.8902 288.292 Q76.8346 283.686 76.8346 274.959 Q76.8346 266.209 79.8902 261.626 Q82.9689 257.019 88.779 257.019 Z" fill="#000000" fill-rule="evenodd" fill-opacity="1" /><path clip-path="url(#clip280)" d="M 0 0 M105.793 286.325 L110.677 286.325 L110.677 292.204 L105.793 292.204 L105.793 286.325 Z" fill="#000000" fill-rule="evenodd" fill-opacity="1" /><path clip-path="url(#clip280)" d="M 0 0 M126.325 273.061 Q123.177 273.061 121.325 275.214 Q119.496 277.366 119.496 281.116 Q119.496 284.843 121.325 287.019 Q123.177 289.172 126.325 289.172 Q129.473 289.172 131.302 287.019 Q133.154 284.843 133.154 281.116 Q133.154 277.366 131.302 275.214 Q129.473 273.061 126.325 273.061 M135.607 258.408 L135.607 262.667 Q133.848 261.834 132.043 261.394 Q130.26 260.955 128.501 260.955 Q123.871 260.955 121.418 264.08 Q118.987 267.204 118.64 273.524 Q120.006 271.51 122.066 270.445 Q124.126 269.357 126.603 269.357 Q131.811 269.357 134.82 272.529 Q137.853 275.677 137.853 281.116 Q137.853 286.44 134.705 289.658 Q131.557 292.876 126.325 292.876 Q120.33 292.876 117.159 288.292 Q113.987 283.686 113.987 274.959 Q113.987 266.765 117.876 261.904 Q121.765 257.019 128.316 257.019 Q130.075 257.019 131.857 257.367 Q133.663 257.714 135.607 258.408 Z" fill="#000000" fill-rule="evenodd" fill-opacity="1" /><path clip-path="url(#clip282)" d="
M1676.43 274.924 L1676.43 556.022 L973.684 1118.22 L1676.43 274.924  Z
  " fill="#008000" fill-rule="evenodd" fill-opacity="0.2"/>
<polyline clip-path="url(#clip282)" style="stroke:#000000; stroke-width:4; stroke-opacity:1; fill:none" points="
  1676.43,274.924 1676.43,556.022 973.684,1118.22 1676.43,274.924 
  "/>
<circle clip-path="url(#clip282)" cx="1676.43" cy="274.924" r="14" fill="#ff0000" fill-rule="evenodd" fill-opacity="1" stroke="#000000" stroke-opacity="1" stroke-width="3.2"/>
<circle clip-path="url(#clip282)" cx="1676.43" cy="556.022" r="14" fill="#ff0000" fill-rule="evenodd" fill-opacity="1" stroke="#000000" stroke-opacity="1" stroke-width="3.2"/>
<circle clip-path="url(#clip282)" cx="973.684" cy="1118.22" r="14" fill="#ff0000" fill-rule="evenodd" fill-opacity="1" stroke="#000000" stroke-opacity="1" stroke-width="3.2"/>
<path clip-path="url(#clip280)" d="M 0 0 M1676.43 204.362 L1665.33 234.46 L1687.57 234.46 L1676.43 204.362 M1671.81 196.3 L1681.09 196.3 L1704.14 256.78 L1695.63 256.78 L1690.12 241.265 L1662.86 241.265 L1657.35 256.78 L1648.72 256.78 L1671.81 196.3 Z" fill="#000000" fill-rule="evenodd" fill-opacity="1" /><path clip-path="url(#clip280)" d="M 0 0 M1663.16 508.995 L1663.16 531.154 L1676.29 531.154 Q1682.89 531.154 1686.05 528.44 Q1689.25 525.685 1689.25 520.054 Q1689.25 514.383 1686.05 511.71 Q1682.89 508.995 1676.29 508.995 L1663.16 508.995 M1663.16 484.123 L1663.16 502.352 L1675.27 502.352 Q1681.27 502.352 1684.19 500.124 Q1687.14 497.855 1687.14 493.237 Q1687.14 488.66 1684.19 486.391 Q1681.27 484.123 1675.27 484.123 L1663.16 484.123 M1654.98 477.398 L1675.88 477.398 Q1685.24 477.398 1690.3 481.287 Q1695.37 485.176 1695.37 492.346 Q1695.37 497.896 1692.77 501.177 Q1690.18 504.458 1685.16 505.269 Q1691.19 506.565 1694.52 510.697 Q1697.88 514.788 1697.88 520.946 Q1697.88 529.047 1692.37 533.463 Q1686.86 537.878 1676.69 537.878 L1654.98 537.878 L1654.98 477.398 Z" fill="#000000" fill-rule="evenodd" fill-opacity="1" /><path clip-path="url(#clip280)" d="M 0 0 M998.07 1044.25 L998.07 1052.88 Q993.938 1049.03 989.239 1047.13 Q984.58 1045.23 979.314 1045.23 Q968.944 1045.23 963.435 1051.59 Q957.926 1057.9 957.926 1069.9 Q957.926 1081.85 963.435 1088.21 Q968.944 1094.52 979.314 1094.52 Q984.58 1094.52 989.239 1092.62 Q993.938 1090.72 998.07 1086.87 L998.07 1095.42 Q993.776 1098.33 988.955 1099.79 Q984.175 1101.25 978.828 1101.25 Q965.096 1101.25 957.196 1092.86 Q949.297 1084.44 949.297 1069.9 Q949.297 1055.31 957.196 1046.93 Q965.096 1038.5 978.828 1038.5 Q984.256 1038.5 989.036 1039.96 Q993.857 1041.38 998.07 1044.25 Z" fill="#000000" fill-rule="evenodd" fill-opacity="1" /><path clip-path="url(#clip282)" d="
M1676.43 274.924 L1676.43 556.022 L1919.87 415.473 L1676.43 274.924  Z
  " fill="#ffc0cb" fill-rule="evenodd" fill-opacity="0.7"/>
<polyline clip-path="url(#clip282)" style="stroke:#000000; stroke-width:4; stroke-opacity:1; fill:none" points="
  1676.43,274.924 1676.43,556.022 1919.87,415.473 1676.43,274.924 
  "/>
<path clip-path="url(#clip282)" d="
M973.684 1118.22 L1676.43 274.924 L594.742 87.9763 L973.684 1118.22  Z
  " fill="#ffc0cb" fill-rule="evenodd" fill-opacity="0.7"/>
<polyline clip-path="url(#clip282)" style="stroke:#000000; stroke-width:4; stroke-opacity:1; fill:none" points="
  973.684,1118.22 1676.43,274.924 594.742,87.9763 973.684,1118.22 
  "/>
<path clip-path="url(#clip282)" d="
M1676.43 556.022 L973.684 1118.22 L1811.93 1445.72 L1676.43 556.022  Z
  " fill="#ffc0cb" fill-rule="evenodd" fill-opacity="0.7"/>
<polyline clip-path="url(#clip282)" style="stroke:#000000; stroke-width:4; stroke-opacity:1; fill:none" points="
  1676.43,556.022 973.684,1118.22 1811.93,1445.72 1676.43,556.022 
  "/>
<path clip-path="url(#clip282)" d="
M1757.57 415.473 L1081.62 493.706 L1487.35 1039.99 L1757.57 415.473  Z
  " fill="#0000ff" fill-rule="evenodd" fill-opacity="0.7"/>
<polyline clip-path="url(#clip282)" style="stroke:#000000; stroke-width:4; stroke-opacity:1; fill:none" points="
  1757.57,415.473 1081.62,493.706 1487.35,1039.99 1757.57,415.473 
  "/>
</svg>
