<?xml version="1.0" encoding="utf-8"?>
<svg xmlns="http://www.w3.org/2000/svg" xmlns:xlink="http://www.w3.org/1999/xlink" width="600" height="400" viewBox="0 0 2400 1600">
<defs>
  <clipPath id="clip660">
    <rect x="0" y="0" width="2400" height="1600"/>
  </clipPath>
</defs>
<path clip-path="url(#clip660)" d="
M0 1600 L2400 1600 L2400 0 L0 0  Z
  " fill="#ffffff" fill-rule="evenodd" fill-opacity="1"/>
<defs>
  <clipPath id="clip661">
    <rect x="480" y="0" width="1681" height="1600"/>
  </clipPath>
</defs>
<path clip-path="url(#clip660)" d="
M174.862 1486.45 L2352.76 1486.45 L2352.76 47.2441 L174.862 47.2441  Z
  " fill="#ffffff" fill-rule="evenodd" fill-opacity="1"/>
<defs>
  <clipPath id="clip662">
    <rect x="174" y="47" width="2179" height="1440"/>
  </clipPath>
</defs>
<polyline clip-path="url(#clip662)" style="stroke:#000000; stroke-width:2; stroke-opacity:0.1; fill:none" points="
  316.513,1486.45 316.513,47.2441 
  "/>
<polyline clip-path="url(#clip662)" style="stroke:#000000; stroke-width:2; stroke-opacity:0.1; fill:none" points="
  922.434,1486.45 922.434,47.2441 
  "/>
<polyline clip-path="url(#clip662)" style="stroke:#000000; stroke-width:2; stroke-opacity:0.1; fill:none" points="
  1528.36,1486.45 1528.36,47.2441 
  "/>
<polyline clip-path="url(#clip662)" style="stroke:#000000; stroke-width:2; stroke-opacity:0.1; fill:none" points="
  2134.28,1486.45 2134.28,47.2441 
  "/>
<polyline clip-path="url(#clip662)" style="stroke:#000000; stroke-width:2; stroke-opacity:0.1; fill:none" points="
  174.862,1362.47 2352.76,1362.47 
  "/>
<polyline clip-path="url(#clip662)" style="stroke:#000000; stroke-width:2; stroke-opacity:0.1; fill:none" points="
  174.862,1059.51 2352.76,1059.51 
  "/>
<polyline clip-path="url(#clip662)" style="stroke:#000000; stroke-width:2; stroke-opacity:0.1; fill:none" points="
  174.862,756.553 2352.76,756.553 
  "/>
<polyline clip-path="url(#clip662)" style="stroke:#000000; stroke-width:2; stroke-opacity:0.1; fill:none" points="
  174.862,453.592 2352.76,453.592 
  "/>
<polyline clip-path="url(#clip662)" style="stroke:#000000; stroke-width:2; stroke-opacity:0.1; fill:none" points="
  174.862,150.632 2352.76,150.632 
  "/>
<polyline clip-path="url(#clip660)" style="stroke:#000000; stroke-width:4; stroke-opacity:1; fill:none" points="
  174.862,1486.45 2352.76,1486.45 
  "/>
<polyline clip-path="url(#clip660)" style="stroke:#000000; stroke-width:4; stroke-opacity:1; fill:none" points="
  174.862,1486.45 174.862,47.2441 
  "/>
<polyline clip-path="url(#clip660)" style="stroke:#000000; stroke-width:4; stroke-opacity:1; fill:none" points="
  316.513,1486.45 316.513,1469.18 
  "/>
<polyline clip-path="url(#clip660)" style="stroke:#000000; stroke-width:4; stroke-opacity:1; fill:none" points="
  922.434,1486.45 922.434,1469.18 
  "/>
<polyline clip-path="url(#clip660)" style="stroke:#000000; stroke-width:4; stroke-opacity:1; fill:none" points="
  1528.36,1486.45 1528.36,1469.18 
  "/>
<polyline clip-path="url(#clip660)" style="stroke:#000000; stroke-width:4; stroke-opacity:1; fill:none" points="
  2134.28,1486.45 2134.28,1469.18 
  "/>
<polyline clip-path="url(#clip660)" style="stroke:#000000; stroke-width:4; stroke-opacity:1; fill:none" points="
  174.862,1362.47 200.997,1362.47 
  "/>
<polyline clip-path="url(#clip660)" style="stroke:#000000; stroke-width:4; stroke-opacity:1; fill:none" points="
  174.862,1059.51 200.997,1059.51 
  "/>
<polyline clip-path="url(#clip660)" style="stroke:#000000; stroke-width:4; stroke-opacity:1; fill:none" points="
  174.862,756.553 200.997,756.553 
  "/>
<polyline clip-path="url(#clip660)" style="stroke:#000000; stroke-width:4; stroke-opacity:1; fill:none" points="
  174.862,453.592 200.997,453.592 
  "/>
<polyline clip-path="url(#clip660)" style="stroke:#000000; stroke-width:4; stroke-opacity:1; fill:none" points="
  174.862,150.632 200.997,150.632 
  "/>
<path clip-path="url(#clip660)" d="M 0 0 M278.782 1525.04 L291.258 1525.04 L291.258 1528.83 L278.782 1528.83 L278.782 1525.04 Z" fill="#000000" fill-rule="evenodd" fill-opacity="1" /><path clip-path="url(#clip660)" d="M 0 0 M306.328 1508.44 Q302.717 1508.44 300.888 1512 Q299.082 1515.55 299.082 1522.67 Q299.082 1529.78 300.888 1533.35 Q302.717 1536.89 306.328 1536.89 Q309.962 1536.89 311.768 1533.35 Q313.596 1529.78 313.596 1522.67 Q313.596 1515.55 311.768 1512 Q309.962 1508.44 306.328 1508.44 M306.328 1504.73 Q312.138 1504.73 315.194 1509.34 Q318.272 1513.92 318.272 1522.67 Q318.272 1531.4 315.194 1536.01 Q312.138 1540.59 306.328 1540.59 Q300.518 1540.59 297.439 1536.01 Q294.383 1531.4 294.383 1522.67 Q294.383 1513.92 297.439 1509.34 Q300.518 1504.73 306.328 1504.73 Z" fill="#000000" fill-rule="evenodd" fill-opacity="1" /><path clip-path="url(#clip660)" d="M 0 0 M323.342 1534.04 L328.226 1534.04 L328.226 1539.92 L323.342 1539.92 L323.342 1534.04 Z" fill="#000000" fill-rule="evenodd" fill-opacity="1" /><path clip-path="url(#clip660)" d="M 0 0 M333.342 1505.36 L351.698 1505.36 L351.698 1509.3 L337.624 1509.3 L337.624 1517.77 Q338.642 1517.42 339.661 1517.26 Q340.679 1517.07 341.698 1517.07 Q347.485 1517.07 350.865 1520.24 Q354.244 1523.42 354.244 1528.83 Q354.244 1534.41 350.772 1537.51 Q347.3 1540.59 340.98 1540.59 Q338.804 1540.59 336.536 1540.22 Q334.291 1539.85 331.883 1539.11 L331.883 1534.41 Q333.967 1535.54 336.189 1536.1 Q338.411 1536.66 340.888 1536.66 Q344.892 1536.66 347.23 1534.55 Q349.568 1532.44 349.568 1528.83 Q349.568 1525.22 347.23 1523.11 Q344.892 1521.01 340.888 1521.01 Q339.013 1521.01 337.138 1521.42 Q335.286 1521.84 333.342 1522.72 L333.342 1505.36 Z" fill="#000000" fill-rule="evenodd" fill-opacity="1" /><path clip-path="url(#clip660)" d="M 0 0 M903.951 1508.44 Q900.34 1508.44 898.511 1512 Q896.705 1515.55 896.705 1522.67 Q896.705 1529.78 898.511 1533.35 Q900.34 1536.89 903.951 1536.89 Q907.585 1536.89 909.39 1533.35 Q911.219 1529.78 911.219 1522.67 Q911.219 1515.55 909.39 1512 Q907.585 1508.44 903.951 1508.44 M903.951 1504.73 Q909.761 1504.73 912.816 1509.34 Q915.895 1513.92 915.895 1522.67 Q915.895 1531.4 912.816 1536.01 Q909.761 1540.59 903.951 1540.59 Q898.141 1540.59 895.062 1536.01 Q892.006 1531.4 892.006 1522.67 Q892.006 1513.92 895.062 1509.34 Q898.141 1504.73 903.951 1504.73 Z" fill="#000000" fill-rule="evenodd" fill-opacity="1" /><path clip-path="url(#clip660)" d="M 0 0 M920.964 1534.04 L925.849 1534.04 L925.849 1539.92 L920.964 1539.92 L920.964 1534.04 Z" fill="#000000" fill-rule="evenodd" fill-opacity="1" /><path clip-path="url(#clip660)" d="M 0 0 M940.918 1508.44 Q937.307 1508.44 935.478 1512 Q933.673 1515.55 933.673 1522.67 Q933.673 1529.78 935.478 1533.35 Q937.307 1536.89 940.918 1536.89 Q944.552 1536.89 946.358 1533.35 Q948.187 1529.78 948.187 1522.67 Q948.187 1515.55 946.358 1512 Q944.552 1508.44 940.918 1508.44 M940.918 1504.73 Q946.728 1504.73 949.784 1509.34 Q952.862 1513.92 952.862 1522.67 Q952.862 1531.4 949.784 1536.01 Q946.728 1540.59 940.918 1540.59 Q935.108 1540.59 932.029 1536.01 Q928.974 1531.4 928.974 1522.67 Q928.974 1513.92 932.029 1509.34 Q935.108 1504.73 940.918 1504.73 Z" fill="#000000" fill-rule="evenodd" fill-opacity="1" /><path clip-path="url(#clip660)" d="M 0 0 M1510.37 1508.44 Q1506.76 1508.44 1504.93 1512 Q1503.12 1515.55 1503.12 1522.67 Q1503.12 1529.78 1504.93 1533.35 Q1506.76 1536.89 1510.37 1536.89 Q1514 1536.89 1515.81 1533.35 Q1517.64 1529.78 1517.64 1522.67 Q1517.64 1515.55 1515.81 1512 Q1514 1508.44 1510.37 1508.44 M1510.37 1504.73 Q1516.18 1504.73 1519.24 1509.34 Q1522.31 1513.92 1522.31 1522.67 Q1522.31 1531.4 1519.24 1536.01 Q1516.18 1540.59 1510.37 1540.59 Q1504.56 1540.59 1501.48 1536.01 Q1498.43 1531.4 1498.43 1522.67 Q1498.43 1513.92 1501.48 1509.34 Q1504.56 1504.73 1510.37 1504.73 Z" fill="#000000" fill-rule="evenodd" fill-opacity="1" /><path clip-path="url(#clip660)" d="M 0 0 M1527.38 1534.04 L1532.27 1534.04 L1532.27 1539.92 L1527.38 1539.92 L1527.38 1534.04 Z" fill="#000000" fill-rule="evenodd" fill-opacity="1" /><path clip-path="url(#clip660)" d="M 0 0 M1537.38 1505.36 L1555.74 1505.36 L1555.74 1509.3 L1541.67 1509.3 L1541.67 1517.77 Q1542.68 1517.42 1543.7 1517.26 Q1544.72 1517.07 1545.74 1517.07 Q1551.53 1517.07 1554.91 1520.24 Q1558.29 1523.42 1558.29 1528.83 Q1558.29 1534.41 1554.81 1537.51 Q1551.34 1540.59 1545.02 1540.59 Q1542.85 1540.59 1540.58 1540.22 Q1538.33 1539.85 1535.93 1539.11 L1535.93 1534.41 Q1538.01 1535.54 1540.23 1536.1 Q1542.45 1536.66 1544.93 1536.66 Q1548.93 1536.66 1551.27 1534.55 Q1553.61 1532.44 1553.61 1528.83 Q1553.61 1525.22 1551.27 1523.11 Q1548.93 1521.01 1544.93 1521.01 Q1543.05 1521.01 1541.18 1521.42 Q1539.33 1521.84 1537.38 1522.72 L1537.38 1505.36 Z" fill="#000000" fill-rule="evenodd" fill-opacity="1" /><path clip-path="url(#clip660)" d="M 0 0 M2106.18 1535.98 L2113.81 1535.98 L2113.81 1509.62 L2105.5 1511.29 L2105.5 1507.03 L2113.77 1505.36 L2118.44 1505.36 L2118.44 1535.98 L2126.08 1535.98 L2126.08 1539.92 L2106.18 1539.92 L2106.18 1535.98 Z" fill="#000000" fill-rule="evenodd" fill-opacity="1" /><path clip-path="url(#clip660)" d="M 0 0 M2131.15 1534.04 L2136.04 1534.04 L2136.04 1539.92 L2131.15 1539.92 L2131.15 1534.04 Z" fill="#000000" fill-rule="evenodd" fill-opacity="1" /><path clip-path="url(#clip660)" d="M 0 0 M2151.11 1508.44 Q2147.49 1508.44 2145.67 1512 Q2143.86 1515.55 2143.86 1522.67 Q2143.86 1529.78 2145.67 1533.35 Q2147.49 1536.89 2151.11 1536.89 Q2154.74 1536.89 2156.55 1533.35 Q2158.37 1529.78 2158.37 1522.67 Q2158.37 1515.55 2156.55 1512 Q2154.74 1508.44 2151.11 1508.44 M2151.11 1504.73 Q2156.92 1504.73 2159.97 1509.34 Q2163.05 1513.92 2163.05 1522.67 Q2163.05 1531.4 2159.97 1536.01 Q2156.92 1540.59 2151.11 1540.59 Q2145.3 1540.59 2142.22 1536.01 Q2139.16 1531.4 2139.16 1522.67 Q2139.16 1513.92 2142.22 1509.34 Q2145.3 1504.73 2151.11 1504.73 Z" fill="#000000" fill-rule="evenodd" fill-opacity="1" /><path clip-path="url(#clip660)" d="M 0 0 M74.9365 1348.27 Q71.3254 1348.27 69.4967 1351.84 Q67.6912 1355.38 67.6912 1362.51 Q67.6912 1369.62 69.4967 1373.18 Q71.3254 1376.72 74.9365 1376.72 Q78.5707 1376.72 80.3763 1373.18 Q82.205 1369.62 82.205 1362.51 Q82.205 1355.38 80.3763 1351.84 Q78.5707 1348.27 74.9365 1348.27 M74.9365 1344.57 Q80.7467 1344.57 83.8022 1349.18 Q86.8809 1353.76 86.8809 1362.51 Q86.8809 1371.24 83.8022 1375.84 Q80.7467 1380.43 74.9365 1380.43 Q69.1264 1380.43 66.0477 1375.84 Q62.9921 1371.24 62.9921 1362.51 Q62.9921 1353.76 66.0477 1349.18 Q69.1264 1344.57 74.9365 1344.57 Z" fill="#000000" fill-rule="evenodd" fill-opacity="1" /><path clip-path="url(#clip660)" d="M 0 0 M91.9503 1373.87 L96.8345 1373.87 L96.8345 1379.75 L91.9503 1379.75 L91.9503 1373.87 Z" fill="#000000" fill-rule="evenodd" fill-opacity="1" /><path clip-path="url(#clip660)" d="M 0 0 M111.904 1348.27 Q108.293 1348.27 106.464 1351.84 Q104.659 1355.38 104.659 1362.51 Q104.659 1369.62 106.464 1373.18 Q108.293 1376.72 111.904 1376.72 Q115.538 1376.72 117.344 1373.18 Q119.172 1369.62 119.172 1362.51 Q119.172 1355.38 117.344 1351.84 Q115.538 1348.27 111.904 1348.27 M111.904 1344.57 Q117.714 1344.57 120.77 1349.18 Q123.848 1353.76 123.848 1362.51 Q123.848 1371.24 120.77 1375.84 Q117.714 1380.43 111.904 1380.43 Q106.094 1380.43 103.015 1375.84 Q99.9595 1371.24 99.9595 1362.51 Q99.9595 1353.76 103.015 1349.18 Q106.094 1344.57 111.904 1344.57 Z" fill="#000000" fill-rule="evenodd" fill-opacity="1" /><path clip-path="url(#clip660)" d="M 0 0 M138.918 1348.27 Q135.307 1348.27 133.478 1351.84 Q131.672 1355.38 131.672 1362.51 Q131.672 1369.62 133.478 1373.18 Q135.307 1376.72 138.918 1376.72 Q142.552 1376.72 144.357 1373.18 Q146.186 1369.62 146.186 1362.51 Q146.186 1355.38 144.357 1351.84 Q142.552 1348.27 138.918 1348.27 M138.918 1344.57 Q144.728 1344.57 147.783 1349.18 Q150.862 1353.76 150.862 1362.51 Q150.862 1371.24 147.783 1375.84 Q144.728 1380.43 138.918 1380.43 Q133.107 1380.43 130.029 1375.84 Q126.973 1371.24 126.973 1362.51 Q126.973 1353.76 130.029 1349.18 Q133.107 1344.57 138.918 1344.57 Z" fill="#000000" fill-rule="evenodd" fill-opacity="1" /><path clip-path="url(#clip660)" d="M 0 0 M77.5291 1045.31 Q73.918 1045.31 72.0893 1048.88 Q70.2838 1052.42 70.2838 1059.55 Q70.2838 1066.65 72.0893 1070.22 Q73.918 1073.76 77.5291 1073.76 Q81.1633 1073.76 82.9689 1070.22 Q84.7976 1066.65 84.7976 1059.55 Q84.7976 1052.42 82.9689 1048.88 Q81.1633 1045.31 77.5291 1045.31 M77.5291 1041.61 Q83.3392 1041.61 86.3948 1046.22 Q89.4735 1050.8 89.4735 1059.55 Q89.4735 1068.28 86.3948 1072.88 Q83.3392 1077.47 77.5291 1077.47 Q71.7189 1077.47 68.6402 1072.88 Q65.5847 1068.28 65.5847 1059.55 Q65.5847 1050.8 68.6402 1046.22 Q71.7189 1041.61 77.5291 1041.61 Z" fill="#000000" fill-rule="evenodd" fill-opacity="1" /><path clip-path="url(#clip660)" d="M 0 0 M94.5429 1070.91 L99.4271 1070.91 L99.4271 1076.79 L94.5429 1076.79 L94.5429 1070.91 Z" fill="#000000" fill-rule="evenodd" fill-opacity="1" /><path clip-path="url(#clip660)" d="M 0 0 M108.524 1072.86 L124.844 1072.86 L124.844 1076.79 L102.899 1076.79 L102.899 1072.86 Q105.561 1070.1 110.145 1065.47 Q114.751 1060.82 115.932 1059.48 Q118.177 1056.96 119.057 1055.22 Q119.959 1053.46 119.959 1051.77 Q119.959 1049.02 118.015 1047.28 Q116.094 1045.54 112.992 1045.54 Q110.793 1045.54 108.339 1046.31 Q105.909 1047.07 103.131 1048.62 L103.131 1043.9 Q105.955 1042.77 108.409 1042.19 Q110.862 1041.61 112.899 1041.61 Q118.27 1041.61 121.464 1044.29 Q124.658 1046.98 124.658 1051.47 Q124.658 1053.6 123.848 1055.52 Q123.061 1057.42 120.955 1060.01 Q120.376 1060.68 117.274 1063.9 Q114.172 1067.09 108.524 1072.86 Z" fill="#000000" fill-rule="evenodd" fill-opacity="1" /><path clip-path="url(#clip660)" d="M 0 0 M129.959 1042.23 L148.316 1042.23 L148.316 1046.17 L134.242 1046.17 L134.242 1054.64 Q135.26 1054.29 136.279 1054.13 Q137.297 1053.95 138.316 1053.95 Q144.103 1053.95 147.482 1057.12 Q150.862 1060.29 150.862 1065.71 Q150.862 1071.28 147.39 1074.39 Q143.918 1077.47 137.598 1077.47 Q135.422 1077.47 133.154 1077.09 Q130.908 1076.72 128.501 1075.98 L128.501 1071.28 Q130.584 1072.42 132.807 1072.97 Q135.029 1073.53 137.506 1073.53 Q141.51 1073.53 143.848 1071.42 Q146.186 1069.32 146.186 1065.71 Q146.186 1062.09 143.848 1059.99 Q141.51 1057.88 137.506 1057.88 Q135.631 1057.88 133.756 1058.3 Q131.904 1058.72 129.959 1059.59 L129.959 1042.23 Z" fill="#000000" fill-rule="evenodd" fill-opacity="1" /><path clip-path="url(#clip660)" d="M 0 0 M75.9319 742.352 Q72.3208 742.352 70.4921 745.916 Q68.6865 749.458 68.6865 756.588 Q68.6865 763.694 70.4921 767.259 Q72.3208 770.801 75.9319 770.801 Q79.5661 770.801 81.3717 767.259 Q83.2004 763.694 83.2004 756.588 Q83.2004 749.458 81.3717 745.916 Q79.5661 742.352 75.9319 742.352 M75.9319 738.648 Q81.742 738.648 84.7976 743.254 Q87.8763 747.838 87.8763 756.588 Q87.8763 765.315 84.7976 769.921 Q81.742 774.504 75.9319 774.504 Q70.1217 774.504 67.043 769.921 Q63.9875 765.315 63.9875 756.588 Q63.9875 747.838 67.043 743.254 Q70.1217 738.648 75.9319 738.648 Z" fill="#000000" fill-rule="evenodd" fill-opacity="1" /><path clip-path="url(#clip660)" d="M 0 0 M92.9457 767.953 L97.8299 767.953 L97.8299 773.833 L92.9457 773.833 L92.9457 767.953 Z" fill="#000000" fill-rule="evenodd" fill-opacity="1" /><path clip-path="url(#clip660)" d="M 0 0 M102.946 739.273 L121.302 739.273 L121.302 743.208 L107.228 743.208 L107.228 751.68 Q108.247 751.333 109.265 751.171 Q110.284 750.986 111.302 750.986 Q117.089 750.986 120.469 754.157 Q123.848 757.328 123.848 762.745 Q123.848 768.324 120.376 771.426 Q116.904 774.504 110.584 774.504 Q108.409 774.504 106.14 774.134 Q103.895 773.764 101.487 773.023 L101.487 768.324 Q103.571 769.458 105.793 770.014 Q108.015 770.569 110.492 770.569 Q114.496 770.569 116.834 768.463 Q119.172 766.356 119.172 762.745 Q119.172 759.134 116.834 757.028 Q114.496 754.921 110.492 754.921 Q108.617 754.921 106.742 755.338 Q104.89 755.754 102.946 756.634 L102.946 739.273 Z" fill="#000000" fill-rule="evenodd" fill-opacity="1" /><path clip-path="url(#clip660)" d="M 0 0 M138.918 742.352 Q135.307 742.352 133.478 745.916 Q131.672 749.458 131.672 756.588 Q131.672 763.694 133.478 767.259 Q135.307 770.801 138.918 770.801 Q142.552 770.801 144.357 767.259 Q146.186 763.694 146.186 756.588 Q146.186 749.458 144.357 745.916 Q142.552 742.352 138.918 742.352 M138.918 738.648 Q144.728 738.648 147.783 743.254 Q150.862 747.838 150.862 756.588 Q150.862 765.315 147.783 769.921 Q144.728 774.504 138.918 774.504 Q133.107 774.504 130.029 769.921 Q126.973 765.315 126.973 756.588 Q126.973 747.838 130.029 743.254 Q133.107 738.648 138.918 738.648 Z" fill="#000000" fill-rule="evenodd" fill-opacity="1" /><path clip-path="url(#clip660)" d="M 0 0 M76.8346 439.391 Q73.2236 439.391 71.3949 442.956 Q69.5893 446.497 69.5893 453.627 Q69.5893 460.733 71.3949 464.298 Q73.2236 467.84 76.8346 467.84 Q80.4689 467.84 82.2744 464.298 Q84.1031 460.733 84.1031 453.627 Q84.1031 446.497 82.2744 442.956 Q80.4689 439.391 76.8346 439.391 M76.8346 435.687 Q82.6448 435.687 85.7003 440.294 Q88.779 444.877 88.779 453.627 Q88.779 462.354 85.7003 466.96 Q82.6448 471.544 76.8346 471.544 Q71.0245 471.544 67.9458 466.96 Q64.8903 462.354 64.8903 453.627 Q64.8903 444.877 67.9458 440.294 Q71.0245 435.687 76.8346 435.687 Z" fill="#000000" fill-rule="evenodd" fill-opacity="1" /><path clip-path="url(#clip660)" d="M 0 0 M93.8484 464.993 L98.7327 464.993 L98.7327 470.872 L93.8484 470.872 L93.8484 464.993 Z" fill="#000000" fill-rule="evenodd" fill-opacity="1" /><path clip-path="url(#clip660)" d="M 0 0 M102.622 436.312 L124.844 436.312 L124.844 438.303 L112.297 470.872 L107.413 470.872 L119.219 440.247 L102.622 440.247 L102.622 436.312 Z" fill="#000000" fill-rule="evenodd" fill-opacity="1" /><path clip-path="url(#clip660)" d="M 0 0 M129.959 436.312 L148.316 436.312 L148.316 440.247 L134.242 440.247 L134.242 448.72 Q135.26 448.372 136.279 448.21 Q137.297 448.025 138.316 448.025 Q144.103 448.025 147.482 451.196 Q150.862 454.368 150.862 459.784 Q150.862 465.363 147.39 468.465 Q143.918 471.544 137.598 471.544 Q135.422 471.544 133.154 471.173 Q130.908 470.803 128.501 470.062 L128.501 465.363 Q130.584 466.497 132.807 467.053 Q135.029 467.608 137.506 467.608 Q141.51 467.608 143.848 465.502 Q146.186 463.395 146.186 459.784 Q146.186 456.173 143.848 454.067 Q141.51 451.96 137.506 451.96 Q135.631 451.96 133.756 452.377 Q131.904 452.794 129.959 453.673 L129.959 436.312 Z" fill="#000000" fill-rule="evenodd" fill-opacity="1" /><path clip-path="url(#clip660)" d="M 0 0 M66.9736 163.976 L74.6124 163.976 L74.6124 137.611 L66.3023 139.277 L66.3023 135.018 L74.5661 133.352 L79.242 133.352 L79.242 163.976 L86.8809 163.976 L86.8809 167.912 L66.9736 167.912 L66.9736 163.976 Z" fill="#000000" fill-rule="evenodd" fill-opacity="1" /><path clip-path="url(#clip660)" d="M 0 0 M91.9503 162.032 L96.8345 162.032 L96.8345 167.912 L91.9503 167.912 L91.9503 162.032 Z" fill="#000000" fill-rule="evenodd" fill-opacity="1" /><path clip-path="url(#clip660)" d="M 0 0 M111.904 136.43 Q108.293 136.43 106.464 139.995 Q104.659 143.537 104.659 150.666 Q104.659 157.773 106.464 161.338 Q108.293 164.879 111.904 164.879 Q115.538 164.879 117.344 161.338 Q119.172 157.773 119.172 150.666 Q119.172 143.537 117.344 139.995 Q115.538 136.43 111.904 136.43 M111.904 132.727 Q117.714 132.727 120.77 137.333 Q123.848 141.916 123.848 150.666 Q123.848 159.393 120.77 164 Q117.714 168.583 111.904 168.583 Q106.094 168.583 103.015 164 Q99.9595 159.393 99.9595 150.666 Q99.9595 141.916 103.015 137.333 Q106.094 132.727 111.904 132.727 Z" fill="#000000" fill-rule="evenodd" fill-opacity="1" /><path clip-path="url(#clip660)" d="M 0 0 M138.918 136.43 Q135.307 136.43 133.478 139.995 Q131.672 143.537 131.672 150.666 Q131.672 157.773 133.478 161.338 Q135.307 164.879 138.918 164.879 Q142.552 164.879 144.357 161.338 Q146.186 157.773 146.186 150.666 Q146.186 143.537 144.357 139.995 Q142.552 136.43 138.918 136.43 M138.918 132.727 Q144.728 132.727 147.783 137.333 Q150.862 141.916 150.862 150.666 Q150.862 159.393 147.783 164 Q144.728 168.583 138.918 168.583 Q133.107 168.583 130.029 164 Q126.973 159.393 126.973 150.666 Q126.973 141.916 130.029 137.333 Q133.107 132.727 138.918 132.727 Z" fill="#000000" fill-rule="evenodd" fill-opacity="1" /><path clip-path="url(#clip662)" d="
M1043.62 1241.29 L922.434 1362.47 L1649.54 150.632 L1043.62 1241.29  Z
  " fill="#008000" fill-rule="evenodd" fill-opacity="0.2"/>
<polyline clip-path="url(#clip662)" style="stroke:#000000; stroke-width:4; stroke-opacity:1; fill:none" points="
  1043.62,1241.29 922.434,1362.47 1649.54,150.632 1043.62,1241.29 
  "/>
<circle clip-path="url(#clip662)" cx="1043.62" cy="1241.29" r="14" fill="#ff0000" fill-rule="evenodd" fill-opacity="1" stroke="#000000" stroke-opacity="1" stroke-width="3.2"/>
<circle clip-path="url(#clip662)" cx="922.434" cy="1362.47" r="14" fill="#ff0000" fill-rule="evenodd" fill-opacity="1" stroke="#000000" stroke-opacity="1" stroke-width="3.2"/>
<circle clip-path="url(#clip662)" cx="1649.54" cy="150.632" r="14" fill="#ff0000" fill-rule="evenodd" fill-opacity="1" stroke="#000000" stroke-opacity="1" stroke-width="3.2"/>
<path clip-path="url(#clip660)" d="M 0 0 M1043.62 1170.73 L1032.52 1200.83 L1054.76 1200.83 L1043.62 1170.73 M1039 1162.67 L1048.28 1162.67 L1071.33 1223.15 L1062.82 1223.15 L1057.31 1207.63 L1030.05 1207.63 L1024.54 1223.15 L1015.91 1223.15 L1039 1162.67 Z" fill="#000000" fill-rule="evenodd" fill-opacity="1" /><path clip-path="url(#clip660)" d="M 0 0 M909.168 1315.45 L909.168 1337.61 L922.293 1337.61 Q928.896 1337.61 932.055 1334.89 Q935.255 1332.14 935.255 1326.51 Q935.255 1320.84 932.055 1318.16 Q928.896 1315.45 922.293 1315.45 L909.168 1315.45 M909.168 1290.57 L909.168 1308.8 L921.28 1308.8 Q927.275 1308.8 930.192 1306.58 Q933.149 1304.31 933.149 1299.69 Q933.149 1295.11 930.192 1292.84 Q927.275 1290.57 921.28 1290.57 L909.168 1290.57 M900.985 1283.85 L921.888 1283.85 Q931.245 1283.85 936.309 1287.74 Q941.372 1291.63 941.372 1298.8 Q941.372 1304.35 938.78 1307.63 Q936.187 1310.91 931.164 1311.72 Q937.2 1313.02 940.522 1317.15 Q943.884 1321.24 943.884 1327.4 Q943.884 1335.5 938.375 1339.91 Q932.865 1344.33 922.698 1344.33 L900.985 1344.33 L900.985 1283.85 Z" fill="#000000" fill-rule="evenodd" fill-opacity="1" /><path clip-path="url(#clip660)" d="M 0 0 M1673.93 76.6661 L1673.93 85.2946 Q1669.79 81.4462 1665.1 79.5423 Q1660.44 77.6383 1655.17 77.6383 Q1644.8 77.6383 1639.29 83.9983 Q1633.78 90.3177 1633.78 102.308 Q1633.78 114.259 1639.29 120.618 Q1644.8 126.938 1655.17 126.938 Q1660.44 126.938 1665.1 125.034 Q1669.79 123.13 1673.93 119.282 L1673.93 127.829 Q1669.63 130.746 1664.81 132.204 Q1660.03 133.662 1654.68 133.662 Q1640.95 133.662 1633.05 125.277 Q1625.15 116.851 1625.15 102.308 Q1625.15 87.7251 1633.05 79.3397 Q1640.95 70.9138 1654.68 70.9138 Q1660.11 70.9138 1664.89 72.3722 Q1669.71 73.79 1673.93 76.6661 Z" fill="#000000" fill-rule="evenodd" fill-opacity="1" /><path clip-path="url(#clip662)" d="
M1043.62 1241.29 L922.434 1362.47 L1087.98 1406.83 L1043.62 1241.29  Z
  " fill="#ffc0cb" fill-rule="evenodd" fill-opacity="0.7"/>
<polyline clip-path="url(#clip662)" style="stroke:#000000; stroke-width:4; stroke-opacity:1; fill:none" points="
  1043.62,1241.29 922.434,1362.47 1087.98,1406.83 1043.62,1241.29 
  "/>
<path clip-path="url(#clip662)" d="
M1649.54 150.632 L1043.62 1241.29 L2291.12 1220.7 L1649.54 150.632  Z
  " fill="#ffc0cb" fill-rule="evenodd" fill-opacity="0.7"/>
<polyline clip-path="url(#clip662)" style="stroke:#000000; stroke-width:4; stroke-opacity:1; fill:none" points="
  1649.54,150.632 1043.62,1241.29 2291.12,1220.7 1649.54,150.632 
  "/>
<path clip-path="url(#clip662)" d="
M922.434 1362.47 L1649.54 150.632 L236.501 126.861 L922.434 1362.47  Z
  " fill="#ffc0cb" fill-rule="evenodd" fill-opacity="0.7"/>
<polyline clip-path="url(#clip662)" style="stroke:#000000; stroke-width:4; stroke-opacity:1; fill:none" points="
  922.434,1362.47 1649.54,150.632 236.501,126.861 922.434,1362.47 
  "/>
<path clip-path="url(#clip662)" d="
M1018.01 1336.87 L1661.43 870.875 L936.158 546.656 L1018.01 1336.87  Z
  " fill="#0000ff" fill-rule="evenodd" fill-opacity="0.7"/>
<polyline clip-path="url(#clip662)" style="stroke:#000000; stroke-width:4; stroke-opacity:1; fill:none" points="
  1018.01,1336.87 1661.43,870.875 936.158,546.656 1018.01,1336.87 
  "/>
</svg>
