<?xml version="1.0" encoding="utf-8"?>
<svg xmlns="http://www.w3.org/2000/svg" xmlns:xlink="http://www.w3.org/1999/xlink" width="600" height="400" viewBox="0 0 2400 1600">
<defs>
  <clipPath id="clip170">
    <rect x="0" y="0" width="2400" height="1600"/>
  </clipPath>
</defs>
<path clip-path="url(#clip170)" d="
M0 1600 L2400 1600 L2400 0 L0 0  Z
  " fill="#ffffff" fill-rule="evenodd" fill-opacity="1"/>
<defs>
  <clipPath id="clip171">
    <rect x="480" y="0" width="1681" height="1600"/>
  </clipPath>
</defs>
<path clip-path="url(#clip170)" d="
M174.862 1486.45 L2352.76 1486.45 L2352.76 47.2441 L174.862 47.2441  Z
  " fill="#ffffff" fill-rule="evenodd" fill-opacity="1"/>
<defs>
  <clipPath id="clip172">
    <rect x="174" y="47" width="2179" height="1440"/>
  </clipPath>
</defs>
<polyline clip-path="url(#clip172)" style="stroke:#000000; stroke-width:2; stroke-opacity:0.1; fill:none" points="
  310.16,1486.45 310.16,47.2441 
  "/>
<polyline clip-path="url(#clip172)" style="stroke:#000000; stroke-width:2; stroke-opacity:0.1; fill:none" points="
  929.335,1486.45 929.335,47.2441 
  "/>
<polyline clip-path="url(#clip172)" style="stroke:#000000; stroke-width:2; stroke-opacity:0.1; fill:none" points="
  1548.51,1486.45 1548.51,47.2441 
  "/>
<polyline clip-path="url(#clip172)" style="stroke:#000000; stroke-width:2; stroke-opacity:0.1; fill:none" points="
  2167.69,1486.45 2167.69,47.2441 
  "/>
<polyline clip-path="url(#clip172)" style="stroke:#000000; stroke-width:2; stroke-opacity:0.1; fill:none" points="
  174.862,1445.72 2352.76,1445.72 
  "/>
<polyline clip-path="url(#clip172)" style="stroke:#000000; stroke-width:2; stroke-opacity:0.1; fill:none" points="
  174.862,1136.13 2352.76,1136.13 
  "/>
<polyline clip-path="url(#clip172)" style="stroke:#000000; stroke-width:2; stroke-opacity:0.1; fill:none" points="
  174.862,826.541 2352.76,826.541 
  "/>
<polyline clip-path="url(#clip172)" style="stroke:#000000; stroke-width:2; stroke-opacity:0.1; fill:none" points="
  174.862,516.953 2352.76,516.953 
  "/>
<polyline clip-path="url(#clip172)" style="stroke:#000000; stroke-width:2; stroke-opacity:0.1; fill:none" points="
  174.862,207.366 2352.76,207.366 
  "/>
<polyline clip-path="url(#clip170)" style="stroke:#000000; stroke-width:4; stroke-opacity:1; fill:none" points="
  174.862,1486.45 2352.76,1486.45 
  "/>
<polyline clip-path="url(#clip170)" style="stroke:#000000; stroke-width:4; stroke-opacity:1; fill:none" points="
  174.862,1486.45 174.862,47.2441 
  "/>
<polyline clip-path="url(#clip170)" style="stroke:#000000; stroke-width:4; stroke-opacity:1; fill:none" points="
  310.16,1486.45 310.16,1469.18 
  "/>
<polyline clip-path="url(#clip170)" style="stroke:#000000; stroke-width:4; stroke-opacity:1; fill:none" points="
  929.335,1486.45 929.335,1469.18 
  "/>
<polyline clip-path="url(#clip170)" style="stroke:#000000; stroke-width:4; stroke-opacity:1; fill:none" points="
  1548.51,1486.45 1548.51,1469.18 
  "/>
<polyline clip-path="url(#clip170)" style="stroke:#000000; stroke-width:4; stroke-opacity:1; fill:none" points="
  2167.69,1486.45 2167.69,1469.18 
  "/>
<polyline clip-path="url(#clip170)" style="stroke:#000000; stroke-width:4; stroke-opacity:1; fill:none" points="
  174.862,1445.72 200.997,1445.72 
  "/>
<polyline clip-path="url(#clip170)" style="stroke:#000000; stroke-width:4; stroke-opacity:1; fill:none" points="
  174.862,1136.13 200.997,1136.13 
  "/>
<polyline clip-path="url(#clip170)" style="stroke:#000000; stroke-width:4; stroke-opacity:1; fill:none" points="
  174.862,826.541 200.997,826.541 
  "/>
<polyline clip-path="url(#clip170)" style="stroke:#000000; stroke-width:4; stroke-opacity:1; fill:none" points="
  174.862,516.953 200.997,516.953 
  "/>
<polyline clip-path="url(#clip170)" style="stroke:#000000; stroke-width:4; stroke-opacity:1; fill:none" points="
  174.862,207.366 200.997,207.366 
  "/>
<path clip-path="url(#clip170)" d="M 0 0 M272.429 1525.04 L284.906 1525.04 L284.906 1528.83 L272.429 1528.83 L272.429 1525.04 Z" fill="#000000" fill-rule="evenodd" fill-opacity="1" /><path clip-path="url(#clip170)" d="M 0 0 M299.975 1508.44 Q296.364 1508.44 294.536 1512 Q292.73 1515.55 292.73 1522.67 Q292.73 1529.78 294.536 1533.35 Q296.364 1536.89 299.975 1536.89 Q303.61 1536.89 305.415 1533.35 Q307.244 1529.78 307.244 1522.67 Q307.244 1515.55 305.415 1512 Q303.61 1508.44 299.975 1508.44 M299.975 1504.73 Q305.785 1504.73 308.841 1509.34 Q311.92 1513.92 311.92 1522.67 Q311.92 1531.4 308.841 1536.01 Q305.785 1540.59 299.975 1540.59 Q294.165 1540.59 291.086 1536.01 Q288.031 1531.4 288.031 1522.67 Q288.031 1513.92 291.086 1509.34 Q294.165 1504.73 299.975 1504.73 Z" fill="#000000" fill-rule="evenodd" fill-opacity="1" /><path clip-path="url(#clip170)" d="M 0 0 M316.989 1534.04 L321.873 1534.04 L321.873 1539.92 L316.989 1539.92 L316.989 1534.04 Z" fill="#000000" fill-rule="evenodd" fill-opacity="1" /><path clip-path="url(#clip170)" d="M 0 0 M326.989 1505.36 L345.345 1505.36 L345.345 1509.3 L331.271 1509.3 L331.271 1517.77 Q332.29 1517.42 333.308 1517.26 Q334.327 1517.07 335.345 1517.07 Q341.132 1517.07 344.512 1520.24 Q347.892 1523.42 347.892 1528.83 Q347.892 1534.41 344.42 1537.51 Q340.947 1540.59 334.628 1540.59 Q332.452 1540.59 330.183 1540.22 Q327.938 1539.85 325.531 1539.11 L325.531 1534.41 Q327.614 1535.54 329.836 1536.1 Q332.058 1536.66 334.535 1536.66 Q338.54 1536.66 340.878 1534.55 Q343.216 1532.44 343.216 1528.83 Q343.216 1525.22 340.878 1523.11 Q338.54 1521.01 334.535 1521.01 Q332.66 1521.01 330.785 1521.42 Q328.933 1521.84 326.989 1522.72 L326.989 1505.36 Z" fill="#000000" fill-rule="evenodd" fill-opacity="1" /><path clip-path="url(#clip170)" d="M 0 0 M910.852 1508.44 Q907.241 1508.44 905.412 1512 Q903.606 1515.55 903.606 1522.67 Q903.606 1529.78 905.412 1533.35 Q907.241 1536.89 910.852 1536.89 Q914.486 1536.89 916.291 1533.35 Q918.12 1529.78 918.12 1522.67 Q918.12 1515.55 916.291 1512 Q914.486 1508.44 910.852 1508.44 M910.852 1504.73 Q916.662 1504.73 919.717 1509.34 Q922.796 1513.92 922.796 1522.67 Q922.796 1531.4 919.717 1536.01 Q916.662 1540.59 910.852 1540.59 Q905.042 1540.59 901.963 1536.01 Q898.907 1531.4 898.907 1522.67 Q898.907 1513.92 901.963 1509.34 Q905.042 1504.73 910.852 1504.73 Z" fill="#000000" fill-rule="evenodd" fill-opacity="1" /><path clip-path="url(#clip170)" d="M 0 0 M927.865 1534.04 L932.75 1534.04 L932.75 1539.92 L927.865 1539.92 L927.865 1534.04 Z" fill="#000000" fill-rule="evenodd" fill-opacity="1" /><path clip-path="url(#clip170)" d="M 0 0 M947.819 1508.44 Q944.208 1508.44 942.379 1512 Q940.574 1515.55 940.574 1522.67 Q940.574 1529.78 942.379 1533.35 Q944.208 1536.89 947.819 1536.89 Q951.453 1536.89 953.259 1533.35 Q955.088 1529.78 955.088 1522.67 Q955.088 1515.55 953.259 1512 Q951.453 1508.44 947.819 1508.44 M947.819 1504.73 Q953.629 1504.73 956.685 1509.34 Q959.763 1513.92 959.763 1522.67 Q959.763 1531.4 956.685 1536.01 Q953.629 1540.59 947.819 1540.59 Q942.009 1540.59 938.93 1536.01 Q935.875 1531.4 935.875 1522.67 Q935.875 1513.92 938.93 1509.34 Q942.009 1504.73 947.819 1504.73 Z" fill="#000000" fill-rule="evenodd" fill-opacity="1" /><path clip-path="url(#clip170)" d="M 0 0 M1530.52 1508.44 Q1526.91 1508.44 1525.08 1512 Q1523.28 1515.55 1523.28 1522.67 Q1523.28 1529.78 1525.08 1533.35 Q1526.91 1536.89 1530.52 1536.89 Q1534.16 1536.89 1535.96 1533.35 Q1537.79 1529.78 1537.79 1522.67 Q1537.79 1515.55 1535.96 1512 Q1534.16 1508.44 1530.52 1508.44 M1530.52 1504.73 Q1536.33 1504.73 1539.39 1509.34 Q1542.47 1513.92 1542.47 1522.67 Q1542.47 1531.4 1539.39 1536.01 Q1536.33 1540.59 1530.52 1540.59 Q1524.71 1540.59 1521.64 1536.01 Q1518.58 1531.4 1518.58 1522.67 Q1518.58 1513.92 1521.64 1509.34 Q1524.71 1504.73 1530.52 1504.73 Z" fill="#000000" fill-rule="evenodd" fill-opacity="1" /><path clip-path="url(#clip170)" d="M 0 0 M1547.54 1534.04 L1552.42 1534.04 L1552.42 1539.92 L1547.54 1539.92 L1547.54 1534.04 Z" fill="#000000" fill-rule="evenodd" fill-opacity="1" /><path clip-path="url(#clip170)" d="M 0 0 M1557.54 1505.36 L1575.89 1505.36 L1575.89 1509.3 L1561.82 1509.3 L1561.82 1517.77 Q1562.84 1517.42 1563.86 1517.26 Q1564.88 1517.07 1565.89 1517.07 Q1571.68 1517.07 1575.06 1520.24 Q1578.44 1523.42 1578.44 1528.83 Q1578.44 1534.41 1574.97 1537.51 Q1571.5 1540.59 1565.18 1540.59 Q1563 1540.59 1560.73 1540.22 Q1558.49 1539.85 1556.08 1539.11 L1556.08 1534.41 Q1558.16 1535.54 1560.39 1536.1 Q1562.61 1536.66 1565.08 1536.66 Q1569.09 1536.66 1571.43 1534.55 Q1573.76 1532.44 1573.76 1528.83 Q1573.76 1525.22 1571.43 1523.11 Q1569.09 1521.01 1565.08 1521.01 Q1563.21 1521.01 1561.33 1521.42 Q1559.48 1521.84 1557.54 1522.72 L1557.54 1505.36 Z" fill="#000000" fill-rule="evenodd" fill-opacity="1" /><path clip-path="url(#clip170)" d="M 0 0 M2139.58 1535.98 L2147.22 1535.98 L2147.22 1509.62 L2138.91 1511.29 L2138.91 1507.03 L2147.18 1505.36 L2151.85 1505.36 L2151.85 1535.98 L2159.49 1535.98 L2159.49 1539.92 L2139.58 1539.92 L2139.58 1535.98 Z" fill="#000000" fill-rule="evenodd" fill-opacity="1" /><path clip-path="url(#clip170)" d="M 0 0 M2164.56 1534.04 L2169.44 1534.04 L2169.44 1539.92 L2164.56 1539.92 L2164.56 1534.04 Z" fill="#000000" fill-rule="evenodd" fill-opacity="1" /><path clip-path="url(#clip170)" d="M 0 0 M2184.51 1508.44 Q2180.9 1508.44 2179.07 1512 Q2177.27 1515.55 2177.27 1522.67 Q2177.27 1529.78 2179.07 1533.35 Q2180.9 1536.89 2184.51 1536.89 Q2188.15 1536.89 2189.95 1533.35 Q2191.78 1529.78 2191.78 1522.67 Q2191.78 1515.55 2189.95 1512 Q2188.15 1508.44 2184.51 1508.44 M2184.51 1504.73 Q2190.32 1504.73 2193.38 1509.34 Q2196.46 1513.92 2196.46 1522.67 Q2196.46 1531.4 2193.38 1536.01 Q2190.32 1540.59 2184.51 1540.59 Q2178.7 1540.59 2175.63 1536.01 Q2172.57 1531.4 2172.57 1522.67 Q2172.57 1513.92 2175.63 1509.34 Q2178.7 1504.73 2184.51 1504.73 Z" fill="#000000" fill-rule="evenodd" fill-opacity="1" /><path clip-path="url(#clip170)" d="M 0 0 M74.9365 1431.51 Q71.3254 1431.51 69.4967 1435.08 Q67.6912 1438.62 67.6912 1445.75 Q67.6912 1452.86 69.4967 1456.42 Q71.3254 1459.96 74.9365 1459.96 Q78.5707 1459.96 80.3763 1456.42 Q82.205 1452.86 82.205 1445.75 Q82.205 1438.62 80.3763 1435.08 Q78.5707 1431.51 74.9365 1431.51 M74.9365 1427.81 Q80.7467 1427.81 83.8022 1432.42 Q86.8809 1437 86.8809 1445.75 Q86.8809 1454.48 83.8022 1459.08 Q80.7467 1463.67 74.9365 1463.67 Q69.1264 1463.67 66.0477 1459.08 Q62.9921 1454.48 62.9921 1445.75 Q62.9921 1437 66.0477 1432.42 Q69.1264 1427.81 74.9365 1427.81 Z" fill="#000000" fill-rule="evenodd" fill-opacity="1" /><path clip-path="url(#clip170)" d="M 0 0 M91.9503 1457.12 L96.8345 1457.12 L96.8345 1463 L91.9503 1463 L91.9503 1457.12 Z" fill="#000000" fill-rule="evenodd" fill-opacity="1" /><path clip-path="url(#clip170)" d="M 0 0 M111.904 1431.51 Q108.293 1431.51 106.464 1435.08 Q104.659 1438.62 104.659 1445.75 Q104.659 1452.86 106.464 1456.42 Q108.293 1459.96 111.904 1459.96 Q115.538 1459.96 117.344 1456.42 Q119.172 1452.86 119.172 1445.75 Q119.172 1438.62 117.344 1435.08 Q115.538 1431.51 111.904 1431.51 M111.904 1427.81 Q117.714 1427.81 120.77 1432.42 Q123.848 1437 123.848 1445.75 Q123.848 1454.48 120.77 1459.08 Q117.714 1463.67 111.904 1463.67 Q106.094 1463.67 103.015 1459.08 Q99.9595 1454.48 99.9595 1445.75 Q99.9595 1437 103.015 1432.42 Q106.094 1427.81 111.904 1427.81 Z" fill="#000000" fill-rule="evenodd" fill-opacity="1" /><path clip-path="url(#clip170)" d="M 0 0 M138.918 1431.51 Q135.307 1431.51 133.478 1435.08 Q131.672 1438.62 131.672 1445.75 Q131.672 1452.86 133.478 1456.42 Q135.307 1459.96 138.918 1459.96 Q142.552 1459.96 144.357 1456.42 Q146.186 1452.86 146.186 1445.75 Q146.186 1438.62 144.357 1435.08 Q142.552 1431.51 138.918 1431.51 M138.918 1427.81 Q144.728 1427.81 147.783 1432.42 Q150.862 1437 150.862 1445.75 Q150.862 1454.48 147.783 1459.08 Q144.728 1463.67 138.918 1463.67 Q133.107 1463.67 130.029 1459.08 Q126.973 1454.48 126.973 1445.75 Q126.973 1437 130.029 1432.42 Q133.107 1427.81 138.918 1427.81 Z" fill="#000000" fill-rule="evenodd" fill-opacity="1" /><path clip-path="url(#clip170)" d="M 0 0 M77.5291 1121.93 Q73.918 1121.93 72.0893 1125.49 Q70.2838 1129.03 70.2838 1136.16 Q70.2838 1143.27 72.0893 1146.83 Q73.918 1150.38 77.5291 1150.38 Q81.1633 1150.38 82.9689 1146.83 Q84.7976 1143.27 84.7976 1136.16 Q84.7976 1129.03 82.9689 1125.49 Q81.1633 1121.93 77.5291 1121.93 M77.5291 1118.22 Q83.3392 1118.22 86.3948 1122.83 Q89.4735 1127.41 89.4735 1136.16 Q89.4735 1144.89 86.3948 1149.5 Q83.3392 1154.08 77.5291 1154.08 Q71.7189 1154.08 68.6402 1149.5 Q65.5847 1144.89 65.5847 1136.16 Q65.5847 1127.41 68.6402 1122.83 Q71.7189 1118.22 77.5291 1118.22 Z" fill="#000000" fill-rule="evenodd" fill-opacity="1" /><path clip-path="url(#clip170)" d="M 0 0 M94.5429 1147.53 L99.4271 1147.53 L99.4271 1153.41 L94.5429 1153.41 L94.5429 1147.53 Z" fill="#000000" fill-rule="evenodd" fill-opacity="1" /><path clip-path="url(#clip170)" d="M 0 0 M108.524 1149.47 L124.844 1149.47 L124.844 1153.41 L102.899 1153.41 L102.899 1149.47 Q105.561 1146.72 110.145 1142.09 Q114.751 1137.44 115.932 1136.09 Q118.177 1133.57 119.057 1131.83 Q119.959 1130.08 119.959 1128.39 Q119.959 1125.63 118.015 1123.89 Q116.094 1122.16 112.992 1122.16 Q110.793 1122.16 108.339 1122.92 Q105.909 1123.69 103.131 1125.24 L103.131 1120.51 Q105.955 1119.38 108.409 1118.8 Q110.862 1118.22 112.899 1118.22 Q118.27 1118.22 121.464 1120.91 Q124.658 1123.59 124.658 1128.08 Q124.658 1130.21 123.848 1132.14 Q123.061 1134.03 120.955 1136.63 Q120.376 1137.3 117.274 1140.51 Q114.172 1143.71 108.524 1149.47 Z" fill="#000000" fill-rule="evenodd" fill-opacity="1" /><path clip-path="url(#clip170)" d="M 0 0 M129.959 1118.85 L148.316 1118.85 L148.316 1122.78 L134.242 1122.78 L134.242 1131.26 Q135.26 1130.91 136.279 1130.75 Q137.297 1130.56 138.316 1130.56 Q144.103 1130.56 147.482 1133.73 Q150.862 1136.9 150.862 1142.32 Q150.862 1147.9 147.39 1151 Q143.918 1154.08 137.598 1154.08 Q135.422 1154.08 133.154 1153.71 Q130.908 1153.34 128.501 1152.6 L128.501 1147.9 Q130.584 1149.03 132.807 1149.59 Q135.029 1150.14 137.506 1150.14 Q141.51 1150.14 143.848 1148.04 Q146.186 1145.93 146.186 1142.32 Q146.186 1138.71 143.848 1136.6 Q141.51 1134.5 137.506 1134.5 Q135.631 1134.5 133.756 1134.91 Q131.904 1135.33 129.959 1136.21 L129.959 1118.85 Z" fill="#000000" fill-rule="evenodd" fill-opacity="1" /><path clip-path="url(#clip170)" d="M 0 0 M75.9319 812.339 Q72.3208 812.339 70.4921 815.904 Q68.6865 819.446 68.6865 826.575 Q68.6865 833.682 70.4921 837.247 Q72.3208 840.788 75.9319 840.788 Q79.5661 840.788 81.3717 837.247 Q83.2004 833.682 83.2004 826.575 Q83.2004 819.446 81.3717 815.904 Q79.5661 812.339 75.9319 812.339 M75.9319 808.636 Q81.742 808.636 84.7976 813.242 Q87.8763 817.826 87.8763 826.575 Q87.8763 835.302 84.7976 839.909 Q81.742 844.492 75.9319 844.492 Q70.1217 844.492 67.043 839.909 Q63.9875 835.302 63.9875 826.575 Q63.9875 817.826 67.043 813.242 Q70.1217 808.636 75.9319 808.636 Z" fill="#000000" fill-rule="evenodd" fill-opacity="1" /><path clip-path="url(#clip170)" d="M 0 0 M92.9457 837.941 L97.8299 837.941 L97.8299 843.821 L92.9457 843.821 L92.9457 837.941 Z" fill="#000000" fill-rule="evenodd" fill-opacity="1" /><path clip-path="url(#clip170)" d="M 0 0 M102.946 809.261 L121.302 809.261 L121.302 813.196 L107.228 813.196 L107.228 821.668 Q108.247 821.321 109.265 821.159 Q110.284 820.974 111.302 820.974 Q117.089 820.974 120.469 824.145 Q123.848 827.316 123.848 832.733 Q123.848 838.312 120.376 841.413 Q116.904 844.492 110.584 844.492 Q108.409 844.492 106.14 844.122 Q103.895 843.751 101.487 843.011 L101.487 838.312 Q103.571 839.446 105.793 840.001 Q108.015 840.557 110.492 840.557 Q114.496 840.557 116.834 838.45 Q119.172 836.344 119.172 832.733 Q119.172 829.122 116.834 827.015 Q114.496 824.909 110.492 824.909 Q108.617 824.909 106.742 825.325 Q104.89 825.742 102.946 826.622 L102.946 809.261 Z" fill="#000000" fill-rule="evenodd" fill-opacity="1" /><path clip-path="url(#clip170)" d="M 0 0 M138.918 812.339 Q135.307 812.339 133.478 815.904 Q131.672 819.446 131.672 826.575 Q131.672 833.682 133.478 837.247 Q135.307 840.788 138.918 840.788 Q142.552 840.788 144.357 837.247 Q146.186 833.682 146.186 826.575 Q146.186 819.446 144.357 815.904 Q142.552 812.339 138.918 812.339 M138.918 808.636 Q144.728 808.636 147.783 813.242 Q150.862 817.826 150.862 826.575 Q150.862 835.302 147.783 839.909 Q144.728 844.492 138.918 844.492 Q133.107 844.492 130.029 839.909 Q126.973 835.302 126.973 826.575 Q126.973 817.826 130.029 813.242 Q133.107 808.636 138.918 808.636 Z" fill="#000000" fill-rule="evenodd" fill-opacity="1" /><path clip-path="url(#clip170)" d="M 0 0 M76.8346 502.752 Q73.2236 502.752 71.3949 506.317 Q69.5893 509.858 69.5893 516.988 Q69.5893 524.094 71.3949 527.659 Q73.2236 531.201 76.8346 531.201 Q80.4689 531.201 82.2744 527.659 Q84.1031 524.094 84.1031 516.988 Q84.1031 509.858 82.2744 506.317 Q80.4689 502.752 76.8346 502.752 M76.8346 499.048 Q82.6448 499.048 85.7003 503.655 Q88.779 508.238 88.779 516.988 Q88.779 525.715 85.7003 530.321 Q82.6448 534.905 76.8346 534.905 Q71.0245 534.905 67.9458 530.321 Q64.8903 525.715 64.8903 516.988 Q64.8903 508.238 67.9458 503.655 Q71.0245 499.048 76.8346 499.048 Z" fill="#000000" fill-rule="evenodd" fill-opacity="1" /><path clip-path="url(#clip170)" d="M 0 0 M93.8484 528.354 L98.7327 528.354 L98.7327 534.233 L93.8484 534.233 L93.8484 528.354 Z" fill="#000000" fill-rule="evenodd" fill-opacity="1" /><path clip-path="url(#clip170)" d="M 0 0 M102.622 499.673 L124.844 499.673 L124.844 501.664 L112.297 534.233 L107.413 534.233 L119.219 503.608 L102.622 503.608 L102.622 499.673 Z" fill="#000000" fill-rule="evenodd" fill-opacity="1" /><path clip-path="url(#clip170)" d="M 0 0 M129.959 499.673 L148.316 499.673 L148.316 503.608 L134.242 503.608 L134.242 512.081 Q135.26 511.733 136.279 511.571 Q137.297 511.386 138.316 511.386 Q144.103 511.386 147.482 514.557 Q150.862 517.729 150.862 523.145 Q150.862 528.724 147.39 531.826 Q143.918 534.905 137.598 534.905 Q135.422 534.905 133.154 534.534 Q130.908 534.164 128.501 533.423 L128.501 528.724 Q130.584 529.858 132.807 530.414 Q135.029 530.969 137.506 530.969 Q141.51 530.969 143.848 528.863 Q146.186 526.756 146.186 523.145 Q146.186 519.534 143.848 517.428 Q141.51 515.321 137.506 515.321 Q135.631 515.321 133.756 515.738 Q131.904 516.155 129.959 517.034 L129.959 499.673 Z" fill="#000000" fill-rule="evenodd" fill-opacity="1" /><path clip-path="url(#clip170)" d="M 0 0 M66.9736 220.711 L74.6124 220.711 L74.6124 194.345 L66.3023 196.012 L66.3023 191.752 L74.5661 190.086 L79.242 190.086 L79.242 220.711 L86.8809 220.711 L86.8809 224.646 L66.9736 224.646 L66.9736 220.711 Z" fill="#000000" fill-rule="evenodd" fill-opacity="1" /><path clip-path="url(#clip170)" d="M 0 0 M91.9503 218.766 L96.8345 218.766 L96.8345 224.646 L91.9503 224.646 L91.9503 218.766 Z" fill="#000000" fill-rule="evenodd" fill-opacity="1" /><path clip-path="url(#clip170)" d="M 0 0 M111.904 193.164 Q108.293 193.164 106.464 196.729 Q104.659 200.271 104.659 207.401 Q104.659 214.507 106.464 218.072 Q108.293 221.613 111.904 221.613 Q115.538 221.613 117.344 218.072 Q119.172 214.507 119.172 207.401 Q119.172 200.271 117.344 196.729 Q115.538 193.164 111.904 193.164 M111.904 189.461 Q117.714 189.461 120.77 194.067 Q123.848 198.651 123.848 207.401 Q123.848 216.127 120.77 220.734 Q117.714 225.317 111.904 225.317 Q106.094 225.317 103.015 220.734 Q99.9595 216.127 99.9595 207.401 Q99.9595 198.651 103.015 194.067 Q106.094 189.461 111.904 189.461 Z" fill="#000000" fill-rule="evenodd" fill-opacity="1" /><path clip-path="url(#clip170)" d="M 0 0 M138.918 193.164 Q135.307 193.164 133.478 196.729 Q131.672 200.271 131.672 207.401 Q131.672 214.507 133.478 218.072 Q135.307 221.613 138.918 221.613 Q142.552 221.613 144.357 218.072 Q146.186 214.507 146.186 207.401 Q146.186 200.271 144.357 196.729 Q142.552 193.164 138.918 193.164 M138.918 189.461 Q144.728 189.461 147.783 194.067 Q150.862 198.651 150.862 207.401 Q150.862 216.127 147.783 220.734 Q144.728 225.317 138.918 225.317 Q133.107 225.317 130.029 220.734 Q126.973 216.127 126.973 207.401 Q126.973 198.651 130.029 194.067 Q133.107 189.461 138.918 189.461 Z" fill="#000000" fill-rule="evenodd" fill-opacity="1" /><path clip-path="url(#clip172)" d="
M1672.35 702.706 L1424.68 1445.72 L1177.01 331.201 L1672.35 702.706  Z
  " fill="#008000" fill-rule="evenodd" fill-opacity="0.2"/>
<polyline clip-path="url(#clip172)" style="stroke:#000000; stroke-width:4; stroke-opacity:1; fill:none" points="
  1672.35,702.706 1424.68,1445.72 1177.01,331.201 1672.35,702.706 
  "/>
<circle clip-path="url(#clip172)" cx="1672.35" cy="702.706" r="14" fill="#ff0000" fill-rule="evenodd" fill-opacity="1" stroke="#000000" stroke-opacity="1" stroke-width="3.2"/>
<circle clip-path="url(#clip172)" cx="1424.68" cy="1445.72" r="14" fill="#ff0000" fill-rule="evenodd" fill-opacity="1" stroke="#000000" stroke-opacity="1" stroke-width="3.2"/>
<circle clip-path="url(#clip172)" cx="1177.01" cy="331.201" r="14" fill="#ff0000" fill-rule="evenodd" fill-opacity="1" stroke="#000000" stroke-opacity="1" stroke-width="3.2"/>
<path clip-path="url(#clip170)" d="M 0 0 M1672.35 632.143 L1661.25 662.241 L1683.49 662.241 L1672.35 632.143 M1667.73 624.082 L1677 624.082 L1700.05 684.562 L1691.55 684.562 L1686.04 669.047 L1658.77 669.047 L1653.27 684.562 L1644.64 684.562 L1667.73 624.082 Z" fill="#000000" fill-rule="evenodd" fill-opacity="1" /><path clip-path="url(#clip170)" d="M 0 0 M1411.41 1398.69 L1411.41 1420.85 L1424.53 1420.85 Q1431.14 1420.85 1434.3 1418.13 Q1437.5 1415.38 1437.5 1409.75 Q1437.5 1404.08 1434.3 1401.4 Q1431.14 1398.69 1424.53 1398.69 L1411.41 1398.69 M1411.41 1373.82 L1411.41 1392.05 L1423.52 1392.05 Q1429.52 1392.05 1432.43 1389.82 Q1435.39 1387.55 1435.39 1382.93 Q1435.39 1378.35 1432.43 1376.08 Q1429.52 1373.82 1423.52 1373.82 L1411.41 1373.82 M1403.23 1367.09 L1424.13 1367.09 Q1433.49 1367.09 1438.55 1370.98 Q1443.61 1374.87 1443.61 1382.04 Q1443.61 1387.59 1441.02 1390.87 Q1438.43 1394.15 1433.41 1394.96 Q1439.44 1396.26 1442.76 1400.39 Q1446.12 1404.48 1446.12 1410.64 Q1446.12 1418.74 1440.62 1423.16 Q1435.11 1427.57 1424.94 1427.57 L1403.23 1427.57 L1403.23 1367.09 Z" fill="#000000" fill-rule="evenodd" fill-opacity="1" /><path clip-path="url(#clip170)" d="M 0 0 M1201.39 257.235 L1201.39 265.864 Q1197.26 262.015 1192.56 260.111 Q1187.9 258.208 1182.64 258.208 Q1172.27 258.208 1166.76 264.567 Q1161.25 270.887 1161.25 282.878 Q1161.25 294.828 1166.76 301.188 Q1172.27 307.507 1182.64 307.507 Q1187.9 307.507 1192.56 305.603 Q1197.26 303.699 1201.39 299.851 L1201.39 308.398 Q1197.1 311.315 1192.28 312.773 Q1187.5 314.232 1182.15 314.232 Q1168.42 314.232 1160.52 305.846 Q1152.62 297.42 1152.62 282.878 Q1152.62 268.294 1160.52 259.909 Q1168.42 251.483 1182.15 251.483 Q1187.58 251.483 1192.36 252.941 Q1197.18 254.359 1201.39 257.235 Z" fill="#000000" fill-rule="evenodd" fill-opacity="1" /><path clip-path="url(#clip172)" d="
M1672.35 702.706 L1424.68 1445.72 L2191.98 1288.7 L1672.35 702.706  Z
  " fill="#ffc0cb" fill-rule="evenodd" fill-opacity="0.7"/>
<polyline clip-path="url(#clip172)" style="stroke:#000000; stroke-width:4; stroke-opacity:1; fill:none" points="
  1672.35,702.706 1424.68,1445.72 2191.98,1288.7 1672.35,702.706 
  "/>
<path clip-path="url(#clip172)" d="
M1177.01 331.201 L1672.35 702.706 L1746.41 87.9763 L1177.01 331.201  Z
  " fill="#ffc0cb" fill-rule="evenodd" fill-opacity="0.7"/>
<polyline clip-path="url(#clip172)" style="stroke:#000000; stroke-width:4; stroke-opacity:1; fill:none" points="
  1177.01,331.201 1672.35,702.706 1746.41,87.9763 1177.01,331.201 
  "/>
<path clip-path="url(#clip172)" d="
M1424.68 1445.72 L1177.01 331.201 L335.642 1102.95 L1424.68 1445.72  Z
  " fill="#ffc0cb" fill-rule="evenodd" fill-opacity="0.7"/>
<polyline clip-path="url(#clip172)" style="stroke:#000000; stroke-width:4; stroke-opacity:1; fill:none" points="
  1424.68,1445.72 1177.01,331.201 335.642,1102.95 1424.68,1445.72 
  "/>
<path clip-path="url(#clip172)" d="
M1763 1145.71 L1531.92 373.961 L979.108 959.954 L1763 1145.71  Z
  " fill="#0000ff" fill-rule="evenodd" fill-opacity="0.7"/>
<polyline clip-path="url(#clip172)" style="stroke:#000000; stroke-width:4; stroke-opacity:1; fill:none" points="
  1763,1145.71 1531.92,373.961 979.108,959.954 1763,1145.71 
  "/>
</svg>
