<?xml version="1.0" encoding="utf-8"?>
<svg xmlns="http://www.w3.org/2000/svg" xmlns:xlink="http://www.w3.org/1999/xlink" width="600" height="400" viewBox="0 0 2400 1600">
<defs>
  <clipPath id="clip690">
    <rect x="0" y="0" width="2400" height="1600"/>
  </clipPath>
</defs>
<path clip-path="url(#clip690)" d="
M0 1600 L2400 1600 L2400 0 L0 0  Z
  " fill="#ffffff" fill-rule="evenodd" fill-opacity="1"/>
<defs>
  <clipPath id="clip691">
    <rect x="480" y="0" width="1681" height="1600"/>
  </clipPath>
</defs>
<path clip-path="url(#clip690)" d="
M174.862 1486.45 L2352.76 1486.45 L2352.76 47.2441 L174.862 47.2441  Z
  " fill="#ffffff" fill-rule="evenodd" fill-opacity="1"/>
<defs>
  <clipPath id="clip692">
    <rect x="174" y="47" width="2179" height="1440"/>
  </clipPath>
</defs>
<polyline clip-path="url(#clip692)" style="stroke:#000000; stroke-width:2; stroke-opacity:0.1; fill:none" points="
  451.933,1486.45 451.933,47.2441 
  "/>
<polyline clip-path="url(#clip692)" style="stroke:#000000; stroke-width:2; stroke-opacity:0.1; fill:none" points="
  1054.93,1486.45 1054.93,47.2441 
  "/>
<polyline clip-path="url(#clip692)" style="stroke:#000000; stroke-width:2; stroke-opacity:0.1; fill:none" points="
  1657.92,1486.45 1657.92,47.2441 
  "/>
<polyline clip-path="url(#clip692)" style="stroke:#000000; stroke-width:2; stroke-opacity:0.1; fill:none" points="
  2260.91,1486.45 2260.91,47.2441 
  "/>
<polyline clip-path="url(#clip692)" style="stroke:#000000; stroke-width:2; stroke-opacity:0.1; fill:none" points="
  174.862,1422.06 2352.76,1422.06 
  "/>
<polyline clip-path="url(#clip692)" style="stroke:#000000; stroke-width:2; stroke-opacity:0.1; fill:none" points="
  174.862,1120.56 2352.76,1120.56 
  "/>
<polyline clip-path="url(#clip692)" style="stroke:#000000; stroke-width:2; stroke-opacity:0.1; fill:none" points="
  174.862,819.067 2352.76,819.067 
  "/>
<polyline clip-path="url(#clip692)" style="stroke:#000000; stroke-width:2; stroke-opacity:0.1; fill:none" points="
  174.862,517.57 2352.76,517.57 
  "/>
<polyline clip-path="url(#clip692)" style="stroke:#000000; stroke-width:2; stroke-opacity:0.1; fill:none" points="
  174.862,216.073 2352.76,216.073 
  "/>
<polyline clip-path="url(#clip690)" style="stroke:#000000; stroke-width:4; stroke-opacity:1; fill:none" points="
  174.862,1486.45 2352.76,1486.45 
  "/>
<polyline clip-path="url(#clip690)" style="stroke:#000000; stroke-width:4; stroke-opacity:1; fill:none" points="
  174.862,1486.45 174.862,47.2441 
  "/>
<polyline clip-path="url(#clip690)" style="stroke:#000000; stroke-width:4; stroke-opacity:1; fill:none" points="
  451.933,1486.45 451.933,1469.18 
  "/>
<polyline clip-path="url(#clip690)" style="stroke:#000000; stroke-width:4; stroke-opacity:1; fill:none" points="
  1054.93,1486.45 1054.93,1469.18 
  "/>
<polyline clip-path="url(#clip690)" style="stroke:#000000; stroke-width:4; stroke-opacity:1; fill:none" points="
  1657.92,1486.45 1657.92,1469.18 
  "/>
<polyline clip-path="url(#clip690)" style="stroke:#000000; stroke-width:4; stroke-opacity:1; fill:none" points="
  2260.91,1486.45 2260.91,1469.18 
  "/>
<polyline clip-path="url(#clip690)" style="stroke:#000000; stroke-width:4; stroke-opacity:1; fill:none" points="
  174.862,1422.06 200.997,1422.06 
  "/>
<polyline clip-path="url(#clip690)" style="stroke:#000000; stroke-width:4; stroke-opacity:1; fill:none" points="
  174.862,1120.56 200.997,1120.56 
  "/>
<polyline clip-path="url(#clip690)" style="stroke:#000000; stroke-width:4; stroke-opacity:1; fill:none" points="
  174.862,819.067 200.997,819.067 
  "/>
<polyline clip-path="url(#clip690)" style="stroke:#000000; stroke-width:4; stroke-opacity:1; fill:none" points="
  174.862,517.57 200.997,517.57 
  "/>
<polyline clip-path="url(#clip690)" style="stroke:#000000; stroke-width:4; stroke-opacity:1; fill:none" points="
  174.862,216.073 200.997,216.073 
  "/>
<path clip-path="url(#clip690)" d="M 0 0 M433.449 1508.44 Q429.838 1508.44 428.009 1512 Q426.204 1515.55 426.204 1522.67 Q426.204 1529.78 428.009 1533.35 Q429.838 1536.89 433.449 1536.89 Q437.083 1536.89 438.889 1533.35 Q440.718 1529.78 440.718 1522.67 Q440.718 1515.55 438.889 1512 Q437.083 1508.44 433.449 1508.44 M433.449 1504.73 Q439.259 1504.73 442.315 1509.34 Q445.393 1513.92 445.393 1522.67 Q445.393 1531.4 442.315 1536.01 Q439.259 1540.59 433.449 1540.59 Q427.639 1540.59 424.56 1536.01 Q421.505 1531.4 421.505 1522.67 Q421.505 1513.92 424.56 1509.34 Q427.639 1504.73 433.449 1504.73 Z" fill="#000000" fill-rule="evenodd" fill-opacity="1" /><path clip-path="url(#clip690)" d="M 0 0 M450.463 1534.04 L455.347 1534.04 L455.347 1539.92 L450.463 1539.92 L450.463 1534.04 Z" fill="#000000" fill-rule="evenodd" fill-opacity="1" /><path clip-path="url(#clip690)" d="M 0 0 M470.416 1508.44 Q466.805 1508.44 464.977 1512 Q463.171 1515.55 463.171 1522.67 Q463.171 1529.78 464.977 1533.35 Q466.805 1536.89 470.416 1536.89 Q474.051 1536.89 475.856 1533.35 Q477.685 1529.78 477.685 1522.67 Q477.685 1515.55 475.856 1512 Q474.051 1508.44 470.416 1508.44 M470.416 1504.73 Q476.227 1504.73 479.282 1509.34 Q482.361 1513.92 482.361 1522.67 Q482.361 1531.4 479.282 1536.01 Q476.227 1540.59 470.416 1540.59 Q464.606 1540.59 461.528 1536.01 Q458.472 1531.4 458.472 1522.67 Q458.472 1513.92 461.528 1509.34 Q464.606 1504.73 470.416 1504.73 Z" fill="#000000" fill-rule="evenodd" fill-opacity="1" /><path clip-path="url(#clip690)" d="M 0 0 M1036.94 1508.44 Q1033.33 1508.44 1031.5 1512 Q1029.69 1515.55 1029.69 1522.67 Q1029.69 1529.78 1031.5 1533.35 Q1033.33 1536.89 1036.94 1536.89 Q1040.57 1536.89 1042.38 1533.35 Q1044.21 1529.78 1044.21 1522.67 Q1044.21 1515.55 1042.38 1512 Q1040.57 1508.44 1036.94 1508.44 M1036.94 1504.73 Q1042.75 1504.73 1045.81 1509.34 Q1048.88 1513.92 1048.88 1522.67 Q1048.88 1531.4 1045.81 1536.01 Q1042.75 1540.59 1036.94 1540.59 Q1031.13 1540.59 1028.05 1536.01 Q1025 1531.4 1025 1522.67 Q1025 1513.92 1028.05 1509.34 Q1031.13 1504.73 1036.94 1504.73 Z" fill="#000000" fill-rule="evenodd" fill-opacity="1" /><path clip-path="url(#clip690)" d="M 0 0 M1053.95 1534.04 L1058.84 1534.04 L1058.84 1539.92 L1053.95 1539.92 L1053.95 1534.04 Z" fill="#000000" fill-rule="evenodd" fill-opacity="1" /><path clip-path="url(#clip690)" d="M 0 0 M1063.95 1505.36 L1082.31 1505.36 L1082.31 1509.3 L1068.24 1509.3 L1068.24 1517.77 Q1069.25 1517.42 1070.27 1517.26 Q1071.29 1517.07 1072.31 1517.07 Q1078.1 1517.07 1081.48 1520.24 Q1084.86 1523.42 1084.86 1528.83 Q1084.86 1534.41 1081.38 1537.51 Q1077.91 1540.59 1071.59 1540.59 Q1069.42 1540.59 1067.15 1540.22 Q1064.9 1539.85 1062.5 1539.11 L1062.5 1534.41 Q1064.58 1535.54 1066.8 1536.1 Q1069.02 1536.66 1071.5 1536.66 Q1075.5 1536.66 1077.84 1534.55 Q1080.18 1532.44 1080.18 1528.83 Q1080.18 1525.22 1077.84 1523.11 Q1075.5 1521.01 1071.5 1521.01 Q1069.62 1521.01 1067.75 1521.42 Q1065.9 1521.84 1063.95 1522.72 L1063.95 1505.36 Z" fill="#000000" fill-rule="evenodd" fill-opacity="1" /><path clip-path="url(#clip690)" d="M 0 0 M1629.82 1535.98 L1637.46 1535.98 L1637.46 1509.62 L1629.15 1511.29 L1629.15 1507.03 L1637.41 1505.36 L1642.09 1505.36 L1642.09 1535.98 L1649.72 1535.98 L1649.72 1539.92 L1629.82 1539.92 L1629.82 1535.98 Z" fill="#000000" fill-rule="evenodd" fill-opacity="1" /><path clip-path="url(#clip690)" d="M 0 0 M1654.79 1534.04 L1659.68 1534.04 L1659.68 1539.92 L1654.79 1539.92 L1654.79 1534.04 Z" fill="#000000" fill-rule="evenodd" fill-opacity="1" /><path clip-path="url(#clip690)" d="M 0 0 M1674.75 1508.44 Q1671.14 1508.44 1669.31 1512 Q1667.5 1515.55 1667.5 1522.67 Q1667.5 1529.78 1669.31 1533.35 Q1671.14 1536.89 1674.75 1536.89 Q1678.38 1536.89 1680.19 1533.35 Q1682.02 1529.78 1682.02 1522.67 Q1682.02 1515.55 1680.19 1512 Q1678.38 1508.44 1674.75 1508.44 M1674.75 1504.73 Q1680.56 1504.73 1683.61 1509.34 Q1686.69 1513.92 1686.69 1522.67 Q1686.69 1531.4 1683.61 1536.01 Q1680.56 1540.59 1674.75 1540.59 Q1668.94 1540.59 1665.86 1536.01 Q1662.8 1531.4 1662.8 1522.67 Q1662.8 1513.92 1665.86 1509.34 Q1668.94 1504.73 1674.75 1504.73 Z" fill="#000000" fill-rule="evenodd" fill-opacity="1" /><path clip-path="url(#clip690)" d="M 0 0 M2233.31 1535.98 L2240.95 1535.98 L2240.95 1509.62 L2232.64 1511.29 L2232.64 1507.03 L2240.9 1505.36 L2245.58 1505.36 L2245.58 1535.98 L2253.22 1535.98 L2253.22 1539.92 L2233.31 1539.92 L2233.31 1535.98 Z" fill="#000000" fill-rule="evenodd" fill-opacity="1" /><path clip-path="url(#clip690)" d="M 0 0 M2258.29 1534.04 L2263.17 1534.04 L2263.17 1539.92 L2258.29 1539.92 L2258.29 1534.04 Z" fill="#000000" fill-rule="evenodd" fill-opacity="1" /><path clip-path="url(#clip690)" d="M 0 0 M2268.29 1505.36 L2286.64 1505.36 L2286.64 1509.3 L2272.57 1509.3 L2272.57 1517.77 Q2273.59 1517.42 2274.6 1517.26 Q2275.62 1517.07 2276.64 1517.07 Q2282.43 1517.07 2285.81 1520.24 Q2289.19 1523.42 2289.19 1528.83 Q2289.19 1534.41 2285.72 1537.51 Q2282.24 1540.59 2275.92 1540.59 Q2273.75 1540.59 2271.48 1540.22 Q2269.23 1539.85 2266.83 1539.11 L2266.83 1534.41 Q2268.91 1535.54 2271.13 1536.1 Q2273.35 1536.66 2275.83 1536.66 Q2279.84 1536.66 2282.17 1534.55 Q2284.51 1532.44 2284.51 1528.83 Q2284.51 1525.22 2282.17 1523.11 Q2279.84 1521.01 2275.83 1521.01 Q2273.96 1521.01 2272.08 1521.42 Q2270.23 1521.84 2268.29 1522.72 L2268.29 1505.36 Z" fill="#000000" fill-rule="evenodd" fill-opacity="1" /><path clip-path="url(#clip690)" d="M 0 0 M74.9365 1407.86 Q71.3254 1407.86 69.4967 1411.42 Q67.6912 1414.97 67.6912 1422.09 Q67.6912 1429.2 69.4967 1432.77 Q71.3254 1436.31 74.9365 1436.31 Q78.5707 1436.31 80.3763 1432.77 Q82.205 1429.2 82.205 1422.09 Q82.205 1414.97 80.3763 1411.42 Q78.5707 1407.86 74.9365 1407.86 M74.9365 1404.15 Q80.7467 1404.15 83.8022 1408.76 Q86.8809 1413.34 86.8809 1422.09 Q86.8809 1430.82 83.8022 1435.43 Q80.7467 1440.01 74.9365 1440.01 Q69.1264 1440.01 66.0477 1435.43 Q62.9921 1430.82 62.9921 1422.09 Q62.9921 1413.34 66.0477 1408.76 Q69.1264 1404.15 74.9365 1404.15 Z" fill="#000000" fill-rule="evenodd" fill-opacity="1" /><path clip-path="url(#clip690)" d="M 0 0 M91.9503 1433.46 L96.8345 1433.46 L96.8345 1439.34 L91.9503 1439.34 L91.9503 1433.46 Z" fill="#000000" fill-rule="evenodd" fill-opacity="1" /><path clip-path="url(#clip690)" d="M 0 0 M111.904 1407.86 Q108.293 1407.86 106.464 1411.42 Q104.659 1414.97 104.659 1422.09 Q104.659 1429.2 106.464 1432.77 Q108.293 1436.31 111.904 1436.31 Q115.538 1436.31 117.344 1432.77 Q119.172 1429.2 119.172 1422.09 Q119.172 1414.97 117.344 1411.42 Q115.538 1407.86 111.904 1407.86 M111.904 1404.15 Q117.714 1404.15 120.77 1408.76 Q123.848 1413.34 123.848 1422.09 Q123.848 1430.82 120.77 1435.43 Q117.714 1440.01 111.904 1440.01 Q106.094 1440.01 103.015 1435.43 Q99.9595 1430.82 99.9595 1422.09 Q99.9595 1413.34 103.015 1408.76 Q106.094 1404.15 111.904 1404.15 Z" fill="#000000" fill-rule="evenodd" fill-opacity="1" /><path clip-path="url(#clip690)" d="M 0 0 M138.918 1407.86 Q135.307 1407.86 133.478 1411.42 Q131.672 1414.97 131.672 1422.09 Q131.672 1429.2 133.478 1432.77 Q135.307 1436.31 138.918 1436.31 Q142.552 1436.31 144.357 1432.77 Q146.186 1429.2 146.186 1422.09 Q146.186 1414.97 144.357 1411.42 Q142.552 1407.86 138.918 1407.86 M138.918 1404.15 Q144.728 1404.15 147.783 1408.76 Q150.862 1413.34 150.862 1422.09 Q150.862 1430.82 147.783 1435.43 Q144.728 1440.01 138.918 1440.01 Q133.107 1440.01 130.029 1435.43 Q126.973 1430.82 126.973 1422.09 Q126.973 1413.34 130.029 1408.76 Q133.107 1404.15 138.918 1404.15 Z" fill="#000000" fill-rule="evenodd" fill-opacity="1" /><path clip-path="url(#clip690)" d="M 0 0 M77.5291 1106.36 Q73.918 1106.36 72.0893 1109.93 Q70.2838 1113.47 70.2838 1120.6 Q70.2838 1127.7 72.0893 1131.27 Q73.918 1134.81 77.5291 1134.81 Q81.1633 1134.81 82.9689 1131.27 Q84.7976 1127.7 84.7976 1120.6 Q84.7976 1113.47 82.9689 1109.93 Q81.1633 1106.36 77.5291 1106.36 M77.5291 1102.66 Q83.3392 1102.66 86.3948 1107.26 Q89.4735 1111.85 89.4735 1120.6 Q89.4735 1129.32 86.3948 1133.93 Q83.3392 1138.51 77.5291 1138.51 Q71.7189 1138.51 68.6402 1133.93 Q65.5847 1129.32 65.5847 1120.6 Q65.5847 1111.85 68.6402 1107.26 Q71.7189 1102.66 77.5291 1102.66 Z" fill="#000000" fill-rule="evenodd" fill-opacity="1" /><path clip-path="url(#clip690)" d="M 0 0 M94.5429 1131.96 L99.4271 1131.96 L99.4271 1137.84 L94.5429 1137.84 L94.5429 1131.96 Z" fill="#000000" fill-rule="evenodd" fill-opacity="1" /><path clip-path="url(#clip690)" d="M 0 0 M108.524 1133.91 L124.844 1133.91 L124.844 1137.84 L102.899 1137.84 L102.899 1133.91 Q105.561 1131.15 110.145 1126.52 Q114.751 1121.87 115.932 1120.53 Q118.177 1118.01 119.057 1116.27 Q119.959 1114.51 119.959 1112.82 Q119.959 1110.07 118.015 1108.33 Q116.094 1106.59 112.992 1106.59 Q110.793 1106.59 108.339 1107.36 Q105.909 1108.12 103.131 1109.67 L103.131 1104.95 Q105.955 1103.82 108.409 1103.24 Q110.862 1102.66 112.899 1102.66 Q118.27 1102.66 121.464 1105.34 Q124.658 1108.03 124.658 1112.52 Q124.658 1114.65 123.848 1116.57 Q123.061 1118.47 120.955 1121.06 Q120.376 1121.73 117.274 1124.95 Q114.172 1128.14 108.524 1133.91 Z" fill="#000000" fill-rule="evenodd" fill-opacity="1" /><path clip-path="url(#clip690)" d="M 0 0 M129.959 1103.28 L148.316 1103.28 L148.316 1107.22 L134.242 1107.22 L134.242 1115.69 Q135.26 1115.34 136.279 1115.18 Q137.297 1115 138.316 1115 Q144.103 1115 147.482 1118.17 Q150.862 1121.34 150.862 1126.76 Q150.862 1132.33 147.39 1135.44 Q143.918 1138.51 137.598 1138.51 Q135.422 1138.51 133.154 1138.14 Q130.908 1137.77 128.501 1137.03 L128.501 1132.33 Q130.584 1133.47 132.807 1134.02 Q135.029 1134.58 137.506 1134.58 Q141.51 1134.58 143.848 1132.47 Q146.186 1130.37 146.186 1126.76 Q146.186 1123.14 143.848 1121.04 Q141.51 1118.93 137.506 1118.93 Q135.631 1118.93 133.756 1119.35 Q131.904 1119.76 129.959 1120.64 L129.959 1103.28 Z" fill="#000000" fill-rule="evenodd" fill-opacity="1" /><path clip-path="url(#clip690)" d="M 0 0 M75.9319 804.865 Q72.3208 804.865 70.4921 808.43 Q68.6865 811.972 68.6865 819.101 Q68.6865 826.208 70.4921 829.773 Q72.3208 833.314 75.9319 833.314 Q79.5661 833.314 81.3717 829.773 Q83.2004 826.208 83.2004 819.101 Q83.2004 811.972 81.3717 808.43 Q79.5661 804.865 75.9319 804.865 M75.9319 801.162 Q81.742 801.162 84.7976 805.768 Q87.8763 810.351 87.8763 819.101 Q87.8763 827.828 84.7976 832.435 Q81.742 837.018 75.9319 837.018 Q70.1217 837.018 67.043 832.435 Q63.9875 827.828 63.9875 819.101 Q63.9875 810.351 67.043 805.768 Q70.1217 801.162 75.9319 801.162 Z" fill="#000000" fill-rule="evenodd" fill-opacity="1" /><path clip-path="url(#clip690)" d="M 0 0 M92.9457 830.467 L97.8299 830.467 L97.8299 836.347 L92.9457 836.347 L92.9457 830.467 Z" fill="#000000" fill-rule="evenodd" fill-opacity="1" /><path clip-path="url(#clip690)" d="M 0 0 M102.946 801.787 L121.302 801.787 L121.302 805.722 L107.228 805.722 L107.228 814.194 Q108.247 813.847 109.265 813.685 Q110.284 813.5 111.302 813.5 Q117.089 813.5 120.469 816.671 Q123.848 819.842 123.848 825.259 Q123.848 830.838 120.376 833.939 Q116.904 837.018 110.584 837.018 Q108.409 837.018 106.14 836.648 Q103.895 836.277 101.487 835.537 L101.487 830.838 Q103.571 831.972 105.793 832.527 Q108.015 833.083 110.492 833.083 Q114.496 833.083 116.834 830.976 Q119.172 828.87 119.172 825.259 Q119.172 821.648 116.834 819.541 Q114.496 817.435 110.492 817.435 Q108.617 817.435 106.742 817.851 Q104.89 818.268 102.946 819.148 L102.946 801.787 Z" fill="#000000" fill-rule="evenodd" fill-opacity="1" /><path clip-path="url(#clip690)" d="M 0 0 M138.918 804.865 Q135.307 804.865 133.478 808.43 Q131.672 811.972 131.672 819.101 Q131.672 826.208 133.478 829.773 Q135.307 833.314 138.918 833.314 Q142.552 833.314 144.357 829.773 Q146.186 826.208 146.186 819.101 Q146.186 811.972 144.357 808.43 Q142.552 804.865 138.918 804.865 M138.918 801.162 Q144.728 801.162 147.783 805.768 Q150.862 810.351 150.862 819.101 Q150.862 827.828 147.783 832.435 Q144.728 837.018 138.918 837.018 Q133.107 837.018 130.029 832.435 Q126.973 827.828 126.973 819.101 Q126.973 810.351 130.029 805.768 Q133.107 801.162 138.918 801.162 Z" fill="#000000" fill-rule="evenodd" fill-opacity="1" /><path clip-path="url(#clip690)" d="M 0 0 M76.8346 503.369 Q73.2236 503.369 71.3949 506.934 Q69.5893 510.475 69.5893 517.605 Q69.5893 524.711 71.3949 528.276 Q73.2236 531.818 76.8346 531.818 Q80.4689 531.818 82.2744 528.276 Q84.1031 524.711 84.1031 517.605 Q84.1031 510.475 82.2744 506.934 Q80.4689 503.369 76.8346 503.369 M76.8346 499.665 Q82.6448 499.665 85.7003 504.272 Q88.779 508.855 88.779 517.605 Q88.779 526.332 85.7003 530.938 Q82.6448 535.521 76.8346 535.521 Q71.0245 535.521 67.9458 530.938 Q64.8903 526.332 64.8903 517.605 Q64.8903 508.855 67.9458 504.272 Q71.0245 499.665 76.8346 499.665 Z" fill="#000000" fill-rule="evenodd" fill-opacity="1" /><path clip-path="url(#clip690)" d="M 0 0 M93.8484 528.971 L98.7327 528.971 L98.7327 534.85 L93.8484 534.85 L93.8484 528.971 Z" fill="#000000" fill-rule="evenodd" fill-opacity="1" /><path clip-path="url(#clip690)" d="M 0 0 M102.622 500.29 L124.844 500.29 L124.844 502.281 L112.297 534.85 L107.413 534.85 L119.219 504.225 L102.622 504.225 L102.622 500.29 Z" fill="#000000" fill-rule="evenodd" fill-opacity="1" /><path clip-path="url(#clip690)" d="M 0 0 M129.959 500.29 L148.316 500.29 L148.316 504.225 L134.242 504.225 L134.242 512.697 Q135.26 512.35 136.279 512.188 Q137.297 512.003 138.316 512.003 Q144.103 512.003 147.482 515.174 Q150.862 518.346 150.862 523.762 Q150.862 529.341 147.39 532.443 Q143.918 535.521 137.598 535.521 Q135.422 535.521 133.154 535.151 Q130.908 534.781 128.501 534.04 L128.501 529.341 Q130.584 530.475 132.807 531.031 Q135.029 531.586 137.506 531.586 Q141.51 531.586 143.848 529.48 Q146.186 527.373 146.186 523.762 Q146.186 520.151 143.848 518.045 Q141.51 515.938 137.506 515.938 Q135.631 515.938 133.756 516.355 Q131.904 516.772 129.959 517.651 L129.959 500.29 Z" fill="#000000" fill-rule="evenodd" fill-opacity="1" /><path clip-path="url(#clip690)" d="M 0 0 M66.9736 229.418 L74.6124 229.418 L74.6124 203.053 L66.3023 204.719 L66.3023 200.46 L74.5661 198.793 L79.242 198.793 L79.242 229.418 L86.8809 229.418 L86.8809 233.353 L66.9736 233.353 L66.9736 229.418 Z" fill="#000000" fill-rule="evenodd" fill-opacity="1" /><path clip-path="url(#clip690)" d="M 0 0 M91.9503 227.474 L96.8345 227.474 L96.8345 233.353 L91.9503 233.353 L91.9503 227.474 Z" fill="#000000" fill-rule="evenodd" fill-opacity="1" /><path clip-path="url(#clip690)" d="M 0 0 M111.904 201.872 Q108.293 201.872 106.464 205.437 Q104.659 208.979 104.659 216.108 Q104.659 223.215 106.464 226.779 Q108.293 230.321 111.904 230.321 Q115.538 230.321 117.344 226.779 Q119.172 223.215 119.172 216.108 Q119.172 208.979 117.344 205.437 Q115.538 201.872 111.904 201.872 M111.904 198.168 Q117.714 198.168 120.77 202.775 Q123.848 207.358 123.848 216.108 Q123.848 224.835 120.77 229.441 Q117.714 234.025 111.904 234.025 Q106.094 234.025 103.015 229.441 Q99.9595 224.835 99.9595 216.108 Q99.9595 207.358 103.015 202.775 Q106.094 198.168 111.904 198.168 Z" fill="#000000" fill-rule="evenodd" fill-opacity="1" /><path clip-path="url(#clip690)" d="M 0 0 M138.918 201.872 Q135.307 201.872 133.478 205.437 Q131.672 208.979 131.672 216.108 Q131.672 223.215 133.478 226.779 Q135.307 230.321 138.918 230.321 Q142.552 230.321 144.357 226.779 Q146.186 223.215 146.186 216.108 Q146.186 208.979 144.357 205.437 Q142.552 201.872 138.918 201.872 M138.918 198.168 Q144.728 198.168 147.783 202.775 Q150.862 207.358 150.862 216.108 Q150.862 224.835 147.783 229.441 Q144.728 234.025 138.918 234.025 Q133.107 234.025 130.029 229.441 Q126.973 224.835 126.973 216.108 Q126.973 207.358 130.029 202.775 Q133.107 198.168 138.918 198.168 Z" fill="#000000" fill-rule="evenodd" fill-opacity="1" /><path clip-path="url(#clip692)" d="
M813.729 1060.26 L1657.92 577.869 L934.327 1060.26 L813.729 1060.26  Z
  " fill="#008000" fill-rule="evenodd" fill-opacity="0.2"/>
<polyline clip-path="url(#clip692)" style="stroke:#000000; stroke-width:4; stroke-opacity:1; fill:none" points="
  813.729,1060.26 1657.92,577.869 934.327,1060.26 813.729,1060.26 
  "/>
<circle clip-path="url(#clip692)" cx="813.729" cy="1060.26" r="14" fill="#ff0000" fill-rule="evenodd" fill-opacity="1" stroke="#000000" stroke-opacity="1" stroke-width="3.2"/>
<circle clip-path="url(#clip692)" cx="1657.92" cy="577.869" r="14" fill="#ff0000" fill-rule="evenodd" fill-opacity="1" stroke="#000000" stroke-opacity="1" stroke-width="3.2"/>
<circle clip-path="url(#clip692)" cx="934.327" cy="1060.26" r="14" fill="#ff0000" fill-rule="evenodd" fill-opacity="1" stroke="#000000" stroke-opacity="1" stroke-width="3.2"/>
<path clip-path="url(#clip690)" d="M 0 0 M813.729 989.701 L802.629 1019.8 L824.869 1019.8 L813.729 989.701 M809.111 981.64 L818.387 981.64 L841.437 1042.12 L832.93 1042.12 L827.421 1026.61 L800.158 1026.61 L794.649 1042.12 L786.02 1042.12 L809.111 981.64 Z" fill="#000000" fill-rule="evenodd" fill-opacity="1" /><path clip-path="url(#clip690)" d="M 0 0 M1644.65 530.842 L1644.65 553.001 L1657.78 553.001 Q1664.38 553.001 1667.54 550.287 Q1670.74 547.532 1670.74 541.901 Q1670.74 536.23 1667.54 533.557 Q1664.38 530.842 1657.78 530.842 L1644.65 530.842 M1644.65 505.97 L1644.65 524.199 L1656.76 524.199 Q1662.76 524.199 1665.68 521.971 Q1668.63 519.702 1668.63 515.084 Q1668.63 510.507 1665.68 508.238 Q1662.76 505.97 1656.76 505.97 L1644.65 505.97 M1636.47 499.245 L1657.37 499.245 Q1666.73 499.245 1671.79 503.134 Q1676.86 507.023 1676.86 514.193 Q1676.86 519.743 1674.26 523.024 Q1671.67 526.305 1666.65 527.116 Q1672.68 528.412 1676.01 532.544 Q1679.37 536.635 1679.37 542.793 Q1679.37 550.894 1673.86 555.31 Q1668.35 559.725 1658.18 559.725 L1636.47 559.725 L1636.47 499.245 Z" fill="#000000" fill-rule="evenodd" fill-opacity="1" /><path clip-path="url(#clip690)" d="M 0 0 M958.714 986.299 L958.714 994.927 Q954.582 991.079 949.883 989.175 Q945.224 987.271 939.958 987.271 Q929.588 987.271 924.079 993.631 Q918.569 999.95 918.569 1011.94 Q918.569 1023.89 924.079 1030.25 Q929.588 1036.57 939.958 1036.57 Q945.224 1036.57 949.883 1034.67 Q954.582 1032.76 958.714 1028.91 L958.714 1037.46 Q954.42 1040.38 949.599 1041.84 Q944.819 1043.29 939.472 1043.29 Q925.739 1043.29 917.84 1034.91 Q909.941 1026.48 909.941 1011.94 Q909.941 997.358 917.84 988.972 Q925.739 980.546 939.472 980.546 Q944.9 980.546 949.68 982.005 Q954.501 983.422 958.714 986.299 Z" fill="#000000" fill-rule="evenodd" fill-opacity="1" /><path clip-path="url(#clip692)" d="
M813.729 1060.26 L1657.92 577.869 L818.058 87.9763 L813.729 1060.26  Z
  " fill="#ffc0cb" fill-rule="evenodd" fill-opacity="0.7"/>
<polyline clip-path="url(#clip692)" style="stroke:#000000; stroke-width:4; stroke-opacity:1; fill:none" points="
  813.729,1060.26 1657.92,577.869 818.058,87.9763 813.729,1060.26 
  "/>
<path clip-path="url(#clip692)" d="
M934.327 1060.26 L813.729 1060.26 L874.028 1164.71 L934.327 1060.26  Z
  " fill="#ffc0cb" fill-rule="evenodd" fill-opacity="0.7"/>
<polyline clip-path="url(#clip692)" style="stroke:#000000; stroke-width:4; stroke-opacity:1; fill:none" points="
  934.327,1060.26 813.729,1060.26 874.028,1164.71 934.327,1060.26 
  "/>
<path clip-path="url(#clip692)" d="
M1657.92 577.869 L934.327 1060.26 L1713.89 1445.72 L1657.92 577.869  Z
  " fill="#ffc0cb" fill-rule="evenodd" fill-opacity="0.7"/>
<polyline clip-path="url(#clip692)" style="stroke:#000000; stroke-width:4; stroke-opacity:1; fill:none" points="
  1657.92,577.869 934.327,1060.26 1713.89,1445.72 1657.92,577.869 
  "/>
<path clip-path="url(#clip692)" d="
M1096.57 575.37 L874.028 1095.08 L1435.38 1027.95 L1096.57 575.37  Z
  " fill="#0000ff" fill-rule="evenodd" fill-opacity="0.7"/>
<polyline clip-path="url(#clip692)" style="stroke:#000000; stroke-width:4; stroke-opacity:1; fill:none" points="
  1096.57,575.37 874.028,1095.08 1435.38,1027.95 1096.57,575.37 
  "/>
</svg>
