<?xml version="1.0" encoding="utf-8"?>
<svg xmlns="http://www.w3.org/2000/svg" xmlns:xlink="http://www.w3.org/1999/xlink" width="600" height="400" viewBox="0 0 2400 1600">
<defs>
  <clipPath id="clip080">
    <rect x="0" y="0" width="2400" height="1600"/>
  </clipPath>
</defs>
<path clip-path="url(#clip080)" d="
M0 1600 L2400 1600 L2400 0 L0 0  Z
  " fill="#ffffff" fill-rule="evenodd" fill-opacity="1"/>
<defs>
  <clipPath id="clip081">
    <rect x="480" y="0" width="1681" height="1600"/>
  </clipPath>
</defs>
<path clip-path="url(#clip080)" d="
M174.862 1486.45 L2352.76 1486.45 L2352.76 47.2441 L174.862 47.2441  Z
  " fill="#ffffff" fill-rule="evenodd" fill-opacity="1"/>
<defs>
  <clipPath id="clip082">
    <rect x="174" y="47" width="2179" height="1440"/>
  </clipPath>
</defs>
<polyline clip-path="url(#clip082)" style="stroke:#000000; stroke-width:2; stroke-opacity:0.1; fill:none" points="
  494.226,1486.45 494.226,47.2441 
  "/>
<polyline clip-path="url(#clip082)" style="stroke:#000000; stroke-width:2; stroke-opacity:0.1; fill:none" points="
  900.481,1486.45 900.481,47.2441 
  "/>
<polyline clip-path="url(#clip082)" style="stroke:#000000; stroke-width:2; stroke-opacity:0.1; fill:none" points="
  1306.73,1486.45 1306.73,47.2441 
  "/>
<polyline clip-path="url(#clip082)" style="stroke:#000000; stroke-width:2; stroke-opacity:0.1; fill:none" points="
  1712.99,1486.45 1712.99,47.2441 
  "/>
<polyline clip-path="url(#clip082)" style="stroke:#000000; stroke-width:2; stroke-opacity:0.1; fill:none" points="
  2119.24,1486.45 2119.24,47.2441 
  "/>
<polyline clip-path="url(#clip082)" style="stroke:#000000; stroke-width:2; stroke-opacity:0.1; fill:none" points="
  174.862,1419.15 2352.76,1419.15 
  "/>
<polyline clip-path="url(#clip082)" style="stroke:#000000; stroke-width:2; stroke-opacity:0.1; fill:none" points="
  174.862,1080.61 2352.76,1080.61 
  "/>
<polyline clip-path="url(#clip082)" style="stroke:#000000; stroke-width:2; stroke-opacity:0.1; fill:none" points="
  174.862,742.063 2352.76,742.063 
  "/>
<polyline clip-path="url(#clip082)" style="stroke:#000000; stroke-width:2; stroke-opacity:0.1; fill:none" points="
  174.862,403.518 2352.76,403.518 
  "/>
<polyline clip-path="url(#clip082)" style="stroke:#000000; stroke-width:2; stroke-opacity:0.1; fill:none" points="
  174.862,64.9724 2352.76,64.9724 
  "/>
<polyline clip-path="url(#clip080)" style="stroke:#000000; stroke-width:4; stroke-opacity:1; fill:none" points="
  174.862,1486.45 2352.76,1486.45 
  "/>
<polyline clip-path="url(#clip080)" style="stroke:#000000; stroke-width:4; stroke-opacity:1; fill:none" points="
  174.862,1486.45 174.862,47.2441 
  "/>
<polyline clip-path="url(#clip080)" style="stroke:#000000; stroke-width:4; stroke-opacity:1; fill:none" points="
  494.226,1486.45 494.226,1469.18 
  "/>
<polyline clip-path="url(#clip080)" style="stroke:#000000; stroke-width:4; stroke-opacity:1; fill:none" points="
  900.481,1486.45 900.481,1469.18 
  "/>
<polyline clip-path="url(#clip080)" style="stroke:#000000; stroke-width:4; stroke-opacity:1; fill:none" points="
  1306.73,1486.45 1306.73,1469.18 
  "/>
<polyline clip-path="url(#clip080)" style="stroke:#000000; stroke-width:4; stroke-opacity:1; fill:none" points="
  1712.99,1486.45 1712.99,1469.18 
  "/>
<polyline clip-path="url(#clip080)" style="stroke:#000000; stroke-width:4; stroke-opacity:1; fill:none" points="
  2119.24,1486.45 2119.24,1469.18 
  "/>
<polyline clip-path="url(#clip080)" style="stroke:#000000; stroke-width:4; stroke-opacity:1; fill:none" points="
  174.862,1419.15 200.997,1419.15 
  "/>
<polyline clip-path="url(#clip080)" style="stroke:#000000; stroke-width:4; stroke-opacity:1; fill:none" points="
  174.862,1080.61 200.997,1080.61 
  "/>
<polyline clip-path="url(#clip080)" style="stroke:#000000; stroke-width:4; stroke-opacity:1; fill:none" points="
  174.862,742.063 200.997,742.063 
  "/>
<polyline clip-path="url(#clip080)" style="stroke:#000000; stroke-width:4; stroke-opacity:1; fill:none" points="
  174.862,403.518 200.997,403.518 
  "/>
<polyline clip-path="url(#clip080)" style="stroke:#000000; stroke-width:4; stroke-opacity:1; fill:none" points="
  174.862,64.9724 200.997,64.9724 
  "/>
<path clip-path="url(#clip080)" d="M 0 0 M475.743 1508.44 Q472.132 1508.44 470.303 1512 Q468.497 1515.55 468.497 1522.67 Q468.497 1529.78 470.303 1533.35 Q472.132 1536.89 475.743 1536.89 Q479.377 1536.89 481.182 1533.35 Q483.011 1529.78 483.011 1522.67 Q483.011 1515.55 481.182 1512 Q479.377 1508.44 475.743 1508.44 M475.743 1504.73 Q481.553 1504.73 484.608 1509.34 Q487.687 1513.92 487.687 1522.67 Q487.687 1531.4 484.608 1536.01 Q481.553 1540.59 475.743 1540.59 Q469.933 1540.59 466.854 1536.01 Q463.798 1531.4 463.798 1522.67 Q463.798 1513.92 466.854 1509.34 Q469.933 1504.73 475.743 1504.73 Z" fill="#000000" fill-rule="evenodd" fill-opacity="1" /><path clip-path="url(#clip080)" d="M 0 0 M492.756 1534.04 L497.641 1534.04 L497.641 1539.92 L492.756 1539.92 L492.756 1534.04 Z" fill="#000000" fill-rule="evenodd" fill-opacity="1" /><path clip-path="url(#clip080)" d="M 0 0 M512.71 1508.44 Q509.099 1508.44 507.27 1512 Q505.465 1515.55 505.465 1522.67 Q505.465 1529.78 507.27 1533.35 Q509.099 1536.89 512.71 1536.89 Q516.344 1536.89 518.15 1533.35 Q519.979 1529.78 519.979 1522.67 Q519.979 1515.55 518.15 1512 Q516.344 1508.44 512.71 1508.44 M512.71 1504.73 Q518.52 1504.73 521.576 1509.34 Q524.654 1513.92 524.654 1522.67 Q524.654 1531.4 521.576 1536.01 Q518.52 1540.59 512.71 1540.59 Q506.9 1540.59 503.821 1536.01 Q500.766 1531.4 500.766 1522.67 Q500.766 1513.92 503.821 1509.34 Q506.9 1504.73 512.71 1504.73 Z" fill="#000000" fill-rule="evenodd" fill-opacity="1" /><path clip-path="url(#clip080)" d="M 0 0 M882.321 1508.44 Q878.71 1508.44 876.881 1512 Q875.076 1515.55 875.076 1522.67 Q875.076 1529.78 876.881 1533.35 Q878.71 1536.89 882.321 1536.89 Q885.955 1536.89 887.761 1533.35 Q889.589 1529.78 889.589 1522.67 Q889.589 1515.55 887.761 1512 Q885.955 1508.44 882.321 1508.44 M882.321 1504.73 Q888.131 1504.73 891.187 1509.34 Q894.265 1513.92 894.265 1522.67 Q894.265 1531.4 891.187 1536.01 Q888.131 1540.59 882.321 1540.59 Q876.511 1540.59 873.432 1536.01 Q870.377 1531.4 870.377 1522.67 Q870.377 1513.92 873.432 1509.34 Q876.511 1504.73 882.321 1504.73 Z" fill="#000000" fill-rule="evenodd" fill-opacity="1" /><path clip-path="url(#clip080)" d="M 0 0 M899.335 1534.04 L904.219 1534.04 L904.219 1539.92 L899.335 1539.92 L899.335 1534.04 Z" fill="#000000" fill-rule="evenodd" fill-opacity="1" /><path clip-path="url(#clip080)" d="M 0 0 M923.455 1521.29 Q926.811 1522 928.686 1524.27 Q930.585 1526.54 930.585 1529.87 Q930.585 1534.99 927.066 1537.79 Q923.548 1540.59 917.066 1540.59 Q914.89 1540.59 912.575 1540.15 Q910.284 1539.73 907.83 1538.88 L907.83 1534.36 Q909.774 1535.5 912.089 1536.08 Q914.404 1536.66 916.927 1536.66 Q921.325 1536.66 923.617 1534.92 Q925.932 1533.18 925.932 1529.87 Q925.932 1526.82 923.779 1525.11 Q921.649 1523.37 917.83 1523.37 L913.802 1523.37 L913.802 1519.53 L918.015 1519.53 Q921.464 1519.53 923.293 1518.16 Q925.122 1516.77 925.122 1514.18 Q925.122 1511.52 923.223 1510.11 Q921.349 1508.67 917.83 1508.67 Q915.909 1508.67 913.71 1509.09 Q911.511 1509.5 908.872 1510.38 L908.872 1506.22 Q911.534 1505.48 913.849 1505.11 Q916.186 1504.73 918.247 1504.73 Q923.571 1504.73 926.673 1507.17 Q929.774 1509.57 929.774 1513.69 Q929.774 1516.56 928.131 1518.55 Q926.487 1520.52 923.455 1521.29 Z" fill="#000000" fill-rule="evenodd" fill-opacity="1" /><path clip-path="url(#clip080)" d="M 0 0 M1288.17 1508.44 Q1284.56 1508.44 1282.73 1512 Q1280.92 1515.55 1280.92 1522.67 Q1280.92 1529.78 1282.73 1533.35 Q1284.56 1536.89 1288.17 1536.89 Q1291.8 1536.89 1293.61 1533.35 Q1295.44 1529.78 1295.44 1522.67 Q1295.44 1515.55 1293.61 1512 Q1291.8 1508.44 1288.17 1508.44 M1288.17 1504.73 Q1293.98 1504.73 1297.04 1509.34 Q1300.11 1513.92 1300.11 1522.67 Q1300.11 1531.4 1297.04 1536.01 Q1293.98 1540.59 1288.17 1540.59 Q1282.36 1540.59 1279.28 1536.01 Q1276.23 1531.4 1276.23 1522.67 Q1276.23 1513.92 1279.28 1509.34 Q1282.36 1504.73 1288.17 1504.73 Z" fill="#000000" fill-rule="evenodd" fill-opacity="1" /><path clip-path="url(#clip080)" d="M 0 0 M1305.18 1534.04 L1310.07 1534.04 L1310.07 1539.92 L1305.18 1539.92 L1305.18 1534.04 Z" fill="#000000" fill-rule="evenodd" fill-opacity="1" /><path clip-path="url(#clip080)" d="M 0 0 M1325.72 1520.78 Q1322.57 1520.78 1320.72 1522.93 Q1318.89 1525.08 1318.89 1528.83 Q1318.89 1532.56 1320.72 1534.73 Q1322.57 1536.89 1325.72 1536.89 Q1328.86 1536.89 1330.69 1534.73 Q1332.54 1532.56 1332.54 1528.83 Q1332.54 1525.08 1330.69 1522.93 Q1328.86 1520.78 1325.72 1520.78 M1335 1506.12 L1335 1510.38 Q1333.24 1509.55 1331.43 1509.11 Q1329.65 1508.67 1327.89 1508.67 Q1323.26 1508.67 1320.81 1511.8 Q1318.38 1514.92 1318.03 1521.24 Q1319.4 1519.23 1321.46 1518.16 Q1323.52 1517.07 1325.99 1517.07 Q1331.2 1517.07 1334.21 1520.24 Q1337.24 1523.39 1337.24 1528.83 Q1337.24 1534.16 1334.1 1537.37 Q1330.95 1540.59 1325.72 1540.59 Q1319.72 1540.59 1316.55 1536.01 Q1313.38 1531.4 1313.38 1522.67 Q1313.38 1514.48 1317.27 1509.62 Q1321.16 1504.73 1327.71 1504.73 Q1329.47 1504.73 1331.25 1505.08 Q1333.05 1505.43 1335 1506.12 Z" fill="#000000" fill-rule="evenodd" fill-opacity="1" /><path clip-path="url(#clip080)" d="M 0 0 M1694.6 1508.44 Q1690.99 1508.44 1689.16 1512 Q1687.35 1515.55 1687.35 1522.67 Q1687.35 1529.78 1689.16 1533.35 Q1690.99 1536.89 1694.6 1536.89 Q1698.23 1536.89 1700.04 1533.35 Q1701.87 1529.78 1701.87 1522.67 Q1701.87 1515.55 1700.04 1512 Q1698.23 1508.44 1694.6 1508.44 M1694.6 1504.73 Q1700.41 1504.73 1703.46 1509.34 Q1706.54 1513.92 1706.54 1522.67 Q1706.54 1531.4 1703.46 1536.01 Q1700.41 1540.59 1694.6 1540.59 Q1688.79 1540.59 1685.71 1536.01 Q1682.65 1531.4 1682.65 1522.67 Q1682.65 1513.92 1685.71 1509.34 Q1688.79 1504.73 1694.6 1504.73 Z" fill="#000000" fill-rule="evenodd" fill-opacity="1" /><path clip-path="url(#clip080)" d="M 0 0 M1711.61 1534.04 L1716.5 1534.04 L1716.5 1539.92 L1711.61 1539.92 L1711.61 1534.04 Z" fill="#000000" fill-rule="evenodd" fill-opacity="1" /><path clip-path="url(#clip080)" d="M 0 0 M1721.7 1539.2 L1721.7 1534.94 Q1723.46 1535.78 1725.27 1536.22 Q1727.07 1536.66 1728.81 1536.66 Q1733.44 1536.66 1735.87 1533.55 Q1738.32 1530.43 1738.67 1524.09 Q1737.33 1526.08 1735.27 1527.14 Q1733.21 1528.21 1730.71 1528.21 Q1725.52 1528.21 1722.49 1525.08 Q1719.48 1521.93 1719.48 1516.49 Q1719.48 1511.17 1722.63 1507.95 Q1725.78 1504.73 1731.01 1504.73 Q1737.01 1504.73 1740.15 1509.34 Q1743.32 1513.92 1743.32 1522.67 Q1743.32 1530.85 1739.44 1535.73 Q1735.57 1540.59 1729.02 1540.59 Q1727.26 1540.59 1725.45 1540.24 Q1723.65 1539.9 1721.7 1539.2 M1731.01 1524.55 Q1734.16 1524.55 1735.99 1522.4 Q1737.84 1520.24 1737.84 1516.49 Q1737.84 1512.77 1735.99 1510.61 Q1734.16 1508.44 1731.01 1508.44 Q1727.86 1508.44 1726.01 1510.61 Q1724.18 1512.77 1724.18 1516.49 Q1724.18 1520.24 1726.01 1522.4 Q1727.86 1524.55 1731.01 1524.55 Z" fill="#000000" fill-rule="evenodd" fill-opacity="1" /><path clip-path="url(#clip080)" d="M 0 0 M2091.94 1535.98 L2099.58 1535.98 L2099.58 1509.62 L2091.27 1511.29 L2091.27 1507.03 L2099.53 1505.36 L2104.21 1505.36 L2104.21 1535.98 L2111.85 1535.98 L2111.85 1539.92 L2091.94 1539.92 L2091.94 1535.98 Z" fill="#000000" fill-rule="evenodd" fill-opacity="1" /><path clip-path="url(#clip080)" d="M 0 0 M2116.92 1534.04 L2121.8 1534.04 L2121.8 1539.92 L2116.92 1539.92 L2116.92 1534.04 Z" fill="#000000" fill-rule="evenodd" fill-opacity="1" /><path clip-path="url(#clip080)" d="M 0 0 M2130.9 1535.98 L2147.22 1535.98 L2147.22 1539.92 L2125.27 1539.92 L2125.27 1535.98 Q2127.94 1533.23 2132.52 1528.6 Q2137.13 1523.95 2138.31 1522.61 Q2140.55 1520.08 2141.43 1518.35 Q2142.33 1516.59 2142.33 1514.9 Q2142.33 1512.14 2140.39 1510.41 Q2138.47 1508.67 2135.37 1508.67 Q2133.17 1508.67 2130.71 1509.43 Q2128.28 1510.2 2125.5 1511.75 L2125.5 1507.03 Q2128.33 1505.89 2130.78 1505.31 Q2133.24 1504.73 2135.27 1504.73 Q2140.64 1504.73 2143.84 1507.42 Q2147.03 1510.11 2147.03 1514.6 Q2147.03 1516.73 2146.22 1518.65 Q2145.44 1520.54 2143.33 1523.14 Q2142.75 1523.81 2139.65 1527.03 Q2136.55 1530.22 2130.9 1535.98 Z" fill="#000000" fill-rule="evenodd" fill-opacity="1" /><path clip-path="url(#clip080)" d="M 0 0 M74.9365 1404.95 Q71.3254 1404.95 69.4967 1408.52 Q67.6912 1412.06 67.6912 1419.19 Q67.6912 1426.29 69.4967 1429.86 Q71.3254 1433.4 74.9365 1433.4 Q78.5707 1433.4 80.3763 1429.86 Q82.205 1426.29 82.205 1419.19 Q82.205 1412.06 80.3763 1408.52 Q78.5707 1404.95 74.9365 1404.95 M74.9365 1401.25 Q80.7467 1401.25 83.8022 1405.85 Q86.8809 1410.44 86.8809 1419.19 Q86.8809 1427.91 83.8022 1432.52 Q80.7467 1437.1 74.9365 1437.1 Q69.1264 1437.1 66.0477 1432.52 Q62.9921 1427.91 62.9921 1419.19 Q62.9921 1410.44 66.0477 1405.85 Q69.1264 1401.25 74.9365 1401.25 Z" fill="#000000" fill-rule="evenodd" fill-opacity="1" /><path clip-path="url(#clip080)" d="M 0 0 M91.9503 1430.55 L96.8345 1430.55 L96.8345 1436.43 L91.9503 1436.43 L91.9503 1430.55 Z" fill="#000000" fill-rule="evenodd" fill-opacity="1" /><path clip-path="url(#clip080)" d="M 0 0 M111.904 1404.95 Q108.293 1404.95 106.464 1408.52 Q104.659 1412.06 104.659 1419.19 Q104.659 1426.29 106.464 1429.86 Q108.293 1433.4 111.904 1433.4 Q115.538 1433.4 117.344 1429.86 Q119.172 1426.29 119.172 1419.19 Q119.172 1412.06 117.344 1408.52 Q115.538 1404.95 111.904 1404.95 M111.904 1401.25 Q117.714 1401.25 120.77 1405.85 Q123.848 1410.44 123.848 1419.19 Q123.848 1427.91 120.77 1432.52 Q117.714 1437.1 111.904 1437.1 Q106.094 1437.1 103.015 1432.52 Q99.9595 1427.91 99.9595 1419.19 Q99.9595 1410.44 103.015 1405.85 Q106.094 1401.25 111.904 1401.25 Z" fill="#000000" fill-rule="evenodd" fill-opacity="1" /><path clip-path="url(#clip080)" d="M 0 0 M138.918 1404.95 Q135.307 1404.95 133.478 1408.52 Q131.672 1412.06 131.672 1419.19 Q131.672 1426.29 133.478 1429.86 Q135.307 1433.4 138.918 1433.4 Q142.552 1433.4 144.357 1429.86 Q146.186 1426.29 146.186 1419.19 Q146.186 1412.06 144.357 1408.52 Q142.552 1404.95 138.918 1404.95 M138.918 1401.25 Q144.728 1401.25 147.783 1405.85 Q150.862 1410.44 150.862 1419.19 Q150.862 1427.91 147.783 1432.52 Q144.728 1437.1 138.918 1437.1 Q133.107 1437.1 130.029 1432.52 Q126.973 1427.91 126.973 1419.19 Q126.973 1410.44 130.029 1405.85 Q133.107 1401.25 138.918 1401.25 Z" fill="#000000" fill-rule="evenodd" fill-opacity="1" /><path clip-path="url(#clip080)" d="M 0 0 M77.5291 1066.41 Q73.918 1066.41 72.0893 1069.97 Q70.2838 1073.51 70.2838 1080.64 Q70.2838 1087.75 72.0893 1091.31 Q73.918 1094.86 77.5291 1094.86 Q81.1633 1094.86 82.9689 1091.31 Q84.7976 1087.75 84.7976 1080.64 Q84.7976 1073.51 82.9689 1069.97 Q81.1633 1066.41 77.5291 1066.41 M77.5291 1062.7 Q83.3392 1062.7 86.3948 1067.31 Q89.4735 1071.89 89.4735 1080.64 Q89.4735 1089.37 86.3948 1093.98 Q83.3392 1098.56 77.5291 1098.56 Q71.7189 1098.56 68.6402 1093.98 Q65.5847 1089.37 65.5847 1080.64 Q65.5847 1071.89 68.6402 1067.31 Q71.7189 1062.7 77.5291 1062.7 Z" fill="#000000" fill-rule="evenodd" fill-opacity="1" /><path clip-path="url(#clip080)" d="M 0 0 M94.5429 1092.01 L99.4271 1092.01 L99.4271 1097.89 L94.5429 1097.89 L94.5429 1092.01 Z" fill="#000000" fill-rule="evenodd" fill-opacity="1" /><path clip-path="url(#clip080)" d="M 0 0 M108.524 1093.95 L124.844 1093.95 L124.844 1097.89 L102.899 1097.89 L102.899 1093.95 Q105.561 1091.2 110.145 1086.57 Q114.751 1081.92 115.932 1080.57 Q118.177 1078.05 119.057 1076.31 Q119.959 1074.55 119.959 1072.86 Q119.959 1070.11 118.015 1068.37 Q116.094 1066.64 112.992 1066.64 Q110.793 1066.64 108.339 1067.4 Q105.909 1068.17 103.131 1069.72 L103.131 1064.99 Q105.955 1063.86 108.409 1063.28 Q110.862 1062.7 112.899 1062.7 Q118.27 1062.7 121.464 1065.39 Q124.658 1068.07 124.658 1072.56 Q124.658 1074.69 123.848 1076.61 Q123.061 1078.51 120.955 1081.11 Q120.376 1081.78 117.274 1084.99 Q114.172 1088.19 108.524 1093.95 Z" fill="#000000" fill-rule="evenodd" fill-opacity="1" /><path clip-path="url(#clip080)" d="M 0 0 M129.959 1063.33 L148.316 1063.33 L148.316 1067.26 L134.242 1067.26 L134.242 1075.74 Q135.26 1075.39 136.279 1075.23 Q137.297 1075.04 138.316 1075.04 Q144.103 1075.04 147.482 1078.21 Q150.862 1081.38 150.862 1086.8 Q150.862 1092.38 147.39 1095.48 Q143.918 1098.56 137.598 1098.56 Q135.422 1098.56 133.154 1098.19 Q130.908 1097.82 128.501 1097.08 L128.501 1092.38 Q130.584 1093.51 132.807 1094.07 Q135.029 1094.62 137.506 1094.62 Q141.51 1094.62 143.848 1092.52 Q146.186 1090.41 146.186 1086.8 Q146.186 1083.19 143.848 1081.08 Q141.51 1078.98 137.506 1078.98 Q135.631 1078.98 133.756 1079.39 Q131.904 1079.81 129.959 1080.69 L129.959 1063.33 Z" fill="#000000" fill-rule="evenodd" fill-opacity="1" /><path clip-path="url(#clip080)" d="M 0 0 M75.9319 727.861 Q72.3208 727.861 70.4921 731.426 Q68.6865 734.968 68.6865 742.097 Q68.6865 749.204 70.4921 752.769 Q72.3208 756.31 75.9319 756.31 Q79.5661 756.31 81.3717 752.769 Q83.2004 749.204 83.2004 742.097 Q83.2004 734.968 81.3717 731.426 Q79.5661 727.861 75.9319 727.861 M75.9319 724.158 Q81.742 724.158 84.7976 728.764 Q87.8763 733.348 87.8763 742.097 Q87.8763 750.824 84.7976 755.431 Q81.742 760.014 75.9319 760.014 Q70.1217 760.014 67.043 755.431 Q63.9875 750.824 63.9875 742.097 Q63.9875 733.348 67.043 728.764 Q70.1217 724.158 75.9319 724.158 Z" fill="#000000" fill-rule="evenodd" fill-opacity="1" /><path clip-path="url(#clip080)" d="M 0 0 M92.9457 753.463 L97.8299 753.463 L97.8299 759.343 L92.9457 759.343 L92.9457 753.463 Z" fill="#000000" fill-rule="evenodd" fill-opacity="1" /><path clip-path="url(#clip080)" d="M 0 0 M102.946 724.783 L121.302 724.783 L121.302 728.718 L107.228 728.718 L107.228 737.19 Q108.247 736.843 109.265 736.681 Q110.284 736.496 111.302 736.496 Q117.089 736.496 120.469 739.667 Q123.848 742.838 123.848 748.255 Q123.848 753.834 120.376 756.935 Q116.904 760.014 110.584 760.014 Q108.409 760.014 106.14 759.644 Q103.895 759.273 101.487 758.533 L101.487 753.834 Q103.571 754.968 105.793 755.523 Q108.015 756.079 110.492 756.079 Q114.496 756.079 116.834 753.972 Q119.172 751.866 119.172 748.255 Q119.172 744.644 116.834 742.537 Q114.496 740.431 110.492 740.431 Q108.617 740.431 106.742 740.847 Q104.89 741.264 102.946 742.144 L102.946 724.783 Z" fill="#000000" fill-rule="evenodd" fill-opacity="1" /><path clip-path="url(#clip080)" d="M 0 0 M138.918 727.861 Q135.307 727.861 133.478 731.426 Q131.672 734.968 131.672 742.097 Q131.672 749.204 133.478 752.769 Q135.307 756.31 138.918 756.31 Q142.552 756.31 144.357 752.769 Q146.186 749.204 146.186 742.097 Q146.186 734.968 144.357 731.426 Q142.552 727.861 138.918 727.861 M138.918 724.158 Q144.728 724.158 147.783 728.764 Q150.862 733.348 150.862 742.097 Q150.862 750.824 147.783 755.431 Q144.728 760.014 138.918 760.014 Q133.107 760.014 130.029 755.431 Q126.973 750.824 126.973 742.097 Q126.973 733.348 130.029 728.764 Q133.107 724.158 138.918 724.158 Z" fill="#000000" fill-rule="evenodd" fill-opacity="1" /><path clip-path="url(#clip080)" d="M 0 0 M76.8346 389.316 Q73.2236 389.316 71.3949 392.881 Q69.5893 396.423 69.5893 403.552 Q69.5893 410.659 71.3949 414.224 Q73.2236 417.765 76.8346 417.765 Q80.4689 417.765 82.2744 414.224 Q84.1031 410.659 84.1031 403.552 Q84.1031 396.423 82.2744 392.881 Q80.4689 389.316 76.8346 389.316 M76.8346 385.613 Q82.6448 385.613 85.7003 390.219 Q88.779 394.802 88.779 403.552 Q88.779 412.279 85.7003 416.886 Q82.6448 421.469 76.8346 421.469 Q71.0245 421.469 67.9458 416.886 Q64.8903 412.279 64.8903 403.552 Q64.8903 394.802 67.9458 390.219 Q71.0245 385.613 76.8346 385.613 Z" fill="#000000" fill-rule="evenodd" fill-opacity="1" /><path clip-path="url(#clip080)" d="M 0 0 M93.8484 414.918 L98.7327 414.918 L98.7327 420.798 L93.8484 420.798 L93.8484 414.918 Z" fill="#000000" fill-rule="evenodd" fill-opacity="1" /><path clip-path="url(#clip080)" d="M 0 0 M102.622 386.238 L124.844 386.238 L124.844 388.228 L112.297 420.798 L107.413 420.798 L119.219 390.173 L102.622 390.173 L102.622 386.238 Z" fill="#000000" fill-rule="evenodd" fill-opacity="1" /><path clip-path="url(#clip080)" d="M 0 0 M129.959 386.238 L148.316 386.238 L148.316 390.173 L134.242 390.173 L134.242 398.645 Q135.26 398.298 136.279 398.136 Q137.297 397.95 138.316 397.95 Q144.103 397.95 147.482 401.122 Q150.862 404.293 150.862 409.71 Q150.862 415.288 147.39 418.39 Q143.918 421.469 137.598 421.469 Q135.422 421.469 133.154 421.099 Q130.908 420.728 128.501 419.987 L128.501 415.288 Q130.584 416.423 132.807 416.978 Q135.029 417.534 137.506 417.534 Q141.51 417.534 143.848 415.427 Q146.186 413.321 146.186 409.71 Q146.186 406.099 143.848 403.992 Q141.51 401.886 137.506 401.886 Q135.631 401.886 133.756 402.302 Q131.904 402.719 129.959 403.599 L129.959 386.238 Z" fill="#000000" fill-rule="evenodd" fill-opacity="1" /><path clip-path="url(#clip080)" d="M 0 0 M66.9736 78.3172 L74.6124 78.3172 L74.6124 51.9516 L66.3023 53.6183 L66.3023 49.3591 L74.5661 47.6924 L79.242 47.6924 L79.242 78.3172 L86.8809 78.3172 L86.8809 82.2524 L66.9736 82.2524 L66.9736 78.3172 Z" fill="#000000" fill-rule="evenodd" fill-opacity="1" /><path clip-path="url(#clip080)" d="M 0 0 M91.9503 76.3728 L96.8345 76.3728 L96.8345 82.2524 L91.9503 82.2524 L91.9503 76.3728 Z" fill="#000000" fill-rule="evenodd" fill-opacity="1" /><path clip-path="url(#clip080)" d="M 0 0 M111.904 50.7711 Q108.293 50.7711 106.464 54.3359 Q104.659 57.8775 104.659 65.0071 Q104.659 72.1136 106.464 75.6784 Q108.293 79.22 111.904 79.22 Q115.538 79.22 117.344 75.6784 Q119.172 72.1136 119.172 65.0071 Q119.172 57.8775 117.344 54.3359 Q115.538 50.7711 111.904 50.7711 M111.904 47.0674 Q117.714 47.0674 120.77 51.6739 Q123.848 56.2572 123.848 65.0071 Q123.848 73.7339 120.77 78.3404 Q117.714 82.9237 111.904 82.9237 Q106.094 82.9237 103.015 78.3404 Q99.9595 73.7339 99.9595 65.0071 Q99.9595 56.2572 103.015 51.6739 Q106.094 47.0674 111.904 47.0674 Z" fill="#000000" fill-rule="evenodd" fill-opacity="1" /><path clip-path="url(#clip080)" d="M 0 0 M138.918 50.7711 Q135.307 50.7711 133.478 54.3359 Q131.672 57.8775 131.672 65.0071 Q131.672 72.1136 133.478 75.6784 Q135.307 79.22 138.918 79.22 Q142.552 79.22 144.357 75.6784 Q146.186 72.1136 146.186 65.0071 Q146.186 57.8775 144.357 54.3359 Q142.552 50.7711 138.918 50.7711 M138.918 47.0674 Q144.728 47.0674 147.783 51.6739 Q150.862 56.2572 150.862 65.0071 Q150.862 73.7339 147.783 78.3404 Q144.728 82.9237 138.918 82.9237 Q133.107 82.9237 130.029 78.3404 Q126.973 73.7339 126.973 65.0071 Q126.973 56.2572 130.029 51.6739 Q133.107 47.0674 138.918 47.0674 Z" fill="#000000" fill-rule="evenodd" fill-opacity="1" /><path clip-path="url(#clip082)" d="
M1577.57 1012.9 L900.481 335.809 L765.062 471.227 L1577.57 1012.9  Z
  " fill="#008000" fill-rule="evenodd" fill-opacity="0.2"/>
<polyline clip-path="url(#clip082)" style="stroke:#000000; stroke-width:4; stroke-opacity:1; fill:none" points="
  1577.57,1012.9 900.481,335.809 765.062,471.227 1577.57,1012.9 
  "/>
<circle clip-path="url(#clip082)" cx="1577.57" cy="1012.9" r="14" fill="#ff0000" fill-rule="evenodd" fill-opacity="1" stroke="#000000" stroke-opacity="1" stroke-width="3.2"/>
<circle clip-path="url(#clip082)" cx="900.481" cy="335.809" r="14" fill="#ff0000" fill-rule="evenodd" fill-opacity="1" stroke="#000000" stroke-opacity="1" stroke-width="3.2"/>
<circle clip-path="url(#clip082)" cx="765.062" cy="471.227" r="14" fill="#ff0000" fill-rule="evenodd" fill-opacity="1" stroke="#000000" stroke-opacity="1" stroke-width="3.2"/>
<path clip-path="url(#clip080)" d="M 0 0 M1577.57 942.336 L1566.47 972.434 L1588.71 972.434 L1577.57 942.336 M1572.95 934.275 L1582.23 934.275 L1605.28 994.755 L1596.77 994.755 L1591.26 979.24 L1564 979.24 L1558.49 994.755 L1549.86 994.755 L1572.95 934.275 Z" fill="#000000" fill-rule="evenodd" fill-opacity="1" /><path clip-path="url(#clip080)" d="M 0 0 M887.214 288.782 L887.214 310.94 L900.339 310.94 Q906.942 310.94 910.101 308.226 Q913.302 305.471 913.302 299.841 Q913.302 294.169 910.101 291.496 Q906.942 288.782 900.339 288.782 L887.214 288.782 M887.214 263.909 L887.214 282.138 L899.326 282.138 Q905.321 282.138 908.238 279.91 Q911.195 277.642 911.195 273.024 Q911.195 268.446 908.238 266.178 Q905.321 263.909 899.326 263.909 L887.214 263.909 M879.031 257.185 L899.934 257.185 Q909.291 257.185 914.355 261.073 Q919.419 264.962 919.419 272.132 Q919.419 277.682 916.826 280.963 Q914.233 284.245 909.21 285.055 Q915.246 286.351 918.568 290.483 Q921.93 294.574 921.93 300.732 Q921.93 308.834 916.421 313.249 Q910.912 317.665 900.744 317.665 L879.031 317.665 L879.031 257.185 Z" fill="#000000" fill-rule="evenodd" fill-opacity="1" /><path clip-path="url(#clip080)" d="M 0 0 M789.449 397.261 L789.449 405.89 Q785.317 402.041 780.618 400.137 Q775.959 398.233 770.693 398.233 Q760.323 398.233 754.814 404.593 Q749.304 410.913 749.304 422.903 Q749.304 434.854 754.814 441.213 Q760.323 447.533 770.693 447.533 Q775.959 447.533 780.618 445.629 Q785.317 443.725 789.449 439.877 L789.449 448.424 Q785.155 451.341 780.334 452.799 Q775.554 454.257 770.207 454.257 Q756.475 454.257 748.575 445.872 Q740.676 437.446 740.676 422.903 Q740.676 408.32 748.575 399.935 Q756.475 391.509 770.207 391.509 Q775.635 391.509 780.415 392.967 Q785.236 394.385 789.449 397.261 Z" fill="#000000" fill-rule="evenodd" fill-opacity="1" /><path clip-path="url(#clip082)" d="
M1577.57 1012.9 L900.481 335.809 L1825.4 87.9763 L1577.57 1012.9  Z
  " fill="#ffc0cb" fill-rule="evenodd" fill-opacity="0.7"/>
<polyline clip-path="url(#clip082)" style="stroke:#000000; stroke-width:4; stroke-opacity:1; fill:none" points="
  1577.57,1012.9 900.481,335.809 1825.4,87.9763 1577.57,1012.9 
  "/>
<path clip-path="url(#clip082)" d="
M765.062 471.227 L1577.57 1012.9 L702.215 1445.72 L765.062 471.227  Z
  " fill="#ffc0cb" fill-rule="evenodd" fill-opacity="0.7"/>
<polyline clip-path="url(#clip082)" style="stroke:#000000; stroke-width:4; stroke-opacity:1; fill:none" points="
  765.062,471.227 1577.57,1012.9 702.215,1445.72 765.062,471.227 
  "/>
<path clip-path="url(#clip082)" d="
M900.481 335.809 L765.062 471.227 L715.496 286.242 L900.481 335.809  Z
  " fill="#ffc0cb" fill-rule="evenodd" fill-opacity="0.7"/>
<polyline clip-path="url(#clip082)" style="stroke:#000000; stroke-width:4; stroke-opacity:1; fill:none" points="
  900.481,335.809 765.062,471.227 715.496,286.242 900.481,335.809 
  "/>
<path clip-path="url(#clip082)" d="
M1434.48 478.895 L1014.95 976.614 L793.68 364.426 L1434.48 478.895  Z
  " fill="#0000ff" fill-rule="evenodd" fill-opacity="0.7"/>
<polyline clip-path="url(#clip082)" style="stroke:#000000; stroke-width:4; stroke-opacity:1; fill:none" points="
  1434.48,478.895 1014.95,976.614 793.68,364.426 1434.48,478.895 
  "/>
</svg>
