<?xml version="1.0" encoding="utf-8"?>
<svg xmlns="http://www.w3.org/2000/svg" xmlns:xlink="http://www.w3.org/1999/xlink" width="600" height="400" viewBox="0 0 2400 1600">
<defs>
  <clipPath id="clip100">
    <rect x="0" y="0" width="2400" height="1600"/>
  </clipPath>
</defs>
<path clip-path="url(#clip100)" d="
M0 1600 L2400 1600 L2400 0 L0 0  Z
  " fill="#ffffff" fill-rule="evenodd" fill-opacity="1"/>
<defs>
  <clipPath id="clip101">
    <rect x="480" y="0" width="1681" height="1600"/>
  </clipPath>
</defs>
<path clip-path="url(#clip100)" d="
M86.9921 1521.01 L2352.76 1521.01 L2352.76 47.2441 L86.9921 47.2441  Z
  " fill="#ffffff" fill-rule="evenodd" fill-opacity="1"/>
<defs>
  <clipPath id="clip102">
    <rect x="86" y="47" width="2267" height="1475"/>
  </clipPath>
</defs>
<polyline clip-path="url(#clip102)" style="stroke:#000000; stroke-width:2; stroke-opacity:0.1; fill:none" points="
  447.173,1521.01 447.173,47.2441 
  "/>
<polyline clip-path="url(#clip102)" style="stroke:#000000; stroke-width:2; stroke-opacity:0.1; fill:none" points="
  986.387,1521.01 986.387,47.2441 
  "/>
<polyline clip-path="url(#clip102)" style="stroke:#000000; stroke-width:2; stroke-opacity:0.1; fill:none" points="
  1525.6,1521.01 1525.6,47.2441 
  "/>
<polyline clip-path="url(#clip102)" style="stroke:#000000; stroke-width:2; stroke-opacity:0.1; fill:none" points="
  2064.82,1521.01 2064.82,47.2441 
  "/>
<polyline clip-path="url(#clip102)" style="stroke:#000000; stroke-width:2; stroke-opacity:0.1; fill:none" points="
  86.9921,1483.17 2352.76,1483.17 
  "/>
<polyline clip-path="url(#clip102)" style="stroke:#000000; stroke-width:2; stroke-opacity:0.1; fill:none" points="
  86.9921,1267.48 2352.76,1267.48 
  "/>
<polyline clip-path="url(#clip102)" style="stroke:#000000; stroke-width:2; stroke-opacity:0.1; fill:none" points="
  86.9921,1051.8 2352.76,1051.8 
  "/>
<polyline clip-path="url(#clip102)" style="stroke:#000000; stroke-width:2; stroke-opacity:0.1; fill:none" points="
  86.9921,836.112 2352.76,836.112 
  "/>
<polyline clip-path="url(#clip102)" style="stroke:#000000; stroke-width:2; stroke-opacity:0.1; fill:none" points="
  86.9921,620.426 2352.76,620.426 
  "/>
<polyline clip-path="url(#clip102)" style="stroke:#000000; stroke-width:2; stroke-opacity:0.1; fill:none" points="
  86.9921,404.74 2352.76,404.74 
  "/>
<polyline clip-path="url(#clip102)" style="stroke:#000000; stroke-width:2; stroke-opacity:0.1; fill:none" points="
  86.9921,189.054 2352.76,189.054 
  "/>
<polyline clip-path="url(#clip100)" style="stroke:#000000; stroke-width:4; stroke-opacity:1; fill:none" points="
  86.9921,1521.01 2352.76,1521.01 
  "/>
<polyline clip-path="url(#clip100)" style="stroke:#000000; stroke-width:4; stroke-opacity:1; fill:none" points="
  86.9921,1521.01 86.9921,47.2441 
  "/>
<polyline clip-path="url(#clip100)" style="stroke:#000000; stroke-width:4; stroke-opacity:1; fill:none" points="
  447.173,1521.01 447.173,1503.32 
  "/>
<polyline clip-path="url(#clip100)" style="stroke:#000000; stroke-width:4; stroke-opacity:1; fill:none" points="
  986.387,1521.01 986.387,1503.32 
  "/>
<polyline clip-path="url(#clip100)" style="stroke:#000000; stroke-width:4; stroke-opacity:1; fill:none" points="
  1525.6,1521.01 1525.6,1503.32 
  "/>
<polyline clip-path="url(#clip100)" style="stroke:#000000; stroke-width:4; stroke-opacity:1; fill:none" points="
  2064.82,1521.01 2064.82,1503.32 
  "/>
<polyline clip-path="url(#clip100)" style="stroke:#000000; stroke-width:4; stroke-opacity:1; fill:none" points="
  86.9921,1483.17 114.181,1483.17 
  "/>
<polyline clip-path="url(#clip100)" style="stroke:#000000; stroke-width:4; stroke-opacity:1; fill:none" points="
  86.9921,1267.48 114.181,1267.48 
  "/>
<polyline clip-path="url(#clip100)" style="stroke:#000000; stroke-width:4; stroke-opacity:1; fill:none" points="
  86.9921,1051.8 114.181,1051.8 
  "/>
<polyline clip-path="url(#clip100)" style="stroke:#000000; stroke-width:4; stroke-opacity:1; fill:none" points="
  86.9921,836.112 114.181,836.112 
  "/>
<polyline clip-path="url(#clip100)" style="stroke:#000000; stroke-width:4; stroke-opacity:1; fill:none" points="
  86.9921,620.426 114.181,620.426 
  "/>
<polyline clip-path="url(#clip100)" style="stroke:#000000; stroke-width:4; stroke-opacity:1; fill:none" points="
  86.9921,404.74 114.181,404.74 
  "/>
<polyline clip-path="url(#clip100)" style="stroke:#000000; stroke-width:4; stroke-opacity:1; fill:none" points="
  86.9921,189.054 114.181,189.054 
  "/>
<path clip-path="url(#clip100)" d="M 0 0 M428.689 1543 Q425.078 1543 423.25 1546.56 Q421.444 1550.11 421.444 1557.23 Q421.444 1564.34 423.25 1567.91 Q425.078 1571.45 428.689 1571.45 Q432.324 1571.45 434.129 1567.91 Q435.958 1564.34 435.958 1557.23 Q435.958 1550.11 434.129 1546.56 Q432.324 1543 428.689 1543 M428.689 1539.29 Q434.499 1539.29 437.555 1543.9 Q440.634 1548.48 440.634 1557.23 Q440.634 1565.96 437.555 1570.57 Q434.499 1575.15 428.689 1575.15 Q422.879 1575.15 419.8 1570.57 Q416.745 1565.96 416.745 1557.23 Q416.745 1548.48 419.8 1543.9 Q422.879 1539.29 428.689 1539.29 Z" fill="#000000" fill-rule="evenodd" fill-opacity="1" /><path clip-path="url(#clip100)" d="M 0 0 M445.703 1568.6 L450.587 1568.6 L450.587 1574.48 L445.703 1574.48 L445.703 1568.6 Z" fill="#000000" fill-rule="evenodd" fill-opacity="1" /><path clip-path="url(#clip100)" d="M 0 0 M465.657 1543 Q462.046 1543 460.217 1546.56 Q458.411 1550.11 458.411 1557.23 Q458.411 1564.34 460.217 1567.91 Q462.046 1571.45 465.657 1571.45 Q469.291 1571.45 471.096 1567.91 Q472.925 1564.34 472.925 1557.23 Q472.925 1550.11 471.096 1546.56 Q469.291 1543 465.657 1543 M465.657 1539.29 Q471.467 1539.29 474.522 1543.9 Q477.601 1548.48 477.601 1557.23 Q477.601 1565.96 474.522 1570.57 Q471.467 1575.15 465.657 1575.15 Q459.847 1575.15 456.768 1570.57 Q453.712 1565.96 453.712 1557.23 Q453.712 1548.48 456.768 1543.9 Q459.847 1539.29 465.657 1539.29 Z" fill="#000000" fill-rule="evenodd" fill-opacity="1" /><path clip-path="url(#clip100)" d="M 0 0 M968.401 1543 Q964.79 1543 962.962 1546.56 Q961.156 1550.11 961.156 1557.23 Q961.156 1564.34 962.962 1567.91 Q964.79 1571.45 968.401 1571.45 Q972.036 1571.45 973.841 1567.91 Q975.67 1564.34 975.67 1557.23 Q975.67 1550.11 973.841 1546.56 Q972.036 1543 968.401 1543 M968.401 1539.29 Q974.211 1539.29 977.267 1543.9 Q980.346 1548.48 980.346 1557.23 Q980.346 1565.96 977.267 1570.57 Q974.211 1575.15 968.401 1575.15 Q962.591 1575.15 959.512 1570.57 Q956.457 1565.96 956.457 1557.23 Q956.457 1548.48 959.512 1543.9 Q962.591 1539.29 968.401 1539.29 Z" fill="#000000" fill-rule="evenodd" fill-opacity="1" /><path clip-path="url(#clip100)" d="M 0 0 M985.415 1568.6 L990.299 1568.6 L990.299 1574.48 L985.415 1574.48 L985.415 1568.6 Z" fill="#000000" fill-rule="evenodd" fill-opacity="1" /><path clip-path="url(#clip100)" d="M 0 0 M995.415 1539.92 L1013.77 1539.92 L1013.77 1543.86 L999.697 1543.86 L999.697 1552.33 Q1000.72 1551.98 1001.73 1551.82 Q1002.75 1551.63 1003.77 1551.63 Q1009.56 1551.63 1012.94 1554.8 Q1016.32 1557.98 1016.32 1563.39 Q1016.32 1568.97 1012.85 1572.07 Q1009.37 1575.15 1003.05 1575.15 Q1000.88 1575.15 998.61 1574.78 Q996.364 1574.41 993.957 1573.67 L993.957 1568.97 Q996.04 1570.1 998.262 1570.66 Q1000.48 1571.22 1002.96 1571.22 Q1006.97 1571.22 1009.3 1569.11 Q1011.64 1567 1011.64 1563.39 Q1011.64 1559.78 1009.3 1557.67 Q1006.97 1555.57 1002.96 1555.57 Q1001.09 1555.57 999.211 1555.98 Q997.36 1556.4 995.415 1557.28 L995.415 1539.92 Z" fill="#000000" fill-rule="evenodd" fill-opacity="1" /><path clip-path="url(#clip100)" d="M 0 0 M1497.5 1570.54 L1505.14 1570.54 L1505.14 1544.18 L1496.83 1545.85 L1496.83 1541.59 L1505.09 1539.92 L1509.77 1539.92 L1509.77 1570.54 L1517.41 1570.54 L1517.41 1574.48 L1497.5 1574.48 L1497.5 1570.54 Z" fill="#000000" fill-rule="evenodd" fill-opacity="1" /><path clip-path="url(#clip100)" d="M 0 0 M1522.48 1568.6 L1527.36 1568.6 L1527.36 1574.48 L1522.48 1574.48 L1522.48 1568.6 Z" fill="#000000" fill-rule="evenodd" fill-opacity="1" /><path clip-path="url(#clip100)" d="M 0 0 M1542.43 1543 Q1538.82 1543 1536.99 1546.56 Q1535.18 1550.11 1535.18 1557.23 Q1535.18 1564.34 1536.99 1567.91 Q1538.82 1571.45 1542.43 1571.45 Q1546.06 1571.45 1547.87 1567.91 Q1549.7 1564.34 1549.7 1557.23 Q1549.7 1550.11 1547.87 1546.56 Q1546.06 1543 1542.43 1543 M1542.43 1539.29 Q1548.24 1539.29 1551.3 1543.9 Q1554.37 1548.48 1554.37 1557.23 Q1554.37 1565.96 1551.3 1570.57 Q1548.24 1575.15 1542.43 1575.15 Q1536.62 1575.15 1533.54 1570.57 Q1530.49 1565.96 1530.49 1557.23 Q1530.49 1548.48 1533.54 1543.9 Q1536.62 1539.29 1542.43 1539.29 Z" fill="#000000" fill-rule="evenodd" fill-opacity="1" /><path clip-path="url(#clip100)" d="M 0 0 M2037.21 1570.54 L2044.85 1570.54 L2044.85 1544.18 L2036.54 1545.85 L2036.54 1541.59 L2044.8 1539.92 L2049.48 1539.92 L2049.48 1570.54 L2057.12 1570.54 L2057.12 1574.48 L2037.21 1574.48 L2037.21 1570.54 Z" fill="#000000" fill-rule="evenodd" fill-opacity="1" /><path clip-path="url(#clip100)" d="M 0 0 M2062.19 1568.6 L2067.07 1568.6 L2067.07 1574.48 L2062.19 1574.48 L2062.19 1568.6 Z" fill="#000000" fill-rule="evenodd" fill-opacity="1" /><path clip-path="url(#clip100)" d="M 0 0 M2072.19 1539.92 L2090.55 1539.92 L2090.55 1543.86 L2076.47 1543.86 L2076.47 1552.33 Q2077.49 1551.98 2078.51 1551.82 Q2079.53 1551.63 2080.55 1551.63 Q2086.33 1551.63 2089.71 1554.8 Q2093.09 1557.98 2093.09 1563.39 Q2093.09 1568.97 2089.62 1572.07 Q2086.15 1575.15 2079.83 1575.15 Q2077.65 1575.15 2075.38 1574.78 Q2073.14 1574.41 2070.73 1573.67 L2070.73 1568.97 Q2072.81 1570.1 2075.04 1570.66 Q2077.26 1571.22 2079.73 1571.22 Q2083.74 1571.22 2086.08 1569.11 Q2088.42 1567 2088.42 1563.39 Q2088.42 1559.78 2086.08 1557.67 Q2083.74 1555.57 2079.73 1555.57 Q2077.86 1555.57 2075.98 1555.98 Q2074.13 1556.4 2072.19 1557.28 L2072.19 1539.92 Z" fill="#000000" fill-rule="evenodd" fill-opacity="1" /><path clip-path="url(#clip100)" d="M 0 0 M14.0804 1468.97 Q10.4693 1468.97 8.64057 1472.53 Q6.83502 1476.07 6.83502 1483.2 Q6.83502 1490.31 8.64057 1493.87 Q10.4693 1497.42 14.0804 1497.42 Q17.7146 1497.42 19.5201 1493.87 Q21.3488 1490.31 21.3488 1483.2 Q21.3488 1476.07 19.5201 1472.53 Q17.7146 1468.97 14.0804 1468.97 M14.0804 1465.26 Q19.8905 1465.26 22.946 1469.87 Q26.0247 1474.45 26.0247 1483.2 Q26.0247 1491.93 22.946 1496.54 Q19.8905 1501.12 14.0804 1501.12 Q8.2702 1501.12 5.19151 1496.54 Q2.13597 1491.93 2.13597 1483.2 Q2.13597 1474.45 5.19151 1469.87 Q8.2702 1465.26 14.0804 1465.26 Z" fill="#000000" fill-rule="evenodd" fill-opacity="1" /><path clip-path="url(#clip100)" d="M 0 0 M31.0941 1494.57 L35.9784 1494.57 L35.9784 1500.45 L31.0941 1500.45 L31.0941 1494.57 Z" fill="#000000" fill-rule="evenodd" fill-opacity="1" /><path clip-path="url(#clip100)" d="M 0 0 M51.0477 1468.97 Q47.4367 1468.97 45.608 1472.53 Q43.8024 1476.07 43.8024 1483.2 Q43.8024 1490.31 45.608 1493.87 Q47.4367 1497.42 51.0477 1497.42 Q54.682 1497.42 56.4875 1493.87 Q58.3162 1490.31 58.3162 1483.2 Q58.3162 1476.07 56.4875 1472.53 Q54.682 1468.97 51.0477 1468.97 M51.0477 1465.26 Q56.8579 1465.26 59.9134 1469.87 Q62.9921 1474.45 62.9921 1483.2 Q62.9921 1491.93 59.9134 1496.54 Q56.8579 1501.12 51.0477 1501.12 Q45.2376 1501.12 42.1589 1496.54 Q39.1034 1491.93 39.1034 1483.2 Q39.1034 1474.45 42.1589 1469.87 Q45.2376 1465.26 51.0477 1465.26 Z" fill="#000000" fill-rule="evenodd" fill-opacity="1" /><path clip-path="url(#clip100)" d="M 0 0 M15.6776 1253.28 Q12.0665 1253.28 10.2378 1256.85 Q8.43223 1260.39 8.43223 1267.52 Q8.43223 1274.62 10.2378 1278.19 Q12.0665 1281.73 15.6776 1281.73 Q19.3118 1281.73 21.1174 1278.19 Q22.946 1274.62 22.946 1267.52 Q22.946 1260.39 21.1174 1256.85 Q19.3118 1253.28 15.6776 1253.28 M15.6776 1249.58 Q21.4877 1249.58 24.5433 1254.18 Q27.6219 1258.77 27.6219 1267.52 Q27.6219 1276.24 24.5433 1280.85 Q21.4877 1285.43 15.6776 1285.43 Q9.86741 1285.43 6.78872 1280.85 Q3.73318 1276.24 3.73318 1267.52 Q3.73318 1258.77 6.78872 1254.18 Q9.86741 1249.58 15.6776 1249.58 Z" fill="#000000" fill-rule="evenodd" fill-opacity="1" /><path clip-path="url(#clip100)" d="M 0 0 M32.6914 1278.88 L37.5756 1278.88 L37.5756 1284.76 L32.6914 1284.76 L32.6914 1278.88 Z" fill="#000000" fill-rule="evenodd" fill-opacity="1" /><path clip-path="url(#clip100)" d="M 0 0 M46.6728 1280.83 L62.9921 1280.83 L62.9921 1284.76 L41.0478 1284.76 L41.0478 1280.83 Q43.7098 1278.07 48.2931 1273.44 Q52.8996 1268.79 54.0801 1267.45 Q56.3255 1264.93 57.2051 1263.19 Q58.1079 1261.43 58.1079 1259.74 Q58.1079 1256.99 56.1635 1255.25 Q54.2422 1253.51 51.1403 1253.51 Q48.9413 1253.51 46.4876 1254.28 Q44.057 1255.04 41.2793 1256.59 L41.2793 1251.87 Q44.1033 1250.74 46.557 1250.16 Q49.0107 1249.58 51.0477 1249.58 Q56.4181 1249.58 59.6125 1252.26 Q62.8069 1254.95 62.8069 1259.44 Q62.8069 1261.57 61.9968 1263.49 Q61.2097 1265.39 59.1033 1267.98 Q58.5246 1268.65 55.4227 1271.87 Q52.3209 1275.06 46.6728 1280.83 Z" fill="#000000" fill-rule="evenodd" fill-opacity="1" /><path clip-path="url(#clip100)" d="M 0 0 M13.5942 1037.6 Q9.98315 1037.6 8.15446 1041.16 Q6.34891 1044.7 6.34891 1051.83 Q6.34891 1058.94 8.15446 1062.5 Q9.98315 1066.05 13.5942 1066.05 Q17.2285 1066.05 19.034 1062.5 Q20.8627 1058.94 20.8627 1051.83 Q20.8627 1044.7 19.034 1041.16 Q17.2285 1037.6 13.5942 1037.6 M13.5942 1033.89 Q19.4044 1033.89 22.4599 1038.5 Q25.5386 1043.08 25.5386 1051.83 Q25.5386 1060.56 22.4599 1065.17 Q19.4044 1069.75 13.5942 1069.75 Q7.78409 1069.75 4.7054 1065.17 Q1.64986 1060.56 1.64986 1051.83 Q1.64986 1043.08 4.7054 1038.5 Q7.78409 1033.89 13.5942 1033.89 Z" fill="#000000" fill-rule="evenodd" fill-opacity="1" /><path clip-path="url(#clip100)" d="M 0 0 M30.608 1063.2 L35.4923 1063.2 L35.4923 1069.08 L30.608 1069.08 L30.608 1063.2 Z" fill="#000000" fill-rule="evenodd" fill-opacity="1" /><path clip-path="url(#clip100)" d="M 0 0 M53.4088 1038.59 L41.6034 1057.04 L53.4088 1057.04 L53.4088 1038.59 M52.182 1034.52 L58.0616 1034.52 L58.0616 1057.04 L62.9921 1057.04 L62.9921 1060.93 L58.0616 1060.93 L58.0616 1069.08 L53.4088 1069.08 L53.4088 1060.93 L37.8071 1060.93 L37.8071 1056.42 L52.182 1034.52 Z" fill="#000000" fill-rule="evenodd" fill-opacity="1" /><path clip-path="url(#clip100)" d="M 0 0 M13.9183 821.91 Q10.3072 821.91 8.47853 825.475 Q6.67298 829.017 6.67298 836.146 Q6.67298 843.253 8.47853 846.818 Q10.3072 850.359 13.9183 850.359 Q17.5526 850.359 19.3581 846.818 Q21.1868 843.253 21.1868 836.146 Q21.1868 829.017 19.3581 825.475 Q17.5526 821.91 13.9183 821.91 M13.9183 818.207 Q19.7285 818.207 22.784 822.813 Q25.8627 827.396 25.8627 836.146 Q25.8627 844.873 22.784 849.48 Q19.7285 854.063 13.9183 854.063 Q8.10816 854.063 5.02947 849.48 Q1.97393 844.873 1.97393 836.146 Q1.97393 827.396 5.02947 822.813 Q8.10816 818.207 13.9183 818.207 Z" fill="#000000" fill-rule="evenodd" fill-opacity="1" /><path clip-path="url(#clip100)" d="M 0 0 M30.9321 847.512 L35.8163 847.512 L35.8163 853.392 L30.9321 853.392 L30.9321 847.512 Z" fill="#000000" fill-rule="evenodd" fill-opacity="1" /><path clip-path="url(#clip100)" d="M 0 0 M51.4644 834.248 Q48.3163 834.248 46.4644 836.401 Q44.6357 838.554 44.6357 842.304 Q44.6357 846.031 46.4644 848.207 Q48.3163 850.359 51.4644 850.359 Q54.6125 850.359 56.4412 848.207 Q58.2931 846.031 58.2931 842.304 Q58.2931 838.554 56.4412 836.401 Q54.6125 834.248 51.4644 834.248 M60.7468 819.596 L60.7468 823.855 Q58.9875 823.022 57.182 822.582 Q55.3996 822.142 53.6403 822.142 Q49.0107 822.142 46.557 825.267 Q44.1265 828.392 43.7793 834.711 Q45.145 832.697 47.2052 831.633 Q49.2653 830.545 51.7422 830.545 Q56.9505 830.545 59.9597 833.716 Q62.9921 836.864 62.9921 842.304 Q62.9921 847.628 59.844 850.845 Q56.6959 854.063 51.4644 854.063 Q45.4691 854.063 42.2978 849.48 Q39.1265 844.873 39.1265 836.146 Q39.1265 827.952 43.0154 823.091 Q46.9042 818.207 53.4551 818.207 Q55.2144 818.207 56.9968 818.554 Q58.8023 818.901 60.7468 819.596 Z" fill="#000000" fill-rule="evenodd" fill-opacity="1" /><path clip-path="url(#clip100)" d="M 0 0 M14.1729 606.225 Q10.5619 606.225 8.73316 609.789 Q6.92761 613.331 6.92761 620.461 Q6.92761 627.567 8.73316 631.132 Q10.5619 634.674 14.1729 634.674 Q17.8072 634.674 19.6127 631.132 Q21.4414 627.567 21.4414 620.461 Q21.4414 613.331 19.6127 609.789 Q17.8072 606.225 14.1729 606.225 M14.1729 602.521 Q19.9831 602.521 23.0386 607.127 Q26.1173 611.711 26.1173 620.461 Q26.1173 629.188 23.0386 633.794 Q19.9831 638.377 14.1729 638.377 Q8.36279 638.377 5.2841 633.794 Q2.22856 629.188 2.22856 620.461 Q2.22856 611.711 5.2841 607.127 Q8.36279 602.521 14.1729 602.521 Z" fill="#000000" fill-rule="evenodd" fill-opacity="1" /><path clip-path="url(#clip100)" d="M 0 0 M31.1867 631.826 L36.071 631.826 L36.071 637.706 L31.1867 637.706 L31.1867 631.826 Z" fill="#000000" fill-rule="evenodd" fill-opacity="1" /><path clip-path="url(#clip100)" d="M 0 0 M51.1403 621.294 Q47.807 621.294 45.8857 623.076 Q43.9876 624.859 43.9876 627.984 Q43.9876 631.109 45.8857 632.891 Q47.807 634.674 51.1403 634.674 Q54.4737 634.674 56.3949 632.891 Q58.3162 631.086 58.3162 627.984 Q58.3162 624.859 56.3949 623.076 Q54.4968 621.294 51.1403 621.294 M46.4644 619.303 Q43.4552 618.563 41.7654 616.502 Q40.0987 614.442 40.0987 611.479 Q40.0987 607.336 43.0385 604.928 Q46.0015 602.521 51.1403 602.521 Q56.3023 602.521 59.2421 604.928 Q62.1819 607.336 62.1819 611.479 Q62.1819 614.442 60.4921 616.502 Q58.8255 618.563 55.8394 619.303 Q59.219 620.09 61.094 622.382 Q62.9921 624.674 62.9921 627.984 Q62.9921 633.007 59.9134 635.692 Q56.8579 638.377 51.1403 638.377 Q45.4228 638.377 42.3441 635.692 Q39.2885 633.007 39.2885 627.984 Q39.2885 624.674 41.1867 622.382 Q43.0848 620.09 46.4644 619.303 M44.7515 611.919 Q44.7515 614.604 46.4181 616.109 Q48.1079 617.613 51.1403 617.613 Q54.1496 617.613 55.8394 616.109 Q57.5523 614.604 57.5523 611.919 Q57.5523 609.234 55.8394 607.729 Q54.1496 606.225 51.1403 606.225 Q48.1079 606.225 46.4181 607.729 Q44.7515 609.234 44.7515 611.919 Z" fill="#000000" fill-rule="evenodd" fill-opacity="1" /><path clip-path="url(#clip100)" d="M 0 0 M6.11743 418.085 L13.7563 418.085 L13.7563 391.719 L5.44614 393.386 L5.44614 389.127 L13.71 387.46 L18.3859 387.46 L18.3859 418.085 L26.0247 418.085 L26.0247 422.02 L6.11743 422.02 L6.11743 418.085 Z" fill="#000000" fill-rule="evenodd" fill-opacity="1" /><path clip-path="url(#clip100)" d="M 0 0 M31.0941 416.141 L35.9784 416.141 L35.9784 422.02 L31.0941 422.02 L31.0941 416.141 Z" fill="#000000" fill-rule="evenodd" fill-opacity="1" /><path clip-path="url(#clip100)" d="M 0 0 M51.0477 390.539 Q47.4367 390.539 45.608 394.104 Q43.8024 397.645 43.8024 404.775 Q43.8024 411.881 45.608 415.446 Q47.4367 418.988 51.0477 418.988 Q54.682 418.988 56.4875 415.446 Q58.3162 411.881 58.3162 404.775 Q58.3162 397.645 56.4875 394.104 Q54.682 390.539 51.0477 390.539 M51.0477 386.835 Q56.8579 386.835 59.9134 391.442 Q62.9921 396.025 62.9921 404.775 Q62.9921 413.502 59.9134 418.108 Q56.8579 422.692 51.0477 422.692 Q45.2376 422.692 42.1589 418.108 Q39.1034 413.502 39.1034 404.775 Q39.1034 396.025 42.1589 391.442 Q45.2376 386.835 51.0477 386.835 Z" fill="#000000" fill-rule="evenodd" fill-opacity="1" /><path clip-path="url(#clip100)" d="M 0 0 M7.71464 202.399 L15.3535 202.399 L15.3535 176.034 L7.04335 177.7 L7.04335 173.441 L15.3072 171.774 L19.9831 171.774 L19.9831 202.399 L27.6219 202.399 L27.6219 206.334 L7.71464 206.334 L7.71464 202.399 Z" fill="#000000" fill-rule="evenodd" fill-opacity="1" /><path clip-path="url(#clip100)" d="M 0 0 M32.6914 200.455 L37.5756 200.455 L37.5756 206.334 L32.6914 206.334 L32.6914 200.455 Z" fill="#000000" fill-rule="evenodd" fill-opacity="1" /><path clip-path="url(#clip100)" d="M 0 0 M46.6728 202.399 L62.9921 202.399 L62.9921 206.334 L41.0478 206.334 L41.0478 202.399 Q43.7098 199.645 48.2931 195.015 Q52.8996 190.362 54.0801 189.02 Q56.3255 186.497 57.2051 184.761 Q58.1079 183.001 58.1079 181.311 Q58.1079 178.557 56.1635 176.821 Q54.2422 175.085 51.1403 175.085 Q48.9413 175.085 46.4876 175.849 Q44.057 176.612 41.2793 178.163 L41.2793 173.441 Q44.1033 172.307 46.557 171.728 Q49.0107 171.149 51.0477 171.149 Q56.4181 171.149 59.6125 173.835 Q62.8069 176.52 62.8069 181.011 Q62.8069 183.14 61.9968 185.061 Q61.2097 186.96 59.1033 189.552 Q58.5246 190.223 55.4227 193.441 Q52.3209 196.635 46.6728 202.399 Z" fill="#000000" fill-rule="evenodd" fill-opacity="1" /><path clip-path="url(#clip102)" d="
M662.859 1051.8 L1094.23 1159.64 L1525.6 620.426 L662.859 1051.8  Z
  " fill="#008000" fill-rule="evenodd" fill-opacity="0.2"/>
<polyline clip-path="url(#clip102)" style="stroke:#000000; stroke-width:4; stroke-opacity:1; fill:none" points="
  662.859,1051.8 1094.23,1159.64 1525.6,620.426 662.859,1051.8 
  "/>
<circle clip-path="url(#clip102)" cx="662.859" cy="1051.8" r="14" fill="#ff0000" fill-rule="evenodd" fill-opacity="1" stroke="#000000" stroke-opacity="1" stroke-width="3.2"/>
<circle clip-path="url(#clip102)" cx="1094.23" cy="1159.64" r="14" fill="#ff0000" fill-rule="evenodd" fill-opacity="1" stroke="#000000" stroke-opacity="1" stroke-width="3.2"/>
<circle clip-path="url(#clip102)" cx="1525.6" cy="620.426" r="14" fill="#ff0000" fill-rule="evenodd" fill-opacity="1" stroke="#000000" stroke-opacity="1" stroke-width="3.2"/>
<path clip-path="url(#clip100)" d="M 0 0 M662.859 981.235 L651.759 1011.33 L673.999 1011.33 L662.859 981.235 M658.241 973.173 L667.517 973.173 L690.567 1033.65 L682.06 1033.65 L676.551 1018.14 L649.288 1018.14 L643.779 1033.65 L635.151 1033.65 L658.241 973.173 Z" fill="#000000" fill-rule="evenodd" fill-opacity="1" /><path clip-path="url(#clip100)" d="M 0 0 M1080.96 1112.61 L1080.96 1134.77 L1094.09 1134.77 Q1100.69 1134.77 1103.85 1132.06 Q1107.05 1129.3 1107.05 1123.67 Q1107.05 1118 1103.85 1115.33 Q1100.69 1112.61 1094.09 1112.61 L1080.96 1112.61 M1080.96 1087.74 L1080.96 1105.97 L1093.08 1105.97 Q1099.07 1105.97 1101.99 1103.74 Q1104.94 1101.47 1104.94 1096.86 Q1104.94 1092.28 1101.99 1090.01 Q1099.07 1087.74 1093.08 1087.74 L1080.96 1087.74 M1072.78 1081.02 L1093.68 1081.02 Q1103.04 1081.02 1108.1 1084.91 Q1113.17 1088.79 1113.17 1095.96 Q1113.17 1101.51 1110.58 1104.8 Q1107.98 1108.08 1102.96 1108.89 Q1109 1110.18 1112.32 1114.31 Q1115.68 1118.41 1115.68 1124.56 Q1115.68 1132.67 1110.17 1137.08 Q1104.66 1141.5 1094.49 1141.5 L1072.78 1141.5 L1072.78 1081.02 Z" fill="#000000" fill-rule="evenodd" fill-opacity="1" /><path clip-path="url(#clip100)" d="M 0 0 M1549.99 546.461 L1549.99 555.089 Q1545.86 551.241 1541.16 549.337 Q1536.5 547.433 1531.23 547.433 Q1520.86 547.433 1515.35 553.793 Q1509.84 560.112 1509.84 572.103 Q1509.84 584.053 1515.35 590.413 Q1520.86 596.732 1531.23 596.732 Q1536.5 596.732 1541.16 594.828 Q1545.86 592.924 1549.99 589.076 L1549.99 597.623 Q1545.69 600.54 1540.87 601.998 Q1536.09 603.457 1530.75 603.457 Q1517.01 603.457 1509.11 595.071 Q1501.22 586.645 1501.22 572.103 Q1501.22 557.519 1509.11 549.134 Q1517.01 540.708 1530.75 540.708 Q1536.17 540.708 1540.95 542.167 Q1545.78 543.584 1549.99 546.461 Z" fill="#000000" fill-rule="evenodd" fill-opacity="1" /><path clip-path="url(#clip102)" d="
M662.859 1051.8 L1094.23 1159.64 L785.15 1479.3 L662.859 1051.8  Z
  " fill="#ffc0cb" fill-rule="evenodd" fill-opacity="0.7"/>
<polyline clip-path="url(#clip102)" style="stroke:#000000; stroke-width:4; stroke-opacity:1; fill:none" points="
  662.859,1051.8 1094.23,1159.64 785.15,1479.3 662.859,1051.8 
  "/>
<path clip-path="url(#clip102)" d="
M1525.6 620.426 L662.859 1051.8 L720.652 88.9544 L1525.6 620.426  Z
  " fill="#ffc0cb" fill-rule="evenodd" fill-opacity="0.7"/>
<polyline clip-path="url(#clip102)" style="stroke:#000000; stroke-width:4; stroke-opacity:1; fill:none" points="
  1525.6,620.426 662.859,1051.8 720.652,88.9544 1525.6,620.426 
  "/>
<path clip-path="url(#clip102)" d="
M1094.23 1159.64 L1525.6 620.426 L1776.89 1263.61 L1094.23 1159.64  Z
  " fill="#ffc0cb" fill-rule="evenodd" fill-opacity="0.7"/>
<polyline clip-path="url(#clip102)" style="stroke:#000000; stroke-width:4; stroke-opacity:1; fill:none" points="
  1094.23,1159.64 1525.6,620.426 1776.89,1263.61 1094.23,1159.64 
  "/>
<path clip-path="url(#clip102)" d="
M847.413 1230.25 L969.704 587.059 L1465.57 1014.56 L847.413 1230.25  Z
  " fill="#0000ff" fill-rule="evenodd" fill-opacity="0.7"/>
<polyline clip-path="url(#clip102)" style="stroke:#000000; stroke-width:4; stroke-opacity:1; fill:none" points="
  847.413,1230.25 969.704,587.059 1465.57,1014.56 847.413,1230.25 
  "/>
</svg>
