<?xml version="1.0" encoding="utf-8"?>
<svg xmlns="http://www.w3.org/2000/svg" xmlns:xlink="http://www.w3.org/1999/xlink" width="600" height="400" viewBox="0 0 2400 1600">
<defs>
  <clipPath id="clip900">
    <rect x="0" y="0" width="2400" height="1600"/>
  </clipPath>
</defs>
<path clip-path="url(#clip900)" d="
M0 1600 L2400 1600 L2400 0 L0 0  Z
  " fill="#ffffff" fill-rule="evenodd" fill-opacity="1"/>
<defs>
  <clipPath id="clip901">
    <rect x="480" y="0" width="1681" height="1600"/>
  </clipPath>
</defs>
<path clip-path="url(#clip900)" d="
M124.885 1486.45 L2352.76 1486.45 L2352.76 47.2441 L124.885 47.2441  Z
  " fill="#ffffff" fill-rule="evenodd" fill-opacity="1"/>
<defs>
  <clipPath id="clip902">
    <rect x="124" y="47" width="2229" height="1440"/>
  </clipPath>
</defs>
<polyline clip-path="url(#clip902)" style="stroke:#000000; stroke-width:2; stroke-opacity:0.1; fill:none" points="
  170.365,1486.45 170.365,47.2441 
  "/>
<polyline clip-path="url(#clip902)" style="stroke:#000000; stroke-width:2; stroke-opacity:0.1; fill:none" points="
  619.223,1486.45 619.223,47.2441 
  "/>
<polyline clip-path="url(#clip902)" style="stroke:#000000; stroke-width:2; stroke-opacity:0.1; fill:none" points="
  1068.08,1486.45 1068.08,47.2441 
  "/>
<polyline clip-path="url(#clip902)" style="stroke:#000000; stroke-width:2; stroke-opacity:0.1; fill:none" points="
  1516.94,1486.45 1516.94,47.2441 
  "/>
<polyline clip-path="url(#clip902)" style="stroke:#000000; stroke-width:2; stroke-opacity:0.1; fill:none" points="
  1965.8,1486.45 1965.8,47.2441 
  "/>
<polyline clip-path="url(#clip902)" style="stroke:#000000; stroke-width:2; stroke-opacity:0.1; fill:none" points="
  124.885,1362.39 2352.76,1362.39 
  "/>
<polyline clip-path="url(#clip902)" style="stroke:#000000; stroke-width:2; stroke-opacity:0.1; fill:none" points="
  124.885,1003.3 2352.76,1003.3 
  "/>
<polyline clip-path="url(#clip902)" style="stroke:#000000; stroke-width:2; stroke-opacity:0.1; fill:none" points="
  124.885,644.216 2352.76,644.216 
  "/>
<polyline clip-path="url(#clip902)" style="stroke:#000000; stroke-width:2; stroke-opacity:0.1; fill:none" points="
  124.885,285.129 2352.76,285.129 
  "/>
<polyline clip-path="url(#clip900)" style="stroke:#000000; stroke-width:4; stroke-opacity:1; fill:none" points="
  124.885,1486.45 2352.76,1486.45 
  "/>
<polyline clip-path="url(#clip900)" style="stroke:#000000; stroke-width:4; stroke-opacity:1; fill:none" points="
  124.885,1486.45 124.885,47.2441 
  "/>
<polyline clip-path="url(#clip900)" style="stroke:#000000; stroke-width:4; stroke-opacity:1; fill:none" points="
  170.365,1486.45 170.365,1469.18 
  "/>
<polyline clip-path="url(#clip900)" style="stroke:#000000; stroke-width:4; stroke-opacity:1; fill:none" points="
  619.223,1486.45 619.223,1469.18 
  "/>
<polyline clip-path="url(#clip900)" style="stroke:#000000; stroke-width:4; stroke-opacity:1; fill:none" points="
  1068.08,1486.45 1068.08,1469.18 
  "/>
<polyline clip-path="url(#clip900)" style="stroke:#000000; stroke-width:4; stroke-opacity:1; fill:none" points="
  1516.94,1486.45 1516.94,1469.18 
  "/>
<polyline clip-path="url(#clip900)" style="stroke:#000000; stroke-width:4; stroke-opacity:1; fill:none" points="
  1965.8,1486.45 1965.8,1469.18 
  "/>
<polyline clip-path="url(#clip900)" style="stroke:#000000; stroke-width:4; stroke-opacity:1; fill:none" points="
  124.885,1362.39 151.62,1362.39 
  "/>
<polyline clip-path="url(#clip900)" style="stroke:#000000; stroke-width:4; stroke-opacity:1; fill:none" points="
  124.885,1003.3 151.62,1003.3 
  "/>
<polyline clip-path="url(#clip900)" style="stroke:#000000; stroke-width:4; stroke-opacity:1; fill:none" points="
  124.885,644.216 151.62,644.216 
  "/>
<polyline clip-path="url(#clip900)" style="stroke:#000000; stroke-width:4; stroke-opacity:1; fill:none" points="
  124.885,285.129 151.62,285.129 
  "/>
<path clip-path="url(#clip900)" d="M 0 0 M132.633 1525.04 L145.11 1525.04 L145.11 1528.83 L132.633 1528.83 L132.633 1525.04 Z" fill="#000000" fill-rule="evenodd" fill-opacity="1" /><path clip-path="url(#clip900)" d="M 0 0 M150.226 1505.36 L168.582 1505.36 L168.582 1509.3 L154.508 1509.3 L154.508 1517.77 Q155.527 1517.42 156.545 1517.26 Q157.564 1517.07 158.582 1517.07 Q164.369 1517.07 167.749 1520.24 Q171.128 1523.42 171.128 1528.83 Q171.128 1534.41 167.656 1537.51 Q164.184 1540.59 157.865 1540.59 Q155.689 1540.59 153.42 1540.22 Q151.175 1539.85 148.767 1539.11 L148.767 1534.41 Q150.851 1535.54 153.073 1536.1 Q155.295 1536.66 157.772 1536.66 Q161.777 1536.66 164.115 1534.55 Q166.452 1532.44 166.452 1528.83 Q166.452 1525.22 164.115 1523.11 Q161.777 1521.01 157.772 1521.01 Q155.897 1521.01 154.022 1521.42 Q152.17 1521.84 150.226 1522.72 L150.226 1505.36 Z" fill="#000000" fill-rule="evenodd" fill-opacity="1" /><path clip-path="url(#clip900)" d="M 0 0 M176.198 1534.04 L181.082 1534.04 L181.082 1539.92 L176.198 1539.92 L176.198 1534.04 Z" fill="#000000" fill-rule="evenodd" fill-opacity="1" /><path clip-path="url(#clip900)" d="M 0 0 M196.151 1508.44 Q192.54 1508.44 190.712 1512 Q188.906 1515.55 188.906 1522.67 Q188.906 1529.78 190.712 1533.35 Q192.54 1536.89 196.151 1536.89 Q199.786 1536.89 201.591 1533.35 Q203.42 1529.78 203.42 1522.67 Q203.42 1515.55 201.591 1512 Q199.786 1508.44 196.151 1508.44 M196.151 1504.73 Q201.962 1504.73 205.017 1509.34 Q208.096 1513.92 208.096 1522.67 Q208.096 1531.4 205.017 1536.01 Q201.962 1540.59 196.151 1540.59 Q190.341 1540.59 187.263 1536.01 Q184.207 1531.4 184.207 1522.67 Q184.207 1513.92 187.263 1509.34 Q190.341 1504.73 196.151 1504.73 Z" fill="#000000" fill-rule="evenodd" fill-opacity="1" /><path clip-path="url(#clip900)" d="M 0 0 M582.29 1525.04 L594.767 1525.04 L594.767 1528.83 L582.29 1528.83 L582.29 1525.04 Z" fill="#000000" fill-rule="evenodd" fill-opacity="1" /><path clip-path="url(#clip900)" d="M 0 0 M603.864 1535.98 L620.184 1535.98 L620.184 1539.92 L598.239 1539.92 L598.239 1535.98 Q600.901 1533.23 605.485 1528.6 Q610.091 1523.95 611.272 1522.61 Q613.517 1520.08 614.397 1518.35 Q615.3 1516.59 615.3 1514.9 Q615.3 1512.14 613.355 1510.41 Q611.434 1508.67 608.332 1508.67 Q606.133 1508.67 603.679 1509.43 Q601.249 1510.2 598.471 1511.75 L598.471 1507.03 Q601.295 1505.89 603.749 1505.31 Q606.202 1504.73 608.239 1504.73 Q613.61 1504.73 616.804 1507.42 Q619.999 1510.11 619.999 1514.6 Q619.999 1516.73 619.188 1518.65 Q618.401 1520.54 616.295 1523.14 Q615.716 1523.81 612.614 1527.03 Q609.513 1530.22 603.864 1535.98 Z" fill="#000000" fill-rule="evenodd" fill-opacity="1" /><path clip-path="url(#clip900)" d="M 0 0 M625.253 1534.04 L630.137 1534.04 L630.137 1539.92 L625.253 1539.92 L625.253 1534.04 Z" fill="#000000" fill-rule="evenodd" fill-opacity="1" /><path clip-path="url(#clip900)" d="M 0 0 M635.253 1505.36 L653.609 1505.36 L653.609 1509.3 L639.535 1509.3 L639.535 1517.77 Q640.554 1517.42 641.573 1517.26 Q642.591 1517.07 643.61 1517.07 Q649.397 1517.07 652.776 1520.24 Q656.156 1523.42 656.156 1528.83 Q656.156 1534.41 652.684 1537.51 Q649.211 1540.59 642.892 1540.59 Q640.716 1540.59 638.448 1540.22 Q636.202 1539.85 633.795 1539.11 L633.795 1534.41 Q635.878 1535.54 638.1 1536.1 Q640.323 1536.66 642.799 1536.66 Q646.804 1536.66 649.142 1534.55 Q651.48 1532.44 651.48 1528.83 Q651.48 1525.22 649.142 1523.11 Q646.804 1521.01 642.799 1521.01 Q640.924 1521.01 639.049 1521.42 Q637.198 1521.84 635.253 1522.72 L635.253 1505.36 Z" fill="#000000" fill-rule="evenodd" fill-opacity="1" /><path clip-path="url(#clip900)" d="M 0 0 M1049.6 1508.44 Q1045.99 1508.44 1044.16 1512 Q1042.35 1515.55 1042.35 1522.67 Q1042.35 1529.78 1044.16 1533.35 Q1045.99 1536.89 1049.6 1536.89 Q1053.23 1536.89 1055.04 1533.35 Q1056.87 1529.78 1056.87 1522.67 Q1056.87 1515.55 1055.04 1512 Q1053.23 1508.44 1049.6 1508.44 M1049.6 1504.73 Q1055.41 1504.73 1058.46 1509.34 Q1061.54 1513.92 1061.54 1522.67 Q1061.54 1531.4 1058.46 1536.01 Q1055.41 1540.59 1049.6 1540.59 Q1043.79 1540.59 1040.71 1536.01 Q1037.65 1531.4 1037.65 1522.67 Q1037.65 1513.92 1040.71 1509.34 Q1043.79 1504.73 1049.6 1504.73 Z" fill="#000000" fill-rule="evenodd" fill-opacity="1" /><path clip-path="url(#clip900)" d="M 0 0 M1066.61 1534.04 L1071.5 1534.04 L1071.5 1539.92 L1066.61 1539.92 L1066.61 1534.04 Z" fill="#000000" fill-rule="evenodd" fill-opacity="1" /><path clip-path="url(#clip900)" d="M 0 0 M1086.57 1508.44 Q1082.95 1508.44 1081.13 1512 Q1079.32 1515.55 1079.32 1522.67 Q1079.32 1529.78 1081.13 1533.35 Q1082.95 1536.89 1086.57 1536.89 Q1090.2 1536.89 1092.01 1533.35 Q1093.83 1529.78 1093.83 1522.67 Q1093.83 1515.55 1092.01 1512 Q1090.2 1508.44 1086.57 1508.44 M1086.57 1504.73 Q1092.38 1504.73 1095.43 1509.34 Q1098.51 1513.92 1098.51 1522.67 Q1098.51 1531.4 1095.43 1536.01 Q1092.38 1540.59 1086.57 1540.59 Q1080.76 1540.59 1077.68 1536.01 Q1074.62 1531.4 1074.62 1522.67 Q1074.62 1513.92 1077.68 1509.34 Q1080.76 1504.73 1086.57 1504.73 Z" fill="#000000" fill-rule="evenodd" fill-opacity="1" /><path clip-path="url(#clip900)" d="M 0 0 M1493.61 1535.98 L1509.93 1535.98 L1509.93 1539.92 L1487.98 1539.92 L1487.98 1535.98 Q1490.64 1533.23 1495.23 1528.6 Q1499.83 1523.95 1501.01 1522.61 Q1503.26 1520.08 1504.14 1518.35 Q1505.04 1516.59 1505.04 1514.9 Q1505.04 1512.14 1503.1 1510.41 Q1501.18 1508.67 1498.07 1508.67 Q1495.88 1508.67 1493.42 1509.43 Q1490.99 1510.2 1488.21 1511.75 L1488.21 1507.03 Q1491.04 1505.89 1493.49 1505.31 Q1495.95 1504.73 1497.98 1504.73 Q1503.35 1504.73 1506.55 1507.42 Q1509.74 1510.11 1509.74 1514.6 Q1509.74 1516.73 1508.93 1518.65 Q1508.14 1520.54 1506.04 1523.14 Q1505.46 1523.81 1502.36 1527.03 Q1499.26 1530.22 1493.61 1535.98 Z" fill="#000000" fill-rule="evenodd" fill-opacity="1" /><path clip-path="url(#clip900)" d="M 0 0 M1515 1534.04 L1519.88 1534.04 L1519.88 1539.92 L1515 1539.92 L1515 1534.04 Z" fill="#000000" fill-rule="evenodd" fill-opacity="1" /><path clip-path="url(#clip900)" d="M 0 0 M1525 1505.36 L1543.35 1505.36 L1543.35 1509.3 L1529.28 1509.3 L1529.28 1517.77 Q1530.3 1517.42 1531.32 1517.26 Q1532.33 1517.07 1533.35 1517.07 Q1539.14 1517.07 1542.52 1520.24 Q1545.9 1523.42 1545.9 1528.83 Q1545.9 1534.41 1542.43 1537.51 Q1538.95 1540.59 1532.63 1540.59 Q1530.46 1540.59 1528.19 1540.22 Q1525.94 1539.85 1523.54 1539.11 L1523.54 1534.41 Q1525.62 1535.54 1527.84 1536.1 Q1530.07 1536.66 1532.54 1536.66 Q1536.55 1536.66 1538.88 1534.55 Q1541.22 1532.44 1541.22 1528.83 Q1541.22 1525.22 1538.88 1523.11 Q1536.55 1521.01 1532.54 1521.01 Q1530.67 1521.01 1528.79 1521.42 Q1526.94 1521.84 1525 1522.72 L1525 1505.36 Z" fill="#000000" fill-rule="evenodd" fill-opacity="1" /><path clip-path="url(#clip900)" d="M 0 0 M1937.59 1505.36 L1955.95 1505.36 L1955.95 1509.3 L1941.88 1509.3 L1941.88 1517.77 Q1942.89 1517.42 1943.91 1517.26 Q1944.93 1517.07 1945.95 1517.07 Q1951.74 1517.07 1955.12 1520.24 Q1958.5 1523.42 1958.5 1528.83 Q1958.5 1534.41 1955.02 1537.51 Q1951.55 1540.59 1945.23 1540.59 Q1943.06 1540.59 1940.79 1540.22 Q1938.54 1539.85 1936.13 1539.11 L1936.13 1534.41 Q1938.22 1535.54 1940.44 1536.1 Q1942.66 1536.66 1945.14 1536.66 Q1949.14 1536.66 1951.48 1534.55 Q1953.82 1532.44 1953.82 1528.83 Q1953.82 1525.22 1951.48 1523.11 Q1949.14 1521.01 1945.14 1521.01 Q1943.26 1521.01 1941.39 1521.42 Q1939.54 1521.84 1937.59 1522.72 L1937.59 1505.36 Z" fill="#000000" fill-rule="evenodd" fill-opacity="1" /><path clip-path="url(#clip900)" d="M 0 0 M1963.57 1534.04 L1968.45 1534.04 L1968.45 1539.92 L1963.57 1539.92 L1963.57 1534.04 Z" fill="#000000" fill-rule="evenodd" fill-opacity="1" /><path clip-path="url(#clip900)" d="M 0 0 M1983.52 1508.44 Q1979.91 1508.44 1978.08 1512 Q1976.27 1515.55 1976.27 1522.67 Q1976.27 1529.78 1978.08 1533.35 Q1979.91 1536.89 1983.52 1536.89 Q1987.15 1536.89 1988.96 1533.35 Q1990.79 1529.78 1990.79 1522.67 Q1990.79 1515.55 1988.96 1512 Q1987.15 1508.44 1983.52 1508.44 M1983.52 1504.73 Q1989.33 1504.73 1992.38 1509.34 Q1995.46 1513.92 1995.46 1522.67 Q1995.46 1531.4 1992.38 1536.01 Q1989.33 1540.59 1983.52 1540.59 Q1977.71 1540.59 1974.63 1536.01 Q1971.57 1531.4 1971.57 1522.67 Q1971.57 1513.92 1974.63 1509.34 Q1977.71 1504.73 1983.52 1504.73 Z" fill="#000000" fill-rule="evenodd" fill-opacity="1" /><path clip-path="url(#clip900)" d="M 0 0 M62.9921 1364.79 L75.4689 1364.79 L75.4689 1368.58 L62.9921 1368.58 L62.9921 1364.79 Z" fill="#000000" fill-rule="evenodd" fill-opacity="1" /><path clip-path="url(#clip900)" d="M 0 0 M84.5661 1375.73 L100.885 1375.73 L100.885 1379.67 L78.9411 1379.67 L78.9411 1375.73 Q81.6031 1372.98 86.1864 1368.35 Q90.7929 1363.7 91.9735 1362.35 Q94.2188 1359.83 95.0984 1358.1 Q96.0012 1356.34 96.0012 1354.65 Q96.0012 1351.89 94.0568 1350.16 Q92.1355 1348.42 89.0337 1348.42 Q86.8346 1348.42 84.3809 1349.18 Q81.9504 1349.95 79.1726 1351.5 L79.1726 1346.78 Q81.9967 1345.64 84.4503 1345.06 Q86.904 1344.48 88.9411 1344.48 Q94.3114 1344.48 97.5058 1347.17 Q100.7 1349.85 100.7 1354.35 Q100.7 1356.47 99.8901 1358.4 Q99.103 1360.29 96.9966 1362.89 Q96.4179 1363.56 93.316 1366.78 Q90.2142 1369.97 84.5661 1375.73 Z" fill="#000000" fill-rule="evenodd" fill-opacity="1" /><path clip-path="url(#clip900)" d="M 0 0 M88.9411 989.101 Q85.33 989.101 83.5013 992.666 Q81.6957 996.208 81.6957 1003.34 Q81.6957 1010.44 83.5013 1014.01 Q85.33 1017.55 88.9411 1017.55 Q92.5753 1017.55 94.3808 1014.01 Q96.2095 1010.44 96.2095 1003.34 Q96.2095 996.208 94.3808 992.666 Q92.5753 989.101 88.9411 989.101 M88.9411 985.397 Q94.7512 985.397 97.8068 990.004 Q100.885 994.587 100.885 1003.34 Q100.885 1012.06 97.8068 1016.67 Q94.7512 1021.25 88.9411 1021.25 Q83.1309 1021.25 80.0522 1016.67 Q76.9967 1012.06 76.9967 1003.34 Q76.9967 994.587 80.0522 990.004 Q83.1309 985.397 88.9411 985.397 Z" fill="#000000" fill-rule="evenodd" fill-opacity="1" /><path clip-path="url(#clip900)" d="M 0 0 M84.5661 657.56 L100.885 657.56 L100.885 661.496 L78.9411 661.496 L78.9411 657.56 Q81.6031 654.806 86.1864 650.176 Q90.7929 645.523 91.9735 644.181 Q94.2188 641.658 95.0984 639.922 Q96.0012 638.162 96.0012 636.473 Q96.0012 633.718 94.0568 631.982 Q92.1355 630.246 89.0337 630.246 Q86.8346 630.246 84.3809 631.01 Q81.9504 631.773 79.1726 633.324 L79.1726 628.602 Q81.9967 627.468 84.4503 626.889 Q86.904 626.311 88.9411 626.311 Q94.3114 626.311 97.5058 628.996 Q100.7 631.681 100.7 636.172 Q100.7 638.301 99.8901 640.223 Q99.103 642.121 96.9966 644.713 Q96.4179 645.385 93.316 648.602 Q90.2142 651.797 84.5661 657.56 Z" fill="#000000" fill-rule="evenodd" fill-opacity="1" /><path clip-path="url(#clip900)" d="M 0 0 M91.3022 271.923 L79.4967 290.372 L91.3022 290.372 L91.3022 271.923 M90.0753 267.849 L95.9549 267.849 L95.9549 290.372 L100.885 290.372 L100.885 294.261 L95.9549 294.261 L95.9549 302.409 L91.3022 302.409 L91.3022 294.261 L75.7004 294.261 L75.7004 289.747 L90.0753 267.849 Z" fill="#000000" fill-rule="evenodd" fill-opacity="1" /><path clip-path="url(#clip902)" d="
M1068.08 1003.3 L1247.63 464.672 L1786.26 644.216 L1068.08 1003.3  Z
  " fill="#008000" fill-rule="evenodd" fill-opacity="0.2"/>
<polyline clip-path="url(#clip902)" style="stroke:#000000; stroke-width:4; stroke-opacity:1; fill:none" points="
  1068.08,1003.3 1247.63,464.672 1786.26,644.216 1068.08,1003.3 
  "/>
<circle clip-path="url(#clip902)" cx="1068.08" cy="1003.3" r="14" fill="#ff0000" fill-rule="evenodd" fill-opacity="1" stroke="#000000" stroke-opacity="1" stroke-width="3.2"/>
<circle clip-path="url(#clip902)" cx="1247.63" cy="464.672" r="14" fill="#ff0000" fill-rule="evenodd" fill-opacity="1" stroke="#000000" stroke-opacity="1" stroke-width="3.2"/>
<circle clip-path="url(#clip902)" cx="1786.26" cy="644.216" r="14" fill="#ff0000" fill-rule="evenodd" fill-opacity="1" stroke="#000000" stroke-opacity="1" stroke-width="3.2"/>
<path clip-path="url(#clip900)" d="M 0 0 M1068.08 932.74 L1056.98 962.838 L1079.22 962.838 L1068.08 932.74 M1063.46 924.678 L1072.74 924.678 L1095.79 985.158 L1087.28 985.158 L1081.77 969.643 L1054.51 969.643 L1049 985.158 L1040.37 985.158 L1063.46 924.678 Z" fill="#000000" fill-rule="evenodd" fill-opacity="1" /><path clip-path="url(#clip900)" d="M 0 0 M1234.36 417.645 L1234.36 439.804 L1247.48 439.804 Q1254.09 439.804 1257.25 437.089 Q1260.45 434.335 1260.45 428.704 Q1260.45 423.033 1257.25 420.359 Q1254.09 417.645 1247.48 417.645 L1234.36 417.645 M1234.36 392.773 L1234.36 411.002 L1246.47 411.002 Q1252.47 411.002 1255.38 408.774 Q1258.34 406.505 1258.34 401.887 Q1258.34 397.31 1255.38 395.041 Q1252.47 392.773 1246.47 392.773 L1234.36 392.773 M1226.18 386.048 L1247.08 386.048 Q1256.44 386.048 1261.5 389.937 Q1266.56 393.826 1266.56 400.996 Q1266.56 406.546 1263.97 409.827 Q1261.38 413.108 1256.35 413.918 Q1262.39 415.215 1265.71 419.347 Q1269.07 423.438 1269.07 429.595 Q1269.07 437.697 1263.57 442.113 Q1258.06 446.528 1247.89 446.528 L1226.18 446.528 L1226.18 386.048 Z" fill="#000000" fill-rule="evenodd" fill-opacity="1" /><path clip-path="url(#clip900)" d="M 0 0 M1810.64 570.25 L1810.64 578.879 Q1806.51 575.03 1801.81 573.126 Q1797.15 571.222 1791.89 571.222 Q1781.52 571.222 1776.01 577.582 Q1770.5 583.902 1770.5 595.892 Q1770.5 607.842 1776.01 614.202 Q1781.52 620.522 1791.89 620.522 Q1797.15 620.522 1801.81 618.618 Q1806.51 616.714 1810.64 612.866 L1810.64 621.413 Q1806.35 624.33 1801.53 625.788 Q1796.75 627.246 1791.4 627.246 Q1777.67 627.246 1769.77 618.861 Q1761.87 610.435 1761.87 595.892 Q1761.87 581.309 1769.77 572.924 Q1777.67 564.498 1791.4 564.498 Q1796.83 564.498 1801.61 565.956 Q1806.43 567.374 1810.64 570.25 Z" fill="#000000" fill-rule="evenodd" fill-opacity="1" /><path clip-path="url(#clip902)" d="
M1068.08 1003.3 L1247.63 464.672 L691.386 578.498 L1068.08 1003.3  Z
  " fill="#ffc0cb" fill-rule="evenodd" fill-opacity="0.7"/>
<polyline clip-path="url(#clip902)" style="stroke:#000000; stroke-width:4; stroke-opacity:1; fill:none" points="
  1068.08,1003.3 1247.63,464.672 691.386,578.498 1068.08,1003.3 
  "/>
<path clip-path="url(#clip902)" d="
M1786.26 644.216 L1068.08 1003.3 L1738.15 1445.72 L1786.26 644.216  Z
  " fill="#ffc0cb" fill-rule="evenodd" fill-opacity="0.7"/>
<polyline clip-path="url(#clip902)" style="stroke:#000000; stroke-width:4; stroke-opacity:1; fill:none" points="
  1786.26,644.216 1068.08,1003.3 1738.15,1445.72 1786.26,644.216 
  "/>
<path clip-path="url(#clip902)" d="
M1247.63 464.672 L1786.26 644.216 L1672.43 87.9763 L1247.63 464.672  Z
  " fill="#ffc0cb" fill-rule="evenodd" fill-opacity="0.7"/>
<polyline clip-path="url(#clip902)" style="stroke:#000000; stroke-width:4; stroke-opacity:1; fill:none" points="
  1247.63,464.672 1786.26,644.216 1672.43,87.9763 1247.63,464.672 
  "/>
<path clip-path="url(#clip902)" d="
M1002.36 682.158 L1530.83 1031.08 L1568.77 398.955 L1002.36 682.158  Z
  " fill="#0000ff" fill-rule="evenodd" fill-opacity="0.7"/>
<polyline clip-path="url(#clip902)" style="stroke:#000000; stroke-width:4; stroke-opacity:1; fill:none" points="
  1002.36,682.158 1530.83,1031.08 1568.77,398.955 1002.36,682.158 
  "/>
</svg>
