<?xml version="1.0" encoding="utf-8"?>
<svg xmlns="http://www.w3.org/2000/svg" xmlns:xlink="http://www.w3.org/1999/xlink" width="600" height="400" viewBox="0 0 2400 1600">
<defs>
  <clipPath id="clip070">
    <rect x="0" y="0" width="2400" height="1600"/>
  </clipPath>
</defs>
<path clip-path="url(#clip070)" d="
M0 1600 L2400 1600 L2400 0 L0 0  Z
  " fill="#ffffff" fill-rule="evenodd" fill-opacity="1"/>
<defs>
  <clipPath id="clip071">
    <rect x="480" y="0" width="1681" height="1600"/>
  </clipPath>
</defs>
<path clip-path="url(#clip070)" d="
M86.9921 1521.01 L2352.76 1521.01 L2352.76 47.2441 L86.9921 47.2441  Z
  " fill="#ffffff" fill-rule="evenodd" fill-opacity="1"/>
<defs>
  <clipPath id="clip072">
    <rect x="86" y="47" width="2267" height="1475"/>
  </clipPath>
</defs>
<polyline clip-path="url(#clip072)" style="stroke:#000000; stroke-width:2; stroke-opacity:0.1; fill:none" points="
  457.68,1521.01 457.68,47.2441 
  "/>
<polyline clip-path="url(#clip072)" style="stroke:#000000; stroke-width:2; stroke-opacity:0.1; fill:none" points="
  948.282,1521.01 948.282,47.2441 
  "/>
<polyline clip-path="url(#clip072)" style="stroke:#000000; stroke-width:2; stroke-opacity:0.1; fill:none" points="
  1438.88,1521.01 1438.88,47.2441 
  "/>
<polyline clip-path="url(#clip072)" style="stroke:#000000; stroke-width:2; stroke-opacity:0.1; fill:none" points="
  1929.49,1521.01 1929.49,47.2441 
  "/>
<polyline clip-path="url(#clip072)" style="stroke:#000000; stroke-width:2; stroke-opacity:0.1; fill:none" points="
  86.9921,1274.73 2352.76,1274.73 
  "/>
<polyline clip-path="url(#clip072)" style="stroke:#000000; stroke-width:2; stroke-opacity:0.1; fill:none" points="
  86.9921,882.246 2352.76,882.246 
  "/>
<polyline clip-path="url(#clip072)" style="stroke:#000000; stroke-width:2; stroke-opacity:0.1; fill:none" points="
  86.9921,489.765 2352.76,489.765 
  "/>
<polyline clip-path="url(#clip072)" style="stroke:#000000; stroke-width:2; stroke-opacity:0.1; fill:none" points="
  86.9921,97.2837 2352.76,97.2837 
  "/>
<polyline clip-path="url(#clip070)" style="stroke:#000000; stroke-width:4; stroke-opacity:1; fill:none" points="
  86.9921,1521.01 2352.76,1521.01 
  "/>
<polyline clip-path="url(#clip070)" style="stroke:#000000; stroke-width:4; stroke-opacity:1; fill:none" points="
  86.9921,1521.01 86.9921,47.2441 
  "/>
<polyline clip-path="url(#clip070)" style="stroke:#000000; stroke-width:4; stroke-opacity:1; fill:none" points="
  457.68,1521.01 457.68,1503.32 
  "/>
<polyline clip-path="url(#clip070)" style="stroke:#000000; stroke-width:4; stroke-opacity:1; fill:none" points="
  948.282,1521.01 948.282,1503.32 
  "/>
<polyline clip-path="url(#clip070)" style="stroke:#000000; stroke-width:4; stroke-opacity:1; fill:none" points="
  1438.88,1521.01 1438.88,1503.32 
  "/>
<polyline clip-path="url(#clip070)" style="stroke:#000000; stroke-width:4; stroke-opacity:1; fill:none" points="
  1929.49,1521.01 1929.49,1503.32 
  "/>
<polyline clip-path="url(#clip070)" style="stroke:#000000; stroke-width:4; stroke-opacity:1; fill:none" points="
  86.9921,1274.73 114.181,1274.73 
  "/>
<polyline clip-path="url(#clip070)" style="stroke:#000000; stroke-width:4; stroke-opacity:1; fill:none" points="
  86.9921,882.246 114.181,882.246 
  "/>
<polyline clip-path="url(#clip070)" style="stroke:#000000; stroke-width:4; stroke-opacity:1; fill:none" points="
  86.9921,489.765 114.181,489.765 
  "/>
<polyline clip-path="url(#clip070)" style="stroke:#000000; stroke-width:4; stroke-opacity:1; fill:none" points="
  86.9921,97.2837 114.181,97.2837 
  "/>
<path clip-path="url(#clip070)" d="M 0 0 M407.241 1559.6 L419.718 1559.6 L419.718 1563.39 L407.241 1563.39 L407.241 1559.6 Z" fill="#000000" fill-rule="evenodd" fill-opacity="1" /><path clip-path="url(#clip070)" d="M 0 0 M434.787 1543 Q431.176 1543 429.347 1546.56 Q427.542 1550.11 427.542 1557.23 Q427.542 1564.34 429.347 1567.91 Q431.176 1571.45 434.787 1571.45 Q438.421 1571.45 440.227 1567.91 Q442.055 1564.34 442.055 1557.23 Q442.055 1550.11 440.227 1546.56 Q438.421 1543 434.787 1543 M434.787 1539.29 Q440.597 1539.29 443.653 1543.9 Q446.731 1548.48 446.731 1557.23 Q446.731 1565.96 443.653 1570.57 Q440.597 1575.15 434.787 1575.15 Q428.977 1575.15 425.898 1570.57 Q422.843 1565.96 422.843 1557.23 Q422.843 1548.48 425.898 1543.9 Q428.977 1539.29 434.787 1539.29 Z" fill="#000000" fill-rule="evenodd" fill-opacity="1" /><path clip-path="url(#clip070)" d="M 0 0 M451.801 1568.6 L456.685 1568.6 L456.685 1574.48 L451.801 1574.48 L451.801 1568.6 Z" fill="#000000" fill-rule="evenodd" fill-opacity="1" /><path clip-path="url(#clip070)" d="M 0 0 M465.782 1570.54 L482.101 1570.54 L482.101 1574.48 L460.157 1574.48 L460.157 1570.54 Q462.819 1567.79 467.402 1563.16 Q472.009 1558.51 473.189 1557.17 Q475.435 1554.64 476.314 1552.91 Q477.217 1551.15 477.217 1549.46 Q477.217 1546.7 475.273 1544.97 Q473.352 1543.23 470.25 1543.23 Q468.051 1543.23 465.597 1543.99 Q463.166 1544.76 460.389 1546.31 L460.389 1541.59 Q463.213 1540.45 465.666 1539.87 Q468.12 1539.29 470.157 1539.29 Q475.527 1539.29 478.722 1541.98 Q481.916 1544.67 481.916 1549.16 Q481.916 1551.29 481.106 1553.21 Q480.319 1555.1 478.213 1557.7 Q477.634 1558.37 474.532 1561.59 Q471.43 1564.78 465.782 1570.54 Z" fill="#000000" fill-rule="evenodd" fill-opacity="1" /><path clip-path="url(#clip070)" d="M 0 0 M487.217 1539.92 L505.574 1539.92 L505.574 1543.86 L491.5 1543.86 L491.5 1552.33 Q492.518 1551.98 493.537 1551.82 Q494.555 1551.63 495.574 1551.63 Q501.361 1551.63 504.74 1554.8 Q508.12 1557.98 508.12 1563.39 Q508.12 1568.97 504.648 1572.07 Q501.175 1575.15 494.856 1575.15 Q492.68 1575.15 490.412 1574.78 Q488.166 1574.41 485.759 1573.67 L485.759 1568.97 Q487.842 1570.1 490.064 1570.66 Q492.287 1571.22 494.763 1571.22 Q498.768 1571.22 501.106 1569.11 Q503.444 1567 503.444 1563.39 Q503.444 1559.78 501.106 1557.67 Q498.768 1555.57 494.763 1555.57 Q492.888 1555.57 491.013 1555.98 Q489.162 1556.4 487.217 1557.28 L487.217 1539.92 Z" fill="#000000" fill-rule="evenodd" fill-opacity="1" /><path clip-path="url(#clip070)" d="M 0 0 M916.291 1543 Q912.68 1543 910.852 1546.56 Q909.046 1550.11 909.046 1557.23 Q909.046 1564.34 910.852 1567.91 Q912.68 1571.45 916.291 1571.45 Q919.926 1571.45 921.731 1567.91 Q923.56 1564.34 923.56 1557.23 Q923.56 1550.11 921.731 1546.56 Q919.926 1543 916.291 1543 M916.291 1539.29 Q922.102 1539.29 925.157 1543.9 Q928.236 1548.48 928.236 1557.23 Q928.236 1565.96 925.157 1570.57 Q922.102 1575.15 916.291 1575.15 Q910.481 1575.15 907.403 1570.57 Q904.347 1565.96 904.347 1557.23 Q904.347 1548.48 907.403 1543.9 Q910.481 1539.29 916.291 1539.29 Z" fill="#000000" fill-rule="evenodd" fill-opacity="1" /><path clip-path="url(#clip070)" d="M 0 0 M933.305 1568.6 L938.189 1568.6 L938.189 1574.48 L933.305 1574.48 L933.305 1568.6 Z" fill="#000000" fill-rule="evenodd" fill-opacity="1" /><path clip-path="url(#clip070)" d="M 0 0 M953.259 1543 Q949.648 1543 947.819 1546.56 Q946.013 1550.11 946.013 1557.23 Q946.013 1564.34 947.819 1567.91 Q949.648 1571.45 953.259 1571.45 Q956.893 1571.45 958.699 1567.91 Q960.527 1564.34 960.527 1557.23 Q960.527 1550.11 958.699 1546.56 Q956.893 1543 953.259 1543 M953.259 1539.29 Q959.069 1539.29 962.124 1543.9 Q965.203 1548.48 965.203 1557.23 Q965.203 1565.96 962.124 1570.57 Q959.069 1575.15 953.259 1575.15 Q947.449 1575.15 944.37 1570.57 Q941.314 1565.96 941.314 1557.23 Q941.314 1548.48 944.37 1543.9 Q947.449 1539.29 953.259 1539.29 Z" fill="#000000" fill-rule="evenodd" fill-opacity="1" /><path clip-path="url(#clip070)" d="M 0 0 M980.273 1543 Q976.661 1543 974.833 1546.56 Q973.027 1550.11 973.027 1557.23 Q973.027 1564.34 974.833 1567.91 Q976.661 1571.45 980.273 1571.45 Q983.907 1571.45 985.712 1567.91 Q987.541 1564.34 987.541 1557.23 Q987.541 1550.11 985.712 1546.56 Q983.907 1543 980.273 1543 M980.273 1539.29 Q986.083 1539.29 989.138 1543.9 Q992.217 1548.48 992.217 1557.23 Q992.217 1565.96 989.138 1570.57 Q986.083 1575.15 980.273 1575.15 Q974.462 1575.15 971.384 1570.57 Q968.328 1565.96 968.328 1557.23 Q968.328 1548.48 971.384 1543.9 Q974.462 1539.29 980.273 1539.29 Z" fill="#000000" fill-rule="evenodd" fill-opacity="1" /><path clip-path="url(#clip070)" d="M 0 0 M1408.19 1543 Q1404.58 1543 1402.75 1546.56 Q1400.94 1550.11 1400.94 1557.23 Q1400.94 1564.34 1402.75 1567.91 Q1404.58 1571.45 1408.19 1571.45 Q1411.82 1571.45 1413.63 1567.91 Q1415.46 1564.34 1415.46 1557.23 Q1415.46 1550.11 1413.63 1546.56 Q1411.82 1543 1408.19 1543 M1408.19 1539.29 Q1414 1539.29 1417.05 1543.9 Q1420.13 1548.48 1420.13 1557.23 Q1420.13 1565.96 1417.05 1570.57 Q1414 1575.15 1408.19 1575.15 Q1402.38 1575.15 1399.3 1570.57 Q1396.24 1565.96 1396.24 1557.23 Q1396.24 1548.48 1399.3 1543.9 Q1402.38 1539.29 1408.19 1539.29 Z" fill="#000000" fill-rule="evenodd" fill-opacity="1" /><path clip-path="url(#clip070)" d="M 0 0 M1425.2 1568.6 L1430.09 1568.6 L1430.09 1574.48 L1425.2 1574.48 L1425.2 1568.6 Z" fill="#000000" fill-rule="evenodd" fill-opacity="1" /><path clip-path="url(#clip070)" d="M 0 0 M1439.18 1570.54 L1455.5 1570.54 L1455.5 1574.48 L1433.56 1574.48 L1433.56 1570.54 Q1436.22 1567.79 1440.8 1563.16 Q1445.41 1558.51 1446.59 1557.17 Q1448.84 1554.64 1449.72 1552.91 Q1450.62 1551.15 1450.62 1549.46 Q1450.62 1546.7 1448.68 1544.97 Q1446.75 1543.23 1443.65 1543.23 Q1441.45 1543.23 1439 1543.99 Q1436.57 1544.76 1433.79 1546.31 L1433.79 1541.59 Q1436.62 1540.45 1439.07 1539.87 Q1441.52 1539.29 1443.56 1539.29 Q1448.93 1539.29 1452.12 1541.98 Q1455.32 1544.67 1455.32 1549.16 Q1455.32 1551.29 1454.51 1553.21 Q1453.72 1555.1 1451.61 1557.7 Q1451.04 1558.37 1447.93 1561.59 Q1444.83 1564.78 1439.18 1570.54 Z" fill="#000000" fill-rule="evenodd" fill-opacity="1" /><path clip-path="url(#clip070)" d="M 0 0 M1460.62 1539.92 L1478.98 1539.92 L1478.98 1543.86 L1464.9 1543.86 L1464.9 1552.33 Q1465.92 1551.98 1466.94 1551.82 Q1467.96 1551.63 1468.98 1551.63 Q1474.76 1551.63 1478.14 1554.8 Q1481.52 1557.98 1481.52 1563.39 Q1481.52 1568.97 1478.05 1572.07 Q1474.58 1575.15 1468.26 1575.15 Q1466.08 1575.15 1463.81 1574.78 Q1461.57 1574.41 1459.16 1573.67 L1459.16 1568.97 Q1461.24 1570.1 1463.47 1570.66 Q1465.69 1571.22 1468.17 1571.22 Q1472.17 1571.22 1474.51 1569.11 Q1476.85 1567 1476.85 1563.39 Q1476.85 1559.78 1474.51 1557.67 Q1472.17 1555.57 1468.17 1555.57 Q1466.29 1555.57 1464.42 1555.98 Q1462.56 1556.4 1460.62 1557.28 L1460.62 1539.92 Z" fill="#000000" fill-rule="evenodd" fill-opacity="1" /><path clip-path="url(#clip070)" d="M 0 0 M1897.99 1543 Q1894.38 1543 1892.55 1546.56 Q1890.75 1550.11 1890.75 1557.23 Q1890.75 1564.34 1892.55 1567.91 Q1894.38 1571.45 1897.99 1571.45 Q1901.63 1571.45 1903.43 1567.91 Q1905.26 1564.34 1905.26 1557.23 Q1905.26 1550.11 1903.43 1546.56 Q1901.63 1543 1897.99 1543 M1897.99 1539.29 Q1903.8 1539.29 1906.86 1543.9 Q1909.94 1548.48 1909.94 1557.23 Q1909.94 1565.96 1906.86 1570.57 Q1903.8 1575.15 1897.99 1575.15 Q1892.18 1575.15 1889.1 1570.57 Q1886.05 1565.96 1886.05 1557.23 Q1886.05 1548.48 1889.1 1543.9 Q1892.18 1539.29 1897.99 1539.29 Z" fill="#000000" fill-rule="evenodd" fill-opacity="1" /><path clip-path="url(#clip070)" d="M 0 0 M1915.01 1568.6 L1919.89 1568.6 L1919.89 1574.48 L1915.01 1574.48 L1915.01 1568.6 Z" fill="#000000" fill-rule="evenodd" fill-opacity="1" /><path clip-path="url(#clip070)" d="M 0 0 M1925.01 1539.92 L1943.36 1539.92 L1943.36 1543.86 L1929.29 1543.86 L1929.29 1552.33 Q1930.31 1551.98 1931.33 1551.82 Q1932.34 1551.63 1933.36 1551.63 Q1939.15 1551.63 1942.53 1554.8 Q1945.91 1557.98 1945.91 1563.39 Q1945.91 1568.97 1942.44 1572.07 Q1938.96 1575.15 1932.64 1575.15 Q1930.47 1575.15 1928.2 1574.78 Q1925.96 1574.41 1923.55 1573.67 L1923.55 1568.97 Q1925.63 1570.1 1927.85 1570.66 Q1930.08 1571.22 1932.55 1571.22 Q1936.56 1571.22 1938.89 1569.11 Q1941.23 1567 1941.23 1563.39 Q1941.23 1559.78 1938.89 1557.67 Q1936.56 1555.57 1932.55 1555.57 Q1930.68 1555.57 1928.8 1555.98 Q1926.95 1556.4 1925.01 1557.28 L1925.01 1539.92 Z" fill="#000000" fill-rule="evenodd" fill-opacity="1" /><path clip-path="url(#clip070)" d="M 0 0 M1960.98 1543 Q1957.37 1543 1955.54 1546.56 Q1953.73 1550.11 1953.73 1557.23 Q1953.73 1564.34 1955.54 1567.91 Q1957.37 1571.45 1960.98 1571.45 Q1964.61 1571.45 1966.42 1567.91 Q1968.25 1564.34 1968.25 1557.23 Q1968.25 1550.11 1966.42 1546.56 Q1964.61 1543 1960.98 1543 M1960.98 1539.29 Q1966.79 1539.29 1969.84 1543.9 Q1972.92 1548.48 1972.92 1557.23 Q1972.92 1565.96 1969.84 1570.57 Q1966.79 1575.15 1960.98 1575.15 Q1955.17 1575.15 1952.09 1570.57 Q1949.03 1565.96 1949.03 1557.23 Q1949.03 1548.48 1952.09 1543.9 Q1955.17 1539.29 1960.98 1539.29 Z" fill="#000000" fill-rule="evenodd" fill-opacity="1" /><path clip-path="url(#clip070)" d="M 0 0 M15.6776 1260.53 Q12.0665 1260.53 10.2378 1264.09 Q8.43223 1267.63 8.43223 1274.76 Q8.43223 1281.87 10.2378 1285.43 Q12.0665 1288.98 15.6776 1288.98 Q19.3118 1288.98 21.1174 1285.43 Q22.946 1281.87 22.946 1274.76 Q22.946 1267.63 21.1174 1264.09 Q19.3118 1260.53 15.6776 1260.53 M15.6776 1256.82 Q21.4877 1256.82 24.5433 1261.43 Q27.6219 1266.01 27.6219 1274.76 Q27.6219 1283.49 24.5433 1288.1 Q21.4877 1292.68 15.6776 1292.68 Q9.86741 1292.68 6.78872 1288.1 Q3.73318 1283.49 3.73318 1274.76 Q3.73318 1266.01 6.78872 1261.43 Q9.86741 1256.82 15.6776 1256.82 Z" fill="#000000" fill-rule="evenodd" fill-opacity="1" /><path clip-path="url(#clip070)" d="M 0 0 M32.6914 1286.13 L37.5756 1286.13 L37.5756 1292.01 L32.6914 1292.01 L32.6914 1286.13 Z" fill="#000000" fill-rule="evenodd" fill-opacity="1" /><path clip-path="url(#clip070)" d="M 0 0 M46.6728 1288.07 L62.9921 1288.07 L62.9921 1292.01 L41.0478 1292.01 L41.0478 1288.07 Q43.7098 1285.32 48.2931 1280.69 Q52.8996 1276.04 54.0801 1274.69 Q56.3255 1272.17 57.2051 1270.43 Q58.1079 1268.67 58.1079 1266.98 Q58.1079 1264.23 56.1635 1262.49 Q54.2422 1260.76 51.1403 1260.76 Q48.9413 1260.76 46.4876 1261.52 Q44.057 1262.29 41.2793 1263.84 L41.2793 1259.11 Q44.1033 1257.98 46.557 1257.4 Q49.0107 1256.82 51.0477 1256.82 Q56.4181 1256.82 59.6125 1259.51 Q62.8069 1262.19 62.8069 1266.68 Q62.8069 1268.81 61.9968 1270.73 Q61.2097 1272.63 59.1033 1275.23 Q58.5246 1275.9 55.4227 1279.11 Q52.3209 1282.31 46.6728 1288.07 Z" fill="#000000" fill-rule="evenodd" fill-opacity="1" /><path clip-path="url(#clip070)" d="M 0 0 M13.5942 868.045 Q9.98315 868.045 8.15446 871.61 Q6.34891 875.151 6.34891 882.281 Q6.34891 889.387 8.15446 892.952 Q9.98315 896.494 13.5942 896.494 Q17.2285 896.494 19.034 892.952 Q20.8627 889.387 20.8627 882.281 Q20.8627 875.151 19.034 871.61 Q17.2285 868.045 13.5942 868.045 M13.5942 864.341 Q19.4044 864.341 22.4599 868.948 Q25.5386 873.531 25.5386 882.281 Q25.5386 891.008 22.4599 895.614 Q19.4044 900.198 13.5942 900.198 Q7.78409 900.198 4.7054 895.614 Q1.64986 891.008 1.64986 882.281 Q1.64986 873.531 4.7054 868.948 Q7.78409 864.341 13.5942 864.341 Z" fill="#000000" fill-rule="evenodd" fill-opacity="1" /><path clip-path="url(#clip070)" d="M 0 0 M30.608 893.647 L35.4923 893.647 L35.4923 899.526 L30.608 899.526 L30.608 893.647 Z" fill="#000000" fill-rule="evenodd" fill-opacity="1" /><path clip-path="url(#clip070)" d="M 0 0 M53.4088 869.04 L41.6034 887.489 L53.4088 887.489 L53.4088 869.04 M52.182 864.966 L58.0616 864.966 L58.0616 887.489 L62.9921 887.489 L62.9921 891.378 L58.0616 891.378 L58.0616 899.526 L53.4088 899.526 L53.4088 891.378 L37.8071 891.378 L37.8071 886.864 L52.182 864.966 Z" fill="#000000" fill-rule="evenodd" fill-opacity="1" /><path clip-path="url(#clip070)" d="M 0 0 M13.9183 475.564 Q10.3072 475.564 8.47853 479.128 Q6.67298 482.67 6.67298 489.8 Q6.67298 496.906 8.47853 500.471 Q10.3072 504.013 13.9183 504.013 Q17.5526 504.013 19.3581 500.471 Q21.1868 496.906 21.1868 489.8 Q21.1868 482.67 19.3581 479.128 Q17.5526 475.564 13.9183 475.564 M13.9183 471.86 Q19.7285 471.86 22.784 476.466 Q25.8627 481.05 25.8627 489.8 Q25.8627 498.527 22.784 503.133 Q19.7285 507.716 13.9183 507.716 Q8.10816 507.716 5.02947 503.133 Q1.97393 498.527 1.97393 489.8 Q1.97393 481.05 5.02947 476.466 Q8.10816 471.86 13.9183 471.86 Z" fill="#000000" fill-rule="evenodd" fill-opacity="1" /><path clip-path="url(#clip070)" d="M 0 0 M30.9321 501.165 L35.8163 501.165 L35.8163 507.045 L30.9321 507.045 L30.9321 501.165 Z" fill="#000000" fill-rule="evenodd" fill-opacity="1" /><path clip-path="url(#clip070)" d="M 0 0 M51.4644 487.902 Q48.3163 487.902 46.4644 490.054 Q44.6357 492.207 44.6357 495.957 Q44.6357 499.684 46.4644 501.86 Q48.3163 504.013 51.4644 504.013 Q54.6125 504.013 56.4412 501.86 Q58.2931 499.684 58.2931 495.957 Q58.2931 492.207 56.4412 490.054 Q54.6125 487.902 51.4644 487.902 M60.7468 473.249 L60.7468 477.508 Q58.9875 476.675 57.182 476.235 Q55.3996 475.795 53.6403 475.795 Q49.0107 475.795 46.557 478.92 Q44.1265 482.045 43.7793 488.365 Q45.145 486.351 47.2052 485.286 Q49.2653 484.198 51.7422 484.198 Q56.9505 484.198 59.9597 487.369 Q62.9921 490.517 62.9921 495.957 Q62.9921 501.281 59.844 504.499 Q56.6959 507.716 51.4644 507.716 Q45.4691 507.716 42.2978 503.133 Q39.1265 498.527 39.1265 489.8 Q39.1265 481.605 43.0154 476.744 Q46.9042 471.86 53.4551 471.86 Q55.2144 471.86 56.9968 472.207 Q58.8023 472.554 60.7468 473.249 Z" fill="#000000" fill-rule="evenodd" fill-opacity="1" /><path clip-path="url(#clip070)" d="M 0 0 M14.1729 83.0824 Q10.5619 83.0824 8.73316 86.6472 Q6.92761 90.1888 6.92761 97.3184 Q6.92761 104.425 8.73316 107.99 Q10.5619 111.531 14.1729 111.531 Q17.8072 111.531 19.6127 107.99 Q21.4414 104.425 21.4414 97.3184 Q21.4414 90.1888 19.6127 86.6472 Q17.8072 83.0824 14.1729 83.0824 M14.1729 79.3787 Q19.9831 79.3787 23.0386 83.9852 Q26.1173 88.5685 26.1173 97.3184 Q26.1173 106.045 23.0386 110.652 Q19.9831 115.235 14.1729 115.235 Q8.36279 115.235 5.2841 110.652 Q2.22856 106.045 2.22856 97.3184 Q2.22856 88.5685 5.2841 83.9852 Q8.36279 79.3787 14.1729 79.3787 Z" fill="#000000" fill-rule="evenodd" fill-opacity="1" /><path clip-path="url(#clip070)" d="M 0 0 M31.1867 108.684 L36.071 108.684 L36.071 114.564 L31.1867 114.564 L31.1867 108.684 Z" fill="#000000" fill-rule="evenodd" fill-opacity="1" /><path clip-path="url(#clip070)" d="M 0 0 M51.1403 98.1518 Q47.807 98.1518 45.8857 99.9342 Q43.9876 101.717 43.9876 104.842 Q43.9876 107.967 45.8857 109.749 Q47.807 111.531 51.1403 111.531 Q54.4737 111.531 56.3949 109.749 Q58.3162 107.943 58.3162 104.842 Q58.3162 101.717 56.3949 99.9342 Q54.4968 98.1518 51.1403 98.1518 M46.4644 96.161 Q43.4552 95.4203 41.7654 93.3601 Q40.0987 91.2999 40.0987 88.337 Q40.0987 84.1935 43.0385 81.7861 Q46.0015 79.3787 51.1403 79.3787 Q56.3023 79.3787 59.2421 81.7861 Q62.1819 84.1935 62.1819 88.337 Q62.1819 91.2999 60.4921 93.3601 Q58.8255 95.4203 55.8394 96.161 Q59.219 96.9481 61.094 99.2397 Q62.9921 101.531 62.9921 104.842 Q62.9921 109.865 59.9134 112.55 Q56.8579 115.235 51.1403 115.235 Q45.4228 115.235 42.3441 112.55 Q39.2885 109.865 39.2885 104.842 Q39.2885 101.531 41.1867 99.2397 Q43.0848 96.9481 46.4644 96.161 M44.7515 88.7768 Q44.7515 91.462 46.4181 92.9666 Q48.1079 94.4712 51.1403 94.4712 Q54.1496 94.4712 55.8394 92.9666 Q57.5523 91.462 57.5523 88.7768 Q57.5523 86.0916 55.8394 84.587 Q54.1496 83.0824 51.1403 83.0824 Q48.1079 83.0824 46.4181 84.587 Q44.7515 86.0916 44.7515 88.7768 Z" fill="#000000" fill-rule="evenodd" fill-opacity="1" /><path clip-path="url(#clip072)" d="
M1340.76 1470.97 L1340.76 97.2837 L1537 1078.49 L1340.76 1470.97  Z
  " fill="#008000" fill-rule="evenodd" fill-opacity="0.2"/>
<polyline clip-path="url(#clip072)" style="stroke:#000000; stroke-width:4; stroke-opacity:1; fill:none" points="
  1340.76,1470.97 1340.76,97.2837 1537,1078.49 1340.76,1470.97 
  "/>
<circle clip-path="url(#clip072)" cx="1340.76" cy="1470.97" r="14" fill="#ff0000" fill-rule="evenodd" fill-opacity="1" stroke="#000000" stroke-opacity="1" stroke-width="3.2"/>
<circle clip-path="url(#clip072)" cx="1340.76" cy="97.2837" r="14" fill="#ff0000" fill-rule="evenodd" fill-opacity="1" stroke="#000000" stroke-opacity="1" stroke-width="3.2"/>
<circle clip-path="url(#clip072)" cx="1537" cy="1078.49" r="14" fill="#ff0000" fill-rule="evenodd" fill-opacity="1" stroke="#000000" stroke-opacity="1" stroke-width="3.2"/>
<path clip-path="url(#clip070)" d="M 0 0 M1340.76 1400.41 L1329.66 1430.5 L1351.9 1430.5 L1340.76 1400.41 M1336.15 1392.34 L1345.42 1392.34 L1368.47 1452.82 L1359.96 1452.82 L1354.46 1437.31 L1327.19 1437.31 L1321.68 1452.82 L1313.06 1452.82 L1336.15 1392.34 Z" fill="#000000" fill-rule="evenodd" fill-opacity="1" /><path clip-path="url(#clip070)" d="M 0 0 M1327.5 50.2568 L1327.5 72.4152 L1340.62 72.4152 Q1347.22 72.4152 1350.38 69.7011 Q1353.58 66.9465 1353.58 61.3157 Q1353.58 55.6445 1350.38 52.9709 Q1347.22 50.2568 1340.62 50.2568 L1327.5 50.2568 M1327.5 25.3842 L1327.5 43.6133 L1339.61 43.6133 Q1345.6 43.6133 1348.52 41.3853 Q1351.48 39.1168 1351.48 34.4987 Q1351.48 29.9212 1348.52 27.6527 Q1345.6 25.3842 1339.61 25.3842 L1327.5 25.3842 M1319.31 18.6597 L1340.22 18.6597 Q1349.57 18.6597 1354.64 22.5486 Q1359.7 26.4374 1359.7 33.6075 Q1359.7 39.1573 1357.11 42.4385 Q1354.52 45.7197 1349.49 46.5299 Q1355.53 47.8262 1358.85 51.9581 Q1362.21 56.0495 1362.21 62.2069 Q1362.21 70.3087 1356.7 74.7242 Q1351.19 79.1397 1341.03 79.1397 L1319.31 79.1397 L1319.31 18.6597 Z" fill="#000000" fill-rule="evenodd" fill-opacity="1" /><path clip-path="url(#clip070)" d="M 0 0 M1561.39 1004.52 L1561.39 1013.15 Q1557.26 1009.3 1552.56 1007.4 Q1547.9 1005.49 1542.63 1005.49 Q1532.26 1005.49 1526.76 1011.85 Q1521.25 1018.17 1521.25 1030.16 Q1521.25 1042.11 1526.76 1048.47 Q1532.26 1054.79 1542.63 1054.79 Q1547.9 1054.79 1552.56 1052.89 Q1557.26 1050.99 1561.39 1047.14 L1561.39 1055.68 Q1557.1 1058.6 1552.28 1060.06 Q1547.5 1061.52 1542.15 1061.52 Q1528.42 1061.52 1520.52 1053.13 Q1512.62 1044.71 1512.62 1030.16 Q1512.62 1015.58 1520.52 1007.2 Q1528.42 998.769 1542.15 998.769 Q1547.58 998.769 1552.36 1000.23 Q1557.18 1001.65 1561.39 1004.52 Z" fill="#000000" fill-rule="evenodd" fill-opacity="1" /><path clip-path="url(#clip072)" d="
M1340.76 1470.97 L1340.76 97.2837 L151.118 784.126 L1340.76 1470.97  Z
  " fill="#ffc0cb" fill-rule="evenodd" fill-opacity="0.7"/>
<polyline clip-path="url(#clip072)" style="stroke:#000000; stroke-width:4; stroke-opacity:1; fill:none" points="
  1340.76,1470.97 1340.76,97.2837 151.118,784.126 1340.76,1470.97 
  "/>
<path clip-path="url(#clip072)" d="
M1537 1078.49 L1340.76 1470.97 L1778.78 1444.68 L1537 1078.49  Z
  " fill="#ffc0cb" fill-rule="evenodd" fill-opacity="0.7"/>
<polyline clip-path="url(#clip072)" style="stroke:#000000; stroke-width:4; stroke-opacity:1; fill:none" points="
  1537,1078.49 1340.76,1470.97 1778.78,1444.68 1537,1078.49 
  "/>
<path clip-path="url(#clip072)" d="
M1340.76 97.2837 L1537 1078.49 L2288.63 417.936 L1340.76 97.2837  Z
  " fill="#ffc0cb" fill-rule="evenodd" fill-opacity="0.7"/>
<polyline clip-path="url(#clip072)" style="stroke:#000000; stroke-width:4; stroke-opacity:1; fill:none" points="
  1340.76,97.2837 1537,1078.49 2288.63,417.936 1340.76,97.2837 
  "/>
<path clip-path="url(#clip072)" d="
M944.215 784.126 L1552.18 1331.38 L1722.13 531.236 L944.215 784.126  Z
  " fill="#0000ff" fill-rule="evenodd" fill-opacity="0.7"/>
<polyline clip-path="url(#clip072)" style="stroke:#000000; stroke-width:4; stroke-opacity:1; fill:none" points="
  944.215,784.126 1552.18,1331.38 1722.13,531.236 944.215,784.126 
  "/>
</svg>
