<?xml version="1.0" encoding="utf-8"?>
<svg xmlns="http://www.w3.org/2000/svg" xmlns:xlink="http://www.w3.org/1999/xlink" width="600" height="400" viewBox="0 0 2400 1600">
<defs>
  <clipPath id="clip130">
    <rect x="0" y="0" width="2400" height="1600"/>
  </clipPath>
</defs>
<path clip-path="url(#clip130)" d="
M0 1600 L2400 1600 L2400 0 L0 0  Z
  " fill="#ffffff" fill-rule="evenodd" fill-opacity="1"/>
<defs>
  <clipPath id="clip131">
    <rect x="480" y="0" width="1681" height="1600"/>
  </clipPath>
</defs>
<path clip-path="url(#clip130)" d="
M86.9921 1521.01 L2352.76 1521.01 L2352.76 47.2441 L86.9921 47.2441  Z
  " fill="#ffffff" fill-rule="evenodd" fill-opacity="1"/>
<defs>
  <clipPath id="clip132">
    <rect x="86" y="47" width="2267" height="1475"/>
  </clipPath>
</defs>
<polyline clip-path="url(#clip132)" style="stroke:#000000; stroke-width:2; stroke-opacity:0.1; fill:none" points="
  323.524,1521.01 323.524,47.2441 
  "/>
<polyline clip-path="url(#clip132)" style="stroke:#000000; stroke-width:2; stroke-opacity:0.1; fill:none" points="
  738.791,1521.01 738.791,47.2441 
  "/>
<polyline clip-path="url(#clip132)" style="stroke:#000000; stroke-width:2; stroke-opacity:0.1; fill:none" points="
  1154.06,1521.01 1154.06,47.2441 
  "/>
<polyline clip-path="url(#clip132)" style="stroke:#000000; stroke-width:2; stroke-opacity:0.1; fill:none" points="
  1569.32,1521.01 1569.32,47.2441 
  "/>
<polyline clip-path="url(#clip132)" style="stroke:#000000; stroke-width:2; stroke-opacity:0.1; fill:none" points="
  1984.59,1521.01 1984.59,47.2441 
  "/>
<polyline clip-path="url(#clip132)" style="stroke:#000000; stroke-width:2; stroke-opacity:0.1; fill:none" points="
  86.9921,1458.93 2352.76,1458.93 
  "/>
<polyline clip-path="url(#clip132)" style="stroke:#000000; stroke-width:2; stroke-opacity:0.1; fill:none" points="
  86.9921,1251.3 2352.76,1251.3 
  "/>
<polyline clip-path="url(#clip132)" style="stroke:#000000; stroke-width:2; stroke-opacity:0.1; fill:none" points="
  86.9921,1043.67 2352.76,1043.67 
  "/>
<polyline clip-path="url(#clip132)" style="stroke:#000000; stroke-width:2; stroke-opacity:0.1; fill:none" points="
  86.9921,836.034 2352.76,836.034 
  "/>
<polyline clip-path="url(#clip132)" style="stroke:#000000; stroke-width:2; stroke-opacity:0.1; fill:none" points="
  86.9921,628.401 2352.76,628.401 
  "/>
<polyline clip-path="url(#clip132)" style="stroke:#000000; stroke-width:2; stroke-opacity:0.1; fill:none" points="
  86.9921,420.768 2352.76,420.768 
  "/>
<polyline clip-path="url(#clip132)" style="stroke:#000000; stroke-width:2; stroke-opacity:0.1; fill:none" points="
  86.9921,213.135 2352.76,213.135 
  "/>
<polyline clip-path="url(#clip130)" style="stroke:#000000; stroke-width:4; stroke-opacity:1; fill:none" points="
  86.9921,1521.01 2352.76,1521.01 
  "/>
<polyline clip-path="url(#clip130)" style="stroke:#000000; stroke-width:4; stroke-opacity:1; fill:none" points="
  86.9921,1521.01 86.9921,47.2441 
  "/>
<polyline clip-path="url(#clip130)" style="stroke:#000000; stroke-width:4; stroke-opacity:1; fill:none" points="
  323.524,1521.01 323.524,1503.32 
  "/>
<polyline clip-path="url(#clip130)" style="stroke:#000000; stroke-width:4; stroke-opacity:1; fill:none" points="
  738.791,1521.01 738.791,1503.32 
  "/>
<polyline clip-path="url(#clip130)" style="stroke:#000000; stroke-width:4; stroke-opacity:1; fill:none" points="
  1154.06,1521.01 1154.06,1503.32 
  "/>
<polyline clip-path="url(#clip130)" style="stroke:#000000; stroke-width:4; stroke-opacity:1; fill:none" points="
  1569.32,1521.01 1569.32,1503.32 
  "/>
<polyline clip-path="url(#clip130)" style="stroke:#000000; stroke-width:4; stroke-opacity:1; fill:none" points="
  1984.59,1521.01 1984.59,1503.32 
  "/>
<polyline clip-path="url(#clip130)" style="stroke:#000000; stroke-width:4; stroke-opacity:1; fill:none" points="
  86.9921,1458.93 114.181,1458.93 
  "/>
<polyline clip-path="url(#clip130)" style="stroke:#000000; stroke-width:4; stroke-opacity:1; fill:none" points="
  86.9921,1251.3 114.181,1251.3 
  "/>
<polyline clip-path="url(#clip130)" style="stroke:#000000; stroke-width:4; stroke-opacity:1; fill:none" points="
  86.9921,1043.67 114.181,1043.67 
  "/>
<polyline clip-path="url(#clip130)" style="stroke:#000000; stroke-width:4; stroke-opacity:1; fill:none" points="
  86.9921,836.034 114.181,836.034 
  "/>
<polyline clip-path="url(#clip130)" style="stroke:#000000; stroke-width:4; stroke-opacity:1; fill:none" points="
  86.9921,628.401 114.181,628.401 
  "/>
<polyline clip-path="url(#clip130)" style="stroke:#000000; stroke-width:4; stroke-opacity:1; fill:none" points="
  86.9921,420.768 114.181,420.768 
  "/>
<polyline clip-path="url(#clip130)" style="stroke:#000000; stroke-width:4; stroke-opacity:1; fill:none" points="
  86.9921,213.135 114.181,213.135 
  "/>
<path clip-path="url(#clip130)" d="M 0 0 M303.536 1559.6 L316.013 1559.6 L316.013 1563.39 L303.536 1563.39 L303.536 1559.6 Z" fill="#000000" fill-rule="evenodd" fill-opacity="1" /><path clip-path="url(#clip130)" d="M 0 0 M333.929 1543.99 L322.124 1562.44 L333.929 1562.44 L333.929 1543.99 M332.703 1539.92 L338.582 1539.92 L338.582 1562.44 L343.513 1562.44 L343.513 1566.33 L338.582 1566.33 L338.582 1574.48 L333.929 1574.48 L333.929 1566.33 L318.328 1566.33 L318.328 1561.82 L332.703 1539.92 Z" fill="#000000" fill-rule="evenodd" fill-opacity="1" /><path clip-path="url(#clip130)" d="M 0 0 M719.844 1559.6 L732.321 1559.6 L732.321 1563.39 L719.844 1563.39 L719.844 1559.6 Z" fill="#000000" fill-rule="evenodd" fill-opacity="1" /><path clip-path="url(#clip130)" d="M 0 0 M741.418 1570.54 L757.737 1570.54 L757.737 1574.48 L735.793 1574.48 L735.793 1570.54 Q738.455 1567.79 743.038 1563.16 Q747.645 1558.51 748.825 1557.17 Q751.071 1554.64 751.95 1552.91 Q752.853 1551.15 752.853 1549.46 Q752.853 1546.7 750.909 1544.97 Q748.987 1543.23 745.886 1543.23 Q743.686 1543.23 741.233 1543.99 Q738.802 1544.76 736.024 1546.31 L736.024 1541.59 Q738.849 1540.45 741.302 1539.87 Q743.756 1539.29 745.793 1539.29 Q751.163 1539.29 754.358 1541.98 Q757.552 1544.67 757.552 1549.16 Q757.552 1551.29 756.742 1553.21 Q755.955 1555.1 753.848 1557.7 Q753.27 1558.37 750.168 1561.59 Q747.066 1564.78 741.418 1570.54 Z" fill="#000000" fill-rule="evenodd" fill-opacity="1" /><path clip-path="url(#clip130)" d="M 0 0 M1154.06 1543 Q1150.45 1543 1148.62 1546.56 Q1146.81 1550.11 1146.81 1557.23 Q1146.81 1564.34 1148.62 1567.91 Q1150.45 1571.45 1154.06 1571.45 Q1157.69 1571.45 1159.5 1567.91 Q1161.33 1564.34 1161.33 1557.23 Q1161.33 1550.11 1159.5 1546.56 Q1157.69 1543 1154.06 1543 M1154.06 1539.29 Q1159.87 1539.29 1162.92 1543.9 Q1166 1548.48 1166 1557.23 Q1166 1565.96 1162.92 1570.57 Q1159.87 1575.15 1154.06 1575.15 Q1148.25 1575.15 1145.17 1570.57 Q1142.11 1565.96 1142.11 1557.23 Q1142.11 1548.48 1145.17 1543.9 Q1148.25 1539.29 1154.06 1539.29 Z" fill="#000000" fill-rule="evenodd" fill-opacity="1" /><path clip-path="url(#clip130)" d="M 0 0 M1563.98 1570.54 L1580.3 1570.54 L1580.3 1574.48 L1558.35 1574.48 L1558.35 1570.54 Q1561.01 1567.79 1565.6 1563.16 Q1570.2 1558.51 1571.38 1557.17 Q1573.63 1554.64 1574.51 1552.91 Q1575.41 1551.15 1575.41 1549.46 Q1575.41 1546.7 1573.47 1544.97 Q1571.55 1543.23 1568.44 1543.23 Q1566.24 1543.23 1563.79 1543.99 Q1561.36 1544.76 1558.58 1546.31 L1558.58 1541.59 Q1561.41 1540.45 1563.86 1539.87 Q1566.31 1539.29 1568.35 1539.29 Q1573.72 1539.29 1576.92 1541.98 Q1580.11 1544.67 1580.11 1549.16 Q1580.11 1551.29 1579.3 1553.21 Q1578.51 1555.1 1576.41 1557.7 Q1575.83 1558.37 1572.73 1561.59 Q1569.62 1564.78 1563.98 1570.54 Z" fill="#000000" fill-rule="evenodd" fill-opacity="1" /><path clip-path="url(#clip130)" d="M 0 0 M1987.6 1543.99 L1975.79 1562.44 L1987.6 1562.44 L1987.6 1543.99 M1986.37 1539.92 L1992.25 1539.92 L1992.25 1562.44 L1997.18 1562.44 L1997.18 1566.33 L1992.25 1566.33 L1992.25 1574.48 L1987.6 1574.48 L1987.6 1566.33 L1972 1566.33 L1972 1561.82 L1986.37 1539.92 Z" fill="#000000" fill-rule="evenodd" fill-opacity="1" /><path clip-path="url(#clip130)" d="M 0 0 M25.0988 1461.33 L37.5756 1461.33 L37.5756 1465.13 L25.0988 1465.13 L25.0988 1461.33 Z" fill="#000000" fill-rule="evenodd" fill-opacity="1" /><path clip-path="url(#clip130)" d="M 0 0 M46.6728 1472.28 L62.9921 1472.28 L62.9921 1476.21 L41.0478 1476.21 L41.0478 1472.28 Q43.7098 1469.52 48.2931 1464.89 Q52.8996 1460.24 54.0801 1458.9 Q56.3255 1456.38 57.2051 1454.64 Q58.1079 1452.88 58.1079 1451.19 Q58.1079 1448.44 56.1635 1446.7 Q54.2422 1444.96 51.1403 1444.96 Q48.9413 1444.96 46.4876 1445.73 Q44.057 1446.49 41.2793 1448.04 L41.2793 1443.32 Q44.1033 1442.19 46.557 1441.61 Q49.0107 1441.03 51.0477 1441.03 Q56.4181 1441.03 59.6125 1443.71 Q62.8069 1446.4 62.8069 1450.89 Q62.8069 1453.02 61.9968 1454.94 Q61.2097 1456.84 59.1033 1459.43 Q58.5246 1460.1 55.4227 1463.32 Q52.3209 1466.51 46.6728 1472.28 Z" fill="#000000" fill-rule="evenodd" fill-opacity="1" /><path clip-path="url(#clip130)" d="M 0 0 M24.7284 1253.7 L37.2052 1253.7 L37.2052 1257.49 L24.7284 1257.49 L24.7284 1253.7 Z" fill="#000000" fill-rule="evenodd" fill-opacity="1" /><path clip-path="url(#clip130)" d="M 0 0 M43.0848 1264.65 L50.7237 1264.65 L50.7237 1238.28 L42.4135 1239.95 L42.4135 1235.69 L50.6774 1234.02 L55.3533 1234.02 L55.3533 1264.65 L62.9921 1264.65 L62.9921 1268.58 L43.0848 1268.58 L43.0848 1264.65 Z" fill="#000000" fill-rule="evenodd" fill-opacity="1" /><path clip-path="url(#clip130)" d="M 0 0 M51.0477 1029.47 Q47.4367 1029.47 45.608 1033.03 Q43.8024 1036.57 43.8024 1043.7 Q43.8024 1050.81 45.608 1054.37 Q47.4367 1057.92 51.0477 1057.92 Q54.682 1057.92 56.4875 1054.37 Q58.3162 1050.81 58.3162 1043.7 Q58.3162 1036.57 56.4875 1033.03 Q54.682 1029.47 51.0477 1029.47 M51.0477 1025.76 Q56.8579 1025.76 59.9134 1030.37 Q62.9921 1034.95 62.9921 1043.7 Q62.9921 1052.43 59.9134 1057.04 Q56.8579 1061.62 51.0477 1061.62 Q45.2376 1061.62 42.1589 1057.04 Q39.1034 1052.43 39.1034 1043.7 Q39.1034 1034.95 42.1589 1030.37 Q45.2376 1025.76 51.0477 1025.76 Z" fill="#000000" fill-rule="evenodd" fill-opacity="1" /><path clip-path="url(#clip130)" d="M 0 0 M43.0848 849.379 L50.7237 849.379 L50.7237 823.014 L42.4135 824.68 L42.4135 820.421 L50.6774 818.754 L55.3533 818.754 L55.3533 849.379 L62.9921 849.379 L62.9921 853.314 L43.0848 853.314 L43.0848 849.379 Z" fill="#000000" fill-rule="evenodd" fill-opacity="1" /><path clip-path="url(#clip130)" d="M 0 0 M46.6728 641.746 L62.9921 641.746 L62.9921 645.681 L41.0478 645.681 L41.0478 641.746 Q43.7098 638.991 48.2931 634.362 Q52.8996 629.709 54.0801 628.366 Q56.3255 625.843 57.2051 624.107 Q58.1079 622.348 58.1079 620.658 Q58.1079 617.903 56.1635 616.167 Q54.2422 614.431 51.1403 614.431 Q48.9413 614.431 46.4876 615.195 Q44.057 615.959 41.2793 617.51 L41.2793 612.788 Q44.1033 611.654 46.557 611.075 Q49.0107 610.496 51.0477 610.496 Q56.4181 610.496 59.6125 613.181 Q62.8069 615.866 62.8069 620.357 Q62.8069 622.487 61.9968 624.408 Q61.2097 626.306 59.1033 628.899 Q58.5246 629.57 55.4227 632.788 Q52.3209 635.982 46.6728 641.746 Z" fill="#000000" fill-rule="evenodd" fill-opacity="1" /><path clip-path="url(#clip130)" d="M 0 0 M55.8625 419.414 Q59.219 420.131 61.094 422.4 Q62.9921 424.668 62.9921 428.002 Q62.9921 433.117 59.4736 435.918 Q55.9551 438.719 49.4737 438.719 Q47.2978 438.719 44.983 438.279 Q42.6913 437.863 40.2376 437.006 L40.2376 432.492 Q42.1821 433.627 44.4969 434.205 Q46.8117 434.784 49.3348 434.784 Q53.7329 434.784 56.0246 433.048 Q58.3394 431.312 58.3394 428.002 Q58.3394 424.946 56.1866 423.233 Q54.057 421.497 50.2376 421.497 L46.2098 421.497 L46.2098 417.655 L50.4227 417.655 Q53.8718 417.655 55.7005 416.289 Q57.5292 414.9 57.5292 412.307 Q57.5292 409.645 55.6311 408.233 Q53.7561 406.798 50.2376 406.798 Q48.3163 406.798 46.1172 407.215 Q43.9182 407.631 41.2793 408.511 L41.2793 404.344 Q43.9413 403.604 46.2561 403.233 Q48.5941 402.863 50.6542 402.863 Q55.9783 402.863 59.0801 405.294 Q62.1819 407.701 62.1819 411.821 Q62.1819 414.692 60.5384 416.682 Q58.8949 418.65 55.8625 419.414 Z" fill="#000000" fill-rule="evenodd" fill-opacity="1" /><path clip-path="url(#clip130)" d="M 0 0 M53.4088 199.929 L41.6034 218.378 L53.4088 218.378 L53.4088 199.929 M52.182 195.855 L58.0616 195.855 L58.0616 218.378 L62.9921 218.378 L62.9921 222.267 L58.0616 222.267 L58.0616 230.415 L53.4088 230.415 L53.4088 222.267 L37.8071 222.267 L37.8071 217.753 L52.182 195.855 Z" fill="#000000" fill-rule="evenodd" fill-opacity="1" /><path clip-path="url(#clip132)" d="
M1154.06 1043.67 L1154.06 420.768 L1776.96 836.034 L1154.06 1043.67  Z
  " fill="#008000" fill-rule="evenodd" fill-opacity="0.2"/>
<polyline clip-path="url(#clip132)" style="stroke:#000000; stroke-width:4; stroke-opacity:1; fill:none" points="
  1154.06,1043.67 1154.06,420.768 1776.96,836.034 1154.06,1043.67 
  "/>
<circle clip-path="url(#clip132)" cx="1154.06" cy="1043.67" r="14" fill="#ff0000" fill-rule="evenodd" fill-opacity="1" stroke="#000000" stroke-opacity="1" stroke-width="3.2"/>
<circle clip-path="url(#clip132)" cx="1154.06" cy="420.768" r="14" fill="#ff0000" fill-rule="evenodd" fill-opacity="1" stroke="#000000" stroke-opacity="1" stroke-width="3.2"/>
<circle clip-path="url(#clip132)" cx="1776.96" cy="836.034" r="14" fill="#ff0000" fill-rule="evenodd" fill-opacity="1" stroke="#000000" stroke-opacity="1" stroke-width="3.2"/>
<path clip-path="url(#clip130)" d="M 0 0 M1154.06 973.105 L1142.96 1003.2 L1165.2 1003.2 L1154.06 973.105 M1149.44 965.043 L1158.72 965.043 L1181.77 1025.52 L1173.26 1025.52 L1167.75 1010.01 L1140.49 1010.01 L1134.98 1025.52 L1126.35 1025.52 L1149.44 965.043 Z" fill="#000000" fill-rule="evenodd" fill-opacity="1" /><path clip-path="url(#clip130)" d="M 0 0 M1140.79 373.741 L1140.79 395.899 L1153.92 395.899 Q1160.52 395.899 1163.68 393.185 Q1166.88 390.431 1166.88 384.8 Q1166.88 379.129 1163.68 376.455 Q1160.52 373.741 1153.92 373.741 L1140.79 373.741 M1140.79 348.868 L1140.79 367.098 L1152.9 367.098 Q1158.9 367.098 1161.81 364.87 Q1164.77 362.601 1164.77 357.983 Q1164.77 353.405 1161.81 351.137 Q1158.9 348.868 1152.9 348.868 L1140.79 348.868 M1132.61 342.144 L1153.51 342.144 Q1162.87 342.144 1167.93 346.033 Q1172.99 349.922 1172.99 357.092 Q1172.99 362.642 1170.4 365.923 Q1167.81 369.204 1162.79 370.014 Q1168.82 371.31 1172.14 375.442 Q1175.51 379.534 1175.51 385.691 Q1175.51 393.793 1170 398.208 Q1164.49 402.624 1154.32 402.624 L1132.61 402.624 L1132.61 342.144 Z" fill="#000000" fill-rule="evenodd" fill-opacity="1" /><path clip-path="url(#clip130)" d="M 0 0 M1801.34 762.069 L1801.34 770.697 Q1797.21 766.849 1792.51 764.945 Q1787.85 763.041 1782.59 763.041 Q1772.22 763.041 1766.71 769.401 Q1761.2 775.72 1761.2 787.711 Q1761.2 799.661 1766.71 806.021 Q1772.22 812.341 1782.59 812.341 Q1787.85 812.341 1792.51 810.437 Q1797.21 808.533 1801.34 804.684 L1801.34 813.232 Q1797.05 816.148 1792.23 817.607 Q1787.45 819.065 1782.1 819.065 Q1768.37 819.065 1760.47 810.68 Q1752.57 802.254 1752.57 787.711 Q1752.57 773.128 1760.47 764.742 Q1768.37 756.317 1782.1 756.317 Q1787.53 756.317 1792.31 757.775 Q1797.13 759.193 1801.34 762.069 Z" fill="#000000" fill-rule="evenodd" fill-opacity="1" /><path clip-path="url(#clip132)" d="
M1154.06 1043.67 L1154.06 420.768 L614.61 732.218 L1154.06 1043.67  Z
  " fill="#ffc0cb" fill-rule="evenodd" fill-opacity="0.7"/>
<polyline clip-path="url(#clip132)" style="stroke:#000000; stroke-width:4; stroke-opacity:1; fill:none" points="
  1154.06,1043.67 1154.06,420.768 614.61,732.218 1154.06,1043.67 
  "/>
<path clip-path="url(#clip132)" d="
M1776.96 836.034 L1154.06 1043.67 L1645.32 1479.3 L1776.96 836.034  Z
  " fill="#ffc0cb" fill-rule="evenodd" fill-opacity="0.7"/>
<polyline clip-path="url(#clip132)" style="stroke:#000000; stroke-width:4; stroke-opacity:1; fill:none" points="
  1776.96,836.034 1154.06,1043.67 1645.32,1479.3 1776.96,836.034 
  "/>
<path clip-path="url(#clip132)" d="
M1154.06 420.768 L1776.96 836.034 L1825.14 88.9544 L1154.06 420.768  Z
  " fill="#ffc0cb" fill-rule="evenodd" fill-opacity="0.7"/>
<polyline clip-path="url(#clip132)" style="stroke:#000000; stroke-width:4; stroke-opacity:1; fill:none" points="
  1154.06,420.768 1776.96,836.034 1825.14,88.9544 1154.06,420.768 
  "/>
<path clip-path="url(#clip132)" d="
M974.241 732.218 L1525.45 1119.67 L1585.38 448.586 L974.241 732.218  Z
  " fill="#0000ff" fill-rule="evenodd" fill-opacity="0.7"/>
<polyline clip-path="url(#clip132)" style="stroke:#000000; stroke-width:4; stroke-opacity:1; fill:none" points="
  974.241,732.218 1525.45,1119.67 1585.38,448.586 974.241,732.218 
  "/>
</svg>
