<?xml version="1.0" encoding="utf-8"?>
<svg xmlns="http://www.w3.org/2000/svg" xmlns:xlink="http://www.w3.org/1999/xlink" width="600" height="400" viewBox="0 0 2400 1600">
<defs>
  <clipPath id="clip930">
    <rect x="0" y="0" width="2400" height="1600"/>
  </clipPath>
</defs>
<path clip-path="url(#clip930)" d="
M0 1600 L2400 1600 L2400 0 L0 0  Z
  " fill="#ffffff" fill-rule="evenodd" fill-opacity="1"/>
<defs>
  <clipPath id="clip931">
    <rect x="480" y="0" width="1681" height="1600"/>
  </clipPath>
</defs>
<path clip-path="url(#clip930)" d="
M148.334 1486.45 L2352.76 1486.45 L2352.76 47.2441 L148.334 47.2441  Z
  " fill="#ffffff" fill-rule="evenodd" fill-opacity="1"/>
<defs>
  <clipPath id="clip932">
    <rect x="148" y="47" width="2205" height="1440"/>
  </clipPath>
</defs>
<polyline clip-path="url(#clip932)" style="stroke:#000000; stroke-width:2; stroke-opacity:0.1; fill:none" points="
  465.63,1486.45 465.63,47.2441 
  "/>
<polyline clip-path="url(#clip932)" style="stroke:#000000; stroke-width:2; stroke-opacity:0.1; fill:none" points="
  870.435,1486.45 870.435,47.2441 
  "/>
<polyline clip-path="url(#clip932)" style="stroke:#000000; stroke-width:2; stroke-opacity:0.1; fill:none" points="
  1275.24,1486.45 1275.24,47.2441 
  "/>
<polyline clip-path="url(#clip932)" style="stroke:#000000; stroke-width:2; stroke-opacity:0.1; fill:none" points="
  1680.04,1486.45 1680.04,47.2441 
  "/>
<polyline clip-path="url(#clip932)" style="stroke:#000000; stroke-width:2; stroke-opacity:0.1; fill:none" points="
  2084.85,1486.45 2084.85,47.2441 
  "/>
<polyline clip-path="url(#clip932)" style="stroke:#000000; stroke-width:2; stroke-opacity:0.1; fill:none" points="
  148.334,1216.85 2352.76,1216.85 
  "/>
<polyline clip-path="url(#clip932)" style="stroke:#000000; stroke-width:2; stroke-opacity:0.1; fill:none" points="
  148.334,946.976 2352.76,946.976 
  "/>
<polyline clip-path="url(#clip932)" style="stroke:#000000; stroke-width:2; stroke-opacity:0.1; fill:none" points="
  148.334,677.106 2352.76,677.106 
  "/>
<polyline clip-path="url(#clip932)" style="stroke:#000000; stroke-width:2; stroke-opacity:0.1; fill:none" points="
  148.334,407.236 2352.76,407.236 
  "/>
<polyline clip-path="url(#clip932)" style="stroke:#000000; stroke-width:2; stroke-opacity:0.1; fill:none" points="
  148.334,137.366 2352.76,137.366 
  "/>
<polyline clip-path="url(#clip930)" style="stroke:#000000; stroke-width:4; stroke-opacity:1; fill:none" points="
  148.334,1486.45 2352.76,1486.45 
  "/>
<polyline clip-path="url(#clip930)" style="stroke:#000000; stroke-width:4; stroke-opacity:1; fill:none" points="
  148.334,1486.45 148.334,47.2441 
  "/>
<polyline clip-path="url(#clip930)" style="stroke:#000000; stroke-width:4; stroke-opacity:1; fill:none" points="
  465.63,1486.45 465.63,1469.18 
  "/>
<polyline clip-path="url(#clip930)" style="stroke:#000000; stroke-width:4; stroke-opacity:1; fill:none" points="
  870.435,1486.45 870.435,1469.18 
  "/>
<polyline clip-path="url(#clip930)" style="stroke:#000000; stroke-width:4; stroke-opacity:1; fill:none" points="
  1275.24,1486.45 1275.24,1469.18 
  "/>
<polyline clip-path="url(#clip930)" style="stroke:#000000; stroke-width:4; stroke-opacity:1; fill:none" points="
  1680.04,1486.45 1680.04,1469.18 
  "/>
<polyline clip-path="url(#clip930)" style="stroke:#000000; stroke-width:4; stroke-opacity:1; fill:none" points="
  2084.85,1486.45 2084.85,1469.18 
  "/>
<polyline clip-path="url(#clip930)" style="stroke:#000000; stroke-width:4; stroke-opacity:1; fill:none" points="
  148.334,1216.85 174.787,1216.85 
  "/>
<polyline clip-path="url(#clip930)" style="stroke:#000000; stroke-width:4; stroke-opacity:1; fill:none" points="
  148.334,946.976 174.787,946.976 
  "/>
<polyline clip-path="url(#clip930)" style="stroke:#000000; stroke-width:4; stroke-opacity:1; fill:none" points="
  148.334,677.106 174.787,677.106 
  "/>
<polyline clip-path="url(#clip930)" style="stroke:#000000; stroke-width:4; stroke-opacity:1; fill:none" points="
  148.334,407.236 174.787,407.236 
  "/>
<polyline clip-path="url(#clip930)" style="stroke:#000000; stroke-width:4; stroke-opacity:1; fill:none" points="
  148.334,137.366 174.787,137.366 
  "/>
<path clip-path="url(#clip930)" d="M 0 0 M447.147 1508.44 Q443.535 1508.44 441.707 1512 Q439.901 1515.55 439.901 1522.67 Q439.901 1529.78 441.707 1533.35 Q443.535 1536.89 447.147 1536.89 Q450.781 1536.89 452.586 1533.35 Q454.415 1529.78 454.415 1522.67 Q454.415 1515.55 452.586 1512 Q450.781 1508.44 447.147 1508.44 M447.147 1504.73 Q452.957 1504.73 456.012 1509.34 Q459.091 1513.92 459.091 1522.67 Q459.091 1531.4 456.012 1536.01 Q452.957 1540.59 447.147 1540.59 Q441.336 1540.59 438.258 1536.01 Q435.202 1531.4 435.202 1522.67 Q435.202 1513.92 438.258 1509.34 Q441.336 1504.73 447.147 1504.73 Z" fill="#000000" fill-rule="evenodd" fill-opacity="1" /><path clip-path="url(#clip930)" d="M 0 0 M464.16 1534.04 L469.045 1534.04 L469.045 1539.92 L464.16 1539.92 L464.16 1534.04 Z" fill="#000000" fill-rule="evenodd" fill-opacity="1" /><path clip-path="url(#clip930)" d="M 0 0 M484.114 1508.44 Q480.503 1508.44 478.674 1512 Q476.869 1515.55 476.869 1522.67 Q476.869 1529.78 478.674 1533.35 Q480.503 1536.89 484.114 1536.89 Q487.748 1536.89 489.554 1533.35 Q491.382 1529.78 491.382 1522.67 Q491.382 1515.55 489.554 1512 Q487.748 1508.44 484.114 1508.44 M484.114 1504.73 Q489.924 1504.73 492.98 1509.34 Q496.058 1513.92 496.058 1522.67 Q496.058 1531.4 492.98 1536.01 Q489.924 1540.59 484.114 1540.59 Q478.304 1540.59 475.225 1536.01 Q472.17 1531.4 472.17 1522.67 Q472.17 1513.92 475.225 1509.34 Q478.304 1504.73 484.114 1504.73 Z" fill="#000000" fill-rule="evenodd" fill-opacity="1" /><path clip-path="url(#clip930)" d="M 0 0 M852.275 1508.44 Q848.664 1508.44 846.836 1512 Q845.03 1515.55 845.03 1522.67 Q845.03 1529.78 846.836 1533.35 Q848.664 1536.89 852.275 1536.89 Q855.91 1536.89 857.715 1533.35 Q859.544 1529.78 859.544 1522.67 Q859.544 1515.55 857.715 1512 Q855.91 1508.44 852.275 1508.44 M852.275 1504.73 Q858.086 1504.73 861.141 1509.34 Q864.22 1513.92 864.22 1522.67 Q864.22 1531.4 861.141 1536.01 Q858.086 1540.59 852.275 1540.59 Q846.465 1540.59 843.387 1536.01 Q840.331 1531.4 840.331 1522.67 Q840.331 1513.92 843.387 1509.34 Q846.465 1504.73 852.275 1504.73 Z" fill="#000000" fill-rule="evenodd" fill-opacity="1" /><path clip-path="url(#clip930)" d="M 0 0 M869.289 1534.04 L874.174 1534.04 L874.174 1539.92 L869.289 1539.92 L869.289 1534.04 Z" fill="#000000" fill-rule="evenodd" fill-opacity="1" /><path clip-path="url(#clip930)" d="M 0 0 M893.41 1521.29 Q896.766 1522 898.641 1524.27 Q900.539 1526.54 900.539 1529.87 Q900.539 1534.99 897.021 1537.79 Q893.502 1540.59 887.021 1540.59 Q884.845 1540.59 882.53 1540.15 Q880.238 1539.73 877.785 1538.88 L877.785 1534.36 Q879.729 1535.5 882.044 1536.08 Q884.359 1536.66 886.882 1536.66 Q891.28 1536.66 893.572 1534.92 Q895.886 1533.18 895.886 1529.87 Q895.886 1526.82 893.734 1525.11 Q891.604 1523.37 887.785 1523.37 L883.757 1523.37 L883.757 1519.53 L887.97 1519.53 Q891.419 1519.53 893.247 1518.16 Q895.076 1516.77 895.076 1514.18 Q895.076 1511.52 893.178 1510.11 Q891.303 1508.67 887.785 1508.67 Q885.863 1508.67 883.664 1509.09 Q881.465 1509.5 878.826 1510.38 L878.826 1506.22 Q881.488 1505.48 883.803 1505.11 Q886.141 1504.73 888.201 1504.73 Q893.525 1504.73 896.627 1507.17 Q899.729 1509.57 899.729 1513.69 Q899.729 1516.56 898.085 1518.55 Q896.442 1520.52 893.41 1521.29 Z" fill="#000000" fill-rule="evenodd" fill-opacity="1" /><path clip-path="url(#clip930)" d="M 0 0 M1256.68 1508.44 Q1253.06 1508.44 1251.24 1512 Q1249.43 1515.55 1249.43 1522.67 Q1249.43 1529.78 1251.24 1533.35 Q1253.06 1536.89 1256.68 1536.89 Q1260.31 1536.89 1262.12 1533.35 Q1263.94 1529.78 1263.94 1522.67 Q1263.94 1515.55 1262.12 1512 Q1260.31 1508.44 1256.68 1508.44 M1256.68 1504.73 Q1262.49 1504.73 1265.54 1509.34 Q1268.62 1513.92 1268.62 1522.67 Q1268.62 1531.4 1265.54 1536.01 Q1262.49 1540.59 1256.68 1540.59 Q1250.87 1540.59 1247.79 1536.01 Q1244.73 1531.4 1244.73 1522.67 Q1244.73 1513.92 1247.79 1509.34 Q1250.87 1504.73 1256.68 1504.73 Z" fill="#000000" fill-rule="evenodd" fill-opacity="1" /><path clip-path="url(#clip930)" d="M 0 0 M1273.69 1534.04 L1278.57 1534.04 L1278.57 1539.92 L1273.69 1539.92 L1273.69 1534.04 Z" fill="#000000" fill-rule="evenodd" fill-opacity="1" /><path clip-path="url(#clip930)" d="M 0 0 M1294.22 1520.78 Q1291.07 1520.78 1289.22 1522.93 Q1287.39 1525.08 1287.39 1528.83 Q1287.39 1532.56 1289.22 1534.73 Q1291.07 1536.89 1294.22 1536.89 Q1297.37 1536.89 1299.2 1534.73 Q1301.05 1532.56 1301.05 1528.83 Q1301.05 1525.08 1299.2 1522.93 Q1297.37 1520.78 1294.22 1520.78 M1303.5 1506.12 L1303.5 1510.38 Q1301.74 1509.55 1299.94 1509.11 Q1298.16 1508.67 1296.4 1508.67 Q1291.77 1508.67 1289.31 1511.8 Q1286.88 1514.92 1286.54 1521.24 Q1287.9 1519.23 1289.96 1518.16 Q1292.02 1517.07 1294.5 1517.07 Q1299.71 1517.07 1302.72 1520.24 Q1305.75 1523.39 1305.75 1528.83 Q1305.75 1534.16 1302.6 1537.37 Q1299.45 1540.59 1294.22 1540.59 Q1288.23 1540.59 1285.05 1536.01 Q1281.88 1531.4 1281.88 1522.67 Q1281.88 1514.48 1285.77 1509.62 Q1289.66 1504.73 1296.21 1504.73 Q1297.97 1504.73 1299.75 1505.08 Q1301.56 1505.43 1303.5 1506.12 Z" fill="#000000" fill-rule="evenodd" fill-opacity="1" /><path clip-path="url(#clip930)" d="M 0 0 M1661.65 1508.44 Q1658.04 1508.44 1656.21 1512 Q1654.41 1515.55 1654.41 1522.67 Q1654.41 1529.78 1656.21 1533.35 Q1658.04 1536.89 1661.65 1536.89 Q1665.29 1536.89 1667.09 1533.35 Q1668.92 1529.78 1668.92 1522.67 Q1668.92 1515.55 1667.09 1512 Q1665.29 1508.44 1661.65 1508.44 M1661.65 1504.73 Q1667.46 1504.73 1670.52 1509.34 Q1673.6 1513.92 1673.6 1522.67 Q1673.6 1531.4 1670.52 1536.01 Q1667.46 1540.59 1661.65 1540.59 Q1655.84 1540.59 1652.76 1536.01 Q1649.71 1531.4 1649.71 1522.67 Q1649.71 1513.92 1652.76 1509.34 Q1655.84 1504.73 1661.65 1504.73 Z" fill="#000000" fill-rule="evenodd" fill-opacity="1" /><path clip-path="url(#clip930)" d="M 0 0 M1678.67 1534.04 L1683.55 1534.04 L1683.55 1539.92 L1678.67 1539.92 L1678.67 1534.04 Z" fill="#000000" fill-rule="evenodd" fill-opacity="1" /><path clip-path="url(#clip930)" d="M 0 0 M1688.76 1539.2 L1688.76 1534.94 Q1690.52 1535.78 1692.32 1536.22 Q1694.13 1536.66 1695.87 1536.66 Q1700.5 1536.66 1702.93 1533.55 Q1705.38 1530.43 1705.73 1524.09 Q1704.38 1526.08 1702.32 1527.14 Q1700.26 1528.21 1697.76 1528.21 Q1692.58 1528.21 1689.55 1525.08 Q1686.54 1521.93 1686.54 1516.49 Q1686.54 1511.17 1689.69 1507.95 Q1692.83 1504.73 1698.07 1504.73 Q1704.06 1504.73 1707.21 1509.34 Q1710.38 1513.92 1710.38 1522.67 Q1710.38 1530.85 1706.49 1535.73 Q1702.63 1540.59 1696.07 1540.59 Q1694.32 1540.59 1692.51 1540.24 Q1690.7 1539.9 1688.76 1539.2 M1698.07 1524.55 Q1701.21 1524.55 1703.04 1522.4 Q1704.89 1520.24 1704.89 1516.49 Q1704.89 1512.77 1703.04 1510.61 Q1701.21 1508.44 1698.07 1508.44 Q1694.92 1508.44 1693.07 1510.61 Q1691.24 1512.77 1691.24 1516.49 Q1691.24 1520.24 1693.07 1522.4 Q1694.92 1524.55 1698.07 1524.55 Z" fill="#000000" fill-rule="evenodd" fill-opacity="1" /><path clip-path="url(#clip930)" d="M 0 0 M2057.55 1535.98 L2065.19 1535.98 L2065.19 1509.62 L2056.88 1511.29 L2056.88 1507.03 L2065.14 1505.36 L2069.81 1505.36 L2069.81 1535.98 L2077.45 1535.98 L2077.45 1539.92 L2057.55 1539.92 L2057.55 1535.98 Z" fill="#000000" fill-rule="evenodd" fill-opacity="1" /><path clip-path="url(#clip930)" d="M 0 0 M2082.52 1534.04 L2087.41 1534.04 L2087.41 1539.92 L2082.52 1539.92 L2082.52 1534.04 Z" fill="#000000" fill-rule="evenodd" fill-opacity="1" /><path clip-path="url(#clip930)" d="M 0 0 M2096.5 1535.98 L2112.82 1535.98 L2112.82 1539.92 L2090.88 1539.92 L2090.88 1535.98 Q2093.54 1533.23 2098.13 1528.6 Q2102.73 1523.95 2103.91 1522.61 Q2106.16 1520.08 2107.04 1518.35 Q2107.94 1516.59 2107.94 1514.9 Q2107.94 1512.14 2106 1510.41 Q2104.07 1508.67 2100.97 1508.67 Q2098.77 1508.67 2096.32 1509.43 Q2093.89 1510.2 2091.11 1511.75 L2091.11 1507.03 Q2093.94 1505.89 2096.39 1505.31 Q2098.84 1504.73 2100.88 1504.73 Q2106.25 1504.73 2109.44 1507.42 Q2112.64 1510.11 2112.64 1514.6 Q2112.64 1516.73 2111.83 1518.65 Q2111.04 1520.54 2108.94 1523.14 Q2108.36 1523.81 2105.25 1527.03 Q2102.15 1530.22 2096.5 1535.98 Z" fill="#000000" fill-rule="evenodd" fill-opacity="1" /><path clip-path="url(#clip930)" d="M 0 0 M77.0198 1202.64 Q73.4087 1202.64 71.58 1206.21 Q69.7745 1209.75 69.7745 1216.88 Q69.7745 1223.99 71.58 1227.55 Q73.4087 1231.09 77.0198 1231.09 Q80.6541 1231.09 82.4596 1227.55 Q84.2883 1223.99 84.2883 1216.88 Q84.2883 1209.75 82.4596 1206.21 Q80.6541 1202.64 77.0198 1202.64 M77.0198 1198.94 Q82.83 1198.94 85.8855 1203.55 Q88.9642 1208.13 88.9642 1216.88 Q88.9642 1225.61 85.8855 1230.21 Q82.83 1234.8 77.0198 1234.8 Q71.2097 1234.8 68.131 1230.21 Q65.0754 1225.61 65.0754 1216.88 Q65.0754 1208.13 68.131 1203.55 Q71.2097 1198.94 77.0198 1198.94 Z" fill="#000000" fill-rule="evenodd" fill-opacity="1" /><path clip-path="url(#clip930)" d="M 0 0 M94.0336 1228.25 L98.9179 1228.25 L98.9179 1234.13 L94.0336 1234.13 L94.0336 1228.25 Z" fill="#000000" fill-rule="evenodd" fill-opacity="1" /><path clip-path="url(#clip930)" d="M 0 0 M108.015 1230.19 L124.334 1230.19 L124.334 1234.13 L102.39 1234.13 L102.39 1230.19 Q105.052 1227.44 109.635 1222.81 Q114.242 1218.15 115.422 1216.81 Q117.668 1214.29 118.547 1212.55 Q119.45 1210.79 119.45 1209.1 Q119.45 1206.35 117.506 1204.61 Q115.584 1202.88 112.483 1202.88 Q110.284 1202.88 107.83 1203.64 Q105.399 1204.4 102.622 1205.95 L102.622 1201.23 Q105.446 1200.1 107.899 1199.52 Q110.353 1198.94 112.39 1198.94 Q117.76 1198.94 120.955 1201.63 Q124.149 1204.31 124.149 1208.8 Q124.149 1210.93 123.339 1212.85 Q122.552 1214.75 120.446 1217.34 Q119.867 1218.01 116.765 1221.23 Q113.663 1224.43 108.015 1230.19 Z" fill="#000000" fill-rule="evenodd" fill-opacity="1" /><path clip-path="url(#clip930)" d="M 0 0 M74.9365 932.774 Q71.3254 932.774 69.4967 936.339 Q67.6912 939.881 67.6912 947.01 Q67.6912 954.117 69.4967 957.682 Q71.3254 961.223 74.9365 961.223 Q78.5707 961.223 80.3763 957.682 Q82.205 954.117 82.205 947.01 Q82.205 939.881 80.3763 936.339 Q78.5707 932.774 74.9365 932.774 M74.9365 929.071 Q80.7467 929.071 83.8022 933.677 Q86.8809 938.26 86.8809 947.01 Q86.8809 955.737 83.8022 960.344 Q80.7467 964.927 74.9365 964.927 Q69.1264 964.927 66.0477 960.344 Q62.9921 955.737 62.9921 947.01 Q62.9921 938.26 66.0477 933.677 Q69.1264 929.071 74.9365 929.071 Z" fill="#000000" fill-rule="evenodd" fill-opacity="1" /><path clip-path="url(#clip930)" d="M 0 0 M91.9503 958.376 L96.8345 958.376 L96.8345 964.256 L91.9503 964.256 L91.9503 958.376 Z" fill="#000000" fill-rule="evenodd" fill-opacity="1" /><path clip-path="url(#clip930)" d="M 0 0 M114.751 933.77 L102.946 952.219 L114.751 952.219 L114.751 933.77 M113.524 929.696 L119.404 929.696 L119.404 952.219 L124.334 952.219 L124.334 956.107 L119.404 956.107 L119.404 964.256 L114.751 964.256 L114.751 956.107 L99.1493 956.107 L99.1493 951.594 L113.524 929.696 Z" fill="#000000" fill-rule="evenodd" fill-opacity="1" /><path clip-path="url(#clip930)" d="M 0 0 M75.2606 662.904 Q71.6495 662.904 69.8208 666.469 Q68.0152 670.011 68.0152 677.14 Q68.0152 684.247 69.8208 687.812 Q71.6495 691.353 75.2606 691.353 Q78.8948 691.353 80.7004 687.812 Q82.5291 684.247 82.5291 677.14 Q82.5291 670.011 80.7004 666.469 Q78.8948 662.904 75.2606 662.904 M75.2606 659.201 Q81.0707 659.201 84.1263 663.807 Q87.205 668.39 87.205 677.14 Q87.205 685.867 84.1263 690.474 Q81.0707 695.057 75.2606 695.057 Q69.4504 695.057 66.3717 690.474 Q63.3162 685.867 63.3162 677.14 Q63.3162 668.39 66.3717 663.807 Q69.4504 659.201 75.2606 659.201 Z" fill="#000000" fill-rule="evenodd" fill-opacity="1" /><path clip-path="url(#clip930)" d="M 0 0 M92.2744 688.506 L97.1586 688.506 L97.1586 694.386 L92.2744 694.386 L92.2744 688.506 Z" fill="#000000" fill-rule="evenodd" fill-opacity="1" /><path clip-path="url(#clip930)" d="M 0 0 M112.807 675.242 Q109.659 675.242 107.807 677.395 Q105.978 679.548 105.978 683.298 Q105.978 687.025 107.807 689.201 Q109.659 691.353 112.807 691.353 Q115.955 691.353 117.783 689.201 Q119.635 687.025 119.635 683.298 Q119.635 679.548 117.783 677.395 Q115.955 675.242 112.807 675.242 M122.089 660.59 L122.089 664.849 Q120.33 664.015 118.524 663.576 Q116.742 663.136 114.983 663.136 Q110.353 663.136 107.899 666.261 Q105.469 669.386 105.122 675.705 Q106.487 673.691 108.547 672.627 Q110.608 671.539 113.084 671.539 Q118.293 671.539 121.302 674.71 Q124.334 677.858 124.334 683.298 Q124.334 688.622 121.186 691.839 Q118.038 695.057 112.807 695.057 Q106.811 695.057 103.64 690.474 Q100.469 685.867 100.469 677.14 Q100.469 668.946 104.358 664.085 Q108.247 659.201 114.797 659.201 Q116.557 659.201 118.339 659.548 Q120.145 659.895 122.089 660.59 Z" fill="#000000" fill-rule="evenodd" fill-opacity="1" /><path clip-path="url(#clip930)" d="M 0 0 M75.5152 393.034 Q71.9041 393.034 70.0754 396.599 Q68.2699 400.141 68.2699 407.271 Q68.2699 414.377 70.0754 417.942 Q71.9041 421.483 75.5152 421.483 Q79.1494 421.483 80.955 417.942 Q82.7837 414.377 82.7837 407.271 Q82.7837 400.141 80.955 396.599 Q79.1494 393.034 75.5152 393.034 M75.5152 389.331 Q81.3254 389.331 84.3809 393.937 Q87.4596 398.521 87.4596 407.271 Q87.4596 415.997 84.3809 420.604 Q81.3254 425.187 75.5152 425.187 Q69.7051 425.187 66.6264 420.604 Q63.5708 415.997 63.5708 407.271 Q63.5708 398.521 66.6264 393.937 Q69.7051 389.331 75.5152 389.331 Z" fill="#000000" fill-rule="evenodd" fill-opacity="1" /><path clip-path="url(#clip930)" d="M 0 0 M92.529 418.636 L97.4132 418.636 L97.4132 424.516 L92.529 424.516 L92.529 418.636 Z" fill="#000000" fill-rule="evenodd" fill-opacity="1" /><path clip-path="url(#clip930)" d="M 0 0 M112.483 408.104 Q109.149 408.104 107.228 409.886 Q105.33 411.669 105.33 414.794 Q105.33 417.919 107.228 419.701 Q109.149 421.483 112.483 421.483 Q115.816 421.483 117.737 419.701 Q119.658 417.895 119.658 414.794 Q119.658 411.669 117.737 409.886 Q115.839 408.104 112.483 408.104 M107.807 406.113 Q104.797 405.372 103.108 403.312 Q101.441 401.252 101.441 398.289 Q101.441 394.146 104.381 391.738 Q107.344 389.331 112.483 389.331 Q117.645 389.331 120.584 391.738 Q123.524 394.146 123.524 398.289 Q123.524 401.252 121.834 403.312 Q120.168 405.372 117.182 406.113 Q120.561 406.9 122.436 409.192 Q124.334 411.483 124.334 414.794 Q124.334 419.817 121.256 422.502 Q118.2 425.187 112.483 425.187 Q106.765 425.187 103.686 422.502 Q100.631 419.817 100.631 414.794 Q100.631 411.483 102.529 409.192 Q104.427 406.9 107.807 406.113 M106.094 398.729 Q106.094 401.414 107.76 402.919 Q109.45 404.423 112.483 404.423 Q115.492 404.423 117.182 402.919 Q118.895 401.414 118.895 398.729 Q118.895 396.044 117.182 394.539 Q115.492 393.034 112.483 393.034 Q109.45 393.034 107.76 394.539 Q106.094 396.044 106.094 398.729 Z" fill="#000000" fill-rule="evenodd" fill-opacity="1" /><path clip-path="url(#clip930)" d="M 0 0 M67.4597 150.711 L75.0985 150.711 L75.0985 124.345 L66.7884 126.012 L66.7884 121.753 L75.0522 120.086 L79.7281 120.086 L79.7281 150.711 L87.367 150.711 L87.367 154.646 L67.4597 154.646 L67.4597 150.711 Z" fill="#000000" fill-rule="evenodd" fill-opacity="1" /><path clip-path="url(#clip930)" d="M 0 0 M92.4364 148.766 L97.3206 148.766 L97.3206 154.646 L92.4364 154.646 L92.4364 148.766 Z" fill="#000000" fill-rule="evenodd" fill-opacity="1" /><path clip-path="url(#clip930)" d="M 0 0 M112.39 123.165 Q108.779 123.165 106.95 126.729 Q105.145 130.271 105.145 137.401 Q105.145 144.507 106.95 148.072 Q108.779 151.614 112.39 151.614 Q116.024 151.614 117.83 148.072 Q119.658 144.507 119.658 137.401 Q119.658 130.271 117.83 126.729 Q116.024 123.165 112.39 123.165 M112.39 119.461 Q118.2 119.461 121.256 124.067 Q124.334 128.651 124.334 137.401 Q124.334 146.127 121.256 150.734 Q118.2 155.317 112.39 155.317 Q106.58 155.317 103.501 150.734 Q100.446 146.127 100.446 137.401 Q100.446 128.651 103.501 124.067 Q106.58 119.461 112.39 119.461 Z" fill="#000000" fill-rule="evenodd" fill-opacity="1" /><path clip-path="url(#clip932)" d="
M870.435 137.366 L1680.04 1351.78 L1005.37 272.301 L870.435 137.366  Z
  " fill="#008000" fill-rule="evenodd" fill-opacity="0.2"/>
<polyline clip-path="url(#clip932)" style="stroke:#000000; stroke-width:4; stroke-opacity:1; fill:none" points="
  870.435,137.366 1680.04,1351.78 1005.37,272.301 870.435,137.366 
  "/>
<circle clip-path="url(#clip932)" cx="870.435" cy="137.366" r="14" fill="#ff0000" fill-rule="evenodd" fill-opacity="1" stroke="#000000" stroke-opacity="1" stroke-width="3.2"/>
<circle clip-path="url(#clip932)" cx="1680.04" cy="1351.78" r="14" fill="#ff0000" fill-rule="evenodd" fill-opacity="1" stroke="#000000" stroke-opacity="1" stroke-width="3.2"/>
<circle clip-path="url(#clip932)" cx="1005.37" cy="272.301" r="14" fill="#ff0000" fill-rule="evenodd" fill-opacity="1" stroke="#000000" stroke-opacity="1" stroke-width="3.2"/>
<path clip-path="url(#clip930)" d="M 0 0 M870.435 66.8032 L859.336 96.9014 L881.575 96.9014 L870.435 66.8032 M865.817 58.7419 L875.094 58.7419 L898.143 119.222 L889.636 119.222 L884.127 103.707 L856.865 103.707 L851.355 119.222 L842.727 119.222 L865.817 58.7419 Z" fill="#000000" fill-rule="evenodd" fill-opacity="1" /><path clip-path="url(#clip930)" d="M 0 0 M1666.78 1304.75 L1666.78 1326.91 L1679.9 1326.91 Q1686.51 1326.91 1689.67 1324.2 Q1692.87 1321.44 1692.87 1315.81 Q1692.87 1310.14 1689.67 1307.47 Q1686.51 1304.75 1679.9 1304.75 L1666.78 1304.75 M1666.78 1279.88 L1666.78 1298.11 L1678.89 1298.11 Q1684.89 1298.11 1687.8 1295.88 Q1690.76 1293.61 1690.76 1289 Q1690.76 1284.42 1687.8 1282.15 Q1684.89 1279.88 1678.89 1279.88 L1666.78 1279.88 M1658.6 1273.16 L1679.5 1273.16 Q1688.86 1273.16 1693.92 1277.05 Q1698.98 1280.93 1698.98 1288.1 Q1698.98 1293.65 1696.39 1296.94 Q1693.8 1300.22 1688.77 1301.03 Q1694.81 1302.32 1698.13 1306.45 Q1701.49 1310.55 1701.49 1316.7 Q1701.49 1324.81 1695.99 1329.22 Q1690.48 1333.64 1680.31 1333.64 L1658.6 1333.64 L1658.6 1273.16 Z" fill="#000000" fill-rule="evenodd" fill-opacity="1" /><path clip-path="url(#clip930)" d="M 0 0 M1029.76 198.335 L1029.76 206.964 Q1025.62 203.115 1020.93 201.212 Q1016.27 199.308 1011 199.308 Q1000.63 199.308 995.121 205.668 Q989.612 211.987 989.612 223.978 Q989.612 235.928 995.121 242.288 Q1000.63 248.607 1011 248.607 Q1016.27 248.607 1020.93 246.703 Q1025.62 244.799 1029.76 240.951 L1029.76 249.498 Q1025.46 252.415 1020.64 253.873 Q1015.86 255.332 1010.51 255.332 Q996.782 255.332 988.883 246.946 Q980.984 238.52 980.984 223.978 Q980.984 209.394 988.883 201.009 Q996.782 192.583 1010.51 192.583 Q1015.94 192.583 1020.72 194.041 Q1025.54 195.459 1029.76 198.335 Z" fill="#000000" fill-rule="evenodd" fill-opacity="1" /><path clip-path="url(#clip932)" d="
M870.435 137.366 L1680.04 1351.78 L223.526 1445.72 L870.435 137.366  Z
  " fill="#ffc0cb" fill-rule="evenodd" fill-opacity="0.7"/>
<polyline clip-path="url(#clip932)" style="stroke:#000000; stroke-width:4; stroke-opacity:1; fill:none" points="
  870.435,137.366 1680.04,1351.78 223.526,1445.72 870.435,137.366 
  "/>
<path clip-path="url(#clip932)" d="
M1005.37 272.301 L870.435 137.366 L1054.76 87.9763 L1005.37 272.301  Z
  " fill="#ffc0cb" fill-rule="evenodd" fill-opacity="0.7"/>
<polyline clip-path="url(#clip932)" style="stroke:#000000; stroke-width:4; stroke-opacity:1; fill:none" points="
  1005.37,272.301 870.435,137.366 1054.76,87.9763 1005.37,272.301 
  "/>
<path clip-path="url(#clip932)" d="
M1680.04 1351.78 L1005.37 272.301 L2277.56 227.755 L1680.04 1351.78  Z
  " fill="#ffc0cb" fill-rule="evenodd" fill-opacity="0.7"/>
<polyline clip-path="url(#clip932)" style="stroke:#000000; stroke-width:4; stroke-opacity:1; fill:none" points="
  1680.04,1351.78 1005.37,272.301 2277.56,227.755 1680.04,1351.78 
  "/>
<path clip-path="url(#clip932)" d="
M924.669 978.287 L976.855 165.881 L1654.33 617.279 L924.669 978.287  Z
  " fill="#0000ff" fill-rule="evenodd" fill-opacity="0.7"/>
<polyline clip-path="url(#clip932)" style="stroke:#000000; stroke-width:4; stroke-opacity:1; fill:none" points="
  924.669,978.287 976.855,165.881 1654.33,617.279 924.669,978.287 
  "/>
</svg>
