<?xml version="1.0" encoding="utf-8"?>
<svg xmlns="http://www.w3.org/2000/svg" xmlns:xlink="http://www.w3.org/1999/xlink" width="600" height="400" viewBox="0 0 2400 1600">
<defs>
  <clipPath id="clip960">
    <rect x="0" y="0" width="2400" height="1600"/>
  </clipPath>
</defs>
<path clip-path="url(#clip960)" d="
M0 1600 L2400 1600 L2400 0 L0 0  Z
  " fill="#ffffff" fill-rule="evenodd" fill-opacity="1"/>
<defs>
  <clipPath id="clip961">
    <rect x="480" y="0" width="1681" height="1600"/>
  </clipPath>
</defs>
<path clip-path="url(#clip960)" d="
M148.334 1486.45 L2352.76 1486.45 L2352.76 47.2441 L148.334 47.2441  Z
  " fill="#ffffff" fill-rule="evenodd" fill-opacity="1"/>
<defs>
  <clipPath id="clip962">
    <rect x="148" y="47" width="2205" height="1440"/>
  </clipPath>
</defs>
<polyline clip-path="url(#clip962)" style="stroke:#000000; stroke-width:2; stroke-opacity:0.1; fill:none" points="
  298.504,1486.45 298.504,47.2441 
  "/>
<polyline clip-path="url(#clip962)" style="stroke:#000000; stroke-width:2; stroke-opacity:0.1; fill:none" points="
  819.658,1486.45 819.658,47.2441 
  "/>
<polyline clip-path="url(#clip962)" style="stroke:#000000; stroke-width:2; stroke-opacity:0.1; fill:none" points="
  1340.81,1486.45 1340.81,47.2441 
  "/>
<polyline clip-path="url(#clip962)" style="stroke:#000000; stroke-width:2; stroke-opacity:0.1; fill:none" points="
  1861.97,1486.45 1861.97,47.2441 
  "/>
<polyline clip-path="url(#clip962)" style="stroke:#000000; stroke-width:2; stroke-opacity:0.1; fill:none" points="
  148.334,1463.42 2352.76,1463.42 
  "/>
<polyline clip-path="url(#clip962)" style="stroke:#000000; stroke-width:2; stroke-opacity:0.1; fill:none" points="
  148.334,1254.96 2352.76,1254.96 
  "/>
<polyline clip-path="url(#clip962)" style="stroke:#000000; stroke-width:2; stroke-opacity:0.1; fill:none" points="
  148.334,1046.5 2352.76,1046.5 
  "/>
<polyline clip-path="url(#clip962)" style="stroke:#000000; stroke-width:2; stroke-opacity:0.1; fill:none" points="
  148.334,838.037 2352.76,838.037 
  "/>
<polyline clip-path="url(#clip962)" style="stroke:#000000; stroke-width:2; stroke-opacity:0.1; fill:none" points="
  148.334,629.575 2352.76,629.575 
  "/>
<polyline clip-path="url(#clip962)" style="stroke:#000000; stroke-width:2; stroke-opacity:0.1; fill:none" points="
  148.334,421.114 2352.76,421.114 
  "/>
<polyline clip-path="url(#clip962)" style="stroke:#000000; stroke-width:2; stroke-opacity:0.1; fill:none" points="
  148.334,212.652 2352.76,212.652 
  "/>
<polyline clip-path="url(#clip960)" style="stroke:#000000; stroke-width:4; stroke-opacity:1; fill:none" points="
  148.334,1486.45 2352.76,1486.45 
  "/>
<polyline clip-path="url(#clip960)" style="stroke:#000000; stroke-width:4; stroke-opacity:1; fill:none" points="
  148.334,1486.45 148.334,47.2441 
  "/>
<polyline clip-path="url(#clip960)" style="stroke:#000000; stroke-width:4; stroke-opacity:1; fill:none" points="
  298.504,1486.45 298.504,1469.18 
  "/>
<polyline clip-path="url(#clip960)" style="stroke:#000000; stroke-width:4; stroke-opacity:1; fill:none" points="
  819.658,1486.45 819.658,1469.18 
  "/>
<polyline clip-path="url(#clip960)" style="stroke:#000000; stroke-width:4; stroke-opacity:1; fill:none" points="
  1340.81,1486.45 1340.81,1469.18 
  "/>
<polyline clip-path="url(#clip960)" style="stroke:#000000; stroke-width:4; stroke-opacity:1; fill:none" points="
  1861.97,1486.45 1861.97,1469.18 
  "/>
<polyline clip-path="url(#clip960)" style="stroke:#000000; stroke-width:4; stroke-opacity:1; fill:none" points="
  148.334,1463.42 174.787,1463.42 
  "/>
<polyline clip-path="url(#clip960)" style="stroke:#000000; stroke-width:4; stroke-opacity:1; fill:none" points="
  148.334,1254.96 174.787,1254.96 
  "/>
<polyline clip-path="url(#clip960)" style="stroke:#000000; stroke-width:4; stroke-opacity:1; fill:none" points="
  148.334,1046.5 174.787,1046.5 
  "/>
<polyline clip-path="url(#clip960)" style="stroke:#000000; stroke-width:4; stroke-opacity:1; fill:none" points="
  148.334,838.037 174.787,838.037 
  "/>
<polyline clip-path="url(#clip960)" style="stroke:#000000; stroke-width:4; stroke-opacity:1; fill:none" points="
  148.334,629.575 174.787,629.575 
  "/>
<polyline clip-path="url(#clip960)" style="stroke:#000000; stroke-width:4; stroke-opacity:1; fill:none" points="
  148.334,421.114 174.787,421.114 
  "/>
<polyline clip-path="url(#clip960)" style="stroke:#000000; stroke-width:4; stroke-opacity:1; fill:none" points="
  148.334,212.652 174.787,212.652 
  "/>
<path clip-path="url(#clip960)" d="M 0 0 M260.772 1525.04 L273.249 1525.04 L273.249 1528.83 L260.772 1528.83 L260.772 1525.04 Z" fill="#000000" fill-rule="evenodd" fill-opacity="1" /><path clip-path="url(#clip960)" d="M 0 0 M288.319 1508.44 Q284.708 1508.44 282.879 1512 Q281.073 1515.55 281.073 1522.67 Q281.073 1529.78 282.879 1533.35 Q284.708 1536.89 288.319 1536.89 Q291.953 1536.89 293.758 1533.35 Q295.587 1529.78 295.587 1522.67 Q295.587 1515.55 293.758 1512 Q291.953 1508.44 288.319 1508.44 M288.319 1504.73 Q294.129 1504.73 297.184 1509.34 Q300.263 1513.92 300.263 1522.67 Q300.263 1531.4 297.184 1536.01 Q294.129 1540.59 288.319 1540.59 Q282.508 1540.59 279.43 1536.01 Q276.374 1531.4 276.374 1522.67 Q276.374 1513.92 279.43 1509.34 Q282.508 1504.73 288.319 1504.73 Z" fill="#000000" fill-rule="evenodd" fill-opacity="1" /><path clip-path="url(#clip960)" d="M 0 0 M305.332 1534.04 L310.217 1534.04 L310.217 1539.92 L305.332 1539.92 L305.332 1534.04 Z" fill="#000000" fill-rule="evenodd" fill-opacity="1" /><path clip-path="url(#clip960)" d="M 0 0 M315.332 1505.36 L333.689 1505.36 L333.689 1509.3 L319.615 1509.3 L319.615 1517.77 Q320.633 1517.42 321.652 1517.26 Q322.67 1517.07 323.689 1517.07 Q329.476 1517.07 332.855 1520.24 Q336.235 1523.42 336.235 1528.83 Q336.235 1534.41 332.763 1537.51 Q329.291 1540.59 322.971 1540.59 Q320.795 1540.59 318.527 1540.22 Q316.281 1539.85 313.874 1539.11 L313.874 1534.41 Q315.957 1535.54 318.18 1536.1 Q320.402 1536.66 322.879 1536.66 Q326.883 1536.66 329.221 1534.55 Q331.559 1532.44 331.559 1528.83 Q331.559 1525.22 329.221 1523.11 Q326.883 1521.01 322.879 1521.01 Q321.004 1521.01 319.129 1521.42 Q317.277 1521.84 315.332 1522.72 L315.332 1505.36 Z" fill="#000000" fill-rule="evenodd" fill-opacity="1" /><path clip-path="url(#clip960)" d="M 0 0 M801.174 1508.44 Q797.563 1508.44 795.734 1512 Q793.929 1515.55 793.929 1522.67 Q793.929 1529.78 795.734 1533.35 Q797.563 1536.89 801.174 1536.89 Q804.808 1536.89 806.614 1533.35 Q808.442 1529.78 808.442 1522.67 Q808.442 1515.55 806.614 1512 Q804.808 1508.44 801.174 1508.44 M801.174 1504.73 Q806.984 1504.73 810.04 1509.34 Q813.118 1513.92 813.118 1522.67 Q813.118 1531.4 810.04 1536.01 Q806.984 1540.59 801.174 1540.59 Q795.364 1540.59 792.285 1536.01 Q789.23 1531.4 789.23 1522.67 Q789.23 1513.92 792.285 1509.34 Q795.364 1504.73 801.174 1504.73 Z" fill="#000000" fill-rule="evenodd" fill-opacity="1" /><path clip-path="url(#clip960)" d="M 0 0 M818.188 1534.04 L823.072 1534.04 L823.072 1539.92 L818.188 1539.92 L818.188 1534.04 Z" fill="#000000" fill-rule="evenodd" fill-opacity="1" /><path clip-path="url(#clip960)" d="M 0 0 M838.141 1508.44 Q834.53 1508.44 832.702 1512 Q830.896 1515.55 830.896 1522.67 Q830.896 1529.78 832.702 1533.35 Q834.53 1536.89 838.141 1536.89 Q841.776 1536.89 843.581 1533.35 Q845.41 1529.78 845.41 1522.67 Q845.41 1515.55 843.581 1512 Q841.776 1508.44 838.141 1508.44 M838.141 1504.73 Q843.952 1504.73 847.007 1509.34 Q850.086 1513.92 850.086 1522.67 Q850.086 1531.4 847.007 1536.01 Q843.952 1540.59 838.141 1540.59 Q832.331 1540.59 829.253 1536.01 Q826.197 1531.4 826.197 1522.67 Q826.197 1513.92 829.253 1509.34 Q832.331 1504.73 838.141 1504.73 Z" fill="#000000" fill-rule="evenodd" fill-opacity="1" /><path clip-path="url(#clip960)" d="M 0 0 M1322.83 1508.44 Q1319.21 1508.44 1317.39 1512 Q1315.58 1515.55 1315.58 1522.67 Q1315.58 1529.78 1317.39 1533.35 Q1319.21 1536.89 1322.83 1536.89 Q1326.46 1536.89 1328.27 1533.35 Q1330.09 1529.78 1330.09 1522.67 Q1330.09 1515.55 1328.27 1512 Q1326.46 1508.44 1322.83 1508.44 M1322.83 1504.73 Q1328.64 1504.73 1331.69 1509.34 Q1334.77 1513.92 1334.77 1522.67 Q1334.77 1531.4 1331.69 1536.01 Q1328.64 1540.59 1322.83 1540.59 Q1317.02 1540.59 1313.94 1536.01 Q1310.88 1531.4 1310.88 1522.67 Q1310.88 1513.92 1313.94 1509.34 Q1317.02 1504.73 1322.83 1504.73 Z" fill="#000000" fill-rule="evenodd" fill-opacity="1" /><path clip-path="url(#clip960)" d="M 0 0 M1339.84 1534.04 L1344.72 1534.04 L1344.72 1539.92 L1339.84 1539.92 L1339.84 1534.04 Z" fill="#000000" fill-rule="evenodd" fill-opacity="1" /><path clip-path="url(#clip960)" d="M 0 0 M1349.84 1505.36 L1368.2 1505.36 L1368.2 1509.3 L1354.12 1509.3 L1354.12 1517.77 Q1355.14 1517.42 1356.16 1517.26 Q1357.18 1517.07 1358.2 1517.07 Q1363.98 1517.07 1367.36 1520.24 Q1370.74 1523.42 1370.74 1528.83 Q1370.74 1534.41 1367.27 1537.51 Q1363.8 1540.59 1357.48 1540.59 Q1355.3 1540.59 1353.03 1540.22 Q1350.79 1539.85 1348.38 1539.11 L1348.38 1534.41 Q1350.46 1535.54 1352.69 1536.1 Q1354.91 1536.66 1357.39 1536.66 Q1361.39 1536.66 1363.73 1534.55 Q1366.07 1532.44 1366.07 1528.83 Q1366.07 1525.22 1363.73 1523.11 Q1361.39 1521.01 1357.39 1521.01 Q1355.51 1521.01 1353.64 1521.42 Q1351.78 1521.84 1349.84 1522.72 L1349.84 1505.36 Z" fill="#000000" fill-rule="evenodd" fill-opacity="1" /><path clip-path="url(#clip960)" d="M 0 0 M1833.86 1535.98 L1841.5 1535.98 L1841.5 1509.62 L1833.19 1511.29 L1833.19 1507.03 L1841.46 1505.36 L1846.13 1505.36 L1846.13 1535.98 L1853.77 1535.98 L1853.77 1539.92 L1833.86 1539.92 L1833.86 1535.98 Z" fill="#000000" fill-rule="evenodd" fill-opacity="1" /><path clip-path="url(#clip960)" d="M 0 0 M1858.84 1534.04 L1863.72 1534.04 L1863.72 1539.92 L1858.84 1539.92 L1858.84 1534.04 Z" fill="#000000" fill-rule="evenodd" fill-opacity="1" /><path clip-path="url(#clip960)" d="M 0 0 M1878.79 1508.44 Q1875.18 1508.44 1873.35 1512 Q1871.55 1515.55 1871.55 1522.67 Q1871.55 1529.78 1873.35 1533.35 Q1875.18 1536.89 1878.79 1536.89 Q1882.43 1536.89 1884.23 1533.35 Q1886.06 1529.78 1886.06 1522.67 Q1886.06 1515.55 1884.23 1512 Q1882.43 1508.44 1878.79 1508.44 M1878.79 1504.73 Q1884.6 1504.73 1887.66 1509.34 Q1890.74 1513.92 1890.74 1522.67 Q1890.74 1531.4 1887.66 1536.01 Q1884.6 1540.59 1878.79 1540.59 Q1872.98 1540.59 1869.91 1536.01 Q1866.85 1531.4 1866.85 1522.67 Q1866.85 1513.92 1869.91 1509.34 Q1872.98 1504.73 1878.79 1504.73 Z" fill="#000000" fill-rule="evenodd" fill-opacity="1" /><path clip-path="url(#clip960)" d="M 0 0 M75.4226 1449.22 Q71.8115 1449.22 69.9828 1452.79 Q68.1773 1456.33 68.1773 1463.46 Q68.1773 1470.56 69.9828 1474.13 Q71.8115 1477.67 75.4226 1477.67 Q79.0569 1477.67 80.8624 1474.13 Q82.6911 1470.56 82.6911 1463.46 Q82.6911 1456.33 80.8624 1452.79 Q79.0569 1449.22 75.4226 1449.22 M75.4226 1445.52 Q81.2328 1445.52 84.2883 1450.12 Q87.367 1454.71 87.367 1463.46 Q87.367 1472.18 84.2883 1476.79 Q81.2328 1481.37 75.4226 1481.37 Q69.6125 1481.37 66.5338 1476.79 Q63.4782 1472.18 63.4782 1463.46 Q63.4782 1454.71 66.5338 1450.12 Q69.6125 1445.52 75.4226 1445.52 Z" fill="#000000" fill-rule="evenodd" fill-opacity="1" /><path clip-path="url(#clip960)" d="M 0 0 M92.4364 1474.82 L97.3206 1474.82 L97.3206 1480.7 L92.4364 1480.7 L92.4364 1474.82 Z" fill="#000000" fill-rule="evenodd" fill-opacity="1" /><path clip-path="url(#clip960)" d="M 0 0 M112.39 1449.22 Q108.779 1449.22 106.95 1452.79 Q105.145 1456.33 105.145 1463.46 Q105.145 1470.56 106.95 1474.13 Q108.779 1477.67 112.39 1477.67 Q116.024 1477.67 117.83 1474.13 Q119.658 1470.56 119.658 1463.46 Q119.658 1456.33 117.83 1452.79 Q116.024 1449.22 112.39 1449.22 M112.39 1445.52 Q118.2 1445.52 121.256 1450.12 Q124.334 1454.71 124.334 1463.46 Q124.334 1472.18 121.256 1476.79 Q118.2 1481.37 112.39 1481.37 Q106.58 1481.37 103.501 1476.79 Q100.446 1472.18 100.446 1463.46 Q100.446 1454.71 103.501 1450.12 Q106.58 1445.52 112.39 1445.52 Z" fill="#000000" fill-rule="evenodd" fill-opacity="1" /><path clip-path="url(#clip960)" d="M 0 0 M77.0198 1240.76 Q73.4087 1240.76 71.58 1244.32 Q69.7745 1247.87 69.7745 1254.99 Q69.7745 1262.1 71.58 1265.67 Q73.4087 1269.21 77.0198 1269.21 Q80.6541 1269.21 82.4596 1265.67 Q84.2883 1262.1 84.2883 1254.99 Q84.2883 1247.87 82.4596 1244.32 Q80.6541 1240.76 77.0198 1240.76 M77.0198 1237.06 Q82.83 1237.06 85.8855 1241.66 Q88.9642 1246.24 88.9642 1254.99 Q88.9642 1263.72 85.8855 1268.33 Q82.83 1272.91 77.0198 1272.91 Q71.2097 1272.91 68.131 1268.33 Q65.0754 1263.72 65.0754 1254.99 Q65.0754 1246.24 68.131 1241.66 Q71.2097 1237.06 77.0198 1237.06 Z" fill="#000000" fill-rule="evenodd" fill-opacity="1" /><path clip-path="url(#clip960)" d="M 0 0 M94.0336 1266.36 L98.9179 1266.36 L98.9179 1272.24 L94.0336 1272.24 L94.0336 1266.36 Z" fill="#000000" fill-rule="evenodd" fill-opacity="1" /><path clip-path="url(#clip960)" d="M 0 0 M108.015 1268.3 L124.334 1268.3 L124.334 1272.24 L102.39 1272.24 L102.39 1268.3 Q105.052 1265.55 109.635 1260.92 Q114.242 1256.27 115.422 1254.93 Q117.668 1252.4 118.547 1250.67 Q119.45 1248.91 119.45 1247.22 Q119.45 1244.46 117.506 1242.73 Q115.584 1240.99 112.483 1240.99 Q110.284 1240.99 107.83 1241.75 Q105.399 1242.52 102.622 1244.07 L102.622 1239.35 Q105.446 1238.21 107.899 1237.63 Q110.353 1237.06 112.39 1237.06 Q117.76 1237.06 120.955 1239.74 Q124.149 1242.43 124.149 1246.92 Q124.149 1249.05 123.339 1250.97 Q122.552 1252.87 120.446 1255.46 Q119.867 1256.13 116.765 1259.35 Q113.663 1262.54 108.015 1268.3 Z" fill="#000000" fill-rule="evenodd" fill-opacity="1" /><path clip-path="url(#clip960)" d="M 0 0 M74.9365 1032.3 Q71.3254 1032.3 69.4967 1035.86 Q67.6912 1039.4 67.6912 1046.53 Q67.6912 1053.64 69.4967 1057.2 Q71.3254 1060.75 74.9365 1060.75 Q78.5707 1060.75 80.3763 1057.2 Q82.205 1053.64 82.205 1046.53 Q82.205 1039.4 80.3763 1035.86 Q78.5707 1032.3 74.9365 1032.3 M74.9365 1028.59 Q80.7467 1028.59 83.8022 1033.2 Q86.8809 1037.78 86.8809 1046.53 Q86.8809 1055.26 83.8022 1059.87 Q80.7467 1064.45 74.9365 1064.45 Q69.1264 1064.45 66.0477 1059.87 Q62.9921 1055.26 62.9921 1046.53 Q62.9921 1037.78 66.0477 1033.2 Q69.1264 1028.59 74.9365 1028.59 Z" fill="#000000" fill-rule="evenodd" fill-opacity="1" /><path clip-path="url(#clip960)" d="M 0 0 M91.9503 1057.9 L96.8345 1057.9 L96.8345 1063.78 L91.9503 1063.78 L91.9503 1057.9 Z" fill="#000000" fill-rule="evenodd" fill-opacity="1" /><path clip-path="url(#clip960)" d="M 0 0 M114.751 1033.29 L102.946 1051.74 L114.751 1051.74 L114.751 1033.29 M113.524 1029.22 L119.404 1029.22 L119.404 1051.74 L124.334 1051.74 L124.334 1055.63 L119.404 1055.63 L119.404 1063.78 L114.751 1063.78 L114.751 1055.63 L99.1493 1055.63 L99.1493 1051.12 L113.524 1029.22 Z" fill="#000000" fill-rule="evenodd" fill-opacity="1" /><path clip-path="url(#clip960)" d="M 0 0 M75.2606 823.836 Q71.6495 823.836 69.8208 827.4 Q68.0152 830.942 68.0152 838.072 Q68.0152 845.178 69.8208 848.743 Q71.6495 852.285 75.2606 852.285 Q78.8948 852.285 80.7004 848.743 Q82.5291 845.178 82.5291 838.072 Q82.5291 830.942 80.7004 827.4 Q78.8948 823.836 75.2606 823.836 M75.2606 820.132 Q81.0707 820.132 84.1263 824.738 Q87.205 829.322 87.205 838.072 Q87.205 846.798 84.1263 851.405 Q81.0707 855.988 75.2606 855.988 Q69.4504 855.988 66.3717 851.405 Q63.3162 846.798 63.3162 838.072 Q63.3162 829.322 66.3717 824.738 Q69.4504 820.132 75.2606 820.132 Z" fill="#000000" fill-rule="evenodd" fill-opacity="1" /><path clip-path="url(#clip960)" d="M 0 0 M92.2744 849.437 L97.1586 849.437 L97.1586 855.317 L92.2744 855.317 L92.2744 849.437 Z" fill="#000000" fill-rule="evenodd" fill-opacity="1" /><path clip-path="url(#clip960)" d="M 0 0 M112.807 836.174 Q109.659 836.174 107.807 838.326 Q105.978 840.479 105.978 844.229 Q105.978 847.956 107.807 850.132 Q109.659 852.285 112.807 852.285 Q115.955 852.285 117.783 850.132 Q119.635 847.956 119.635 844.229 Q119.635 840.479 117.783 838.326 Q115.955 836.174 112.807 836.174 M122.089 821.521 L122.089 825.78 Q120.33 824.947 118.524 824.507 Q116.742 824.067 114.983 824.067 Q110.353 824.067 107.899 827.192 Q105.469 830.317 105.122 836.636 Q106.487 834.623 108.547 833.558 Q110.608 832.47 113.084 832.47 Q118.293 832.47 121.302 835.641 Q124.334 838.789 124.334 844.229 Q124.334 849.553 121.186 852.771 Q118.038 855.988 112.807 855.988 Q106.811 855.988 103.64 851.405 Q100.469 846.798 100.469 838.072 Q100.469 829.877 104.358 825.016 Q108.247 820.132 114.797 820.132 Q116.557 820.132 118.339 820.479 Q120.145 820.826 122.089 821.521 Z" fill="#000000" fill-rule="evenodd" fill-opacity="1" /><path clip-path="url(#clip960)" d="M 0 0 M75.5152 615.374 Q71.9041 615.374 70.0754 618.939 Q68.2699 622.48 68.2699 629.61 Q68.2699 636.717 70.0754 640.281 Q71.9041 643.823 75.5152 643.823 Q79.1494 643.823 80.955 640.281 Q82.7837 636.717 82.7837 629.61 Q82.7837 622.48 80.955 618.939 Q79.1494 615.374 75.5152 615.374 M75.5152 611.67 Q81.3254 611.67 84.3809 616.277 Q87.4596 620.86 87.4596 629.61 Q87.4596 638.337 84.3809 642.943 Q81.3254 647.527 75.5152 647.527 Q69.7051 647.527 66.6264 642.943 Q63.5708 638.337 63.5708 629.61 Q63.5708 620.86 66.6264 616.277 Q69.7051 611.67 75.5152 611.67 Z" fill="#000000" fill-rule="evenodd" fill-opacity="1" /><path clip-path="url(#clip960)" d="M 0 0 M92.529 640.976 L97.4132 640.976 L97.4132 646.855 L92.529 646.855 L92.529 640.976 Z" fill="#000000" fill-rule="evenodd" fill-opacity="1" /><path clip-path="url(#clip960)" d="M 0 0 M112.483 630.443 Q109.149 630.443 107.228 632.226 Q105.33 634.008 105.33 637.133 Q105.33 640.258 107.228 642.041 Q109.149 643.823 112.483 643.823 Q115.816 643.823 117.737 642.041 Q119.658 640.235 119.658 637.133 Q119.658 634.008 117.737 632.226 Q115.839 630.443 112.483 630.443 M107.807 628.453 Q104.797 627.712 103.108 625.652 Q101.441 623.592 101.441 620.629 Q101.441 616.485 104.381 614.078 Q107.344 611.67 112.483 611.67 Q117.645 611.67 120.584 614.078 Q123.524 616.485 123.524 620.629 Q123.524 623.592 121.834 625.652 Q120.168 627.712 117.182 628.453 Q120.561 629.24 122.436 631.531 Q124.334 633.823 124.334 637.133 Q124.334 642.156 121.256 644.841 Q118.2 647.527 112.483 647.527 Q106.765 647.527 103.686 644.841 Q100.631 642.156 100.631 637.133 Q100.631 633.823 102.529 631.531 Q104.427 629.24 107.807 628.453 M106.094 621.068 Q106.094 623.754 107.76 625.258 Q109.45 626.763 112.483 626.763 Q115.492 626.763 117.182 625.258 Q118.895 623.754 118.895 621.068 Q118.895 618.383 117.182 616.879 Q115.492 615.374 112.483 615.374 Q109.45 615.374 107.76 616.879 Q106.094 618.383 106.094 621.068 Z" fill="#000000" fill-rule="evenodd" fill-opacity="1" /><path clip-path="url(#clip960)" d="M 0 0 M67.4597 434.459 L75.0985 434.459 L75.0985 408.093 L66.7884 409.76 L66.7884 405.5 L75.0522 403.834 L79.7281 403.834 L79.7281 434.459 L87.367 434.459 L87.367 438.394 L67.4597 438.394 L67.4597 434.459 Z" fill="#000000" fill-rule="evenodd" fill-opacity="1" /><path clip-path="url(#clip960)" d="M 0 0 M92.4364 432.514 L97.3206 432.514 L97.3206 438.394 L92.4364 438.394 L92.4364 432.514 Z" fill="#000000" fill-rule="evenodd" fill-opacity="1" /><path clip-path="url(#clip960)" d="M 0 0 M112.39 406.912 Q108.779 406.912 106.95 410.477 Q105.145 414.019 105.145 421.148 Q105.145 428.255 106.95 431.82 Q108.779 435.361 112.39 435.361 Q116.024 435.361 117.83 431.82 Q119.658 428.255 119.658 421.148 Q119.658 414.019 117.83 410.477 Q116.024 406.912 112.39 406.912 M112.39 403.209 Q118.2 403.209 121.256 407.815 Q124.334 412.399 124.334 421.148 Q124.334 429.875 121.256 434.482 Q118.2 439.065 112.39 439.065 Q106.58 439.065 103.501 434.482 Q100.446 429.875 100.446 421.148 Q100.446 412.399 103.501 407.815 Q106.58 403.209 112.39 403.209 Z" fill="#000000" fill-rule="evenodd" fill-opacity="1" /><path clip-path="url(#clip960)" d="M 0 0 M69.0569 225.997 L76.6958 225.997 L76.6958 199.631 L68.3856 201.298 L68.3856 197.039 L76.6495 195.372 L81.3254 195.372 L81.3254 225.997 L88.9642 225.997 L88.9642 229.932 L69.0569 229.932 L69.0569 225.997 Z" fill="#000000" fill-rule="evenodd" fill-opacity="1" /><path clip-path="url(#clip960)" d="M 0 0 M94.0336 224.053 L98.9179 224.053 L98.9179 229.932 L94.0336 229.932 L94.0336 224.053 Z" fill="#000000" fill-rule="evenodd" fill-opacity="1" /><path clip-path="url(#clip960)" d="M 0 0 M108.015 225.997 L124.334 225.997 L124.334 229.932 L102.39 229.932 L102.39 225.997 Q105.052 223.242 109.635 218.613 Q114.242 213.96 115.422 212.617 Q117.668 210.094 118.547 208.358 Q119.45 206.599 119.45 204.909 Q119.45 202.155 117.506 200.418 Q115.584 198.682 112.483 198.682 Q110.284 198.682 107.83 199.446 Q105.399 200.21 102.622 201.761 L102.622 197.039 Q105.446 195.905 107.899 195.326 Q110.353 194.747 112.39 194.747 Q117.76 194.747 120.955 197.432 Q124.149 200.118 124.149 204.608 Q124.149 206.738 123.339 208.659 Q122.552 210.557 120.446 213.15 Q119.867 213.821 116.765 217.039 Q113.663 220.233 108.015 225.997 Z" fill="#000000" fill-rule="evenodd" fill-opacity="1" /><path clip-path="url(#clip962)" d="
M1132.35 525.345 L1757.73 733.806 L1236.58 1254.96 L1132.35 525.345  Z
  " fill="#008000" fill-rule="evenodd" fill-opacity="0.2"/>
<polyline clip-path="url(#clip962)" style="stroke:#000000; stroke-width:4; stroke-opacity:1; fill:none" points="
  1132.35,525.345 1757.73,733.806 1236.58,1254.96 1132.35,525.345 
  "/>
<circle clip-path="url(#clip962)" cx="1132.35" cy="525.345" r="14" fill="#ff0000" fill-rule="evenodd" fill-opacity="1" stroke="#000000" stroke-opacity="1" stroke-width="3.2"/>
<circle clip-path="url(#clip962)" cx="1757.73" cy="733.806" r="14" fill="#ff0000" fill-rule="evenodd" fill-opacity="1" stroke="#000000" stroke-opacity="1" stroke-width="3.2"/>
<circle clip-path="url(#clip962)" cx="1236.58" cy="1254.96" r="14" fill="#ff0000" fill-rule="evenodd" fill-opacity="1" stroke="#000000" stroke-opacity="1" stroke-width="3.2"/>
<path clip-path="url(#clip960)" d="M 0 0 M1132.35 454.782 L1121.25 484.88 L1143.49 484.88 L1132.35 454.782 M1127.73 446.721 L1137.01 446.721 L1160.06 507.201 L1151.55 507.201 L1146.04 491.686 L1118.78 491.686 L1113.27 507.201 L1104.64 507.201 L1127.73 446.721 Z" fill="#000000" fill-rule="evenodd" fill-opacity="1" /><path clip-path="url(#clip960)" d="M 0 0 M1744.47 686.779 L1744.47 708.938 L1757.59 708.938 Q1764.2 708.938 1767.36 706.224 Q1770.56 703.469 1770.56 697.838 Q1770.56 692.167 1767.36 689.493 Q1764.2 686.779 1757.59 686.779 L1744.47 686.779 M1744.47 661.907 L1744.47 680.136 L1756.58 680.136 Q1762.58 680.136 1765.49 677.908 Q1768.45 675.639 1768.45 671.021 Q1768.45 666.444 1765.49 664.175 Q1762.58 661.907 1756.58 661.907 L1744.47 661.907 M1736.29 655.182 L1757.19 655.182 Q1766.55 655.182 1771.61 659.071 Q1776.67 662.96 1776.67 670.13 Q1776.67 675.68 1774.08 678.961 Q1771.49 682.242 1766.46 683.052 Q1772.5 684.349 1775.82 688.481 Q1779.18 692.572 1779.18 698.729 Q1779.18 706.831 1773.68 711.247 Q1768.17 715.662 1758 715.662 L1736.29 715.662 L1736.29 655.182 Z" fill="#000000" fill-rule="evenodd" fill-opacity="1" /><path clip-path="url(#clip960)" d="M 0 0 M1260.97 1180.99 L1260.97 1189.62 Q1256.84 1185.77 1252.14 1183.87 Q1247.48 1181.97 1242.21 1181.97 Q1231.84 1181.97 1226.33 1188.33 Q1220.82 1194.65 1220.82 1206.64 Q1220.82 1218.59 1226.33 1224.95 Q1231.84 1231.27 1242.21 1231.27 Q1247.48 1231.27 1252.14 1229.36 Q1256.84 1227.46 1260.97 1223.61 L1260.97 1232.16 Q1256.67 1235.07 1251.85 1236.53 Q1247.07 1237.99 1241.73 1237.99 Q1227.99 1237.99 1220.09 1229.61 Q1212.19 1221.18 1212.19 1206.64 Q1212.19 1192.05 1220.09 1183.67 Q1227.99 1175.24 1241.73 1175.24 Q1247.15 1175.24 1251.93 1176.7 Q1256.75 1178.12 1260.97 1180.99 Z" fill="#000000" fill-rule="evenodd" fill-opacity="1" /><path clip-path="url(#clip962)" d="
M1132.35 525.345 L1757.73 733.806 L1625.58 87.9763 L1132.35 525.345  Z
  " fill="#ffc0cb" fill-rule="evenodd" fill-opacity="0.7"/>
<polyline clip-path="url(#clip962)" style="stroke:#000000; stroke-width:4; stroke-opacity:1; fill:none" points="
  1132.35,525.345 1757.73,733.806 1625.58,87.9763 1132.35,525.345 
  "/>
<path clip-path="url(#clip962)" d="
M1236.58 1254.96 L1132.35 525.345 L552.6 980.419 L1236.58 1254.96  Z
  " fill="#ffc0cb" fill-rule="evenodd" fill-opacity="0.7"/>
<polyline clip-path="url(#clip962)" style="stroke:#000000; stroke-width:4; stroke-opacity:1; fill:none" points="
  1236.58,1254.96 1132.35,525.345 552.6,980.419 1236.58,1254.96 
  "/>
<path clip-path="url(#clip962)" d="
M1757.73 733.806 L1236.58 1254.96 L1948.49 1445.72 L1757.73 733.806  Z
  " fill="#ffc0cb" fill-rule="evenodd" fill-opacity="0.7"/>
<polyline clip-path="url(#clip962)" style="stroke:#000000; stroke-width:4; stroke-opacity:1; fill:none" points="
  1757.73,733.806 1236.58,1254.96 1948.49,1445.72 1757.73,733.806 
  "/>
<path clip-path="url(#clip962)" d="
M1505.22 449.042 L973.844 920.241 L1647.6 1144.83 L1505.22 449.042  Z
  " fill="#0000ff" fill-rule="evenodd" fill-opacity="0.7"/>
<polyline clip-path="url(#clip962)" style="stroke:#000000; stroke-width:4; stroke-opacity:1; fill:none" points="
  1505.22,449.042 973.844,920.241 1647.6,1144.83 1505.22,449.042 
  "/>
</svg>
