<?xml version="1.0" encoding="utf-8"?>
<svg xmlns="http://www.w3.org/2000/svg" xmlns:xlink="http://www.w3.org/1999/xlink" width="600" height="400" viewBox="0 0 2400 1600">
<defs>
  <clipPath id="clip800">
    <rect x="0" y="0" width="2400" height="1600"/>
  </clipPath>
</defs>
<path clip-path="url(#clip800)" d="
M0 1600 L2400 1600 L2400 0 L0 0  Z
  " fill="#ffffff" fill-rule="evenodd" fill-opacity="1"/>
<defs>
  <clipPath id="clip801">
    <rect x="480" y="0" width="1681" height="1600"/>
  </clipPath>
</defs>
<path clip-path="url(#clip800)" d="
M86.9921 1521.01 L2352.76 1521.01 L2352.76 47.2441 L86.9921 47.2441  Z
  " fill="#ffffff" fill-rule="evenodd" fill-opacity="1"/>
<defs>
  <clipPath id="clip802">
    <rect x="86" y="47" width="2267" height="1475"/>
  </clipPath>
</defs>
<polyline clip-path="url(#clip802)" style="stroke:#000000; stroke-width:2; stroke-opacity:0.1; fill:none" points="
  191.463,1521.01 191.463,47.2441 
  "/>
<polyline clip-path="url(#clip802)" style="stroke:#000000; stroke-width:2; stroke-opacity:0.1; fill:none" points="
  602.827,1521.01 602.827,47.2441 
  "/>
<polyline clip-path="url(#clip802)" style="stroke:#000000; stroke-width:2; stroke-opacity:0.1; fill:none" points="
  1014.19,1521.01 1014.19,47.2441 
  "/>
<polyline clip-path="url(#clip802)" style="stroke:#000000; stroke-width:2; stroke-opacity:0.1; fill:none" points="
  1425.56,1521.01 1425.56,47.2441 
  "/>
<polyline clip-path="url(#clip802)" style="stroke:#000000; stroke-width:2; stroke-opacity:0.1; fill:none" points="
  1836.92,1521.01 1836.92,47.2441 
  "/>
<polyline clip-path="url(#clip802)" style="stroke:#000000; stroke-width:2; stroke-opacity:0.1; fill:none" points="
  2248.29,1521.01 2248.29,47.2441 
  "/>
<polyline clip-path="url(#clip802)" style="stroke:#000000; stroke-width:2; stroke-opacity:0.1; fill:none" points="
  86.9921,1401.17 2352.76,1401.17 
  "/>
<polyline clip-path="url(#clip802)" style="stroke:#000000; stroke-width:2; stroke-opacity:0.1; fill:none" points="
  86.9921,989.808 2352.76,989.808 
  "/>
<polyline clip-path="url(#clip802)" style="stroke:#000000; stroke-width:2; stroke-opacity:0.1; fill:none" points="
  86.9921,578.444 2352.76,578.444 
  "/>
<polyline clip-path="url(#clip802)" style="stroke:#000000; stroke-width:2; stroke-opacity:0.1; fill:none" points="
  86.9921,167.079 2352.76,167.079 
  "/>
<polyline clip-path="url(#clip800)" style="stroke:#000000; stroke-width:4; stroke-opacity:1; fill:none" points="
  86.9921,1521.01 2352.76,1521.01 
  "/>
<polyline clip-path="url(#clip800)" style="stroke:#000000; stroke-width:4; stroke-opacity:1; fill:none" points="
  86.9921,1521.01 86.9921,47.2441 
  "/>
<polyline clip-path="url(#clip800)" style="stroke:#000000; stroke-width:4; stroke-opacity:1; fill:none" points="
  191.463,1521.01 191.463,1503.32 
  "/>
<polyline clip-path="url(#clip800)" style="stroke:#000000; stroke-width:4; stroke-opacity:1; fill:none" points="
  602.827,1521.01 602.827,1503.32 
  "/>
<polyline clip-path="url(#clip800)" style="stroke:#000000; stroke-width:4; stroke-opacity:1; fill:none" points="
  1014.19,1521.01 1014.19,1503.32 
  "/>
<polyline clip-path="url(#clip800)" style="stroke:#000000; stroke-width:4; stroke-opacity:1; fill:none" points="
  1425.56,1521.01 1425.56,1503.32 
  "/>
<polyline clip-path="url(#clip800)" style="stroke:#000000; stroke-width:4; stroke-opacity:1; fill:none" points="
  1836.92,1521.01 1836.92,1503.32 
  "/>
<polyline clip-path="url(#clip800)" style="stroke:#000000; stroke-width:4; stroke-opacity:1; fill:none" points="
  2248.29,1521.01 2248.29,1503.32 
  "/>
<polyline clip-path="url(#clip800)" style="stroke:#000000; stroke-width:4; stroke-opacity:1; fill:none" points="
  86.9921,1401.17 114.181,1401.17 
  "/>
<polyline clip-path="url(#clip800)" style="stroke:#000000; stroke-width:4; stroke-opacity:1; fill:none" points="
  86.9921,989.808 114.181,989.808 
  "/>
<polyline clip-path="url(#clip800)" style="stroke:#000000; stroke-width:4; stroke-opacity:1; fill:none" points="
  86.9921,578.444 114.181,578.444 
  "/>
<polyline clip-path="url(#clip800)" style="stroke:#000000; stroke-width:4; stroke-opacity:1; fill:none" points="
  86.9921,167.079 114.181,167.079 
  "/>
<path clip-path="url(#clip800)" d="M 0 0 M172.516 1559.6 L184.993 1559.6 L184.993 1563.39 L172.516 1563.39 L172.516 1559.6 Z" fill="#000000" fill-rule="evenodd" fill-opacity="1" /><path clip-path="url(#clip800)" d="M 0 0 M194.09 1570.54 L210.409 1570.54 L210.409 1574.48 L188.465 1574.48 L188.465 1570.54 Q191.127 1567.79 195.71 1563.16 Q200.317 1558.51 201.497 1557.17 Q203.743 1554.64 204.622 1552.91 Q205.525 1551.15 205.525 1549.46 Q205.525 1546.7 203.581 1544.97 Q201.659 1543.23 198.557 1543.23 Q196.358 1543.23 193.905 1543.99 Q191.474 1544.76 188.696 1546.31 L188.696 1541.59 Q191.52 1540.45 193.974 1539.87 Q196.428 1539.29 198.465 1539.29 Q203.835 1539.29 207.03 1541.98 Q210.224 1544.67 210.224 1549.16 Q210.224 1551.29 209.414 1553.21 Q208.627 1555.1 206.52 1557.7 Q205.942 1558.37 202.84 1561.59 Q199.738 1564.78 194.09 1570.54 Z" fill="#000000" fill-rule="evenodd" fill-opacity="1" /><path clip-path="url(#clip800)" d="M 0 0 M583.695 1559.6 L596.172 1559.6 L596.172 1563.39 L583.695 1563.39 L583.695 1559.6 Z" fill="#000000" fill-rule="evenodd" fill-opacity="1" /><path clip-path="url(#clip800)" d="M 0 0 M602.052 1570.54 L609.691 1570.54 L609.691 1544.18 L601.38 1545.85 L601.38 1541.59 L609.644 1539.92 L614.32 1539.92 L614.32 1570.54 L621.959 1570.54 L621.959 1574.48 L602.052 1574.48 L602.052 1570.54 Z" fill="#000000" fill-rule="evenodd" fill-opacity="1" /><path clip-path="url(#clip800)" d="M 0 0 M1014.19 1543 Q1010.58 1543 1008.75 1546.56 Q1006.95 1550.11 1006.95 1557.23 Q1006.95 1564.34 1008.75 1567.91 Q1010.58 1571.45 1014.19 1571.45 Q1017.83 1571.45 1019.63 1567.91 Q1021.46 1564.34 1021.46 1557.23 Q1021.46 1550.11 1019.63 1546.56 Q1017.83 1543 1014.19 1543 M1014.19 1539.29 Q1020 1539.29 1023.06 1543.9 Q1026.14 1548.48 1026.14 1557.23 Q1026.14 1565.96 1023.06 1570.57 Q1020 1575.15 1014.19 1575.15 Q1008.38 1575.15 1005.3 1570.57 Q1002.25 1565.96 1002.25 1557.23 Q1002.25 1548.48 1005.3 1543.9 Q1008.38 1539.29 1014.19 1539.29 Z" fill="#000000" fill-rule="evenodd" fill-opacity="1" /><path clip-path="url(#clip800)" d="M 0 0 M1415.94 1570.54 L1423.58 1570.54 L1423.58 1544.18 L1415.27 1545.85 L1415.27 1541.59 L1423.53 1539.92 L1428.21 1539.92 L1428.21 1570.54 L1435.85 1570.54 L1435.85 1574.48 L1415.94 1574.48 L1415.94 1570.54 Z" fill="#000000" fill-rule="evenodd" fill-opacity="1" /><path clip-path="url(#clip800)" d="M 0 0 M1831.57 1570.54 L1847.89 1570.54 L1847.89 1574.48 L1825.95 1574.48 L1825.95 1570.54 Q1828.61 1567.79 1833.19 1563.16 Q1837.8 1558.51 1838.98 1557.17 Q1841.23 1554.64 1842.11 1552.91 Q1843.01 1551.15 1843.01 1549.46 Q1843.01 1546.7 1841.06 1544.97 Q1839.14 1543.23 1836.04 1543.23 Q1833.84 1543.23 1831.39 1543.99 Q1828.96 1544.76 1826.18 1546.31 L1826.18 1541.59 Q1829 1540.45 1831.46 1539.87 Q1833.91 1539.29 1835.95 1539.29 Q1841.32 1539.29 1844.51 1541.98 Q1847.71 1544.67 1847.71 1549.16 Q1847.71 1551.29 1846.9 1553.21 Q1846.11 1555.1 1844 1557.7 Q1843.43 1558.37 1840.32 1561.59 Q1837.22 1564.78 1831.57 1570.54 Z" fill="#000000" fill-rule="evenodd" fill-opacity="1" /><path clip-path="url(#clip800)" d="M 0 0 M2252.53 1555.85 Q2255.89 1556.56 2257.76 1558.83 Q2259.66 1561.1 2259.66 1564.43 Q2259.66 1569.55 2256.14 1572.35 Q2252.63 1575.15 2246.14 1575.15 Q2243.97 1575.15 2241.65 1574.71 Q2239.36 1574.29 2236.91 1573.44 L2236.91 1568.92 Q2238.85 1570.06 2241.17 1570.64 Q2243.48 1571.22 2246.01 1571.22 Q2250.4 1571.22 2252.7 1569.48 Q2255.01 1567.74 2255.01 1564.43 Q2255.01 1561.38 2252.86 1559.67 Q2250.73 1557.93 2246.91 1557.93 L2242.88 1557.93 L2242.88 1554.09 L2247.09 1554.09 Q2250.54 1554.09 2252.37 1552.72 Q2254.2 1551.33 2254.2 1548.74 Q2254.2 1546.08 2252.3 1544.67 Q2250.43 1543.23 2246.91 1543.23 Q2244.99 1543.23 2242.79 1543.65 Q2240.59 1544.06 2237.95 1544.94 L2237.95 1540.78 Q2240.61 1540.04 2242.93 1539.67 Q2245.26 1539.29 2247.32 1539.29 Q2252.65 1539.29 2255.75 1541.73 Q2258.85 1544.13 2258.85 1548.25 Q2258.85 1551.12 2257.21 1553.11 Q2255.57 1555.08 2252.53 1555.85 Z" fill="#000000" fill-rule="evenodd" fill-opacity="1" /><path clip-path="url(#clip800)" d="M 0 0 M51.0477 1386.97 Q47.4367 1386.97 45.608 1390.54 Q43.8024 1394.08 43.8024 1401.21 Q43.8024 1408.31 45.608 1411.88 Q47.4367 1415.42 51.0477 1415.42 Q54.682 1415.42 56.4875 1411.88 Q58.3162 1408.31 58.3162 1401.21 Q58.3162 1394.08 56.4875 1390.54 Q54.682 1386.97 51.0477 1386.97 M51.0477 1383.27 Q56.8579 1383.27 59.9134 1387.87 Q62.9921 1392.46 62.9921 1401.21 Q62.9921 1409.93 59.9134 1414.54 Q56.8579 1419.12 51.0477 1419.12 Q45.2376 1419.12 42.1589 1414.54 Q39.1034 1409.93 39.1034 1401.21 Q39.1034 1392.46 42.1589 1387.87 Q45.2376 1383.27 51.0477 1383.27 Z" fill="#000000" fill-rule="evenodd" fill-opacity="1" /><path clip-path="url(#clip800)" d="M 0 0 M43.0848 1003.15 L50.7237 1003.15 L50.7237 976.788 L42.4135 978.454 L42.4135 974.195 L50.6774 972.528 L55.3533 972.528 L55.3533 1003.15 L62.9921 1003.15 L62.9921 1007.09 L43.0848 1007.09 L43.0848 1003.15 Z" fill="#000000" fill-rule="evenodd" fill-opacity="1" /><path clip-path="url(#clip800)" d="M 0 0 M46.6728 591.789 L62.9921 591.789 L62.9921 595.724 L41.0478 595.724 L41.0478 591.789 Q43.7098 589.034 48.2931 584.404 Q52.8996 579.752 54.0801 578.409 Q56.3255 575.886 57.2051 574.15 Q58.1079 572.39 58.1079 570.701 Q58.1079 567.946 56.1635 566.21 Q54.2422 564.474 51.1403 564.474 Q48.9413 564.474 46.4876 565.238 Q44.057 566.002 41.2793 567.553 L41.2793 562.83 Q44.1033 561.696 46.557 561.117 Q49.0107 560.539 51.0477 560.539 Q56.4181 560.539 59.6125 563.224 Q62.8069 565.909 62.8069 570.4 Q62.8069 572.529 61.9968 574.451 Q61.2097 576.349 59.1033 578.941 Q58.5246 579.613 55.4227 582.83 Q52.3209 586.025 46.6728 591.789 Z" fill="#000000" fill-rule="evenodd" fill-opacity="1" /><path clip-path="url(#clip800)" d="M 0 0 M55.8625 165.725 Q59.219 166.443 61.094 168.711 Q62.9921 170.98 62.9921 174.313 Q62.9921 179.429 59.4736 182.23 Q55.9551 185.03 49.4737 185.03 Q47.2978 185.03 44.983 184.591 Q42.6913 184.174 40.2376 183.317 L40.2376 178.804 Q42.1821 179.938 44.4969 180.517 Q46.8117 181.095 49.3348 181.095 Q53.7329 181.095 56.0246 179.359 Q58.3394 177.623 58.3394 174.313 Q58.3394 171.257 56.1866 169.544 Q54.057 167.808 50.2376 167.808 L46.2098 167.808 L46.2098 163.966 L50.4227 163.966 Q53.8718 163.966 55.7005 162.6 Q57.5292 161.211 57.5292 158.619 Q57.5292 155.957 55.6311 154.544 Q53.7561 153.109 50.2376 153.109 Q48.3163 153.109 46.1172 153.526 Q43.9182 153.943 41.2793 154.822 L41.2793 150.656 Q43.9413 149.915 46.2561 149.545 Q48.5941 149.174 50.6542 149.174 Q55.9783 149.174 59.0801 151.605 Q62.1819 154.012 62.1819 158.132 Q62.1819 161.003 60.5384 162.994 Q58.8949 164.961 55.8625 165.725 Z" fill="#000000" fill-rule="evenodd" fill-opacity="1" /><circle clip-path="url(#clip802)" cx="1014.19" cy="1401.17" r="14" fill="#ff0000" fill-rule="evenodd" fill-opacity="1" stroke="#000000" stroke-opacity="1" stroke-width="3.2"/>
<circle clip-path="url(#clip802)" cx="1425.56" cy="167.079" r="14" fill="#ff0000" fill-rule="evenodd" fill-opacity="1" stroke="#000000" stroke-opacity="1" stroke-width="3.2"/>
<path clip-path="url(#clip800)" d="M 0 0 M1014.19 1330.61 L1003.09 1360.71 L1025.33 1360.71 L1014.19 1330.61 M1009.57 1322.55 L1018.85 1322.55 L1041.9 1383.03 L1033.39 1383.03 L1027.88 1367.51 L1000.62 1367.51 L995.112 1383.03 L986.484 1383.03 L1009.57 1322.55 Z" fill="#000000" fill-rule="evenodd" fill-opacity="1" /><path clip-path="url(#clip800)" d="M 0 0 M1412.29 120.052 L1412.29 142.211 L1425.41 142.211 Q1432.02 142.211 1435.18 139.497 Q1438.38 136.742 1438.38 131.111 Q1438.38 125.44 1435.18 122.766 Q1432.02 120.052 1425.41 120.052 L1412.29 120.052 M1412.29 95.1796 L1412.29 113.409 L1424.4 113.409 Q1430.4 113.409 1433.31 111.181 Q1436.27 108.912 1436.27 104.294 Q1436.27 99.7166 1433.31 97.4481 Q1430.4 95.1796 1424.4 95.1796 L1412.29 95.1796 M1404.11 88.4551 L1425.01 88.4551 Q1434.37 88.4551 1439.43 92.344 Q1444.49 96.2329 1444.49 103.403 Q1444.49 108.953 1441.9 112.234 Q1439.31 115.515 1434.29 116.325 Q1440.32 117.622 1443.64 121.754 Q1447.01 125.845 1447.01 132.002 Q1447.01 140.104 1441.5 144.52 Q1435.99 148.935 1425.82 148.935 L1404.11 148.935 L1404.11 88.4551 Z" fill="#000000" fill-rule="evenodd" fill-opacity="1" /><circle clip-path="url(#clip802)" cx="151.118" cy="427.874" r="14" fill="#008000" fill-rule="evenodd" fill-opacity="1" stroke="#000000" stroke-opacity="1" stroke-width="3.2"/>
<circle clip-path="url(#clip802)" cx="2288.63" cy="1140.38" r="14" fill="#008000" fill-rule="evenodd" fill-opacity="1" stroke="#000000" stroke-opacity="1" stroke-width="3.2"/>
<path clip-path="url(#clip800)" d="M 0 0 M134.286 402.843 L147.654 402.843 L147.654 356.703 L133.111 359.62 L133.111 352.166 L147.573 349.25 L155.756 349.25 L155.756 402.843 L169.124 402.843 L169.124 409.73 L134.286 409.73 L134.286 402.843 Z" fill="#000000" fill-rule="evenodd" fill-opacity="1" /><path clip-path="url(#clip800)" d="M 0 0 M2279.27 1115.35 L2307.83 1115.35 L2307.83 1122.23 L2269.43 1122.23 L2269.43 1115.35 Q2274.09 1110.53 2282.11 1102.43 Q2290.17 1094.28 2292.24 1091.93 Q2296.17 1087.52 2297.7 1084.48 Q2299.28 1081.4 2299.28 1078.44 Q2299.28 1073.62 2295.88 1070.59 Q2292.52 1067.55 2287.09 1067.55 Q2283.24 1067.55 2278.95 1068.88 Q2274.7 1070.22 2269.83 1072.93 L2269.83 1064.67 Q2274.78 1062.69 2279.07 1061.67 Q2283.36 1060.66 2286.93 1060.66 Q2296.33 1060.66 2301.92 1065.36 Q2307.51 1070.06 2307.51 1077.92 Q2307.51 1081.64 2306.09 1085.01 Q2304.71 1088.33 2301.03 1092.87 Q2300.01 1094.04 2294.59 1099.67 Q2289.16 1105.26 2279.27 1115.35 Z" fill="#000000" fill-rule="evenodd" fill-opacity="1" /><path clip-path="url(#clip802)" d="
M1014.19 1401.17 L1425.56 167.079 L151.118 427.874 L1014.19 1401.17  Z
  " fill="#ffc0cb" fill-rule="evenodd" fill-opacity="0.7"/>
<polyline clip-path="url(#clip802)" style="stroke:#000000; stroke-width:4; stroke-opacity:1; fill:none" points="
  1014.19,1401.17 1425.56,167.079 151.118,427.874 1014.19,1401.17 
  "/>
<path clip-path="url(#clip802)" d="
M1014.19 1401.17 L1425.56 167.079 L2288.63 1140.38 L1014.19 1401.17  Z
  " fill="#ffc0cb" fill-rule="evenodd" fill-opacity="0.7"/>
<polyline clip-path="url(#clip802)" style="stroke:#000000; stroke-width:4; stroke-opacity:1; fill:none" points="
  1014.19,1401.17 1425.56,167.079 2288.63,1140.38 1014.19,1401.17 
  "/>
</svg>
