<?xml version="1.0" encoding="utf-8"?>
<svg xmlns="http://www.w3.org/2000/svg" xmlns:xlink="http://www.w3.org/1999/xlink" width="600" height="400" viewBox="0 0 2400 1600">
<defs>
  <clipPath id="clip020">
    <rect x="0" y="0" width="2400" height="1600"/>
  </clipPath>
</defs>
<path clip-path="url(#clip020)" d="
M0 1600 L2400 1600 L2400 0 L0 0  Z
  " fill="#ffffff" fill-rule="evenodd" fill-opacity="1"/>
<defs>
  <clipPath id="clip021">
    <rect x="480" y="0" width="1681" height="1600"/>
  </clipPath>
</defs>
<path clip-path="url(#clip020)" d="
M110.881 1486.45 L2352.76 1486.45 L2352.76 47.2441 L110.881 47.2441  Z
  " fill="#ffffff" fill-rule="evenodd" fill-opacity="1"/>
<defs>
  <clipPath id="clip022">
    <rect x="110" y="47" width="2243" height="1440"/>
  </clipPath>
</defs>
<polyline clip-path="url(#clip022)" style="stroke:#000000; stroke-width:2; stroke-opacity:0.1; fill:none" points="
  214.25,1486.45 214.25,47.2441 
  "/>
<polyline clip-path="url(#clip022)" style="stroke:#000000; stroke-width:2; stroke-opacity:0.1; fill:none" points="
  621.277,1486.45 621.277,47.2441 
  "/>
<polyline clip-path="url(#clip022)" style="stroke:#000000; stroke-width:2; stroke-opacity:0.1; fill:none" points="
  1028.3,1486.45 1028.3,47.2441 
  "/>
<polyline clip-path="url(#clip022)" style="stroke:#000000; stroke-width:2; stroke-opacity:0.1; fill:none" points="
  1435.33,1486.45 1435.33,47.2441 
  "/>
<polyline clip-path="url(#clip022)" style="stroke:#000000; stroke-width:2; stroke-opacity:0.1; fill:none" points="
  1842.36,1486.45 1842.36,47.2441 
  "/>
<polyline clip-path="url(#clip022)" style="stroke:#000000; stroke-width:2; stroke-opacity:0.1; fill:none" points="
  2249.39,1486.45 2249.39,47.2441 
  "/>
<polyline clip-path="url(#clip022)" style="stroke:#000000; stroke-width:2; stroke-opacity:0.1; fill:none" points="
  110.881,1377.39 2352.76,1377.39 
  "/>
<polyline clip-path="url(#clip022)" style="stroke:#000000; stroke-width:2; stroke-opacity:0.1; fill:none" points="
  110.881,970.36 2352.76,970.36 
  "/>
<polyline clip-path="url(#clip022)" style="stroke:#000000; stroke-width:2; stroke-opacity:0.1; fill:none" points="
  110.881,563.332 2352.76,563.332 
  "/>
<polyline clip-path="url(#clip022)" style="stroke:#000000; stroke-width:2; stroke-opacity:0.1; fill:none" points="
  110.881,156.305 2352.76,156.305 
  "/>
<polyline clip-path="url(#clip020)" style="stroke:#000000; stroke-width:4; stroke-opacity:1; fill:none" points="
  110.881,1486.45 2352.76,1486.45 
  "/>
<polyline clip-path="url(#clip020)" style="stroke:#000000; stroke-width:4; stroke-opacity:1; fill:none" points="
  110.881,1486.45 110.881,47.2441 
  "/>
<polyline clip-path="url(#clip020)" style="stroke:#000000; stroke-width:4; stroke-opacity:1; fill:none" points="
  214.25,1486.45 214.25,1469.18 
  "/>
<polyline clip-path="url(#clip020)" style="stroke:#000000; stroke-width:4; stroke-opacity:1; fill:none" points="
  621.277,1486.45 621.277,1469.18 
  "/>
<polyline clip-path="url(#clip020)" style="stroke:#000000; stroke-width:4; stroke-opacity:1; fill:none" points="
  1028.3,1486.45 1028.3,1469.18 
  "/>
<polyline clip-path="url(#clip020)" style="stroke:#000000; stroke-width:4; stroke-opacity:1; fill:none" points="
  1435.33,1486.45 1435.33,1469.18 
  "/>
<polyline clip-path="url(#clip020)" style="stroke:#000000; stroke-width:4; stroke-opacity:1; fill:none" points="
  1842.36,1486.45 1842.36,1469.18 
  "/>
<polyline clip-path="url(#clip020)" style="stroke:#000000; stroke-width:4; stroke-opacity:1; fill:none" points="
  2249.39,1486.45 2249.39,1469.18 
  "/>
<polyline clip-path="url(#clip020)" style="stroke:#000000; stroke-width:4; stroke-opacity:1; fill:none" points="
  110.881,1377.39 137.783,1377.39 
  "/>
<polyline clip-path="url(#clip020)" style="stroke:#000000; stroke-width:4; stroke-opacity:1; fill:none" points="
  110.881,970.36 137.783,970.36 
  "/>
<polyline clip-path="url(#clip020)" style="stroke:#000000; stroke-width:4; stroke-opacity:1; fill:none" points="
  110.881,563.332 137.783,563.332 
  "/>
<polyline clip-path="url(#clip020)" style="stroke:#000000; stroke-width:4; stroke-opacity:1; fill:none" points="
  110.881,156.305 137.783,156.305 
  "/>
<path clip-path="url(#clip020)" d="M 0 0 M195.303 1525.04 L207.78 1525.04 L207.78 1528.83 L195.303 1528.83 L195.303 1525.04 Z" fill="#000000" fill-rule="evenodd" fill-opacity="1" /><path clip-path="url(#clip020)" d="M 0 0 M216.877 1535.98 L233.197 1535.98 L233.197 1539.92 L211.252 1539.92 L211.252 1535.98 Q213.914 1533.23 218.498 1528.6 Q223.104 1523.95 224.285 1522.61 Q226.53 1520.08 227.41 1518.35 Q228.312 1516.59 228.312 1514.9 Q228.312 1512.14 226.368 1510.41 Q224.447 1508.67 221.345 1508.67 Q219.146 1508.67 216.692 1509.43 Q214.261 1510.2 211.484 1511.75 L211.484 1507.03 Q214.308 1505.89 216.761 1505.31 Q219.215 1504.73 221.252 1504.73 Q226.623 1504.73 229.817 1507.42 Q233.011 1510.11 233.011 1514.6 Q233.011 1516.73 232.201 1518.65 Q231.414 1520.54 229.308 1523.14 Q228.729 1523.81 225.627 1527.03 Q222.525 1530.22 216.877 1535.98 Z" fill="#000000" fill-rule="evenodd" fill-opacity="1" /><path clip-path="url(#clip020)" d="M 0 0 M602.145 1525.04 L614.622 1525.04 L614.622 1528.83 L602.145 1528.83 L602.145 1525.04 Z" fill="#000000" fill-rule="evenodd" fill-opacity="1" /><path clip-path="url(#clip020)" d="M 0 0 M620.502 1535.98 L628.141 1535.98 L628.141 1509.62 L619.831 1511.29 L619.831 1507.03 L628.094 1505.36 L632.77 1505.36 L632.77 1535.98 L640.409 1535.98 L640.409 1539.92 L620.502 1539.92 L620.502 1535.98 Z" fill="#000000" fill-rule="evenodd" fill-opacity="1" /><path clip-path="url(#clip020)" d="M 0 0 M1028.3 1508.44 Q1024.69 1508.44 1022.86 1512 Q1021.06 1515.55 1021.06 1522.67 Q1021.06 1529.78 1022.86 1533.35 Q1024.69 1536.89 1028.3 1536.89 Q1031.94 1536.89 1033.74 1533.35 Q1035.57 1529.78 1035.57 1522.67 Q1035.57 1515.55 1033.74 1512 Q1031.94 1508.44 1028.3 1508.44 M1028.3 1504.73 Q1034.11 1504.73 1037.17 1509.34 Q1040.25 1513.92 1040.25 1522.67 Q1040.25 1531.4 1037.17 1536.01 Q1034.11 1540.59 1028.3 1540.59 Q1022.49 1540.59 1019.42 1536.01 Q1016.36 1531.4 1016.36 1522.67 Q1016.36 1513.92 1019.42 1509.34 Q1022.49 1504.73 1028.3 1504.73 Z" fill="#000000" fill-rule="evenodd" fill-opacity="1" /><path clip-path="url(#clip020)" d="M 0 0 M1425.71 1535.98 L1433.35 1535.98 L1433.35 1509.62 L1425.04 1511.29 L1425.04 1507.03 L1433.31 1505.36 L1437.98 1505.36 L1437.98 1535.98 L1445.62 1535.98 L1445.62 1539.92 L1425.71 1539.92 L1425.71 1535.98 Z" fill="#000000" fill-rule="evenodd" fill-opacity="1" /><path clip-path="url(#clip020)" d="M 0 0 M1837.01 1535.98 L1853.33 1535.98 L1853.33 1539.92 L1831.39 1539.92 L1831.39 1535.98 Q1834.05 1533.23 1838.63 1528.6 Q1843.24 1523.95 1844.42 1522.61 Q1846.67 1520.08 1847.54 1518.35 Q1848.45 1516.59 1848.45 1514.9 Q1848.45 1512.14 1846.5 1510.41 Q1844.58 1508.67 1841.48 1508.67 Q1839.28 1508.67 1836.83 1509.43 Q1834.4 1510.2 1831.62 1511.75 L1831.62 1507.03 Q1834.44 1505.89 1836.9 1505.31 Q1839.35 1504.73 1841.39 1504.73 Q1846.76 1504.73 1849.95 1507.42 Q1853.15 1510.11 1853.15 1514.6 Q1853.15 1516.73 1852.34 1518.65 Q1851.55 1520.54 1849.44 1523.14 Q1848.86 1523.81 1845.76 1527.03 Q1842.66 1530.22 1837.01 1535.98 Z" fill="#000000" fill-rule="evenodd" fill-opacity="1" /><path clip-path="url(#clip020)" d="M 0 0 M2253.63 1521.29 Q2256.99 1522 2258.87 1524.27 Q2260.76 1526.54 2260.76 1529.87 Q2260.76 1534.99 2257.25 1537.79 Q2253.73 1540.59 2247.25 1540.59 Q2245.07 1540.59 2242.75 1540.15 Q2240.46 1539.73 2238.01 1538.88 L2238.01 1534.36 Q2239.95 1535.5 2242.27 1536.08 Q2244.58 1536.66 2247.11 1536.66 Q2251.5 1536.66 2253.8 1534.92 Q2256.11 1533.18 2256.11 1529.87 Q2256.11 1526.82 2253.96 1525.11 Q2251.83 1523.37 2248.01 1523.37 L2243.98 1523.37 L2243.98 1519.53 L2248.19 1519.53 Q2251.64 1519.53 2253.47 1518.16 Q2255.3 1516.77 2255.3 1514.18 Q2255.3 1511.52 2253.4 1510.11 Q2251.53 1508.67 2248.01 1508.67 Q2246.09 1508.67 2243.89 1509.09 Q2241.69 1509.5 2239.05 1510.38 L2239.05 1506.22 Q2241.71 1505.48 2244.03 1505.11 Q2246.37 1504.73 2248.43 1504.73 Q2253.75 1504.73 2256.85 1507.17 Q2259.95 1509.57 2259.95 1513.69 Q2259.95 1516.56 2258.31 1518.55 Q2256.67 1520.52 2253.63 1521.29 Z" fill="#000000" fill-rule="evenodd" fill-opacity="1" /><path clip-path="url(#clip020)" d="M 0 0 M74.9365 1363.19 Q71.3254 1363.19 69.4967 1366.75 Q67.6912 1370.29 67.6912 1377.42 Q67.6912 1384.53 69.4967 1388.09 Q71.3254 1391.63 74.9365 1391.63 Q78.5707 1391.63 80.3763 1388.09 Q82.205 1384.53 82.205 1377.42 Q82.205 1370.29 80.3763 1366.75 Q78.5707 1363.19 74.9365 1363.19 M74.9365 1359.48 Q80.7467 1359.48 83.8022 1364.09 Q86.8809 1368.67 86.8809 1377.42 Q86.8809 1386.15 83.8022 1390.76 Q80.7467 1395.34 74.9365 1395.34 Q69.1264 1395.34 66.0477 1390.76 Q62.9921 1386.15 62.9921 1377.42 Q62.9921 1368.67 66.0477 1364.09 Q69.1264 1359.48 74.9365 1359.48 Z" fill="#000000" fill-rule="evenodd" fill-opacity="1" /><path clip-path="url(#clip020)" d="M 0 0 M66.9736 983.705 L74.6124 983.705 L74.6124 957.339 L66.3023 959.006 L66.3023 954.746 L74.5661 953.08 L79.242 953.08 L79.242 983.705 L86.8809 983.705 L86.8809 987.64 L66.9736 987.64 L66.9736 983.705 Z" fill="#000000" fill-rule="evenodd" fill-opacity="1" /><path clip-path="url(#clip020)" d="M 0 0 M70.5615 576.677 L86.8809 576.677 L86.8809 580.612 L64.9366 580.612 L64.9366 576.677 Q67.5986 573.923 72.1819 569.293 Q76.7883 564.64 77.9689 563.298 Q80.2143 560.774 81.0939 559.038 Q81.9967 557.279 81.9967 555.589 Q81.9967 552.835 80.0522 551.099 Q78.1309 549.362 75.0291 549.362 Q72.83 549.362 70.3763 550.126 Q67.9458 550.89 65.168 552.441 L65.168 547.719 Q67.9921 546.585 70.4458 546.006 Q72.8995 545.427 74.9365 545.427 Q80.3068 545.427 83.5013 548.112 Q86.6957 550.798 86.6957 555.288 Q86.6957 557.418 85.8855 559.339 Q85.0985 561.237 82.992 563.83 Q82.4133 564.501 79.3115 567.719 Q76.2096 570.913 70.5615 576.677 Z" fill="#000000" fill-rule="evenodd" fill-opacity="1" /><path clip-path="url(#clip020)" d="M 0 0 M79.7513 154.951 Q83.1078 155.668 84.9827 157.937 Q86.8809 160.205 86.8809 163.539 Q86.8809 168.654 83.3624 171.455 Q79.8439 174.256 73.3624 174.256 Q71.1865 174.256 68.8717 173.816 Q66.5801 173.4 64.1264 172.543 L64.1264 168.029 Q66.0708 169.164 68.3856 169.742 Q70.7004 170.321 73.2236 170.321 Q77.6217 170.321 79.9133 168.585 Q82.2281 166.849 82.2281 163.539 Q82.2281 160.483 80.0754 158.77 Q77.9457 157.034 74.1263 157.034 L70.0986 157.034 L70.0986 153.191 L74.3115 153.191 Q77.7606 153.191 79.5893 151.826 Q81.418 150.437 81.418 147.844 Q81.418 145.182 79.5198 143.77 Q77.6448 142.335 74.1263 142.335 Q72.205 142.335 70.006 142.752 Q67.8069 143.168 65.168 144.048 L65.168 139.881 Q67.8301 139.141 70.1449 138.77 Q72.4828 138.4 74.543 138.4 Q79.867 138.4 82.9689 140.83 Q86.0707 143.238 86.0707 147.358 Q86.0707 150.229 84.4272 152.219 Q82.7837 154.187 79.7513 154.951 Z" fill="#000000" fill-rule="evenodd" fill-opacity="1" /><circle clip-path="url(#clip022)" cx="1028.3" cy="1377.39" r="14" fill="#ff0000" fill-rule="evenodd" fill-opacity="1" stroke="#000000" stroke-opacity="1" stroke-width="3.2"/>
<circle clip-path="url(#clip022)" cx="1435.33" cy="156.305" r="14" fill="#ff0000" fill-rule="evenodd" fill-opacity="1" stroke="#000000" stroke-opacity="1" stroke-width="3.2"/>
<path clip-path="url(#clip020)" d="M 0 0 M1028.3 1306.82 L1017.21 1336.92 L1039.44 1336.92 L1028.3 1306.82 M1023.69 1298.76 L1032.96 1298.76 L1056.01 1359.24 L1047.51 1359.24 L1042 1343.73 L1014.73 1343.73 L1009.22 1359.24 L1000.6 1359.24 L1023.69 1298.76 Z" fill="#000000" fill-rule="evenodd" fill-opacity="1" /><path clip-path="url(#clip020)" d="M 0 0 M1422.07 109.278 L1422.07 131.436 L1435.19 131.436 Q1441.79 131.436 1444.95 128.722 Q1448.15 125.968 1448.15 120.337 Q1448.15 114.666 1444.95 111.992 Q1441.79 109.278 1435.19 109.278 L1422.07 109.278 M1422.07 84.4054 L1422.07 102.634 L1434.18 102.634 Q1440.17 102.634 1443.09 100.406 Q1446.05 98.1379 1446.05 93.5199 Q1446.05 88.9424 1443.09 86.6739 Q1440.17 84.4054 1434.18 84.4054 L1422.07 84.4054 M1413.88 77.6809 L1434.79 77.6809 Q1444.14 77.6809 1449.21 81.5697 Q1454.27 85.4586 1454.27 92.6287 Q1454.27 98.1785 1451.68 101.46 Q1449.08 104.741 1444.06 105.551 Q1450.1 106.847 1453.42 110.979 Q1456.78 115.071 1456.78 121.228 Q1456.78 129.33 1451.27 133.745 Q1445.76 138.161 1435.6 138.161 L1413.88 138.161 L1413.88 77.6809 Z" fill="#000000" fill-rule="evenodd" fill-opacity="1" /><circle clip-path="url(#clip022)" cx="174.33" cy="414.35" r="14" fill="#008000" fill-rule="evenodd" fill-opacity="1" stroke="#000000" stroke-opacity="1" stroke-width="3.2"/>
<circle clip-path="url(#clip022)" cx="2289.31" cy="1119.34" r="14" fill="#008000" fill-rule="evenodd" fill-opacity="1" stroke="#000000" stroke-opacity="1" stroke-width="3.2"/>
<path clip-path="url(#clip020)" d="M 0 0 M157.499 389.319 L170.867 389.319 L170.867 343.18 L156.324 346.096 L156.324 338.643 L170.786 335.726 L178.968 335.726 L178.968 389.319 L192.336 389.319 L192.336 396.206 L157.499 396.206 L157.499 389.319 Z" fill="#000000" fill-rule="evenodd" fill-opacity="1" /><path clip-path="url(#clip020)" d="M 0 0 M2279.95 1094.31 L2308.51 1094.31 L2308.51 1101.2 L2270.11 1101.2 L2270.11 1094.31 Q2274.76 1089.49 2282.78 1081.39 Q2290.85 1073.25 2292.91 1070.9 Q2296.84 1066.48 2298.38 1063.44 Q2299.96 1060.36 2299.96 1057.41 Q2299.96 1052.59 2296.56 1049.55 Q2293.2 1046.51 2287.77 1046.51 Q2283.92 1046.51 2279.62 1047.85 Q2275.37 1049.18 2270.51 1051.9 L2270.51 1043.63 Q2275.45 1041.65 2279.75 1040.64 Q2284.04 1039.62 2287.61 1039.62 Q2297 1039.62 2302.59 1044.32 Q2308.18 1049.02 2308.18 1056.88 Q2308.18 1060.61 2306.77 1063.97 Q2305.39 1067.29 2301.7 1071.83 Q2300.69 1073 2295.26 1078.63 Q2289.83 1084.22 2279.95 1094.31 Z" fill="#000000" fill-rule="evenodd" fill-opacity="1" /><path clip-path="url(#clip022)" d="
M1028.3 1377.39 L1435.33 156.305 L174.33 414.35 L1028.3 1377.39  Z
  " fill="#ffc0cb" fill-rule="evenodd" fill-opacity="0.7"/>
<polyline clip-path="url(#clip022)" style="stroke:#000000; stroke-width:4; stroke-opacity:1; fill:none" points="
  1028.3,1377.39 1435.33,156.305 174.33,414.35 1028.3,1377.39 
  "/>
<path clip-path="url(#clip022)" d="
M1028.3 1377.39 L1435.33 156.305 L2289.31 1119.34 L1028.3 1377.39  Z
  " fill="#ffc0cb" fill-rule="evenodd" fill-opacity="0.7"/>
<polyline clip-path="url(#clip022)" style="stroke:#000000; stroke-width:4; stroke-opacity:1; fill:none" points="
  1028.3,1377.39 1435.33,156.305 2289.31,1119.34 1028.3,1377.39 
  "/>
</svg>
