<?xml version="1.0" encoding="utf-8"?>
<svg xmlns="http://www.w3.org/2000/svg" xmlns:xlink="http://www.w3.org/1999/xlink" width="600" height="400" viewBox="0 0 2400 1600">
<defs>
  <clipPath id="clip830">
    <rect x="0" y="0" width="2400" height="1600"/>
  </clipPath>
</defs>
<path clip-path="url(#clip830)" d="
M0 1600 L2400 1600 L2400 0 L0 0  Z
  " fill="#ffffff" fill-rule="evenodd" fill-opacity="1"/>
<defs>
  <clipPath id="clip831">
    <rect x="480" y="0" width="1681" height="1600"/>
  </clipPath>
</defs>
<path clip-path="url(#clip830)" d="
M86.9921 1521.01 L2352.76 1521.01 L2352.76 47.2441 L86.9921 47.2441  Z
  " fill="#ffffff" fill-rule="evenodd" fill-opacity="1"/>
<defs>
  <clipPath id="clip832">
    <rect x="86" y="47" width="2267" height="1475"/>
  </clipPath>
</defs>
<polyline clip-path="url(#clip832)" style="stroke:#000000; stroke-width:2; stroke-opacity:0.1; fill:none" points="
  185.495,1521.01 185.495,47.2441 
  "/>
<polyline clip-path="url(#clip832)" style="stroke:#000000; stroke-width:2; stroke-opacity:0.1; fill:none" points="
  536.018,1521.01 536.018,47.2441 
  "/>
<polyline clip-path="url(#clip832)" style="stroke:#000000; stroke-width:2; stroke-opacity:0.1; fill:none" points="
  886.54,1521.01 886.54,47.2441 
  "/>
<polyline clip-path="url(#clip832)" style="stroke:#000000; stroke-width:2; stroke-opacity:0.1; fill:none" points="
  1237.06,1521.01 1237.06,47.2441 
  "/>
<polyline clip-path="url(#clip832)" style="stroke:#000000; stroke-width:2; stroke-opacity:0.1; fill:none" points="
  1587.59,1521.01 1587.59,47.2441 
  "/>
<polyline clip-path="url(#clip832)" style="stroke:#000000; stroke-width:2; stroke-opacity:0.1; fill:none" points="
  1938.11,1521.01 1938.11,47.2441 
  "/>
<polyline clip-path="url(#clip832)" style="stroke:#000000; stroke-width:2; stroke-opacity:0.1; fill:none" points="
  2288.63,1521.01 2288.63,47.2441 
  "/>
<polyline clip-path="url(#clip832)" style="stroke:#000000; stroke-width:2; stroke-opacity:0.1; fill:none" points="
  86.9921,1309.91 2352.76,1309.91 
  "/>
<polyline clip-path="url(#clip832)" style="stroke:#000000; stroke-width:2; stroke-opacity:0.1; fill:none" points="
  86.9921,959.387 2352.76,959.387 
  "/>
<polyline clip-path="url(#clip832)" style="stroke:#000000; stroke-width:2; stroke-opacity:0.1; fill:none" points="
  86.9921,608.865 2352.76,608.865 
  "/>
<polyline clip-path="url(#clip832)" style="stroke:#000000; stroke-width:2; stroke-opacity:0.1; fill:none" points="
  86.9921,258.342 2352.76,258.342 
  "/>
<polyline clip-path="url(#clip830)" style="stroke:#000000; stroke-width:4; stroke-opacity:1; fill:none" points="
  86.9921,1521.01 2352.76,1521.01 
  "/>
<polyline clip-path="url(#clip830)" style="stroke:#000000; stroke-width:4; stroke-opacity:1; fill:none" points="
  86.9921,1521.01 86.9921,47.2441 
  "/>
<polyline clip-path="url(#clip830)" style="stroke:#000000; stroke-width:4; stroke-opacity:1; fill:none" points="
  185.495,1521.01 185.495,1503.32 
  "/>
<polyline clip-path="url(#clip830)" style="stroke:#000000; stroke-width:4; stroke-opacity:1; fill:none" points="
  536.018,1521.01 536.018,1503.32 
  "/>
<polyline clip-path="url(#clip830)" style="stroke:#000000; stroke-width:4; stroke-opacity:1; fill:none" points="
  886.54,1521.01 886.54,1503.32 
  "/>
<polyline clip-path="url(#clip830)" style="stroke:#000000; stroke-width:4; stroke-opacity:1; fill:none" points="
  1237.06,1521.01 1237.06,1503.32 
  "/>
<polyline clip-path="url(#clip830)" style="stroke:#000000; stroke-width:4; stroke-opacity:1; fill:none" points="
  1587.59,1521.01 1587.59,1503.32 
  "/>
<polyline clip-path="url(#clip830)" style="stroke:#000000; stroke-width:4; stroke-opacity:1; fill:none" points="
  1938.11,1521.01 1938.11,1503.32 
  "/>
<polyline clip-path="url(#clip830)" style="stroke:#000000; stroke-width:4; stroke-opacity:1; fill:none" points="
  2288.63,1521.01 2288.63,1503.32 
  "/>
<polyline clip-path="url(#clip830)" style="stroke:#000000; stroke-width:4; stroke-opacity:1; fill:none" points="
  86.9921,1309.91 114.181,1309.91 
  "/>
<polyline clip-path="url(#clip830)" style="stroke:#000000; stroke-width:4; stroke-opacity:1; fill:none" points="
  86.9921,959.387 114.181,959.387 
  "/>
<polyline clip-path="url(#clip830)" style="stroke:#000000; stroke-width:4; stroke-opacity:1; fill:none" points="
  86.9921,608.865 114.181,608.865 
  "/>
<polyline clip-path="url(#clip830)" style="stroke:#000000; stroke-width:4; stroke-opacity:1; fill:none" points="
  86.9921,258.342 114.181,258.342 
  "/>
<path clip-path="url(#clip830)" d="M 0 0 M166.549 1559.6 L179.026 1559.6 L179.026 1563.39 L166.549 1563.39 L166.549 1559.6 Z" fill="#000000" fill-rule="evenodd" fill-opacity="1" /><path clip-path="url(#clip830)" d="M 0 0 M188.123 1570.54 L204.442 1570.54 L204.442 1574.48 L182.498 1574.48 L182.498 1570.54 Q185.16 1567.79 189.743 1563.16 Q194.35 1558.51 195.53 1557.17 Q197.775 1554.64 198.655 1552.91 Q199.558 1551.15 199.558 1549.46 Q199.558 1546.7 197.613 1544.97 Q195.692 1543.23 192.59 1543.23 Q190.391 1543.23 187.938 1543.99 Q185.507 1544.76 182.729 1546.31 L182.729 1541.59 Q185.553 1540.45 188.007 1539.87 Q190.461 1539.29 192.498 1539.29 Q197.868 1539.29 201.062 1541.98 Q204.257 1544.67 204.257 1549.16 Q204.257 1551.29 203.447 1553.21 Q202.66 1555.1 200.553 1557.7 Q199.975 1558.37 196.873 1561.59 Q193.771 1564.78 188.123 1570.54 Z" fill="#000000" fill-rule="evenodd" fill-opacity="1" /><path clip-path="url(#clip830)" d="M 0 0 M516.886 1559.6 L529.363 1559.6 L529.363 1563.39 L516.886 1563.39 L516.886 1559.6 Z" fill="#000000" fill-rule="evenodd" fill-opacity="1" /><path clip-path="url(#clip830)" d="M 0 0 M535.242 1570.54 L542.881 1570.54 L542.881 1544.18 L534.571 1545.85 L534.571 1541.59 L542.835 1539.92 L547.511 1539.92 L547.511 1570.54 L555.15 1570.54 L555.15 1574.48 L535.242 1574.48 L535.242 1570.54 Z" fill="#000000" fill-rule="evenodd" fill-opacity="1" /><path clip-path="url(#clip830)" d="M 0 0 M886.54 1543 Q882.929 1543 881.101 1546.56 Q879.295 1550.11 879.295 1557.23 Q879.295 1564.34 881.101 1567.91 Q882.929 1571.45 886.54 1571.45 Q890.175 1571.45 891.98 1567.91 Q893.809 1564.34 893.809 1557.23 Q893.809 1550.11 891.98 1546.56 Q890.175 1543 886.54 1543 M886.54 1539.29 Q892.351 1539.29 895.406 1543.9 Q898.485 1548.48 898.485 1557.23 Q898.485 1565.96 895.406 1570.57 Q892.351 1575.15 886.54 1575.15 Q880.73 1575.15 877.652 1570.57 Q874.596 1565.96 874.596 1557.23 Q874.596 1548.48 877.652 1543.9 Q880.73 1539.29 886.54 1539.29 Z" fill="#000000" fill-rule="evenodd" fill-opacity="1" /><path clip-path="url(#clip830)" d="M 0 0 M1227.44 1570.54 L1235.08 1570.54 L1235.08 1544.18 L1226.77 1545.85 L1226.77 1541.59 L1235.04 1539.92 L1239.71 1539.92 L1239.71 1570.54 L1247.35 1570.54 L1247.35 1574.48 L1227.44 1574.48 L1227.44 1570.54 Z" fill="#000000" fill-rule="evenodd" fill-opacity="1" /><path clip-path="url(#clip830)" d="M 0 0 M1582.24 1570.54 L1598.56 1570.54 L1598.56 1574.48 L1576.61 1574.48 L1576.61 1570.54 Q1579.28 1567.79 1583.86 1563.16 Q1588.47 1558.51 1589.65 1557.17 Q1591.89 1554.64 1592.77 1552.91 Q1593.67 1551.15 1593.67 1549.46 Q1593.67 1546.7 1591.73 1544.97 Q1589.81 1543.23 1586.71 1543.23 Q1584.51 1543.23 1582.05 1543.99 Q1579.62 1544.76 1576.84 1546.31 L1576.84 1541.59 Q1579.67 1540.45 1582.12 1539.87 Q1584.58 1539.29 1586.61 1539.29 Q1591.98 1539.29 1595.18 1541.98 Q1598.37 1544.67 1598.37 1549.16 Q1598.37 1551.29 1597.56 1553.21 Q1596.78 1555.1 1594.67 1557.7 Q1594.09 1558.37 1590.99 1561.59 Q1587.89 1564.78 1582.24 1570.54 Z" fill="#000000" fill-rule="evenodd" fill-opacity="1" /><path clip-path="url(#clip830)" d="M 0 0 M1942.36 1555.85 Q1945.71 1556.56 1947.59 1558.83 Q1949.49 1561.1 1949.49 1564.43 Q1949.49 1569.55 1945.97 1572.35 Q1942.45 1575.15 1935.97 1575.15 Q1933.79 1575.15 1931.48 1574.71 Q1929.18 1574.29 1926.73 1573.44 L1926.73 1568.92 Q1928.68 1570.06 1930.99 1570.64 Q1933.3 1571.22 1935.83 1571.22 Q1940.23 1571.22 1942.52 1569.48 Q1944.83 1567.74 1944.83 1564.43 Q1944.83 1561.38 1942.68 1559.67 Q1940.55 1557.93 1936.73 1557.93 L1932.7 1557.93 L1932.7 1554.09 L1936.92 1554.09 Q1940.36 1554.09 1942.19 1552.72 Q1944.02 1551.33 1944.02 1548.74 Q1944.02 1546.08 1942.12 1544.67 Q1940.25 1543.23 1936.73 1543.23 Q1934.81 1543.23 1932.61 1543.65 Q1930.41 1544.06 1927.77 1544.94 L1927.77 1540.78 Q1930.43 1540.04 1932.75 1539.67 Q1935.09 1539.29 1937.15 1539.29 Q1942.47 1539.29 1945.57 1541.73 Q1948.68 1544.13 1948.68 1548.25 Q1948.68 1551.12 1947.03 1553.11 Q1945.39 1555.08 1942.36 1555.85 Z" fill="#000000" fill-rule="evenodd" fill-opacity="1" /><path clip-path="url(#clip830)" d="M 0 0 M2291.64 1543.99 L2279.83 1562.44 L2291.64 1562.44 L2291.64 1543.99 M2290.41 1539.92 L2296.29 1539.92 L2296.29 1562.44 L2301.22 1562.44 L2301.22 1566.33 L2296.29 1566.33 L2296.29 1574.48 L2291.64 1574.48 L2291.64 1566.33 L2276.04 1566.33 L2276.04 1561.82 L2290.41 1539.92 Z" fill="#000000" fill-rule="evenodd" fill-opacity="1" /><path clip-path="url(#clip830)" d="M 0 0 M51.0477 1295.71 Q47.4367 1295.71 45.608 1299.27 Q43.8024 1302.81 43.8024 1309.94 Q43.8024 1317.05 45.608 1320.62 Q47.4367 1324.16 51.0477 1324.16 Q54.682 1324.16 56.4875 1320.62 Q58.3162 1317.05 58.3162 1309.94 Q58.3162 1302.81 56.4875 1299.27 Q54.682 1295.71 51.0477 1295.71 M51.0477 1292 Q56.8579 1292 59.9134 1296.61 Q62.9921 1301.19 62.9921 1309.94 Q62.9921 1318.67 59.9134 1323.28 Q56.8579 1327.86 51.0477 1327.86 Q45.2376 1327.86 42.1589 1323.28 Q39.1034 1318.67 39.1034 1309.94 Q39.1034 1301.19 42.1589 1296.61 Q45.2376 1292 51.0477 1292 Z" fill="#000000" fill-rule="evenodd" fill-opacity="1" /><path clip-path="url(#clip830)" d="M 0 0 M43.0848 972.732 L50.7237 972.732 L50.7237 946.366 L42.4135 948.033 L42.4135 943.774 L50.6774 942.107 L55.3533 942.107 L55.3533 972.732 L62.9921 972.732 L62.9921 976.667 L43.0848 976.667 L43.0848 972.732 Z" fill="#000000" fill-rule="evenodd" fill-opacity="1" /><path clip-path="url(#clip830)" d="M 0 0 M46.6728 622.21 L62.9921 622.21 L62.9921 626.145 L41.0478 626.145 L41.0478 622.21 Q43.7098 619.455 48.2931 614.825 Q52.8996 610.173 54.0801 608.83 Q56.3255 606.307 57.2051 604.571 Q58.1079 602.812 58.1079 601.122 Q58.1079 598.367 56.1635 596.631 Q54.2422 594.895 51.1403 594.895 Q48.9413 594.895 46.4876 595.659 Q44.057 596.423 41.2793 597.974 L41.2793 593.251 Q44.1033 592.117 46.557 591.538 Q49.0107 590.96 51.0477 590.96 Q56.4181 590.96 59.6125 593.645 Q62.8069 596.33 62.8069 600.821 Q62.8069 602.95 61.9968 604.872 Q61.2097 606.77 59.1033 609.362 Q58.5246 610.034 55.4227 613.251 Q52.3209 616.446 46.6728 622.21 Z" fill="#000000" fill-rule="evenodd" fill-opacity="1" /><path clip-path="url(#clip830)" d="M 0 0 M55.8625 256.988 Q59.219 257.706 61.094 259.974 Q62.9921 262.243 62.9921 265.576 Q62.9921 270.692 59.4736 273.493 Q55.9551 276.294 49.4737 276.294 Q47.2978 276.294 44.983 275.854 Q42.6913 275.437 40.2376 274.581 L40.2376 270.067 Q42.1821 271.201 44.4969 271.78 Q46.8117 272.358 49.3348 272.358 Q53.7329 272.358 56.0246 270.622 Q58.3394 268.886 58.3394 265.576 Q58.3394 262.52 56.1866 260.807 Q54.057 259.071 50.2376 259.071 L46.2098 259.071 L46.2098 255.229 L50.4227 255.229 Q53.8718 255.229 55.7005 253.863 Q57.5292 252.474 57.5292 249.882 Q57.5292 247.22 55.6311 245.808 Q53.7561 244.372 50.2376 244.372 Q48.3163 244.372 46.1172 244.789 Q43.9182 245.206 41.2793 246.085 L41.2793 241.919 Q43.9413 241.178 46.2561 240.808 Q48.5941 240.437 50.6542 240.437 Q55.9783 240.437 59.0801 242.868 Q62.1819 245.275 62.1819 249.396 Q62.1819 252.266 60.5384 254.257 Q58.8949 256.224 55.8625 256.988 Z" fill="#000000" fill-rule="evenodd" fill-opacity="1" /><circle clip-path="url(#clip832)" cx="886.54" cy="1309.91" r="14" fill="#ff0000" fill-rule="evenodd" fill-opacity="1" stroke="#000000" stroke-opacity="1" stroke-width="3.2"/>
<circle clip-path="url(#clip832)" cx="1237.06" cy="258.342" r="14" fill="#ff0000" fill-rule="evenodd" fill-opacity="1" stroke="#000000" stroke-opacity="1" stroke-width="3.2"/>
<circle clip-path="url(#clip832)" cx="2288.63" cy="608.865" r="14" fill="#ff0000" fill-rule="evenodd" fill-opacity="1" stroke="#000000" stroke-opacity="1" stroke-width="3.2"/>
<path clip-path="url(#clip830)" d="M 0 0 M886.54 1239.35 L875.441 1269.45 L897.68 1269.45 L886.54 1239.35 M881.922 1231.29 L891.199 1231.29 L914.249 1291.77 L905.742 1291.77 L900.233 1276.25 L872.97 1276.25 L867.461 1291.77 L858.832 1291.77 L881.922 1231.29 Z" fill="#000000" fill-rule="evenodd" fill-opacity="1" /><path clip-path="url(#clip830)" d="M 0 0 M1223.8 211.315 L1223.8 233.474 L1236.92 233.474 Q1243.52 233.474 1246.68 230.76 Q1249.88 228.005 1249.88 222.374 Q1249.88 216.703 1246.68 214.029 Q1243.52 211.315 1236.92 211.315 L1223.8 211.315 M1223.8 186.443 L1223.8 204.672 L1235.91 204.672 Q1241.9 204.672 1244.82 202.444 Q1247.78 200.175 1247.78 195.557 Q1247.78 190.98 1244.82 188.711 Q1241.9 186.443 1235.91 186.443 L1223.8 186.443 M1215.61 179.718 L1236.52 179.718 Q1245.87 179.718 1250.94 183.607 Q1256 187.496 1256 194.666 Q1256 200.216 1253.41 203.497 Q1250.82 206.778 1245.79 207.588 Q1251.83 208.885 1255.15 213.017 Q1258.51 217.108 1258.51 223.265 Q1258.51 231.367 1253 235.783 Q1247.49 240.198 1237.33 240.198 L1215.61 240.198 L1215.61 179.718 Z" fill="#000000" fill-rule="evenodd" fill-opacity="1" /><path clip-path="url(#clip830)" d="M 0 0 M2313.02 534.899 L2313.02 543.528 Q2308.89 539.679 2304.19 537.775 Q2299.53 535.871 2294.26 535.871 Q2283.89 535.871 2278.38 542.231 Q2272.87 548.551 2272.87 560.541 Q2272.87 572.492 2278.38 578.852 Q2283.89 585.171 2294.26 585.171 Q2299.53 585.171 2304.19 583.267 Q2308.89 581.363 2313.02 577.515 L2313.02 586.062 Q2308.72 588.979 2303.9 590.437 Q2299.12 591.895 2293.78 591.895 Q2280.04 591.895 2272.14 583.51 Q2264.24 575.084 2264.24 560.541 Q2264.24 545.958 2272.14 537.573 Q2280.04 529.147 2293.78 529.147 Q2299.2 529.147 2303.98 530.605 Q2308.8 532.023 2313.02 534.899 Z" fill="#000000" fill-rule="evenodd" fill-opacity="1" /><path clip-path="url(#clip832)" d="
M886.54 1309.91 L1237.06 258.342 L151.118 480.565 L886.54 1309.91  Z
  " fill="#ffc0cb" fill-rule="evenodd" fill-opacity="0.7"/>
<polyline clip-path="url(#clip832)" style="stroke:#000000; stroke-width:4; stroke-opacity:1; fill:none" points="
  886.54,1309.91 1237.06,258.342 151.118,480.565 886.54,1309.91 
  "/>
<path clip-path="url(#clip832)" d="
M886.54 1309.91 L1237.06 258.342 L2288.63 608.865 L886.54 1309.91  Z
  " fill="#008000" fill-rule="evenodd" fill-opacity="0.2"/>
<polyline clip-path="url(#clip832)" style="stroke:#000000; stroke-width:4; stroke-opacity:1; fill:none" points="
  886.54,1309.91 1237.06,258.342 2288.63,608.865 886.54,1309.91 
  "/>
</svg>
