<?xml version="1.0" encoding="utf-8"?>
<svg xmlns="http://www.w3.org/2000/svg" xmlns:xlink="http://www.w3.org/1999/xlink" width="600" height="400" viewBox="0 0 2400 1600">
<defs>
  <clipPath id="clip050">
    <rect x="0" y="0" width="2400" height="1600"/>
  </clipPath>
</defs>
<path clip-path="url(#clip050)" d="
M0 1600 L2400 1600 L2400 0 L0 0  Z
  " fill="#ffffff" fill-rule="evenodd" fill-opacity="1"/>
<defs>
  <clipPath id="clip051">
    <rect x="480" y="0" width="1681" height="1600"/>
  </clipPath>
</defs>
<path clip-path="url(#clip050)" d="
M110.881 1486.45 L2352.76 1486.45 L2352.76 47.2441 L110.881 47.2441  Z
  " fill="#ffffff" fill-rule="evenodd" fill-opacity="1"/>
<defs>
  <clipPath id="clip052">
    <rect x="110" y="47" width="2243" height="1440"/>
  </clipPath>
</defs>
<polyline clip-path="url(#clip052)" style="stroke:#000000; stroke-width:2; stroke-opacity:0.1; fill:none" points="
  208.346,1486.45 208.346,47.2441 
  "/>
<polyline clip-path="url(#clip052)" style="stroke:#000000; stroke-width:2; stroke-opacity:0.1; fill:none" points="
  555.172,1486.45 555.172,47.2441 
  "/>
<polyline clip-path="url(#clip052)" style="stroke:#000000; stroke-width:2; stroke-opacity:0.1; fill:none" points="
  901.999,1486.45 901.999,47.2441 
  "/>
<polyline clip-path="url(#clip052)" style="stroke:#000000; stroke-width:2; stroke-opacity:0.1; fill:none" points="
  1248.83,1486.45 1248.83,47.2441 
  "/>
<polyline clip-path="url(#clip052)" style="stroke:#000000; stroke-width:2; stroke-opacity:0.1; fill:none" points="
  1595.65,1486.45 1595.65,47.2441 
  "/>
<polyline clip-path="url(#clip052)" style="stroke:#000000; stroke-width:2; stroke-opacity:0.1; fill:none" points="
  1942.48,1486.45 1942.48,47.2441 
  "/>
<polyline clip-path="url(#clip052)" style="stroke:#000000; stroke-width:2; stroke-opacity:0.1; fill:none" points="
  2289.31,1486.45 2289.31,47.2441 
  "/>
<polyline clip-path="url(#clip052)" style="stroke:#000000; stroke-width:2; stroke-opacity:0.1; fill:none" points="
  110.881,1287.09 2352.76,1287.09 
  "/>
<polyline clip-path="url(#clip052)" style="stroke:#000000; stroke-width:2; stroke-opacity:0.1; fill:none" points="
  110.881,940.259 2352.76,940.259 
  "/>
<polyline clip-path="url(#clip052)" style="stroke:#000000; stroke-width:2; stroke-opacity:0.1; fill:none" points="
  110.881,593.433 2352.76,593.433 
  "/>
<polyline clip-path="url(#clip052)" style="stroke:#000000; stroke-width:2; stroke-opacity:0.1; fill:none" points="
  110.881,246.606 2352.76,246.606 
  "/>
<polyline clip-path="url(#clip050)" style="stroke:#000000; stroke-width:4; stroke-opacity:1; fill:none" points="
  110.881,1486.45 2352.76,1486.45 
  "/>
<polyline clip-path="url(#clip050)" style="stroke:#000000; stroke-width:4; stroke-opacity:1; fill:none" points="
  110.881,1486.45 110.881,47.2441 
  "/>
<polyline clip-path="url(#clip050)" style="stroke:#000000; stroke-width:4; stroke-opacity:1; fill:none" points="
  208.346,1486.45 208.346,1469.18 
  "/>
<polyline clip-path="url(#clip050)" style="stroke:#000000; stroke-width:4; stroke-opacity:1; fill:none" points="
  555.172,1486.45 555.172,1469.18 
  "/>
<polyline clip-path="url(#clip050)" style="stroke:#000000; stroke-width:4; stroke-opacity:1; fill:none" points="
  901.999,1486.45 901.999,1469.18 
  "/>
<polyline clip-path="url(#clip050)" style="stroke:#000000; stroke-width:4; stroke-opacity:1; fill:none" points="
  1248.83,1486.45 1248.83,1469.18 
  "/>
<polyline clip-path="url(#clip050)" style="stroke:#000000; stroke-width:4; stroke-opacity:1; fill:none" points="
  1595.65,1486.45 1595.65,1469.18 
  "/>
<polyline clip-path="url(#clip050)" style="stroke:#000000; stroke-width:4; stroke-opacity:1; fill:none" points="
  1942.48,1486.45 1942.48,1469.18 
  "/>
<polyline clip-path="url(#clip050)" style="stroke:#000000; stroke-width:4; stroke-opacity:1; fill:none" points="
  2289.31,1486.45 2289.31,1469.18 
  "/>
<polyline clip-path="url(#clip050)" style="stroke:#000000; stroke-width:4; stroke-opacity:1; fill:none" points="
  110.881,1287.09 137.783,1287.09 
  "/>
<polyline clip-path="url(#clip050)" style="stroke:#000000; stroke-width:4; stroke-opacity:1; fill:none" points="
  110.881,940.259 137.783,940.259 
  "/>
<polyline clip-path="url(#clip050)" style="stroke:#000000; stroke-width:4; stroke-opacity:1; fill:none" points="
  110.881,593.433 137.783,593.433 
  "/>
<polyline clip-path="url(#clip050)" style="stroke:#000000; stroke-width:4; stroke-opacity:1; fill:none" points="
  110.881,246.606 137.783,246.606 
  "/>
<path clip-path="url(#clip050)" d="M 0 0 M189.399 1525.04 L201.876 1525.04 L201.876 1528.83 L189.399 1528.83 L189.399 1525.04 Z" fill="#000000" fill-rule="evenodd" fill-opacity="1" /><path clip-path="url(#clip050)" d="M 0 0 M210.973 1535.98 L227.292 1535.98 L227.292 1539.92 L205.348 1539.92 L205.348 1535.98 Q208.01 1533.23 212.593 1528.6 Q217.2 1523.95 218.38 1522.61 Q220.626 1520.08 221.505 1518.35 Q222.408 1516.59 222.408 1514.9 Q222.408 1512.14 220.464 1510.41 Q218.542 1508.67 215.441 1508.67 Q213.241 1508.67 210.788 1509.43 Q208.357 1510.2 205.579 1511.75 L205.579 1507.03 Q208.404 1505.89 210.857 1505.31 Q213.311 1504.73 215.348 1504.73 Q220.718 1504.73 223.913 1507.42 Q227.107 1510.11 227.107 1514.6 Q227.107 1516.73 226.297 1518.65 Q225.51 1520.54 223.403 1523.14 Q222.825 1523.81 219.723 1527.03 Q216.621 1530.22 210.973 1535.98 Z" fill="#000000" fill-rule="evenodd" fill-opacity="1" /><path clip-path="url(#clip050)" d="M 0 0 M536.041 1525.04 L548.517 1525.04 L548.517 1528.83 L536.041 1528.83 L536.041 1525.04 Z" fill="#000000" fill-rule="evenodd" fill-opacity="1" /><path clip-path="url(#clip050)" d="M 0 0 M554.397 1535.98 L562.036 1535.98 L562.036 1509.62 L553.726 1511.29 L553.726 1507.03 L561.99 1505.36 L566.665 1505.36 L566.665 1535.98 L574.304 1535.98 L574.304 1539.92 L554.397 1539.92 L554.397 1535.98 Z" fill="#000000" fill-rule="evenodd" fill-opacity="1" /><path clip-path="url(#clip050)" d="M 0 0 M901.999 1508.44 Q898.388 1508.44 896.56 1512 Q894.754 1515.55 894.754 1522.67 Q894.754 1529.78 896.56 1533.35 Q898.388 1536.89 901.999 1536.89 Q905.634 1536.89 907.439 1533.35 Q909.268 1529.78 909.268 1522.67 Q909.268 1515.55 907.439 1512 Q905.634 1508.44 901.999 1508.44 M901.999 1504.73 Q907.809 1504.73 910.865 1509.34 Q913.944 1513.92 913.944 1522.67 Q913.944 1531.4 910.865 1536.01 Q907.809 1540.59 901.999 1540.59 Q896.189 1540.59 893.11 1536.01 Q890.055 1531.4 890.055 1522.67 Q890.055 1513.92 893.11 1509.34 Q896.189 1504.73 901.999 1504.73 Z" fill="#000000" fill-rule="evenodd" fill-opacity="1" /><path clip-path="url(#clip050)" d="M 0 0 M1239.21 1535.98 L1246.85 1535.98 L1246.85 1509.62 L1238.54 1511.29 L1238.54 1507.03 L1246.8 1505.36 L1251.48 1505.36 L1251.48 1535.98 L1259.12 1535.98 L1259.12 1539.92 L1239.21 1539.92 L1239.21 1535.98 Z" fill="#000000" fill-rule="evenodd" fill-opacity="1" /><path clip-path="url(#clip050)" d="M 0 0 M1590.31 1535.98 L1606.63 1535.98 L1606.63 1539.92 L1584.68 1539.92 L1584.68 1535.98 Q1587.34 1533.23 1591.93 1528.6 Q1596.53 1523.95 1597.71 1522.61 Q1599.96 1520.08 1600.84 1518.35 Q1601.74 1516.59 1601.74 1514.9 Q1601.74 1512.14 1599.8 1510.41 Q1597.88 1508.67 1594.77 1508.67 Q1592.57 1508.67 1590.12 1509.43 Q1587.69 1510.2 1584.91 1511.75 L1584.91 1507.03 Q1587.74 1505.89 1590.19 1505.31 Q1592.64 1504.73 1594.68 1504.73 Q1600.05 1504.73 1603.25 1507.42 Q1606.44 1510.11 1606.44 1514.6 Q1606.44 1516.73 1605.63 1518.65 Q1604.84 1520.54 1602.74 1523.14 Q1602.16 1523.81 1599.06 1527.03 Q1595.95 1530.22 1590.31 1535.98 Z" fill="#000000" fill-rule="evenodd" fill-opacity="1" /><path clip-path="url(#clip050)" d="M 0 0 M1946.73 1521.29 Q1950.08 1522 1951.96 1524.27 Q1953.86 1526.54 1953.86 1529.87 Q1953.86 1534.99 1950.34 1537.79 Q1946.82 1540.59 1940.34 1540.59 Q1938.16 1540.59 1935.85 1540.15 Q1933.56 1539.73 1931.1 1538.88 L1931.1 1534.36 Q1933.05 1535.5 1935.36 1536.08 Q1937.68 1536.66 1940.2 1536.66 Q1944.6 1536.66 1946.89 1534.92 Q1949.2 1533.18 1949.2 1529.87 Q1949.2 1526.82 1947.05 1525.11 Q1944.92 1523.37 1941.1 1523.37 L1937.07 1523.37 L1937.07 1519.53 L1941.29 1519.53 Q1944.74 1519.53 1946.57 1518.16 Q1948.39 1516.77 1948.39 1514.18 Q1948.39 1511.52 1946.5 1510.11 Q1944.62 1508.67 1941.1 1508.67 Q1939.18 1508.67 1936.98 1509.09 Q1934.78 1509.5 1932.14 1510.38 L1932.14 1506.22 Q1934.81 1505.48 1937.12 1505.11 Q1939.46 1504.73 1941.52 1504.73 Q1946.84 1504.73 1949.95 1507.17 Q1953.05 1509.57 1953.05 1513.69 Q1953.05 1516.56 1951.4 1518.55 Q1949.76 1520.52 1946.73 1521.29 Z" fill="#000000" fill-rule="evenodd" fill-opacity="1" /><path clip-path="url(#clip050)" d="M 0 0 M2292.32 1509.43 L2280.51 1527.88 L2292.32 1527.88 L2292.32 1509.43 M2291.09 1505.36 L2296.97 1505.36 L2296.97 1527.88 L2301.9 1527.88 L2301.9 1531.77 L2296.97 1531.77 L2296.97 1539.92 L2292.32 1539.92 L2292.32 1531.77 L2276.71 1531.77 L2276.71 1527.26 L2291.09 1505.36 Z" fill="#000000" fill-rule="evenodd" fill-opacity="1" /><path clip-path="url(#clip050)" d="M 0 0 M74.9365 1272.88 Q71.3254 1272.88 69.4967 1276.45 Q67.6912 1279.99 67.6912 1287.12 Q67.6912 1294.23 69.4967 1297.79 Q71.3254 1301.33 74.9365 1301.33 Q78.5707 1301.33 80.3763 1297.79 Q82.205 1294.23 82.205 1287.12 Q82.205 1279.99 80.3763 1276.45 Q78.5707 1272.88 74.9365 1272.88 M74.9365 1269.18 Q80.7467 1269.18 83.8022 1273.79 Q86.8809 1278.37 86.8809 1287.12 Q86.8809 1295.85 83.8022 1300.45 Q80.7467 1305.04 74.9365 1305.04 Q69.1264 1305.04 66.0477 1300.45 Q62.9921 1295.85 62.9921 1287.12 Q62.9921 1278.37 66.0477 1273.79 Q69.1264 1269.18 74.9365 1269.18 Z" fill="#000000" fill-rule="evenodd" fill-opacity="1" /><path clip-path="url(#clip050)" d="M 0 0 M66.9736 953.604 L74.6124 953.604 L74.6124 927.239 L66.3023 928.905 L66.3023 924.646 L74.5661 922.979 L79.242 922.979 L79.242 953.604 L86.8809 953.604 L86.8809 957.539 L66.9736 957.539 L66.9736 953.604 Z" fill="#000000" fill-rule="evenodd" fill-opacity="1" /><path clip-path="url(#clip050)" d="M 0 0 M70.5615 606.777 L86.8809 606.777 L86.8809 610.713 L64.9366 610.713 L64.9366 606.777 Q67.5986 604.023 72.1819 599.393 Q76.7883 594.74 77.9689 593.398 Q80.2143 590.875 81.0939 589.139 Q81.9967 587.379 81.9967 585.69 Q81.9967 582.935 80.0522 581.199 Q78.1309 579.463 75.0291 579.463 Q72.83 579.463 70.3763 580.227 Q67.9458 580.991 65.168 582.541 L65.168 577.819 Q67.9921 576.685 70.4458 576.106 Q72.8995 575.528 74.9365 575.528 Q80.3068 575.528 83.5013 578.213 Q86.6957 580.898 86.6957 585.389 Q86.6957 587.518 85.8855 589.44 Q85.0985 591.338 82.992 593.93 Q82.4133 594.602 79.3115 597.819 Q76.2096 601.014 70.5615 606.777 Z" fill="#000000" fill-rule="evenodd" fill-opacity="1" /><path clip-path="url(#clip050)" d="M 0 0 M79.7513 245.252 Q83.1078 245.969 84.9827 248.238 Q86.8809 250.506 86.8809 253.839 Q86.8809 258.955 83.3624 261.756 Q79.8439 264.557 73.3624 264.557 Q71.1865 264.557 68.8717 264.117 Q66.5801 263.701 64.1264 262.844 L64.1264 258.33 Q66.0708 259.464 68.3856 260.043 Q70.7004 260.622 73.2236 260.622 Q77.6217 260.622 79.9133 258.886 Q82.2281 257.15 82.2281 253.839 Q82.2281 250.784 80.0754 249.071 Q77.9457 247.335 74.1263 247.335 L70.0986 247.335 L70.0986 243.492 L74.3115 243.492 Q77.7606 243.492 79.5893 242.127 Q81.418 240.738 81.418 238.145 Q81.418 235.483 79.5198 234.071 Q77.6448 232.636 74.1263 232.636 Q72.205 232.636 70.006 233.053 Q67.8069 233.469 65.168 234.349 L65.168 230.182 Q67.8301 229.441 70.1449 229.071 Q72.4828 228.701 74.543 228.701 Q79.867 228.701 82.9689 231.131 Q86.0707 233.539 86.0707 237.659 Q86.0707 240.529 84.4272 242.52 Q82.7837 244.488 79.7513 245.252 Z" fill="#000000" fill-rule="evenodd" fill-opacity="1" /><circle clip-path="url(#clip052)" cx="901.999" cy="1287.09" r="14" fill="#ff0000" fill-rule="evenodd" fill-opacity="1" stroke="#000000" stroke-opacity="1" stroke-width="3.2"/>
<circle clip-path="url(#clip052)" cx="1248.83" cy="246.606" r="14" fill="#ff0000" fill-rule="evenodd" fill-opacity="1" stroke="#000000" stroke-opacity="1" stroke-width="3.2"/>
<circle clip-path="url(#clip052)" cx="2289.31" cy="593.433" r="14" fill="#ff0000" fill-rule="evenodd" fill-opacity="1" stroke="#000000" stroke-opacity="1" stroke-width="3.2"/>
<path clip-path="url(#clip050)" d="M 0 0 M901.999 1216.52 L890.9 1246.62 L913.139 1246.62 L901.999 1216.52 M897.381 1208.46 L906.658 1208.46 L929.707 1268.94 L921.201 1268.94 L915.691 1253.43 L888.429 1253.43 L882.92 1268.94 L874.291 1268.94 L897.381 1208.46 Z" fill="#000000" fill-rule="evenodd" fill-opacity="1" /><path clip-path="url(#clip050)" d="M 0 0 M1235.56 199.579 L1235.56 221.737 L1248.68 221.737 Q1255.29 221.737 1258.45 219.023 Q1261.65 216.269 1261.65 210.638 Q1261.65 204.966 1258.45 202.293 Q1255.29 199.579 1248.68 199.579 L1235.56 199.579 M1235.56 174.706 L1235.56 192.935 L1247.67 192.935 Q1253.67 192.935 1256.58 190.707 Q1259.54 188.439 1259.54 183.821 Q1259.54 179.243 1256.58 176.975 Q1253.67 174.706 1247.67 174.706 L1235.56 174.706 M1227.38 167.982 L1248.28 167.982 Q1257.64 167.982 1262.7 171.871 Q1267.76 175.759 1267.76 182.93 Q1267.76 188.479 1265.17 191.761 Q1262.58 195.042 1257.56 195.852 Q1263.59 197.148 1266.91 201.28 Q1270.28 205.372 1270.28 211.529 Q1270.28 219.631 1264.77 224.046 Q1259.26 228.462 1249.09 228.462 L1227.38 228.462 L1227.38 167.982 Z" fill="#000000" fill-rule="evenodd" fill-opacity="1" /><path clip-path="url(#clip050)" d="M 0 0 M2313.69 519.467 L2313.69 528.096 Q2309.56 524.247 2304.86 522.343 Q2300.2 520.439 2294.94 520.439 Q2284.57 520.439 2279.06 526.799 Q2273.55 533.119 2273.55 545.109 Q2273.55 557.06 2279.06 563.419 Q2284.57 569.739 2294.94 569.739 Q2300.2 569.739 2304.86 567.835 Q2309.56 565.931 2313.69 562.083 L2313.69 570.63 Q2309.4 573.547 2304.58 575.005 Q2299.8 576.463 2294.45 576.463 Q2280.72 576.463 2272.82 568.078 Q2264.92 559.652 2264.92 545.109 Q2264.92 530.526 2272.82 522.141 Q2280.72 513.715 2294.45 513.715 Q2299.88 513.715 2304.66 515.173 Q2309.48 516.591 2313.69 519.467 Z" fill="#000000" fill-rule="evenodd" fill-opacity="1" /><path clip-path="url(#clip052)" d="
M901.999 1287.09 L1248.83 246.606 L174.33 466.485 L901.999 1287.09  Z
  " fill="#ffc0cb" fill-rule="evenodd" fill-opacity="0.7"/>
<polyline clip-path="url(#clip052)" style="stroke:#000000; stroke-width:4; stroke-opacity:1; fill:none" points="
  901.999,1287.09 1248.83,246.606 174.33,466.485 901.999,1287.09 
  "/>
<path clip-path="url(#clip052)" d="
M901.999 1287.09 L1248.83 246.606 L2289.31 593.433 L901.999 1287.09  Z
  " fill="#008000" fill-rule="evenodd" fill-opacity="0.2"/>
<polyline clip-path="url(#clip052)" style="stroke:#000000; stroke-width:4; stroke-opacity:1; fill:none" points="
  901.999,1287.09 1248.83,246.606 2289.31,593.433 901.999,1287.09 
  "/>
</svg>
