<?xml version="1.0" encoding="utf-8"?>
<svg xmlns="http://www.w3.org/2000/svg" xmlns:xlink="http://www.w3.org/1999/xlink" width="600" height="400" viewBox="0 0 2400 1600">
<defs>
  <clipPath id="clip860">
    <rect x="0" y="0" width="2400" height="1600"/>
  </clipPath>
</defs>
<path clip-path="url(#clip860)" d="
M0 1600 L2400 1600 L2400 0 L0 0  Z
  " fill="#ffffff" fill-rule="evenodd" fill-opacity="1"/>
<defs>
  <clipPath id="clip861">
    <rect x="480" y="0" width="1681" height="1600"/>
  </clipPath>
</defs>
<path clip-path="url(#clip860)" d="
M86.9921 1521.01 L2352.76 1521.01 L2352.76 47.2441 L86.9921 47.2441  Z
  " fill="#ffffff" fill-rule="evenodd" fill-opacity="1"/>
<defs>
  <clipPath id="clip862">
    <rect x="86" y="47" width="2267" height="1475"/>
  </clipPath>
</defs>
<polyline clip-path="url(#clip862)" style="stroke:#000000; stroke-width:2; stroke-opacity:0.1; fill:none" points="
  125.761,1521.01 125.761,47.2441 
  "/>
<polyline clip-path="url(#clip862)" style="stroke:#000000; stroke-width:2; stroke-opacity:0.1; fill:none" points="
  585.398,1521.01 585.398,47.2441 
  "/>
<polyline clip-path="url(#clip862)" style="stroke:#000000; stroke-width:2; stroke-opacity:0.1; fill:none" points="
  1045.04,1521.01 1045.04,47.2441 
  "/>
<polyline clip-path="url(#clip862)" style="stroke:#000000; stroke-width:2; stroke-opacity:0.1; fill:none" points="
  1504.67,1521.01 1504.67,47.2441 
  "/>
<polyline clip-path="url(#clip862)" style="stroke:#000000; stroke-width:2; stroke-opacity:0.1; fill:none" points="
  1964.31,1521.01 1964.31,47.2441 
  "/>
<polyline clip-path="url(#clip862)" style="stroke:#000000; stroke-width:2; stroke-opacity:0.1; fill:none" points="
  86.9921,1393.97 2352.76,1393.97 
  "/>
<polyline clip-path="url(#clip862)" style="stroke:#000000; stroke-width:2; stroke-opacity:0.1; fill:none" points="
  86.9921,1026.26 2352.76,1026.26 
  "/>
<polyline clip-path="url(#clip862)" style="stroke:#000000; stroke-width:2; stroke-opacity:0.1; fill:none" points="
  86.9921,658.551 2352.76,658.551 
  "/>
<polyline clip-path="url(#clip862)" style="stroke:#000000; stroke-width:2; stroke-opacity:0.1; fill:none" points="
  86.9921,290.841 2352.76,290.841 
  "/>
<polyline clip-path="url(#clip860)" style="stroke:#000000; stroke-width:4; stroke-opacity:1; fill:none" points="
  86.9921,1521.01 2352.76,1521.01 
  "/>
<polyline clip-path="url(#clip860)" style="stroke:#000000; stroke-width:4; stroke-opacity:1; fill:none" points="
  86.9921,1521.01 86.9921,47.2441 
  "/>
<polyline clip-path="url(#clip860)" style="stroke:#000000; stroke-width:4; stroke-opacity:1; fill:none" points="
  125.761,1521.01 125.761,1503.32 
  "/>
<polyline clip-path="url(#clip860)" style="stroke:#000000; stroke-width:4; stroke-opacity:1; fill:none" points="
  585.398,1521.01 585.398,1503.32 
  "/>
<polyline clip-path="url(#clip860)" style="stroke:#000000; stroke-width:4; stroke-opacity:1; fill:none" points="
  1045.04,1521.01 1045.04,1503.32 
  "/>
<polyline clip-path="url(#clip860)" style="stroke:#000000; stroke-width:4; stroke-opacity:1; fill:none" points="
  1504.67,1521.01 1504.67,1503.32 
  "/>
<polyline clip-path="url(#clip860)" style="stroke:#000000; stroke-width:4; stroke-opacity:1; fill:none" points="
  1964.31,1521.01 1964.31,1503.32 
  "/>
<polyline clip-path="url(#clip860)" style="stroke:#000000; stroke-width:4; stroke-opacity:1; fill:none" points="
  86.9921,1393.97 114.181,1393.97 
  "/>
<polyline clip-path="url(#clip860)" style="stroke:#000000; stroke-width:4; stroke-opacity:1; fill:none" points="
  86.9921,1026.26 114.181,1026.26 
  "/>
<polyline clip-path="url(#clip860)" style="stroke:#000000; stroke-width:4; stroke-opacity:1; fill:none" points="
  86.9921,658.551 114.181,658.551 
  "/>
<polyline clip-path="url(#clip860)" style="stroke:#000000; stroke-width:4; stroke-opacity:1; fill:none" points="
  86.9921,290.841 114.181,290.841 
  "/>
<path clip-path="url(#clip860)" d="M 0 0 M88.0294 1559.6 L100.506 1559.6 L100.506 1563.39 L88.0294 1563.39 L88.0294 1559.6 Z" fill="#000000" fill-rule="evenodd" fill-opacity="1" /><path clip-path="url(#clip860)" d="M 0 0 M105.622 1539.92 L123.978 1539.92 L123.978 1543.86 L109.904 1543.86 L109.904 1552.33 Q110.923 1551.98 111.941 1551.82 Q112.96 1551.63 113.978 1551.63 Q119.765 1551.63 123.145 1554.8 Q126.525 1557.98 126.525 1563.39 Q126.525 1568.97 123.052 1572.07 Q119.58 1575.15 113.261 1575.15 Q111.085 1575.15 108.816 1574.78 Q106.571 1574.41 104.164 1573.67 L104.164 1568.97 Q106.247 1570.1 108.469 1570.66 Q110.691 1571.22 113.168 1571.22 Q117.173 1571.22 119.511 1569.11 Q121.849 1567 121.849 1563.39 Q121.849 1559.78 119.511 1557.67 Q117.173 1555.57 113.168 1555.57 Q111.293 1555.57 109.418 1555.98 Q107.566 1556.4 105.622 1557.28 L105.622 1539.92 Z" fill="#000000" fill-rule="evenodd" fill-opacity="1" /><path clip-path="url(#clip860)" d="M 0 0 M131.594 1568.6 L136.478 1568.6 L136.478 1574.48 L131.594 1574.48 L131.594 1568.6 Z" fill="#000000" fill-rule="evenodd" fill-opacity="1" /><path clip-path="url(#clip860)" d="M 0 0 M151.548 1543 Q147.937 1543 146.108 1546.56 Q144.302 1550.11 144.302 1557.23 Q144.302 1564.34 146.108 1567.91 Q147.937 1571.45 151.548 1571.45 Q155.182 1571.45 156.987 1567.91 Q158.816 1564.34 158.816 1557.23 Q158.816 1550.11 156.987 1546.56 Q155.182 1543 151.548 1543 M151.548 1539.29 Q157.358 1539.29 160.413 1543.9 Q163.492 1548.48 163.492 1557.23 Q163.492 1565.96 160.413 1570.57 Q157.358 1575.15 151.548 1575.15 Q145.737 1575.15 142.659 1570.57 Q139.603 1565.96 139.603 1557.23 Q139.603 1548.48 142.659 1543.9 Q145.737 1539.29 151.548 1539.29 Z" fill="#000000" fill-rule="evenodd" fill-opacity="1" /><path clip-path="url(#clip860)" d="M 0 0 M548.465 1559.6 L560.942 1559.6 L560.942 1563.39 L548.465 1563.39 L548.465 1559.6 Z" fill="#000000" fill-rule="evenodd" fill-opacity="1" /><path clip-path="url(#clip860)" d="M 0 0 M570.039 1570.54 L586.359 1570.54 L586.359 1574.48 L564.414 1574.48 L564.414 1570.54 Q567.076 1567.79 571.66 1563.16 Q576.266 1558.51 577.447 1557.17 Q579.692 1554.64 580.572 1552.91 Q581.474 1551.15 581.474 1549.46 Q581.474 1546.7 579.53 1544.97 Q577.609 1543.23 574.507 1543.23 Q572.308 1543.23 569.854 1543.99 Q567.423 1544.76 564.646 1546.31 L564.646 1541.59 Q567.47 1540.45 569.923 1539.87 Q572.377 1539.29 574.414 1539.29 Q579.784 1539.29 582.979 1541.98 Q586.173 1544.67 586.173 1549.16 Q586.173 1551.29 585.363 1553.21 Q584.576 1555.1 582.47 1557.7 Q581.891 1558.37 578.789 1561.59 Q575.687 1564.78 570.039 1570.54 Z" fill="#000000" fill-rule="evenodd" fill-opacity="1" /><path clip-path="url(#clip860)" d="M 0 0 M591.428 1568.6 L596.312 1568.6 L596.312 1574.48 L591.428 1574.48 L591.428 1568.6 Z" fill="#000000" fill-rule="evenodd" fill-opacity="1" /><path clip-path="url(#clip860)" d="M 0 0 M601.428 1539.92 L619.784 1539.92 L619.784 1543.86 L605.71 1543.86 L605.71 1552.33 Q606.729 1551.98 607.747 1551.82 Q608.766 1551.63 609.784 1551.63 Q615.571 1551.63 618.951 1554.8 Q622.331 1557.98 622.331 1563.39 Q622.331 1568.97 618.858 1572.07 Q615.386 1575.15 609.067 1575.15 Q606.891 1575.15 604.622 1574.78 Q602.377 1574.41 599.97 1573.67 L599.97 1568.97 Q602.053 1570.1 604.275 1570.66 Q606.497 1571.22 608.974 1571.22 Q612.979 1571.22 615.317 1569.11 Q617.655 1567 617.655 1563.39 Q617.655 1559.78 615.317 1557.67 Q612.979 1555.57 608.974 1555.57 Q607.099 1555.57 605.224 1555.98 Q603.372 1556.4 601.428 1557.28 L601.428 1539.92 Z" fill="#000000" fill-rule="evenodd" fill-opacity="1" /><path clip-path="url(#clip860)" d="M 0 0 M1026.55 1543 Q1022.94 1543 1021.11 1546.56 Q1019.31 1550.11 1019.31 1557.23 Q1019.31 1564.34 1021.11 1567.91 Q1022.94 1571.45 1026.55 1571.45 Q1030.19 1571.45 1031.99 1567.91 Q1033.82 1564.34 1033.82 1557.23 Q1033.82 1550.11 1031.99 1546.56 Q1030.19 1543 1026.55 1543 M1026.55 1539.29 Q1032.36 1539.29 1035.42 1543.9 Q1038.5 1548.48 1038.5 1557.23 Q1038.5 1565.96 1035.42 1570.57 Q1032.36 1575.15 1026.55 1575.15 Q1020.74 1575.15 1017.66 1570.57 Q1014.61 1565.96 1014.61 1557.23 Q1014.61 1548.48 1017.66 1543.9 Q1020.74 1539.29 1026.55 1539.29 Z" fill="#000000" fill-rule="evenodd" fill-opacity="1" /><path clip-path="url(#clip860)" d="M 0 0 M1043.57 1568.6 L1048.45 1568.6 L1048.45 1574.48 L1043.57 1574.48 L1043.57 1568.6 Z" fill="#000000" fill-rule="evenodd" fill-opacity="1" /><path clip-path="url(#clip860)" d="M 0 0 M1063.52 1543 Q1059.91 1543 1058.08 1546.56 Q1056.27 1550.11 1056.27 1557.23 Q1056.27 1564.34 1058.08 1567.91 Q1059.91 1571.45 1063.52 1571.45 Q1067.15 1571.45 1068.96 1567.91 Q1070.79 1564.34 1070.79 1557.23 Q1070.79 1550.11 1068.96 1546.56 Q1067.15 1543 1063.52 1543 M1063.52 1539.29 Q1069.33 1539.29 1072.38 1543.9 Q1075.46 1548.48 1075.46 1557.23 Q1075.46 1565.96 1072.38 1570.57 Q1069.33 1575.15 1063.52 1575.15 Q1057.71 1575.15 1054.63 1570.57 Q1051.57 1565.96 1051.57 1557.23 Q1051.57 1548.48 1054.63 1543.9 Q1057.71 1539.29 1063.52 1539.29 Z" fill="#000000" fill-rule="evenodd" fill-opacity="1" /><path clip-path="url(#clip860)" d="M 0 0 M1481.34 1570.54 L1497.66 1570.54 L1497.66 1574.48 L1475.71 1574.48 L1475.71 1570.54 Q1478.38 1567.79 1482.96 1563.16 Q1487.57 1558.51 1488.75 1557.17 Q1490.99 1554.64 1491.87 1552.91 Q1492.77 1551.15 1492.77 1549.46 Q1492.77 1546.7 1490.83 1544.97 Q1488.91 1543.23 1485.81 1543.23 Q1483.61 1543.23 1481.15 1543.99 Q1478.72 1544.76 1475.95 1546.31 L1475.95 1541.59 Q1478.77 1540.45 1481.22 1539.87 Q1483.68 1539.29 1485.71 1539.29 Q1491.08 1539.29 1494.28 1541.98 Q1497.47 1544.67 1497.47 1549.16 Q1497.47 1551.29 1496.66 1553.21 Q1495.88 1555.1 1493.77 1557.7 Q1493.19 1558.37 1490.09 1561.59 Q1486.99 1564.78 1481.34 1570.54 Z" fill="#000000" fill-rule="evenodd" fill-opacity="1" /><path clip-path="url(#clip860)" d="M 0 0 M1502.73 1568.6 L1507.61 1568.6 L1507.61 1574.48 L1502.73 1574.48 L1502.73 1568.6 Z" fill="#000000" fill-rule="evenodd" fill-opacity="1" /><path clip-path="url(#clip860)" d="M 0 0 M1512.73 1539.92 L1531.08 1539.92 L1531.08 1543.86 L1517.01 1543.86 L1517.01 1552.33 Q1518.03 1551.98 1519.05 1551.82 Q1520.07 1551.63 1521.08 1551.63 Q1526.87 1551.63 1530.25 1554.8 Q1533.63 1557.98 1533.63 1563.39 Q1533.63 1568.97 1530.16 1572.07 Q1526.69 1575.15 1520.37 1575.15 Q1518.19 1575.15 1515.92 1574.78 Q1513.68 1574.41 1511.27 1573.67 L1511.27 1568.97 Q1513.35 1570.1 1515.57 1570.66 Q1517.8 1571.22 1520.27 1571.22 Q1524.28 1571.22 1526.62 1569.11 Q1528.95 1567 1528.95 1563.39 Q1528.95 1559.78 1526.62 1557.67 Q1524.28 1555.57 1520.27 1555.57 Q1518.4 1555.57 1516.52 1555.98 Q1514.67 1556.4 1512.73 1557.28 L1512.73 1539.92 Z" fill="#000000" fill-rule="evenodd" fill-opacity="1" /><path clip-path="url(#clip860)" d="M 0 0 M1936.1 1539.92 L1954.46 1539.92 L1954.46 1543.86 L1940.39 1543.86 L1940.39 1552.33 Q1941.4 1551.98 1942.42 1551.82 Q1943.44 1551.63 1944.46 1551.63 Q1950.25 1551.63 1953.63 1554.8 Q1957.01 1557.98 1957.01 1563.39 Q1957.01 1568.97 1953.53 1572.07 Q1950.06 1575.15 1943.74 1575.15 Q1941.57 1575.15 1939.3 1574.78 Q1937.05 1574.41 1934.65 1573.67 L1934.65 1568.97 Q1936.73 1570.1 1938.95 1570.66 Q1941.17 1571.22 1943.65 1571.22 Q1947.65 1571.22 1949.99 1569.11 Q1952.33 1567 1952.33 1563.39 Q1952.33 1559.78 1949.99 1557.67 Q1947.65 1555.57 1943.65 1555.57 Q1941.77 1555.57 1939.9 1555.98 Q1938.05 1556.4 1936.1 1557.28 L1936.1 1539.92 Z" fill="#000000" fill-rule="evenodd" fill-opacity="1" /><path clip-path="url(#clip860)" d="M 0 0 M1962.08 1568.6 L1966.96 1568.6 L1966.96 1574.48 L1962.08 1574.48 L1962.08 1568.6 Z" fill="#000000" fill-rule="evenodd" fill-opacity="1" /><path clip-path="url(#clip860)" d="M 0 0 M1982.03 1543 Q1978.42 1543 1976.59 1546.56 Q1974.78 1550.11 1974.78 1557.23 Q1974.78 1564.34 1976.59 1567.91 Q1978.42 1571.45 1982.03 1571.45 Q1985.66 1571.45 1987.47 1567.91 Q1989.3 1564.34 1989.3 1557.23 Q1989.3 1550.11 1987.47 1546.56 Q1985.66 1543 1982.03 1543 M1982.03 1539.29 Q1987.84 1539.29 1990.89 1543.9 Q1993.97 1548.48 1993.97 1557.23 Q1993.97 1565.96 1990.89 1570.57 Q1987.84 1575.15 1982.03 1575.15 Q1976.22 1575.15 1973.14 1570.57 Q1970.08 1565.96 1970.08 1557.23 Q1970.08 1548.48 1973.14 1543.9 Q1976.22 1539.29 1982.03 1539.29 Z" fill="#000000" fill-rule="evenodd" fill-opacity="1" /><path clip-path="url(#clip860)" d="M 0 0 M25.0988 1396.37 L37.5756 1396.37 L37.5756 1400.16 L25.0988 1400.16 L25.0988 1396.37 Z" fill="#000000" fill-rule="evenodd" fill-opacity="1" /><path clip-path="url(#clip860)" d="M 0 0 M46.6728 1407.32 L62.9921 1407.32 L62.9921 1411.25 L41.0478 1411.25 L41.0478 1407.32 Q43.7098 1404.56 48.2931 1399.93 Q52.8996 1395.28 54.0801 1393.94 Q56.3255 1391.41 57.2051 1389.68 Q58.1079 1387.92 58.1079 1386.23 Q58.1079 1383.47 56.1635 1381.74 Q54.2422 1380 51.1403 1380 Q48.9413 1380 46.4876 1380.76 Q44.057 1381.53 41.2793 1383.08 L41.2793 1378.36 Q44.1033 1377.22 46.557 1376.64 Q49.0107 1376.07 51.0477 1376.07 Q56.4181 1376.07 59.6125 1378.75 Q62.8069 1381.44 62.8069 1385.93 Q62.8069 1388.06 61.9968 1389.98 Q61.2097 1391.88 59.1033 1394.47 Q58.5246 1395.14 55.4227 1398.36 Q52.3209 1401.55 46.6728 1407.32 Z" fill="#000000" fill-rule="evenodd" fill-opacity="1" /><path clip-path="url(#clip860)" d="M 0 0 M51.0477 1012.06 Q47.4367 1012.06 45.608 1015.62 Q43.8024 1019.17 43.8024 1026.3 Q43.8024 1033.4 45.608 1036.97 Q47.4367 1040.51 51.0477 1040.51 Q54.682 1040.51 56.4875 1036.97 Q58.3162 1033.4 58.3162 1026.3 Q58.3162 1019.17 56.4875 1015.62 Q54.682 1012.06 51.0477 1012.06 M51.0477 1008.36 Q56.8579 1008.36 59.9134 1012.96 Q62.9921 1017.55 62.9921 1026.3 Q62.9921 1035.02 59.9134 1039.63 Q56.8579 1044.21 51.0477 1044.21 Q45.2376 1044.21 42.1589 1039.63 Q39.1034 1035.02 39.1034 1026.3 Q39.1034 1017.55 42.1589 1012.96 Q45.2376 1008.36 51.0477 1008.36 Z" fill="#000000" fill-rule="evenodd" fill-opacity="1" /><path clip-path="url(#clip860)" d="M 0 0 M46.6728 671.896 L62.9921 671.896 L62.9921 675.831 L41.0478 675.831 L41.0478 671.896 Q43.7098 669.141 48.2931 664.511 Q52.8996 659.859 54.0801 658.516 Q56.3255 655.993 57.2051 654.257 Q58.1079 652.498 58.1079 650.808 Q58.1079 648.053 56.1635 646.317 Q54.2422 644.581 51.1403 644.581 Q48.9413 644.581 46.4876 645.345 Q44.057 646.109 41.2793 647.66 L41.2793 642.937 Q44.1033 641.803 46.557 641.224 Q49.0107 640.646 51.0477 640.646 Q56.4181 640.646 59.6125 643.331 Q62.8069 646.016 62.8069 650.507 Q62.8069 652.636 61.9968 654.558 Q61.2097 656.456 59.1033 659.048 Q58.5246 659.72 55.4227 662.937 Q52.3209 666.132 46.6728 671.896 Z" fill="#000000" fill-rule="evenodd" fill-opacity="1" /><path clip-path="url(#clip860)" d="M 0 0 M53.4088 277.635 L41.6034 296.084 L53.4088 296.084 L53.4088 277.635 M52.182 273.561 L58.0616 273.561 L58.0616 296.084 L62.9921 296.084 L62.9921 299.973 L58.0616 299.973 L58.0616 308.121 L53.4088 308.121 L53.4088 299.973 L37.8071 299.973 L37.8071 295.459 L52.182 273.561 Z" fill="#000000" fill-rule="evenodd" fill-opacity="1" /><circle clip-path="url(#clip862)" cx="1045.04" cy="1026.26" r="14" fill="#ff0000" fill-rule="evenodd" fill-opacity="1" stroke="#000000" stroke-opacity="1" stroke-width="3.2"/>
<circle clip-path="url(#clip862)" cx="1228.89" cy="474.696" r="14" fill="#ff0000" fill-rule="evenodd" fill-opacity="1" stroke="#000000" stroke-opacity="1" stroke-width="3.2"/>
<circle clip-path="url(#clip862)" cx="1780.45" cy="658.551" r="14" fill="#ff0000" fill-rule="evenodd" fill-opacity="1" stroke="#000000" stroke-opacity="1" stroke-width="3.2"/>
<path clip-path="url(#clip860)" d="M 0 0 M1045.04 955.698 L1033.94 985.796 L1056.18 985.796 L1045.04 955.698 M1040.42 947.637 L1049.69 947.637 L1072.74 1008.12 L1064.24 1008.12 L1058.73 992.602 L1031.46 992.602 L1025.96 1008.12 L1017.33 1008.12 L1040.42 947.637 Z" fill="#000000" fill-rule="evenodd" fill-opacity="1" /><path clip-path="url(#clip860)" d="M 0 0 M1215.62 427.669 L1215.62 449.827 L1228.75 449.827 Q1235.35 449.827 1238.51 447.113 Q1241.71 444.359 1241.71 438.728 Q1241.71 433.057 1238.51 430.383 Q1235.35 427.669 1228.75 427.669 L1215.62 427.669 M1215.62 402.796 L1215.62 421.025 L1227.74 421.025 Q1233.73 421.025 1236.65 418.797 Q1239.6 416.529 1239.6 411.911 Q1239.6 407.333 1236.65 405.065 Q1233.73 402.796 1227.74 402.796 L1215.62 402.796 M1207.44 396.072 L1228.34 396.072 Q1237.7 396.072 1242.76 399.961 Q1247.83 403.85 1247.83 411.02 Q1247.83 416.569 1245.24 419.851 Q1242.64 423.132 1237.62 423.942 Q1243.66 425.238 1246.98 429.37 Q1250.34 433.462 1250.34 439.619 Q1250.34 447.721 1244.83 452.136 Q1239.32 456.552 1229.15 456.552 L1207.44 456.552 L1207.44 396.072 Z" fill="#000000" fill-rule="evenodd" fill-opacity="1" /><path clip-path="url(#clip860)" d="M 0 0 M1804.84 584.585 L1804.84 593.214 Q1800.71 589.365 1796.01 587.461 Q1791.35 585.558 1786.09 585.558 Q1775.71 585.558 1770.21 591.917 Q1764.7 598.237 1764.7 610.228 Q1764.7 622.178 1770.21 628.538 Q1775.71 634.857 1786.09 634.857 Q1791.35 634.857 1796.01 632.953 Q1800.71 631.049 1804.84 627.201 L1804.84 635.748 Q1800.55 638.665 1795.73 640.123 Q1790.95 641.582 1785.6 641.582 Q1771.87 641.582 1763.97 633.196 Q1756.07 624.77 1756.07 610.228 Q1756.07 595.644 1763.97 587.259 Q1771.87 578.833 1785.6 578.833 Q1791.03 578.833 1795.81 580.291 Q1800.63 581.709 1804.84 584.585 Z" fill="#000000" fill-rule="evenodd" fill-opacity="1" /><path clip-path="url(#clip862)" d="
M1045.04 1026.26 L1228.89 474.696 L659.294 591.255 L1045.04 1026.26  Z
  " fill="#ffc0cb" fill-rule="evenodd" fill-opacity="0.7"/>
<polyline clip-path="url(#clip862)" style="stroke:#000000; stroke-width:4; stroke-opacity:1; fill:none" points="
  1045.04,1026.26 1228.89,474.696 659.294,591.255 1045.04,1026.26 
  "/>
<path clip-path="url(#clip862)" d="
M1780.45 658.551 L1045.04 1026.26 L1731.19 1479.3 L1780.45 658.551  Z
  " fill="#ffc0cb" fill-rule="evenodd" fill-opacity="0.7"/>
<polyline clip-path="url(#clip862)" style="stroke:#000000; stroke-width:4; stroke-opacity:1; fill:none" points="
  1780.45,658.551 1045.04,1026.26 1731.19,1479.3 1780.45,658.551 
  "/>
<path clip-path="url(#clip862)" d="
M1228.89 474.696 L1780.45 658.551 L1663.9 88.9544 L1228.89 474.696  Z
  " fill="#ffc0cb" fill-rule="evenodd" fill-opacity="0.7"/>
<polyline clip-path="url(#clip862)" style="stroke:#000000; stroke-width:4; stroke-opacity:1; fill:none" points="
  1228.89,474.696 1780.45,658.551 1663.9,88.9544 1228.89,474.696 
  "/>
<path clip-path="url(#clip862)" d="
M1045.04 1026.26 L1228.89 474.696 L1780.45 658.551 L1045.04 1026.26  Z
  " fill="#008000" fill-rule="evenodd" fill-opacity="0.2"/>
<polyline clip-path="url(#clip862)" style="stroke:#000000; stroke-width:4; stroke-opacity:1; fill:none" points="
  1045.04,1026.26 1228.89,474.696 1780.45,658.551 1045.04,1026.26 
  "/>
</svg>
