<?xml version="1.0" encoding="utf-8"?>
<svg xmlns="http://www.w3.org/2000/svg" xmlns:xlink="http://www.w3.org/1999/xlink" width="600" height="400" viewBox="0 0 2400 1600">
<defs>
  <clipPath id="clip890">
    <rect x="0" y="0" width="2400" height="1600"/>
  </clipPath>
</defs>
<path clip-path="url(#clip890)" d="
M0 1600 L2400 1600 L2400 0 L0 0  Z
  " fill="#ffffff" fill-rule="evenodd" fill-opacity="1"/>
<defs>
  <clipPath id="clip891">
    <rect x="480" y="0" width="1681" height="1600"/>
  </clipPath>
</defs>
<path clip-path="url(#clip890)" d="
M86.9921 1521.01 L2352.76 1521.01 L2352.76 47.2441 L86.9921 47.2441  Z
  " fill="#ffffff" fill-rule="evenodd" fill-opacity="1"/>
<defs>
  <clipPath id="clip892">
    <rect x="86" y="47" width="2267" height="1475"/>
  </clipPath>
</defs>
<polyline clip-path="url(#clip892)" style="stroke:#000000; stroke-width:2; stroke-opacity:0.1; fill:none" points="
  287.178,1521.01 287.178,47.2441 
  "/>
<polyline clip-path="url(#clip892)" style="stroke:#000000; stroke-width:2; stroke-opacity:0.1; fill:none" points="
  598.076,1521.01 598.076,47.2441 
  "/>
<polyline clip-path="url(#clip892)" style="stroke:#000000; stroke-width:2; stroke-opacity:0.1; fill:none" points="
  908.975,1521.01 908.975,47.2441 
  "/>
<polyline clip-path="url(#clip892)" style="stroke:#000000; stroke-width:2; stroke-opacity:0.1; fill:none" points="
  1219.87,1521.01 1219.87,47.2441 
  "/>
<polyline clip-path="url(#clip892)" style="stroke:#000000; stroke-width:2; stroke-opacity:0.1; fill:none" points="
  1530.77,1521.01 1530.77,47.2441 
  "/>
<polyline clip-path="url(#clip892)" style="stroke:#000000; stroke-width:2; stroke-opacity:0.1; fill:none" points="
  1841.67,1521.01 1841.67,47.2441 
  "/>
<polyline clip-path="url(#clip892)" style="stroke:#000000; stroke-width:2; stroke-opacity:0.1; fill:none" points="
  2152.57,1521.01 2152.57,47.2441 
  "/>
<polyline clip-path="url(#clip892)" style="stroke:#000000; stroke-width:2; stroke-opacity:0.1; fill:none" points="
  86.9921,1405.94 2352.76,1405.94 
  "/>
<polyline clip-path="url(#clip892)" style="stroke:#000000; stroke-width:2; stroke-opacity:0.1; fill:none" points="
  86.9921,1095.04 2352.76,1095.04 
  "/>
<polyline clip-path="url(#clip892)" style="stroke:#000000; stroke-width:2; stroke-opacity:0.1; fill:none" points="
  86.9921,784.145 2352.76,784.145 
  "/>
<polyline clip-path="url(#clip892)" style="stroke:#000000; stroke-width:2; stroke-opacity:0.1; fill:none" points="
  86.9921,473.246 2352.76,473.246 
  "/>
<polyline clip-path="url(#clip892)" style="stroke:#000000; stroke-width:2; stroke-opacity:0.1; fill:none" points="
  86.9921,162.348 2352.76,162.348 
  "/>
<polyline clip-path="url(#clip890)" style="stroke:#000000; stroke-width:4; stroke-opacity:1; fill:none" points="
  86.9921,1521.01 2352.76,1521.01 
  "/>
<polyline clip-path="url(#clip890)" style="stroke:#000000; stroke-width:4; stroke-opacity:1; fill:none" points="
  86.9921,1521.01 86.9921,47.2441 
  "/>
<polyline clip-path="url(#clip890)" style="stroke:#000000; stroke-width:4; stroke-opacity:1; fill:none" points="
  287.178,1521.01 287.178,1503.32 
  "/>
<polyline clip-path="url(#clip890)" style="stroke:#000000; stroke-width:4; stroke-opacity:1; fill:none" points="
  598.076,1521.01 598.076,1503.32 
  "/>
<polyline clip-path="url(#clip890)" style="stroke:#000000; stroke-width:4; stroke-opacity:1; fill:none" points="
  908.975,1521.01 908.975,1503.32 
  "/>
<polyline clip-path="url(#clip890)" style="stroke:#000000; stroke-width:4; stroke-opacity:1; fill:none" points="
  1219.87,1521.01 1219.87,1503.32 
  "/>
<polyline clip-path="url(#clip890)" style="stroke:#000000; stroke-width:4; stroke-opacity:1; fill:none" points="
  1530.77,1521.01 1530.77,1503.32 
  "/>
<polyline clip-path="url(#clip890)" style="stroke:#000000; stroke-width:4; stroke-opacity:1; fill:none" points="
  1841.67,1521.01 1841.67,1503.32 
  "/>
<polyline clip-path="url(#clip890)" style="stroke:#000000; stroke-width:4; stroke-opacity:1; fill:none" points="
  2152.57,1521.01 2152.57,1503.32 
  "/>
<polyline clip-path="url(#clip890)" style="stroke:#000000; stroke-width:4; stroke-opacity:1; fill:none" points="
  86.9921,1405.94 114.181,1405.94 
  "/>
<polyline clip-path="url(#clip890)" style="stroke:#000000; stroke-width:4; stroke-opacity:1; fill:none" points="
  86.9921,1095.04 114.181,1095.04 
  "/>
<polyline clip-path="url(#clip890)" style="stroke:#000000; stroke-width:4; stroke-opacity:1; fill:none" points="
  86.9921,784.145 114.181,784.145 
  "/>
<polyline clip-path="url(#clip890)" style="stroke:#000000; stroke-width:4; stroke-opacity:1; fill:none" points="
  86.9921,473.246 114.181,473.246 
  "/>
<polyline clip-path="url(#clip890)" style="stroke:#000000; stroke-width:4; stroke-opacity:1; fill:none" points="
  86.9921,162.348 114.181,162.348 
  "/>
<path clip-path="url(#clip890)" d="M 0 0 M268.046 1559.6 L280.523 1559.6 L280.523 1563.39 L268.046 1563.39 L268.046 1559.6 Z" fill="#000000" fill-rule="evenodd" fill-opacity="1" /><path clip-path="url(#clip890)" d="M 0 0 M286.402 1570.54 L294.041 1570.54 L294.041 1544.18 L285.731 1545.85 L285.731 1541.59 L293.995 1539.92 L298.671 1539.92 L298.671 1570.54 L306.31 1570.54 L306.31 1574.48 L286.402 1574.48 L286.402 1570.54 Z" fill="#000000" fill-rule="evenodd" fill-opacity="1" /><path clip-path="url(#clip890)" d="M 0 0 M598.076 1543 Q594.465 1543 592.637 1546.56 Q590.831 1550.11 590.831 1557.23 Q590.831 1564.34 592.637 1567.91 Q594.465 1571.45 598.076 1571.45 Q601.711 1571.45 603.516 1567.91 Q605.345 1564.34 605.345 1557.23 Q605.345 1550.11 603.516 1546.56 Q601.711 1543 598.076 1543 M598.076 1539.29 Q603.887 1539.29 606.942 1543.9 Q610.021 1548.48 610.021 1557.23 Q610.021 1565.96 606.942 1570.57 Q603.887 1575.15 598.076 1575.15 Q592.266 1575.15 589.188 1570.57 Q586.132 1565.96 586.132 1557.23 Q586.132 1548.48 589.188 1543.9 Q592.266 1539.29 598.076 1539.29 Z" fill="#000000" fill-rule="evenodd" fill-opacity="1" /><path clip-path="url(#clip890)" d="M 0 0 M899.357 1570.54 L906.996 1570.54 L906.996 1544.18 L898.686 1545.85 L898.686 1541.59 L906.95 1539.92 L911.626 1539.92 L911.626 1570.54 L919.265 1570.54 L919.265 1574.48 L899.357 1574.48 L899.357 1570.54 Z" fill="#000000" fill-rule="evenodd" fill-opacity="1" /><path clip-path="url(#clip890)" d="M 0 0 M1214.53 1570.54 L1230.85 1570.54 L1230.85 1574.48 L1208.9 1574.48 L1208.9 1570.54 Q1211.56 1567.79 1216.15 1563.16 Q1220.75 1558.51 1221.93 1557.17 Q1224.18 1554.64 1225.06 1552.91 Q1225.96 1551.15 1225.96 1549.46 Q1225.96 1546.7 1224.02 1544.97 Q1222.1 1543.23 1218.99 1543.23 Q1216.8 1543.23 1214.34 1543.99 Q1211.91 1544.76 1209.13 1546.31 L1209.13 1541.59 Q1211.96 1540.45 1214.41 1539.87 Q1216.86 1539.29 1218.9 1539.29 Q1224.27 1539.29 1227.47 1541.98 Q1230.66 1544.67 1230.66 1549.16 Q1230.66 1551.29 1229.85 1553.21 Q1229.06 1555.1 1226.96 1557.7 Q1226.38 1558.37 1223.28 1561.59 Q1220.17 1564.78 1214.53 1570.54 Z" fill="#000000" fill-rule="evenodd" fill-opacity="1" /><path clip-path="url(#clip890)" d="M 0 0 M1535.02 1555.85 Q1538.38 1556.56 1540.25 1558.83 Q1542.15 1561.1 1542.15 1564.43 Q1542.15 1569.55 1538.63 1572.35 Q1535.11 1575.15 1528.63 1575.15 Q1526.46 1575.15 1524.14 1574.71 Q1521.85 1574.29 1519.4 1573.44 L1519.4 1568.92 Q1521.34 1570.06 1523.65 1570.64 Q1525.97 1571.22 1528.49 1571.22 Q1532.89 1571.22 1535.18 1569.48 Q1537.5 1567.74 1537.5 1564.43 Q1537.5 1561.38 1535.34 1559.67 Q1533.21 1557.93 1529.4 1557.93 L1525.37 1557.93 L1525.37 1554.09 L1529.58 1554.09 Q1533.03 1554.09 1534.86 1552.72 Q1536.69 1551.33 1536.69 1548.74 Q1536.69 1546.08 1534.79 1544.67 Q1532.91 1543.23 1529.4 1543.23 Q1527.47 1543.23 1525.28 1543.65 Q1523.08 1544.06 1520.44 1544.94 L1520.44 1540.78 Q1523.1 1540.04 1525.41 1539.67 Q1527.75 1539.29 1529.81 1539.29 Q1535.14 1539.29 1538.24 1541.73 Q1541.34 1544.13 1541.34 1548.25 Q1541.34 1551.12 1539.7 1553.11 Q1538.05 1555.08 1535.02 1555.85 Z" fill="#000000" fill-rule="evenodd" fill-opacity="1" /><path clip-path="url(#clip890)" d="M 0 0 M1844.68 1543.99 L1832.88 1562.44 L1844.68 1562.44 L1844.68 1543.99 M1843.45 1539.92 L1849.33 1539.92 L1849.33 1562.44 L1854.26 1562.44 L1854.26 1566.33 L1849.33 1566.33 L1849.33 1574.48 L1844.68 1574.48 L1844.68 1566.33 L1829.08 1566.33 L1829.08 1561.82 L1843.45 1539.92 Z" fill="#000000" fill-rule="evenodd" fill-opacity="1" /><path clip-path="url(#clip890)" d="M 0 0 M2142.85 1539.92 L2161.2 1539.92 L2161.2 1543.86 L2147.13 1543.86 L2147.13 1552.33 Q2148.15 1551.98 2149.17 1551.82 Q2150.19 1551.63 2151.2 1551.63 Q2156.99 1551.63 2160.37 1554.8 Q2163.75 1557.98 2163.75 1563.39 Q2163.75 1568.97 2160.28 1572.07 Q2156.81 1575.15 2150.49 1575.15 Q2148.31 1575.15 2146.04 1574.78 Q2143.8 1574.41 2141.39 1573.67 L2141.39 1568.97 Q2143.47 1570.1 2145.7 1570.66 Q2147.92 1571.22 2150.39 1571.22 Q2154.4 1571.22 2156.74 1569.11 Q2159.07 1567 2159.07 1563.39 Q2159.07 1559.78 2156.74 1557.67 Q2154.4 1555.57 2150.39 1555.57 Q2148.52 1555.57 2146.64 1555.98 Q2144.79 1556.4 2142.85 1557.28 L2142.85 1539.92 Z" fill="#000000" fill-rule="evenodd" fill-opacity="1" /><path clip-path="url(#clip890)" d="M 0 0 M24.7284 1408.34 L37.2052 1408.34 L37.2052 1412.13 L24.7284 1412.13 L24.7284 1408.34 Z" fill="#000000" fill-rule="evenodd" fill-opacity="1" /><path clip-path="url(#clip890)" d="M 0 0 M43.0848 1419.29 L50.7237 1419.29 L50.7237 1392.92 L42.4135 1394.59 L42.4135 1390.33 L50.6774 1388.66 L55.3533 1388.66 L55.3533 1419.29 L62.9921 1419.29 L62.9921 1423.22 L43.0848 1423.22 L43.0848 1419.29 Z" fill="#000000" fill-rule="evenodd" fill-opacity="1" /><path clip-path="url(#clip890)" d="M 0 0 M51.0477 1080.84 Q47.4367 1080.84 45.608 1084.41 Q43.8024 1087.95 43.8024 1095.08 Q43.8024 1102.19 45.608 1105.75 Q47.4367 1109.29 51.0477 1109.29 Q54.682 1109.29 56.4875 1105.75 Q58.3162 1102.19 58.3162 1095.08 Q58.3162 1087.95 56.4875 1084.41 Q54.682 1080.84 51.0477 1080.84 M51.0477 1077.14 Q56.8579 1077.14 59.9134 1081.75 Q62.9921 1086.33 62.9921 1095.08 Q62.9921 1103.81 59.9134 1108.41 Q56.8579 1113 51.0477 1113 Q45.2376 1113 42.1589 1108.41 Q39.1034 1103.81 39.1034 1095.08 Q39.1034 1086.33 42.1589 1081.75 Q45.2376 1077.14 51.0477 1077.14 Z" fill="#000000" fill-rule="evenodd" fill-opacity="1" /><path clip-path="url(#clip890)" d="M 0 0 M43.0848 797.49 L50.7237 797.49 L50.7237 771.124 L42.4135 772.791 L42.4135 768.532 L50.6774 766.865 L55.3533 766.865 L55.3533 797.49 L62.9921 797.49 L62.9921 801.425 L43.0848 801.425 L43.0848 797.49 Z" fill="#000000" fill-rule="evenodd" fill-opacity="1" /><path clip-path="url(#clip890)" d="M 0 0 M46.6728 486.591 L62.9921 486.591 L62.9921 490.526 L41.0478 490.526 L41.0478 486.591 Q43.7098 483.837 48.2931 479.207 Q52.8996 474.554 54.0801 473.212 Q56.3255 470.689 57.2051 468.952 Q58.1079 467.193 58.1079 465.503 Q58.1079 462.749 56.1635 461.013 Q54.2422 459.277 51.1403 459.277 Q48.9413 459.277 46.4876 460.04 Q44.057 460.804 41.2793 462.355 L41.2793 457.633 Q44.1033 456.499 46.557 455.92 Q49.0107 455.341 51.0477 455.341 Q56.4181 455.341 59.6125 458.027 Q62.8069 460.712 62.8069 465.202 Q62.8069 467.332 61.9968 469.253 Q61.2097 471.152 59.1033 473.744 Q58.5246 474.415 55.4227 477.633 Q52.3209 480.827 46.6728 486.591 Z" fill="#000000" fill-rule="evenodd" fill-opacity="1" /><path clip-path="url(#clip890)" d="M 0 0 M55.8625 160.993 Q59.219 161.711 61.094 163.98 Q62.9921 166.248 62.9921 169.581 Q62.9921 174.697 59.4736 177.498 Q55.9551 180.299 49.4737 180.299 Q47.2978 180.299 44.983 179.859 Q42.6913 179.442 40.2376 178.586 L40.2376 174.072 Q42.1821 175.206 44.4969 175.785 Q46.8117 176.364 49.3348 176.364 Q53.7329 176.364 56.0246 174.628 Q58.3394 172.892 58.3394 169.581 Q58.3394 166.526 56.1866 164.813 Q54.057 163.077 50.2376 163.077 L46.2098 163.077 L46.2098 159.234 L50.4227 159.234 Q53.8718 159.234 55.7005 157.868 Q57.5292 156.48 57.5292 153.887 Q57.5292 151.225 55.6311 149.813 Q53.7561 148.378 50.2376 148.378 Q48.3163 148.378 46.1172 148.794 Q43.9182 149.211 41.2793 150.091 L41.2793 145.924 Q43.9413 145.183 46.2561 144.813 Q48.5941 144.443 50.6542 144.443 Q55.9783 144.443 59.0801 146.873 Q62.1819 149.281 62.1819 153.401 Q62.1819 156.271 60.5384 158.262 Q58.8949 160.23 55.8625 160.993 Z" fill="#000000" fill-rule="evenodd" fill-opacity="1" /><circle clip-path="url(#clip892)" cx="598.076" cy="1095.04" r="14" fill="#ff0000" fill-rule="evenodd" fill-opacity="1" stroke="#000000" stroke-opacity="1" stroke-width="3.2"/>
<circle clip-path="url(#clip892)" cx="908.975" cy="162.348" r="14" fill="#ff0000" fill-rule="evenodd" fill-opacity="1" stroke="#000000" stroke-opacity="1" stroke-width="3.2"/>
<circle clip-path="url(#clip892)" cx="1841.67" cy="473.246" r="14" fill="#ff0000" fill-rule="evenodd" fill-opacity="1" stroke="#000000" stroke-opacity="1" stroke-width="3.2"/>
<path clip-path="url(#clip890)" d="M 0 0 M598.076 1024.48 L586.977 1054.58 L609.216 1054.58 L598.076 1024.48 M593.458 1016.42 L602.735 1016.42 L625.785 1076.9 L617.278 1076.9 L611.769 1061.38 L584.506 1061.38 L578.997 1076.9 L570.368 1076.9 L593.458 1016.42 Z" fill="#000000" fill-rule="evenodd" fill-opacity="1" /><path clip-path="url(#clip890)" d="M 0 0 M895.709 115.321 L895.709 137.479 L908.833 137.479 Q915.436 137.479 918.596 134.765 Q921.796 132.01 921.796 126.38 Q921.796 120.708 918.596 118.035 Q915.436 115.321 908.833 115.321 L895.709 115.321 M895.709 90.4481 L895.709 108.677 L907.821 108.677 Q913.816 108.677 916.733 106.449 Q919.69 104.181 919.69 99.5627 Q919.69 94.9851 916.733 92.7166 Q913.816 90.4481 907.821 90.4481 L895.709 90.4481 M887.526 83.7236 L908.428 83.7236 Q917.786 83.7236 922.85 87.6125 Q927.913 91.5014 927.913 98.6715 Q927.913 104.221 925.321 107.502 Q922.728 110.784 917.705 111.594 Q923.741 112.89 927.063 117.022 Q930.425 121.113 930.425 127.271 Q930.425 135.373 924.916 139.788 Q919.406 144.204 909.239 144.204 L887.526 144.204 L887.526 83.7236 Z" fill="#000000" fill-rule="evenodd" fill-opacity="1" /><path clip-path="url(#clip890)" d="M 0 0 M1866.06 399.281 L1866.06 407.909 Q1861.93 404.061 1857.23 402.157 Q1852.57 400.253 1847.3 400.253 Q1836.93 400.253 1831.42 406.613 Q1825.91 412.932 1825.91 424.923 Q1825.91 436.873 1831.42 443.233 Q1836.93 449.553 1847.3 449.553 Q1852.57 449.553 1857.23 447.649 Q1861.93 445.745 1866.06 441.896 L1866.06 450.444 Q1861.76 453.361 1856.94 454.819 Q1852.16 456.277 1846.82 456.277 Q1833.08 456.277 1825.18 447.892 Q1817.29 439.466 1817.29 424.923 Q1817.29 410.34 1825.18 401.955 Q1833.08 393.529 1846.82 393.529 Q1852.24 393.529 1857.02 394.987 Q1861.85 396.405 1866.06 399.281 Z" fill="#000000" fill-rule="evenodd" fill-opacity="1" /><path clip-path="url(#clip892)" d="
M1219.87 88.9544 L1234.48 89.1079 L1249.08 89.5683 L1263.67 90.3354 L1278.24 91.4088 L1292.78 92.7882 L1307.29 94.4729 L1321.77 96.462 L1336.19 98.7549 L1350.57 101.35 
  L1364.89 104.247 L1379.14 107.445 L1393.33 110.941 L1407.43 114.734 L1421.46 118.823 L1435.39 123.206 L1449.23 127.88 L1462.97 132.844 L1476.61 138.096 L1490.12 143.634 
  L1503.52 149.454 L1516.8 155.554 L1529.94 161.932 L1542.95 168.584 L1555.81 175.509 L1568.52 182.702 L1581.08 190.161 L1593.49 197.882 L1605.72 205.862 L1617.79 214.097 
  L1629.68 222.584 L1641.39 231.319 L1652.91 240.298 L1664.24 249.517 L1675.38 258.973 L1686.31 268.66 L1697.04 278.575 L1707.56 288.713 L1717.86 299.069 L1727.94 309.641 
  L1737.8 320.421 L1747.43 331.406 L1756.83 342.592 L1765.99 353.972 L1774.91 365.542 L1783.58 377.297 L1792 389.232 L1800.18 401.341 L1808.09 413.619 L1815.75 426.061 
  L1823.14 438.66 L1830.27 451.413 L1837.12 464.312 L1843.71 477.353 L1850.02 490.529 L1856.05 503.834 L1861.8 517.264 L1867.26 530.811 L1872.44 544.47 L1877.34 558.235 
  L1881.94 572.1 L1886.25 586.058 L1890.26 600.104 L1893.98 614.231 L1897.4 628.434 L1900.52 642.704 L1903.35 657.038 L1905.87 671.427 L1908.08 685.867 L1910 700.349 
  L1911.6 714.869 L1912.91 729.419 L1913.9 743.993 L1914.59 758.586 L1914.98 773.189 L1915.06 787.797 L1914.82 802.404 L1914.29 817.003 L1913.44 831.587 L1912.29 846.15 
  L1910.84 860.686 L1909.08 875.188 L1907.01 889.649 L1904.64 904.064 L1901.97 918.427 L1899 932.73 L1895.73 946.967 L1892.16 961.132 L1888.29 975.22 L1884.13 989.222 
  L1879.67 1003.13 L1874.93 1016.95 L1869.89 1030.66 L1864.57 1044.27 L1858.96 1057.76 L1853.07 1071.12 L1846.9 1084.37 L1840.45 1097.48 L1833.73 1110.45 L1826.74 1123.27 
  L1819.48 1135.95 L1811.95 1148.47 L1804.17 1160.83 L1796.12 1173.03 L1787.82 1185.05 L1779.27 1196.89 L1770.48 1208.56 L1761.44 1220.03 L1752.16 1231.32 L1742.65 1242.4 
  L1732.9 1253.29 L1722.93 1263.96 L1712.74 1274.43 L1702.33 1284.67 L1691.7 1294.7 L1680.87 1304.5 L1669.84 1314.07 L1658.6 1323.41 L1647.17 1332.51 L1635.56 1341.37 
  L1623.76 1349.98 L1611.78 1358.34 L1599.62 1366.45 L1587.3 1374.3 L1574.82 1381.89 L1562.18 1389.22 L1549.4 1396.28 L1536.46 1403.07 L1523.38 1409.58 L1510.18 1415.82 
  L1496.84 1421.78 L1483.38 1427.46 L1469.8 1432.86 L1456.12 1437.96 L1442.33 1442.78 L1428.44 1447.31 L1414.46 1451.55 L1400.39 1455.49 L1386.24 1459.13 L1372.02 1462.48 
  L1357.74 1465.53 L1343.39 1468.28 L1328.99 1470.72 L1314.54 1472.86 L1300.04 1474.7 L1285.52 1476.23 L1270.96 1477.46 L1256.38 1478.38 L1241.78 1478.99 L1227.18 1479.3 
  L1212.57 1479.3 L1197.96 1478.99 L1183.37 1478.38 L1168.79 1477.46 L1154.23 1476.23 L1139.7 1474.7 L1125.21 1472.86 L1110.76 1470.72 L1096.36 1468.28 L1082.01 1465.53 
  L1067.72 1462.48 L1053.5 1459.13 L1039.36 1455.49 L1025.29 1451.55 L1011.31 1447.31 L997.421 1442.78 L983.631 1437.96 L969.945 1432.86 L956.369 1427.46 L942.909 1421.78 
  L929.572 1415.82 L916.363 1409.58 L903.288 1403.07 L890.353 1396.28 L877.563 1389.22 L864.925 1381.89 L852.443 1374.3 L840.124 1366.45 L827.972 1358.34 L815.993 1349.98 
  L804.193 1341.37 L792.576 1332.51 L781.147 1323.41 L769.913 1314.07 L758.877 1304.5 L748.045 1294.7 L737.421 1284.67 L727.01 1274.43 L716.817 1263.96 L706.846 1253.29 
  L697.102 1242.4 L687.588 1231.32 L678.309 1220.03 L669.27 1208.56 L660.473 1196.89 L651.924 1185.05 L643.626 1173.03 L635.581 1160.83 L627.795 1148.47 L620.271 1135.95 
  L613.011 1123.27 L606.019 1110.45 L599.298 1097.48 L592.851 1084.37 L586.681 1071.12 L580.791 1057.76 L575.183 1044.27 L569.859 1030.66 L564.823 1016.95 L560.076 1003.13 
  L555.62 989.222 L551.457 975.22 L547.59 961.132 L544.02 946.967 L540.747 932.73 L537.775 918.427 L535.104 904.064 L532.736 889.649 L530.67 875.188 L528.91 860.686 
  L527.454 846.15 L526.304 831.587 L525.46 817.003 L524.923 802.404 L524.693 787.797 L524.77 773.189 L525.153 758.586 L525.844 743.993 L526.841 729.419 L528.144 714.869 
  L529.752 700.349 L531.665 685.867 L533.882 671.427 L536.402 657.038 L539.224 642.704 L542.346 628.434 L545.768 614.231 L549.487 600.104 L553.502 586.058 L557.811 572.1 
  L562.413 558.235 L567.305 544.47 L572.485 530.811 L577.951 517.264 L583.701 503.834 L589.731 490.529 L596.04 477.353 L602.624 464.312 L609.481 451.413 L616.607 438.66 
  L624 426.061 L631.656 413.619 L639.571 401.341 L647.743 389.232 L656.168 377.297 L664.841 365.542 L673.759 353.972 L682.919 342.592 L692.316 331.406 L701.945 320.421 
  L711.804 309.641 L721.886 299.069 L732.189 288.713 L742.707 278.575 L753.435 268.66 L764.37 258.973 L775.506 249.517 L786.838 240.298 L798.361 231.319 L810.07 222.584 
  L821.96 214.097 L834.026 205.862 L846.263 197.882 L858.664 190.161 L871.225 182.702 L883.94 175.509 L896.803 168.584 L909.809 161.932 L922.951 155.554 L936.225 149.454 
  L949.624 143.634 L963.142 138.096 L976.774 132.844 L990.513 127.88 L1004.35 123.206 L1018.29 118.823 L1032.31 114.734 L1046.42 110.941 L1060.61 107.445 L1074.86 104.247 
  L1089.18 101.35 L1103.55 98.7549 L1117.98 96.462 L1132.45 94.4729 L1146.96 92.7882 L1161.51 91.4088 L1176.08 90.3354 L1190.67 89.5683 L1205.27 89.1079 L1219.87 88.9544 
  L1219.87 1095.04 L1205.27 1095.04 L1190.67 1095.04 L1176.08 1095.04 L1161.51 1095.04 L1146.96 1095.04 L1132.45 1095.04 L1117.98 1095.04 L1103.55 1095.04 L1089.18 1095.04 
  L1074.86 1095.04 L1060.61 1095.04 L1046.42 1095.04 L1032.31 1095.04 L1018.29 1095.04 L1004.35 1095.04 L990.513 1095.04 L976.774 1095.04 L963.142 1095.04 L949.624 1095.04 
  L936.225 1095.04 L922.951 1095.04 L909.809 1095.04 L896.803 1095.04 L883.94 1095.04 L871.225 1095.04 L858.664 1095.04 L846.263 1095.04 L834.026 1095.04 L821.96 1095.04 
  L810.07 1095.04 L798.361 1095.04 L786.838 1095.04 L775.506 1095.04 L764.37 1095.04 L753.435 1095.04 L742.707 1095.04 L732.189 1095.04 L721.886 1095.04 L711.804 1095.04 
  L701.945 1095.04 L692.316 1095.04 L682.919 1095.04 L673.759 1095.04 L664.841 1095.04 L656.168 1095.04 L647.743 1095.04 L639.571 1095.04 L631.656 1095.04 L624 1095.04 
  L616.607 1095.04 L609.481 1095.04 L602.624 1095.04 L596.04 1095.04 L589.731 1095.04 L583.701 1095.04 L577.951 1095.04 L572.485 1095.04 L567.305 1095.04 L562.413 1095.04 
  L557.811 1095.04 L553.502 1095.04 L549.487 1095.04 L545.768 1095.04 L542.346 1095.04 L539.224 1095.04 L536.402 1095.04 L533.882 1095.04 L531.665 1095.04 L529.752 1095.04 
  L528.144 1095.04 L526.841 1095.04 L525.844 1095.04 L525.153 1095.04 L524.77 1095.04 L524.693 1095.04 L524.923 1095.04 L525.46 1095.04 L526.304 1095.04 L527.454 1095.04 
  L528.91 1095.04 L530.67 1095.04 L532.736 1095.04 L535.104 1095.04 L537.775 1095.04 L540.747 1095.04 L544.02 1095.04 L547.59 1095.04 L551.457 1095.04 L555.62 1095.04 
  L560.076 1095.04 L564.823 1095.04 L569.859 1095.04 L575.183 1095.04 L580.791 1095.04 L586.681 1095.04 L592.851 1095.04 L599.298 1095.04 L606.019 1095.04 L613.011 1095.04 
  L620.271 1095.04 L627.795 1095.04 L635.581 1095.04 L643.626 1095.04 L651.924 1095.04 L660.473 1095.04 L669.27 1095.04 L678.309 1095.04 L687.588 1095.04 L697.102 1095.04 
  L706.846 1095.04 L716.817 1095.04 L727.01 1095.04 L737.421 1095.04 L748.045 1095.04 L758.877 1095.04 L769.913 1095.04 L781.147 1095.04 L792.576 1095.04 L804.193 1095.04 
  L815.993 1095.04 L827.972 1095.04 L840.124 1095.04 L852.443 1095.04 L864.925 1095.04 L877.563 1095.04 L890.353 1095.04 L903.288 1095.04 L916.363 1095.04 L929.572 1095.04 
  L942.909 1095.04 L956.369 1095.04 L969.945 1095.04 L983.631 1095.04 L997.421 1095.04 L1011.31 1095.04 L1025.29 1095.04 L1039.36 1095.04 L1053.5 1095.04 L1067.72 1095.04 
  L1082.01 1095.04 L1096.36 1095.04 L1110.76 1095.04 L1125.21 1095.04 L1139.7 1095.04 L1154.23 1095.04 L1168.79 1095.04 L1183.37 1095.04 L1197.96 1095.04 L1212.57 1095.04 
  L1227.18 1095.04 L1241.78 1095.04 L1256.38 1095.04 L1270.96 1095.04 L1285.52 1095.04 L1300.04 1095.04 L1314.54 1095.04 L1328.99 1095.04 L1343.39 1095.04 L1357.74 1095.04 
  L1372.02 1095.04 L1386.24 1095.04 L1400.39 1095.04 L1414.46 1095.04 L1428.44 1095.04 L1442.33 1095.04 L1456.12 1095.04 L1469.8 1095.04 L1483.38 1095.04 L1496.84 1095.04 
  L1510.18 1095.04 L1523.38 1095.04 L1536.46 1095.04 L1549.4 1095.04 L1562.18 1095.04 L1574.82 1095.04 L1587.3 1095.04 L1599.62 1095.04 L1611.78 1095.04 L1623.76 1095.04 
  L1635.56 1095.04 L1647.17 1095.04 L1658.6 1095.04 L1669.84 1095.04 L1680.87 1095.04 L1691.7 1095.04 L1702.33 1095.04 L1712.74 1095.04 L1722.93 1095.04 L1732.9 1095.04 
  L1742.65 1095.04 L1752.16 1095.04 L1761.44 1095.04 L1770.48 1095.04 L1779.27 1095.04 L1787.82 1095.04 L1796.12 1095.04 L1804.17 1095.04 L1811.95 1095.04 L1819.48 1095.04 
  L1826.74 1095.04 L1833.73 1095.04 L1840.45 1095.04 L1846.9 1095.04 L1853.07 1095.04 L1858.96 1095.04 L1864.57 1095.04 L1869.89 1095.04 L1874.93 1095.04 L1879.67 1095.04 
  L1884.13 1095.04 L1888.29 1095.04 L1892.16 1095.04 L1895.73 1095.04 L1899 1095.04 L1901.97 1095.04 L1904.64 1095.04 L1907.01 1095.04 L1909.08 1095.04 L1910.84 1095.04 
  L1912.29 1095.04 L1913.44 1095.04 L1914.29 1095.04 L1914.82 1095.04 L1915.06 1095.04 L1914.98 1095.04 L1914.59 1095.04 L1913.9 1095.04 L1912.91 1095.04 L1911.6 1095.04 
  L1910 1095.04 L1908.08 1095.04 L1905.87 1095.04 L1903.35 1095.04 L1900.52 1095.04 L1897.4 1095.04 L1893.98 1095.04 L1890.26 1095.04 L1886.25 1095.04 L1881.94 1095.04 
  L1877.34 1095.04 L1872.44 1095.04 L1867.26 1095.04 L1861.8 1095.04 L1856.05 1095.04 L1850.02 1095.04 L1843.71 1095.04 L1837.12 1095.04 L1830.27 1095.04 L1823.14 1095.04 
  L1815.75 1095.04 L1808.09 1095.04 L1800.18 1095.04 L1792 1095.04 L1783.58 1095.04 L1774.91 1095.04 L1765.99 1095.04 L1756.83 1095.04 L1747.43 1095.04 L1737.8 1095.04 
  L1727.94 1095.04 L1717.86 1095.04 L1707.56 1095.04 L1697.04 1095.04 L1686.31 1095.04 L1675.38 1095.04 L1664.24 1095.04 L1652.91 1095.04 L1641.39 1095.04 L1629.68 1095.04 
  L1617.79 1095.04 L1605.72 1095.04 L1593.49 1095.04 L1581.08 1095.04 L1568.52 1095.04 L1555.81 1095.04 L1542.95 1095.04 L1529.94 1095.04 L1516.8 1095.04 L1503.52 1095.04 
  L1490.12 1095.04 L1476.61 1095.04 L1462.97 1095.04 L1449.23 1095.04 L1435.39 1095.04 L1421.46 1095.04 L1407.43 1095.04 L1393.33 1095.04 L1379.14 1095.04 L1364.89 1095.04 
  L1350.57 1095.04 L1336.19 1095.04 L1321.77 1095.04 L1307.29 1095.04 L1292.78 1095.04 L1278.24 1095.04 L1263.67 1095.04 L1249.08 1095.04 L1234.48 1095.04 L1219.87 1095.04 
   Z
  " fill="#ffa500" fill-rule="evenodd" fill-opacity="0.2"/>
<polyline clip-path="url(#clip892)" style="stroke:#e26f46; stroke-width:4; stroke-opacity:1; fill:none" points="
  1219.87,88.9544 1234.48,89.1079 1249.08,89.5683 1263.67,90.3354 1278.24,91.4088 1292.78,92.7882 1307.29,94.4729 1321.77,96.462 1336.19,98.7549 1350.57,101.35 
  1364.89,104.247 1379.14,107.445 1393.33,110.941 1407.43,114.734 1421.46,118.823 1435.39,123.206 1449.23,127.88 1462.97,132.844 1476.61,138.096 1490.12,143.634 
  1503.52,149.454 1516.8,155.554 1529.94,161.932 1542.95,168.584 1555.81,175.509 1568.52,182.702 1581.08,190.161 1593.49,197.882 1605.72,205.862 1617.79,214.097 
  1629.68,222.584 1641.39,231.319 1652.91,240.298 1664.24,249.517 1675.38,258.973 1686.31,268.66 1697.04,278.575 1707.56,288.713 1717.86,299.069 1727.94,309.641 
  1737.8,320.421 1747.43,331.406 1756.83,342.592 1765.99,353.972 1774.91,365.542 1783.58,377.297 1792,389.232 1800.18,401.341 1808.09,413.619 1815.75,426.061 
  1823.14,438.66 1830.27,451.413 1837.12,464.312 1843.71,477.353 1850.02,490.529 1856.05,503.834 1861.8,517.264 1867.26,530.811 1872.44,544.47 1877.34,558.235 
  1881.94,572.1 1886.25,586.058 1890.26,600.104 1893.98,614.231 1897.4,628.434 1900.52,642.704 1903.35,657.038 1905.87,671.427 1908.08,685.867 1910,700.349 
  1911.6,714.869 1912.91,729.419 1913.9,743.993 1914.59,758.586 1914.98,773.189 1915.06,787.797 1914.82,802.404 1914.29,817.003 1913.44,831.587 1912.29,846.15 
  1910.84,860.686 1909.08,875.188 1907.01,889.649 1904.64,904.064 1901.97,918.427 1899,932.73 1895.73,946.967 1892.16,961.132 1888.29,975.22 1884.13,989.222 
  1879.67,1003.13 1874.93,1016.95 1869.89,1030.66 1864.57,1044.27 1858.96,1057.76 1853.07,1071.12 1846.9,1084.37 1840.45,1097.48 1833.73,1110.45 1826.74,1123.27 
  1819.48,1135.95 1811.95,1148.47 1804.17,1160.83 1796.12,1173.03 1787.82,1185.05 1779.27,1196.89 1770.48,1208.56 1761.44,1220.03 1752.16,1231.32 1742.65,1242.4 
  1732.9,1253.29 1722.93,1263.96 1712.74,1274.43 1702.33,1284.67 1691.7,1294.7 1680.87,1304.5 1669.84,1314.07 1658.6,1323.41 1647.17,1332.51 1635.56,1341.37 
  1623.76,1349.98 1611.78,1358.34 1599.62,1366.45 1587.3,1374.3 1574.82,1381.89 1562.18,1389.22 1549.4,1396.28 1536.46,1403.07 1523.38,1409.58 1510.18,1415.82 
  1496.84,1421.78 1483.38,1427.46 1469.8,1432.86 1456.12,1437.96 1442.33,1442.78 1428.44,1447.31 1414.46,1451.55 1400.39,1455.49 1386.24,1459.13 1372.02,1462.48 
  1357.74,1465.53 1343.39,1468.28 1328.99,1470.72 1314.54,1472.86 1300.04,1474.7 1285.52,1476.23 1270.96,1477.46 1256.38,1478.38 1241.78,1478.99 1227.18,1479.3 
  1212.57,1479.3 1197.96,1478.99 1183.37,1478.38 1168.79,1477.46 1154.23,1476.23 1139.7,1474.7 1125.21,1472.86 1110.76,1470.72 1096.36,1468.28 1082.01,1465.53 
  1067.72,1462.48 1053.5,1459.13 1039.36,1455.49 1025.29,1451.55 1011.31,1447.31 997.421,1442.78 983.631,1437.96 969.945,1432.86 956.369,1427.46 942.909,1421.78 
  929.572,1415.82 916.363,1409.58 903.288,1403.07 890.353,1396.28 877.563,1389.22 864.925,1381.89 852.443,1374.3 840.124,1366.45 827.972,1358.34 815.993,1349.98 
  804.193,1341.37 792.576,1332.51 781.147,1323.41 769.913,1314.07 758.877,1304.5 748.045,1294.7 737.421,1284.67 727.01,1274.43 716.817,1263.96 706.846,1253.29 
  697.102,1242.4 687.588,1231.32 678.309,1220.03 669.27,1208.56 660.473,1196.89 651.924,1185.05 643.626,1173.03 635.581,1160.83 627.795,1148.47 620.271,1135.95 
  613.011,1123.27 606.019,1110.45 599.298,1097.48 592.851,1084.37 586.681,1071.12 580.791,1057.76 575.183,1044.27 569.859,1030.66 564.823,1016.95 560.076,1003.13 
  555.62,989.222 551.457,975.22 547.59,961.132 544.02,946.967 540.747,932.73 537.775,918.427 535.104,904.064 532.736,889.649 530.67,875.188 528.91,860.686 
  527.454,846.15 526.304,831.587 525.46,817.003 524.923,802.404 524.693,787.797 524.77,773.189 525.153,758.586 525.844,743.993 526.841,729.419 528.144,714.869 
  529.752,700.349 531.665,685.867 533.882,671.427 536.402,657.038 539.224,642.704 542.346,628.434 545.768,614.231 549.487,600.104 553.502,586.058 557.811,572.1 
  562.413,558.235 567.305,544.47 572.485,530.811 577.951,517.264 583.701,503.834 589.731,490.529 596.04,477.353 602.624,464.312 609.481,451.413 616.607,438.66 
  624,426.061 631.656,413.619 639.571,401.341 647.743,389.232 656.168,377.297 664.841,365.542 673.759,353.972 682.919,342.592 692.316,331.406 701.945,320.421 
  711.804,309.641 721.886,299.069 732.189,288.713 742.707,278.575 753.435,268.66 764.37,258.973 775.506,249.517 786.838,240.298 798.361,231.319 810.07,222.584 
  821.96,214.097 834.026,205.862 846.263,197.882 858.664,190.161 871.225,182.702 883.94,175.509 896.803,168.584 909.809,161.932 922.951,155.554 936.225,149.454 
  949.624,143.634 963.142,138.096 976.774,132.844 990.513,127.88 1004.35,123.206 1018.29,118.823 1032.31,114.734 1046.42,110.941 1060.61,107.445 1074.86,104.247 
  1089.18,101.35 1103.55,98.7549 1117.98,96.462 1132.45,94.4729 1146.96,92.7882 1161.51,91.4088 1176.08,90.3354 1190.67,89.5683 1205.27,89.1079 1219.87,88.9544 
  
  "/>
</svg>
