<?xml version="1.0" encoding="utf-8"?>
<svg xmlns="http://www.w3.org/2000/svg" xmlns:xlink="http://www.w3.org/1999/xlink" width="600" height="400" viewBox="0 0 2400 1600">
<defs>
  <clipPath id="clip750">
    <rect x="0" y="0" width="2400" height="1600"/>
  </clipPath>
</defs>
<path clip-path="url(#clip750)" d="
M0 1600 L2400 1600 L2400 0 L0 0  Z
  " fill="#ffffff" fill-rule="evenodd" fill-opacity="1"/>
<defs>
  <clipPath id="clip751">
    <rect x="480" y="0" width="1681" height="1600"/>
  </clipPath>
</defs>
<path clip-path="url(#clip750)" d="
M125.256 1486.45 L2352.76 1486.45 L2352.76 47.2441 L125.256 47.2441  Z
  " fill="#ffffff" fill-rule="evenodd" fill-opacity="1"/>
<defs>
  <clipPath id="clip752">
    <rect x="125" y="47" width="2229" height="1440"/>
  </clipPath>
</defs>
<polyline clip-path="url(#clip752)" style="stroke:#000000; stroke-width:2; stroke-opacity:0.1; fill:none" points="
  328.181,1486.45 328.181,47.2441 
  "/>
<polyline clip-path="url(#clip752)" style="stroke:#000000; stroke-width:2; stroke-opacity:0.1; fill:none" points="
  631.79,1486.45 631.79,47.2441 
  "/>
<polyline clip-path="url(#clip752)" style="stroke:#000000; stroke-width:2; stroke-opacity:0.1; fill:none" points="
  935.398,1486.45 935.398,47.2441 
  "/>
<polyline clip-path="url(#clip752)" style="stroke:#000000; stroke-width:2; stroke-opacity:0.1; fill:none" points="
  1239.01,1486.45 1239.01,47.2441 
  "/>
<polyline clip-path="url(#clip752)" style="stroke:#000000; stroke-width:2; stroke-opacity:0.1; fill:none" points="
  1542.61,1486.45 1542.61,47.2441 
  "/>
<polyline clip-path="url(#clip752)" style="stroke:#000000; stroke-width:2; stroke-opacity:0.1; fill:none" points="
  1846.22,1486.45 1846.22,47.2441 
  "/>
<polyline clip-path="url(#clip752)" style="stroke:#000000; stroke-width:2; stroke-opacity:0.1; fill:none" points="
  2149.83,1486.45 2149.83,47.2441 
  "/>
<polyline clip-path="url(#clip752)" style="stroke:#000000; stroke-width:2; stroke-opacity:0.1; fill:none" points="
  125.256,1374.08 2352.76,1374.08 
  "/>
<polyline clip-path="url(#clip752)" style="stroke:#000000; stroke-width:2; stroke-opacity:0.1; fill:none" points="
  125.256,1070.47 2352.76,1070.47 
  "/>
<polyline clip-path="url(#clip752)" style="stroke:#000000; stroke-width:2; stroke-opacity:0.1; fill:none" points="
  125.256,766.865 2352.76,766.865 
  "/>
<polyline clip-path="url(#clip752)" style="stroke:#000000; stroke-width:2; stroke-opacity:0.1; fill:none" points="
  125.256,463.257 2352.76,463.257 
  "/>
<polyline clip-path="url(#clip752)" style="stroke:#000000; stroke-width:2; stroke-opacity:0.1; fill:none" points="
  125.256,159.648 2352.76,159.648 
  "/>
<polyline clip-path="url(#clip750)" style="stroke:#000000; stroke-width:4; stroke-opacity:1; fill:none" points="
  125.256,1486.45 2352.76,1486.45 
  "/>
<polyline clip-path="url(#clip750)" style="stroke:#000000; stroke-width:4; stroke-opacity:1; fill:none" points="
  125.256,1486.45 125.256,47.2441 
  "/>
<polyline clip-path="url(#clip750)" style="stroke:#000000; stroke-width:4; stroke-opacity:1; fill:none" points="
  328.181,1486.45 328.181,1469.18 
  "/>
<polyline clip-path="url(#clip750)" style="stroke:#000000; stroke-width:4; stroke-opacity:1; fill:none" points="
  631.79,1486.45 631.79,1469.18 
  "/>
<polyline clip-path="url(#clip750)" style="stroke:#000000; stroke-width:4; stroke-opacity:1; fill:none" points="
  935.398,1486.45 935.398,1469.18 
  "/>
<polyline clip-path="url(#clip750)" style="stroke:#000000; stroke-width:4; stroke-opacity:1; fill:none" points="
  1239.01,1486.45 1239.01,1469.18 
  "/>
<polyline clip-path="url(#clip750)" style="stroke:#000000; stroke-width:4; stroke-opacity:1; fill:none" points="
  1542.61,1486.45 1542.61,1469.18 
  "/>
<polyline clip-path="url(#clip750)" style="stroke:#000000; stroke-width:4; stroke-opacity:1; fill:none" points="
  1846.22,1486.45 1846.22,1469.18 
  "/>
<polyline clip-path="url(#clip750)" style="stroke:#000000; stroke-width:4; stroke-opacity:1; fill:none" points="
  2149.83,1486.45 2149.83,1469.18 
  "/>
<polyline clip-path="url(#clip750)" style="stroke:#000000; stroke-width:4; stroke-opacity:1; fill:none" points="
  125.256,1374.08 151.986,1374.08 
  "/>
<polyline clip-path="url(#clip750)" style="stroke:#000000; stroke-width:4; stroke-opacity:1; fill:none" points="
  125.256,1070.47 151.986,1070.47 
  "/>
<polyline clip-path="url(#clip750)" style="stroke:#000000; stroke-width:4; stroke-opacity:1; fill:none" points="
  125.256,766.865 151.986,766.865 
  "/>
<polyline clip-path="url(#clip750)" style="stroke:#000000; stroke-width:4; stroke-opacity:1; fill:none" points="
  125.256,463.257 151.986,463.257 
  "/>
<polyline clip-path="url(#clip750)" style="stroke:#000000; stroke-width:4; stroke-opacity:1; fill:none" points="
  125.256,159.648 151.986,159.648 
  "/>
<path clip-path="url(#clip750)" d="M 0 0 M309.05 1525.04 L321.526 1525.04 L321.526 1528.83 L309.05 1528.83 L309.05 1525.04 Z" fill="#000000" fill-rule="evenodd" fill-opacity="1" /><path clip-path="url(#clip750)" d="M 0 0 M327.406 1535.98 L335.045 1535.98 L335.045 1509.62 L326.735 1511.29 L326.735 1507.03 L334.999 1505.36 L339.674 1505.36 L339.674 1535.98 L347.313 1535.98 L347.313 1539.92 L327.406 1539.92 L327.406 1535.98 Z" fill="#000000" fill-rule="evenodd" fill-opacity="1" /><path clip-path="url(#clip750)" d="M 0 0 M631.79 1508.44 Q628.178 1508.44 626.35 1512 Q624.544 1515.55 624.544 1522.67 Q624.544 1529.78 626.35 1533.35 Q628.178 1536.89 631.79 1536.89 Q635.424 1536.89 637.229 1533.35 Q639.058 1529.78 639.058 1522.67 Q639.058 1515.55 637.229 1512 Q635.424 1508.44 631.79 1508.44 M631.79 1504.73 Q637.6 1504.73 640.655 1509.34 Q643.734 1513.92 643.734 1522.67 Q643.734 1531.4 640.655 1536.01 Q637.6 1540.59 631.79 1540.59 Q625.979 1540.59 622.901 1536.01 Q619.845 1531.4 619.845 1522.67 Q619.845 1513.92 622.901 1509.34 Q625.979 1504.73 631.79 1504.73 Z" fill="#000000" fill-rule="evenodd" fill-opacity="1" /><path clip-path="url(#clip750)" d="M 0 0 M925.78 1535.98 L933.419 1535.98 L933.419 1509.62 L925.108 1511.29 L925.108 1507.03 L933.372 1505.36 L938.048 1505.36 L938.048 1535.98 L945.687 1535.98 L945.687 1539.92 L925.78 1539.92 L925.78 1535.98 Z" fill="#000000" fill-rule="evenodd" fill-opacity="1" /><path clip-path="url(#clip750)" d="M 0 0 M1233.66 1535.98 L1249.98 1535.98 L1249.98 1539.92 L1228.03 1539.92 L1228.03 1535.98 Q1230.7 1533.23 1235.28 1528.6 Q1239.89 1523.95 1241.07 1522.61 Q1243.31 1520.08 1244.19 1518.35 Q1245.09 1516.59 1245.09 1514.9 Q1245.09 1512.14 1243.15 1510.41 Q1241.23 1508.67 1238.13 1508.67 Q1235.93 1508.67 1233.47 1509.43 Q1231.04 1510.2 1228.27 1511.75 L1228.27 1507.03 Q1231.09 1505.89 1233.54 1505.31 Q1236 1504.73 1238.03 1504.73 Q1243.4 1504.73 1246.6 1507.42 Q1249.79 1510.11 1249.79 1514.6 Q1249.79 1516.73 1248.98 1518.65 Q1248.2 1520.54 1246.09 1523.14 Q1245.51 1523.81 1242.41 1527.03 Q1239.31 1530.22 1233.66 1535.98 Z" fill="#000000" fill-rule="evenodd" fill-opacity="1" /><path clip-path="url(#clip750)" d="M 0 0 M1546.86 1521.29 Q1550.22 1522 1552.09 1524.27 Q1553.99 1526.54 1553.99 1529.87 Q1553.99 1534.99 1550.47 1537.79 Q1546.95 1540.59 1540.47 1540.59 Q1538.3 1540.59 1535.98 1540.15 Q1533.69 1539.73 1531.24 1538.88 L1531.24 1534.36 Q1533.18 1535.5 1535.5 1536.08 Q1537.81 1536.66 1540.33 1536.66 Q1544.73 1536.66 1547.02 1534.92 Q1549.34 1533.18 1549.34 1529.87 Q1549.34 1526.82 1547.19 1525.11 Q1545.06 1523.37 1541.24 1523.37 L1537.21 1523.37 L1537.21 1519.53 L1541.42 1519.53 Q1544.87 1519.53 1546.7 1518.16 Q1548.53 1516.77 1548.53 1514.18 Q1548.53 1511.52 1546.63 1510.11 Q1544.76 1508.67 1541.24 1508.67 Q1539.32 1508.67 1537.12 1509.09 Q1534.92 1509.5 1532.28 1510.38 L1532.28 1506.22 Q1534.94 1505.48 1537.26 1505.11 Q1539.59 1504.73 1541.65 1504.73 Q1546.98 1504.73 1550.08 1507.17 Q1553.18 1509.57 1553.18 1513.69 Q1553.18 1516.56 1551.54 1518.55 Q1549.89 1520.52 1546.86 1521.29 Z" fill="#000000" fill-rule="evenodd" fill-opacity="1" /><path clip-path="url(#clip750)" d="M 0 0 M1849.23 1509.43 L1837.43 1527.88 L1849.23 1527.88 L1849.23 1509.43 M1848 1505.36 L1853.88 1505.36 L1853.88 1527.88 L1858.81 1527.88 L1858.81 1531.77 L1853.88 1531.77 L1853.88 1539.92 L1849.23 1539.92 L1849.23 1531.77 L1833.63 1531.77 L1833.63 1527.26 L1848 1505.36 Z" fill="#000000" fill-rule="evenodd" fill-opacity="1" /><path clip-path="url(#clip750)" d="M 0 0 M2140.11 1505.36 L2158.46 1505.36 L2158.46 1509.3 L2144.39 1509.3 L2144.39 1517.77 Q2145.41 1517.42 2146.43 1517.26 Q2147.45 1517.07 2148.46 1517.07 Q2154.25 1517.07 2157.63 1520.24 Q2161.01 1523.42 2161.01 1528.83 Q2161.01 1534.41 2157.54 1537.51 Q2154.07 1540.59 2147.75 1540.59 Q2145.57 1540.59 2143.3 1540.22 Q2141.06 1539.85 2138.65 1539.11 L2138.65 1534.41 Q2140.73 1535.54 2142.96 1536.1 Q2145.18 1536.66 2147.65 1536.66 Q2151.66 1536.66 2154 1534.55 Q2156.33 1532.44 2156.33 1528.83 Q2156.33 1525.22 2154 1523.11 Q2151.66 1521.01 2147.65 1521.01 Q2145.78 1521.01 2143.9 1521.42 Q2142.05 1521.84 2140.11 1522.72 L2140.11 1505.36 Z" fill="#000000" fill-rule="evenodd" fill-opacity="1" /><path clip-path="url(#clip750)" d="M 0 0 M62.9921 1376.48 L75.4689 1376.48 L75.4689 1380.27 L62.9921 1380.27 L62.9921 1376.48 Z" fill="#000000" fill-rule="evenodd" fill-opacity="1" /><path clip-path="url(#clip750)" d="M 0 0 M81.3485 1387.43 L88.9874 1387.43 L88.9874 1361.06 L80.6772 1362.73 L80.6772 1358.47 L88.9411 1356.8 L93.617 1356.8 L93.617 1387.43 L101.256 1387.43 L101.256 1391.36 L81.3485 1391.36 L81.3485 1387.43 Z" fill="#000000" fill-rule="evenodd" fill-opacity="1" /><path clip-path="url(#clip750)" d="M 0 0 M89.3114 1056.27 Q85.7003 1056.27 83.8716 1059.84 Q82.0661 1063.38 82.0661 1070.51 Q82.0661 1077.61 83.8716 1081.18 Q85.7003 1084.72 89.3114 1084.72 Q92.9457 1084.72 94.7512 1081.18 Q96.5799 1077.61 96.5799 1070.51 Q96.5799 1063.38 94.7512 1059.84 Q92.9457 1056.27 89.3114 1056.27 M89.3114 1052.57 Q95.1216 1052.57 98.1771 1057.17 Q101.256 1061.76 101.256 1070.51 Q101.256 1079.23 98.1771 1083.84 Q95.1216 1088.42 89.3114 1088.42 Q83.5013 1088.42 80.4226 1083.84 Q77.367 1079.23 77.367 1070.51 Q77.367 1061.76 80.4226 1057.17 Q83.5013 1052.57 89.3114 1052.57 Z" fill="#000000" fill-rule="evenodd" fill-opacity="1" /><path clip-path="url(#clip750)" d="M 0 0 M81.3485 780.21 L88.9874 780.21 L88.9874 753.844 L80.6772 755.511 L80.6772 751.251 L88.9411 749.585 L93.617 749.585 L93.617 780.21 L101.256 780.21 L101.256 784.145 L81.3485 784.145 L81.3485 780.21 Z" fill="#000000" fill-rule="evenodd" fill-opacity="1" /><path clip-path="url(#clip750)" d="M 0 0 M84.9365 476.601 L101.256 476.601 L101.256 480.537 L79.3115 480.537 L79.3115 476.601 Q81.9735 473.847 86.5568 469.217 Q91.1633 464.564 92.3438 463.222 Q94.5892 460.699 95.4688 458.963 Q96.3716 457.203 96.3716 455.514 Q96.3716 452.759 94.4271 451.023 Q92.5059 449.287 89.404 449.287 Q87.205 449.287 84.7513 450.051 Q82.3207 450.815 79.543 452.365 L79.543 447.643 Q82.367 446.509 84.8207 445.93 Q87.2744 445.352 89.3114 445.352 Q94.6818 445.352 97.8762 448.037 Q101.071 450.722 101.071 455.213 Q101.071 457.342 100.26 459.264 Q99.4734 461.162 97.3669 463.754 Q96.7882 464.426 93.6864 467.643 Q90.5846 470.838 84.9365 476.601 Z" fill="#000000" fill-rule="evenodd" fill-opacity="1" /><path clip-path="url(#clip750)" d="M 0 0 M94.1262 158.294 Q97.4827 159.012 99.3577 161.28 Q101.256 163.549 101.256 166.882 Q101.256 171.998 97.7373 174.799 Q94.2188 177.6 87.7374 177.6 Q85.5614 177.6 83.2466 177.16 Q80.955 176.743 78.5013 175.887 L78.5013 171.373 Q80.4457 172.507 82.7605 173.086 Q85.0753 173.665 87.5985 173.665 Q91.9966 173.665 94.2883 171.928 Q96.6031 170.192 96.6031 166.882 Q96.6031 163.827 94.4503 162.114 Q92.3207 160.378 88.5012 160.378 L84.4735 160.378 L84.4735 156.535 L88.6864 156.535 Q92.1355 156.535 93.9642 155.169 Q95.7929 153.78 95.7929 151.188 Q95.7929 148.526 93.8947 147.114 Q92.0197 145.679 88.5012 145.679 Q86.58 145.679 84.3809 146.095 Q82.1818 146.512 79.543 147.392 L79.543 143.225 Q82.205 142.484 84.5198 142.114 Q86.8577 141.743 88.9179 141.743 Q94.242 141.743 97.3438 144.174 Q100.446 146.581 100.446 150.702 Q100.446 153.572 98.8021 155.563 Q97.1586 157.53 94.1262 158.294 Z" fill="#000000" fill-rule="evenodd" fill-opacity="1" /><circle clip-path="url(#clip752)" cx="631.79" cy="1070.47" r="14" fill="#ff0000" fill-rule="evenodd" fill-opacity="1" stroke="#000000" stroke-opacity="1" stroke-width="3.2"/>
<circle clip-path="url(#clip752)" cx="935.398" cy="159.648" r="14" fill="#ff0000" fill-rule="evenodd" fill-opacity="1" stroke="#000000" stroke-opacity="1" stroke-width="3.2"/>
<circle clip-path="url(#clip752)" cx="1846.22" cy="463.257" r="14" fill="#ff0000" fill-rule="evenodd" fill-opacity="1" stroke="#000000" stroke-opacity="1" stroke-width="3.2"/>
<path clip-path="url(#clip750)" d="M 0 0 M631.79 999.91 L620.69 1030.01 L642.93 1030.01 L631.79 999.91 M627.172 991.849 L636.448 991.849 L659.498 1052.33 L650.991 1052.33 L645.482 1036.81 L618.219 1036.81 L612.71 1052.33 L604.081 1052.33 L627.172 991.849 Z" fill="#000000" fill-rule="evenodd" fill-opacity="1" /><path clip-path="url(#clip750)" d="M 0 0 M922.131 112.621 L922.131 134.78 L935.256 134.78 Q941.859 134.78 945.019 132.066 Q948.219 129.311 948.219 123.68 Q948.219 118.009 945.019 115.336 Q941.859 112.621 935.256 112.621 L922.131 112.621 M922.131 87.7489 L922.131 105.978 L934.243 105.978 Q940.239 105.978 943.155 103.75 Q946.112 101.482 946.112 96.8635 Q946.112 92.286 943.155 90.0174 Q940.239 87.7489 934.243 87.7489 L922.131 87.7489 M913.948 81.0244 L934.851 81.0244 Q944.208 81.0244 949.272 84.9133 Q954.336 88.8022 954.336 95.9723 Q954.336 101.522 951.743 104.803 Q949.151 108.084 944.127 108.895 Q950.163 110.191 953.485 114.323 Q956.847 118.414 956.847 124.572 Q956.847 132.673 951.338 137.089 Q945.829 141.504 935.661 141.504 L913.948 141.504 L913.948 81.0244 Z" fill="#000000" fill-rule="evenodd" fill-opacity="1" /><path clip-path="url(#clip750)" d="M 0 0 M1870.61 389.291 L1870.61 397.92 Q1866.48 394.071 1861.78 392.167 Q1857.12 390.263 1851.85 390.263 Q1841.48 390.263 1835.97 396.623 Q1830.46 402.943 1830.46 414.933 Q1830.46 426.884 1835.97 433.243 Q1841.48 439.563 1851.85 439.563 Q1857.12 439.563 1861.78 437.659 Q1866.48 435.755 1870.61 431.907 L1870.61 440.454 Q1866.31 443.371 1861.49 444.829 Q1856.71 446.287 1851.37 446.287 Q1837.63 446.287 1829.73 437.902 Q1821.84 429.476 1821.84 414.933 Q1821.84 400.35 1829.73 391.965 Q1837.63 383.539 1851.37 383.539 Q1856.8 383.539 1861.58 384.997 Q1866.4 386.415 1870.61 389.291 Z" fill="#000000" fill-rule="evenodd" fill-opacity="1" /><path clip-path="url(#clip752)" d="
M1239.01 87.9763 L1253.27 88.1262 L1267.53 88.5758 L1281.78 89.3249 L1296 90.3732 L1310.21 91.7202 L1324.38 93.3653 L1338.51 95.3079 L1352.6 97.547 L1366.64 100.082 
  L1380.62 102.911 L1394.54 106.033 L1408.39 109.447 L1422.17 113.151 L1435.86 117.144 L1449.47 121.424 L1462.99 125.989 L1476.4 130.837 L1489.72 135.966 L1502.92 141.373 
  L1516 147.057 L1528.97 153.014 L1541.8 159.242 L1554.5 165.739 L1567.06 172.501 L1579.48 179.525 L1591.75 186.809 L1603.86 194.349 L1615.81 202.142 L1627.59 210.184 
  L1639.2 218.472 L1650.63 227.002 L1661.89 235.771 L1672.95 244.774 L1683.83 254.007 L1694.51 263.467 L1704.98 273.15 L1715.25 283.05 L1725.32 293.164 L1735.16 303.487 
  L1744.79 314.015 L1754.19 324.743 L1763.37 335.666 L1772.31 346.779 L1781.02 358.078 L1789.49 369.557 L1797.72 381.212 L1805.7 393.037 L1813.43 405.027 L1820.91 417.177 
  L1828.13 429.482 L1835.08 441.935 L1841.78 454.532 L1848.21 467.267 L1854.37 480.134 L1860.26 493.127 L1865.88 506.242 L1871.21 519.471 L1876.27 532.81 L1881.05 546.252 
  L1885.54 559.792 L1889.75 573.423 L1893.67 587.14 L1897.3 600.935 L1900.65 614.805 L1903.69 628.741 L1906.45 642.738 L1908.91 656.79 L1911.08 670.891 L1912.94 685.034 
  L1914.52 699.213 L1915.79 713.422 L1916.76 727.655 L1917.44 741.905 L1917.81 756.166 L1917.88 770.431 L1917.66 784.695 L1917.14 798.952 L1916.31 813.194 L1915.19 827.415 
  L1913.77 841.61 L1912.05 855.772 L1910.03 869.895 L1907.72 883.972 L1905.11 897.997 L1902.21 911.965 L1899.01 925.868 L1895.52 939.701 L1891.75 953.458 L1887.68 967.133 
  L1883.33 980.719 L1878.7 994.211 L1873.78 1007.6 L1868.58 1020.89 L1863.1 1034.06 L1857.35 1047.11 L1851.32 1060.05 L1845.03 1072.85 L1838.47 1085.51 L1831.64 1098.04 
  L1824.55 1110.42 L1817.2 1122.65 L1809.6 1134.72 L1801.74 1146.63 L1793.64 1158.37 L1785.29 1169.93 L1776.7 1181.32 L1767.87 1192.53 L1758.81 1203.55 L1749.52 1214.38 
  L1740 1225 L1730.27 1235.43 L1720.31 1245.65 L1710.15 1255.66 L1699.77 1265.45 L1689.19 1275.02 L1678.42 1284.37 L1667.44 1293.49 L1656.28 1302.37 L1644.94 1311.02 
  L1633.42 1319.43 L1621.72 1327.6 L1609.85 1335.52 L1597.82 1343.18 L1585.63 1350.59 L1573.29 1357.75 L1560.8 1364.64 L1548.17 1371.27 L1535.4 1377.64 L1522.5 1383.73 
  L1509.48 1389.55 L1496.33 1395.09 L1483.07 1400.36 L1469.71 1405.35 L1456.24 1410.06 L1442.68 1414.48 L1429.03 1418.62 L1415.29 1422.47 L1401.47 1426.03 L1387.59 1429.29 
  L1373.64 1432.27 L1359.62 1434.95 L1345.56 1437.34 L1331.45 1439.43 L1317.3 1441.22 L1303.11 1442.72 L1288.89 1443.92 L1274.65 1444.82 L1260.4 1445.42 L1246.14 1445.72 
  L1231.87 1445.72 L1217.61 1445.42 L1203.36 1444.82 L1189.12 1443.92 L1174.9 1442.72 L1160.72 1441.22 L1146.56 1439.43 L1132.45 1437.34 L1118.39 1434.95 L1104.38 1432.27 
  L1090.42 1429.29 L1076.54 1426.03 L1062.72 1422.47 L1048.99 1418.62 L1035.33 1414.48 L1021.77 1410.06 L1008.3 1405.35 L994.937 1400.36 L981.68 1395.09 L968.536 1389.55 
  L955.512 1383.73 L942.612 1377.64 L929.844 1371.27 L917.212 1364.64 L904.722 1357.75 L892.38 1350.59 L880.191 1343.18 L868.161 1335.52 L856.294 1327.6 L844.596 1319.43 
  L833.072 1311.02 L821.728 1302.37 L810.568 1293.49 L799.597 1284.37 L788.82 1275.02 L778.241 1265.45 L767.867 1255.66 L757.7 1245.65 L747.746 1235.43 L738.009 1225 
  L728.493 1214.38 L719.202 1203.55 L710.141 1192.53 L701.313 1181.32 L692.723 1169.93 L684.374 1158.37 L676.27 1146.63 L668.415 1134.72 L660.812 1122.65 L653.463 1110.42 
  L646.374 1098.04 L639.546 1085.51 L632.982 1072.85 L626.687 1060.05 L620.662 1047.11 L614.909 1034.06 L609.433 1020.89 L604.234 1007.6 L599.316 994.211 L594.68 980.719 
  L590.329 967.133 L586.264 953.458 L582.487 939.701 L579 925.868 L575.805 911.965 L572.902 897.997 L570.294 883.972 L567.981 869.895 L565.964 855.772 L564.245 841.61 
  L562.823 827.415 L561.7 813.194 L560.876 798.952 L560.352 784.695 L560.127 770.431 L560.202 756.166 L560.576 741.905 L561.251 727.655 L562.224 713.422 L563.497 699.213 
  L565.067 685.034 L566.936 670.891 L569.101 656.79 L571.561 642.738 L574.317 628.741 L577.366 614.805 L580.707 600.935 L584.339 587.14 L588.26 573.423 L592.469 559.792 
  L596.962 546.252 L601.74 532.81 L606.799 519.471 L612.136 506.242 L617.751 493.127 L623.64 480.134 L629.801 467.267 L636.231 454.532 L642.927 441.935 L649.886 429.482 
  L657.105 417.177 L664.582 405.027 L672.311 393.037 L680.292 381.212 L688.518 369.557 L696.988 358.078 L705.698 346.779 L714.642 335.666 L723.819 324.743 L733.223 314.015 
  L742.85 303.487 L752.696 293.164 L762.757 283.05 L773.028 273.15 L783.505 263.467 L794.183 254.007 L805.058 244.774 L816.124 235.771 L827.377 227.002 L838.812 218.472 
  L850.423 210.184 L862.206 202.142 L874.156 194.349 L886.266 186.809 L898.533 179.525 L910.949 172.501 L923.511 165.739 L936.211 159.242 L949.046 153.014 L962.008 147.057 
  L975.093 141.373 L988.295 135.966 L1001.61 130.837 L1015.02 125.989 L1028.54 121.424 L1042.15 117.144 L1055.84 113.151 L1069.62 109.447 L1083.47 106.033 L1097.39 102.911 
  L1111.37 100.082 L1125.41 97.547 L1139.5 95.3079 L1153.64 93.3653 L1167.81 91.7202 L1182.01 90.3732 L1196.24 89.3249 L1210.48 88.5758 L1224.74 88.1262 L1239.01 87.9763 
  L1239.01 1070.47 L1224.74 1070.47 L1210.48 1070.47 L1196.24 1070.47 L1182.01 1070.47 L1167.81 1070.47 L1153.64 1070.47 L1139.5 1070.47 L1125.41 1070.47 L1111.37 1070.47 
  L1097.39 1070.47 L1083.47 1070.47 L1069.62 1070.47 L1055.84 1070.47 L1042.15 1070.47 L1028.54 1070.47 L1015.02 1070.47 L1001.61 1070.47 L988.295 1070.47 L975.093 1070.47 
  L962.008 1070.47 L949.046 1070.47 L936.211 1070.47 L923.511 1070.47 L910.949 1070.47 L898.533 1070.47 L886.266 1070.47 L874.156 1070.47 L862.206 1070.47 L850.423 1070.47 
  L838.812 1070.47 L827.377 1070.47 L816.124 1070.47 L805.058 1070.47 L794.183 1070.47 L783.505 1070.47 L773.028 1070.47 L762.757 1070.47 L752.696 1070.47 L742.85 1070.47 
  L733.223 1070.47 L723.819 1070.47 L714.642 1070.47 L705.698 1070.47 L696.988 1070.47 L688.518 1070.47 L680.292 1070.47 L672.311 1070.47 L664.582 1070.47 L657.105 1070.47 
  L649.886 1070.47 L642.927 1070.47 L636.231 1070.47 L629.801 1070.47 L623.64 1070.47 L617.751 1070.47 L612.136 1070.47 L606.799 1070.47 L601.74 1070.47 L596.962 1070.47 
  L592.469 1070.47 L588.26 1070.47 L584.339 1070.47 L580.707 1070.47 L577.366 1070.47 L574.317 1070.47 L571.561 1070.47 L569.101 1070.47 L566.936 1070.47 L565.067 1070.47 
  L563.497 1070.47 L562.224 1070.47 L561.251 1070.47 L560.576 1070.47 L560.202 1070.47 L560.127 1070.47 L560.352 1070.47 L560.876 1070.47 L561.7 1070.47 L562.823 1070.47 
  L564.245 1070.47 L565.964 1070.47 L567.981 1070.47 L570.294 1070.47 L572.902 1070.47 L575.805 1070.47 L579 1070.47 L582.487 1070.47 L586.264 1070.47 L590.329 1070.47 
  L594.68 1070.47 L599.316 1070.47 L604.234 1070.47 L609.433 1070.47 L614.909 1070.47 L620.662 1070.47 L626.687 1070.47 L632.982 1070.47 L639.546 1070.47 L646.374 1070.47 
  L653.463 1070.47 L660.812 1070.47 L668.415 1070.47 L676.27 1070.47 L684.374 1070.47 L692.723 1070.47 L701.313 1070.47 L710.141 1070.47 L719.202 1070.47 L728.493 1070.47 
  L738.009 1070.47 L747.746 1070.47 L757.7 1070.47 L767.867 1070.47 L778.241 1070.47 L788.82 1070.47 L799.597 1070.47 L810.568 1070.47 L821.728 1070.47 L833.072 1070.47 
  L844.596 1070.47 L856.294 1070.47 L868.161 1070.47 L880.191 1070.47 L892.38 1070.47 L904.722 1070.47 L917.212 1070.47 L929.844 1070.47 L942.612 1070.47 L955.512 1070.47 
  L968.536 1070.47 L981.68 1070.47 L994.937 1070.47 L1008.3 1070.47 L1021.77 1070.47 L1035.33 1070.47 L1048.99 1070.47 L1062.72 1070.47 L1076.54 1070.47 L1090.42 1070.47 
  L1104.38 1070.47 L1118.39 1070.47 L1132.45 1070.47 L1146.56 1070.47 L1160.72 1070.47 L1174.9 1070.47 L1189.12 1070.47 L1203.36 1070.47 L1217.61 1070.47 L1231.87 1070.47 
  L1246.14 1070.47 L1260.4 1070.47 L1274.65 1070.47 L1288.89 1070.47 L1303.11 1070.47 L1317.3 1070.47 L1331.45 1070.47 L1345.56 1070.47 L1359.62 1070.47 L1373.64 1070.47 
  L1387.59 1070.47 L1401.47 1070.47 L1415.29 1070.47 L1429.03 1070.47 L1442.68 1070.47 L1456.24 1070.47 L1469.71 1070.47 L1483.07 1070.47 L1496.33 1070.47 L1509.48 1070.47 
  L1522.5 1070.47 L1535.4 1070.47 L1548.17 1070.47 L1560.8 1070.47 L1573.29 1070.47 L1585.63 1070.47 L1597.82 1070.47 L1609.85 1070.47 L1621.72 1070.47 L1633.42 1070.47 
  L1644.94 1070.47 L1656.28 1070.47 L1667.44 1070.47 L1678.42 1070.47 L1689.19 1070.47 L1699.77 1070.47 L1710.15 1070.47 L1720.31 1070.47 L1730.27 1070.47 L1740 1070.47 
  L1749.52 1070.47 L1758.81 1070.47 L1767.87 1070.47 L1776.7 1070.47 L1785.29 1070.47 L1793.64 1070.47 L1801.74 1070.47 L1809.6 1070.47 L1817.2 1070.47 L1824.55 1070.47 
  L1831.64 1070.47 L1838.47 1070.47 L1845.03 1070.47 L1851.32 1070.47 L1857.35 1070.47 L1863.1 1070.47 L1868.58 1070.47 L1873.78 1070.47 L1878.7 1070.47 L1883.33 1070.47 
  L1887.68 1070.47 L1891.75 1070.47 L1895.52 1070.47 L1899.01 1070.47 L1902.21 1070.47 L1905.11 1070.47 L1907.72 1070.47 L1910.03 1070.47 L1912.05 1070.47 L1913.77 1070.47 
  L1915.19 1070.47 L1916.31 1070.47 L1917.14 1070.47 L1917.66 1070.47 L1917.88 1070.47 L1917.81 1070.47 L1917.44 1070.47 L1916.76 1070.47 L1915.79 1070.47 L1914.52 1070.47 
  L1912.94 1070.47 L1911.08 1070.47 L1908.91 1070.47 L1906.45 1070.47 L1903.69 1070.47 L1900.65 1070.47 L1897.3 1070.47 L1893.67 1070.47 L1889.75 1070.47 L1885.54 1070.47 
  L1881.05 1070.47 L1876.27 1070.47 L1871.21 1070.47 L1865.88 1070.47 L1860.26 1070.47 L1854.37 1070.47 L1848.21 1070.47 L1841.78 1070.47 L1835.08 1070.47 L1828.13 1070.47 
  L1820.91 1070.47 L1813.43 1070.47 L1805.7 1070.47 L1797.72 1070.47 L1789.49 1070.47 L1781.02 1070.47 L1772.31 1070.47 L1763.37 1070.47 L1754.19 1070.47 L1744.79 1070.47 
  L1735.16 1070.47 L1725.32 1070.47 L1715.25 1070.47 L1704.98 1070.47 L1694.51 1070.47 L1683.83 1070.47 L1672.95 1070.47 L1661.89 1070.47 L1650.63 1070.47 L1639.2 1070.47 
  L1627.59 1070.47 L1615.81 1070.47 L1603.86 1070.47 L1591.75 1070.47 L1579.48 1070.47 L1567.06 1070.47 L1554.5 1070.47 L1541.8 1070.47 L1528.97 1070.47 L1516 1070.47 
  L1502.92 1070.47 L1489.72 1070.47 L1476.4 1070.47 L1462.99 1070.47 L1449.47 1070.47 L1435.86 1070.47 L1422.17 1070.47 L1408.39 1070.47 L1394.54 1070.47 L1380.62 1070.47 
  L1366.64 1070.47 L1352.6 1070.47 L1338.51 1070.47 L1324.38 1070.47 L1310.21 1070.47 L1296 1070.47 L1281.78 1070.47 L1267.53 1070.47 L1253.27 1070.47 L1239.01 1070.47 
   Z
  " fill="#ffa500" fill-rule="evenodd" fill-opacity="0.2"/>
<polyline clip-path="url(#clip752)" style="stroke:#e26f46; stroke-width:4; stroke-opacity:1; fill:none" points="
  1239.01,87.9763 1253.27,88.1262 1267.53,88.5758 1281.78,89.3249 1296,90.3732 1310.21,91.7202 1324.38,93.3653 1338.51,95.3079 1352.6,97.547 1366.64,100.082 
  1380.62,102.911 1394.54,106.033 1408.39,109.447 1422.17,113.151 1435.86,117.144 1449.47,121.424 1462.99,125.989 1476.4,130.837 1489.72,135.966 1502.92,141.373 
  1516,147.057 1528.97,153.014 1541.8,159.242 1554.5,165.739 1567.06,172.501 1579.48,179.525 1591.75,186.809 1603.86,194.349 1615.81,202.142 1627.59,210.184 
  1639.2,218.472 1650.63,227.002 1661.89,235.771 1672.95,244.774 1683.83,254.007 1694.51,263.467 1704.98,273.15 1715.25,283.05 1725.32,293.164 1735.16,303.487 
  1744.79,314.015 1754.19,324.743 1763.37,335.666 1772.31,346.779 1781.02,358.078 1789.49,369.557 1797.72,381.212 1805.7,393.037 1813.43,405.027 1820.91,417.177 
  1828.13,429.482 1835.08,441.935 1841.78,454.532 1848.21,467.267 1854.37,480.134 1860.26,493.127 1865.88,506.242 1871.21,519.471 1876.27,532.81 1881.05,546.252 
  1885.54,559.792 1889.75,573.423 1893.67,587.14 1897.3,600.935 1900.65,614.805 1903.69,628.741 1906.45,642.738 1908.91,656.79 1911.08,670.891 1912.94,685.034 
  1914.52,699.213 1915.79,713.422 1916.76,727.655 1917.44,741.905 1917.81,756.166 1917.88,770.431 1917.66,784.695 1917.14,798.952 1916.31,813.194 1915.19,827.415 
  1913.77,841.61 1912.05,855.772 1910.03,869.895 1907.72,883.972 1905.11,897.997 1902.21,911.965 1899.01,925.868 1895.52,939.701 1891.75,953.458 1887.68,967.133 
  1883.33,980.719 1878.7,994.211 1873.78,1007.6 1868.58,1020.89 1863.1,1034.06 1857.35,1047.11 1851.32,1060.05 1845.03,1072.85 1838.47,1085.51 1831.64,1098.04 
  1824.55,1110.42 1817.2,1122.65 1809.6,1134.72 1801.74,1146.63 1793.64,1158.37 1785.29,1169.93 1776.7,1181.32 1767.87,1192.53 1758.81,1203.55 1749.52,1214.38 
  1740,1225 1730.27,1235.43 1720.31,1245.65 1710.15,1255.66 1699.77,1265.45 1689.19,1275.02 1678.42,1284.37 1667.44,1293.49 1656.28,1302.37 1644.94,1311.02 
  1633.42,1319.43 1621.72,1327.6 1609.85,1335.52 1597.82,1343.18 1585.63,1350.59 1573.29,1357.75 1560.8,1364.64 1548.17,1371.27 1535.4,1377.64 1522.5,1383.73 
  1509.48,1389.55 1496.33,1395.09 1483.07,1400.36 1469.71,1405.35 1456.24,1410.06 1442.68,1414.48 1429.03,1418.62 1415.29,1422.47 1401.47,1426.03 1387.59,1429.29 
  1373.64,1432.27 1359.62,1434.95 1345.56,1437.34 1331.45,1439.43 1317.3,1441.22 1303.11,1442.72 1288.89,1443.92 1274.65,1444.82 1260.4,1445.42 1246.14,1445.72 
  1231.87,1445.72 1217.61,1445.42 1203.36,1444.82 1189.12,1443.92 1174.9,1442.72 1160.72,1441.22 1146.56,1439.43 1132.45,1437.34 1118.39,1434.95 1104.38,1432.27 
  1090.42,1429.29 1076.54,1426.03 1062.72,1422.47 1048.99,1418.62 1035.33,1414.48 1021.77,1410.06 1008.3,1405.35 994.937,1400.36 981.68,1395.09 968.536,1389.55 
  955.512,1383.73 942.612,1377.64 929.844,1371.27 917.212,1364.64 904.722,1357.75 892.38,1350.59 880.191,1343.18 868.161,1335.52 856.294,1327.6 844.596,1319.43 
  833.072,1311.02 821.728,1302.37 810.568,1293.49 799.597,1284.37 788.82,1275.02 778.241,1265.45 767.867,1255.66 757.7,1245.65 747.746,1235.43 738.009,1225 
  728.493,1214.38 719.202,1203.55 710.141,1192.53 701.313,1181.32 692.723,1169.93 684.374,1158.37 676.27,1146.63 668.415,1134.72 660.812,1122.65 653.463,1110.42 
  646.374,1098.04 639.546,1085.51 632.982,1072.85 626.687,1060.05 620.662,1047.11 614.909,1034.06 609.433,1020.89 604.234,1007.6 599.316,994.211 594.68,980.719 
  590.329,967.133 586.264,953.458 582.487,939.701 579,925.868 575.805,911.965 572.902,897.997 570.294,883.972 567.981,869.895 565.964,855.772 564.245,841.61 
  562.823,827.415 561.7,813.194 560.876,798.952 560.352,784.695 560.127,770.431 560.202,756.166 560.576,741.905 561.251,727.655 562.224,713.422 563.497,699.213 
  565.067,685.034 566.936,670.891 569.101,656.79 571.561,642.738 574.317,628.741 577.366,614.805 580.707,600.935 584.339,587.14 588.26,573.423 592.469,559.792 
  596.962,546.252 601.74,532.81 606.799,519.471 612.136,506.242 617.751,493.127 623.64,480.134 629.801,467.267 636.231,454.532 642.927,441.935 649.886,429.482 
  657.105,417.177 664.582,405.027 672.311,393.037 680.292,381.212 688.518,369.557 696.988,358.078 705.698,346.779 714.642,335.666 723.819,324.743 733.223,314.015 
  742.85,303.487 752.696,293.164 762.757,283.05 773.028,273.15 783.505,263.467 794.183,254.007 805.058,244.774 816.124,235.771 827.377,227.002 838.812,218.472 
  850.423,210.184 862.206,202.142 874.156,194.349 886.266,186.809 898.533,179.525 910.949,172.501 923.511,165.739 936.211,159.242 949.046,153.014 962.008,147.057 
  975.093,141.373 988.295,135.966 1001.61,130.837 1015.02,125.989 1028.54,121.424 1042.15,117.144 1055.84,113.151 1069.62,109.447 1083.47,106.033 1097.39,102.911 
  1111.37,100.082 1125.41,97.547 1139.5,95.3079 1153.64,93.3653 1167.81,91.7202 1182.01,90.3732 1196.24,89.3249 1210.48,88.5758 1224.74,88.1262 1239.01,87.9763 
  
  "/>
</svg>
