<?xml version="1.0" encoding="UTF-8" standalone="no"?>
<svg
   xmlns:dc="http://purl.org/dc/elements/1.1/"
   xmlns:cc="http://creativecommons.org/ns#"
   xmlns:rdf="http://www.w3.org/1999/02/22-rdf-syntax-ns#"
   xmlns:svg="http://www.w3.org/2000/svg"
   xmlns="http://www.w3.org/2000/svg"
   xmlns:sodipodi="http://sodipodi.sourceforge.net/DTD/sodipodi-0.dtd"
   xmlns:inkscape="http://www.inkscape.org/namespaces/inkscape"
   width="315.72003"
   height="359.80148"
   viewBox="0 0 1262.8801 1439.206"
   version="1.1"
   id="svg135"
   sodipodi:docname="PlaneGeometry-footer.svg"
   inkscape:version="0.92.3 (2405546, 2018-03-11)">
  <metadata
     id="metadata139">
    <rdf:RDF>
      <cc:Work
         rdf:about="">
        <dc:format>image/svg+xml</dc:format>
        <dc:type
           rdf:resource="http://purl.org/dc/dcmitype/StillImage" />
        <dc:title></dc:title>
      </cc:Work>
    </rdf:RDF>
  </metadata>
  <sodipodi:namedview
     pagecolor="#ffffff"
     bordercolor="#666666"
     borderopacity="1"
     objecttolerance="10"
     gridtolerance="10"
     guidetolerance="10"
     inkscape:pageopacity="0"
     inkscape:pageshadow="2"
     inkscape:window-width="1920"
     inkscape:window-height="1052"
     id="namedview137"
     showgrid="false"
     inkscape:zoom="1.14"
     inkscape:cx="338.6095"
     inkscape:cy="228.37107"
     inkscape:window-x="0"
     inkscape:window-y="0"
     inkscape:window-maximized="1"
     inkscape:current-layer="svg135"
     fit-margin-top="0"
     fit-margin-left="0"
     fit-margin-right="0"
     fit-margin-bottom="0"
     inkscape:pagecheckerboard="true" />
  <defs
     id="defs5">
    <clipPath
       id="clip1300">
      <rect
         x="0"
         y="0"
         width="2400"
         height="1600"
         id="rect2" />
    </clipPath>
  </defs>
  <defs
     id="defs12">
    <clipPath
       id="clip1301">
      <rect
         x="480"
         y="0"
         width="1681"
         height="1600"
         id="rect9" />
    </clipPath>
  </defs>
  <defs
     id="defs19">
    <clipPath
       id="clip1302">
      <rect
         x="124"
         y="47"
         width="2229"
         height="1440"
         id="rect16" />
    </clipPath>
  </defs>
  <polyline
     clip-path="url(#clip1302)"
     style="fill:none;stroke:#000000;stroke-width:2;stroke-opacity:0.1"
     points="   1669.73,1486.45 1669.73,47.2441    "
     id="polyline29"
     transform="translate(-607.37992,-47.2441)" />
  <path
     clip-path="url(#clip1302)"
     d="m 984.72,977.077 171.25,-513.756 513.76,171.252 z"
     id="path91"
     inkscape:connector-curvature="0"
     style="fill:#008000;fill-opacity:0.2;fill-rule:evenodd"
     transform="translate(-607.37992,-47.2441)" />
  <polyline
     clip-path="url(#clip1302)"
     style="fill:none;stroke:#000000;stroke-width:4;stroke-opacity:1"
     points="   984.72,977.077 1155.97,463.321 1669.73,634.573 984.72,977.077    "
     id="polyline93"
     transform="translate(-607.37992,-47.2441)" />
  <circle
     clip-path="url(#clip1302)"
     cx="984.71997"
     cy="977.07703"
     r="14"
     id="circle95"
     style="fill:#ff0000;fill-opacity:1;fill-rule:evenodd;stroke:#000000;stroke-width:3.20000005;stroke-opacity:1"
     transform="translate(-607.37992,-47.2441)" />
  <circle
     clip-path="url(#clip1302)"
     cx="1155.97"
     cy="463.32101"
     r="14"
     id="circle97"
     style="fill:#ff0000;fill-opacity:1;fill-rule:evenodd;stroke:#000000;stroke-width:3.20000005;stroke-opacity:1"
     transform="translate(-607.37992,-47.2441)" />
  <circle
     clip-path="url(#clip1302)"
     cx="1669.73"
     cy="634.573"
     r="14"
     id="circle99"
     style="fill:#ff0000;fill-opacity:1;fill-rule:evenodd;stroke:#000000;stroke-width:3.20000005;stroke-opacity:1"
     transform="translate(-607.37992,-47.2441)" />
  <path
     clip-path="url(#clip1300)"
     d="m 0,0 m 984.72,906.514 -11.099,30.098 h 22.239 l -11.14,-30.098 m -4.618,-8.061 h 9.277 l 23.051,60.48 h -8.51 l -5.508,-15.515 H 971.15 l -5.509,15.515 h -8.629 z"
     id="path101"
     inkscape:connector-curvature="0"
     style="fill:#000000;fill-opacity:1;fill-rule:evenodd"
     transform="translate(-607.37992,-47.2441)" />
  <path
     clip-path="url(#clip1300)"
     d="m 0,0 m 1142.71,416.294 v 22.158 h 13.12 q 6.6,0 9.76,-2.714 3.2,-2.754 3.2,-8.385 0,-5.672 -3.2,-8.345 -3.16,-2.714 -9.76,-2.714 h -13.12 m 0,-24.873 v 18.229 h 12.11 q 5.99,0 8.91,-2.228 2.96,-2.268 2.96,-6.886 0,-4.578 -2.96,-6.846 -2.92,-2.269 -8.91,-2.269 h -12.11 m -8.19,-6.724 h 20.91 q 9.35,0 14.42,3.889 5.06,3.888 5.06,11.059 0,5.549 -2.59,8.831 -2.59,3.281 -7.62,4.091 6.04,1.296 9.36,5.428 3.36,4.092 3.36,10.249 0,8.102 -5.51,12.517 -5.51,4.416 -15.67,4.416 h -21.72 z"
     id="path103"
     inkscape:connector-curvature="0"
     style="fill:#000000;fill-opacity:1;fill-rule:evenodd"
     transform="translate(-607.37992,-47.2441)" />
  <path
     clip-path="url(#clip1300)"
     d="m 0,0 m 1694.11,560.607 v 8.629 q -4.13,-3.849 -8.83,-5.753 -4.65,-1.904 -9.92,-1.904 -10.37,0 -15.88,6.36 -5.51,6.32 -5.51,18.31 0,11.951 5.51,18.311 5.51,6.319 15.88,6.319 5.27,0 9.92,-1.904 4.7,-1.904 8.83,-5.752 v 8.547 q -4.29,2.917 -9.11,4.375 -4.78,1.458 -10.13,1.458 -13.73,0 -21.63,-8.385 -7.9,-8.426 -7.9,-22.969 0,-14.583 7.9,-22.968 7.9,-8.426 21.63,-8.426 5.43,0 10.21,1.458 4.82,1.418 9.03,4.294 z"
     id="path105"
     inkscape:connector-curvature="0"
     style="fill:#000000;fill-opacity:1;fill-rule:evenodd"
     transform="translate(-607.37992,-47.2441)" />
  <path
     clip-path="url(#clip1302)"
     d="M 984.72,977.077 1155.97,463.321 625.421,571.89 Z"
     id="path107"
     inkscape:connector-curvature="0"
     style="fill:#ffc0cb;fill-opacity:0.7;fill-rule:evenodd"
     transform="translate(-607.37992,-47.2441)" />
  <polyline
     clip-path="url(#clip1302)"
     style="fill:none;stroke:#000000;stroke-width:4;stroke-opacity:1"
     points="   984.72,977.077 1155.97,463.321 625.421,571.89 984.72,977.077    "
     id="polyline109"
     transform="translate(-607.37992,-47.2441)" />
  <path
     clip-path="url(#clip1302)"
     d="M 1669.73,634.573 984.72,977.077 1623.84,1399.06 Z"
     id="path111"
     inkscape:connector-curvature="0"
     style="fill:#ffc0cb;fill-opacity:0.7;fill-rule:evenodd"
     transform="translate(-607.37992,-47.2441)" />
  <polyline
     clip-path="url(#clip1302)"
     style="fill:none;stroke:#000000;stroke-width:4;stroke-opacity:1"
     points="   1669.73,634.573 984.72,977.077 1623.84,1399.06 1669.73,634.573    "
     id="polyline113"
     transform="translate(-607.37992,-47.2441)" />
  <path
     clip-path="url(#clip1302)"
     d="M 1155.97,463.321 1669.73,634.573 1561.16,104.021 Z"
     id="path115"
     inkscape:connector-curvature="0"
     style="fill:#ffc0cb;fill-opacity:0.7;fill-rule:evenodd"
     transform="translate(-607.37992,-47.2441)" />
  <polyline
     clip-path="url(#clip1302)"
     style="fill:none;stroke:#000000;stroke-width:4;stroke-opacity:1"
     points="   1155.97,463.321 1669.73,634.573 1561.16,104.021 1155.97,463.321    "
     id="polyline117"
     transform="translate(-607.37992,-47.2441)" />
  <path
     clip-path="url(#clip1302)"
     d="m 922.038,358.101 6.57,0.069 6.566,0.207 6.562,0.345 6.552,0.483 6.541,0.62 6.526,0.758 6.509,0.894 6.489,1.031 6.465,1.168 6.44,1.303 6.411,1.438 6.381,1.572 6.34,1.706 6.31,1.839 6.27,1.971 6.22,2.102 6.18,2.233 6.13,2.362 6.08,2.491 6.03,2.617 5.97,2.744 5.91,2.868 5.85,2.992 5.78,3.114 5.72,3.236 5.65,3.354 5.58,3.473 5.5,3.589 5.43,3.703 5.35,3.817 5.26,3.929 5.19,4.038 5.09,4.147 5.01,4.252 4.92,4.357 4.82,4.459 4.73,4.56 4.64,4.658 4.53,4.754 4.44,4.849 4.33,4.94 4.22,5.031 4.12,5.118 4.01,5.204 3.9,5.287 3.79,5.367 3.68,5.446 3.56,5.522 3.44,5.596 3.33,5.667 3.2,5.735 3.09,5.802 2.96,5.865 2.83,5.926 2.72,5.984 2.58,6.04 2.46,6.093 2.33,6.143 2.2,6.191 2.07,6.235 1.94,6.278 1.8,6.317 1.68,6.354 1.54,6.387 1.4,6.419 1.27,6.446 1.13,6.472 1,6.494 0.86,6.513 0.72,6.53 0.59,6.544 0.45,6.555 0.31,6.563 0.17,6.568 0.04,6.57 -0.11,6.569 -0.24,6.566 -0.38,6.559 -0.52,6.55 -0.65,6.538 -0.79,6.522 -0.93,6.504 -1.07,6.483 -1.2,6.46 -1.34,6.432 -1.47,6.404 -1.6,6.37 -1.74,6.336 -1.87,6.298 -2.01,6.257 -2.13,6.214 -2.27,6.167 -2.39,6.118 -2.52,6.067 -2.65,6.012 -2.78,5.956 -2.9,5.896 -3.02,5.833 -3.15,5.769 -3.26,5.701 -3.39,5.632 -3.5,5.559 -3.61,5.484 -3.74,5.407 -3.84,5.328 -3.96,5.246 -4.06,5.161 -4.18,5.074 -4.28,4.986 -4.38,4.895 -4.48,4.802 -4.59,4.706 -4.68,4.609 -4.78,4.51 -4.87,4.408 -4.96,4.305 -5.06,4.2 -5.13,4.092 -5.23,3.984 -5.31,3.873 -5.38,3.761 -5.47,3.646 -5.54,3.531 -5.61,3.414 -5.69,3.295 -5.75,3.175 -5.82,3.053 -5.88,2.931 -5.94,2.806 -6,2.681 -6.05,2.554 -6.11,2.426 -6.15,2.297 -6.2,2.168 -6.25,2.037 -6.29,1.905 -6.33,1.773 -6.357,1.639 -6.396,1.505 -6.425,1.371 -6.453,1.235 -6.478,1.099 -6.499,0.963 -6.518,0.826 -6.534,0.689 -6.547,0.552 -6.557,0.414 -6.564,0.276 -6.569,0.138 h -6.57 l -6.569,-0.138 -6.564,-0.276 -6.558,-0.414 -6.546,-0.552 -6.534,-0.689 -6.518,-0.826 -6.5,-0.963 -6.477,-1.099 -6.453,-1.235 -6.426,-1.371 -6.395,-1.505 -6.363,-1.639 -6.326,-1.773 -6.288,-1.905 -6.246,-2.037 -6.203,-2.168 -6.155,-2.297 -6.106,-2.426 -6.053,-2.554 -5.998,-2.681 -5.941,-2.806 -5.881,-2.931 -5.817,-3.053 -5.752,-3.175 -5.685,-3.295 -5.613,-3.414 -5.541,-3.531 -5.465,-3.646 -5.388,-3.761 -5.307,-3.873 -5.225,-3.984 -5.139,-4.092 -5.053,-4.2 -4.963,-4.305 -4.872,-4.408 -4.778,-4.51 -4.683,-4.609 -4.584,-4.706 -4.484,-4.802 -4.383,-4.895 -4.279,-4.986 -4.173,-5.074 -4.065,-5.161 -3.957,-5.246 -3.845,-5.328 -3.732,-5.407 -3.618,-5.484 -3.502,-5.559 -3.384,-5.632 -3.265,-5.701 -3.144,-5.769 -3.023,-5.833 -2.9,-5.896 -2.775,-5.956 -2.649,-6.012 -2.522,-6.067 -2.394,-6.118 -2.265,-6.167 -2.135,-6.214 -2.004,-6.257 -1.872,-6.298 -1.74,-6.336 -1.606,-6.37 -1.471,-6.404 -1.337,-6.432 -1.201,-6.46 -1.066,-6.483 -0.928,-6.504 -0.792,-6.522 -0.655,-6.538 -0.517,-6.55 -0.38,-6.559 -0.241,-6.566 -0.104,-6.569 0.035,-6.57 0.172,-6.568 0.311,-6.563 0.448,-6.555 0.586,-6.544 0.723,-6.53 0.861,-6.513 0.997,-6.494 1.133,-6.472 1.269,-6.446 1.405,-6.419 1.539,-6.387 1.672,-6.354 1.806,-6.317 1.938,-6.278 2.07,-6.235 2.2,-6.191 2.33,-6.143 2.458,-6.093 2.586,-6.04 2.712,-5.984 2.838,-5.926 2.961,-5.865 3.084,-5.802 3.205,-5.735 3.325,-5.667 3.443,-5.596 3.56,-5.522 3.675,-5.446 3.789,-5.367 3.901,-5.287 4.011,-5.204 4.119,-5.118 4.226,-5.031 4.331,-4.94 4.434,-4.849 4.535,-4.754 4.633,-4.658 4.731,-4.56 4.825,-4.459 4.918,-4.357 5.008,-4.252 5.097,-4.147 5.182,-4.038 5.267,-3.929 5.347,-3.817 5.427,-3.703 5.503,-3.589 5.578,-3.473 5.649,-3.354 5.718,-3.236 5.786,-3.114 5.849,-2.992 5.911,-2.868 5.97,-2.744 6.026,-2.617 6.08,-2.491 6.131,-2.362 6.179,-2.233 6.225,-2.102 6.267,-1.971 6.308,-1.839 6.344,-1.706 6.38,-1.572 6.41,-1.438 6.44,-1.303 6.466,-1.168 6.488,-1.031 6.509,-0.894 6.527,-0.758 6.541,-0.62 6.552,-0.483 6.561,-0.345 6.567,-0.207 6.57,-0.069 v 618.976 h -6.57 -6.567 -6.561 -6.552 -6.541 -6.527 -6.509 -6.488 -6.466 -6.44 -6.41 -6.38 -6.344 -6.308 -6.267 -6.225 -6.179 -6.131 -6.08 -6.026 -5.97 -5.911 -5.849 -5.786 -5.718 -5.649 -5.578 -5.503 -5.427 -5.347 -5.267 -5.182 -5.097 -5.008 -4.918 -4.825 -4.731 -4.633 -4.535 -4.434 -4.331 -4.226 -4.119 -4.011 -3.901 -3.789 -3.675 -3.56 -3.443 -3.325 -3.205 -3.084 -2.961 -2.838 -2.712 -2.586 -2.458 -2.33 -2.2 -2.07 -1.938 -1.806 -1.672 -1.539 -1.405 -1.269 -1.133 -0.997 -0.861 -0.723 -0.586 -0.448 -0.311 -0.172 -0.035 0.104 0.241 0.38 0.517 0.655 0.792 0.928 1.066 1.201 1.337 1.471 1.606 1.74 1.872 2.004 2.135 2.265 2.394 2.522 2.649 2.775 2.9 3.023 3.144 3.265 3.384 3.502 3.618 3.732 3.845 3.957 4.065 4.173 4.279 4.383 4.484 4.584 4.683 4.778 4.872 4.963 5.053 5.139 5.225 5.307 5.388 5.465 5.541 5.613 5.685 5.752 5.817 5.881 5.941 5.998 6.053 6.106 6.155 6.203 6.246 6.288 6.326 6.363 6.395 6.426 6.453 6.477 6.5 6.518 6.534 6.546 6.558 6.564 6.569 6.57 6.569 6.564 6.557 6.547 6.534 6.518 6.499 6.478 6.453 6.425 6.396 6.357 6.33 6.29 6.25 6.2 6.15 6.11 6.05 6 5.94 5.88 5.82 5.75 5.69 5.61 5.54 5.47 5.38 5.31 5.23 5.13 5.06 4.96 4.87 4.78 4.68 4.59 4.48 4.38 4.28 4.18 4.06 3.96 3.84 3.74 3.61 3.5 3.39 3.26 3.15 3.02 2.9 2.78 2.65 2.52 2.39 2.27 2.13 2.01 1.87 1.74 1.6 1.47 1.34 1.2 1.07 0.93 0.79 0.65 0.52 0.38 0.24 0.11 -0.04 -0.17 -0.31 -0.45 -0.59 -0.72 -0.86 -1 -1.13 -1.27 -1.4 -1.54 -1.68 -1.8 -1.94 -2.07 -2.2 -2.33 -2.46 -2.58 -2.72 -2.83 -2.96 -3.09 -3.2 -3.33 -3.44 -3.56 -3.68 -3.79 -3.9 -4.01 -4.12 -4.22 -4.33 -4.44 -4.53 -4.64 -4.73 -4.82 -4.92 -5.01 -5.09 -5.19 -5.26 -5.35 -5.43 -5.5 -5.58 -5.65 -5.72 -5.78 -5.85 -5.91 -5.97 -6.03 -6.08 -6.13 -6.18 -6.22 -6.27 -6.31 -6.34 -6.381 -6.411 -6.44 -6.465 -6.489 -6.509 -6.526 -6.541 -6.552 -6.562 -6.566 -6.57 z"
     id="path119"
     inkscape:connector-curvature="0"
     style="fill:#ffa500;fill-opacity:0.2;fill-rule:evenodd"
     transform="translate(-607.37992,-47.2441)" />
  <polyline
     clip-path="url(#clip1302)"
     style="fill:none;stroke:#00a9ad;stroke-width:4;stroke-opacity:1"
     points="   922.038,358.101 928.608,358.17 935.174,358.377 941.736,358.722 948.288,359.205 954.829,359.825 961.355,360.583 967.864,361.477 974.353,362.508 980.818,363.676    987.258,364.979 993.669,366.417 1000.05,367.989 1006.39,369.695 1012.7,371.534 1018.97,373.505 1025.19,375.607 1031.37,377.84 1037.5,380.202 1043.58,382.693    1049.61,385.31 1055.58,388.054 1061.49,390.922 1067.34,393.914 1073.12,397.028 1078.84,400.264 1084.49,403.618 1090.07,407.091 1095.57,410.68 1101,414.383    1106.35,418.2 1111.61,422.129 1116.8,426.167 1121.89,430.314 1126.9,434.566 1131.82,438.923 1136.64,443.382 1141.37,447.942 1146.01,452.6 1150.54,457.354    1154.98,462.203 1159.31,467.143 1163.53,472.174 1167.65,477.292 1171.66,482.496 1175.56,487.783 1179.35,493.15 1183.03,498.596 1186.59,504.118 1190.03,509.714    1193.36,515.381 1196.56,521.116 1199.65,526.918 1202.61,532.783 1205.44,538.709 1208.16,544.693 1210.74,550.733 1213.2,556.826 1215.53,562.969 1217.73,569.16    1219.8,575.395 1221.74,581.673 1223.54,587.99 1225.22,594.344 1226.76,600.731 1228.16,607.15 1229.43,613.596 1230.56,620.068 1231.56,626.562 1232.42,633.075    1233.14,639.605 1233.73,646.149 1234.18,652.704 1234.49,659.267 1234.66,665.835 1234.7,672.405 1234.59,678.974 1234.35,685.54 1233.97,692.099 1233.45,698.649    1232.8,705.187 1232.01,711.709 1231.08,718.213 1230.01,724.696 1228.81,731.156 1227.47,737.588 1226,743.992 1224.4,750.362 1222.66,756.698 1220.79,762.996    1218.78,769.253 1216.65,775.467 1214.38,781.634 1211.99,787.752 1209.47,793.819 1206.82,799.831 1204.04,805.787 1201.14,811.683 1198.12,817.516 1194.97,823.285    1191.71,828.986 1188.32,834.618 1184.82,840.177 1181.21,845.661 1177.47,851.068 1173.63,856.396 1169.67,861.642 1165.61,866.803 1161.43,871.877 1157.15,876.863    1152.77,881.758 1148.29,886.56 1143.7,891.266 1139.02,895.875 1134.24,900.385 1129.37,904.793 1124.41,909.098 1119.35,913.298 1114.22,917.39 1108.99,921.374    1103.68,925.247 1098.3,929.008 1092.83,932.654 1087.29,936.185 1081.68,939.599 1075.99,942.894 1070.24,946.069 1064.42,949.122 1058.54,952.053 1052.6,954.859    1046.6,957.54 1040.55,960.094 1034.44,962.52 1028.29,964.817 1022.09,966.985 1015.84,969.022 1009.55,970.927 1003.22,972.7 996.863,974.339 990.467,975.844    984.042,977.215 977.589,978.45 971.111,979.549 964.612,980.512 958.094,981.338 951.56,982.027 945.013,982.579 938.456,982.993 931.892,983.269 925.323,983.407    918.753,983.407 912.184,983.269 905.62,982.993 899.062,982.579 892.516,982.027 885.982,981.338 879.464,980.512 872.964,979.549 866.487,978.45 860.034,977.215    853.608,975.844 847.213,974.339 840.85,972.7 834.524,970.927 828.236,969.022 821.99,966.985 815.787,964.817 809.632,962.52 803.526,960.094 797.473,957.54    791.475,954.859 785.534,952.053 779.653,949.122 773.836,946.069 768.084,942.894 762.399,939.599 756.786,936.185 751.245,932.654 745.78,929.008 740.392,925.247    735.085,921.374 729.86,917.39 724.721,913.298 719.668,909.098 714.705,904.793 709.833,900.385 705.055,895.875 700.372,891.266 695.788,886.56 691.304,881.758    686.921,876.863 682.642,871.877 678.469,866.803 674.404,861.642 670.447,856.396 666.602,851.068 662.87,845.661 659.252,840.177 655.75,834.618 652.366,828.986    649.101,823.285 645.957,817.516 642.934,811.683 640.034,805.787 637.259,799.831 634.61,793.819 632.088,787.752 629.694,781.634 627.429,775.467 625.294,769.253    623.29,762.996 621.418,756.698 619.678,750.362 618.072,743.992 616.601,737.588 615.264,731.156 614.063,724.696 612.997,718.213 612.069,711.709 611.277,705.187    610.622,698.649 610.105,692.099 609.725,685.54 609.484,678.974 609.38,672.405 609.415,665.835 609.587,659.267 609.898,652.704 610.346,646.149 610.932,639.605    611.655,633.075 612.516,626.562 613.513,620.068 614.646,613.596 615.915,607.15 617.32,600.731 618.859,594.344 620.531,587.99 622.337,581.673 624.275,575.395    626.345,569.16 628.545,562.969 630.875,556.826 633.333,550.733 635.919,544.693 638.631,538.709 641.469,532.783 644.43,526.918 647.514,521.116 650.719,515.381    654.044,509.714 657.487,504.118 661.047,498.596 664.722,493.15 668.511,487.783 672.412,482.496 676.423,477.292 680.542,472.174 684.768,467.143 689.099,462.203    693.533,457.354 698.068,452.6 702.701,447.942 707.432,443.382 712.257,438.923 717.175,434.566 722.183,430.314 727.28,426.167 732.462,422.129 737.729,418.2    743.076,414.383 748.503,410.68 754.006,407.091 759.584,403.618 765.233,400.264 770.951,397.028 776.737,393.914 782.586,390.922 788.497,388.054 794.467,385.31    800.493,382.693 806.573,380.202 812.704,377.84 818.883,375.607 825.108,373.505 831.375,371.534 837.683,369.695 844.027,367.989 850.407,366.417 856.817,364.979    863.257,363.676 869.723,362.508 876.211,361.477 882.72,360.583 889.247,359.825 895.788,359.205 902.34,358.722 908.901,358.377 915.468,358.17 922.038,358.101       "
     id="polyline121"
     transform="translate(-607.37992,-47.2441)" />
  <path
     clip-path="url(#clip1302)"
     d="m 1426.1,561.399 9.29,0.097 9.28,0.293 9.28,0.488 9.27,0.683 9.25,0.877 9.23,1.072 9.2,1.265 9.18,1.458 9.14,1.651 9.11,1.843 9.07,2.033 9.02,2.224 8.97,2.413 8.92,2.6 8.87,2.788 8.8,2.973 8.74,3.158 8.67,3.34 8.6,3.522 8.52,3.702 8.44,3.88 8.36,4.056 8.27,4.232 8.19,4.404 8.08,4.575 7.99,4.744 7.89,4.911 7.78,5.076 7.68,5.238 7.56,5.398 7.45,5.556 7.33,5.711 7.2,5.863 7.09,6.014 6.95,6.162 6.83,6.306 6.68,6.448 6.56,6.588 6.41,6.723 6.27,6.857 6.13,6.987 5.97,7.115 5.83,7.238 5.67,7.359 5.52,7.477 5.36,7.591 5.19,7.702 5.04,7.809 4.87,7.914 4.7,8.014 4.53,8.111 4.36,8.204 4.19,8.294 4.01,8.381 3.84,8.463 3.66,8.542 3.47,8.616 3.3,8.688 3.11,8.755 2.93,8.819 2.74,8.878 2.55,8.934 2.37,8.985 2.17,9.033 1.99,9.077 1.79,9.117 1.61,9.152 1.41,9.184 1.21,9.212 1.03,9.235 0.83,9.254 0.63,9.27 0.44,9.281 0.24,9.289 0.05,9.289 -0.15,9.29 -0.34,9.29 -0.53,9.27 -0.73,9.27 -0.93,9.24 -1.12,9.23 -1.31,9.19 -1.51,9.17 -1.7,9.14 -1.89,9.1 -2.08,9.05 -2.27,9.01 -2.46,8.96 -2.65,8.91 -2.83,8.85 -3.02,8.78 -3.21,8.73 -3.38,8.65 -3.57,8.58 -3.75,8.5 -3.92,8.42 -4.1,8.34 -4.28,8.25 -4.44,8.16 -4.62,8.06 -4.79,7.97 -4.95,7.86 -5.12,7.75 -5.27,7.65 -5.44,7.53 -5.6,7.42 -5.75,7.3 -5.9,7.18 -6.05,7.05 -6.2,6.92 -6.34,6.79 -6.48,6.66 -6.62,6.52 -6.76,6.37 -6.89,6.24 -7.02,6.09 -7.14,5.94 -7.27,5.78 -7.39,5.64 -7.51,5.47 -7.62,5.32 -7.73,5.16 -7.83,4.99 -7.94,4.83 -8.04,4.66 -8.13,4.49 -8.23,4.32 -8.32,4.14 -8.4,3.97 -8.48,3.79 -8.56,3.62 -8.64,3.43 -8.7,3.25 -8.77,3.06 -8.84,2.88 -8.89,2.7 -8.95,2.5 -9,2.32 -9.04,2.13 -9.09,1.94 -9.12,1.75 -9.16,1.55 -9.19,1.36 -9.22,1.17 -9.24,0.97 -9.26,0.78 -9.27,0.59 -9.29,0.39 -9.29,0.2 h -9.29 l -9.29,-0.2 -9.28,-0.39 -9.28,-0.59 -9.25,-0.78 -9.24,-0.97 -9.22,-1.17 -9.19,-1.36 -9.16,-1.55 -9.13,-1.75 -9.09,-1.94 -9.04,-2.13 -9,-2.32 -8.95,-2.5 -8.89,-2.7 -8.83,-2.88 -8.77,-3.06 -8.71,-3.25 -8.63,-3.43 -8.56,-3.62 -8.49,-3.79 -8.4,-3.97 -8.32,-4.14 -8.22,-4.32 -8.14,-4.49 -8.04,-4.66 -7.93,-4.83 -7.84,-4.99 -7.73,-5.16 -7.62,-5.32 -7.5,-5.47 -7.39,-5.64 -7.27,-5.78 -7.15,-5.94 -7.02,-6.09 -6.89,-6.24 -6.75,-6.37 -6.63,-6.52 -6.48,-6.66 -6.34,-6.79 -6.2,-6.92 -6.05,-7.05 -5.9,-7.18 -5.75,-7.3 -5.6,-7.42 -5.43,-7.53 -5.28,-7.65 -5.12,-7.75 -4.95,-7.86 -4.79,-7.97 -4.61,-8.06 -4.45,-8.16 -4.28,-8.25 -4.1,-8.34 -3.92,-8.42 -3.75,-8.5 -3.56,-8.58 -3.39,-8.65 -3.2,-8.73 -3.02,-8.78 -2.84,-8.85 -2.64,-8.91 -2.464,-8.96 -2.271,-9.01 -2.082,-9.05 -1.89,-9.1 -1.699,-9.14 -1.506,-9.17 -1.314,-9.19 -1.12,-9.23 -0.926,-9.24 -0.731,-9.27 -0.537,-9.27 -0.342,-9.29 -0.146,-9.29 0.049,-9.289 0.244,-9.289 0.439,-9.281 0.634,-9.27 0.829,-9.254 1.023,-9.235 1.217,-9.212 1.41,-9.184 1.603,-9.152 1.794,-9.117 1.986,-9.077 2.176,-9.033 2.366,-8.985 2.558,-8.934 2.74,-8.878 2.92,-8.819 3.12,-8.755 3.29,-8.688 3.48,-8.616 3.65,-8.542 3.84,-8.463 4.01,-8.381 4.19,-8.294 4.36,-8.204 4.53,-8.111 4.71,-8.014 4.87,-7.914 5.03,-7.809 5.2,-7.702 5.36,-7.591 5.51,-7.477 5.67,-7.359 5.83,-7.238 5.98,-7.115 6.12,-6.987 6.27,-6.857 6.42,-6.723 6.55,-6.588 6.69,-6.448 6.82,-6.306 6.96,-6.162 7.08,-6.014 7.21,-5.863 7.33,-5.711 7.44,-5.556 7.57,-5.398 7.67,-5.238 7.78,-5.076 7.89,-4.911 7.99,-4.744 8.09,-4.575 8.18,-4.404 8.27,-4.232 8.36,-4.056 8.44,-3.88 8.53,-3.702 8.59,-3.522 8.67,-3.34 8.74,-3.158 8.81,-2.973 8.86,-2.788 8.92,-2.6 8.97,-2.413 9.02,-2.224 9.07,-2.033 9.11,-1.843 9.14,-1.651 9.18,-1.458 9.2,-1.265 9.23,-1.072 9.25,-0.877 9.27,-0.683 9.28,-0.488 9.29,-0.293 9.29,-0.097 v 415.678 h -9.29 -9.29 -9.28 -9.27 -9.25 -9.23 -9.2 -9.18 -9.14 -9.11 -9.07 -9.02 -8.97 -8.92 -8.86 -8.81 -8.74 -8.67 -8.59 -8.53 -8.44 -8.36 -8.27 -8.18 -8.09 -7.99 -7.89 -7.78 -7.67 -7.57 -7.44 -7.33 -7.21 -7.08 -6.96 -6.82 -6.69 -6.55 -6.42 -6.27 -6.12 -5.98 -5.83 -5.67 -5.51 -5.36 -5.2 -5.03 -4.87 -4.71 -4.53 -4.36 -4.19 -4.01 -3.84 -3.65 -3.48 -3.29 -3.12 -2.92 -2.74 -2.558 -2.366 -2.176 -1.986 -1.794 -1.603 -1.41 -1.217 -1.023 -0.829 -0.634 -0.439 -0.244 -0.049 0.146 0.342 0.537 0.731 0.926 1.12 1.314 1.506 1.699 1.89 2.082 2.271 2.464 2.64 2.84 3.02 3.2 3.39 3.56 3.75 3.92 4.1 4.28 4.45 4.61 4.79 4.95 5.12 5.28 5.43 5.6 5.75 5.9 6.05 6.2 6.34 6.48 6.63 6.75 6.89 7.02 7.15 7.27 7.39 7.5 7.62 7.73 7.84 7.93 8.04 8.14 8.22 8.32 8.4 8.49 8.56 8.63 8.71 8.77 8.83 8.89 8.95 9 9.04 9.09 9.13 9.16 9.19 9.22 9.24 9.25 9.28 9.28 9.29 9.29 9.29 9.29 9.27 9.26 9.24 9.22 9.19 9.16 9.12 9.09 9.04 9 8.95 8.89 8.84 8.77 8.7 8.64 8.56 8.48 8.4 8.32 8.23 8.13 8.04 7.94 7.83 7.73 7.62 7.51 7.39 7.27 7.14 7.02 6.89 6.76 6.62 6.48 6.34 6.2 6.05 5.9 5.75 5.6 5.44 5.27 5.12 4.95 4.79 4.62 4.44 4.28 4.1 3.92 3.75 3.57 3.38 3.21 3.02 2.83 2.65 2.46 2.27 2.08 1.89 1.7 1.51 1.31 1.12 0.93 0.73 0.53 0.34 0.15 -0.05 -0.24 -0.44 -0.63 -0.83 -1.03 -1.21 -1.41 -1.61 -1.79 -1.99 -2.17 -2.37 -2.55 -2.74 -2.93 -3.11 -3.3 -3.47 -3.66 -3.84 -4.01 -4.19 -4.36 -4.53 -4.7 -4.87 -5.04 -5.19 -5.36 -5.52 -5.67 -5.83 -5.97 -6.13 -6.27 -6.41 -6.56 -6.68 -6.83 -6.95 -7.09 -7.2 -7.33 -7.45 -7.56 -7.68 -7.78 -7.89 -7.99 -8.08 -8.19 -8.27 -8.36 -8.44 -8.52 -8.6 -8.67 -8.74 -8.8 -8.87 -8.92 -8.97 -9.02 -9.07 -9.11 -9.14 -9.18 -9.2 -9.23 -9.25 -9.27 -9.28 -9.28 -9.29 z"
     id="path123"
     inkscape:connector-curvature="0"
     style="fill:#ffa500;fill-opacity:0.2;fill-rule:evenodd"
     transform="translate(-607.37992,-47.2441)" />
  <polyline
     clip-path="url(#clip1302)"
     style="fill:none;stroke:#ed5d92;stroke-width:4;stroke-opacity:1"
     points="   1426.1,561.399 1435.39,561.496 1444.67,561.789 1453.95,562.277 1463.22,562.96 1472.47,563.837 1481.7,564.909 1490.9,566.174 1500.08,567.632 1509.22,569.283    1518.33,571.126 1527.4,573.159 1536.42,575.383 1545.39,577.796 1554.31,580.396 1563.18,583.184 1571.98,586.157 1580.72,589.315 1589.39,592.655 1597.99,596.177    1606.51,599.879 1614.95,603.759 1623.31,607.815 1631.58,612.047 1639.77,616.451 1647.85,621.026 1655.84,625.77 1663.73,630.681 1671.51,635.757 1679.19,640.995    1686.75,646.393 1694.2,651.949 1701.53,657.66 1708.73,663.523 1715.82,669.537 1722.77,675.699 1729.6,682.005 1736.28,688.453 1742.84,695.041 1749.25,701.764    1755.52,708.621 1761.65,715.608 1767.62,722.723 1773.45,729.961 1779.12,737.32 1784.64,744.797 1790,752.388 1795.19,760.09 1800.23,767.899 1805.1,775.813    1809.8,783.827 1814.33,791.938 1818.69,800.142 1822.88,808.436 1826.89,816.817 1830.73,825.28 1834.39,833.822 1837.86,842.438 1841.16,851.126 1844.27,859.881    1847.2,868.7 1849.94,877.578 1852.49,886.512 1854.86,895.497 1857.03,904.53 1859.02,913.607 1860.81,922.724 1862.42,931.876 1863.83,941.06 1865.04,950.272    1866.07,959.507 1866.9,968.761 1867.53,978.031 1867.97,987.312 1868.21,996.601 1868.26,1005.89 1868.11,1015.18 1867.77,1024.47 1867.24,1033.74 1866.51,1043.01    1865.58,1052.25 1864.46,1061.48 1863.15,1070.67 1861.64,1079.84 1859.94,1088.98 1858.05,1098.08 1855.97,1107.13 1853.7,1116.14 1851.24,1125.1 1848.59,1134.01    1845.76,1142.86 1842.74,1151.64 1839.53,1160.37 1836.15,1169.02 1832.58,1177.6 1828.83,1186.1 1824.91,1194.52 1820.81,1202.86 1816.53,1211.11 1812.09,1219.27    1807.47,1227.33 1802.68,1235.3 1797.73,1243.16 1792.61,1250.91 1787.34,1258.56 1781.9,1266.09 1776.3,1273.51 1770.55,1280.81 1764.65,1287.99 1758.6,1295.04    1752.4,1301.96 1746.06,1308.75 1739.58,1315.41 1732.96,1321.93 1726.2,1328.3 1719.31,1334.54 1712.29,1340.63 1705.15,1346.57 1697.88,1352.35 1690.49,1357.99    1682.98,1363.46 1675.36,1368.78 1667.63,1373.94 1659.8,1378.93 1651.86,1383.76 1643.82,1388.42 1635.69,1392.91 1627.46,1397.23 1619.14,1401.37 1610.74,1405.34    1602.26,1409.13 1593.7,1412.75 1585.06,1416.18 1576.36,1419.43 1567.59,1422.49 1558.75,1425.37 1549.86,1428.07 1540.91,1430.57 1531.91,1432.89 1522.87,1435.02    1513.78,1436.96 1504.66,1438.71 1495.5,1440.26 1486.31,1441.62 1477.09,1442.79 1467.85,1443.76 1458.59,1444.54 1449.32,1445.13 1440.03,1445.52 1430.74,1445.72    1421.45,1445.72 1412.16,1445.52 1402.88,1445.13 1393.6,1444.54 1384.35,1443.76 1375.11,1442.79 1365.89,1441.62 1356.7,1440.26 1347.54,1438.71 1338.41,1436.96    1329.32,1435.02 1320.28,1432.89 1311.28,1430.57 1302.33,1428.07 1293.44,1425.37 1284.61,1422.49 1275.84,1419.43 1267.13,1416.18 1258.5,1412.75 1249.94,1409.13    1241.45,1405.34 1233.05,1401.37 1224.73,1397.23 1216.51,1392.91 1208.37,1388.42 1200.33,1383.76 1192.4,1378.93 1184.56,1373.94 1176.83,1368.78 1169.21,1363.46    1161.71,1357.99 1154.32,1352.35 1147.05,1346.57 1139.9,1340.63 1132.88,1334.54 1125.99,1328.3 1119.24,1321.93 1112.61,1315.41 1106.13,1308.75 1099.79,1301.96    1093.59,1295.04 1087.54,1287.99 1081.64,1280.81 1075.89,1273.51 1070.29,1266.09 1064.86,1258.56 1059.58,1250.91 1054.46,1243.16 1049.51,1235.3 1044.72,1227.33    1040.11,1219.27 1035.66,1211.11 1031.38,1202.86 1027.28,1194.52 1023.36,1186.1 1019.61,1177.6 1016.05,1169.02 1012.66,1160.37 1009.46,1151.64 1006.44,1142.86    1003.6,1134.01 1000.96,1125.1 998.496,1116.14 996.225,1107.13 994.143,1098.08 992.253,1088.98 990.554,1079.84 989.048,1070.67 987.734,1061.48 986.614,1052.25    985.688,1043.01 984.957,1033.74 984.42,1024.47 984.078,1015.18 983.932,1005.89 983.981,996.601 984.225,987.312 984.664,978.031 985.298,968.761 986.127,959.507    987.15,950.272 988.367,941.06 989.777,931.876 991.38,922.724 993.174,913.607 995.16,904.53 997.336,895.497 999.702,886.512 1002.26,877.578 1005,868.7    1007.92,859.881 1011.04,851.126 1014.33,842.438 1017.81,833.822 1021.46,825.28 1025.3,816.817 1029.31,808.436 1033.5,800.142 1037.86,791.938 1042.39,783.827    1047.1,775.813 1051.97,767.899 1057,760.09 1062.2,752.388 1067.56,744.797 1073.07,737.32 1078.74,729.961 1084.57,722.723 1090.55,715.608 1096.67,708.621    1102.94,701.764 1109.36,695.041 1115.91,688.453 1122.6,682.005 1129.42,675.699 1136.38,669.537 1143.46,663.523 1150.67,657.66 1158,651.949 1165.44,646.393    1173.01,640.995 1180.68,635.757 1188.46,630.681 1196.35,625.77 1204.34,621.026 1212.43,616.451 1220.61,612.047 1228.88,607.815 1237.24,603.759 1245.68,599.879    1254.21,596.177 1262.8,592.655 1271.47,589.315 1280.21,586.157 1289.02,583.184 1297.88,580.396 1306.8,577.796 1315.77,575.383 1324.79,573.159 1333.86,571.126    1342.97,569.283 1352.11,567.632 1361.29,566.174 1370.49,564.909 1379.72,563.837 1388.97,562.96 1398.24,562.277 1407.52,561.789 1416.81,561.496 1426.1,561.399       "
     id="polyline125"
     transform="translate(-607.37992,-47.2441)" />
  <path
     clip-path="url(#clip1302)"
     d="m 1462.29,87.9763 6.57,0.069 6.56,0.2071 6.56,0.345 6.56,0.4828 6.54,0.6203 6.52,0.7577 6.51,0.8946 6.49,1.0312 6.47,1.1674 6.44,1.3029 6.41,1.4379 6.38,1.5724 6.34,1.706 6.31,1.8394 6.27,1.971 6.22,2.102 6.18,2.233 6.13,2.362 6.08,2.49 6.03,2.618 5.97,2.743 5.91,2.869 5.85,2.992 5.78,3.114 5.72,3.235 5.65,3.355 5.58,3.472 5.5,3.589 5.43,3.704 5.35,3.817 5.26,3.929 5.18,4.038 5.1,4.146 5.01,4.253 4.92,4.357 4.82,4.459 4.73,4.559 4.64,4.658 4.53,4.755 4.43,4.848 4.34,4.941 4.22,5.031 4.12,5.118 4.01,5.204 3.9,5.286 3.79,5.368 3.68,5.446 3.56,5.522 3.44,5.596 3.33,5.667 3.2,5.735 3.08,5.801 2.97,5.865 2.83,5.926 2.72,5.984 2.58,6.04 2.46,6.093 2.33,6.143 2.2,6.191 2.07,6.236 1.94,6.278 1.8,6.317 1.68,6.353 1.53,6.388 1.41,6.418 1.27,6.447 1.13,6.471 1,6.494 0.86,6.514 0.72,6.53 0.59,6.544 0.45,6.555 0.31,6.563 0.17,6.568 0.03,6.57 -0.1,6.569 -0.24,6.566 -0.38,6.559 -0.52,6.55 -0.65,6.537 -0.79,6.522 -0.93,6.505 -1.07,6.483 -1.2,6.459 -1.34,6.433 -1.47,6.403 -1.6,6.371 -1.74,6.336 -1.88,6.298 -2,6.257 -2.13,6.213 -2.27,6.168 -2.39,6.118 -2.53,6.067 -2.65,6.012 -2.77,5.955 -2.9,5.896 -3.02,5.834 -3.15,5.769 -3.26,5.701 -3.39,5.631 -3.5,5.56 -3.62,5.484 -3.73,5.407 -3.84,5.328 -3.96,5.245 -4.06,5.161 -4.18,5.075 -4.28,4.986 -4.38,4.895 -4.48,4.802 -4.59,4.706 -4.68,4.609 -4.78,4.51 -4.87,4.408 -4.96,4.305 -5.06,4.2 -5.14,4.092 -5.22,3.984 -5.31,3.873 -5.39,3.76 -5.46,3.647 -5.54,3.531 -5.62,3.414 -5.68,3.295 -5.75,3.175 -5.82,3.053 -5.88,2.93 -5.94,2.806 -6,2.681 -6.05,2.554 -6.11,2.427 -6.15,2.297 -6.21,2.168 -6.24,2.037 -6.29,1.905 -6.33,1.772 -6.36,1.64 -6.39,1.505 -6.43,1.37 -6.45,1.236 -6.48,1.099 -6.5,0.963 -6.52,0.826 -6.53,0.689 -6.55,0.552 -6.56,0.414 -6.56,0.276 -6.57,0.138 H 1459 l -6.57,-0.138 -6.56,-0.276 -6.56,-0.414 -6.55,-0.552 -6.53,-0.689 -6.52,-0.826 -6.5,-0.963 -6.47,-1.099 -6.46,-1.236 -6.42,-1.37 -6.4,-1.505 -6.36,-1.64 -6.33,-1.772 -6.29,-1.905 -6.24,-2.037 -6.2,-2.168 -6.16,-2.297 -6.11,-2.427 -6.05,-2.554 -6,-2.681 -5.94,-2.806 -5.88,-2.93 -5.82,-3.053 -5.75,-3.175 -5.68,-3.295 -5.62,-3.414 -5.54,-3.531 -5.46,-3.647 -5.39,-3.76 -5.31,-3.873 -5.22,-3.984 -5.14,-4.092 -5.05,-4.2 -4.97,-4.305 -4.87,-4.408 -4.78,-4.51 -4.68,-4.609 -4.58,-4.706 -4.49,-4.802 -4.38,-4.895 -4.28,-4.986 -4.17,-5.075 -4.07,-5.161 -3.95,-5.245 -3.85,-5.328 -3.73,-5.407 -3.62,-5.484 -3.5,-5.56 -3.39,-5.631 -3.26,-5.701 -3.14,-5.769 -3.03,-5.834 -2.9,-5.896 -2.77,-5.955 -2.65,-6.012 -2.52,-6.067 -2.4,-6.118 -2.26,-6.168 -2.14,-6.213 -2,-6.257 -1.87,-6.298 -1.74,-6.336 -1.61,-6.371 -1.47,-6.403 -1.34,-6.433 -1.2,-6.459 -1.06,-6.483 -0.93,-6.505 -0.79,-6.522 -0.66,-6.537 -0.52,-6.55 -0.38,-6.559 -0.24,-6.566 -0.1,-6.569 0.03,-6.57 0.18,-6.568 0.31,-6.563 0.44,-6.555 0.59,-6.544 0.72,-6.53 0.86,-6.514 1,-6.494 1.14,-6.471 1.26,-6.447 1.41,-6.418 1.54,-6.388 1.67,-6.353 1.81,-6.317 1.93,-6.278 2.07,-6.236 2.2,-6.191 2.33,-6.143 2.46,-6.093 2.59,-6.04 2.71,-5.984 2.84,-5.926 2.96,-5.865 3.08,-5.801 3.21,-5.735 3.32,-5.667 3.45,-5.596 3.56,-5.522 3.67,-5.446 3.79,-5.368 3.9,-5.286 4.01,-5.204 4.12,-5.118 4.23,-5.031 4.33,-4.941 4.43,-4.848 4.54,-4.755 4.63,-4.658 4.73,-4.559 4.83,-4.459 4.91,-4.357 5.01,-4.253 5.1,-4.146 5.18,-4.038 5.27,-3.929 5.34,-3.817 5.43,-3.704 5.5,-3.589 5.58,-3.472 5.65,-3.355 5.72,-3.235 5.79,-3.114 5.84,-2.992 5.92,-2.869 5.97,-2.743 6.02,-2.618 6.08,-2.49 6.13,-2.362 6.18,-2.233 6.23,-2.102 6.26,-1.971 6.31,-1.8394 6.35,-1.706 6.38,-1.5724 6.41,-1.4379 6.44,-1.3029 6.46,-1.1674 6.49,-1.0312 6.51,-0.8946 6.53,-0.7577 6.54,-0.6203 6.55,-0.4828 6.56,-0.345 6.57,-0.2071 6.57,-0.069 V 977.077 h -6.57 -6.57 -6.56 -6.55 -6.54 -6.53 -6.51 -6.49 -6.46 -6.44 -6.41 -6.38 -6.35 -6.31 -6.26 -6.23 -6.18 -6.13 -6.08 -6.02 -5.97 -5.92 -5.84 -5.79 -5.72 -5.65 -5.58 -5.5 -5.43 -5.34 -5.27 -5.18 -5.1 -5.01 -4.91 -4.83 -4.73 -4.63 -4.54 -4.43 -4.33 -4.23 -4.12 -4.01 -3.9 -3.79 -3.67 -3.56 -3.45 -3.32 -3.21 -3.08 -2.96 -2.84 -2.71 -2.59 -2.46 -2.33 -2.2 -2.07 -1.93 -1.81 -1.67 -1.54 -1.41 -1.26 -1.14 -1 -0.86 -0.72 -0.59 -0.44 -0.31 -0.18 -0.03 0.1 0.24 0.38 0.52 0.66 0.79 0.93 1.06 1.2 1.34 1.47 1.61 1.74 1.87 2 2.14 2.26 2.4 2.52 2.65 2.77 2.9 3.03 3.14 3.26 3.39 3.5 3.62 3.73 3.85 3.95 4.07 4.17 4.28 4.38 4.49 4.58 4.68 4.78 4.87 4.97 5.05 5.14 5.22 5.31 5.39 5.46 5.54 5.62 5.68 5.75 5.82 5.88 5.94 6 6.05 6.11 6.16 6.2 6.24 6.29 6.33 6.36 6.4 6.42 6.46 6.47 6.5 6.52 6.53 6.55 6.56 6.56 6.57 6.57 6.57 6.56 6.56 6.55 6.53 6.52 6.5 6.48 6.45 6.43 6.39 6.36 6.33 6.29 6.24 6.21 6.15 6.11 6.05 6 5.94 5.88 5.82 5.75 5.68 5.62 5.54 5.46 5.39 5.31 5.22 5.14 5.06 4.96 4.87 4.78 4.68 4.59 4.48 4.38 4.28 4.18 4.06 3.96 3.84 3.73 3.62 3.5 3.39 3.26 3.15 3.02 2.9 2.77 2.65 2.53 2.39 2.27 2.13 2 1.88 1.74 1.6 1.47 1.34 1.2 1.07 0.93 0.79 0.65 0.52 0.38 0.24 0.1 -0.03 -0.17 -0.31 -0.45 -0.59 -0.72 -0.86 -1 -1.13 -1.27 -1.41 -1.53 -1.68 -1.8 -1.94 -2.07 -2.2 -2.33 -2.46 -2.58 -2.72 -2.83 -2.97 -3.08 -3.2 -3.33 -3.44 -3.56 -3.68 -3.79 -3.9 -4.01 -4.12 -4.22 -4.34 -4.43 -4.53 -4.64 -4.73 -4.82 -4.92 -5.01 -5.1 -5.18 -5.26 -5.35 -5.43 -5.5 -5.58 -5.65 -5.72 -5.78 -5.85 -5.91 -5.97 -6.03 -6.08 -6.13 -6.18 -6.22 -6.27 -6.31 -6.34 -6.38 -6.41 -6.44 -6.47 -6.49 -6.51 -6.52 -6.54 -6.56 -6.56 -6.56 -6.57 z"
     id="path127"
     inkscape:connector-curvature="0"
     style="fill:#ffa500;fill-opacity:0.2;fill-rule:evenodd"
     transform="translate(-607.37992,-47.2441)" />
  <polyline
     clip-path="url(#clip1302)"
     style="fill:none;stroke:#c68125;stroke-width:4;stroke-opacity:1"
     points="   1462.29,87.9763 1468.86,88.0453 1475.42,88.2524 1481.98,88.5974 1488.54,89.0802 1495.08,89.7005 1501.6,90.4582 1508.11,91.3528 1514.6,92.384 1521.07,93.5514    1527.51,94.8543 1533.92,96.2922 1540.3,97.8646 1546.64,99.5706 1552.95,101.41 1559.22,103.381 1565.44,105.483 1571.62,107.716 1577.75,110.078 1583.83,112.568    1589.86,115.186 1595.83,117.929 1601.74,120.798 1607.59,123.79 1613.37,126.904 1619.09,130.139 1624.74,133.494 1630.32,136.966 1635.82,140.555 1641.25,144.259    1646.6,148.076 1651.86,152.005 1657.04,156.043 1662.14,160.189 1667.15,164.442 1672.07,168.799 1676.89,173.258 1681.62,177.817 1686.26,182.475 1690.79,187.23    1695.22,192.078 1699.56,197.019 1703.78,202.05 1707.9,207.168 1711.91,212.372 1715.81,217.658 1719.6,223.026 1723.28,228.472 1726.84,233.994 1730.28,239.59    1733.61,245.257 1736.81,250.992 1739.89,256.793 1742.86,262.658 1745.69,268.584 1748.41,274.568 1750.99,280.608 1753.45,286.701 1755.78,292.844 1757.98,299.035    1760.05,305.271 1761.99,311.549 1763.79,317.866 1765.47,324.219 1767,330.607 1768.41,337.025 1769.68,343.472 1770.81,349.943 1771.81,356.437 1772.67,362.951    1773.39,369.481 1773.98,376.025 1774.43,382.58 1774.74,389.143 1774.91,395.711 1774.94,402.281 1774.84,408.85 1774.6,415.416 1774.22,421.975 1773.7,428.525    1773.05,435.062 1772.26,441.584 1771.33,448.089 1770.26,454.572 1769.06,461.031 1767.72,467.464 1766.25,473.867 1764.65,480.238 1762.91,486.574 1761.03,492.872    1759.03,499.129 1756.9,505.342 1754.63,511.51 1752.24,517.628 1749.71,523.695 1747.06,529.707 1744.29,535.662 1741.39,541.558 1738.37,547.392 1735.22,553.161    1731.96,558.862 1728.57,564.493 1725.07,570.053 1721.45,575.537 1717.72,580.944 1713.88,586.272 1709.92,591.517 1705.86,596.678 1701.68,601.753 1697.4,606.739    1693.02,611.634 1688.54,616.436 1683.95,621.142 1679.27,625.751 1674.49,630.261 1669.62,634.669 1664.66,638.974 1659.6,643.174 1654.46,647.266 1649.24,651.25    1643.93,655.123 1638.54,658.883 1633.08,662.53 1627.54,666.061 1621.92,669.475 1616.24,672.77 1610.49,675.945 1604.67,678.998 1598.79,681.928 1592.85,684.734    1586.85,687.415 1580.8,689.969 1574.69,692.396 1568.54,694.693 1562.33,696.861 1556.09,698.898 1549.8,700.803 1543.47,702.575 1537.11,704.215 1530.72,705.72    1524.29,707.09 1517.84,708.326 1511.36,709.425 1504.86,710.388 1498.34,711.214 1491.81,711.903 1485.26,712.455 1478.7,712.869 1472.14,713.145 1465.57,713.283    1459,713.283 1452.43,713.145 1445.87,712.869 1439.31,712.455 1432.76,711.903 1426.23,711.214 1419.71,710.388 1413.21,709.425 1406.74,708.326 1400.28,707.09    1393.86,705.72 1387.46,704.215 1381.1,702.575 1374.77,700.803 1368.48,698.898 1362.24,696.861 1356.04,694.693 1349.88,692.396 1343.77,689.969 1337.72,687.415    1331.72,684.734 1325.78,681.928 1319.9,678.998 1314.08,675.945 1308.33,672.77 1302.65,669.475 1297.03,666.061 1291.49,662.53 1286.03,658.883 1280.64,655.123    1275.33,651.25 1270.11,647.266 1264.97,643.174 1259.92,638.974 1254.95,634.669 1250.08,630.261 1245.3,625.751 1240.62,621.142 1236.04,616.436 1231.55,611.634    1227.17,606.739 1222.89,601.753 1218.72,596.678 1214.65,591.517 1210.7,586.272 1206.85,580.944 1203.12,575.537 1199.5,570.053 1196,564.493 1192.61,558.862    1189.35,553.161 1186.21,547.392 1183.18,541.558 1180.28,535.662 1177.51,529.707 1174.86,523.695 1172.34,517.628 1169.94,511.51 1167.68,505.342 1165.54,499.129    1163.54,492.872 1161.67,486.574 1159.93,480.238 1158.32,473.867 1156.85,467.464 1155.51,461.031 1154.31,454.572 1153.25,448.089 1152.32,441.584 1151.53,435.062    1150.87,428.525 1150.35,421.975 1149.97,415.416 1149.73,408.85 1149.63,402.281 1149.66,395.711 1149.84,389.143 1150.15,382.58 1150.59,376.025 1151.18,369.481    1151.9,362.951 1152.76,356.437 1153.76,349.943 1154.9,343.472 1156.16,337.025 1157.57,330.607 1159.11,324.219 1160.78,317.866 1162.59,311.549 1164.52,305.271    1166.59,299.035 1168.79,292.844 1171.12,286.701 1173.58,280.608 1176.17,274.568 1178.88,268.584 1181.72,262.658 1184.68,256.793 1187.76,250.992 1190.97,245.257    1194.29,239.59 1197.74,233.994 1201.3,228.472 1204.97,223.026 1208.76,217.658 1212.66,212.372 1216.67,207.168 1220.79,202.05 1225.02,197.019 1229.35,192.078    1233.78,187.23 1238.32,182.475 1242.95,177.817 1247.68,173.258 1252.51,168.799 1257.42,164.442 1262.43,160.189 1267.53,156.043 1272.71,152.005 1277.98,148.076    1283.32,144.259 1288.75,140.555 1294.25,136.966 1299.83,133.494 1305.48,130.139 1311.2,126.904 1316.99,123.79 1322.83,120.798 1328.75,117.929 1334.72,115.186    1340.74,112.568 1346.82,110.078 1352.95,107.716 1359.13,105.483 1365.36,103.381 1371.62,101.41 1377.93,99.5706 1384.28,97.8646 1390.66,96.2922 1397.07,94.8543    1403.51,93.5514 1409.97,92.384 1416.46,91.3528 1422.97,90.4582 1429.5,89.7005 1436.04,89.0802 1442.59,88.5974 1449.15,88.2524 1455.72,88.0453 1462.29,87.9763       "
     id="polyline129"
     transform="translate(-607.37992,-47.2441)" />
  <path
     clip-path="url(#clip1302)"
     d="M 922.038,670.763 1426.1,1003.57 1462.29,400.638 Z"
     id="path131"
     inkscape:connector-curvature="0"
     style="fill:#0000ff;fill-opacity:0.7;fill-rule:evenodd"
     transform="translate(-607.37992,-47.2441)" />
  <polyline
     clip-path="url(#clip1302)"
     style="fill:none;stroke:#000000;stroke-width:4;stroke-opacity:1"
     points="   922.038,670.763 1426.1,1003.57 1462.29,400.638 922.038,670.763    "
     id="polyline133"
     transform="translate(-607.37992,-47.2441)" />
</svg>
