<?xml version="1.0" encoding="utf-8"?>
<svg xmlns="http://www.w3.org/2000/svg" xmlns:xlink="http://www.w3.org/1999/xlink" width="600" height="400" viewBox="0 0 2400 1600">
<defs>
  <clipPath id="clip1300">
    <rect x="0" y="0" width="2400" height="1600"/>
  </clipPath>
</defs>
<path clip-path="url(#clip1300)" d="
M0 1600 L2400 1600 L2400 0 L0 0  Z
  " fill="#ffffff" fill-rule="evenodd" fill-opacity="1"/>
<defs>
  <clipPath id="clip1301">
    <rect x="480" y="0" width="1681" height="1600"/>
  </clipPath>
</defs>
<path clip-path="url(#clip1300)" d="
M124.885 1486.45 L2352.76 1486.45 L2352.76 47.2441 L124.885 47.2441  Z
  " fill="#ffffff" fill-rule="evenodd" fill-opacity="1"/>
<defs>
  <clipPath id="clip1302">
    <rect x="124" y="47" width="2229" height="1440"/>
  </clipPath>
</defs>
<polyline clip-path="url(#clip1302)" style="stroke:#000000; stroke-width:2; stroke-opacity:0.1; fill:none" points="
  299.712,1486.45 299.712,47.2441 
  "/>
<polyline clip-path="url(#clip1302)" style="stroke:#000000; stroke-width:2; stroke-opacity:0.1; fill:none" points="
  642.216,1486.45 642.216,47.2441 
  "/>
<polyline clip-path="url(#clip1302)" style="stroke:#000000; stroke-width:2; stroke-opacity:0.1; fill:none" points="
  984.72,1486.45 984.72,47.2441 
  "/>
<polyline clip-path="url(#clip1302)" style="stroke:#000000; stroke-width:2; stroke-opacity:0.1; fill:none" points="
  1327.22,1486.45 1327.22,47.2441 
  "/>
<polyline clip-path="url(#clip1302)" style="stroke:#000000; stroke-width:2; stroke-opacity:0.1; fill:none" points="
  1669.73,1486.45 1669.73,47.2441 
  "/>
<polyline clip-path="url(#clip1302)" style="stroke:#000000; stroke-width:2; stroke-opacity:0.1; fill:none" points="
  2012.23,1486.45 2012.23,47.2441 
  "/>
<polyline clip-path="url(#clip1302)" style="stroke:#000000; stroke-width:2; stroke-opacity:0.1; fill:none" points="
  124.885,1319.58 2352.76,1319.58 
  "/>
<polyline clip-path="url(#clip1302)" style="stroke:#000000; stroke-width:2; stroke-opacity:0.1; fill:none" points="
  124.885,977.077 2352.76,977.077 
  "/>
<polyline clip-path="url(#clip1302)" style="stroke:#000000; stroke-width:2; stroke-opacity:0.1; fill:none" points="
  124.885,634.573 2352.76,634.573 
  "/>
<polyline clip-path="url(#clip1302)" style="stroke:#000000; stroke-width:2; stroke-opacity:0.1; fill:none" points="
  124.885,292.069 2352.76,292.069 
  "/>
<polyline clip-path="url(#clip1300)" style="stroke:#000000; stroke-width:4; stroke-opacity:1; fill:none" points="
  124.885,1486.45 2352.76,1486.45 
  "/>
<polyline clip-path="url(#clip1300)" style="stroke:#000000; stroke-width:4; stroke-opacity:1; fill:none" points="
  124.885,1486.45 124.885,47.2441 
  "/>
<polyline clip-path="url(#clip1300)" style="stroke:#000000; stroke-width:4; stroke-opacity:1; fill:none" points="
  299.712,1486.45 299.712,1469.18 
  "/>
<polyline clip-path="url(#clip1300)" style="stroke:#000000; stroke-width:4; stroke-opacity:1; fill:none" points="
  642.216,1486.45 642.216,1469.18 
  "/>
<polyline clip-path="url(#clip1300)" style="stroke:#000000; stroke-width:4; stroke-opacity:1; fill:none" points="
  984.72,1486.45 984.72,1469.18 
  "/>
<polyline clip-path="url(#clip1300)" style="stroke:#000000; stroke-width:4; stroke-opacity:1; fill:none" points="
  1327.22,1486.45 1327.22,1469.18 
  "/>
<polyline clip-path="url(#clip1300)" style="stroke:#000000; stroke-width:4; stroke-opacity:1; fill:none" points="
  1669.73,1486.45 1669.73,1469.18 
  "/>
<polyline clip-path="url(#clip1300)" style="stroke:#000000; stroke-width:4; stroke-opacity:1; fill:none" points="
  2012.23,1486.45 2012.23,1469.18 
  "/>
<polyline clip-path="url(#clip1300)" style="stroke:#000000; stroke-width:4; stroke-opacity:1; fill:none" points="
  124.885,1319.58 151.62,1319.58 
  "/>
<polyline clip-path="url(#clip1300)" style="stroke:#000000; stroke-width:4; stroke-opacity:1; fill:none" points="
  124.885,977.077 151.62,977.077 
  "/>
<polyline clip-path="url(#clip1300)" style="stroke:#000000; stroke-width:4; stroke-opacity:1; fill:none" points="
  124.885,634.573 151.62,634.573 
  "/>
<polyline clip-path="url(#clip1300)" style="stroke:#000000; stroke-width:4; stroke-opacity:1; fill:none" points="
  124.885,292.069 151.62,292.069 
  "/>
<path clip-path="url(#clip1300)" d="M 0 0 M279.724 1525.04 L292.201 1525.04 L292.201 1528.83 L279.724 1528.83 L279.724 1525.04 Z" fill="#000000" fill-rule="evenodd" fill-opacity="1" /><path clip-path="url(#clip1300)" d="M 0 0 M310.117 1509.43 L298.312 1527.88 L310.117 1527.88 L310.117 1509.43 M308.891 1505.36 L314.77 1505.36 L314.77 1527.88 L319.701 1527.88 L319.701 1531.77 L314.77 1531.77 L314.77 1539.92 L310.117 1539.92 L310.117 1531.77 L294.516 1531.77 L294.516 1527.26 L308.891 1505.36 Z" fill="#000000" fill-rule="evenodd" fill-opacity="1" /><path clip-path="url(#clip1300)" d="M 0 0 M623.27 1525.04 L635.746 1525.04 L635.746 1528.83 L623.27 1528.83 L623.27 1525.04 Z" fill="#000000" fill-rule="evenodd" fill-opacity="1" /><path clip-path="url(#clip1300)" d="M 0 0 M644.844 1535.98 L661.163 1535.98 L661.163 1539.92 L639.219 1539.92 L639.219 1535.98 Q641.881 1533.23 646.464 1528.6 Q651.07 1523.95 652.251 1522.61 Q654.496 1520.08 655.376 1518.35 Q656.279 1516.59 656.279 1514.9 Q656.279 1512.14 654.334 1510.41 Q652.413 1508.67 649.311 1508.67 Q647.112 1508.67 644.658 1509.43 Q642.228 1510.2 639.45 1511.75 L639.45 1507.03 Q642.274 1505.89 644.728 1505.31 Q647.182 1504.73 649.219 1504.73 Q654.589 1504.73 657.783 1507.42 Q660.978 1510.11 660.978 1514.6 Q660.978 1516.73 660.168 1518.65 Q659.381 1520.54 657.274 1523.14 Q656.695 1523.81 653.594 1527.03 Q650.492 1530.22 644.844 1535.98 Z" fill="#000000" fill-rule="evenodd" fill-opacity="1" /><path clip-path="url(#clip1300)" d="M 0 0 M984.72 1508.44 Q981.109 1508.44 979.281 1512 Q977.475 1515.55 977.475 1522.67 Q977.475 1529.78 979.281 1533.35 Q981.109 1536.89 984.72 1536.89 Q988.355 1536.89 990.16 1533.35 Q991.989 1529.78 991.989 1522.67 Q991.989 1515.55 990.16 1512 Q988.355 1508.44 984.72 1508.44 M984.72 1504.73 Q990.53 1504.73 993.586 1509.34 Q996.665 1513.92 996.665 1522.67 Q996.665 1531.4 993.586 1536.01 Q990.53 1540.59 984.72 1540.59 Q978.91 1540.59 975.831 1536.01 Q972.776 1531.4 972.776 1522.67 Q972.776 1513.92 975.831 1509.34 Q978.91 1504.73 984.72 1504.73 Z" fill="#000000" fill-rule="evenodd" fill-opacity="1" /><path clip-path="url(#clip1300)" d="M 0 0 M1321.88 1535.98 L1338.2 1535.98 L1338.2 1539.92 L1316.25 1539.92 L1316.25 1535.98 Q1318.91 1533.23 1323.5 1528.6 Q1328.1 1523.95 1329.28 1522.61 Q1331.53 1520.08 1332.41 1518.35 Q1333.31 1516.59 1333.31 1514.9 Q1333.31 1512.14 1331.37 1510.41 Q1329.45 1508.67 1326.34 1508.67 Q1324.15 1508.67 1321.69 1509.43 Q1319.26 1510.2 1316.48 1511.75 L1316.48 1507.03 Q1319.31 1505.89 1321.76 1505.31 Q1324.21 1504.73 1326.25 1504.73 Q1331.62 1504.73 1334.82 1507.42 Q1338.01 1510.11 1338.01 1514.6 Q1338.01 1516.73 1337.2 1518.65 Q1336.41 1520.54 1334.31 1523.14 Q1333.73 1523.81 1330.63 1527.03 Q1327.53 1530.22 1321.88 1535.98 Z" fill="#000000" fill-rule="evenodd" fill-opacity="1" /><path clip-path="url(#clip1300)" d="M 0 0 M1672.74 1509.43 L1660.93 1527.88 L1672.74 1527.88 L1672.74 1509.43 M1671.51 1505.36 L1677.39 1505.36 L1677.39 1527.88 L1682.32 1527.88 L1682.32 1531.77 L1677.39 1531.77 L1677.39 1539.92 L1672.74 1539.92 L1672.74 1531.77 L1657.14 1531.77 L1657.14 1527.26 L1671.51 1505.36 Z" fill="#000000" fill-rule="evenodd" fill-opacity="1" /><path clip-path="url(#clip1300)" d="M 0 0 M2012.64 1520.78 Q2009.49 1520.78 2007.64 1522.93 Q2005.81 1525.08 2005.81 1528.83 Q2005.81 1532.56 2007.64 1534.73 Q2009.49 1536.89 2012.64 1536.89 Q2015.79 1536.89 2017.61 1534.73 Q2019.47 1532.56 2019.47 1528.83 Q2019.47 1525.08 2017.61 1522.93 Q2015.79 1520.78 2012.64 1520.78 M2021.92 1506.12 L2021.92 1510.38 Q2020.16 1509.55 2018.35 1509.11 Q2016.57 1508.67 2014.81 1508.67 Q2010.18 1508.67 2007.73 1511.8 Q2005.3 1514.92 2004.95 1521.24 Q2006.32 1519.23 2008.38 1518.16 Q2010.44 1517.07 2012.91 1517.07 Q2018.12 1517.07 2021.13 1520.24 Q2024.16 1523.39 2024.16 1528.83 Q2024.16 1534.16 2021.02 1537.37 Q2017.87 1540.59 2012.64 1540.59 Q2006.64 1540.59 2003.47 1536.01 Q2000.3 1531.4 2000.3 1522.67 Q2000.3 1514.48 2004.19 1509.62 Q2008.08 1504.73 2014.63 1504.73 Q2016.39 1504.73 2018.17 1505.08 Q2019.98 1505.43 2021.92 1506.12 Z" fill="#000000" fill-rule="evenodd" fill-opacity="1" /><path clip-path="url(#clip1300)" d="M 0 0 M62.9921 1321.98 L75.4689 1321.98 L75.4689 1325.77 L62.9921 1325.77 L62.9921 1321.98 Z" fill="#000000" fill-rule="evenodd" fill-opacity="1" /><path clip-path="url(#clip1300)" d="M 0 0 M84.5661 1332.93 L100.885 1332.93 L100.885 1336.86 L78.9411 1336.86 L78.9411 1332.93 Q81.6031 1330.17 86.1864 1325.54 Q90.7929 1320.89 91.9735 1319.55 Q94.2188 1317.02 95.0984 1315.29 Q96.0012 1313.53 96.0012 1311.84 Q96.0012 1309.08 94.0568 1307.35 Q92.1355 1305.61 89.0337 1305.61 Q86.8346 1305.61 84.3809 1306.37 Q81.9504 1307.14 79.1726 1308.69 L79.1726 1303.97 Q81.9967 1302.83 84.4503 1302.25 Q86.904 1301.68 88.9411 1301.68 Q94.3114 1301.68 97.5058 1304.36 Q100.7 1307.05 100.7 1311.54 Q100.7 1313.67 99.8901 1315.59 Q99.103 1317.49 96.9966 1320.08 Q96.4179 1320.75 93.316 1323.97 Q90.2142 1327.16 84.5661 1332.93 Z" fill="#000000" fill-rule="evenodd" fill-opacity="1" /><path clip-path="url(#clip1300)" d="M 0 0 M88.9411 962.875 Q85.33 962.875 83.5013 966.44 Q81.6957 969.982 81.6957 977.111 Q81.6957 984.218 83.5013 987.783 Q85.33 991.324 88.9411 991.324 Q92.5753 991.324 94.3808 987.783 Q96.2095 984.218 96.2095 977.111 Q96.2095 969.982 94.3808 966.44 Q92.5753 962.875 88.9411 962.875 M88.9411 959.172 Q94.7512 959.172 97.8068 963.778 Q100.885 968.361 100.885 977.111 Q100.885 985.838 97.8068 990.445 Q94.7512 995.028 88.9411 995.028 Q83.1309 995.028 80.0522 990.445 Q76.9967 985.838 76.9967 977.111 Q76.9967 968.361 80.0522 963.778 Q83.1309 959.172 88.9411 959.172 Z" fill="#000000" fill-rule="evenodd" fill-opacity="1" /><path clip-path="url(#clip1300)" d="M 0 0 M84.5661 647.918 L100.885 647.918 L100.885 651.853 L78.9411 651.853 L78.9411 647.918 Q81.6031 645.163 86.1864 640.533 Q90.7929 635.881 91.9735 634.538 Q94.2188 632.015 95.0984 630.279 Q96.0012 628.519 96.0012 626.83 Q96.0012 624.075 94.0568 622.339 Q92.1355 620.603 89.0337 620.603 Q86.8346 620.603 84.3809 621.367 Q81.9504 622.131 79.1726 623.682 L79.1726 618.959 Q81.9967 617.825 84.4503 617.246 Q86.904 616.668 88.9411 616.668 Q94.3114 616.668 97.5058 619.353 Q100.7 622.038 100.7 626.529 Q100.7 628.658 99.8901 630.58 Q99.103 632.478 96.9966 635.07 Q96.4179 635.742 93.316 638.959 Q90.2142 642.154 84.5661 647.918 Z" fill="#000000" fill-rule="evenodd" fill-opacity="1" /><path clip-path="url(#clip1300)" d="M 0 0 M91.3022 278.863 L79.4967 297.312 L91.3022 297.312 L91.3022 278.863 M90.0753 274.789 L95.9549 274.789 L95.9549 297.312 L100.885 297.312 L100.885 301.201 L95.9549 301.201 L95.9549 309.349 L91.3022 309.349 L91.3022 301.201 L75.7004 301.201 L75.7004 296.687 L90.0753 274.789 Z" fill="#000000" fill-rule="evenodd" fill-opacity="1" /><path clip-path="url(#clip1302)" d="
M984.72 977.077 L1155.97 463.321 L1669.73 634.573 L984.72 977.077  Z
  " fill="#008000" fill-rule="evenodd" fill-opacity="0.2"/>
<polyline clip-path="url(#clip1302)" style="stroke:#000000; stroke-width:4; stroke-opacity:1; fill:none" points="
  984.72,977.077 1155.97,463.321 1669.73,634.573 984.72,977.077 
  "/>
<circle clip-path="url(#clip1302)" cx="984.72" cy="977.077" r="14" fill="#ff0000" fill-rule="evenodd" fill-opacity="1" stroke="#000000" stroke-opacity="1" stroke-width="3.2"/>
<circle clip-path="url(#clip1302)" cx="1155.97" cy="463.321" r="14" fill="#ff0000" fill-rule="evenodd" fill-opacity="1" stroke="#000000" stroke-opacity="1" stroke-width="3.2"/>
<circle clip-path="url(#clip1302)" cx="1669.73" cy="634.573" r="14" fill="#ff0000" fill-rule="evenodd" fill-opacity="1" stroke="#000000" stroke-opacity="1" stroke-width="3.2"/>
<path clip-path="url(#clip1300)" d="M 0 0 M984.72 906.514 L973.621 936.612 L995.86 936.612 L984.72 906.514 M980.102 898.453 L989.379 898.453 L1012.43 958.933 L1003.92 958.933 L998.412 943.418 L971.15 943.418 L965.641 958.933 L957.012 958.933 L980.102 898.453 Z" fill="#000000" fill-rule="evenodd" fill-opacity="1" /><path clip-path="url(#clip1300)" d="M 0 0 M1142.71 416.294 L1142.71 438.452 L1155.83 438.452 Q1162.43 438.452 1165.59 435.738 Q1168.79 432.984 1168.79 427.353 Q1168.79 421.681 1165.59 419.008 Q1162.43 416.294 1155.83 416.294 L1142.71 416.294 M1142.71 391.421 L1142.71 409.65 L1154.82 409.65 Q1160.81 409.65 1163.73 407.422 Q1166.69 405.154 1166.69 400.536 Q1166.69 395.958 1163.73 393.69 Q1160.81 391.421 1154.82 391.421 L1142.71 391.421 M1134.52 384.697 L1155.43 384.697 Q1164.78 384.697 1169.85 388.586 Q1174.91 392.474 1174.91 399.645 Q1174.91 405.194 1172.32 408.476 Q1169.73 411.757 1164.7 412.567 Q1170.74 413.863 1174.06 417.995 Q1177.42 422.087 1177.42 428.244 Q1177.42 436.346 1171.91 440.761 Q1166.4 445.177 1156.24 445.177 L1134.52 445.177 L1134.52 384.697 Z" fill="#000000" fill-rule="evenodd" fill-opacity="1" /><path clip-path="url(#clip1300)" d="M 0 0 M1694.11 560.607 L1694.11 569.236 Q1689.98 565.387 1685.28 563.483 Q1680.63 561.579 1675.36 561.579 Q1664.99 561.579 1659.48 567.939 Q1653.97 574.259 1653.97 586.249 Q1653.97 598.2 1659.48 604.56 Q1664.99 610.879 1675.36 610.879 Q1680.63 610.879 1685.28 608.975 Q1689.98 607.071 1694.11 603.223 L1694.11 611.77 Q1689.82 614.687 1685 616.145 Q1680.22 617.603 1674.87 617.603 Q1661.14 617.603 1653.24 609.218 Q1645.34 600.792 1645.34 586.249 Q1645.34 571.666 1653.24 563.281 Q1661.14 554.855 1674.87 554.855 Q1680.3 554.855 1685.08 556.313 Q1689.9 557.731 1694.11 560.607 Z" fill="#000000" fill-rule="evenodd" fill-opacity="1" /><path clip-path="url(#clip1302)" d="
M984.72 977.077 L1155.97 463.321 L625.421 571.89 L984.72 977.077  Z
  " fill="#ffc0cb" fill-rule="evenodd" fill-opacity="0.7"/>
<polyline clip-path="url(#clip1302)" style="stroke:#000000; stroke-width:4; stroke-opacity:1; fill:none" points="
  984.72,977.077 1155.97,463.321 625.421,571.89 984.72,977.077 
  "/>
<path clip-path="url(#clip1302)" d="
M1669.73 634.573 L984.72 977.077 L1623.84 1399.06 L1669.73 634.573  Z
  " fill="#ffc0cb" fill-rule="evenodd" fill-opacity="0.7"/>
<polyline clip-path="url(#clip1302)" style="stroke:#000000; stroke-width:4; stroke-opacity:1; fill:none" points="
  1669.73,634.573 984.72,977.077 1623.84,1399.06 1669.73,634.573 
  "/>
<path clip-path="url(#clip1302)" d="
M1155.97 463.321 L1669.73 634.573 L1561.16 104.021 L1155.97 463.321  Z
  " fill="#ffc0cb" fill-rule="evenodd" fill-opacity="0.7"/>
<polyline clip-path="url(#clip1302)" style="stroke:#000000; stroke-width:4; stroke-opacity:1; fill:none" points="
  1155.97,463.321 1669.73,634.573 1561.16,104.021 1155.97,463.321 
  "/>
<path clip-path="url(#clip1302)" d="
M922.038 358.101 L928.608 358.17 L935.174 358.377 L941.736 358.722 L948.288 359.205 L954.829 359.825 L961.355 360.583 L967.864 361.477 L974.353 362.508 L980.818 363.676 
  L987.258 364.979 L993.669 366.417 L1000.05 367.989 L1006.39 369.695 L1012.7 371.534 L1018.97 373.505 L1025.19 375.607 L1031.37 377.84 L1037.5 380.202 L1043.58 382.693 
  L1049.61 385.31 L1055.58 388.054 L1061.49 390.922 L1067.34 393.914 L1073.12 397.028 L1078.84 400.264 L1084.49 403.618 L1090.07 407.091 L1095.57 410.68 L1101 414.383 
  L1106.35 418.2 L1111.61 422.129 L1116.8 426.167 L1121.89 430.314 L1126.9 434.566 L1131.82 438.923 L1136.64 443.382 L1141.37 447.942 L1146.01 452.6 L1150.54 457.354 
  L1154.98 462.203 L1159.31 467.143 L1163.53 472.174 L1167.65 477.292 L1171.66 482.496 L1175.56 487.783 L1179.35 493.15 L1183.03 498.596 L1186.59 504.118 L1190.03 509.714 
  L1193.36 515.381 L1196.56 521.116 L1199.65 526.918 L1202.61 532.783 L1205.44 538.709 L1208.16 544.693 L1210.74 550.733 L1213.2 556.826 L1215.53 562.969 L1217.73 569.16 
  L1219.8 575.395 L1221.74 581.673 L1223.54 587.99 L1225.22 594.344 L1226.76 600.731 L1228.16 607.15 L1229.43 613.596 L1230.56 620.068 L1231.56 626.562 L1232.42 633.075 
  L1233.14 639.605 L1233.73 646.149 L1234.18 652.704 L1234.49 659.267 L1234.66 665.835 L1234.7 672.405 L1234.59 678.974 L1234.35 685.54 L1233.97 692.099 L1233.45 698.649 
  L1232.8 705.187 L1232.01 711.709 L1231.08 718.213 L1230.01 724.696 L1228.81 731.156 L1227.47 737.588 L1226 743.992 L1224.4 750.362 L1222.66 756.698 L1220.79 762.996 
  L1218.78 769.253 L1216.65 775.467 L1214.38 781.634 L1211.99 787.752 L1209.47 793.819 L1206.82 799.831 L1204.04 805.787 L1201.14 811.683 L1198.12 817.516 L1194.97 823.285 
  L1191.71 828.986 L1188.32 834.618 L1184.82 840.177 L1181.21 845.661 L1177.47 851.068 L1173.63 856.396 L1169.67 861.642 L1165.61 866.803 L1161.43 871.877 L1157.15 876.863 
  L1152.77 881.758 L1148.29 886.56 L1143.7 891.266 L1139.02 895.875 L1134.24 900.385 L1129.37 904.793 L1124.41 909.098 L1119.35 913.298 L1114.22 917.39 L1108.99 921.374 
  L1103.68 925.247 L1098.3 929.008 L1092.83 932.654 L1087.29 936.185 L1081.68 939.599 L1075.99 942.894 L1070.24 946.069 L1064.42 949.122 L1058.54 952.053 L1052.6 954.859 
  L1046.6 957.54 L1040.55 960.094 L1034.44 962.52 L1028.29 964.817 L1022.09 966.985 L1015.84 969.022 L1009.55 970.927 L1003.22 972.7 L996.863 974.339 L990.467 975.844 
  L984.042 977.215 L977.589 978.45 L971.111 979.549 L964.612 980.512 L958.094 981.338 L951.56 982.027 L945.013 982.579 L938.456 982.993 L931.892 983.269 L925.323 983.407 
  L918.753 983.407 L912.184 983.269 L905.62 982.993 L899.062 982.579 L892.516 982.027 L885.982 981.338 L879.464 980.512 L872.964 979.549 L866.487 978.45 L860.034 977.215 
  L853.608 975.844 L847.213 974.339 L840.85 972.7 L834.524 970.927 L828.236 969.022 L821.99 966.985 L815.787 964.817 L809.632 962.52 L803.526 960.094 L797.473 957.54 
  L791.475 954.859 L785.534 952.053 L779.653 949.122 L773.836 946.069 L768.084 942.894 L762.399 939.599 L756.786 936.185 L751.245 932.654 L745.78 929.008 L740.392 925.247 
  L735.085 921.374 L729.86 917.39 L724.721 913.298 L719.668 909.098 L714.705 904.793 L709.833 900.385 L705.055 895.875 L700.372 891.266 L695.788 886.56 L691.304 881.758 
  L686.921 876.863 L682.642 871.877 L678.469 866.803 L674.404 861.642 L670.447 856.396 L666.602 851.068 L662.87 845.661 L659.252 840.177 L655.75 834.618 L652.366 828.986 
  L649.101 823.285 L645.957 817.516 L642.934 811.683 L640.034 805.787 L637.259 799.831 L634.61 793.819 L632.088 787.752 L629.694 781.634 L627.429 775.467 L625.294 769.253 
  L623.29 762.996 L621.418 756.698 L619.678 750.362 L618.072 743.992 L616.601 737.588 L615.264 731.156 L614.063 724.696 L612.997 718.213 L612.069 711.709 L611.277 705.187 
  L610.622 698.649 L610.105 692.099 L609.725 685.54 L609.484 678.974 L609.38 672.405 L609.415 665.835 L609.587 659.267 L609.898 652.704 L610.346 646.149 L610.932 639.605 
  L611.655 633.075 L612.516 626.562 L613.513 620.068 L614.646 613.596 L615.915 607.15 L617.32 600.731 L618.859 594.344 L620.531 587.99 L622.337 581.673 L624.275 575.395 
  L626.345 569.16 L628.545 562.969 L630.875 556.826 L633.333 550.733 L635.919 544.693 L638.631 538.709 L641.469 532.783 L644.43 526.918 L647.514 521.116 L650.719 515.381 
  L654.044 509.714 L657.487 504.118 L661.047 498.596 L664.722 493.15 L668.511 487.783 L672.412 482.496 L676.423 477.292 L680.542 472.174 L684.768 467.143 L689.099 462.203 
  L693.533 457.354 L698.068 452.6 L702.701 447.942 L707.432 443.382 L712.257 438.923 L717.175 434.566 L722.183 430.314 L727.28 426.167 L732.462 422.129 L737.729 418.2 
  L743.076 414.383 L748.503 410.68 L754.006 407.091 L759.584 403.618 L765.233 400.264 L770.951 397.028 L776.737 393.914 L782.586 390.922 L788.497 388.054 L794.467 385.31 
  L800.493 382.693 L806.573 380.202 L812.704 377.84 L818.883 375.607 L825.108 373.505 L831.375 371.534 L837.683 369.695 L844.027 367.989 L850.407 366.417 L856.817 364.979 
  L863.257 363.676 L869.723 362.508 L876.211 361.477 L882.72 360.583 L889.247 359.825 L895.788 359.205 L902.34 358.722 L908.901 358.377 L915.468 358.17 L922.038 358.101 
  L922.038 977.077 L915.468 977.077 L908.901 977.077 L902.34 977.077 L895.788 977.077 L889.247 977.077 L882.72 977.077 L876.211 977.077 L869.723 977.077 L863.257 977.077 
  L856.817 977.077 L850.407 977.077 L844.027 977.077 L837.683 977.077 L831.375 977.077 L825.108 977.077 L818.883 977.077 L812.704 977.077 L806.573 977.077 L800.493 977.077 
  L794.467 977.077 L788.497 977.077 L782.586 977.077 L776.737 977.077 L770.951 977.077 L765.233 977.077 L759.584 977.077 L754.006 977.077 L748.503 977.077 L743.076 977.077 
  L737.729 977.077 L732.462 977.077 L727.28 977.077 L722.183 977.077 L717.175 977.077 L712.257 977.077 L707.432 977.077 L702.701 977.077 L698.068 977.077 L693.533 977.077 
  L689.099 977.077 L684.768 977.077 L680.542 977.077 L676.423 977.077 L672.412 977.077 L668.511 977.077 L664.722 977.077 L661.047 977.077 L657.487 977.077 L654.044 977.077 
  L650.719 977.077 L647.514 977.077 L644.43 977.077 L641.469 977.077 L638.631 977.077 L635.919 977.077 L633.333 977.077 L630.875 977.077 L628.545 977.077 L626.345 977.077 
  L624.275 977.077 L622.337 977.077 L620.531 977.077 L618.859 977.077 L617.32 977.077 L615.915 977.077 L614.646 977.077 L613.513 977.077 L612.516 977.077 L611.655 977.077 
  L610.932 977.077 L610.346 977.077 L609.898 977.077 L609.587 977.077 L609.415 977.077 L609.38 977.077 L609.484 977.077 L609.725 977.077 L610.105 977.077 L610.622 977.077 
  L611.277 977.077 L612.069 977.077 L612.997 977.077 L614.063 977.077 L615.264 977.077 L616.601 977.077 L618.072 977.077 L619.678 977.077 L621.418 977.077 L623.29 977.077 
  L625.294 977.077 L627.429 977.077 L629.694 977.077 L632.088 977.077 L634.61 977.077 L637.259 977.077 L640.034 977.077 L642.934 977.077 L645.957 977.077 L649.101 977.077 
  L652.366 977.077 L655.75 977.077 L659.252 977.077 L662.87 977.077 L666.602 977.077 L670.447 977.077 L674.404 977.077 L678.469 977.077 L682.642 977.077 L686.921 977.077 
  L691.304 977.077 L695.788 977.077 L700.372 977.077 L705.055 977.077 L709.833 977.077 L714.705 977.077 L719.668 977.077 L724.721 977.077 L729.86 977.077 L735.085 977.077 
  L740.392 977.077 L745.78 977.077 L751.245 977.077 L756.786 977.077 L762.399 977.077 L768.084 977.077 L773.836 977.077 L779.653 977.077 L785.534 977.077 L791.475 977.077 
  L797.473 977.077 L803.526 977.077 L809.632 977.077 L815.787 977.077 L821.99 977.077 L828.236 977.077 L834.524 977.077 L840.85 977.077 L847.213 977.077 L853.608 977.077 
  L860.034 977.077 L866.487 977.077 L872.964 977.077 L879.464 977.077 L885.982 977.077 L892.516 977.077 L899.062 977.077 L905.62 977.077 L912.184 977.077 L918.753 977.077 
  L925.323 977.077 L931.892 977.077 L938.456 977.077 L945.013 977.077 L951.56 977.077 L958.094 977.077 L964.612 977.077 L971.111 977.077 L977.589 977.077 L984.042 977.077 
  L990.467 977.077 L996.863 977.077 L1003.22 977.077 L1009.55 977.077 L1015.84 977.077 L1022.09 977.077 L1028.29 977.077 L1034.44 977.077 L1040.55 977.077 L1046.6 977.077 
  L1052.6 977.077 L1058.54 977.077 L1064.42 977.077 L1070.24 977.077 L1075.99 977.077 L1081.68 977.077 L1087.29 977.077 L1092.83 977.077 L1098.3 977.077 L1103.68 977.077 
  L1108.99 977.077 L1114.22 977.077 L1119.35 977.077 L1124.41 977.077 L1129.37 977.077 L1134.24 977.077 L1139.02 977.077 L1143.7 977.077 L1148.29 977.077 L1152.77 977.077 
  L1157.15 977.077 L1161.43 977.077 L1165.61 977.077 L1169.67 977.077 L1173.63 977.077 L1177.47 977.077 L1181.21 977.077 L1184.82 977.077 L1188.32 977.077 L1191.71 977.077 
  L1194.97 977.077 L1198.12 977.077 L1201.14 977.077 L1204.04 977.077 L1206.82 977.077 L1209.47 977.077 L1211.99 977.077 L1214.38 977.077 L1216.65 977.077 L1218.78 977.077 
  L1220.79 977.077 L1222.66 977.077 L1224.4 977.077 L1226 977.077 L1227.47 977.077 L1228.81 977.077 L1230.01 977.077 L1231.08 977.077 L1232.01 977.077 L1232.8 977.077 
  L1233.45 977.077 L1233.97 977.077 L1234.35 977.077 L1234.59 977.077 L1234.7 977.077 L1234.66 977.077 L1234.49 977.077 L1234.18 977.077 L1233.73 977.077 L1233.14 977.077 
  L1232.42 977.077 L1231.56 977.077 L1230.56 977.077 L1229.43 977.077 L1228.16 977.077 L1226.76 977.077 L1225.22 977.077 L1223.54 977.077 L1221.74 977.077 L1219.8 977.077 
  L1217.73 977.077 L1215.53 977.077 L1213.2 977.077 L1210.74 977.077 L1208.16 977.077 L1205.44 977.077 L1202.61 977.077 L1199.65 977.077 L1196.56 977.077 L1193.36 977.077 
  L1190.03 977.077 L1186.59 977.077 L1183.03 977.077 L1179.35 977.077 L1175.56 977.077 L1171.66 977.077 L1167.65 977.077 L1163.53 977.077 L1159.31 977.077 L1154.98 977.077 
  L1150.54 977.077 L1146.01 977.077 L1141.37 977.077 L1136.64 977.077 L1131.82 977.077 L1126.9 977.077 L1121.89 977.077 L1116.8 977.077 L1111.61 977.077 L1106.35 977.077 
  L1101 977.077 L1095.57 977.077 L1090.07 977.077 L1084.49 977.077 L1078.84 977.077 L1073.12 977.077 L1067.34 977.077 L1061.49 977.077 L1055.58 977.077 L1049.61 977.077 
  L1043.58 977.077 L1037.5 977.077 L1031.37 977.077 L1025.19 977.077 L1018.97 977.077 L1012.7 977.077 L1006.39 977.077 L1000.05 977.077 L993.669 977.077 L987.258 977.077 
  L980.818 977.077 L974.353 977.077 L967.864 977.077 L961.355 977.077 L954.829 977.077 L948.288 977.077 L941.736 977.077 L935.174 977.077 L928.608 977.077 L922.038 977.077 
   Z
  " fill="#ffa500" fill-rule="evenodd" fill-opacity="0.2"/>
<polyline clip-path="url(#clip1302)" style="stroke:#00a9ad; stroke-width:4; stroke-opacity:1; fill:none" points="
  922.038,358.101 928.608,358.17 935.174,358.377 941.736,358.722 948.288,359.205 954.829,359.825 961.355,360.583 967.864,361.477 974.353,362.508 980.818,363.676 
  987.258,364.979 993.669,366.417 1000.05,367.989 1006.39,369.695 1012.7,371.534 1018.97,373.505 1025.19,375.607 1031.37,377.84 1037.5,380.202 1043.58,382.693 
  1049.61,385.31 1055.58,388.054 1061.49,390.922 1067.34,393.914 1073.12,397.028 1078.84,400.264 1084.49,403.618 1090.07,407.091 1095.57,410.68 1101,414.383 
  1106.35,418.2 1111.61,422.129 1116.8,426.167 1121.89,430.314 1126.9,434.566 1131.82,438.923 1136.64,443.382 1141.37,447.942 1146.01,452.6 1150.54,457.354 
  1154.98,462.203 1159.31,467.143 1163.53,472.174 1167.65,477.292 1171.66,482.496 1175.56,487.783 1179.35,493.15 1183.03,498.596 1186.59,504.118 1190.03,509.714 
  1193.36,515.381 1196.56,521.116 1199.65,526.918 1202.61,532.783 1205.44,538.709 1208.16,544.693 1210.74,550.733 1213.2,556.826 1215.53,562.969 1217.73,569.16 
  1219.8,575.395 1221.74,581.673 1223.54,587.99 1225.22,594.344 1226.76,600.731 1228.16,607.15 1229.43,613.596 1230.56,620.068 1231.56,626.562 1232.42,633.075 
  1233.14,639.605 1233.73,646.149 1234.18,652.704 1234.49,659.267 1234.66,665.835 1234.7,672.405 1234.59,678.974 1234.35,685.54 1233.97,692.099 1233.45,698.649 
  1232.8,705.187 1232.01,711.709 1231.08,718.213 1230.01,724.696 1228.81,731.156 1227.47,737.588 1226,743.992 1224.4,750.362 1222.66,756.698 1220.79,762.996 
  1218.78,769.253 1216.65,775.467 1214.38,781.634 1211.99,787.752 1209.47,793.819 1206.82,799.831 1204.04,805.787 1201.14,811.683 1198.12,817.516 1194.97,823.285 
  1191.71,828.986 1188.32,834.618 1184.82,840.177 1181.21,845.661 1177.47,851.068 1173.63,856.396 1169.67,861.642 1165.61,866.803 1161.43,871.877 1157.15,876.863 
  1152.77,881.758 1148.29,886.56 1143.7,891.266 1139.02,895.875 1134.24,900.385 1129.37,904.793 1124.41,909.098 1119.35,913.298 1114.22,917.39 1108.99,921.374 
  1103.68,925.247 1098.3,929.008 1092.83,932.654 1087.29,936.185 1081.68,939.599 1075.99,942.894 1070.24,946.069 1064.42,949.122 1058.54,952.053 1052.6,954.859 
  1046.6,957.54 1040.55,960.094 1034.44,962.52 1028.29,964.817 1022.09,966.985 1015.84,969.022 1009.55,970.927 1003.22,972.7 996.863,974.339 990.467,975.844 
  984.042,977.215 977.589,978.45 971.111,979.549 964.612,980.512 958.094,981.338 951.56,982.027 945.013,982.579 938.456,982.993 931.892,983.269 925.323,983.407 
  918.753,983.407 912.184,983.269 905.62,982.993 899.062,982.579 892.516,982.027 885.982,981.338 879.464,980.512 872.964,979.549 866.487,978.45 860.034,977.215 
  853.608,975.844 847.213,974.339 840.85,972.7 834.524,970.927 828.236,969.022 821.99,966.985 815.787,964.817 809.632,962.52 803.526,960.094 797.473,957.54 
  791.475,954.859 785.534,952.053 779.653,949.122 773.836,946.069 768.084,942.894 762.399,939.599 756.786,936.185 751.245,932.654 745.78,929.008 740.392,925.247 
  735.085,921.374 729.86,917.39 724.721,913.298 719.668,909.098 714.705,904.793 709.833,900.385 705.055,895.875 700.372,891.266 695.788,886.56 691.304,881.758 
  686.921,876.863 682.642,871.877 678.469,866.803 674.404,861.642 670.447,856.396 666.602,851.068 662.87,845.661 659.252,840.177 655.75,834.618 652.366,828.986 
  649.101,823.285 645.957,817.516 642.934,811.683 640.034,805.787 637.259,799.831 634.61,793.819 632.088,787.752 629.694,781.634 627.429,775.467 625.294,769.253 
  623.29,762.996 621.418,756.698 619.678,750.362 618.072,743.992 616.601,737.588 615.264,731.156 614.063,724.696 612.997,718.213 612.069,711.709 611.277,705.187 
  610.622,698.649 610.105,692.099 609.725,685.54 609.484,678.974 609.38,672.405 609.415,665.835 609.587,659.267 609.898,652.704 610.346,646.149 610.932,639.605 
  611.655,633.075 612.516,626.562 613.513,620.068 614.646,613.596 615.915,607.15 617.32,600.731 618.859,594.344 620.531,587.99 622.337,581.673 624.275,575.395 
  626.345,569.16 628.545,562.969 630.875,556.826 633.333,550.733 635.919,544.693 638.631,538.709 641.469,532.783 644.43,526.918 647.514,521.116 650.719,515.381 
  654.044,509.714 657.487,504.118 661.047,498.596 664.722,493.15 668.511,487.783 672.412,482.496 676.423,477.292 680.542,472.174 684.768,467.143 689.099,462.203 
  693.533,457.354 698.068,452.6 702.701,447.942 707.432,443.382 712.257,438.923 717.175,434.566 722.183,430.314 727.28,426.167 732.462,422.129 737.729,418.2 
  743.076,414.383 748.503,410.68 754.006,407.091 759.584,403.618 765.233,400.264 770.951,397.028 776.737,393.914 782.586,390.922 788.497,388.054 794.467,385.31 
  800.493,382.693 806.573,380.202 812.704,377.84 818.883,375.607 825.108,373.505 831.375,371.534 837.683,369.695 844.027,367.989 850.407,366.417 856.817,364.979 
  863.257,363.676 869.723,362.508 876.211,361.477 882.72,360.583 889.247,359.825 895.788,359.205 902.34,358.722 908.901,358.377 915.468,358.17 922.038,358.101 
  
  "/>
<path clip-path="url(#clip1302)" d="
M1426.1 561.399 L1435.39 561.496 L1444.67 561.789 L1453.95 562.277 L1463.22 562.96 L1472.47 563.837 L1481.7 564.909 L1490.9 566.174 L1500.08 567.632 L1509.22 569.283 
  L1518.33 571.126 L1527.4 573.159 L1536.42 575.383 L1545.39 577.796 L1554.31 580.396 L1563.18 583.184 L1571.98 586.157 L1580.72 589.315 L1589.39 592.655 L1597.99 596.177 
  L1606.51 599.879 L1614.95 603.759 L1623.31 607.815 L1631.58 612.047 L1639.77 616.451 L1647.85 621.026 L1655.84 625.77 L1663.73 630.681 L1671.51 635.757 L1679.19 640.995 
  L1686.75 646.393 L1694.2 651.949 L1701.53 657.66 L1708.73 663.523 L1715.82 669.537 L1722.77 675.699 L1729.6 682.005 L1736.28 688.453 L1742.84 695.041 L1749.25 701.764 
  L1755.52 708.621 L1761.65 715.608 L1767.62 722.723 L1773.45 729.961 L1779.12 737.32 L1784.64 744.797 L1790 752.388 L1795.19 760.09 L1800.23 767.899 L1805.1 775.813 
  L1809.8 783.827 L1814.33 791.938 L1818.69 800.142 L1822.88 808.436 L1826.89 816.817 L1830.73 825.28 L1834.39 833.822 L1837.86 842.438 L1841.16 851.126 L1844.27 859.881 
  L1847.2 868.7 L1849.94 877.578 L1852.49 886.512 L1854.86 895.497 L1857.03 904.53 L1859.02 913.607 L1860.81 922.724 L1862.42 931.876 L1863.83 941.06 L1865.04 950.272 
  L1866.07 959.507 L1866.9 968.761 L1867.53 978.031 L1867.97 987.312 L1868.21 996.601 L1868.26 1005.89 L1868.11 1015.18 L1867.77 1024.47 L1867.24 1033.74 L1866.51 1043.01 
  L1865.58 1052.25 L1864.46 1061.48 L1863.15 1070.67 L1861.64 1079.84 L1859.94 1088.98 L1858.05 1098.08 L1855.97 1107.13 L1853.7 1116.14 L1851.24 1125.1 L1848.59 1134.01 
  L1845.76 1142.86 L1842.74 1151.64 L1839.53 1160.37 L1836.15 1169.02 L1832.58 1177.6 L1828.83 1186.1 L1824.91 1194.52 L1820.81 1202.86 L1816.53 1211.11 L1812.09 1219.27 
  L1807.47 1227.33 L1802.68 1235.3 L1797.73 1243.16 L1792.61 1250.91 L1787.34 1258.56 L1781.9 1266.09 L1776.3 1273.51 L1770.55 1280.81 L1764.65 1287.99 L1758.6 1295.04 
  L1752.4 1301.96 L1746.06 1308.75 L1739.58 1315.41 L1732.96 1321.93 L1726.2 1328.3 L1719.31 1334.54 L1712.29 1340.63 L1705.15 1346.57 L1697.88 1352.35 L1690.49 1357.99 
  L1682.98 1363.46 L1675.36 1368.78 L1667.63 1373.94 L1659.8 1378.93 L1651.86 1383.76 L1643.82 1388.42 L1635.69 1392.91 L1627.46 1397.23 L1619.14 1401.37 L1610.74 1405.34 
  L1602.26 1409.13 L1593.7 1412.75 L1585.06 1416.18 L1576.36 1419.43 L1567.59 1422.49 L1558.75 1425.37 L1549.86 1428.07 L1540.91 1430.57 L1531.91 1432.89 L1522.87 1435.02 
  L1513.78 1436.96 L1504.66 1438.71 L1495.5 1440.26 L1486.31 1441.62 L1477.09 1442.79 L1467.85 1443.76 L1458.59 1444.54 L1449.32 1445.13 L1440.03 1445.52 L1430.74 1445.72 
  L1421.45 1445.72 L1412.16 1445.52 L1402.88 1445.13 L1393.6 1444.54 L1384.35 1443.76 L1375.11 1442.79 L1365.89 1441.62 L1356.7 1440.26 L1347.54 1438.71 L1338.41 1436.96 
  L1329.32 1435.02 L1320.28 1432.89 L1311.28 1430.57 L1302.33 1428.07 L1293.44 1425.37 L1284.61 1422.49 L1275.84 1419.43 L1267.13 1416.18 L1258.5 1412.75 L1249.94 1409.13 
  L1241.45 1405.34 L1233.05 1401.37 L1224.73 1397.23 L1216.51 1392.91 L1208.37 1388.42 L1200.33 1383.76 L1192.4 1378.93 L1184.56 1373.94 L1176.83 1368.78 L1169.21 1363.46 
  L1161.71 1357.99 L1154.32 1352.35 L1147.05 1346.57 L1139.9 1340.63 L1132.88 1334.54 L1125.99 1328.3 L1119.24 1321.93 L1112.61 1315.41 L1106.13 1308.75 L1099.79 1301.96 
  L1093.59 1295.04 L1087.54 1287.99 L1081.64 1280.81 L1075.89 1273.51 L1070.29 1266.09 L1064.86 1258.56 L1059.58 1250.91 L1054.46 1243.16 L1049.51 1235.3 L1044.72 1227.33 
  L1040.11 1219.27 L1035.66 1211.11 L1031.38 1202.86 L1027.28 1194.52 L1023.36 1186.1 L1019.61 1177.6 L1016.05 1169.02 L1012.66 1160.37 L1009.46 1151.64 L1006.44 1142.86 
  L1003.6 1134.01 L1000.96 1125.1 L998.496 1116.14 L996.225 1107.13 L994.143 1098.08 L992.253 1088.98 L990.554 1079.84 L989.048 1070.67 L987.734 1061.48 L986.614 1052.25 
  L985.688 1043.01 L984.957 1033.74 L984.42 1024.47 L984.078 1015.18 L983.932 1005.89 L983.981 996.601 L984.225 987.312 L984.664 978.031 L985.298 968.761 L986.127 959.507 
  L987.15 950.272 L988.367 941.06 L989.777 931.876 L991.38 922.724 L993.174 913.607 L995.16 904.53 L997.336 895.497 L999.702 886.512 L1002.26 877.578 L1005 868.7 
  L1007.92 859.881 L1011.04 851.126 L1014.33 842.438 L1017.81 833.822 L1021.46 825.28 L1025.3 816.817 L1029.31 808.436 L1033.5 800.142 L1037.86 791.938 L1042.39 783.827 
  L1047.1 775.813 L1051.97 767.899 L1057 760.09 L1062.2 752.388 L1067.56 744.797 L1073.07 737.32 L1078.74 729.961 L1084.57 722.723 L1090.55 715.608 L1096.67 708.621 
  L1102.94 701.764 L1109.36 695.041 L1115.91 688.453 L1122.6 682.005 L1129.42 675.699 L1136.38 669.537 L1143.46 663.523 L1150.67 657.66 L1158 651.949 L1165.44 646.393 
  L1173.01 640.995 L1180.68 635.757 L1188.46 630.681 L1196.35 625.77 L1204.34 621.026 L1212.43 616.451 L1220.61 612.047 L1228.88 607.815 L1237.24 603.759 L1245.68 599.879 
  L1254.21 596.177 L1262.8 592.655 L1271.47 589.315 L1280.21 586.157 L1289.02 583.184 L1297.88 580.396 L1306.8 577.796 L1315.77 575.383 L1324.79 573.159 L1333.86 571.126 
  L1342.97 569.283 L1352.11 567.632 L1361.29 566.174 L1370.49 564.909 L1379.72 563.837 L1388.97 562.96 L1398.24 562.277 L1407.52 561.789 L1416.81 561.496 L1426.1 561.399 
  L1426.1 977.077 L1416.81 977.077 L1407.52 977.077 L1398.24 977.077 L1388.97 977.077 L1379.72 977.077 L1370.49 977.077 L1361.29 977.077 L1352.11 977.077 L1342.97 977.077 
  L1333.86 977.077 L1324.79 977.077 L1315.77 977.077 L1306.8 977.077 L1297.88 977.077 L1289.02 977.077 L1280.21 977.077 L1271.47 977.077 L1262.8 977.077 L1254.21 977.077 
  L1245.68 977.077 L1237.24 977.077 L1228.88 977.077 L1220.61 977.077 L1212.43 977.077 L1204.34 977.077 L1196.35 977.077 L1188.46 977.077 L1180.68 977.077 L1173.01 977.077 
  L1165.44 977.077 L1158 977.077 L1150.67 977.077 L1143.46 977.077 L1136.38 977.077 L1129.42 977.077 L1122.6 977.077 L1115.91 977.077 L1109.36 977.077 L1102.94 977.077 
  L1096.67 977.077 L1090.55 977.077 L1084.57 977.077 L1078.74 977.077 L1073.07 977.077 L1067.56 977.077 L1062.2 977.077 L1057 977.077 L1051.97 977.077 L1047.1 977.077 
  L1042.39 977.077 L1037.86 977.077 L1033.5 977.077 L1029.31 977.077 L1025.3 977.077 L1021.46 977.077 L1017.81 977.077 L1014.33 977.077 L1011.04 977.077 L1007.92 977.077 
  L1005 977.077 L1002.26 977.077 L999.702 977.077 L997.336 977.077 L995.16 977.077 L993.174 977.077 L991.38 977.077 L989.777 977.077 L988.367 977.077 L987.15 977.077 
  L986.127 977.077 L985.298 977.077 L984.664 977.077 L984.225 977.077 L983.981 977.077 L983.932 977.077 L984.078 977.077 L984.42 977.077 L984.957 977.077 L985.688 977.077 
  L986.614 977.077 L987.734 977.077 L989.048 977.077 L990.554 977.077 L992.253 977.077 L994.143 977.077 L996.225 977.077 L998.496 977.077 L1000.96 977.077 L1003.6 977.077 
  L1006.44 977.077 L1009.46 977.077 L1012.66 977.077 L1016.05 977.077 L1019.61 977.077 L1023.36 977.077 L1027.28 977.077 L1031.38 977.077 L1035.66 977.077 L1040.11 977.077 
  L1044.72 977.077 L1049.51 977.077 L1054.46 977.077 L1059.58 977.077 L1064.86 977.077 L1070.29 977.077 L1075.89 977.077 L1081.64 977.077 L1087.54 977.077 L1093.59 977.077 
  L1099.79 977.077 L1106.13 977.077 L1112.61 977.077 L1119.24 977.077 L1125.99 977.077 L1132.88 977.077 L1139.9 977.077 L1147.05 977.077 L1154.32 977.077 L1161.71 977.077 
  L1169.21 977.077 L1176.83 977.077 L1184.56 977.077 L1192.4 977.077 L1200.33 977.077 L1208.37 977.077 L1216.51 977.077 L1224.73 977.077 L1233.05 977.077 L1241.45 977.077 
  L1249.94 977.077 L1258.5 977.077 L1267.13 977.077 L1275.84 977.077 L1284.61 977.077 L1293.44 977.077 L1302.33 977.077 L1311.28 977.077 L1320.28 977.077 L1329.32 977.077 
  L1338.41 977.077 L1347.54 977.077 L1356.7 977.077 L1365.89 977.077 L1375.11 977.077 L1384.35 977.077 L1393.6 977.077 L1402.88 977.077 L1412.16 977.077 L1421.45 977.077 
  L1430.74 977.077 L1440.03 977.077 L1449.32 977.077 L1458.59 977.077 L1467.85 977.077 L1477.09 977.077 L1486.31 977.077 L1495.5 977.077 L1504.66 977.077 L1513.78 977.077 
  L1522.87 977.077 L1531.91 977.077 L1540.91 977.077 L1549.86 977.077 L1558.75 977.077 L1567.59 977.077 L1576.36 977.077 L1585.06 977.077 L1593.7 977.077 L1602.26 977.077 
  L1610.74 977.077 L1619.14 977.077 L1627.46 977.077 L1635.69 977.077 L1643.82 977.077 L1651.86 977.077 L1659.8 977.077 L1667.63 977.077 L1675.36 977.077 L1682.98 977.077 
  L1690.49 977.077 L1697.88 977.077 L1705.15 977.077 L1712.29 977.077 L1719.31 977.077 L1726.2 977.077 L1732.96 977.077 L1739.58 977.077 L1746.06 977.077 L1752.4 977.077 
  L1758.6 977.077 L1764.65 977.077 L1770.55 977.077 L1776.3 977.077 L1781.9 977.077 L1787.34 977.077 L1792.61 977.077 L1797.73 977.077 L1802.68 977.077 L1807.47 977.077 
  L1812.09 977.077 L1816.53 977.077 L1820.81 977.077 L1824.91 977.077 L1828.83 977.077 L1832.58 977.077 L1836.15 977.077 L1839.53 977.077 L1842.74 977.077 L1845.76 977.077 
  L1848.59 977.077 L1851.24 977.077 L1853.7 977.077 L1855.97 977.077 L1858.05 977.077 L1859.94 977.077 L1861.64 977.077 L1863.15 977.077 L1864.46 977.077 L1865.58 977.077 
  L1866.51 977.077 L1867.24 977.077 L1867.77 977.077 L1868.11 977.077 L1868.26 977.077 L1868.21 977.077 L1867.97 977.077 L1867.53 977.077 L1866.9 977.077 L1866.07 977.077 
  L1865.04 977.077 L1863.83 977.077 L1862.42 977.077 L1860.81 977.077 L1859.02 977.077 L1857.03 977.077 L1854.86 977.077 L1852.49 977.077 L1849.94 977.077 L1847.2 977.077 
  L1844.27 977.077 L1841.16 977.077 L1837.86 977.077 L1834.39 977.077 L1830.73 977.077 L1826.89 977.077 L1822.88 977.077 L1818.69 977.077 L1814.33 977.077 L1809.8 977.077 
  L1805.1 977.077 L1800.23 977.077 L1795.19 977.077 L1790 977.077 L1784.64 977.077 L1779.12 977.077 L1773.45 977.077 L1767.62 977.077 L1761.65 977.077 L1755.52 977.077 
  L1749.25 977.077 L1742.84 977.077 L1736.28 977.077 L1729.6 977.077 L1722.77 977.077 L1715.82 977.077 L1708.73 977.077 L1701.53 977.077 L1694.2 977.077 L1686.75 977.077 
  L1679.19 977.077 L1671.51 977.077 L1663.73 977.077 L1655.84 977.077 L1647.85 977.077 L1639.77 977.077 L1631.58 977.077 L1623.31 977.077 L1614.95 977.077 L1606.51 977.077 
  L1597.99 977.077 L1589.39 977.077 L1580.72 977.077 L1571.98 977.077 L1563.18 977.077 L1554.31 977.077 L1545.39 977.077 L1536.42 977.077 L1527.4 977.077 L1518.33 977.077 
  L1509.22 977.077 L1500.08 977.077 L1490.9 977.077 L1481.7 977.077 L1472.47 977.077 L1463.22 977.077 L1453.95 977.077 L1444.67 977.077 L1435.39 977.077 L1426.1 977.077 
   Z
  " fill="#ffa500" fill-rule="evenodd" fill-opacity="0.2"/>
<polyline clip-path="url(#clip1302)" style="stroke:#ed5d92; stroke-width:4; stroke-opacity:1; fill:none" points="
  1426.1,561.399 1435.39,561.496 1444.67,561.789 1453.95,562.277 1463.22,562.96 1472.47,563.837 1481.7,564.909 1490.9,566.174 1500.08,567.632 1509.22,569.283 
  1518.33,571.126 1527.4,573.159 1536.42,575.383 1545.39,577.796 1554.31,580.396 1563.18,583.184 1571.98,586.157 1580.72,589.315 1589.39,592.655 1597.99,596.177 
  1606.51,599.879 1614.95,603.759 1623.31,607.815 1631.58,612.047 1639.77,616.451 1647.85,621.026 1655.84,625.77 1663.73,630.681 1671.51,635.757 1679.19,640.995 
  1686.75,646.393 1694.2,651.949 1701.53,657.66 1708.73,663.523 1715.82,669.537 1722.77,675.699 1729.6,682.005 1736.28,688.453 1742.84,695.041 1749.25,701.764 
  1755.52,708.621 1761.65,715.608 1767.62,722.723 1773.45,729.961 1779.12,737.32 1784.64,744.797 1790,752.388 1795.19,760.09 1800.23,767.899 1805.1,775.813 
  1809.8,783.827 1814.33,791.938 1818.69,800.142 1822.88,808.436 1826.89,816.817 1830.73,825.28 1834.39,833.822 1837.86,842.438 1841.16,851.126 1844.27,859.881 
  1847.2,868.7 1849.94,877.578 1852.49,886.512 1854.86,895.497 1857.03,904.53 1859.02,913.607 1860.81,922.724 1862.42,931.876 1863.83,941.06 1865.04,950.272 
  1866.07,959.507 1866.9,968.761 1867.53,978.031 1867.97,987.312 1868.21,996.601 1868.26,1005.89 1868.11,1015.18 1867.77,1024.47 1867.24,1033.74 1866.51,1043.01 
  1865.58,1052.25 1864.46,1061.48 1863.15,1070.67 1861.64,1079.84 1859.94,1088.98 1858.05,1098.08 1855.97,1107.13 1853.7,1116.14 1851.24,1125.1 1848.59,1134.01 
  1845.76,1142.86 1842.74,1151.64 1839.53,1160.37 1836.15,1169.02 1832.58,1177.6 1828.83,1186.1 1824.91,1194.52 1820.81,1202.86 1816.53,1211.11 1812.09,1219.27 
  1807.47,1227.33 1802.68,1235.3 1797.73,1243.16 1792.61,1250.91 1787.34,1258.56 1781.9,1266.09 1776.3,1273.51 1770.55,1280.81 1764.65,1287.99 1758.6,1295.04 
  1752.4,1301.96 1746.06,1308.75 1739.58,1315.41 1732.96,1321.93 1726.2,1328.3 1719.31,1334.54 1712.29,1340.63 1705.15,1346.57 1697.88,1352.35 1690.49,1357.99 
  1682.98,1363.46 1675.36,1368.78 1667.63,1373.94 1659.8,1378.93 1651.86,1383.76 1643.82,1388.42 1635.69,1392.91 1627.46,1397.23 1619.14,1401.37 1610.74,1405.34 
  1602.26,1409.13 1593.7,1412.75 1585.06,1416.18 1576.36,1419.43 1567.59,1422.49 1558.75,1425.37 1549.86,1428.07 1540.91,1430.57 1531.91,1432.89 1522.87,1435.02 
  1513.78,1436.96 1504.66,1438.71 1495.5,1440.26 1486.31,1441.62 1477.09,1442.79 1467.85,1443.76 1458.59,1444.54 1449.32,1445.13 1440.03,1445.52 1430.74,1445.72 
  1421.45,1445.72 1412.16,1445.52 1402.88,1445.13 1393.6,1444.54 1384.35,1443.76 1375.11,1442.79 1365.89,1441.62 1356.7,1440.26 1347.54,1438.71 1338.41,1436.96 
  1329.32,1435.02 1320.28,1432.89 1311.28,1430.57 1302.33,1428.07 1293.44,1425.37 1284.61,1422.49 1275.84,1419.43 1267.13,1416.18 1258.5,1412.75 1249.94,1409.13 
  1241.45,1405.34 1233.05,1401.37 1224.73,1397.23 1216.51,1392.91 1208.37,1388.42 1200.33,1383.76 1192.4,1378.93 1184.56,1373.94 1176.83,1368.78 1169.21,1363.46 
  1161.71,1357.99 1154.32,1352.35 1147.05,1346.57 1139.9,1340.63 1132.88,1334.54 1125.99,1328.3 1119.24,1321.93 1112.61,1315.41 1106.13,1308.75 1099.79,1301.96 
  1093.59,1295.04 1087.54,1287.99 1081.64,1280.81 1075.89,1273.51 1070.29,1266.09 1064.86,1258.56 1059.58,1250.91 1054.46,1243.16 1049.51,1235.3 1044.72,1227.33 
  1040.11,1219.27 1035.66,1211.11 1031.38,1202.86 1027.28,1194.52 1023.36,1186.1 1019.61,1177.6 1016.05,1169.02 1012.66,1160.37 1009.46,1151.64 1006.44,1142.86 
  1003.6,1134.01 1000.96,1125.1 998.496,1116.14 996.225,1107.13 994.143,1098.08 992.253,1088.98 990.554,1079.84 989.048,1070.67 987.734,1061.48 986.614,1052.25 
  985.688,1043.01 984.957,1033.74 984.42,1024.47 984.078,1015.18 983.932,1005.89 983.981,996.601 984.225,987.312 984.664,978.031 985.298,968.761 986.127,959.507 
  987.15,950.272 988.367,941.06 989.777,931.876 991.38,922.724 993.174,913.607 995.16,904.53 997.336,895.497 999.702,886.512 1002.26,877.578 1005,868.7 
  1007.92,859.881 1011.04,851.126 1014.33,842.438 1017.81,833.822 1021.46,825.28 1025.3,816.817 1029.31,808.436 1033.5,800.142 1037.86,791.938 1042.39,783.827 
  1047.1,775.813 1051.97,767.899 1057,760.09 1062.2,752.388 1067.56,744.797 1073.07,737.32 1078.74,729.961 1084.57,722.723 1090.55,715.608 1096.67,708.621 
  1102.94,701.764 1109.36,695.041 1115.91,688.453 1122.6,682.005 1129.42,675.699 1136.38,669.537 1143.46,663.523 1150.67,657.66 1158,651.949 1165.44,646.393 
  1173.01,640.995 1180.68,635.757 1188.46,630.681 1196.35,625.77 1204.34,621.026 1212.43,616.451 1220.61,612.047 1228.88,607.815 1237.24,603.759 1245.68,599.879 
  1254.21,596.177 1262.8,592.655 1271.47,589.315 1280.21,586.157 1289.02,583.184 1297.88,580.396 1306.8,577.796 1315.77,575.383 1324.79,573.159 1333.86,571.126 
  1342.97,569.283 1352.11,567.632 1361.29,566.174 1370.49,564.909 1379.72,563.837 1388.97,562.96 1398.24,562.277 1407.52,561.789 1416.81,561.496 1426.1,561.399 
  
  "/>
<path clip-path="url(#clip1302)" d="
M1462.29 87.9763 L1468.86 88.0453 L1475.42 88.2524 L1481.98 88.5974 L1488.54 89.0802 L1495.08 89.7005 L1501.6 90.4582 L1508.11 91.3528 L1514.6 92.384 L1521.07 93.5514 
  L1527.51 94.8543 L1533.92 96.2922 L1540.3 97.8646 L1546.64 99.5706 L1552.95 101.41 L1559.22 103.381 L1565.44 105.483 L1571.62 107.716 L1577.75 110.078 L1583.83 112.568 
  L1589.86 115.186 L1595.83 117.929 L1601.74 120.798 L1607.59 123.79 L1613.37 126.904 L1619.09 130.139 L1624.74 133.494 L1630.32 136.966 L1635.82 140.555 L1641.25 144.259 
  L1646.6 148.076 L1651.86 152.005 L1657.04 156.043 L1662.14 160.189 L1667.15 164.442 L1672.07 168.799 L1676.89 173.258 L1681.62 177.817 L1686.26 182.475 L1690.79 187.23 
  L1695.22 192.078 L1699.56 197.019 L1703.78 202.05 L1707.9 207.168 L1711.91 212.372 L1715.81 217.658 L1719.6 223.026 L1723.28 228.472 L1726.84 233.994 L1730.28 239.59 
  L1733.61 245.257 L1736.81 250.992 L1739.89 256.793 L1742.86 262.658 L1745.69 268.584 L1748.41 274.568 L1750.99 280.608 L1753.45 286.701 L1755.78 292.844 L1757.98 299.035 
  L1760.05 305.271 L1761.99 311.549 L1763.79 317.866 L1765.47 324.219 L1767 330.607 L1768.41 337.025 L1769.68 343.472 L1770.81 349.943 L1771.81 356.437 L1772.67 362.951 
  L1773.39 369.481 L1773.98 376.025 L1774.43 382.58 L1774.74 389.143 L1774.91 395.711 L1774.94 402.281 L1774.84 408.85 L1774.6 415.416 L1774.22 421.975 L1773.7 428.525 
  L1773.05 435.062 L1772.26 441.584 L1771.33 448.089 L1770.26 454.572 L1769.06 461.031 L1767.72 467.464 L1766.25 473.867 L1764.65 480.238 L1762.91 486.574 L1761.03 492.872 
  L1759.03 499.129 L1756.9 505.342 L1754.63 511.51 L1752.24 517.628 L1749.71 523.695 L1747.06 529.707 L1744.29 535.662 L1741.39 541.558 L1738.37 547.392 L1735.22 553.161 
  L1731.96 558.862 L1728.57 564.493 L1725.07 570.053 L1721.45 575.537 L1717.72 580.944 L1713.88 586.272 L1709.92 591.517 L1705.86 596.678 L1701.68 601.753 L1697.4 606.739 
  L1693.02 611.634 L1688.54 616.436 L1683.95 621.142 L1679.27 625.751 L1674.49 630.261 L1669.62 634.669 L1664.66 638.974 L1659.6 643.174 L1654.46 647.266 L1649.24 651.25 
  L1643.93 655.123 L1638.54 658.883 L1633.08 662.53 L1627.54 666.061 L1621.92 669.475 L1616.24 672.77 L1610.49 675.945 L1604.67 678.998 L1598.79 681.928 L1592.85 684.734 
  L1586.85 687.415 L1580.8 689.969 L1574.69 692.396 L1568.54 694.693 L1562.33 696.861 L1556.09 698.898 L1549.8 700.803 L1543.47 702.575 L1537.11 704.215 L1530.72 705.72 
  L1524.29 707.09 L1517.84 708.326 L1511.36 709.425 L1504.86 710.388 L1498.34 711.214 L1491.81 711.903 L1485.26 712.455 L1478.7 712.869 L1472.14 713.145 L1465.57 713.283 
  L1459 713.283 L1452.43 713.145 L1445.87 712.869 L1439.31 712.455 L1432.76 711.903 L1426.23 711.214 L1419.71 710.388 L1413.21 709.425 L1406.74 708.326 L1400.28 707.09 
  L1393.86 705.72 L1387.46 704.215 L1381.1 702.575 L1374.77 700.803 L1368.48 698.898 L1362.24 696.861 L1356.04 694.693 L1349.88 692.396 L1343.77 689.969 L1337.72 687.415 
  L1331.72 684.734 L1325.78 681.928 L1319.9 678.998 L1314.08 675.945 L1308.33 672.77 L1302.65 669.475 L1297.03 666.061 L1291.49 662.53 L1286.03 658.883 L1280.64 655.123 
  L1275.33 651.25 L1270.11 647.266 L1264.97 643.174 L1259.92 638.974 L1254.95 634.669 L1250.08 630.261 L1245.3 625.751 L1240.62 621.142 L1236.04 616.436 L1231.55 611.634 
  L1227.17 606.739 L1222.89 601.753 L1218.72 596.678 L1214.65 591.517 L1210.7 586.272 L1206.85 580.944 L1203.12 575.537 L1199.5 570.053 L1196 564.493 L1192.61 558.862 
  L1189.35 553.161 L1186.21 547.392 L1183.18 541.558 L1180.28 535.662 L1177.51 529.707 L1174.86 523.695 L1172.34 517.628 L1169.94 511.51 L1167.68 505.342 L1165.54 499.129 
  L1163.54 492.872 L1161.67 486.574 L1159.93 480.238 L1158.32 473.867 L1156.85 467.464 L1155.51 461.031 L1154.31 454.572 L1153.25 448.089 L1152.32 441.584 L1151.53 435.062 
  L1150.87 428.525 L1150.35 421.975 L1149.97 415.416 L1149.73 408.85 L1149.63 402.281 L1149.66 395.711 L1149.84 389.143 L1150.15 382.58 L1150.59 376.025 L1151.18 369.481 
  L1151.9 362.951 L1152.76 356.437 L1153.76 349.943 L1154.9 343.472 L1156.16 337.025 L1157.57 330.607 L1159.11 324.219 L1160.78 317.866 L1162.59 311.549 L1164.52 305.271 
  L1166.59 299.035 L1168.79 292.844 L1171.12 286.701 L1173.58 280.608 L1176.17 274.568 L1178.88 268.584 L1181.72 262.658 L1184.68 256.793 L1187.76 250.992 L1190.97 245.257 
  L1194.29 239.59 L1197.74 233.994 L1201.3 228.472 L1204.97 223.026 L1208.76 217.658 L1212.66 212.372 L1216.67 207.168 L1220.79 202.05 L1225.02 197.019 L1229.35 192.078 
  L1233.78 187.23 L1238.32 182.475 L1242.95 177.817 L1247.68 173.258 L1252.51 168.799 L1257.42 164.442 L1262.43 160.189 L1267.53 156.043 L1272.71 152.005 L1277.98 148.076 
  L1283.32 144.259 L1288.75 140.555 L1294.25 136.966 L1299.83 133.494 L1305.48 130.139 L1311.2 126.904 L1316.99 123.79 L1322.83 120.798 L1328.75 117.929 L1334.72 115.186 
  L1340.74 112.568 L1346.82 110.078 L1352.95 107.716 L1359.13 105.483 L1365.36 103.381 L1371.62 101.41 L1377.93 99.5706 L1384.28 97.8646 L1390.66 96.2922 L1397.07 94.8543 
  L1403.51 93.5514 L1409.97 92.384 L1416.46 91.3528 L1422.97 90.4582 L1429.5 89.7005 L1436.04 89.0802 L1442.59 88.5974 L1449.15 88.2524 L1455.72 88.0453 L1462.29 87.9763 
  L1462.29 977.077 L1455.72 977.077 L1449.15 977.077 L1442.59 977.077 L1436.04 977.077 L1429.5 977.077 L1422.97 977.077 L1416.46 977.077 L1409.97 977.077 L1403.51 977.077 
  L1397.07 977.077 L1390.66 977.077 L1384.28 977.077 L1377.93 977.077 L1371.62 977.077 L1365.36 977.077 L1359.13 977.077 L1352.95 977.077 L1346.82 977.077 L1340.74 977.077 
  L1334.72 977.077 L1328.75 977.077 L1322.83 977.077 L1316.99 977.077 L1311.2 977.077 L1305.48 977.077 L1299.83 977.077 L1294.25 977.077 L1288.75 977.077 L1283.32 977.077 
  L1277.98 977.077 L1272.71 977.077 L1267.53 977.077 L1262.43 977.077 L1257.42 977.077 L1252.51 977.077 L1247.68 977.077 L1242.95 977.077 L1238.32 977.077 L1233.78 977.077 
  L1229.35 977.077 L1225.02 977.077 L1220.79 977.077 L1216.67 977.077 L1212.66 977.077 L1208.76 977.077 L1204.97 977.077 L1201.3 977.077 L1197.74 977.077 L1194.29 977.077 
  L1190.97 977.077 L1187.76 977.077 L1184.68 977.077 L1181.72 977.077 L1178.88 977.077 L1176.17 977.077 L1173.58 977.077 L1171.12 977.077 L1168.79 977.077 L1166.59 977.077 
  L1164.52 977.077 L1162.59 977.077 L1160.78 977.077 L1159.11 977.077 L1157.57 977.077 L1156.16 977.077 L1154.9 977.077 L1153.76 977.077 L1152.76 977.077 L1151.9 977.077 
  L1151.18 977.077 L1150.59 977.077 L1150.15 977.077 L1149.84 977.077 L1149.66 977.077 L1149.63 977.077 L1149.73 977.077 L1149.97 977.077 L1150.35 977.077 L1150.87 977.077 
  L1151.53 977.077 L1152.32 977.077 L1153.25 977.077 L1154.31 977.077 L1155.51 977.077 L1156.85 977.077 L1158.32 977.077 L1159.93 977.077 L1161.67 977.077 L1163.54 977.077 
  L1165.54 977.077 L1167.68 977.077 L1169.94 977.077 L1172.34 977.077 L1174.86 977.077 L1177.51 977.077 L1180.28 977.077 L1183.18 977.077 L1186.21 977.077 L1189.35 977.077 
  L1192.61 977.077 L1196 977.077 L1199.5 977.077 L1203.12 977.077 L1206.85 977.077 L1210.7 977.077 L1214.65 977.077 L1218.72 977.077 L1222.89 977.077 L1227.17 977.077 
  L1231.55 977.077 L1236.04 977.077 L1240.62 977.077 L1245.3 977.077 L1250.08 977.077 L1254.95 977.077 L1259.92 977.077 L1264.97 977.077 L1270.11 977.077 L1275.33 977.077 
  L1280.64 977.077 L1286.03 977.077 L1291.49 977.077 L1297.03 977.077 L1302.65 977.077 L1308.33 977.077 L1314.08 977.077 L1319.9 977.077 L1325.78 977.077 L1331.72 977.077 
  L1337.72 977.077 L1343.77 977.077 L1349.88 977.077 L1356.04 977.077 L1362.24 977.077 L1368.48 977.077 L1374.77 977.077 L1381.1 977.077 L1387.46 977.077 L1393.86 977.077 
  L1400.28 977.077 L1406.74 977.077 L1413.21 977.077 L1419.71 977.077 L1426.23 977.077 L1432.76 977.077 L1439.31 977.077 L1445.87 977.077 L1452.43 977.077 L1459 977.077 
  L1465.57 977.077 L1472.14 977.077 L1478.7 977.077 L1485.26 977.077 L1491.81 977.077 L1498.34 977.077 L1504.86 977.077 L1511.36 977.077 L1517.84 977.077 L1524.29 977.077 
  L1530.72 977.077 L1537.11 977.077 L1543.47 977.077 L1549.8 977.077 L1556.09 977.077 L1562.33 977.077 L1568.54 977.077 L1574.69 977.077 L1580.8 977.077 L1586.85 977.077 
  L1592.85 977.077 L1598.79 977.077 L1604.67 977.077 L1610.49 977.077 L1616.24 977.077 L1621.92 977.077 L1627.54 977.077 L1633.08 977.077 L1638.54 977.077 L1643.93 977.077 
  L1649.24 977.077 L1654.46 977.077 L1659.6 977.077 L1664.66 977.077 L1669.62 977.077 L1674.49 977.077 L1679.27 977.077 L1683.95 977.077 L1688.54 977.077 L1693.02 977.077 
  L1697.4 977.077 L1701.68 977.077 L1705.86 977.077 L1709.92 977.077 L1713.88 977.077 L1717.72 977.077 L1721.45 977.077 L1725.07 977.077 L1728.57 977.077 L1731.96 977.077 
  L1735.22 977.077 L1738.37 977.077 L1741.39 977.077 L1744.29 977.077 L1747.06 977.077 L1749.71 977.077 L1752.24 977.077 L1754.63 977.077 L1756.9 977.077 L1759.03 977.077 
  L1761.03 977.077 L1762.91 977.077 L1764.65 977.077 L1766.25 977.077 L1767.72 977.077 L1769.06 977.077 L1770.26 977.077 L1771.33 977.077 L1772.26 977.077 L1773.05 977.077 
  L1773.7 977.077 L1774.22 977.077 L1774.6 977.077 L1774.84 977.077 L1774.94 977.077 L1774.91 977.077 L1774.74 977.077 L1774.43 977.077 L1773.98 977.077 L1773.39 977.077 
  L1772.67 977.077 L1771.81 977.077 L1770.81 977.077 L1769.68 977.077 L1768.41 977.077 L1767 977.077 L1765.47 977.077 L1763.79 977.077 L1761.99 977.077 L1760.05 977.077 
  L1757.98 977.077 L1755.78 977.077 L1753.45 977.077 L1750.99 977.077 L1748.41 977.077 L1745.69 977.077 L1742.86 977.077 L1739.89 977.077 L1736.81 977.077 L1733.61 977.077 
  L1730.28 977.077 L1726.84 977.077 L1723.28 977.077 L1719.6 977.077 L1715.81 977.077 L1711.91 977.077 L1707.9 977.077 L1703.78 977.077 L1699.56 977.077 L1695.22 977.077 
  L1690.79 977.077 L1686.26 977.077 L1681.62 977.077 L1676.89 977.077 L1672.07 977.077 L1667.15 977.077 L1662.14 977.077 L1657.04 977.077 L1651.86 977.077 L1646.6 977.077 
  L1641.25 977.077 L1635.82 977.077 L1630.32 977.077 L1624.74 977.077 L1619.09 977.077 L1613.37 977.077 L1607.59 977.077 L1601.74 977.077 L1595.83 977.077 L1589.86 977.077 
  L1583.83 977.077 L1577.75 977.077 L1571.62 977.077 L1565.44 977.077 L1559.22 977.077 L1552.95 977.077 L1546.64 977.077 L1540.3 977.077 L1533.92 977.077 L1527.51 977.077 
  L1521.07 977.077 L1514.6 977.077 L1508.11 977.077 L1501.6 977.077 L1495.08 977.077 L1488.54 977.077 L1481.98 977.077 L1475.42 977.077 L1468.86 977.077 L1462.29 977.077 
   Z
  " fill="#ffa500" fill-rule="evenodd" fill-opacity="0.2"/>
<polyline clip-path="url(#clip1302)" style="stroke:#c68125; stroke-width:4; stroke-opacity:1; fill:none" points="
  1462.29,87.9763 1468.86,88.0453 1475.42,88.2524 1481.98,88.5974 1488.54,89.0802 1495.08,89.7005 1501.6,90.4582 1508.11,91.3528 1514.6,92.384 1521.07,93.5514 
  1527.51,94.8543 1533.92,96.2922 1540.3,97.8646 1546.64,99.5706 1552.95,101.41 1559.22,103.381 1565.44,105.483 1571.62,107.716 1577.75,110.078 1583.83,112.568 
  1589.86,115.186 1595.83,117.929 1601.74,120.798 1607.59,123.79 1613.37,126.904 1619.09,130.139 1624.74,133.494 1630.32,136.966 1635.82,140.555 1641.25,144.259 
  1646.6,148.076 1651.86,152.005 1657.04,156.043 1662.14,160.189 1667.15,164.442 1672.07,168.799 1676.89,173.258 1681.62,177.817 1686.26,182.475 1690.79,187.23 
  1695.22,192.078 1699.56,197.019 1703.78,202.05 1707.9,207.168 1711.91,212.372 1715.81,217.658 1719.6,223.026 1723.28,228.472 1726.84,233.994 1730.28,239.59 
  1733.61,245.257 1736.81,250.992 1739.89,256.793 1742.86,262.658 1745.69,268.584 1748.41,274.568 1750.99,280.608 1753.45,286.701 1755.78,292.844 1757.98,299.035 
  1760.05,305.271 1761.99,311.549 1763.79,317.866 1765.47,324.219 1767,330.607 1768.41,337.025 1769.68,343.472 1770.81,349.943 1771.81,356.437 1772.67,362.951 
  1773.39,369.481 1773.98,376.025 1774.43,382.58 1774.74,389.143 1774.91,395.711 1774.94,402.281 1774.84,408.85 1774.6,415.416 1774.22,421.975 1773.7,428.525 
  1773.05,435.062 1772.26,441.584 1771.33,448.089 1770.26,454.572 1769.06,461.031 1767.72,467.464 1766.25,473.867 1764.65,480.238 1762.91,486.574 1761.03,492.872 
  1759.03,499.129 1756.9,505.342 1754.63,511.51 1752.24,517.628 1749.71,523.695 1747.06,529.707 1744.29,535.662 1741.39,541.558 1738.37,547.392 1735.22,553.161 
  1731.96,558.862 1728.57,564.493 1725.07,570.053 1721.45,575.537 1717.72,580.944 1713.88,586.272 1709.92,591.517 1705.86,596.678 1701.68,601.753 1697.4,606.739 
  1693.02,611.634 1688.54,616.436 1683.95,621.142 1679.27,625.751 1674.49,630.261 1669.62,634.669 1664.66,638.974 1659.6,643.174 1654.46,647.266 1649.24,651.25 
  1643.93,655.123 1638.54,658.883 1633.08,662.53 1627.54,666.061 1621.92,669.475 1616.24,672.77 1610.49,675.945 1604.67,678.998 1598.79,681.928 1592.85,684.734 
  1586.85,687.415 1580.8,689.969 1574.69,692.396 1568.54,694.693 1562.33,696.861 1556.09,698.898 1549.8,700.803 1543.47,702.575 1537.11,704.215 1530.72,705.72 
  1524.29,707.09 1517.84,708.326 1511.36,709.425 1504.86,710.388 1498.34,711.214 1491.81,711.903 1485.26,712.455 1478.7,712.869 1472.14,713.145 1465.57,713.283 
  1459,713.283 1452.43,713.145 1445.87,712.869 1439.31,712.455 1432.76,711.903 1426.23,711.214 1419.71,710.388 1413.21,709.425 1406.74,708.326 1400.28,707.09 
  1393.86,705.72 1387.46,704.215 1381.1,702.575 1374.77,700.803 1368.48,698.898 1362.24,696.861 1356.04,694.693 1349.88,692.396 1343.77,689.969 1337.72,687.415 
  1331.72,684.734 1325.78,681.928 1319.9,678.998 1314.08,675.945 1308.33,672.77 1302.65,669.475 1297.03,666.061 1291.49,662.53 1286.03,658.883 1280.64,655.123 
  1275.33,651.25 1270.11,647.266 1264.97,643.174 1259.92,638.974 1254.95,634.669 1250.08,630.261 1245.3,625.751 1240.62,621.142 1236.04,616.436 1231.55,611.634 
  1227.17,606.739 1222.89,601.753 1218.72,596.678 1214.65,591.517 1210.7,586.272 1206.85,580.944 1203.12,575.537 1199.5,570.053 1196,564.493 1192.61,558.862 
  1189.35,553.161 1186.21,547.392 1183.18,541.558 1180.28,535.662 1177.51,529.707 1174.86,523.695 1172.34,517.628 1169.94,511.51 1167.68,505.342 1165.54,499.129 
  1163.54,492.872 1161.67,486.574 1159.93,480.238 1158.32,473.867 1156.85,467.464 1155.51,461.031 1154.31,454.572 1153.25,448.089 1152.32,441.584 1151.53,435.062 
  1150.87,428.525 1150.35,421.975 1149.97,415.416 1149.73,408.85 1149.63,402.281 1149.66,395.711 1149.84,389.143 1150.15,382.58 1150.59,376.025 1151.18,369.481 
  1151.9,362.951 1152.76,356.437 1153.76,349.943 1154.9,343.472 1156.16,337.025 1157.57,330.607 1159.11,324.219 1160.78,317.866 1162.59,311.549 1164.52,305.271 
  1166.59,299.035 1168.79,292.844 1171.12,286.701 1173.58,280.608 1176.17,274.568 1178.88,268.584 1181.72,262.658 1184.68,256.793 1187.76,250.992 1190.97,245.257 
  1194.29,239.59 1197.74,233.994 1201.3,228.472 1204.97,223.026 1208.76,217.658 1212.66,212.372 1216.67,207.168 1220.79,202.05 1225.02,197.019 1229.35,192.078 
  1233.78,187.23 1238.32,182.475 1242.95,177.817 1247.68,173.258 1252.51,168.799 1257.42,164.442 1262.43,160.189 1267.53,156.043 1272.71,152.005 1277.98,148.076 
  1283.32,144.259 1288.75,140.555 1294.25,136.966 1299.83,133.494 1305.48,130.139 1311.2,126.904 1316.99,123.79 1322.83,120.798 1328.75,117.929 1334.72,115.186 
  1340.74,112.568 1346.82,110.078 1352.95,107.716 1359.13,105.483 1365.36,103.381 1371.62,101.41 1377.93,99.5706 1384.28,97.8646 1390.66,96.2922 1397.07,94.8543 
  1403.51,93.5514 1409.97,92.384 1416.46,91.3528 1422.97,90.4582 1429.5,89.7005 1436.04,89.0802 1442.59,88.5974 1449.15,88.2524 1455.72,88.0453 1462.29,87.9763 
  
  "/>
<path clip-path="url(#clip1302)" d="
M922.038 670.763 L1426.1 1003.57 L1462.29 400.638 L922.038 670.763  Z
  " fill="#0000ff" fill-rule="evenodd" fill-opacity="0.7"/>
<polyline clip-path="url(#clip1302)" style="stroke:#000000; stroke-width:4; stroke-opacity:1; fill:none" points="
  922.038,670.763 1426.1,1003.57 1462.29,400.638 922.038,670.763 
  "/>
</svg>
