<?xml version="1.0" encoding="utf-8"?>
<svg xmlns="http://www.w3.org/2000/svg" xmlns:xlink="http://www.w3.org/1999/xlink" width="600" height="400" viewBox="0 0 2400 1600">
<defs>
  <clipPath id="clip810">
    <rect x="0" y="0" width="2400" height="1600"/>
  </clipPath>
</defs>
<path clip-path="url(#clip810)" d="
M0 1600 L2400 1600 L2400 0 L0 0  Z
  " fill="#ffffff" fill-rule="evenodd" fill-opacity="1"/>
<defs>
  <clipPath id="clip811">
    <rect x="480" y="0" width="1681" height="1600"/>
  </clipPath>
</defs>
<path clip-path="url(#clip810)" d="
M110.881 1486.45 L2352.76 1486.45 L2352.76 47.2441 L110.881 47.2441  Z
  " fill="#ffffff" fill-rule="evenodd" fill-opacity="1"/>
<defs>
  <clipPath id="clip812">
    <rect x="110" y="47" width="2243" height="1440"/>
  </clipPath>
</defs>
<polyline clip-path="url(#clip812)" style="stroke:#000000; stroke-width:2; stroke-opacity:0.1; fill:none" points="
  552.949,1486.45 552.949,47.2441 
  "/>
<polyline clip-path="url(#clip812)" style="stroke:#000000; stroke-width:2; stroke-opacity:0.1; fill:none" points="
  1005.53,1486.45 1005.53,47.2441 
  "/>
<polyline clip-path="url(#clip812)" style="stroke:#000000; stroke-width:2; stroke-opacity:0.1; fill:none" points="
  1458.11,1486.45 1458.11,47.2441 
  "/>
<polyline clip-path="url(#clip812)" style="stroke:#000000; stroke-width:2; stroke-opacity:0.1; fill:none" points="
  1910.69,1486.45 1910.69,47.2441 
  "/>
<polyline clip-path="url(#clip812)" style="stroke:#000000; stroke-width:2; stroke-opacity:0.1; fill:none" points="
  110.881,1445.72 2352.76,1445.72 
  "/>
<polyline clip-path="url(#clip812)" style="stroke:#000000; stroke-width:2; stroke-opacity:0.1; fill:none" points="
  110.881,993.136 2352.76,993.136 
  "/>
<polyline clip-path="url(#clip812)" style="stroke:#000000; stroke-width:2; stroke-opacity:0.1; fill:none" points="
  110.881,540.556 2352.76,540.556 
  "/>
<polyline clip-path="url(#clip812)" style="stroke:#000000; stroke-width:2; stroke-opacity:0.1; fill:none" points="
  110.881,87.9763 2352.76,87.9763 
  "/>
<polyline clip-path="url(#clip810)" style="stroke:#000000; stroke-width:4; stroke-opacity:1; fill:none" points="
  110.881,1486.45 2352.76,1486.45 
  "/>
<polyline clip-path="url(#clip810)" style="stroke:#000000; stroke-width:4; stroke-opacity:1; fill:none" points="
  110.881,1486.45 110.881,47.2441 
  "/>
<polyline clip-path="url(#clip810)" style="stroke:#000000; stroke-width:4; stroke-opacity:1; fill:none" points="
  552.949,1486.45 552.949,1469.18 
  "/>
<polyline clip-path="url(#clip810)" style="stroke:#000000; stroke-width:4; stroke-opacity:1; fill:none" points="
  1005.53,1486.45 1005.53,1469.18 
  "/>
<polyline clip-path="url(#clip810)" style="stroke:#000000; stroke-width:4; stroke-opacity:1; fill:none" points="
  1458.11,1486.45 1458.11,1469.18 
  "/>
<polyline clip-path="url(#clip810)" style="stroke:#000000; stroke-width:4; stroke-opacity:1; fill:none" points="
  1910.69,1486.45 1910.69,1469.18 
  "/>
<polyline clip-path="url(#clip810)" style="stroke:#000000; stroke-width:4; stroke-opacity:1; fill:none" points="
  110.881,1445.72 137.783,1445.72 
  "/>
<polyline clip-path="url(#clip810)" style="stroke:#000000; stroke-width:4; stroke-opacity:1; fill:none" points="
  110.881,993.136 137.783,993.136 
  "/>
<polyline clip-path="url(#clip810)" style="stroke:#000000; stroke-width:4; stroke-opacity:1; fill:none" points="
  110.881,540.556 137.783,540.556 
  "/>
<polyline clip-path="url(#clip810)" style="stroke:#000000; stroke-width:4; stroke-opacity:1; fill:none" points="
  110.881,87.9763 137.783,87.9763 
  "/>
<path clip-path="url(#clip810)" d="M 0 0 M533.817 1525.04 L546.294 1525.04 L546.294 1528.83 L533.817 1528.83 L533.817 1525.04 Z" fill="#000000" fill-rule="evenodd" fill-opacity="1" /><path clip-path="url(#clip810)" d="M 0 0 M552.173 1535.98 L559.812 1535.98 L559.812 1509.62 L551.502 1511.29 L551.502 1507.03 L559.766 1505.36 L564.442 1505.36 L564.442 1535.98 L572.081 1535.98 L572.081 1539.92 L552.173 1539.92 L552.173 1535.98 Z" fill="#000000" fill-rule="evenodd" fill-opacity="1" /><path clip-path="url(#clip810)" d="M 0 0 M1005.53 1508.44 Q1001.92 1508.44 1000.09 1512 Q998.283 1515.55 998.283 1522.67 Q998.283 1529.78 1000.09 1533.35 Q1001.92 1536.89 1005.53 1536.89 Q1009.16 1536.89 1010.97 1533.35 Q1012.8 1529.78 1012.8 1522.67 Q1012.8 1515.55 1010.97 1512 Q1009.16 1508.44 1005.53 1508.44 M1005.53 1504.73 Q1011.34 1504.73 1014.39 1509.34 Q1017.47 1513.92 1017.47 1522.67 Q1017.47 1531.4 1014.39 1536.01 Q1011.34 1540.59 1005.53 1540.59 Q999.718 1540.59 996.64 1536.01 Q993.584 1531.4 993.584 1522.67 Q993.584 1513.92 996.64 1509.34 Q999.718 1504.73 1005.53 1504.73 Z" fill="#000000" fill-rule="evenodd" fill-opacity="1" /><path clip-path="url(#clip810)" d="M 0 0 M1448.49 1535.98 L1456.13 1535.98 L1456.13 1509.62 L1447.82 1511.29 L1447.82 1507.03 L1456.08 1505.36 L1460.76 1505.36 L1460.76 1535.98 L1468.4 1535.98 L1468.4 1539.92 L1448.49 1539.92 L1448.49 1535.98 Z" fill="#000000" fill-rule="evenodd" fill-opacity="1" /><path clip-path="url(#clip810)" d="M 0 0 M1905.34 1535.98 L1921.66 1535.98 L1921.66 1539.92 L1899.72 1539.92 L1899.72 1535.98 Q1902.38 1533.23 1906.96 1528.6 Q1911.57 1523.95 1912.75 1522.61 Q1914.99 1520.08 1915.87 1518.35 Q1916.78 1516.59 1916.78 1514.9 Q1916.78 1512.14 1914.83 1510.41 Q1912.91 1508.67 1909.81 1508.67 Q1907.61 1508.67 1905.16 1509.43 Q1902.73 1510.2 1899.95 1511.75 L1899.95 1507.03 Q1902.77 1505.89 1905.23 1505.31 Q1907.68 1504.73 1909.72 1504.73 Q1915.09 1504.73 1918.28 1507.42 Q1921.48 1510.11 1921.48 1514.6 Q1921.48 1516.73 1920.66 1518.65 Q1919.88 1520.54 1917.77 1523.14 Q1917.19 1523.81 1914.09 1527.03 Q1910.99 1530.22 1905.34 1535.98 Z" fill="#000000" fill-rule="evenodd" fill-opacity="1" /><path clip-path="url(#clip810)" d="M 0 0 M74.9365 1431.51 Q71.3254 1431.51 69.4967 1435.08 Q67.6912 1438.62 67.6912 1445.75 Q67.6912 1452.86 69.4967 1456.42 Q71.3254 1459.96 74.9365 1459.96 Q78.5707 1459.96 80.3763 1456.42 Q82.205 1452.86 82.205 1445.75 Q82.205 1438.62 80.3763 1435.08 Q78.5707 1431.51 74.9365 1431.51 M74.9365 1427.81 Q80.7467 1427.81 83.8022 1432.42 Q86.8809 1437 86.8809 1445.75 Q86.8809 1454.48 83.8022 1459.08 Q80.7467 1463.67 74.9365 1463.67 Q69.1264 1463.67 66.0477 1459.08 Q62.9921 1454.48 62.9921 1445.75 Q62.9921 1437 66.0477 1432.42 Q69.1264 1427.81 74.9365 1427.81 Z" fill="#000000" fill-rule="evenodd" fill-opacity="1" /><path clip-path="url(#clip810)" d="M 0 0 M66.9736 1006.48 L74.6124 1006.48 L74.6124 980.115 L66.3023 981.782 L66.3023 977.523 L74.5661 975.856 L79.242 975.856 L79.242 1006.48 L86.8809 1006.48 L86.8809 1010.42 L66.9736 1010.42 L66.9736 1006.48 Z" fill="#000000" fill-rule="evenodd" fill-opacity="1" /><path clip-path="url(#clip810)" d="M 0 0 M70.5615 553.901 L86.8809 553.901 L86.8809 557.836 L64.9366 557.836 L64.9366 553.901 Q67.5986 551.146 72.1819 546.517 Q76.7883 541.864 77.9689 540.521 Q80.2143 537.998 81.0939 536.262 Q81.9967 534.503 81.9967 532.813 Q81.9967 530.058 80.0522 528.322 Q78.1309 526.586 75.0291 526.586 Q72.83 526.586 70.3763 527.35 Q67.9458 528.114 65.168 529.665 L65.168 524.943 Q67.9921 523.808 70.4458 523.23 Q72.8995 522.651 74.9365 522.651 Q80.3068 522.651 83.5013 525.336 Q86.6957 528.021 86.6957 532.512 Q86.6957 534.642 85.8855 536.563 Q85.0985 538.461 82.992 541.054 Q82.4133 541.725 79.3115 544.943 Q76.2096 548.137 70.5615 553.901 Z" fill="#000000" fill-rule="evenodd" fill-opacity="1" /><path clip-path="url(#clip810)" d="M 0 0 M79.7513 86.6221 Q83.1078 87.3397 84.9827 89.6082 Q86.8809 91.8767 86.8809 95.21 Q86.8809 100.326 83.3624 103.127 Q79.8439 105.928 73.3624 105.928 Q71.1865 105.928 68.8717 105.488 Q66.5801 105.071 64.1264 104.215 L64.1264 99.7008 Q66.0708 100.835 68.3856 101.414 Q70.7004 101.992 73.2236 101.992 Q77.6217 101.992 79.9133 100.256 Q82.2281 98.5202 82.2281 95.21 Q82.2281 92.1545 80.0754 90.4415 Q77.9457 88.7054 74.1263 88.7054 L70.0986 88.7054 L70.0986 84.8629 L74.3115 84.8629 Q77.7606 84.8629 79.5893 83.4971 Q81.418 82.1083 81.418 79.5157 Q81.418 76.8537 79.5198 75.4416 Q77.6448 74.0064 74.1263 74.0064 Q72.205 74.0064 70.006 74.4231 Q67.8069 74.8398 65.168 75.7194 L65.168 71.5528 Q67.8301 70.812 70.1449 70.4416 Q72.4828 70.0713 74.543 70.0713 Q79.867 70.0713 82.9689 72.5018 Q86.0707 74.9092 86.0707 79.0296 Q86.0707 81.8999 84.4272 83.8907 Q82.7837 85.8582 79.7513 86.6221 Z" fill="#000000" fill-rule="evenodd" fill-opacity="1" /><path clip-path="url(#clip812)" d="
M1005.53 1445.72 L1458.11 87.9763 L1005.53 1445.72  Z
  " fill="#009af9" fill-rule="evenodd" fill-opacity="1"/>
<polyline clip-path="url(#clip812)" style="stroke:#000000; stroke-width:4; stroke-opacity:1; fill:none" points="
  1005.53,1445.72 1458.11,87.9763 1005.53,1445.72 
  "/>
<circle clip-path="url(#clip812)" cx="1005.53" cy="1445.72" r="14" fill="#ff0000" fill-rule="evenodd" fill-opacity="1" stroke="#000000" stroke-opacity="1" stroke-width="3.2"/>
<circle clip-path="url(#clip812)" cx="1458.11" cy="87.9763" r="14" fill="#ff0000" fill-rule="evenodd" fill-opacity="1" stroke="#000000" stroke-opacity="1" stroke-width="3.2"/>
<path clip-path="url(#clip810)" d="M 0 0 M1005.53 1375.15 L994.429 1405.25 L1016.67 1405.25 L1005.53 1375.15 M1000.91 1367.09 L1010.19 1367.09 L1033.24 1427.57 L1024.73 1427.57 L1019.22 1412.06 L991.958 1412.06 L986.449 1427.57 L977.82 1427.57 L1000.91 1367.09 Z" fill="#000000" fill-rule="evenodd" fill-opacity="1" /><path clip-path="url(#clip810)" d="M 0 0 M1444.84 40.9493 L1444.84 63.1078 L1457.97 63.1078 Q1464.57 63.1078 1467.73 60.3937 Q1470.93 57.6391 1470.93 52.0083 Q1470.93 46.337 1467.73 43.6634 Q1464.57 40.9493 1457.97 40.9493 L1444.84 40.9493 M1444.84 16.0768 L1444.84 34.3058 L1456.95 34.3058 Q1462.95 34.3058 1465.87 32.0778 Q1468.82 29.8093 1468.82 25.1913 Q1468.82 20.6138 1465.87 18.3453 Q1462.95 16.0768 1456.95 16.0768 L1444.84 16.0768 M1436.66 9.35228 L1457.56 9.35228 Q1466.92 9.35228 1471.98 13.2411 Q1477.05 17.13 1477.05 24.3001 Q1477.05 29.8499 1474.45 33.1311 Q1471.86 36.4123 1466.84 37.2225 Q1472.87 38.5188 1476.2 42.6507 Q1479.56 46.7421 1479.56 52.8995 Q1479.56 61.0013 1474.05 65.4168 Q1468.54 69.8323 1458.37 69.8323 L1436.66 69.8323 L1436.66 9.35228 Z" fill="#000000" fill-rule="evenodd" fill-opacity="1" /></svg>
