<?xml version="1.0" encoding="utf-8"?>
<svg xmlns="http://www.w3.org/2000/svg" xmlns:xlink="http://www.w3.org/1999/xlink" width="600" height="400" viewBox="0 0 2400 1600">
<defs>
  <clipPath id="clip950">
    <rect x="0" y="0" width="2400" height="1600"/>
  </clipPath>
</defs>
<path clip-path="url(#clip950)" d="
M0 1600 L2400 1600 L2400 0 L0 0  Z
  " fill="#ffffff" fill-rule="evenodd" fill-opacity="1"/>
<defs>
  <clipPath id="clip951">
    <rect x="480" y="0" width="1681" height="1600"/>
  </clipPath>
</defs>
<path clip-path="url(#clip950)" d="
M86.9921 1521.01 L2352.76 1521.01 L2352.76 47.2441 L86.9921 47.2441  Z
  " fill="#ffffff" fill-rule="evenodd" fill-opacity="1"/>
<defs>
  <clipPath id="clip952">
    <rect x="86" y="47" width="2267" height="1475"/>
  </clipPath>
</defs>
<polyline clip-path="url(#clip952)" style="stroke:#000000; stroke-width:2; stroke-opacity:0.1; fill:none" points="
  524.702,1521.01 524.702,47.2441 
  "/>
<polyline clip-path="url(#clip952)" style="stroke:#000000; stroke-width:2; stroke-opacity:0.1; fill:none" points="
  988.15,1521.01 988.15,47.2441 
  "/>
<polyline clip-path="url(#clip952)" style="stroke:#000000; stroke-width:2; stroke-opacity:0.1; fill:none" points="
  1451.6,1521.01 1451.6,47.2441 
  "/>
<polyline clip-path="url(#clip952)" style="stroke:#000000; stroke-width:2; stroke-opacity:0.1; fill:none" points="
  1915.05,1521.01 1915.05,47.2441 
  "/>
<polyline clip-path="url(#clip952)" style="stroke:#000000; stroke-width:2; stroke-opacity:0.1; fill:none" points="
  86.9921,1479.3 2352.76,1479.3 
  "/>
<polyline clip-path="url(#clip952)" style="stroke:#000000; stroke-width:2; stroke-opacity:0.1; fill:none" points="
  86.9921,1015.85 2352.76,1015.85 
  "/>
<polyline clip-path="url(#clip952)" style="stroke:#000000; stroke-width:2; stroke-opacity:0.1; fill:none" points="
  86.9921,552.402 2352.76,552.402 
  "/>
<polyline clip-path="url(#clip952)" style="stroke:#000000; stroke-width:2; stroke-opacity:0.1; fill:none" points="
  86.9921,88.9544 2352.76,88.9544 
  "/>
<polyline clip-path="url(#clip950)" style="stroke:#000000; stroke-width:4; stroke-opacity:1; fill:none" points="
  86.9921,1521.01 2352.76,1521.01 
  "/>
<polyline clip-path="url(#clip950)" style="stroke:#000000; stroke-width:4; stroke-opacity:1; fill:none" points="
  86.9921,1521.01 86.9921,47.2441 
  "/>
<polyline clip-path="url(#clip950)" style="stroke:#000000; stroke-width:4; stroke-opacity:1; fill:none" points="
  524.702,1521.01 524.702,1503.32 
  "/>
<polyline clip-path="url(#clip950)" style="stroke:#000000; stroke-width:4; stroke-opacity:1; fill:none" points="
  988.15,1521.01 988.15,1503.32 
  "/>
<polyline clip-path="url(#clip950)" style="stroke:#000000; stroke-width:4; stroke-opacity:1; fill:none" points="
  1451.6,1521.01 1451.6,1503.32 
  "/>
<polyline clip-path="url(#clip950)" style="stroke:#000000; stroke-width:4; stroke-opacity:1; fill:none" points="
  1915.05,1521.01 1915.05,1503.32 
  "/>
<polyline clip-path="url(#clip950)" style="stroke:#000000; stroke-width:4; stroke-opacity:1; fill:none" points="
  86.9921,1479.3 114.181,1479.3 
  "/>
<polyline clip-path="url(#clip950)" style="stroke:#000000; stroke-width:4; stroke-opacity:1; fill:none" points="
  86.9921,1015.85 114.181,1015.85 
  "/>
<polyline clip-path="url(#clip950)" style="stroke:#000000; stroke-width:4; stroke-opacity:1; fill:none" points="
  86.9921,552.402 114.181,552.402 
  "/>
<polyline clip-path="url(#clip950)" style="stroke:#000000; stroke-width:4; stroke-opacity:1; fill:none" points="
  86.9921,88.9544 114.181,88.9544 
  "/>
<path clip-path="url(#clip950)" d="M 0 0 M505.571 1559.6 L518.047 1559.6 L518.047 1563.39 L505.571 1563.39 L505.571 1559.6 Z" fill="#000000" fill-rule="evenodd" fill-opacity="1" /><path clip-path="url(#clip950)" d="M 0 0 M523.927 1570.54 L531.566 1570.54 L531.566 1544.18 L523.256 1545.85 L523.256 1541.59 L531.52 1539.92 L536.195 1539.92 L536.195 1570.54 L543.834 1570.54 L543.834 1574.48 L523.927 1574.48 L523.927 1570.54 Z" fill="#000000" fill-rule="evenodd" fill-opacity="1" /><path clip-path="url(#clip950)" d="M 0 0 M988.15 1543 Q984.539 1543 982.71 1546.56 Q980.905 1550.11 980.905 1557.23 Q980.905 1564.34 982.71 1567.91 Q984.539 1571.45 988.15 1571.45 Q991.784 1571.45 993.59 1567.91 Q995.419 1564.34 995.419 1557.23 Q995.419 1550.11 993.59 1546.56 Q991.784 1543 988.15 1543 M988.15 1539.29 Q993.96 1539.29 997.016 1543.9 Q1000.09 1548.48 1000.09 1557.23 Q1000.09 1565.96 997.016 1570.57 Q993.96 1575.15 988.15 1575.15 Q982.34 1575.15 979.261 1570.57 Q976.206 1565.96 976.206 1557.23 Q976.206 1548.48 979.261 1543.9 Q982.34 1539.29 988.15 1539.29 Z" fill="#000000" fill-rule="evenodd" fill-opacity="1" /><path clip-path="url(#clip950)" d="M 0 0 M1441.98 1570.54 L1449.62 1570.54 L1449.62 1544.18 L1441.31 1545.85 L1441.31 1541.59 L1449.57 1539.92 L1454.25 1539.92 L1454.25 1570.54 L1461.89 1570.54 L1461.89 1574.48 L1441.98 1574.48 L1441.98 1570.54 Z" fill="#000000" fill-rule="evenodd" fill-opacity="1" /><path clip-path="url(#clip950)" d="M 0 0 M1909.7 1570.54 L1926.02 1570.54 L1926.02 1574.48 L1904.07 1574.48 L1904.07 1570.54 Q1906.74 1567.79 1911.32 1563.16 Q1915.93 1558.51 1917.11 1557.17 Q1919.35 1554.64 1920.23 1552.91 Q1921.13 1551.15 1921.13 1549.46 Q1921.13 1546.7 1919.19 1544.97 Q1917.27 1543.23 1914.17 1543.23 Q1911.97 1543.23 1909.51 1543.99 Q1907.08 1544.76 1904.3 1546.31 L1904.3 1541.59 Q1907.13 1540.45 1909.58 1539.87 Q1912.04 1539.29 1914.07 1539.29 Q1919.44 1539.29 1922.64 1541.98 Q1925.83 1544.67 1925.83 1549.16 Q1925.83 1551.29 1925.02 1553.21 Q1924.24 1555.1 1922.13 1557.7 Q1921.55 1558.37 1918.45 1561.59 Q1915.35 1564.78 1909.7 1570.54 Z" fill="#000000" fill-rule="evenodd" fill-opacity="1" /><path clip-path="url(#clip950)" d="M 0 0 M51.0477 1465.1 Q47.4367 1465.1 45.608 1468.66 Q43.8024 1472.2 43.8024 1479.33 Q43.8024 1486.44 45.608 1490 Q47.4367 1493.55 51.0477 1493.55 Q54.682 1493.55 56.4875 1490 Q58.3162 1486.44 58.3162 1479.33 Q58.3162 1472.2 56.4875 1468.66 Q54.682 1465.1 51.0477 1465.1 M51.0477 1461.39 Q56.8579 1461.39 59.9134 1466 Q62.9921 1470.58 62.9921 1479.33 Q62.9921 1488.06 59.9134 1492.67 Q56.8579 1497.25 51.0477 1497.25 Q45.2376 1497.25 42.1589 1492.67 Q39.1034 1488.06 39.1034 1479.33 Q39.1034 1470.58 42.1589 1466 Q45.2376 1461.39 51.0477 1461.39 Z" fill="#000000" fill-rule="evenodd" fill-opacity="1" /><path clip-path="url(#clip950)" d="M 0 0 M43.0848 1029.19 L50.7237 1029.19 L50.7237 1002.83 L42.4135 1004.5 L42.4135 1000.24 L50.6774 998.57 L55.3533 998.57 L55.3533 1029.19 L62.9921 1029.19 L62.9921 1033.13 L43.0848 1033.13 L43.0848 1029.19 Z" fill="#000000" fill-rule="evenodd" fill-opacity="1" /><path clip-path="url(#clip950)" d="M 0 0 M46.6728 565.747 L62.9921 565.747 L62.9921 569.682 L41.0478 569.682 L41.0478 565.747 Q43.7098 562.992 48.2931 558.363 Q52.8996 553.71 54.0801 552.367 Q56.3255 549.844 57.2051 548.108 Q58.1079 546.349 58.1079 544.659 Q58.1079 541.904 56.1635 540.168 Q54.2422 538.432 51.1403 538.432 Q48.9413 538.432 46.4876 539.196 Q44.057 539.96 41.2793 541.511 L41.2793 536.789 Q44.1033 535.655 46.557 535.076 Q49.0107 534.497 51.0477 534.497 Q56.4181 534.497 59.6125 537.182 Q62.8069 539.867 62.8069 544.358 Q62.8069 546.488 61.9968 548.409 Q61.2097 550.307 59.1033 552.9 Q58.5246 553.571 55.4227 556.789 Q52.3209 559.983 46.6728 565.747 Z" fill="#000000" fill-rule="evenodd" fill-opacity="1" /><path clip-path="url(#clip950)" d="M 0 0 M55.8625 87.6002 Q59.219 88.3178 61.094 90.5863 Q62.9921 92.8548 62.9921 96.1881 Q62.9921 101.304 59.4736 104.105 Q55.9551 106.906 49.4737 106.906 Q47.2978 106.906 44.983 106.466 Q42.6913 106.049 40.2376 105.193 L40.2376 100.679 Q42.1821 101.813 44.4969 102.392 Q46.8117 102.971 49.3348 102.971 Q53.7329 102.971 56.0246 101.234 Q58.3394 99.4983 58.3394 96.1881 Q58.3394 93.1326 56.1866 91.4197 Q54.057 89.6836 50.2376 89.6836 L46.2098 89.6836 L46.2098 85.841 L50.4227 85.841 Q53.8718 85.841 55.7005 84.4752 Q57.5292 83.0864 57.5292 80.4938 Q57.5292 77.8318 55.6311 76.4197 Q53.7561 74.9846 50.2376 74.9846 Q48.3163 74.9846 46.1172 75.4012 Q43.9182 75.8179 41.2793 76.6975 L41.2793 72.5309 Q43.9413 71.7901 46.2561 71.4198 Q48.5941 71.0494 50.6542 71.0494 Q55.9783 71.0494 59.0801 73.4799 Q62.1819 75.8873 62.1819 80.0077 Q62.1819 82.878 60.5384 84.8688 Q58.8949 86.8363 55.8625 87.6002 Z" fill="#000000" fill-rule="evenodd" fill-opacity="1" /><path clip-path="url(#clip952)" d="
M988.15 1479.3 L1451.6 88.9544 L988.15 1479.3  Z
  " fill="#009af9" fill-rule="evenodd" fill-opacity="1"/>
<polyline clip-path="url(#clip952)" style="stroke:#000000; stroke-width:4; stroke-opacity:1; fill:none" points="
  988.15,1479.3 1451.6,88.9544 988.15,1479.3 
  "/>
<circle clip-path="url(#clip952)" cx="988.15" cy="1479.3" r="14" fill="#ff0000" fill-rule="evenodd" fill-opacity="1" stroke="#000000" stroke-opacity="1" stroke-width="3.2"/>
<circle clip-path="url(#clip952)" cx="1451.6" cy="88.9544" r="14" fill="#ff0000" fill-rule="evenodd" fill-opacity="1" stroke="#000000" stroke-opacity="1" stroke-width="3.2"/>
<path clip-path="url(#clip950)" d="M 0 0 M988.15 1408.73 L977.051 1438.83 L999.29 1438.83 L988.15 1408.73 M983.532 1400.67 L992.809 1400.67 L1015.86 1461.15 L1007.35 1461.15 L1001.84 1445.64 L974.58 1445.64 L969.07 1461.15 L960.442 1461.15 L983.532 1400.67 Z" fill="#000000" fill-rule="evenodd" fill-opacity="1" /><path clip-path="url(#clip950)" d="M 0 0 M1438.33 41.9274 L1438.33 64.0859 L1451.46 64.0859 Q1458.06 64.0859 1461.22 61.3718 Q1464.42 58.6172 1464.42 52.9864 Q1464.42 47.3151 1461.22 44.6415 Q1458.06 41.9274 1451.46 41.9274 L1438.33 41.9274 M1438.33 17.0549 L1438.33 35.284 L1450.44 35.284 Q1456.44 35.284 1459.36 33.056 Q1462.31 30.7875 1462.31 26.1694 Q1462.31 21.5919 1459.36 19.3234 Q1456.44 17.0549 1450.44 17.0549 L1438.33 17.0549 M1430.15 10.3304 L1451.05 10.3304 Q1460.41 10.3304 1465.47 14.2193 Q1470.54 18.1081 1470.54 25.2782 Q1470.54 30.828 1467.94 34.1092 Q1465.35 37.3904 1460.33 38.2006 Q1466.36 39.4969 1469.69 43.6288 Q1473.05 47.7202 1473.05 53.8776 Q1473.05 61.9794 1467.54 66.3949 Q1462.03 70.8104 1451.86 70.8104 L1430.15 70.8104 L1430.15 10.3304 Z" fill="#000000" fill-rule="evenodd" fill-opacity="1" /></svg>
