<?xml version="1.0" encoding="utf-8"?>
<svg xmlns="http://www.w3.org/2000/svg" xmlns:xlink="http://www.w3.org/1999/xlink" width="600" height="400" viewBox="0 0 2400 1600">
<defs>
  <clipPath id="clip980">
    <rect x="0" y="0" width="2400" height="1600"/>
  </clipPath>
</defs>
<path clip-path="url(#clip980)" d="
M0 1600 L2400 1600 L2400 0 L0 0  Z
  " fill="#ffffff" fill-rule="evenodd" fill-opacity="1"/>
<defs>
  <clipPath id="clip981">
    <rect x="480" y="0" width="1681" height="1600"/>
  </clipPath>
</defs>
<path clip-path="url(#clip980)" d="
M86.9921 1521.01 L2352.76 1521.01 L2352.76 47.2441 L86.9921 47.2441  Z
  " fill="#ffffff" fill-rule="evenodd" fill-opacity="1"/>
<defs>
  <clipPath id="clip982">
    <rect x="86" y="47" width="2267" height="1475"/>
  </clipPath>
</defs>
<polyline clip-path="url(#clip982)" style="stroke:#000000; stroke-width:2; stroke-opacity:0.1; fill:none" points="
  292.979,1521.01 292.979,47.2441 
  "/>
<polyline clip-path="url(#clip982)" style="stroke:#000000; stroke-width:2; stroke-opacity:0.1; fill:none" points="
  756.426,1521.01 756.426,47.2441 
  "/>
<polyline clip-path="url(#clip982)" style="stroke:#000000; stroke-width:2; stroke-opacity:0.1; fill:none" points="
  1219.87,1521.01 1219.87,47.2441 
  "/>
<polyline clip-path="url(#clip982)" style="stroke:#000000; stroke-width:2; stroke-opacity:0.1; fill:none" points="
  1683.32,1521.01 1683.32,47.2441 
  "/>
<polyline clip-path="url(#clip982)" style="stroke:#000000; stroke-width:2; stroke-opacity:0.1; fill:none" points="
  2146.77,1521.01 2146.77,47.2441 
  "/>
<polyline clip-path="url(#clip982)" style="stroke:#000000; stroke-width:2; stroke-opacity:0.1; fill:none" points="
  86.9921,1479.3 2352.76,1479.3 
  "/>
<polyline clip-path="url(#clip982)" style="stroke:#000000; stroke-width:2; stroke-opacity:0.1; fill:none" points="
  86.9921,1015.85 2352.76,1015.85 
  "/>
<polyline clip-path="url(#clip982)" style="stroke:#000000; stroke-width:2; stroke-opacity:0.1; fill:none" points="
  86.9921,552.402 2352.76,552.402 
  "/>
<polyline clip-path="url(#clip982)" style="stroke:#000000; stroke-width:2; stroke-opacity:0.1; fill:none" points="
  86.9921,88.9544 2352.76,88.9544 
  "/>
<polyline clip-path="url(#clip980)" style="stroke:#000000; stroke-width:4; stroke-opacity:1; fill:none" points="
  86.9921,1521.01 2352.76,1521.01 
  "/>
<polyline clip-path="url(#clip980)" style="stroke:#000000; stroke-width:4; stroke-opacity:1; fill:none" points="
  86.9921,1521.01 86.9921,47.2441 
  "/>
<polyline clip-path="url(#clip980)" style="stroke:#000000; stroke-width:4; stroke-opacity:1; fill:none" points="
  292.979,1521.01 292.979,1503.32 
  "/>
<polyline clip-path="url(#clip980)" style="stroke:#000000; stroke-width:4; stroke-opacity:1; fill:none" points="
  756.426,1521.01 756.426,1503.32 
  "/>
<polyline clip-path="url(#clip980)" style="stroke:#000000; stroke-width:4; stroke-opacity:1; fill:none" points="
  1219.87,1521.01 1219.87,1503.32 
  "/>
<polyline clip-path="url(#clip980)" style="stroke:#000000; stroke-width:4; stroke-opacity:1; fill:none" points="
  1683.32,1521.01 1683.32,1503.32 
  "/>
<polyline clip-path="url(#clip980)" style="stroke:#000000; stroke-width:4; stroke-opacity:1; fill:none" points="
  2146.77,1521.01 2146.77,1503.32 
  "/>
<polyline clip-path="url(#clip980)" style="stroke:#000000; stroke-width:4; stroke-opacity:1; fill:none" points="
  86.9921,1479.3 114.181,1479.3 
  "/>
<polyline clip-path="url(#clip980)" style="stroke:#000000; stroke-width:4; stroke-opacity:1; fill:none" points="
  86.9921,1015.85 114.181,1015.85 
  "/>
<polyline clip-path="url(#clip980)" style="stroke:#000000; stroke-width:4; stroke-opacity:1; fill:none" points="
  86.9921,552.402 114.181,552.402 
  "/>
<polyline clip-path="url(#clip980)" style="stroke:#000000; stroke-width:4; stroke-opacity:1; fill:none" points="
  86.9921,88.9544 114.181,88.9544 
  "/>
<path clip-path="url(#clip980)" d="M 0 0 M292.979 1543 Q289.367 1543 287.539 1546.56 Q285.733 1550.11 285.733 1557.23 Q285.733 1564.34 287.539 1567.91 Q289.367 1571.45 292.979 1571.45 Q296.613 1571.45 298.418 1567.91 Q300.247 1564.34 300.247 1557.23 Q300.247 1550.11 298.418 1546.56 Q296.613 1543 292.979 1543 M292.979 1539.29 Q298.789 1539.29 301.844 1543.9 Q304.923 1548.48 304.923 1557.23 Q304.923 1565.96 301.844 1570.57 Q298.789 1575.15 292.979 1575.15 Q287.168 1575.15 284.09 1570.57 Q281.034 1565.96 281.034 1557.23 Q281.034 1548.48 284.09 1543.9 Q287.168 1539.29 292.979 1539.29 Z" fill="#000000" fill-rule="evenodd" fill-opacity="1" /><path clip-path="url(#clip980)" d="M 0 0 M746.808 1570.54 L754.447 1570.54 L754.447 1544.18 L746.137 1545.85 L746.137 1541.59 L754.401 1539.92 L759.077 1539.92 L759.077 1570.54 L766.716 1570.54 L766.716 1574.48 L746.808 1574.48 L746.808 1570.54 Z" fill="#000000" fill-rule="evenodd" fill-opacity="1" /><path clip-path="url(#clip980)" d="M 0 0 M1214.53 1570.54 L1230.85 1570.54 L1230.85 1574.48 L1208.9 1574.48 L1208.9 1570.54 Q1211.56 1567.79 1216.15 1563.16 Q1220.75 1558.51 1221.93 1557.17 Q1224.18 1554.64 1225.06 1552.91 Q1225.96 1551.15 1225.96 1549.46 Q1225.96 1546.7 1224.02 1544.97 Q1222.1 1543.23 1218.99 1543.23 Q1216.8 1543.23 1214.34 1543.99 Q1211.91 1544.76 1209.13 1546.31 L1209.13 1541.59 Q1211.96 1540.45 1214.41 1539.87 Q1216.86 1539.29 1218.9 1539.29 Q1224.27 1539.29 1227.47 1541.98 Q1230.66 1544.67 1230.66 1549.16 Q1230.66 1551.29 1229.85 1553.21 Q1229.06 1555.1 1226.96 1557.7 Q1226.38 1558.37 1223.28 1561.59 Q1220.17 1564.78 1214.53 1570.54 Z" fill="#000000" fill-rule="evenodd" fill-opacity="1" /><path clip-path="url(#clip980)" d="M 0 0 M1687.57 1555.85 Q1690.93 1556.56 1692.8 1558.83 Q1694.7 1561.1 1694.7 1564.43 Q1694.7 1569.55 1691.18 1572.35 Q1687.66 1575.15 1681.18 1575.15 Q1679 1575.15 1676.69 1574.71 Q1674.4 1574.29 1671.94 1573.44 L1671.94 1568.92 Q1673.89 1570.06 1676.2 1570.64 Q1678.52 1571.22 1681.04 1571.22 Q1685.44 1571.22 1687.73 1569.48 Q1690.05 1567.74 1690.05 1564.43 Q1690.05 1561.38 1687.89 1559.67 Q1685.76 1557.93 1681.94 1557.93 L1677.92 1557.93 L1677.92 1554.09 L1682.13 1554.09 Q1685.58 1554.09 1687.41 1552.72 Q1689.24 1551.33 1689.24 1548.74 Q1689.24 1546.08 1687.34 1544.67 Q1685.46 1543.23 1681.94 1543.23 Q1680.02 1543.23 1677.82 1543.65 Q1675.63 1544.06 1672.99 1544.94 L1672.99 1540.78 Q1675.65 1540.04 1677.96 1539.67 Q1680.3 1539.29 1682.36 1539.29 Q1687.69 1539.29 1690.79 1541.73 Q1693.89 1544.13 1693.89 1548.25 Q1693.89 1551.12 1692.25 1553.11 Q1690.6 1555.08 1687.57 1555.85 Z" fill="#000000" fill-rule="evenodd" fill-opacity="1" /><path clip-path="url(#clip980)" d="M 0 0 M2149.78 1543.99 L2137.97 1562.44 L2149.78 1562.44 L2149.78 1543.99 M2148.55 1539.92 L2154.43 1539.92 L2154.43 1562.44 L2159.36 1562.44 L2159.36 1566.33 L2154.43 1566.33 L2154.43 1574.48 L2149.78 1574.48 L2149.78 1566.33 L2134.18 1566.33 L2134.18 1561.82 L2148.55 1539.92 Z" fill="#000000" fill-rule="evenodd" fill-opacity="1" /><path clip-path="url(#clip980)" d="M 0 0 M51.0477 1465.1 Q47.4367 1465.1 45.608 1468.66 Q43.8024 1472.2 43.8024 1479.33 Q43.8024 1486.44 45.608 1490 Q47.4367 1493.55 51.0477 1493.55 Q54.682 1493.55 56.4875 1490 Q58.3162 1486.44 58.3162 1479.33 Q58.3162 1472.2 56.4875 1468.66 Q54.682 1465.1 51.0477 1465.1 M51.0477 1461.39 Q56.8579 1461.39 59.9134 1466 Q62.9921 1470.58 62.9921 1479.33 Q62.9921 1488.06 59.9134 1492.67 Q56.8579 1497.25 51.0477 1497.25 Q45.2376 1497.25 42.1589 1492.67 Q39.1034 1488.06 39.1034 1479.33 Q39.1034 1470.58 42.1589 1466 Q45.2376 1461.39 51.0477 1461.39 Z" fill="#000000" fill-rule="evenodd" fill-opacity="1" /><path clip-path="url(#clip980)" d="M 0 0 M43.0848 1029.19 L50.7237 1029.19 L50.7237 1002.83 L42.4135 1004.5 L42.4135 1000.24 L50.6774 998.57 L55.3533 998.57 L55.3533 1029.19 L62.9921 1029.19 L62.9921 1033.13 L43.0848 1033.13 L43.0848 1029.19 Z" fill="#000000" fill-rule="evenodd" fill-opacity="1" /><path clip-path="url(#clip980)" d="M 0 0 M46.6728 565.747 L62.9921 565.747 L62.9921 569.682 L41.0478 569.682 L41.0478 565.747 Q43.7098 562.992 48.2931 558.363 Q52.8996 553.71 54.0801 552.367 Q56.3255 549.844 57.2051 548.108 Q58.1079 546.349 58.1079 544.659 Q58.1079 541.904 56.1635 540.168 Q54.2422 538.432 51.1403 538.432 Q48.9413 538.432 46.4876 539.196 Q44.057 539.96 41.2793 541.511 L41.2793 536.789 Q44.1033 535.655 46.557 535.076 Q49.0107 534.497 51.0477 534.497 Q56.4181 534.497 59.6125 537.182 Q62.8069 539.867 62.8069 544.358 Q62.8069 546.488 61.9968 548.409 Q61.2097 550.307 59.1033 552.9 Q58.5246 553.571 55.4227 556.789 Q52.3209 559.983 46.6728 565.747 Z" fill="#000000" fill-rule="evenodd" fill-opacity="1" /><path clip-path="url(#clip980)" d="M 0 0 M55.8625 87.6002 Q59.219 88.3178 61.094 90.5863 Q62.9921 92.8548 62.9921 96.1881 Q62.9921 101.304 59.4736 104.105 Q55.9551 106.906 49.4737 106.906 Q47.2978 106.906 44.983 106.466 Q42.6913 106.049 40.2376 105.193 L40.2376 100.679 Q42.1821 101.813 44.4969 102.392 Q46.8117 102.971 49.3348 102.971 Q53.7329 102.971 56.0246 101.234 Q58.3394 99.4983 58.3394 96.1881 Q58.3394 93.1326 56.1866 91.4197 Q54.057 89.6836 50.2376 89.6836 L46.2098 89.6836 L46.2098 85.841 L50.4227 85.841 Q53.8718 85.841 55.7005 84.4752 Q57.5292 83.0864 57.5292 80.4938 Q57.5292 77.8318 55.6311 76.4197 Q53.7561 74.9846 50.2376 74.9846 Q48.3163 74.9846 46.1172 75.4012 Q43.9182 75.8179 41.2793 76.6975 L41.2793 72.5309 Q43.9413 71.7901 46.2561 71.4198 Q48.5941 71.0494 50.6542 71.0494 Q55.9783 71.0494 59.0801 73.4799 Q62.1819 75.8873 62.1819 80.0077 Q62.1819 82.878 60.5384 84.8688 Q58.8949 86.8363 55.8625 87.6002 Z" fill="#000000" fill-rule="evenodd" fill-opacity="1" /><path clip-path="url(#clip982)" d="
M292.979 1479.3 L756.426 88.9544 L2146.77 552.402 L292.979 1479.3  Z
  " fill="#008000" fill-rule="evenodd" fill-opacity="0.2"/>
<polyline clip-path="url(#clip982)" style="stroke:#000000; stroke-width:4; stroke-opacity:1; fill:none" points="
  292.979,1479.3 756.426,88.9544 2146.77,552.402 292.979,1479.3 
  "/>
<circle clip-path="url(#clip982)" cx="292.979" cy="1479.3" r="14" fill="#ff0000" fill-rule="evenodd" fill-opacity="1" stroke="#000000" stroke-opacity="1" stroke-width="3.2"/>
<circle clip-path="url(#clip982)" cx="756.426" cy="88.9544" r="14" fill="#ff0000" fill-rule="evenodd" fill-opacity="1" stroke="#000000" stroke-opacity="1" stroke-width="3.2"/>
<circle clip-path="url(#clip982)" cx="2146.77" cy="552.402" r="14" fill="#ff0000" fill-rule="evenodd" fill-opacity="1" stroke="#000000" stroke-opacity="1" stroke-width="3.2"/>
<path clip-path="url(#clip980)" d="M 0 0 M292.979 1408.73 L281.879 1438.83 L304.119 1438.83 L292.979 1408.73 M288.361 1400.67 L297.637 1400.67 L320.687 1461.15 L312.18 1461.15 L306.671 1445.64 L279.408 1445.64 L273.899 1461.15 L265.27 1461.15 L288.361 1400.67 Z" fill="#000000" fill-rule="evenodd" fill-opacity="1" /><path clip-path="url(#clip980)" d="M 0 0 M743.16 41.9274 L743.16 64.0859 L756.285 64.0859 Q762.887 64.0859 766.047 61.3718 Q769.247 58.6172 769.247 52.9864 Q769.247 47.3151 766.047 44.6415 Q762.887 41.9274 756.285 41.9274 L743.16 41.9274 M743.16 17.0549 L743.16 35.284 L755.272 35.284 Q761.267 35.284 764.184 33.056 Q767.141 30.7875 767.141 26.1694 Q767.141 21.5919 764.184 19.3234 Q761.267 17.0549 755.272 17.0549 L743.16 17.0549 M734.977 10.3304 L755.879 10.3304 Q765.237 10.3304 770.301 14.2193 Q775.364 18.1081 775.364 25.2782 Q775.364 30.828 772.772 34.1092 Q770.179 37.3904 765.156 38.2006 Q771.192 39.4969 774.514 43.6288 Q777.876 47.7202 777.876 53.8776 Q777.876 61.9794 772.367 66.3949 Q766.857 70.8104 756.69 70.8104 L734.977 70.8104 L734.977 10.3304 Z" fill="#000000" fill-rule="evenodd" fill-opacity="1" /><path clip-path="url(#clip980)" d="M 0 0 M2171.16 478.437 L2171.16 487.065 Q2167.02 483.217 2162.32 481.313 Q2157.67 479.409 2152.4 479.409 Q2142.03 479.409 2136.52 485.769 Q2131.01 492.088 2131.01 504.079 Q2131.01 516.029 2136.52 522.389 Q2142.03 528.708 2152.4 528.708 Q2157.67 528.708 2162.32 526.804 Q2167.02 524.901 2171.16 521.052 L2171.16 529.6 Q2166.86 532.516 2162.04 533.975 Q2157.26 535.433 2151.91 535.433 Q2138.18 535.433 2130.28 527.048 Q2122.38 518.622 2122.38 504.079 Q2122.38 489.496 2130.28 481.11 Q2138.18 472.684 2151.91 472.684 Q2157.34 472.684 2162.12 474.143 Q2166.94 475.561 2171.16 478.437 Z" fill="#000000" fill-rule="evenodd" fill-opacity="1" /></svg>
