<?xml version="1.0" encoding="utf-8"?>
<svg xmlns="http://www.w3.org/2000/svg" xmlns:xlink="http://www.w3.org/1999/xlink" width="600" height="400" viewBox="0 0 2400 1600">
<defs>
  <clipPath id="clip870">
    <rect x="0" y="0" width="2400" height="1600"/>
  </clipPath>
</defs>
<path clip-path="url(#clip870)" d="
M0 1600 L2400 1600 L2400 0 L0 0  Z
  " fill="#ffffff" fill-rule="evenodd" fill-opacity="1"/>
<defs>
  <clipPath id="clip871">
    <rect x="480" y="0" width="1681" height="1600"/>
  </clipPath>
</defs>
<path clip-path="url(#clip870)" d="
M162.455 1486.45 L2352.76 1486.45 L2352.76 47.2441 L162.455 47.2441  Z
  " fill="#ffffff" fill-rule="evenodd" fill-opacity="1"/>
<defs>
  <clipPath id="clip872">
    <rect x="162" y="47" width="2191" height="1440"/>
  </clipPath>
</defs>
<polyline clip-path="url(#clip872)" style="stroke:#000000; stroke-width:2; stroke-opacity:0.1; fill:none" points="
  239.273,1486.45 239.273,47.2441 
  "/>
<polyline clip-path="url(#clip872)" style="stroke:#000000; stroke-width:2; stroke-opacity:0.1; fill:none" points="
  578.717,1486.45 578.717,47.2441 
  "/>
<polyline clip-path="url(#clip872)" style="stroke:#000000; stroke-width:2; stroke-opacity:0.1; fill:none" points="
  918.161,1486.45 918.161,47.2441 
  "/>
<polyline clip-path="url(#clip872)" style="stroke:#000000; stroke-width:2; stroke-opacity:0.1; fill:none" points="
  1257.61,1486.45 1257.61,47.2441 
  "/>
<polyline clip-path="url(#clip872)" style="stroke:#000000; stroke-width:2; stroke-opacity:0.1; fill:none" points="
  1597.05,1486.45 1597.05,47.2441 
  "/>
<polyline clip-path="url(#clip872)" style="stroke:#000000; stroke-width:2; stroke-opacity:0.1; fill:none" points="
  1936.49,1486.45 1936.49,47.2441 
  "/>
<polyline clip-path="url(#clip872)" style="stroke:#000000; stroke-width:2; stroke-opacity:0.1; fill:none" points="
  2275.94,1486.45 2275.94,47.2441 
  "/>
<polyline clip-path="url(#clip872)" style="stroke:#000000; stroke-width:2; stroke-opacity:0.1; fill:none" points="
  162.455,1445.75 2352.76,1445.75 
  "/>
<polyline clip-path="url(#clip872)" style="stroke:#000000; stroke-width:2; stroke-opacity:0.1; fill:none" points="
  162.455,1106.31 2352.76,1106.31 
  "/>
<polyline clip-path="url(#clip872)" style="stroke:#000000; stroke-width:2; stroke-opacity:0.1; fill:none" points="
  162.455,766.865 2352.76,766.865 
  "/>
<polyline clip-path="url(#clip872)" style="stroke:#000000; stroke-width:2; stroke-opacity:0.1; fill:none" points="
  162.455,427.42 2352.76,427.42 
  "/>
<polyline clip-path="url(#clip872)" style="stroke:#000000; stroke-width:2; stroke-opacity:0.1; fill:none" points="
  162.455,87.9763 2352.76,87.9763 
  "/>
<polyline clip-path="url(#clip870)" style="stroke:#000000; stroke-width:4; stroke-opacity:1; fill:none" points="
  162.455,1486.45 2352.76,1486.45 
  "/>
<polyline clip-path="url(#clip870)" style="stroke:#000000; stroke-width:4; stroke-opacity:1; fill:none" points="
  162.455,1486.45 162.455,47.2441 
  "/>
<polyline clip-path="url(#clip870)" style="stroke:#000000; stroke-width:4; stroke-opacity:1; fill:none" points="
  239.273,1486.45 239.273,1469.18 
  "/>
<polyline clip-path="url(#clip870)" style="stroke:#000000; stroke-width:4; stroke-opacity:1; fill:none" points="
  578.717,1486.45 578.717,1469.18 
  "/>
<polyline clip-path="url(#clip870)" style="stroke:#000000; stroke-width:4; stroke-opacity:1; fill:none" points="
  918.161,1486.45 918.161,1469.18 
  "/>
<polyline clip-path="url(#clip870)" style="stroke:#000000; stroke-width:4; stroke-opacity:1; fill:none" points="
  1257.61,1486.45 1257.61,1469.18 
  "/>
<polyline clip-path="url(#clip870)" style="stroke:#000000; stroke-width:4; stroke-opacity:1; fill:none" points="
  1597.05,1486.45 1597.05,1469.18 
  "/>
<polyline clip-path="url(#clip870)" style="stroke:#000000; stroke-width:4; stroke-opacity:1; fill:none" points="
  1936.49,1486.45 1936.49,1469.18 
  "/>
<polyline clip-path="url(#clip870)" style="stroke:#000000; stroke-width:4; stroke-opacity:1; fill:none" points="
  2275.94,1486.45 2275.94,1469.18 
  "/>
<polyline clip-path="url(#clip870)" style="stroke:#000000; stroke-width:4; stroke-opacity:1; fill:none" points="
  162.455,1445.75 188.738,1445.75 
  "/>
<polyline clip-path="url(#clip870)" style="stroke:#000000; stroke-width:4; stroke-opacity:1; fill:none" points="
  162.455,1106.31 188.738,1106.31 
  "/>
<polyline clip-path="url(#clip870)" style="stroke:#000000; stroke-width:4; stroke-opacity:1; fill:none" points="
  162.455,766.865 188.738,766.865 
  "/>
<polyline clip-path="url(#clip870)" style="stroke:#000000; stroke-width:4; stroke-opacity:1; fill:none" points="
  162.455,427.42 188.738,427.42 
  "/>
<polyline clip-path="url(#clip870)" style="stroke:#000000; stroke-width:4; stroke-opacity:1; fill:none" points="
  162.455,87.9763 188.738,87.9763 
  "/>
<path clip-path="url(#clip870)" d="M 0 0 M202.155 1525.04 L214.632 1525.04 L214.632 1528.83 L202.155 1528.83 L202.155 1525.04 Z" fill="#000000" fill-rule="evenodd" fill-opacity="1" /><path clip-path="url(#clip870)" d="M 0 0 M220.511 1535.98 L228.15 1535.98 L228.15 1509.62 L219.84 1511.29 L219.84 1507.03 L228.104 1505.36 L232.78 1505.36 L232.78 1535.98 L240.418 1535.98 L240.418 1539.92 L220.511 1539.92 L220.511 1535.98 Z" fill="#000000" fill-rule="evenodd" fill-opacity="1" /><path clip-path="url(#clip870)" d="M 0 0 M245.488 1534.04 L250.372 1534.04 L250.372 1539.92 L245.488 1539.92 L245.488 1534.04 Z" fill="#000000" fill-rule="evenodd" fill-opacity="1" /><path clip-path="url(#clip870)" d="M 0 0 M255.488 1505.36 L273.844 1505.36 L273.844 1509.3 L259.77 1509.3 L259.77 1517.77 Q260.789 1517.42 261.807 1517.26 Q262.826 1517.07 263.844 1517.07 Q269.631 1517.07 273.011 1520.24 Q276.39 1523.42 276.39 1528.83 Q276.39 1534.41 272.918 1537.51 Q269.446 1540.59 263.127 1540.59 Q260.951 1540.59 258.682 1540.22 Q256.437 1539.85 254.029 1539.11 L254.029 1534.41 Q256.113 1535.54 258.335 1536.1 Q260.557 1536.66 263.034 1536.66 Q267.039 1536.66 269.377 1534.55 Q271.715 1532.44 271.715 1528.83 Q271.715 1525.22 269.377 1523.11 Q267.039 1521.01 263.034 1521.01 Q261.159 1521.01 259.284 1521.42 Q257.432 1521.84 255.488 1522.72 L255.488 1505.36 Z" fill="#000000" fill-rule="evenodd" fill-opacity="1" /><path clip-path="url(#clip870)" d="M 0 0 M541.101 1525.04 L553.578 1525.04 L553.578 1528.83 L541.101 1528.83 L541.101 1525.04 Z" fill="#000000" fill-rule="evenodd" fill-opacity="1" /><path clip-path="url(#clip870)" d="M 0 0 M559.458 1535.98 L567.097 1535.98 L567.097 1509.62 L558.786 1511.29 L558.786 1507.03 L567.05 1505.36 L571.726 1505.36 L571.726 1535.98 L579.365 1535.98 L579.365 1539.92 L559.458 1539.92 L559.458 1535.98 Z" fill="#000000" fill-rule="evenodd" fill-opacity="1" /><path clip-path="url(#clip870)" d="M 0 0 M584.434 1534.04 L589.319 1534.04 L589.319 1539.92 L584.434 1539.92 L584.434 1534.04 Z" fill="#000000" fill-rule="evenodd" fill-opacity="1" /><path clip-path="url(#clip870)" d="M 0 0 M604.388 1508.44 Q600.777 1508.44 598.948 1512 Q597.143 1515.55 597.143 1522.67 Q597.143 1529.78 598.948 1533.35 Q600.777 1536.89 604.388 1536.89 Q608.022 1536.89 609.828 1533.35 Q611.656 1529.78 611.656 1522.67 Q611.656 1515.55 609.828 1512 Q608.022 1508.44 604.388 1508.44 M604.388 1504.73 Q610.198 1504.73 613.254 1509.34 Q616.332 1513.92 616.332 1522.67 Q616.332 1531.4 613.254 1536.01 Q610.198 1540.59 604.388 1540.59 Q598.578 1540.59 595.499 1536.01 Q592.444 1531.4 592.444 1522.67 Q592.444 1513.92 595.499 1509.34 Q598.578 1504.73 604.388 1504.73 Z" fill="#000000" fill-rule="evenodd" fill-opacity="1" /><path clip-path="url(#clip870)" d="M 0 0 M880.43 1525.04 L892.907 1525.04 L892.907 1528.83 L880.43 1528.83 L880.43 1525.04 Z" fill="#000000" fill-rule="evenodd" fill-opacity="1" /><path clip-path="url(#clip870)" d="M 0 0 M907.976 1508.44 Q904.365 1508.44 902.536 1512 Q900.731 1515.55 900.731 1522.67 Q900.731 1529.78 902.536 1533.35 Q904.365 1536.89 907.976 1536.89 Q911.61 1536.89 913.416 1533.35 Q915.244 1529.78 915.244 1522.67 Q915.244 1515.55 913.416 1512 Q911.61 1508.44 907.976 1508.44 M907.976 1504.73 Q913.786 1504.73 916.842 1509.34 Q919.92 1513.92 919.92 1522.67 Q919.92 1531.4 916.842 1536.01 Q913.786 1540.59 907.976 1540.59 Q902.166 1540.59 899.087 1536.01 Q896.032 1531.4 896.032 1522.67 Q896.032 1513.92 899.087 1509.34 Q902.166 1504.73 907.976 1504.73 Z" fill="#000000" fill-rule="evenodd" fill-opacity="1" /><path clip-path="url(#clip870)" d="M 0 0 M924.99 1534.04 L929.874 1534.04 L929.874 1539.92 L924.99 1539.92 L924.99 1534.04 Z" fill="#000000" fill-rule="evenodd" fill-opacity="1" /><path clip-path="url(#clip870)" d="M 0 0 M934.99 1505.36 L953.346 1505.36 L953.346 1509.3 L939.272 1509.3 L939.272 1517.77 Q940.291 1517.42 941.309 1517.26 Q942.328 1517.07 943.346 1517.07 Q949.133 1517.07 952.513 1520.24 Q955.892 1523.42 955.892 1528.83 Q955.892 1534.41 952.42 1537.51 Q948.948 1540.59 942.629 1540.59 Q940.453 1540.59 938.184 1540.22 Q935.939 1539.85 933.531 1539.11 L933.531 1534.41 Q935.615 1535.54 937.837 1536.1 Q940.059 1536.66 942.536 1536.66 Q946.541 1536.66 948.879 1534.55 Q951.216 1532.44 951.216 1528.83 Q951.216 1525.22 948.879 1523.11 Q946.541 1521.01 942.536 1521.01 Q940.661 1521.01 938.786 1521.42 Q936.934 1521.84 934.99 1522.72 L934.99 1505.36 Z" fill="#000000" fill-rule="evenodd" fill-opacity="1" /><path clip-path="url(#clip870)" d="M 0 0 M1239.12 1508.44 Q1235.51 1508.44 1233.68 1512 Q1231.88 1515.55 1231.88 1522.67 Q1231.88 1529.78 1233.68 1533.35 Q1235.51 1536.89 1239.12 1536.89 Q1242.76 1536.89 1244.56 1533.35 Q1246.39 1529.78 1246.39 1522.67 Q1246.39 1515.55 1244.56 1512 Q1242.76 1508.44 1239.12 1508.44 M1239.12 1504.73 Q1244.93 1504.73 1247.99 1509.34 Q1251.07 1513.92 1251.07 1522.67 Q1251.07 1531.4 1247.99 1536.01 Q1244.93 1540.59 1239.12 1540.59 Q1233.31 1540.59 1230.23 1536.01 Q1227.18 1531.4 1227.18 1522.67 Q1227.18 1513.92 1230.23 1509.34 Q1233.31 1504.73 1239.12 1504.73 Z" fill="#000000" fill-rule="evenodd" fill-opacity="1" /><path clip-path="url(#clip870)" d="M 0 0 M1256.14 1534.04 L1261.02 1534.04 L1261.02 1539.92 L1256.14 1539.92 L1256.14 1534.04 Z" fill="#000000" fill-rule="evenodd" fill-opacity="1" /><path clip-path="url(#clip870)" d="M 0 0 M1276.09 1508.44 Q1272.48 1508.44 1270.65 1512 Q1268.84 1515.55 1268.84 1522.67 Q1268.84 1529.78 1270.65 1533.35 Q1272.48 1536.89 1276.09 1536.89 Q1279.72 1536.89 1281.53 1533.35 Q1283.36 1529.78 1283.36 1522.67 Q1283.36 1515.55 1281.53 1512 Q1279.72 1508.44 1276.09 1508.44 M1276.09 1504.73 Q1281.9 1504.73 1284.95 1509.34 Q1288.03 1513.92 1288.03 1522.67 Q1288.03 1531.4 1284.95 1536.01 Q1281.9 1540.59 1276.09 1540.59 Q1270.28 1540.59 1267.2 1536.01 Q1264.14 1531.4 1264.14 1522.67 Q1264.14 1513.92 1267.2 1509.34 Q1270.28 1504.73 1276.09 1504.73 Z" fill="#000000" fill-rule="evenodd" fill-opacity="1" /><path clip-path="url(#clip870)" d="M 0 0 M1579.06 1508.44 Q1575.45 1508.44 1573.62 1512 Q1571.82 1515.55 1571.82 1522.67 Q1571.82 1529.78 1573.62 1533.35 Q1575.45 1536.89 1579.06 1536.89 Q1582.7 1536.89 1584.5 1533.35 Q1586.33 1529.78 1586.33 1522.67 Q1586.33 1515.55 1584.5 1512 Q1582.7 1508.44 1579.06 1508.44 M1579.06 1504.73 Q1584.87 1504.73 1587.93 1509.34 Q1591.01 1513.92 1591.01 1522.67 Q1591.01 1531.4 1587.93 1536.01 Q1584.87 1540.59 1579.06 1540.59 Q1573.25 1540.59 1570.17 1536.01 Q1567.12 1531.4 1567.12 1522.67 Q1567.12 1513.92 1570.17 1509.34 Q1573.25 1504.73 1579.06 1504.73 Z" fill="#000000" fill-rule="evenodd" fill-opacity="1" /><path clip-path="url(#clip870)" d="M 0 0 M1596.08 1534.04 L1600.96 1534.04 L1600.96 1539.92 L1596.08 1539.92 L1596.08 1534.04 Z" fill="#000000" fill-rule="evenodd" fill-opacity="1" /><path clip-path="url(#clip870)" d="M 0 0 M1606.08 1505.36 L1624.43 1505.36 L1624.43 1509.3 L1610.36 1509.3 L1610.36 1517.77 Q1611.38 1517.42 1612.4 1517.26 Q1613.42 1517.07 1614.43 1517.07 Q1620.22 1517.07 1623.6 1520.24 Q1626.98 1523.42 1626.98 1528.83 Q1626.98 1534.41 1623.51 1537.51 Q1620.04 1540.59 1613.72 1540.59 Q1611.54 1540.59 1609.27 1540.22 Q1607.03 1539.85 1604.62 1539.11 L1604.62 1534.41 Q1606.7 1535.54 1608.92 1536.1 Q1611.15 1536.66 1613.62 1536.66 Q1617.63 1536.66 1619.97 1534.55 Q1622.3 1532.44 1622.3 1528.83 Q1622.3 1525.22 1619.97 1523.11 Q1617.63 1521.01 1613.62 1521.01 Q1611.75 1521.01 1609.87 1521.42 Q1608.02 1521.84 1606.08 1522.72 L1606.08 1505.36 Z" fill="#000000" fill-rule="evenodd" fill-opacity="1" /><path clip-path="url(#clip870)" d="M 0 0 M1908.39 1535.98 L1916.03 1535.98 L1916.03 1509.62 L1907.72 1511.29 L1907.72 1507.03 L1915.98 1505.36 L1920.66 1505.36 L1920.66 1535.98 L1928.3 1535.98 L1928.3 1539.92 L1908.39 1539.92 L1908.39 1535.98 Z" fill="#000000" fill-rule="evenodd" fill-opacity="1" /><path clip-path="url(#clip870)" d="M 0 0 M1933.37 1534.04 L1938.25 1534.04 L1938.25 1539.92 L1933.37 1539.92 L1933.37 1534.04 Z" fill="#000000" fill-rule="evenodd" fill-opacity="1" /><path clip-path="url(#clip870)" d="M 0 0 M1953.32 1508.44 Q1949.71 1508.44 1947.88 1512 Q1946.08 1515.55 1946.08 1522.67 Q1946.08 1529.78 1947.88 1533.35 Q1949.71 1536.89 1953.32 1536.89 Q1956.96 1536.89 1958.76 1533.35 Q1960.59 1529.78 1960.59 1522.67 Q1960.59 1515.55 1958.76 1512 Q1956.96 1508.44 1953.32 1508.44 M1953.32 1504.73 Q1959.13 1504.73 1962.19 1509.34 Q1965.27 1513.92 1965.27 1522.67 Q1965.27 1531.4 1962.19 1536.01 Q1959.13 1540.59 1953.32 1540.59 Q1947.51 1540.59 1944.43 1536.01 Q1941.38 1531.4 1941.38 1522.67 Q1941.38 1513.92 1944.43 1509.34 Q1947.51 1504.73 1953.32 1504.73 Z" fill="#000000" fill-rule="evenodd" fill-opacity="1" /><path clip-path="url(#clip870)" d="M 0 0 M2248.33 1535.98 L2255.97 1535.98 L2255.97 1509.62 L2247.66 1511.29 L2247.66 1507.03 L2255.93 1505.36 L2260.6 1505.36 L2260.6 1535.98 L2268.24 1535.98 L2268.24 1539.92 L2248.33 1539.92 L2248.33 1535.98 Z" fill="#000000" fill-rule="evenodd" fill-opacity="1" /><path clip-path="url(#clip870)" d="M 0 0 M2273.31 1534.04 L2278.19 1534.04 L2278.19 1539.92 L2273.31 1539.92 L2273.31 1534.04 Z" fill="#000000" fill-rule="evenodd" fill-opacity="1" /><path clip-path="url(#clip870)" d="M 0 0 M2283.31 1505.36 L2301.67 1505.36 L2301.67 1509.3 L2287.59 1509.3 L2287.59 1517.77 Q2288.61 1517.42 2289.63 1517.26 Q2290.65 1517.07 2291.67 1517.07 Q2297.45 1517.07 2300.83 1520.24 Q2304.21 1523.42 2304.21 1528.83 Q2304.21 1534.41 2300.74 1537.51 Q2297.27 1540.59 2290.95 1540.59 Q2288.77 1540.59 2286.51 1540.22 Q2284.26 1539.85 2281.85 1539.11 L2281.85 1534.41 Q2283.94 1535.54 2286.16 1536.1 Q2288.38 1536.66 2290.86 1536.66 Q2294.86 1536.66 2297.2 1534.55 Q2299.54 1532.44 2299.54 1528.83 Q2299.54 1525.22 2297.2 1523.11 Q2294.86 1521.01 2290.86 1521.01 Q2288.98 1521.01 2287.11 1521.42 Q2285.26 1521.84 2283.31 1522.72 L2283.31 1505.36 Z" fill="#000000" fill-rule="evenodd" fill-opacity="1" /><path clip-path="url(#clip870)" d="M 0 0 M63.2236 1448.15 L75.7004 1448.15 L75.7004 1451.95 L63.2236 1451.95 L63.2236 1448.15 Z" fill="#000000" fill-rule="evenodd" fill-opacity="1" /><path clip-path="url(#clip870)" d="M 0 0 M81.58 1459.1 L89.2188 1459.1 L89.2188 1432.73 L80.9087 1434.4 L80.9087 1430.14 L89.1725 1428.47 L93.8484 1428.47 L93.8484 1459.1 L101.487 1459.1 L101.487 1463.03 L81.58 1463.03 L81.58 1459.1 Z" fill="#000000" fill-rule="evenodd" fill-opacity="1" /><path clip-path="url(#clip870)" d="M 0 0 M106.557 1457.15 L111.441 1457.15 L111.441 1463.03 L106.557 1463.03 L106.557 1457.15 Z" fill="#000000" fill-rule="evenodd" fill-opacity="1" /><path clip-path="url(#clip870)" d="M 0 0 M126.51 1431.55 Q122.899 1431.55 121.071 1435.12 Q119.265 1438.66 119.265 1445.79 Q119.265 1452.89 121.071 1456.46 Q122.899 1460 126.51 1460 Q130.145 1460 131.95 1456.46 Q133.779 1452.89 133.779 1445.79 Q133.779 1438.66 131.95 1435.12 Q130.145 1431.55 126.51 1431.55 M126.51 1427.85 Q132.32 1427.85 135.376 1432.45 Q138.455 1437.04 138.455 1445.79 Q138.455 1454.51 135.376 1459.12 Q132.32 1463.7 126.51 1463.7 Q120.7 1463.7 117.621 1459.12 Q114.566 1454.51 114.566 1445.79 Q114.566 1437.04 117.621 1432.45 Q120.7 1427.85 126.51 1427.85 Z" fill="#000000" fill-rule="evenodd" fill-opacity="1" /><path clip-path="url(#clip870)" d="M 0 0 M62.9921 1108.7 L75.4689 1108.7 L75.4689 1112.5 L62.9921 1112.5 L62.9921 1108.7 Z" fill="#000000" fill-rule="evenodd" fill-opacity="1" /><path clip-path="url(#clip870)" d="M 0 0 M90.5383 1092.11 Q86.9272 1092.11 85.0985 1095.67 Q83.2929 1099.21 83.2929 1106.34 Q83.2929 1113.45 85.0985 1117.01 Q86.9272 1120.56 90.5383 1120.56 Q94.1725 1120.56 95.9781 1117.01 Q97.8068 1113.45 97.8068 1106.34 Q97.8068 1099.21 95.9781 1095.67 Q94.1725 1092.11 90.5383 1092.11 M90.5383 1088.4 Q96.3484 1088.4 99.404 1093.01 Q102.483 1097.59 102.483 1106.34 Q102.483 1115.07 99.404 1119.68 Q96.3484 1124.26 90.5383 1124.26 Q84.7281 1124.26 81.6494 1119.68 Q78.5939 1115.07 78.5939 1106.34 Q78.5939 1097.59 81.6494 1093.01 Q84.7281 1088.4 90.5383 1088.4 Z" fill="#000000" fill-rule="evenodd" fill-opacity="1" /><path clip-path="url(#clip870)" d="M 0 0 M107.552 1117.71 L112.436 1117.71 L112.436 1123.59 L107.552 1123.59 L107.552 1117.71 Z" fill="#000000" fill-rule="evenodd" fill-opacity="1" /><path clip-path="url(#clip870)" d="M 0 0 M117.552 1089.03 L135.908 1089.03 L135.908 1092.96 L121.834 1092.96 L121.834 1101.44 Q122.853 1101.09 123.871 1100.93 Q124.89 1100.74 125.908 1100.74 Q131.695 1100.74 135.075 1103.91 Q138.455 1107.08 138.455 1112.5 Q138.455 1118.08 134.982 1121.18 Q131.51 1124.26 125.191 1124.26 Q123.015 1124.26 120.746 1123.89 Q118.501 1123.52 116.094 1122.78 L116.094 1118.08 Q118.177 1119.21 120.399 1119.77 Q122.621 1120.33 125.098 1120.33 Q129.103 1120.33 131.441 1118.22 Q133.779 1116.11 133.779 1112.5 Q133.779 1108.89 131.441 1106.78 Q129.103 1104.68 125.098 1104.68 Q123.223 1104.68 121.348 1105.09 Q119.496 1105.51 117.552 1106.39 L117.552 1089.03 Z" fill="#000000" fill-rule="evenodd" fill-opacity="1" /><path clip-path="url(#clip870)" d="M 0 0 M89.5429 752.663 Q85.9318 752.663 84.1031 756.228 Q82.2976 759.77 82.2976 766.899 Q82.2976 774.006 84.1031 777.571 Q85.9318 781.112 89.5429 781.112 Q93.1771 781.112 94.9827 777.571 Q96.8114 774.006 96.8114 766.899 Q96.8114 759.77 94.9827 756.228 Q93.1771 752.663 89.5429 752.663 M89.5429 748.96 Q95.3531 748.96 98.4086 753.566 Q101.487 758.149 101.487 766.899 Q101.487 775.626 98.4086 780.233 Q95.3531 784.816 89.5429 784.816 Q83.7328 784.816 80.6541 780.233 Q77.5985 775.626 77.5985 766.899 Q77.5985 758.149 80.6541 753.566 Q83.7328 748.96 89.5429 748.96 Z" fill="#000000" fill-rule="evenodd" fill-opacity="1" /><path clip-path="url(#clip870)" d="M 0 0 M106.557 778.265 L111.441 778.265 L111.441 784.145 L106.557 784.145 L106.557 778.265 Z" fill="#000000" fill-rule="evenodd" fill-opacity="1" /><path clip-path="url(#clip870)" d="M 0 0 M126.51 752.663 Q122.899 752.663 121.071 756.228 Q119.265 759.77 119.265 766.899 Q119.265 774.006 121.071 777.571 Q122.899 781.112 126.51 781.112 Q130.145 781.112 131.95 777.571 Q133.779 774.006 133.779 766.899 Q133.779 759.77 131.95 756.228 Q130.145 752.663 126.51 752.663 M126.51 748.96 Q132.32 748.96 135.376 753.566 Q138.455 758.149 138.455 766.899 Q138.455 775.626 135.376 780.233 Q132.32 784.816 126.51 784.816 Q120.7 784.816 117.621 780.233 Q114.566 775.626 114.566 766.899 Q114.566 758.149 117.621 753.566 Q120.7 748.96 126.51 748.96 Z" fill="#000000" fill-rule="evenodd" fill-opacity="1" /><path clip-path="url(#clip870)" d="M 0 0 M90.5383 413.219 Q86.9272 413.219 85.0985 416.784 Q83.2929 420.326 83.2929 427.455 Q83.2929 434.562 85.0985 438.126 Q86.9272 441.668 90.5383 441.668 Q94.1725 441.668 95.9781 438.126 Q97.8068 434.562 97.8068 427.455 Q97.8068 420.326 95.9781 416.784 Q94.1725 413.219 90.5383 413.219 M90.5383 409.516 Q96.3484 409.516 99.404 414.122 Q102.483 418.705 102.483 427.455 Q102.483 436.182 99.404 440.788 Q96.3484 445.372 90.5383 445.372 Q84.7281 445.372 81.6494 440.788 Q78.5939 436.182 78.5939 427.455 Q78.5939 418.705 81.6494 414.122 Q84.7281 409.516 90.5383 409.516 Z" fill="#000000" fill-rule="evenodd" fill-opacity="1" /><path clip-path="url(#clip870)" d="M 0 0 M107.552 438.821 L112.436 438.821 L112.436 444.7 L107.552 444.7 L107.552 438.821 Z" fill="#000000" fill-rule="evenodd" fill-opacity="1" /><path clip-path="url(#clip870)" d="M 0 0 M117.552 410.14 L135.908 410.14 L135.908 414.076 L121.834 414.076 L121.834 422.548 Q122.853 422.201 123.871 422.039 Q124.89 421.853 125.908 421.853 Q131.695 421.853 135.075 425.025 Q138.455 428.196 138.455 433.613 Q138.455 439.191 134.982 442.293 Q131.51 445.372 125.191 445.372 Q123.015 445.372 120.746 445.001 Q118.501 444.631 116.094 443.89 L116.094 439.191 Q118.177 440.326 120.399 440.881 Q122.621 441.437 125.098 441.437 Q129.103 441.437 131.441 439.33 Q133.779 437.224 133.779 433.613 Q133.779 430.002 131.441 427.895 Q129.103 425.789 125.098 425.789 Q123.223 425.789 121.348 426.205 Q119.496 426.622 117.552 427.502 L117.552 410.14 Z" fill="#000000" fill-rule="evenodd" fill-opacity="1" /><path clip-path="url(#clip870)" d="M 0 0 M81.58 101.321 L89.2188 101.321 L89.2188 74.9555 L80.9087 76.6222 L80.9087 72.3629 L89.1725 70.6963 L93.8484 70.6963 L93.8484 101.321 L101.487 101.321 L101.487 105.256 L81.58 105.256 L81.58 101.321 Z" fill="#000000" fill-rule="evenodd" fill-opacity="1" /><path clip-path="url(#clip870)" d="M 0 0 M106.557 99.3767 L111.441 99.3767 L111.441 105.256 L106.557 105.256 L106.557 99.3767 Z" fill="#000000" fill-rule="evenodd" fill-opacity="1" /><path clip-path="url(#clip870)" d="M 0 0 M126.51 73.775 Q122.899 73.775 121.071 77.3398 Q119.265 80.8814 119.265 88.011 Q119.265 95.1174 121.071 98.6822 Q122.899 102.224 126.51 102.224 Q130.145 102.224 131.95 98.6822 Q133.779 95.1174 133.779 88.011 Q133.779 80.8814 131.95 77.3398 Q130.145 73.775 126.51 73.775 M126.51 70.0713 Q132.32 70.0713 135.376 74.6777 Q138.455 79.261 138.455 88.011 Q138.455 96.7378 135.376 101.344 Q132.32 105.928 126.51 105.928 Q120.7 105.928 117.621 101.344 Q114.566 96.7378 114.566 88.011 Q114.566 79.261 117.621 74.6777 Q120.7 70.0713 126.51 70.0713 Z" fill="#000000" fill-rule="evenodd" fill-opacity="1" /><path clip-path="url(#clip872)" d="
M1257.61 87.9763 L1271.87 88.1262 L1286.13 88.5758 L1300.38 89.3249 L1314.6 90.3732 L1328.8 91.7202 L1342.98 93.3653 L1357.11 95.3079 L1371.2 97.547 L1385.24 100.082 
  L1399.22 102.911 L1413.14 106.033 L1426.99 109.447 L1440.77 113.151 L1454.46 117.144 L1468.07 121.424 L1481.59 125.989 L1495 130.837 L1508.32 135.966 L1521.52 141.373 
  L1534.6 147.057 L1547.57 153.014 L1560.4 159.242 L1573.1 165.739 L1585.66 172.501 L1598.08 179.525 L1610.34 186.809 L1622.46 194.349 L1634.4 202.142 L1646.19 210.184 
  L1657.8 218.472 L1669.23 227.002 L1680.49 235.771 L1691.55 244.774 L1702.43 254.007 L1713.11 263.467 L1723.58 273.15 L1733.85 283.05 L1743.92 293.164 L1753.76 303.487 
  L1763.39 314.015 L1772.79 324.743 L1781.97 335.666 L1790.91 346.779 L1799.62 358.078 L1808.09 369.557 L1816.32 381.212 L1824.3 393.037 L1832.03 405.027 L1839.51 417.177 
  L1846.73 429.482 L1853.68 441.935 L1860.38 454.532 L1866.81 467.267 L1872.97 480.134 L1878.86 493.127 L1884.47 506.242 L1889.81 519.471 L1894.87 532.81 L1899.65 546.252 
  L1904.14 559.792 L1908.35 573.423 L1912.27 587.14 L1915.9 600.935 L1919.25 614.805 L1922.29 628.741 L1925.05 642.738 L1927.51 656.79 L1929.68 670.891 L1931.54 685.034 
  L1933.11 699.213 L1934.39 713.422 L1935.36 727.655 L1936.03 741.905 L1936.41 756.166 L1936.48 770.431 L1936.26 784.695 L1935.74 798.952 L1934.91 813.194 L1933.79 827.415 
  L1932.37 841.61 L1930.65 855.772 L1928.63 869.895 L1926.32 883.972 L1923.71 897.997 L1920.81 911.965 L1917.61 925.868 L1914.12 939.701 L1910.35 953.458 L1906.28 967.133 
  L1901.93 980.719 L1897.3 994.211 L1892.38 1007.6 L1887.18 1020.89 L1881.7 1034.06 L1875.95 1047.11 L1869.92 1060.05 L1863.63 1072.85 L1857.07 1085.51 L1850.24 1098.04 
  L1843.15 1110.42 L1835.8 1122.65 L1828.2 1134.72 L1820.34 1146.63 L1812.24 1158.37 L1803.89 1169.93 L1795.3 1181.32 L1786.47 1192.53 L1777.41 1203.55 L1768.12 1214.38 
  L1758.6 1225 L1748.87 1235.43 L1738.91 1245.65 L1728.74 1255.66 L1718.37 1265.45 L1707.79 1275.02 L1697.01 1284.37 L1686.04 1293.49 L1674.88 1302.37 L1663.54 1311.02 
  L1652.02 1319.43 L1640.32 1327.6 L1628.45 1335.52 L1616.42 1343.18 L1604.23 1350.59 L1591.89 1357.75 L1579.4 1364.64 L1566.77 1371.27 L1554 1377.64 L1541.1 1383.73 
  L1528.08 1389.55 L1514.93 1395.09 L1501.67 1400.36 L1488.31 1405.35 L1474.84 1410.06 L1461.28 1414.48 L1447.63 1418.62 L1433.89 1422.47 L1420.07 1426.03 L1406.19 1429.29 
  L1392.24 1432.27 L1378.22 1434.95 L1364.16 1437.34 L1350.05 1439.43 L1335.89 1441.22 L1321.71 1442.72 L1307.49 1443.92 L1293.25 1444.82 L1279 1445.42 L1264.74 1445.72 
  L1250.47 1445.72 L1236.21 1445.42 L1221.96 1444.82 L1207.72 1443.92 L1193.5 1442.72 L1179.32 1441.22 L1165.16 1439.43 L1151.05 1437.34 L1136.99 1434.95 L1122.98 1432.27 
  L1109.02 1429.29 L1095.14 1426.03 L1081.32 1422.47 L1067.59 1418.62 L1053.93 1414.48 L1040.37 1410.06 L1026.9 1405.35 L1013.54 1400.36 L1000.28 1395.09 L987.135 1389.55 
  L974.111 1383.73 L961.212 1377.64 L948.443 1371.27 L935.812 1364.64 L923.322 1357.75 L910.98 1350.59 L898.791 1343.18 L886.76 1335.52 L874.893 1327.6 L863.195 1319.43 
  L851.672 1311.02 L840.327 1302.37 L829.167 1293.49 L818.196 1284.37 L807.419 1275.02 L796.841 1265.45 L786.466 1255.66 L776.299 1245.65 L766.345 1235.43 L756.608 1225 
  L747.092 1214.38 L737.801 1203.55 L728.74 1192.53 L719.913 1181.32 L711.323 1169.93 L702.974 1158.37 L694.87 1146.63 L687.014 1134.72 L679.411 1122.65 L672.063 1110.42 
  L664.973 1098.04 L658.145 1085.51 L651.582 1072.85 L645.286 1060.05 L639.261 1047.11 L633.509 1034.06 L628.032 1020.89 L622.834 1007.6 L617.915 994.211 L613.279 980.719 
  L608.928 967.133 L604.863 953.458 L601.086 939.701 L597.6 925.868 L594.404 911.965 L591.502 897.997 L588.894 883.972 L586.58 869.895 L584.564 855.772 L582.844 841.61 
  L581.423 827.415 L580.299 813.194 L579.476 798.952 L578.951 784.695 L578.726 770.431 L578.801 756.166 L579.176 741.905 L579.85 727.655 L580.824 713.422 L582.096 699.213 
  L583.667 685.034 L585.535 670.891 L587.7 656.79 L590.161 642.738 L592.916 628.741 L595.965 614.805 L599.307 600.935 L602.939 587.14 L606.86 573.423 L611.068 559.792 
  L615.562 546.252 L620.339 532.81 L625.398 519.471 L630.736 506.242 L636.351 493.127 L642.24 480.134 L648.4 467.267 L654.83 454.532 L661.526 441.935 L668.485 429.482 
  L675.705 417.177 L683.181 405.027 L690.911 393.037 L698.891 381.212 L707.118 369.557 L715.588 358.078 L724.297 346.779 L733.242 335.666 L742.418 324.743 L751.822 314.015 
  L761.449 303.487 L771.295 293.164 L781.356 283.05 L791.628 273.15 L802.105 263.467 L812.783 254.007 L823.658 244.774 L834.724 235.771 L845.977 227.002 L857.411 218.472 
  L869.023 210.184 L880.806 202.142 L892.755 194.349 L904.866 186.809 L917.132 179.525 L929.549 172.501 L942.11 165.739 L954.811 159.242 L967.645 153.014 L980.608 147.057 
  L993.693 141.373 L1006.89 135.966 L1020.21 130.837 L1033.62 125.989 L1047.14 121.424 L1060.75 117.144 L1074.44 113.151 L1088.22 109.447 L1102.07 106.033 L1115.99 102.911 
  L1129.97 100.082 L1144.01 97.547 L1158.1 95.3079 L1172.23 93.3653 L1186.41 91.7202 L1200.61 90.3732 L1214.84 89.3249 L1229.08 88.5758 L1243.34 88.1262 L1257.61 87.9763 
  L1257.61 766.865 L1243.34 766.865 L1229.08 766.865 L1214.84 766.865 L1200.61 766.865 L1186.41 766.865 L1172.23 766.865 L1158.1 766.865 L1144.01 766.865 L1129.97 766.865 
  L1115.99 766.865 L1102.07 766.865 L1088.22 766.865 L1074.44 766.865 L1060.75 766.865 L1047.14 766.865 L1033.62 766.865 L1020.21 766.865 L1006.89 766.865 L993.693 766.865 
  L980.608 766.865 L967.645 766.865 L954.811 766.865 L942.11 766.865 L929.549 766.865 L917.132 766.865 L904.866 766.865 L892.755 766.865 L880.806 766.865 L869.023 766.865 
  L857.411 766.865 L845.977 766.865 L834.724 766.865 L823.658 766.865 L812.783 766.865 L802.105 766.865 L791.628 766.865 L781.356 766.865 L771.295 766.865 L761.449 766.865 
  L751.822 766.865 L742.418 766.865 L733.242 766.865 L724.297 766.865 L715.588 766.865 L707.118 766.865 L698.891 766.865 L690.911 766.865 L683.181 766.865 L675.705 766.865 
  L668.485 766.865 L661.526 766.865 L654.83 766.865 L648.4 766.865 L642.24 766.865 L636.351 766.865 L630.736 766.865 L625.398 766.865 L620.339 766.865 L615.562 766.865 
  L611.068 766.865 L606.86 766.865 L602.939 766.865 L599.307 766.865 L595.965 766.865 L592.916 766.865 L590.161 766.865 L587.7 766.865 L585.535 766.865 L583.667 766.865 
  L582.096 766.865 L580.824 766.865 L579.85 766.865 L579.176 766.865 L578.801 766.865 L578.726 766.865 L578.951 766.865 L579.476 766.865 L580.299 766.865 L581.423 766.865 
  L582.844 766.865 L584.564 766.865 L586.58 766.865 L588.894 766.865 L591.502 766.865 L594.404 766.865 L597.6 766.865 L601.086 766.865 L604.863 766.865 L608.928 766.865 
  L613.279 766.865 L617.915 766.865 L622.834 766.865 L628.032 766.865 L633.509 766.865 L639.261 766.865 L645.286 766.865 L651.582 766.865 L658.145 766.865 L664.973 766.865 
  L672.063 766.865 L679.411 766.865 L687.014 766.865 L694.87 766.865 L702.974 766.865 L711.323 766.865 L719.913 766.865 L728.74 766.865 L737.801 766.865 L747.092 766.865 
  L756.608 766.865 L766.345 766.865 L776.299 766.865 L786.466 766.865 L796.841 766.865 L807.419 766.865 L818.196 766.865 L829.167 766.865 L840.327 766.865 L851.672 766.865 
  L863.195 766.865 L874.893 766.865 L886.76 766.865 L898.791 766.865 L910.98 766.865 L923.322 766.865 L935.812 766.865 L948.443 766.865 L961.212 766.865 L974.111 766.865 
  L987.135 766.865 L1000.28 766.865 L1013.54 766.865 L1026.9 766.865 L1040.37 766.865 L1053.93 766.865 L1067.59 766.865 L1081.32 766.865 L1095.14 766.865 L1109.02 766.865 
  L1122.98 766.865 L1136.99 766.865 L1151.05 766.865 L1165.16 766.865 L1179.32 766.865 L1193.5 766.865 L1207.72 766.865 L1221.96 766.865 L1236.21 766.865 L1250.47 766.865 
  L1264.74 766.865 L1279 766.865 L1293.25 766.865 L1307.49 766.865 L1321.71 766.865 L1335.89 766.865 L1350.05 766.865 L1364.16 766.865 L1378.22 766.865 L1392.24 766.865 
  L1406.19 766.865 L1420.07 766.865 L1433.89 766.865 L1447.63 766.865 L1461.28 766.865 L1474.84 766.865 L1488.31 766.865 L1501.67 766.865 L1514.93 766.865 L1528.08 766.865 
  L1541.1 766.865 L1554 766.865 L1566.77 766.865 L1579.4 766.865 L1591.89 766.865 L1604.23 766.865 L1616.42 766.865 L1628.45 766.865 L1640.32 766.865 L1652.02 766.865 
  L1663.54 766.865 L1674.88 766.865 L1686.04 766.865 L1697.01 766.865 L1707.79 766.865 L1718.37 766.865 L1728.74 766.865 L1738.91 766.865 L1748.87 766.865 L1758.6 766.865 
  L1768.12 766.865 L1777.41 766.865 L1786.47 766.865 L1795.3 766.865 L1803.89 766.865 L1812.24 766.865 L1820.34 766.865 L1828.2 766.865 L1835.8 766.865 L1843.15 766.865 
  L1850.24 766.865 L1857.07 766.865 L1863.63 766.865 L1869.92 766.865 L1875.95 766.865 L1881.7 766.865 L1887.18 766.865 L1892.38 766.865 L1897.3 766.865 L1901.93 766.865 
  L1906.28 766.865 L1910.35 766.865 L1914.12 766.865 L1917.61 766.865 L1920.81 766.865 L1923.71 766.865 L1926.32 766.865 L1928.63 766.865 L1930.65 766.865 L1932.37 766.865 
  L1933.79 766.865 L1934.91 766.865 L1935.74 766.865 L1936.26 766.865 L1936.48 766.865 L1936.41 766.865 L1936.03 766.865 L1935.36 766.865 L1934.39 766.865 L1933.11 766.865 
  L1931.54 766.865 L1929.68 766.865 L1927.51 766.865 L1925.05 766.865 L1922.29 766.865 L1919.25 766.865 L1915.9 766.865 L1912.27 766.865 L1908.35 766.865 L1904.14 766.865 
  L1899.65 766.865 L1894.87 766.865 L1889.81 766.865 L1884.47 766.865 L1878.86 766.865 L1872.97 766.865 L1866.81 766.865 L1860.38 766.865 L1853.68 766.865 L1846.73 766.865 
  L1839.51 766.865 L1832.03 766.865 L1824.3 766.865 L1816.32 766.865 L1808.09 766.865 L1799.62 766.865 L1790.91 766.865 L1781.97 766.865 L1772.79 766.865 L1763.39 766.865 
  L1753.76 766.865 L1743.92 766.865 L1733.85 766.865 L1723.58 766.865 L1713.11 766.865 L1702.43 766.865 L1691.55 766.865 L1680.49 766.865 L1669.23 766.865 L1657.8 766.865 
  L1646.19 766.865 L1634.4 766.865 L1622.46 766.865 L1610.34 766.865 L1598.08 766.865 L1585.66 766.865 L1573.1 766.865 L1560.4 766.865 L1547.57 766.865 L1534.6 766.865 
  L1521.52 766.865 L1508.32 766.865 L1495 766.865 L1481.59 766.865 L1468.07 766.865 L1454.46 766.865 L1440.77 766.865 L1426.99 766.865 L1413.14 766.865 L1399.22 766.865 
  L1385.24 766.865 L1371.2 766.865 L1357.11 766.865 L1342.98 766.865 L1328.8 766.865 L1314.6 766.865 L1300.38 766.865 L1286.13 766.865 L1271.87 766.865 L1257.61 766.865 
   Z
  " fill="#ff0000" fill-rule="evenodd" fill-opacity="0.2"/>
<polyline clip-path="url(#clip872)" style="stroke:#009af9; stroke-width:4; stroke-opacity:1; fill:none" points="
  1257.61,87.9763 1271.87,88.1262 1286.13,88.5758 1300.38,89.3249 1314.6,90.3732 1328.8,91.7202 1342.98,93.3653 1357.11,95.3079 1371.2,97.547 1385.24,100.082 
  1399.22,102.911 1413.14,106.033 1426.99,109.447 1440.77,113.151 1454.46,117.144 1468.07,121.424 1481.59,125.989 1495,130.837 1508.32,135.966 1521.52,141.373 
  1534.6,147.057 1547.57,153.014 1560.4,159.242 1573.1,165.739 1585.66,172.501 1598.08,179.525 1610.34,186.809 1622.46,194.349 1634.4,202.142 1646.19,210.184 
  1657.8,218.472 1669.23,227.002 1680.49,235.771 1691.55,244.774 1702.43,254.007 1713.11,263.467 1723.58,273.15 1733.85,283.05 1743.92,293.164 1753.76,303.487 
  1763.39,314.015 1772.79,324.743 1781.97,335.666 1790.91,346.779 1799.62,358.078 1808.09,369.557 1816.32,381.212 1824.3,393.037 1832.03,405.027 1839.51,417.177 
  1846.73,429.482 1853.68,441.935 1860.38,454.532 1866.81,467.267 1872.97,480.134 1878.86,493.127 1884.47,506.242 1889.81,519.471 1894.87,532.81 1899.65,546.252 
  1904.14,559.792 1908.35,573.423 1912.27,587.14 1915.9,600.935 1919.25,614.805 1922.29,628.741 1925.05,642.738 1927.51,656.79 1929.68,670.891 1931.54,685.034 
  1933.11,699.213 1934.39,713.422 1935.36,727.655 1936.03,741.905 1936.41,756.166 1936.48,770.431 1936.26,784.695 1935.74,798.952 1934.91,813.194 1933.79,827.415 
  1932.37,841.61 1930.65,855.772 1928.63,869.895 1926.32,883.972 1923.71,897.997 1920.81,911.965 1917.61,925.868 1914.12,939.701 1910.35,953.458 1906.28,967.133 
  1901.93,980.719 1897.3,994.211 1892.38,1007.6 1887.18,1020.89 1881.7,1034.06 1875.95,1047.11 1869.92,1060.05 1863.63,1072.85 1857.07,1085.51 1850.24,1098.04 
  1843.15,1110.42 1835.8,1122.65 1828.2,1134.72 1820.34,1146.63 1812.24,1158.37 1803.89,1169.93 1795.3,1181.32 1786.47,1192.53 1777.41,1203.55 1768.12,1214.38 
  1758.6,1225 1748.87,1235.43 1738.91,1245.65 1728.74,1255.66 1718.37,1265.45 1707.79,1275.02 1697.01,1284.37 1686.04,1293.49 1674.88,1302.37 1663.54,1311.02 
  1652.02,1319.43 1640.32,1327.6 1628.45,1335.52 1616.42,1343.18 1604.23,1350.59 1591.89,1357.75 1579.4,1364.64 1566.77,1371.27 1554,1377.64 1541.1,1383.73 
  1528.08,1389.55 1514.93,1395.09 1501.67,1400.36 1488.31,1405.35 1474.84,1410.06 1461.28,1414.48 1447.63,1418.62 1433.89,1422.47 1420.07,1426.03 1406.19,1429.29 
  1392.24,1432.27 1378.22,1434.95 1364.16,1437.34 1350.05,1439.43 1335.89,1441.22 1321.71,1442.72 1307.49,1443.92 1293.25,1444.82 1279,1445.42 1264.74,1445.72 
  1250.47,1445.72 1236.21,1445.42 1221.96,1444.82 1207.72,1443.92 1193.5,1442.72 1179.32,1441.22 1165.16,1439.43 1151.05,1437.34 1136.99,1434.95 1122.98,1432.27 
  1109.02,1429.29 1095.14,1426.03 1081.32,1422.47 1067.59,1418.62 1053.93,1414.48 1040.37,1410.06 1026.9,1405.35 1013.54,1400.36 1000.28,1395.09 987.135,1389.55 
  974.111,1383.73 961.212,1377.64 948.443,1371.27 935.812,1364.64 923.322,1357.75 910.98,1350.59 898.791,1343.18 886.76,1335.52 874.893,1327.6 863.195,1319.43 
  851.672,1311.02 840.327,1302.37 829.167,1293.49 818.196,1284.37 807.419,1275.02 796.841,1265.45 786.466,1255.66 776.299,1245.65 766.345,1235.43 756.608,1225 
  747.092,1214.38 737.801,1203.55 728.74,1192.53 719.913,1181.32 711.323,1169.93 702.974,1158.37 694.87,1146.63 687.014,1134.72 679.411,1122.65 672.063,1110.42 
  664.973,1098.04 658.145,1085.51 651.582,1072.85 645.286,1060.05 639.261,1047.11 633.509,1034.06 628.032,1020.89 622.834,1007.6 617.915,994.211 613.279,980.719 
  608.928,967.133 604.863,953.458 601.086,939.701 597.6,925.868 594.404,911.965 591.502,897.997 588.894,883.972 586.58,869.895 584.564,855.772 582.844,841.61 
  581.423,827.415 580.299,813.194 579.476,798.952 578.951,784.695 578.726,770.431 578.801,756.166 579.176,741.905 579.85,727.655 580.824,713.422 582.096,699.213 
  583.667,685.034 585.535,670.891 587.7,656.79 590.161,642.738 592.916,628.741 595.965,614.805 599.307,600.935 602.939,587.14 606.86,573.423 611.068,559.792 
  615.562,546.252 620.339,532.81 625.398,519.471 630.736,506.242 636.351,493.127 642.24,480.134 648.4,467.267 654.83,454.532 661.526,441.935 668.485,429.482 
  675.705,417.177 683.181,405.027 690.911,393.037 698.891,381.212 707.118,369.557 715.588,358.078 724.297,346.779 733.242,335.666 742.418,324.743 751.822,314.015 
  761.449,303.487 771.295,293.164 781.356,283.05 791.628,273.15 802.105,263.467 812.783,254.007 823.658,244.774 834.724,235.771 845.977,227.002 857.411,218.472 
  869.023,210.184 880.806,202.142 892.755,194.349 904.866,186.809 917.132,179.525 929.549,172.501 942.11,165.739 954.811,159.242 967.645,153.014 980.608,147.057 
  993.693,141.373 1006.89,135.966 1020.21,130.837 1033.62,125.989 1047.14,121.424 1060.75,117.144 1074.44,113.151 1088.22,109.447 1102.07,106.033 1115.99,102.911 
  1129.97,100.082 1144.01,97.547 1158.1,95.3079 1172.23,93.3653 1186.41,91.7202 1200.61,90.3732 1214.84,89.3249 1229.08,88.5758 1243.34,88.1262 1257.61,87.9763 
  
  "/>
<circle clip-path="url(#clip872)" cx="1257.61" cy="766.865" r="14" fill="#ff0000" fill-rule="evenodd" fill-opacity="1" stroke="#000000" stroke-opacity="1" stroke-width="3.2"/>
<path clip-path="url(#clip870)" d="M 0 0 M1257.61 696.302 L1246.51 726.4 L1268.75 726.4 L1257.61 696.302 M1252.99 688.241 L1262.26 688.241 L1285.31 748.721 L1276.81 748.721 L1271.3 733.206 L1244.03 733.206 L1238.53 748.721 L1229.9 748.721 L1252.99 688.241 Z" fill="#000000" fill-rule="evenodd" fill-opacity="1" /></svg>
