<?xml version="1.0" encoding="utf-8"?>
<svg xmlns="http://www.w3.org/2000/svg" xmlns:xlink="http://www.w3.org/1999/xlink" width="600" height="400" viewBox="0 0 2400 1600">
<defs>
  <clipPath id="clip010">
    <rect x="0" y="0" width="2400" height="1600"/>
  </clipPath>
</defs>
<path clip-path="url(#clip010)" d="
M0 1600 L2400 1600 L2400 0 L0 0  Z
  " fill="#ffffff" fill-rule="evenodd" fill-opacity="1"/>
<defs>
  <clipPath id="clip011">
    <rect x="480" y="0" width="1681" height="1600"/>
  </clipPath>
</defs>
<path clip-path="url(#clip010)" d="
M86.9921 1521.01 L2352.76 1521.01 L2352.76 47.2441 L86.9921 47.2441  Z
  " fill="#ffffff" fill-rule="evenodd" fill-opacity="1"/>
<defs>
  <clipPath id="clip012">
    <rect x="86" y="47" width="2267" height="1475"/>
  </clipPath>
</defs>
<polyline clip-path="url(#clip012)" style="stroke:#000000; stroke-width:2; stroke-opacity:0.1; fill:none" points="
  177.088,1521.01 177.088,47.2441 
  "/>
<polyline clip-path="url(#clip012)" style="stroke:#000000; stroke-width:2; stroke-opacity:0.1; fill:none" points="
  524.683,1521.01 524.683,47.2441 
  "/>
<polyline clip-path="url(#clip012)" style="stroke:#000000; stroke-width:2; stroke-opacity:0.1; fill:none" points="
  872.279,1521.01 872.279,47.2441 
  "/>
<polyline clip-path="url(#clip012)" style="stroke:#000000; stroke-width:2; stroke-opacity:0.1; fill:none" points="
  1219.87,1521.01 1219.87,47.2441 
  "/>
<polyline clip-path="url(#clip012)" style="stroke:#000000; stroke-width:2; stroke-opacity:0.1; fill:none" points="
  1567.47,1521.01 1567.47,47.2441 
  "/>
<polyline clip-path="url(#clip012)" style="stroke:#000000; stroke-width:2; stroke-opacity:0.1; fill:none" points="
  1915.06,1521.01 1915.06,47.2441 
  "/>
<polyline clip-path="url(#clip012)" style="stroke:#000000; stroke-width:2; stroke-opacity:0.1; fill:none" points="
  2262.66,1521.01 2262.66,47.2441 
  "/>
<polyline clip-path="url(#clip012)" style="stroke:#000000; stroke-width:2; stroke-opacity:0.1; fill:none" points="
  86.9921,1479.34 2352.76,1479.34 
  "/>
<polyline clip-path="url(#clip012)" style="stroke:#000000; stroke-width:2; stroke-opacity:0.1; fill:none" points="
  86.9921,1131.74 2352.76,1131.74 
  "/>
<polyline clip-path="url(#clip012)" style="stroke:#000000; stroke-width:2; stroke-opacity:0.1; fill:none" points="
  86.9921,784.145 2352.76,784.145 
  "/>
<polyline clip-path="url(#clip012)" style="stroke:#000000; stroke-width:2; stroke-opacity:0.1; fill:none" points="
  86.9921,436.55 2352.76,436.55 
  "/>
<polyline clip-path="url(#clip012)" style="stroke:#000000; stroke-width:2; stroke-opacity:0.1; fill:none" points="
  86.9921,88.9544 2352.76,88.9544 
  "/>
<polyline clip-path="url(#clip010)" style="stroke:#000000; stroke-width:4; stroke-opacity:1; fill:none" points="
  86.9921,1521.01 2352.76,1521.01 
  "/>
<polyline clip-path="url(#clip010)" style="stroke:#000000; stroke-width:4; stroke-opacity:1; fill:none" points="
  86.9921,1521.01 86.9921,47.2441 
  "/>
<polyline clip-path="url(#clip010)" style="stroke:#000000; stroke-width:4; stroke-opacity:1; fill:none" points="
  177.088,1521.01 177.088,1503.32 
  "/>
<polyline clip-path="url(#clip010)" style="stroke:#000000; stroke-width:4; stroke-opacity:1; fill:none" points="
  524.683,1521.01 524.683,1503.32 
  "/>
<polyline clip-path="url(#clip010)" style="stroke:#000000; stroke-width:4; stroke-opacity:1; fill:none" points="
  872.279,1521.01 872.279,1503.32 
  "/>
<polyline clip-path="url(#clip010)" style="stroke:#000000; stroke-width:4; stroke-opacity:1; fill:none" points="
  1219.87,1521.01 1219.87,1503.32 
  "/>
<polyline clip-path="url(#clip010)" style="stroke:#000000; stroke-width:4; stroke-opacity:1; fill:none" points="
  1567.47,1521.01 1567.47,1503.32 
  "/>
<polyline clip-path="url(#clip010)" style="stroke:#000000; stroke-width:4; stroke-opacity:1; fill:none" points="
  1915.06,1521.01 1915.06,1503.32 
  "/>
<polyline clip-path="url(#clip010)" style="stroke:#000000; stroke-width:4; stroke-opacity:1; fill:none" points="
  2262.66,1521.01 2262.66,1503.32 
  "/>
<polyline clip-path="url(#clip010)" style="stroke:#000000; stroke-width:4; stroke-opacity:1; fill:none" points="
  86.9921,1479.34 114.181,1479.34 
  "/>
<polyline clip-path="url(#clip010)" style="stroke:#000000; stroke-width:4; stroke-opacity:1; fill:none" points="
  86.9921,1131.74 114.181,1131.74 
  "/>
<polyline clip-path="url(#clip010)" style="stroke:#000000; stroke-width:4; stroke-opacity:1; fill:none" points="
  86.9921,784.145 114.181,784.145 
  "/>
<polyline clip-path="url(#clip010)" style="stroke:#000000; stroke-width:4; stroke-opacity:1; fill:none" points="
  86.9921,436.55 114.181,436.55 
  "/>
<polyline clip-path="url(#clip010)" style="stroke:#000000; stroke-width:4; stroke-opacity:1; fill:none" points="
  86.9921,88.9544 114.181,88.9544 
  "/>
<path clip-path="url(#clip010)" d="M 0 0 M139.97 1559.6 L152.447 1559.6 L152.447 1563.39 L139.97 1563.39 L139.97 1559.6 Z" fill="#000000" fill-rule="evenodd" fill-opacity="1" /><path clip-path="url(#clip010)" d="M 0 0 M158.326 1570.54 L165.965 1570.54 L165.965 1544.18 L157.655 1545.85 L157.655 1541.59 L165.919 1539.92 L170.595 1539.92 L170.595 1570.54 L178.234 1570.54 L178.234 1574.48 L158.326 1574.48 L158.326 1570.54 Z" fill="#000000" fill-rule="evenodd" fill-opacity="1" /><path clip-path="url(#clip010)" d="M 0 0 M183.303 1568.6 L188.187 1568.6 L188.187 1574.48 L183.303 1574.48 L183.303 1568.6 Z" fill="#000000" fill-rule="evenodd" fill-opacity="1" /><path clip-path="url(#clip010)" d="M 0 0 M193.303 1539.92 L211.659 1539.92 L211.659 1543.86 L197.585 1543.86 L197.585 1552.33 Q198.604 1551.98 199.622 1551.82 Q200.641 1551.63 201.659 1551.63 Q207.446 1551.63 210.826 1554.8 Q214.206 1557.98 214.206 1563.39 Q214.206 1568.97 210.733 1572.07 Q207.261 1575.15 200.942 1575.15 Q198.766 1575.15 196.497 1574.78 Q194.252 1574.41 191.845 1573.67 L191.845 1568.97 Q193.928 1570.1 196.15 1570.66 Q198.372 1571.22 200.849 1571.22 Q204.854 1571.22 207.192 1569.11 Q209.53 1567 209.53 1563.39 Q209.53 1559.78 207.192 1557.67 Q204.854 1555.57 200.849 1555.57 Q198.974 1555.57 197.099 1555.98 Q195.247 1556.4 193.303 1557.28 L193.303 1539.92 Z" fill="#000000" fill-rule="evenodd" fill-opacity="1" /><path clip-path="url(#clip010)" d="M 0 0 M487.068 1559.6 L499.544 1559.6 L499.544 1563.39 L487.068 1563.39 L487.068 1559.6 Z" fill="#000000" fill-rule="evenodd" fill-opacity="1" /><path clip-path="url(#clip010)" d="M 0 0 M505.424 1570.54 L513.063 1570.54 L513.063 1544.18 L504.753 1545.85 L504.753 1541.59 L513.017 1539.92 L517.693 1539.92 L517.693 1570.54 L525.331 1570.54 L525.331 1574.48 L505.424 1574.48 L505.424 1570.54 Z" fill="#000000" fill-rule="evenodd" fill-opacity="1" /><path clip-path="url(#clip010)" d="M 0 0 M530.401 1568.6 L535.285 1568.6 L535.285 1574.48 L530.401 1574.48 L530.401 1568.6 Z" fill="#000000" fill-rule="evenodd" fill-opacity="1" /><path clip-path="url(#clip010)" d="M 0 0 M550.354 1543 Q546.743 1543 544.915 1546.56 Q543.109 1550.11 543.109 1557.23 Q543.109 1564.34 544.915 1567.91 Q546.743 1571.45 550.354 1571.45 Q553.989 1571.45 555.794 1567.91 Q557.623 1564.34 557.623 1557.23 Q557.623 1550.11 555.794 1546.56 Q553.989 1543 550.354 1543 M550.354 1539.29 Q556.165 1539.29 559.22 1543.9 Q562.299 1548.48 562.299 1557.23 Q562.299 1565.96 559.22 1570.57 Q556.165 1575.15 550.354 1575.15 Q544.544 1575.15 541.466 1570.57 Q538.41 1565.96 538.41 1557.23 Q538.41 1548.48 541.466 1543.9 Q544.544 1539.29 550.354 1539.29 Z" fill="#000000" fill-rule="evenodd" fill-opacity="1" /><path clip-path="url(#clip010)" d="M 0 0 M834.547 1559.6 L847.024 1559.6 L847.024 1563.39 L834.547 1563.39 L834.547 1559.6 Z" fill="#000000" fill-rule="evenodd" fill-opacity="1" /><path clip-path="url(#clip010)" d="M 0 0 M862.093 1543 Q858.482 1543 856.654 1546.56 Q854.848 1550.11 854.848 1557.23 Q854.848 1564.34 856.654 1567.91 Q858.482 1571.45 862.093 1571.45 Q865.728 1571.45 867.533 1567.91 Q869.362 1564.34 869.362 1557.23 Q869.362 1550.11 867.533 1546.56 Q865.728 1543 862.093 1543 M862.093 1539.29 Q867.904 1539.29 870.959 1543.9 Q874.038 1548.48 874.038 1557.23 Q874.038 1565.96 870.959 1570.57 Q867.904 1575.15 862.093 1575.15 Q856.283 1575.15 853.205 1570.57 Q850.149 1565.96 850.149 1557.23 Q850.149 1548.48 853.205 1543.9 Q856.283 1539.29 862.093 1539.29 Z" fill="#000000" fill-rule="evenodd" fill-opacity="1" /><path clip-path="url(#clip010)" d="M 0 0 M879.107 1568.6 L883.992 1568.6 L883.992 1574.48 L879.107 1574.48 L879.107 1568.6 Z" fill="#000000" fill-rule="evenodd" fill-opacity="1" /><path clip-path="url(#clip010)" d="M 0 0 M889.107 1539.92 L907.464 1539.92 L907.464 1543.86 L893.39 1543.86 L893.39 1552.33 Q894.408 1551.98 895.427 1551.82 Q896.445 1551.63 897.464 1551.63 Q903.251 1551.63 906.63 1554.8 Q910.01 1557.98 910.01 1563.39 Q910.01 1568.97 906.538 1572.07 Q903.065 1575.15 896.746 1575.15 Q894.57 1575.15 892.302 1574.78 Q890.056 1574.41 887.649 1573.67 L887.649 1568.97 Q889.732 1570.1 891.954 1570.66 Q894.177 1571.22 896.653 1571.22 Q900.658 1571.22 902.996 1569.11 Q905.334 1567 905.334 1563.39 Q905.334 1559.78 902.996 1557.67 Q900.658 1555.57 896.653 1555.57 Q894.779 1555.57 892.904 1555.98 Q891.052 1556.4 889.107 1557.28 L889.107 1539.92 Z" fill="#000000" fill-rule="evenodd" fill-opacity="1" /><path clip-path="url(#clip010)" d="M 0 0 M1201.39 1543 Q1197.78 1543 1195.95 1546.56 Q1194.14 1550.11 1194.14 1557.23 Q1194.14 1564.34 1195.95 1567.91 Q1197.78 1571.45 1201.39 1571.45 Q1205.02 1571.45 1206.83 1567.91 Q1208.66 1564.34 1208.66 1557.23 Q1208.66 1550.11 1206.83 1546.56 Q1205.02 1543 1201.39 1543 M1201.39 1539.29 Q1207.2 1539.29 1210.26 1543.9 Q1213.33 1548.48 1213.33 1557.23 Q1213.33 1565.96 1210.26 1570.57 Q1207.2 1575.15 1201.39 1575.15 Q1195.58 1575.15 1192.5 1570.57 Q1189.45 1565.96 1189.45 1557.23 Q1189.45 1548.48 1192.5 1543.9 Q1195.58 1539.29 1201.39 1539.29 Z" fill="#000000" fill-rule="evenodd" fill-opacity="1" /><path clip-path="url(#clip010)" d="M 0 0 M1218.4 1568.6 L1223.29 1568.6 L1223.29 1574.48 L1218.4 1574.48 L1218.4 1568.6 Z" fill="#000000" fill-rule="evenodd" fill-opacity="1" /><path clip-path="url(#clip010)" d="M 0 0 M1238.36 1543 Q1234.75 1543 1232.92 1546.56 Q1231.11 1550.11 1231.11 1557.23 Q1231.11 1564.34 1232.92 1567.91 Q1234.75 1571.45 1238.36 1571.45 Q1241.99 1571.45 1243.8 1567.91 Q1245.63 1564.34 1245.63 1557.23 Q1245.63 1550.11 1243.8 1546.56 Q1241.99 1543 1238.36 1543 M1238.36 1539.29 Q1244.17 1539.29 1247.22 1543.9 Q1250.3 1548.48 1250.3 1557.23 Q1250.3 1565.96 1247.22 1570.57 Q1244.17 1575.15 1238.36 1575.15 Q1232.55 1575.15 1229.47 1570.57 Q1226.41 1565.96 1226.41 1557.23 Q1226.41 1548.48 1229.47 1543.9 Q1232.55 1539.29 1238.36 1539.29 Z" fill="#000000" fill-rule="evenodd" fill-opacity="1" /><path clip-path="url(#clip010)" d="M 0 0 M1549.48 1543 Q1545.87 1543 1544.04 1546.56 Q1542.24 1550.11 1542.24 1557.23 Q1542.24 1564.34 1544.04 1567.91 Q1545.87 1571.45 1549.48 1571.45 Q1553.12 1571.45 1554.92 1567.91 Q1556.75 1564.34 1556.75 1557.23 Q1556.75 1550.11 1554.92 1546.56 Q1553.12 1543 1549.48 1543 M1549.48 1539.29 Q1555.29 1539.29 1558.35 1543.9 Q1561.43 1548.48 1561.43 1557.23 Q1561.43 1565.96 1558.35 1570.57 Q1555.29 1575.15 1549.48 1575.15 Q1543.67 1575.15 1540.59 1570.57 Q1537.54 1565.96 1537.54 1557.23 Q1537.54 1548.48 1540.59 1543.9 Q1543.67 1539.29 1549.48 1539.29 Z" fill="#000000" fill-rule="evenodd" fill-opacity="1" /><path clip-path="url(#clip010)" d="M 0 0 M1566.5 1568.6 L1571.38 1568.6 L1571.38 1574.48 L1566.5 1574.48 L1566.5 1568.6 Z" fill="#000000" fill-rule="evenodd" fill-opacity="1" /><path clip-path="url(#clip010)" d="M 0 0 M1576.5 1539.92 L1594.85 1539.92 L1594.85 1543.86 L1580.78 1543.86 L1580.78 1552.33 Q1581.8 1551.98 1582.82 1551.82 Q1583.84 1551.63 1584.85 1551.63 Q1590.64 1551.63 1594.02 1554.8 Q1597.4 1557.98 1597.4 1563.39 Q1597.4 1568.97 1593.93 1572.07 Q1590.46 1575.15 1584.14 1575.15 Q1581.96 1575.15 1579.69 1574.78 Q1577.45 1574.41 1575.04 1573.67 L1575.04 1568.97 Q1577.12 1570.1 1579.34 1570.66 Q1581.57 1571.22 1584.04 1571.22 Q1588.05 1571.22 1590.39 1569.11 Q1592.72 1567 1592.72 1563.39 Q1592.72 1559.78 1590.39 1557.67 Q1588.05 1555.57 1584.04 1555.57 Q1582.17 1555.57 1580.29 1555.98 Q1578.44 1556.4 1576.5 1557.28 L1576.5 1539.92 Z" fill="#000000" fill-rule="evenodd" fill-opacity="1" /><path clip-path="url(#clip010)" d="M 0 0 M1886.96 1570.54 L1894.6 1570.54 L1894.6 1544.18 L1886.29 1545.85 L1886.29 1541.59 L1894.56 1539.92 L1899.23 1539.92 L1899.23 1570.54 L1906.87 1570.54 L1906.87 1574.48 L1886.96 1574.48 L1886.96 1570.54 Z" fill="#000000" fill-rule="evenodd" fill-opacity="1" /><path clip-path="url(#clip010)" d="M 0 0 M1911.94 1568.6 L1916.82 1568.6 L1916.82 1574.48 L1911.94 1574.48 L1911.94 1568.6 Z" fill="#000000" fill-rule="evenodd" fill-opacity="1" /><path clip-path="url(#clip010)" d="M 0 0 M1931.89 1543 Q1928.28 1543 1926.45 1546.56 Q1924.65 1550.11 1924.65 1557.23 Q1924.65 1564.34 1926.45 1567.91 Q1928.28 1571.45 1931.89 1571.45 Q1935.53 1571.45 1937.33 1567.91 Q1939.16 1564.34 1939.16 1557.23 Q1939.16 1550.11 1937.33 1546.56 Q1935.53 1543 1931.89 1543 M1931.89 1539.29 Q1937.7 1539.29 1940.76 1543.9 Q1943.84 1548.48 1943.84 1557.23 Q1943.84 1565.96 1940.76 1570.57 Q1937.7 1575.15 1931.89 1575.15 Q1926.08 1575.15 1923 1570.57 Q1919.95 1565.96 1919.95 1557.23 Q1919.95 1548.48 1923 1543.9 Q1926.08 1539.29 1931.89 1539.29 Z" fill="#000000" fill-rule="evenodd" fill-opacity="1" /><path clip-path="url(#clip010)" d="M 0 0 M2235.06 1570.54 L2242.7 1570.54 L2242.7 1544.18 L2234.38 1545.85 L2234.38 1541.59 L2242.65 1539.92 L2247.32 1539.92 L2247.32 1570.54 L2254.96 1570.54 L2254.96 1574.48 L2235.06 1574.48 L2235.06 1570.54 Z" fill="#000000" fill-rule="evenodd" fill-opacity="1" /><path clip-path="url(#clip010)" d="M 0 0 M2260.03 1568.6 L2264.92 1568.6 L2264.92 1574.48 L2260.03 1574.48 L2260.03 1568.6 Z" fill="#000000" fill-rule="evenodd" fill-opacity="1" /><path clip-path="url(#clip010)" d="M 0 0 M2270.03 1539.92 L2288.39 1539.92 L2288.39 1543.86 L2274.32 1543.86 L2274.32 1552.33 Q2275.33 1551.98 2276.35 1551.82 Q2277.37 1551.63 2278.39 1551.63 Q2284.18 1551.63 2287.56 1554.8 Q2290.94 1557.98 2290.94 1563.39 Q2290.94 1568.97 2287.46 1572.07 Q2283.99 1575.15 2277.67 1575.15 Q2275.5 1575.15 2273.23 1574.78 Q2270.98 1574.41 2268.57 1573.67 L2268.57 1568.97 Q2270.66 1570.1 2272.88 1570.66 Q2275.1 1571.22 2277.58 1571.22 Q2281.58 1571.22 2283.92 1569.11 Q2286.26 1567 2286.26 1563.39 Q2286.26 1559.78 2283.92 1557.67 Q2281.58 1555.57 2277.58 1555.57 Q2275.7 1555.57 2273.83 1555.98 Q2271.98 1556.4 2270.03 1557.28 L2270.03 1539.92 Z" fill="#000000" fill-rule="evenodd" fill-opacity="1" /><path clip-path="url(#clip010)" d="M 0 0 M-12.239 1481.73 L0.237833 1481.73 L0.237833 1485.53 L-12.239 1485.53 L-12.239 1481.73 Z" fill="#000000" fill-rule="evenodd" fill-opacity="1" /><path clip-path="url(#clip010)" d="M 0 0 M6.11743 1492.68 L13.7563 1492.68 L13.7563 1466.32 L5.44614 1467.98 L5.44614 1463.72 L13.71 1462.06 L18.3859 1462.06 L18.3859 1492.68 L26.0247 1492.68 L26.0247 1496.62 L6.11743 1496.62 L6.11743 1492.68 Z" fill="#000000" fill-rule="evenodd" fill-opacity="1" /><path clip-path="url(#clip010)" d="M 0 0 M31.0941 1490.74 L35.9784 1490.74 L35.9784 1496.62 L31.0941 1496.62 L31.0941 1490.74 Z" fill="#000000" fill-rule="evenodd" fill-opacity="1" /><path clip-path="url(#clip010)" d="M 0 0 M51.0477 1465.13 Q47.4367 1465.13 45.608 1468.7 Q43.8024 1472.24 43.8024 1479.37 Q43.8024 1486.48 45.608 1490.04 Q47.4367 1493.58 51.0477 1493.58 Q54.682 1493.58 56.4875 1490.04 Q58.3162 1486.48 58.3162 1479.37 Q58.3162 1472.24 56.4875 1468.7 Q54.682 1465.13 51.0477 1465.13 M51.0477 1461.43 Q56.8579 1461.43 59.9134 1466.04 Q62.9921 1470.62 62.9921 1479.37 Q62.9921 1488.1 59.9134 1492.7 Q56.8579 1497.29 51.0477 1497.29 Q45.2376 1497.29 42.1589 1492.7 Q39.1034 1488.1 39.1034 1479.37 Q39.1034 1470.62 42.1589 1466.04 Q45.2376 1461.43 51.0477 1461.43 Z" fill="#000000" fill-rule="evenodd" fill-opacity="1" /><path clip-path="url(#clip010)" d="M 0 0 M-12.4704 1134.14 L0.00635237 1134.14 L0.00635237 1137.93 L-12.4704 1137.93 L-12.4704 1134.14 Z" fill="#000000" fill-rule="evenodd" fill-opacity="1" /><path clip-path="url(#clip010)" d="M 0 0 M15.0757 1117.54 Q11.4646 1117.54 9.63593 1121.1 Q7.83038 1124.65 7.83038 1131.78 Q7.83038 1138.88 9.63593 1142.45 Q11.4646 1145.99 15.0757 1145.99 Q18.71 1145.99 20.5155 1142.45 Q22.3442 1138.88 22.3442 1131.78 Q22.3442 1124.65 20.5155 1121.1 Q18.71 1117.54 15.0757 1117.54 M15.0757 1113.84 Q20.8859 1113.84 23.9414 1118.44 Q27.0201 1123.03 27.0201 1131.78 Q27.0201 1140.5 23.9414 1145.11 Q20.8859 1149.69 15.0757 1149.69 Q9.26556 1149.69 6.18687 1145.11 Q3.13134 1140.5 3.13134 1131.78 Q3.13134 1123.03 6.18687 1118.44 Q9.26556 1113.84 15.0757 1113.84 Z" fill="#000000" fill-rule="evenodd" fill-opacity="1" /><path clip-path="url(#clip010)" d="M 0 0 M32.0895 1143.14 L36.9737 1143.14 L36.9737 1149.02 L32.0895 1149.02 L32.0895 1143.14 Z" fill="#000000" fill-rule="evenodd" fill-opacity="1" /><path clip-path="url(#clip010)" d="M 0 0 M42.0895 1114.46 L60.4458 1114.46 L60.4458 1118.4 L46.3718 1118.4 L46.3718 1126.87 Q47.3904 1126.52 48.4089 1126.36 Q49.4274 1126.17 50.4459 1126.17 Q56.2329 1126.17 59.6125 1129.34 Q62.9921 1132.52 62.9921 1137.93 Q62.9921 1143.51 59.5199 1146.61 Q56.0477 1149.69 49.7283 1149.69 Q47.5524 1149.69 45.2839 1149.32 Q43.0385 1148.95 40.6311 1148.21 L40.6311 1143.51 Q42.7145 1144.65 44.9367 1145.2 Q47.1589 1145.76 49.6357 1145.76 Q53.6403 1145.76 55.9783 1143.65 Q58.3162 1141.54 58.3162 1137.93 Q58.3162 1134.32 55.9783 1132.22 Q53.6403 1130.11 49.6357 1130.11 Q47.7607 1130.11 45.8857 1130.53 Q44.0339 1130.94 42.0895 1131.82 L42.0895 1114.46 Z" fill="#000000" fill-rule="evenodd" fill-opacity="1" /><path clip-path="url(#clip010)" d="M 0 0 M14.0804 769.944 Q10.4693 769.944 8.64057 773.509 Q6.83502 777.05 6.83502 784.18 Q6.83502 791.286 8.64057 794.851 Q10.4693 798.393 14.0804 798.393 Q17.7146 798.393 19.5201 794.851 Q21.3488 791.286 21.3488 784.18 Q21.3488 777.05 19.5201 773.509 Q17.7146 769.944 14.0804 769.944 M14.0804 766.24 Q19.8905 766.24 22.946 770.847 Q26.0247 775.43 26.0247 784.18 Q26.0247 792.907 22.946 797.513 Q19.8905 802.096 14.0804 802.096 Q8.2702 802.096 5.19151 797.513 Q2.13597 792.907 2.13597 784.18 Q2.13597 775.43 5.19151 770.847 Q8.2702 766.24 14.0804 766.24 Z" fill="#000000" fill-rule="evenodd" fill-opacity="1" /><path clip-path="url(#clip010)" d="M 0 0 M31.0941 795.546 L35.9784 795.546 L35.9784 801.425 L31.0941 801.425 L31.0941 795.546 Z" fill="#000000" fill-rule="evenodd" fill-opacity="1" /><path clip-path="url(#clip010)" d="M 0 0 M51.0477 769.944 Q47.4367 769.944 45.608 773.509 Q43.8024 777.05 43.8024 784.18 Q43.8024 791.286 45.608 794.851 Q47.4367 798.393 51.0477 798.393 Q54.682 798.393 56.4875 794.851 Q58.3162 791.286 58.3162 784.18 Q58.3162 777.05 56.4875 773.509 Q54.682 769.944 51.0477 769.944 M51.0477 766.24 Q56.8579 766.24 59.9134 770.847 Q62.9921 775.43 62.9921 784.18 Q62.9921 792.907 59.9134 797.513 Q56.8579 802.096 51.0477 802.096 Q45.2376 802.096 42.1589 797.513 Q39.1034 792.907 39.1034 784.18 Q39.1034 775.43 42.1589 770.847 Q45.2376 766.24 51.0477 766.24 Z" fill="#000000" fill-rule="evenodd" fill-opacity="1" /><path clip-path="url(#clip010)" d="M 0 0 M15.0757 422.348 Q11.4646 422.348 9.63593 425.913 Q7.83038 429.455 7.83038 436.585 Q7.83038 443.691 9.63593 447.256 Q11.4646 450.797 15.0757 450.797 Q18.71 450.797 20.5155 447.256 Q22.3442 443.691 22.3442 436.585 Q22.3442 429.455 20.5155 425.913 Q18.71 422.348 15.0757 422.348 M15.0757 418.645 Q20.8859 418.645 23.9414 423.251 Q27.0201 427.835 27.0201 436.585 Q27.0201 445.311 23.9414 449.918 Q20.8859 454.501 15.0757 454.501 Q9.26556 454.501 6.18687 449.918 Q3.13134 445.311 3.13134 436.585 Q3.13134 427.835 6.18687 423.251 Q9.26556 418.645 15.0757 418.645 Z" fill="#000000" fill-rule="evenodd" fill-opacity="1" /><path clip-path="url(#clip010)" d="M 0 0 M32.0895 447.95 L36.9737 447.95 L36.9737 453.83 L32.0895 453.83 L32.0895 447.95 Z" fill="#000000" fill-rule="evenodd" fill-opacity="1" /><path clip-path="url(#clip010)" d="M 0 0 M42.0895 419.27 L60.4458 419.27 L60.4458 423.205 L46.3718 423.205 L46.3718 431.677 Q47.3904 431.33 48.4089 431.168 Q49.4274 430.983 50.4459 430.983 Q56.2329 430.983 59.6125 434.154 Q62.9921 437.325 62.9921 442.742 Q62.9921 448.321 59.5199 451.422 Q56.0477 454.501 49.7283 454.501 Q47.5524 454.501 45.2839 454.131 Q43.0385 453.76 40.6311 453.02 L40.6311 448.321 Q42.7145 449.455 44.9367 450.01 Q47.1589 450.566 49.6357 450.566 Q53.6403 450.566 55.9783 448.459 Q58.3162 446.353 58.3162 442.742 Q58.3162 439.131 55.9783 437.024 Q53.6403 434.918 49.6357 434.918 Q47.7607 434.918 45.8857 435.335 Q44.0339 435.751 42.0895 436.631 L42.0895 419.27 Z" fill="#000000" fill-rule="evenodd" fill-opacity="1" /><path clip-path="url(#clip010)" d="M 0 0 M6.11743 102.299 L13.7563 102.299 L13.7563 75.9336 L5.44614 77.6003 L5.44614 73.341 L13.71 71.6744 L18.3859 71.6744 L18.3859 102.299 L26.0247 102.299 L26.0247 106.234 L6.11743 106.234 L6.11743 102.299 Z" fill="#000000" fill-rule="evenodd" fill-opacity="1" /><path clip-path="url(#clip010)" d="M 0 0 M31.0941 100.355 L35.9784 100.355 L35.9784 106.234 L31.0941 106.234 L31.0941 100.355 Z" fill="#000000" fill-rule="evenodd" fill-opacity="1" /><path clip-path="url(#clip010)" d="M 0 0 M51.0477 74.7531 Q47.4367 74.7531 45.608 78.3179 Q43.8024 81.8595 43.8024 88.9891 Q43.8024 96.0956 45.608 99.6604 Q47.4367 103.202 51.0477 103.202 Q54.682 103.202 56.4875 99.6604 Q58.3162 96.0956 58.3162 88.9891 Q58.3162 81.8595 56.4875 78.3179 Q54.682 74.7531 51.0477 74.7531 M51.0477 71.0494 Q56.8579 71.0494 59.9134 75.6559 Q62.9921 80.2392 62.9921 88.9891 Q62.9921 97.7159 59.9134 102.322 Q56.8579 106.906 51.0477 106.906 Q45.2376 106.906 42.1589 102.322 Q39.1034 97.7159 39.1034 88.9891 Q39.1034 80.2392 42.1589 75.6559 Q45.2376 71.0494 51.0477 71.0494 Z" fill="#000000" fill-rule="evenodd" fill-opacity="1" /><path clip-path="url(#clip012)" d="
M1219.87 88.9544 L1234.48 89.1079 L1249.08 89.5683 L1263.67 90.3354 L1278.24 91.4088 L1292.78 92.7882 L1307.29 94.4729 L1321.77 96.462 L1336.19 98.7549 L1350.57 101.35 
  L1364.89 104.247 L1379.14 107.445 L1393.33 110.941 L1407.43 114.734 L1421.46 118.823 L1435.39 123.206 L1449.23 127.88 L1462.97 132.844 L1476.61 138.096 L1490.12 143.634 
  L1503.52 149.454 L1516.8 155.554 L1529.94 161.932 L1542.95 168.584 L1555.81 175.509 L1568.52 182.702 L1581.08 190.161 L1593.49 197.882 L1605.72 205.862 L1617.79 214.097 
  L1629.68 222.584 L1641.39 231.319 L1652.91 240.298 L1664.24 249.517 L1675.38 258.973 L1686.31 268.66 L1697.04 278.575 L1707.56 288.713 L1717.86 299.069 L1727.94 309.641 
  L1737.8 320.421 L1747.43 331.406 L1756.83 342.592 L1765.99 353.972 L1774.91 365.542 L1783.58 377.297 L1792 389.232 L1800.18 401.341 L1808.09 413.619 L1815.75 426.061 
  L1823.14 438.66 L1830.27 451.413 L1837.12 464.312 L1843.71 477.353 L1850.02 490.529 L1856.05 503.834 L1861.8 517.264 L1867.26 530.811 L1872.44 544.47 L1877.34 558.235 
  L1881.94 572.1 L1886.25 586.058 L1890.26 600.104 L1893.98 614.231 L1897.4 628.434 L1900.52 642.704 L1903.35 657.038 L1905.87 671.427 L1908.08 685.867 L1910 700.349 
  L1911.6 714.869 L1912.91 729.419 L1913.9 743.993 L1914.59 758.586 L1914.98 773.189 L1915.06 787.797 L1914.82 802.404 L1914.29 817.003 L1913.44 831.587 L1912.29 846.15 
  L1910.84 860.686 L1909.08 875.188 L1907.01 889.649 L1904.64 904.064 L1901.97 918.427 L1899 932.73 L1895.73 946.967 L1892.16 961.132 L1888.29 975.22 L1884.13 989.222 
  L1879.67 1003.13 L1874.93 1016.95 L1869.89 1030.66 L1864.57 1044.27 L1858.96 1057.76 L1853.07 1071.12 L1846.9 1084.37 L1840.45 1097.48 L1833.73 1110.45 L1826.74 1123.27 
  L1819.48 1135.95 L1811.95 1148.47 L1804.17 1160.83 L1796.12 1173.03 L1787.82 1185.05 L1779.27 1196.89 L1770.48 1208.56 L1761.44 1220.03 L1752.16 1231.32 L1742.65 1242.4 
  L1732.9 1253.29 L1722.93 1263.96 L1712.74 1274.43 L1702.33 1284.67 L1691.7 1294.7 L1680.87 1304.5 L1669.84 1314.07 L1658.6 1323.41 L1647.17 1332.51 L1635.56 1341.37 
  L1623.76 1349.98 L1611.78 1358.34 L1599.62 1366.45 L1587.3 1374.3 L1574.82 1381.89 L1562.18 1389.22 L1549.4 1396.28 L1536.46 1403.07 L1523.38 1409.58 L1510.18 1415.82 
  L1496.84 1421.78 L1483.38 1427.46 L1469.8 1432.86 L1456.12 1437.96 L1442.33 1442.78 L1428.44 1447.31 L1414.46 1451.55 L1400.39 1455.49 L1386.24 1459.13 L1372.02 1462.48 
  L1357.74 1465.53 L1343.39 1468.28 L1328.99 1470.72 L1314.54 1472.86 L1300.04 1474.7 L1285.52 1476.23 L1270.96 1477.46 L1256.38 1478.38 L1241.78 1478.99 L1227.18 1479.3 
  L1212.57 1479.3 L1197.96 1478.99 L1183.37 1478.38 L1168.79 1477.46 L1154.23 1476.23 L1139.7 1474.7 L1125.21 1472.86 L1110.76 1470.72 L1096.36 1468.28 L1082.01 1465.53 
  L1067.72 1462.48 L1053.5 1459.13 L1039.36 1455.49 L1025.29 1451.55 L1011.31 1447.31 L997.421 1442.78 L983.631 1437.96 L969.945 1432.86 L956.369 1427.46 L942.909 1421.78 
  L929.572 1415.82 L916.363 1409.58 L903.288 1403.07 L890.353 1396.28 L877.563 1389.22 L864.925 1381.89 L852.443 1374.3 L840.124 1366.45 L827.972 1358.34 L815.993 1349.98 
  L804.193 1341.37 L792.576 1332.51 L781.147 1323.41 L769.913 1314.07 L758.877 1304.5 L748.045 1294.7 L737.421 1284.67 L727.01 1274.43 L716.817 1263.96 L706.846 1253.29 
  L697.102 1242.4 L687.588 1231.32 L678.309 1220.03 L669.27 1208.56 L660.473 1196.89 L651.924 1185.05 L643.626 1173.03 L635.581 1160.83 L627.795 1148.47 L620.271 1135.95 
  L613.011 1123.27 L606.019 1110.45 L599.298 1097.48 L592.851 1084.37 L586.681 1071.12 L580.791 1057.76 L575.183 1044.27 L569.859 1030.66 L564.823 1016.95 L560.076 1003.13 
  L555.62 989.222 L551.457 975.22 L547.59 961.132 L544.02 946.967 L540.747 932.73 L537.775 918.427 L535.104 904.064 L532.736 889.649 L530.67 875.188 L528.91 860.686 
  L527.454 846.15 L526.304 831.587 L525.46 817.003 L524.923 802.404 L524.693 787.797 L524.77 773.189 L525.153 758.586 L525.844 743.993 L526.841 729.419 L528.144 714.869 
  L529.752 700.349 L531.665 685.867 L533.882 671.427 L536.402 657.038 L539.224 642.704 L542.346 628.434 L545.768 614.231 L549.487 600.104 L553.502 586.058 L557.811 572.1 
  L562.413 558.235 L567.305 544.47 L572.485 530.811 L577.951 517.264 L583.701 503.834 L589.731 490.529 L596.04 477.353 L602.624 464.312 L609.481 451.413 L616.607 438.66 
  L624 426.061 L631.656 413.619 L639.571 401.341 L647.743 389.232 L656.168 377.297 L664.841 365.542 L673.759 353.972 L682.919 342.592 L692.316 331.406 L701.945 320.421 
  L711.804 309.641 L721.886 299.069 L732.189 288.713 L742.707 278.575 L753.435 268.66 L764.37 258.973 L775.506 249.517 L786.838 240.298 L798.361 231.319 L810.07 222.584 
  L821.96 214.097 L834.026 205.862 L846.263 197.882 L858.664 190.161 L871.225 182.702 L883.94 175.509 L896.803 168.584 L909.809 161.932 L922.951 155.554 L936.225 149.454 
  L949.624 143.634 L963.142 138.096 L976.774 132.844 L990.513 127.88 L1004.35 123.206 L1018.29 118.823 L1032.31 114.734 L1046.42 110.941 L1060.61 107.445 L1074.86 104.247 
  L1089.18 101.35 L1103.55 98.7549 L1117.98 96.462 L1132.45 94.4729 L1146.96 92.7882 L1161.51 91.4088 L1176.08 90.3354 L1190.67 89.5683 L1205.27 89.1079 L1219.87 88.9544 
  L1219.87 784.145 L1205.27 784.145 L1190.67 784.145 L1176.08 784.145 L1161.51 784.145 L1146.96 784.145 L1132.45 784.145 L1117.98 784.145 L1103.55 784.145 L1089.18 784.145 
  L1074.86 784.145 L1060.61 784.145 L1046.42 784.145 L1032.31 784.145 L1018.29 784.145 L1004.35 784.145 L990.513 784.145 L976.774 784.145 L963.142 784.145 L949.624 784.145 
  L936.225 784.145 L922.951 784.145 L909.809 784.145 L896.803 784.145 L883.94 784.145 L871.225 784.145 L858.664 784.145 L846.263 784.145 L834.026 784.145 L821.96 784.145 
  L810.07 784.145 L798.361 784.145 L786.838 784.145 L775.506 784.145 L764.37 784.145 L753.435 784.145 L742.707 784.145 L732.189 784.145 L721.886 784.145 L711.804 784.145 
  L701.945 784.145 L692.316 784.145 L682.919 784.145 L673.759 784.145 L664.841 784.145 L656.168 784.145 L647.743 784.145 L639.571 784.145 L631.656 784.145 L624 784.145 
  L616.607 784.145 L609.481 784.145 L602.624 784.145 L596.04 784.145 L589.731 784.145 L583.701 784.145 L577.951 784.145 L572.485 784.145 L567.305 784.145 L562.413 784.145 
  L557.811 784.145 L553.502 784.145 L549.487 784.145 L545.768 784.145 L542.346 784.145 L539.224 784.145 L536.402 784.145 L533.882 784.145 L531.665 784.145 L529.752 784.145 
  L528.144 784.145 L526.841 784.145 L525.844 784.145 L525.153 784.145 L524.77 784.145 L524.693 784.145 L524.923 784.145 L525.46 784.145 L526.304 784.145 L527.454 784.145 
  L528.91 784.145 L530.67 784.145 L532.736 784.145 L535.104 784.145 L537.775 784.145 L540.747 784.145 L544.02 784.145 L547.59 784.145 L551.457 784.145 L555.62 784.145 
  L560.076 784.145 L564.823 784.145 L569.859 784.145 L575.183 784.145 L580.791 784.145 L586.681 784.145 L592.851 784.145 L599.298 784.145 L606.019 784.145 L613.011 784.145 
  L620.271 784.145 L627.795 784.145 L635.581 784.145 L643.626 784.145 L651.924 784.145 L660.473 784.145 L669.27 784.145 L678.309 784.145 L687.588 784.145 L697.102 784.145 
  L706.846 784.145 L716.817 784.145 L727.01 784.145 L737.421 784.145 L748.045 784.145 L758.877 784.145 L769.913 784.145 L781.147 784.145 L792.576 784.145 L804.193 784.145 
  L815.993 784.145 L827.972 784.145 L840.124 784.145 L852.443 784.145 L864.925 784.145 L877.563 784.145 L890.353 784.145 L903.288 784.145 L916.363 784.145 L929.572 784.145 
  L942.909 784.145 L956.369 784.145 L969.945 784.145 L983.631 784.145 L997.421 784.145 L1011.31 784.145 L1025.29 784.145 L1039.36 784.145 L1053.5 784.145 L1067.72 784.145 
  L1082.01 784.145 L1096.36 784.145 L1110.76 784.145 L1125.21 784.145 L1139.7 784.145 L1154.23 784.145 L1168.79 784.145 L1183.37 784.145 L1197.96 784.145 L1212.57 784.145 
  L1227.18 784.145 L1241.78 784.145 L1256.38 784.145 L1270.96 784.145 L1285.52 784.145 L1300.04 784.145 L1314.54 784.145 L1328.99 784.145 L1343.39 784.145 L1357.74 784.145 
  L1372.02 784.145 L1386.24 784.145 L1400.39 784.145 L1414.46 784.145 L1428.44 784.145 L1442.33 784.145 L1456.12 784.145 L1469.8 784.145 L1483.38 784.145 L1496.84 784.145 
  L1510.18 784.145 L1523.38 784.145 L1536.46 784.145 L1549.4 784.145 L1562.18 784.145 L1574.82 784.145 L1587.3 784.145 L1599.62 784.145 L1611.78 784.145 L1623.76 784.145 
  L1635.56 784.145 L1647.17 784.145 L1658.6 784.145 L1669.84 784.145 L1680.87 784.145 L1691.7 784.145 L1702.33 784.145 L1712.74 784.145 L1722.93 784.145 L1732.9 784.145 
  L1742.65 784.145 L1752.16 784.145 L1761.44 784.145 L1770.48 784.145 L1779.27 784.145 L1787.82 784.145 L1796.12 784.145 L1804.17 784.145 L1811.95 784.145 L1819.48 784.145 
  L1826.74 784.145 L1833.73 784.145 L1840.45 784.145 L1846.9 784.145 L1853.07 784.145 L1858.96 784.145 L1864.57 784.145 L1869.89 784.145 L1874.93 784.145 L1879.67 784.145 
  L1884.13 784.145 L1888.29 784.145 L1892.16 784.145 L1895.73 784.145 L1899 784.145 L1901.97 784.145 L1904.64 784.145 L1907.01 784.145 L1909.08 784.145 L1910.84 784.145 
  L1912.29 784.145 L1913.44 784.145 L1914.29 784.145 L1914.82 784.145 L1915.06 784.145 L1914.98 784.145 L1914.59 784.145 L1913.9 784.145 L1912.91 784.145 L1911.6 784.145 
  L1910 784.145 L1908.08 784.145 L1905.87 784.145 L1903.35 784.145 L1900.52 784.145 L1897.4 784.145 L1893.98 784.145 L1890.26 784.145 L1886.25 784.145 L1881.94 784.145 
  L1877.34 784.145 L1872.44 784.145 L1867.26 784.145 L1861.8 784.145 L1856.05 784.145 L1850.02 784.145 L1843.71 784.145 L1837.12 784.145 L1830.27 784.145 L1823.14 784.145 
  L1815.75 784.145 L1808.09 784.145 L1800.18 784.145 L1792 784.145 L1783.58 784.145 L1774.91 784.145 L1765.99 784.145 L1756.83 784.145 L1747.43 784.145 L1737.8 784.145 
  L1727.94 784.145 L1717.86 784.145 L1707.56 784.145 L1697.04 784.145 L1686.31 784.145 L1675.38 784.145 L1664.24 784.145 L1652.91 784.145 L1641.39 784.145 L1629.68 784.145 
  L1617.79 784.145 L1605.72 784.145 L1593.49 784.145 L1581.08 784.145 L1568.52 784.145 L1555.81 784.145 L1542.95 784.145 L1529.94 784.145 L1516.8 784.145 L1503.52 784.145 
  L1490.12 784.145 L1476.61 784.145 L1462.97 784.145 L1449.23 784.145 L1435.39 784.145 L1421.46 784.145 L1407.43 784.145 L1393.33 784.145 L1379.14 784.145 L1364.89 784.145 
  L1350.57 784.145 L1336.19 784.145 L1321.77 784.145 L1307.29 784.145 L1292.78 784.145 L1278.24 784.145 L1263.67 784.145 L1249.08 784.145 L1234.48 784.145 L1219.87 784.145 
   Z
  " fill="#ff0000" fill-rule="evenodd" fill-opacity="0.2"/>
<polyline clip-path="url(#clip012)" style="stroke:#009af9; stroke-width:4; stroke-opacity:1; fill:none" points="
  1219.87,88.9544 1234.48,89.1079 1249.08,89.5683 1263.67,90.3354 1278.24,91.4088 1292.78,92.7882 1307.29,94.4729 1321.77,96.462 1336.19,98.7549 1350.57,101.35 
  1364.89,104.247 1379.14,107.445 1393.33,110.941 1407.43,114.734 1421.46,118.823 1435.39,123.206 1449.23,127.88 1462.97,132.844 1476.61,138.096 1490.12,143.634 
  1503.52,149.454 1516.8,155.554 1529.94,161.932 1542.95,168.584 1555.81,175.509 1568.52,182.702 1581.08,190.161 1593.49,197.882 1605.72,205.862 1617.79,214.097 
  1629.68,222.584 1641.39,231.319 1652.91,240.298 1664.24,249.517 1675.38,258.973 1686.31,268.66 1697.04,278.575 1707.56,288.713 1717.86,299.069 1727.94,309.641 
  1737.8,320.421 1747.43,331.406 1756.83,342.592 1765.99,353.972 1774.91,365.542 1783.58,377.297 1792,389.232 1800.18,401.341 1808.09,413.619 1815.75,426.061 
  1823.14,438.66 1830.27,451.413 1837.12,464.312 1843.71,477.353 1850.02,490.529 1856.05,503.834 1861.8,517.264 1867.26,530.811 1872.44,544.47 1877.34,558.235 
  1881.94,572.1 1886.25,586.058 1890.26,600.104 1893.98,614.231 1897.4,628.434 1900.52,642.704 1903.35,657.038 1905.87,671.427 1908.08,685.867 1910,700.349 
  1911.6,714.869 1912.91,729.419 1913.9,743.993 1914.59,758.586 1914.98,773.189 1915.06,787.797 1914.82,802.404 1914.29,817.003 1913.44,831.587 1912.29,846.15 
  1910.84,860.686 1909.08,875.188 1907.01,889.649 1904.64,904.064 1901.97,918.427 1899,932.73 1895.73,946.967 1892.16,961.132 1888.29,975.22 1884.13,989.222 
  1879.67,1003.13 1874.93,1016.95 1869.89,1030.66 1864.57,1044.27 1858.96,1057.76 1853.07,1071.12 1846.9,1084.37 1840.45,1097.48 1833.73,1110.45 1826.74,1123.27 
  1819.48,1135.95 1811.95,1148.47 1804.17,1160.83 1796.12,1173.03 1787.82,1185.05 1779.27,1196.89 1770.48,1208.56 1761.44,1220.03 1752.16,1231.32 1742.65,1242.4 
  1732.9,1253.29 1722.93,1263.96 1712.74,1274.43 1702.33,1284.67 1691.7,1294.7 1680.87,1304.5 1669.84,1314.07 1658.6,1323.41 1647.17,1332.51 1635.56,1341.37 
  1623.76,1349.98 1611.78,1358.34 1599.62,1366.45 1587.3,1374.3 1574.82,1381.89 1562.18,1389.22 1549.4,1396.28 1536.46,1403.07 1523.38,1409.58 1510.18,1415.82 
  1496.84,1421.78 1483.38,1427.46 1469.8,1432.86 1456.12,1437.96 1442.33,1442.78 1428.44,1447.31 1414.46,1451.55 1400.39,1455.49 1386.24,1459.13 1372.02,1462.48 
  1357.74,1465.53 1343.39,1468.28 1328.99,1470.72 1314.54,1472.86 1300.04,1474.7 1285.52,1476.23 1270.96,1477.46 1256.38,1478.38 1241.78,1478.99 1227.18,1479.3 
  1212.57,1479.3 1197.96,1478.99 1183.37,1478.38 1168.79,1477.46 1154.23,1476.23 1139.7,1474.7 1125.21,1472.86 1110.76,1470.72 1096.36,1468.28 1082.01,1465.53 
  1067.72,1462.48 1053.5,1459.13 1039.36,1455.49 1025.29,1451.55 1011.31,1447.31 997.421,1442.78 983.631,1437.96 969.945,1432.86 956.369,1427.46 942.909,1421.78 
  929.572,1415.82 916.363,1409.58 903.288,1403.07 890.353,1396.28 877.563,1389.22 864.925,1381.89 852.443,1374.3 840.124,1366.45 827.972,1358.34 815.993,1349.98 
  804.193,1341.37 792.576,1332.51 781.147,1323.41 769.913,1314.07 758.877,1304.5 748.045,1294.7 737.421,1284.67 727.01,1274.43 716.817,1263.96 706.846,1253.29 
  697.102,1242.4 687.588,1231.32 678.309,1220.03 669.27,1208.56 660.473,1196.89 651.924,1185.05 643.626,1173.03 635.581,1160.83 627.795,1148.47 620.271,1135.95 
  613.011,1123.27 606.019,1110.45 599.298,1097.48 592.851,1084.37 586.681,1071.12 580.791,1057.76 575.183,1044.27 569.859,1030.66 564.823,1016.95 560.076,1003.13 
  555.62,989.222 551.457,975.22 547.59,961.132 544.02,946.967 540.747,932.73 537.775,918.427 535.104,904.064 532.736,889.649 530.67,875.188 528.91,860.686 
  527.454,846.15 526.304,831.587 525.46,817.003 524.923,802.404 524.693,787.797 524.77,773.189 525.153,758.586 525.844,743.993 526.841,729.419 528.144,714.869 
  529.752,700.349 531.665,685.867 533.882,671.427 536.402,657.038 539.224,642.704 542.346,628.434 545.768,614.231 549.487,600.104 553.502,586.058 557.811,572.1 
  562.413,558.235 567.305,544.47 572.485,530.811 577.951,517.264 583.701,503.834 589.731,490.529 596.04,477.353 602.624,464.312 609.481,451.413 616.607,438.66 
  624,426.061 631.656,413.619 639.571,401.341 647.743,389.232 656.168,377.297 664.841,365.542 673.759,353.972 682.919,342.592 692.316,331.406 701.945,320.421 
  711.804,309.641 721.886,299.069 732.189,288.713 742.707,278.575 753.435,268.66 764.37,258.973 775.506,249.517 786.838,240.298 798.361,231.319 810.07,222.584 
  821.96,214.097 834.026,205.862 846.263,197.882 858.664,190.161 871.225,182.702 883.94,175.509 896.803,168.584 909.809,161.932 922.951,155.554 936.225,149.454 
  949.624,143.634 963.142,138.096 976.774,132.844 990.513,127.88 1004.35,123.206 1018.29,118.823 1032.31,114.734 1046.42,110.941 1060.61,107.445 1074.86,104.247 
  1089.18,101.35 1103.55,98.7549 1117.98,96.462 1132.45,94.4729 1146.96,92.7882 1161.51,91.4088 1176.08,90.3354 1190.67,89.5683 1205.27,89.1079 1219.87,88.9544 
  
  "/>
<circle clip-path="url(#clip012)" cx="1219.87" cy="784.145" r="14" fill="#ff0000" fill-rule="evenodd" fill-opacity="1" stroke="#000000" stroke-opacity="1" stroke-width="3.2"/>
<path clip-path="url(#clip010)" d="M 0 0 M1219.87 713.582 L1208.77 743.681 L1231.01 743.681 L1219.87 713.582 M1215.26 705.521 L1224.53 705.521 L1247.58 766.001 L1239.08 766.001 L1233.57 750.486 L1206.3 750.486 L1200.79 766.001 L1192.17 766.001 L1215.26 705.521 Z" fill="#000000" fill-rule="evenodd" fill-opacity="1" /></svg>
